<svg width="22" height="22" viewBox="0 0 22 22" fill="none" xmlns="http://www.w3.org/2000/svg">
<path fill-rule="evenodd" clip-rule="evenodd" d="M12.121 0.0917969C14.0851 0.0953617 14.5005 0.111089 15.4978 0.156595C16.659 0.209555 17.452 0.393986 18.1459 0.663681C18.8633 0.942427 19.4716 1.31545 20.0782 1.92191C20.6846 2.52843 21.0576 3.1368 21.3364 3.85417C21.6061 4.54807 21.7905 5.34109 21.8435 6.50223C21.8966 7.6658 21.9091 8.03731 21.9091 11.0001C21.9091 13.9628 21.8966 14.3343 21.8435 15.4978C21.7905 16.659 21.6061 17.452 21.3364 18.1459C21.0576 18.8633 20.6846 19.4716 20.0782 20.0782C19.4716 20.6846 18.8633 21.0576 18.1459 21.3364C17.452 21.6061 16.659 21.7905 15.4978 21.8435C14.3343 21.8966 13.9628 21.9091 11.0001 21.9091C8.03731 21.9091 7.6658 21.8966 6.50223 21.8435C5.34109 21.7905 4.54807 21.6061 3.85417 21.3364C3.1368 21.0576 2.52843 20.6846 1.92191 20.0782C1.31545 19.4716 0.942427 18.8633 0.663681 18.1459C0.393986 17.452 0.209555 16.659 0.156595 15.4978C0.111089 14.5005 0.0953617 14.0851 0.0917969 12.121V9.87909C0.0953617 7.915 0.111089 7.49958 0.156595 6.50223C0.209555 5.34109 0.393986 4.54807 0.663681 3.85417C0.942427 3.1368 1.31545 2.52843 1.92191 1.92191C2.52843 1.31545 3.1368 0.942427 3.85417 0.663681C4.54807 0.393986 5.34109 0.209555 6.50223 0.156595C7.49958 0.111089 7.915 0.0953617 9.87909 0.0917969H12.121ZM11.6065 2.05674H10.3937C8.03166 2.05842 7.65694 2.07156 6.59183 2.12016C5.5282 2.16866 4.95057 2.34638 4.56617 2.49577C4.05696 2.69367 3.69355 2.93007 3.31183 3.31183C2.93007 3.69355 2.69367 4.05696 2.49577 4.56617C2.34638 4.95057 2.16866 5.5282 2.12016 6.59183C2.07156 7.65694 2.05842 8.03166 2.05674 10.3937V11.6065C2.05842 13.9684 2.07156 14.3431 2.12016 15.4082C2.16866 16.4719 2.34638 17.0495 2.49577 17.4339C2.69367 17.9431 2.93011 18.3065 3.31183 18.6882C3.69355 19.07 4.05696 19.3064 4.56617 19.5043C4.95057 19.6537 5.5282 19.8314 6.59183 19.8799C7.65682 19.9285 8.03145 19.9417 10.3936 19.9433H11.6065C13.9686 19.9417 14.3433 19.9285 15.4082 19.8799C16.4719 19.8314 17.0495 19.6537 17.4339 19.5043C17.9431 19.3064 18.3065 19.07 18.6882 18.6882C19.07 18.3065 19.3064 17.9431 19.5043 17.4339C19.6537 17.0495 19.8314 16.4719 19.8799 15.4082C19.9285 14.3431 19.9417 13.9684 19.9433 11.6065V10.3937C19.9417 8.03166 19.9285 7.65694 19.8799 6.59183C19.8314 5.5282 19.6537 4.95057 19.5043 4.56617C19.3064 4.05696 19.07 3.69355 18.6882 3.31183C18.3065 2.93007 17.9431 2.69367 17.4339 2.49577C17.0495 2.34638 16.4719 2.16866 15.4082 2.12016C14.3431 2.07156 13.9684 2.05842 11.6065 2.05674ZM11.0001 5.39808C14.0939 5.39808 16.602 7.90614 16.602 11.0001C16.602 14.0939 14.0939 16.602 11.0001 16.602C7.90614 16.602 5.39808 14.0939 5.39808 11.0001C5.39808 7.90614 7.90614 5.39808 11.0001 5.39808ZM11.0001 7.36367C8.99172 7.36367 7.36367 8.99172 7.36367 11.0001C7.36367 13.0084 8.99172 14.6364 11.0001 14.6364C13.0084 14.6364 14.6364 13.0084 14.6364 11.0001C14.6364 8.99172 13.0084 7.36367 11.0001 7.36367ZM16.8233 3.86764C17.5463 3.86764 18.1324 4.45375 18.1324 5.17675C18.1324 5.89975 17.5463 6.48582 16.8233 6.48582C16.1004 6.48582 15.5143 5.89975 15.5143 5.17675C15.5143 4.45375 16.1004 3.86764 16.8233 3.86764Z" fill="#BDBDBD"/>
</svg>
