<svg width="121" height="32" viewBox="0 0 121 32" fill="none" xmlns="http://www.w3.org/2000/svg">
<path fill-rule="evenodd" clip-rule="evenodd" d="M114.174 0H108.189C104.046 0 100.092 3.07824 99.3605 6.87638L99.0897 8.36585L98.4668 11.3448L105.318 8.78787L105.725 7.1991C105.833 6.65296 106.402 6.20612 106.997 6.20612H112.982C113.578 6.20612 113.984 6.65296 113.876 7.1991L112.332 14.6464C112.224 15.1678 111.628 15.6394 111.06 15.6394H106.022V15.6642L101.256 21.0263C102.069 21.3491 102.962 21.5228 103.964 21.5228H109.949C110.193 21.5228 110.437 21.498 110.653 21.498C114.526 21.1753 118.074 18.2212 118.751 14.6464L120.348 6.87638C121.08 3.07824 118.29 0 114.174 0Z" fill="#C41A90"/>
<path fill-rule="evenodd" clip-rule="evenodd" d="M16.8711 31.3534H23.2894V8.2666H16.8711V31.3534Z" fill="white"/>
<path fill-rule="evenodd" clip-rule="evenodd" d="M44.9281 17.8488V31.3782L51.3193 28.995V17.8488C51.3193 16.26 51.0485 14.7458 50.4798 13.3556C49.9381 11.9654 49.1528 10.7242 48.1237 9.65674C47.1217 8.58928 45.903 7.77007 44.4677 7.17429C43.0595 6.5785 41.4617 6.28061 39.7285 6.28061C38.239 6.28061 36.885 6.52885 35.6663 7.00052C34.4477 7.47218 33.3644 8.09279 32.4166 8.83753V6.23096H26.0254V31.3782H32.4166V17.8488C32.4166 16.26 33.0124 14.8947 34.231 13.8024C35.4497 12.6853 36.9121 12.1392 38.6453 12.1392C40.3514 12.1392 41.8138 12.6853 43.0053 13.8024C44.3052 14.8699 44.9281 16.2104 44.9281 17.8488Z" fill="white"/>
<path fill-rule="evenodd" clip-rule="evenodd" d="M60.1479 19.3631L73.4718 14.3982C72.7948 13.6286 71.6574 12.9583 70.7908 12.6356C68.8409 11.8909 66.8911 11.8909 64.9142 12.6356C63.0185 13.3555 61.6103 14.6216 60.7437 16.4338C60.3645 17.253 60.175 18.0474 60.175 18.8666L60.1479 19.3631ZM62.9914 24.6258C63.533 25.023 64.1559 25.3458 64.8329 25.594C65.8079 25.9664 66.7828 26.1401 67.7848 26.1401C68.7868 26.1401 69.7617 25.9415 70.7096 25.594C72.0636 25.0975 73.1198 24.3528 73.9322 23.3846L81.1088 23.3101C80.4859 25.023 79.511 26.5373 78.1569 27.8779C76.8028 29.2184 75.1238 30.261 73.1469 31.0057C71.3324 31.676 69.518 32.0235 67.6494 31.9987C65.8078 31.9739 64.0205 31.6512 62.3685 31.0057C60.6895 30.3603 59.2 29.4418 57.873 28.2502C56.5461 27.0586 55.517 25.6436 54.7858 24.0301C54.0546 22.3668 53.6754 20.7036 53.7025 18.9907C53.7296 17.2778 54.0817 15.6642 54.7858 14.1499C55.4899 12.6108 56.4919 11.2454 57.7918 10.029C59.0917 8.81265 60.6353 7.86932 62.4498 7.19906C64.2642 6.5288 66.0787 6.18125 67.9473 6.20608C69.8159 6.2309 71.5762 6.55362 73.2281 7.19906C74.9071 7.84449 76.3966 8.763 77.7236 9.95457C79.0506 11.1461 80.1338 12.5115 80.865 14.1747C81.2983 15.1429 81.6775 16.682 81.84 17.6005C81.84 17.5757 62.9914 24.6258 62.9914 24.6258Z" fill="white"/>
<path fill-rule="evenodd" clip-rule="evenodd" d="M97.2758 25.4948H92.997C92.347 25.4948 91.8054 25.2714 91.345 24.8494C90.8847 24.4274 90.6409 23.9061 90.6409 23.2855V20.381V14.2493L95.4072 12.4868L94.351 8.26664H90.6138V5.18841V0.496582L84.2227 1.96123V23.2855C84.2227 24.4026 84.4664 25.4452 84.9268 26.4133C85.3872 27.3815 86.01 28.2504 86.7954 28.9703C87.5807 29.715 88.5015 30.286 89.5577 30.708C90.6138 31.13 91.7513 31.3534 92.9699 31.3534H98.8465L97.2758 25.4948Z" fill="white"/>
<path fill-rule="evenodd" clip-rule="evenodd" d="M18.6855 6.23104H21.4478C22.4498 6.23104 23.2623 5.4863 23.2623 4.5678V2.15982C23.2623 1.24132 22.4498 0.496582 21.4478 0.496582H18.6855C17.6835 0.496582 16.8711 1.24132 16.8711 2.15982V4.5678C16.8711 5.4863 17.6835 6.23104 18.6855 6.23104Z" fill="white"/>
<path fill-rule="evenodd" clip-rule="evenodd" d="M12.999 25.5195H8.74724C8.09729 25.5195 7.55567 25.2961 7.09529 24.8741C6.63491 24.452 6.39118 23.9307 6.39118 23.3101V20.4056V14.274L11.1575 12.5115L10.1013 8.2913H6.39118V5.21307V0.52124L0 1.98588V23.3101C0 24.4272 0.243731 25.4698 0.704113 26.438C1.16449 27.4062 1.78736 28.275 2.57272 28.9949C3.35808 29.7397 4.27884 30.3106 5.33501 30.7326C6.39118 31.1547 7.52859 31.3781 8.74724 31.3781H14.6239L12.999 25.5195Z" fill="white"/>
</svg>
