<svg width="151" height="24" viewBox="0 0 151 24" fill="none" xmlns="http://www.w3.org/2000/svg">
<path d="M32.9548 10.7974C32.6548 10.4467 32.3047 10.146 31.8797 9.89551C31.4046 9.67004 30.8795 9.49467 30.3294 9.54478C29.7793 9.54478 29.2792 9.67004 28.8042 9.89551C28.4041 10.0959 28.154 10.5218 28.179 10.9477C28.179 11.2984 28.3041 11.5991 28.5791 11.8496C28.8042 12.0751 29.1292 12.2755 29.4293 12.4007C29.7793 12.551 30.1294 12.6763 30.5044 12.7014L31.4796 12.9018C31.9797 13.027 32.4798 13.1773 32.9548 13.3778C33.3799 13.5281 33.805 13.7786 34.155 14.0792C34.5051 14.3548 34.7301 14.7306 34.9302 15.1314C35.1302 15.6074 35.2302 16.1084 35.2052 16.6596C35.2052 17.311 35.0552 17.9373 34.7301 18.4884C34.4301 18.9895 34.03 19.4153 33.5299 19.741C33.0299 20.0917 32.4548 20.3172 31.8547 20.4425C31.2296 20.5928 30.6045 20.6679 29.9543 20.6429C28.9792 20.693 28.054 20.4926 27.1539 20.1669C26.3037 19.7661 25.5286 19.1899 24.9785 18.3882L26.8538 16.86C27.2539 17.2609 27.704 17.6116 28.179 17.9122C28.7291 18.2128 29.3542 18.3882 29.9543 18.3882C30.2544 18.3882 30.5794 18.3381 30.8795 18.313C31.1795 18.2629 31.4546 18.1627 31.7296 18.0124C31.9547 17.8872 32.1547 17.7118 32.3047 17.5114C32.4548 17.311 32.5298 17.0354 32.5298 16.8099C32.5298 16.5093 32.4047 16.1586 32.1797 15.908C31.9547 15.6575 31.6796 15.4821 31.3546 15.3569C31.0545 15.2316 30.7045 15.1314 30.3544 15.0563C30.0044 14.9811 29.7043 14.9059 29.4293 14.8558C28.8792 14.7306 28.4291 14.5803 27.904 14.43C27.4289 14.2796 27.0539 14.0792 26.6538 13.7786C26.3037 13.503 26.0037 13.1523 25.8037 12.7765C25.5786 12.3005 25.4536 11.7744 25.5036 11.2483C25.5036 10.622 25.6286 10.0458 25.9287 9.54478C26.2037 9.04373 26.5788 8.6429 27.0539 8.34228C27.5289 7.99155 28.054 7.76608 28.6541 7.59071C29.2292 7.4404 29.8293 7.36523 30.4294 7.36523C31.2796 7.36523 32.1297 7.51555 32.9048 7.84123C33.68 8.14186 34.3801 8.74311 34.8051 9.44457L32.9548 10.7974Z" fill="white"/>
<path d="M36.3313 7.5906H38.6316V9.56972H38.6816C38.8067 9.34425 38.9067 9.09373 39.1067 8.91837C39.3818 8.61774 39.6568 8.36722 39.9569 8.14175C40.3569 7.86617 40.782 7.66575 41.2071 7.51544C41.7072 7.31502 42.2572 7.23987 42.8073 7.23987C43.6575 7.18976 44.4826 7.44029 45.2077 7.81607C45.9079 8.24196 46.4579 8.86826 46.808 9.59478C47.2081 8.81816 47.8082 8.19185 48.5833 7.81607C49.2834 7.41524 50.1086 7.23987 50.9087 7.23987C51.7588 7.18976 52.584 7.36513 53.3591 7.71586C53.9342 7.99144 54.4843 8.46742 54.8843 8.99352C55.2844 9.51961 55.5094 10.171 55.6345 10.7722C55.7845 11.4737 55.8345 12.1751 55.8345 12.8766V20.267H53.3341V13.1772C53.3341 12.7012 53.2841 12.2503 53.2591 11.7743C53.2091 11.3484 53.059 10.9476 52.859 10.5969C52.659 10.2461 52.3589 9.97056 52.0089 9.77014C51.5338 9.54467 51.0837 9.46952 50.5836 9.46952C49.4084 9.46952 48.5583 9.82024 48.0582 10.5468C47.5081 11.3735 47.2331 12.3255 47.2831 13.3025V20.3171H44.8327V13.6532C44.8327 13.1021 44.7827 12.5259 44.7577 11.9747C44.7077 11.4987 44.5576 11.0729 44.3576 10.647C44.1576 10.2962 43.8825 9.99561 43.5325 9.79519C43.1074 9.56972 42.6073 9.49456 42.1072 9.49456C41.6821 9.49456 41.2571 9.56972 40.832 9.77014C40.4069 9.92045 40.0569 10.196 39.7568 10.5468C39.4068 10.9476 39.1817 11.3735 39.0067 11.8745C38.8067 12.5008 38.7317 13.1271 38.7317 13.7534V20.3672H36.2812V7.61565H36.3313V7.5906Z" fill="white"/>
<path d="M57.6092 9.14356C58.3093 8.51726 59.1345 8.06632 60.0096 7.74064C60.9098 7.44001 61.7849 7.26465 62.7351 7.26465C63.5602 7.26465 64.3603 7.38991 65.1855 7.61538C65.8106 7.81579 66.3857 8.11642 66.8608 8.54231C67.2858 8.94315 67.6109 9.36903 67.8359 9.89513C68.036 10.3962 68.136 10.9473 68.136 11.4985V17.987C68.136 18.4129 68.136 18.8388 68.186 19.2396C68.236 19.6404 68.236 19.9912 68.261 20.3168H66.0856C66.0356 19.6905 66.0106 19.0392 66.0106 18.3628H65.9606C65.4855 19.1143 64.8354 19.7156 64.0103 20.1164C63.1851 20.4672 62.31 20.6676 61.4349 20.6175C60.8598 20.6175 60.2597 20.5423 59.7346 20.392C59.2345 20.2417 58.7344 19.9912 58.3093 19.6404C57.9093 19.3398 57.5592 18.8889 57.3342 18.4379C57.1091 17.9369 56.9841 17.3607 56.9841 16.8095C56.9341 16.058 57.1341 15.3816 57.5342 14.7552C57.9343 14.179 58.4344 13.7031 59.0595 13.4024C59.7596 13.0016 60.5347 12.7761 61.3098 12.6509C62.21 12.5006 63.1351 12.4254 64.0603 12.4254H65.8856V11.8742C65.8856 11.5235 65.8106 11.2229 65.6856 10.8972C65.5605 10.5966 65.3855 10.2709 65.1105 10.0454C64.8354 9.76987 64.5354 9.56945 64.1853 9.41914C63.7602 9.26882 63.2852 9.19367 62.8351 9.19367C62.41 9.19367 62.0099 9.24378 61.5849 9.34398C61.2348 9.41914 60.9348 9.5444 60.6097 9.69471C60.3347 9.81997 60.0596 9.97029 59.8346 10.1707L59.1345 10.6717L57.6092 9.14356ZM64.5104 14.2041C63.9353 14.2041 63.3102 14.2542 62.7351 14.2793C62.16 14.3294 61.6099 14.4296 61.0598 14.63C60.5847 14.7803 60.1596 15.0559 59.8596 15.3816C59.5595 15.6822 59.3595 16.1582 59.3845 16.6342C59.3345 17.2605 59.6096 17.8868 60.1346 18.2375C60.7597 18.5882 61.4599 18.7385 62.16 18.7135C62.7351 18.7135 63.3352 18.5882 63.8603 18.3628C64.2853 18.1624 64.6854 17.8617 64.9854 17.511C65.2605 17.1603 65.4855 16.7344 65.6105 16.3085C65.7356 15.8826 65.8106 15.4567 65.8106 15.0308V14.2041H64.5104Z" fill="white"/>
<path d="M97.2146 10.7974C96.9146 10.4467 96.5645 10.146 96.1394 9.89551C95.6644 9.67004 95.1393 9.49467 94.5892 9.54478C94.0391 9.54478 93.539 9.67004 93.0639 9.89551C92.6638 10.0959 92.4138 10.5218 92.4388 10.9477C92.4388 11.2984 92.5638 11.5991 92.8389 11.8496C93.1139 12.0751 93.389 12.2755 93.689 12.4007C94.0391 12.551 94.3891 12.6763 94.7642 12.7014L95.7394 12.9018C96.2394 13.027 96.7395 13.1773 97.2146 13.3778C97.6397 13.5281 98.0647 13.7786 98.4148 14.0792C98.7649 14.3548 98.9899 14.7306 99.1899 15.1314C99.39 15.6074 99.49 16.1084 99.465 16.6596C99.465 17.311 99.315 17.9373 98.9899 18.4884C98.6899 18.9895 98.2898 19.4153 97.7897 19.741C97.2896 20.0917 96.7145 20.3172 96.1144 20.4425C95.4893 20.5928 94.8642 20.6679 94.2141 20.6429C93.2389 20.693 92.3138 20.4926 91.4136 20.1669C90.5635 19.7661 89.7884 19.1899 89.2383 18.3882L91.1136 16.86C91.5137 17.2609 91.9637 17.6116 92.4388 17.9122C92.9889 18.2128 93.614 18.3882 94.2141 18.3882C94.5142 18.3882 94.8392 18.3381 95.1393 18.313C95.4393 18.2629 95.7144 18.1627 95.9894 18.0124C96.2144 17.8872 96.4145 17.7118 96.5645 17.5114C96.7145 17.311 96.7895 17.0354 96.7895 16.8099C96.7895 16.5093 96.6645 16.1586 96.4395 15.908C96.2144 15.6575 95.9394 15.4821 95.6143 15.3569C95.3143 15.2316 94.9642 15.1314 94.6142 15.0563C94.2641 14.9811 93.9641 14.9059 93.689 14.8558C93.1389 14.7306 92.6889 14.5803 92.1638 14.43C91.6887 14.2796 91.3136 14.0792 90.9136 13.7786C90.5635 13.503 90.2634 13.1523 90.0634 12.7765C89.8384 12.3005 89.7134 11.7744 89.7634 11.2483C89.7634 10.622 89.8884 10.0458 90.1884 9.54478C90.4635 9.04373 90.8385 8.6429 91.3136 8.34228C91.7887 7.99155 92.3138 7.76608 92.9139 7.59071C93.514 7.41534 94.0891 7.36523 94.6892 7.36523C95.5393 7.36523 96.3895 7.51555 97.1646 7.84123C97.9397 8.14186 98.6398 8.74311 99.0649 9.44457L97.2146 10.7974Z" fill="white"/>
<path d="M100.666 0H103.116V9.54488H103.166C103.516 8.84342 104.067 8.26722 104.767 7.91649C105.592 7.4906 106.467 7.26513 107.417 7.29019C108.042 7.29019 108.617 7.36534 109.192 7.56576C109.743 7.76618 110.243 8.04175 110.718 8.41753C111.193 8.84342 111.493 9.34447 111.718 9.94572C111.993 10.6472 112.118 11.3737 112.118 12.1253V20.3173H109.718V12.7766C109.718 12.2756 109.643 11.7745 109.492 11.2484C109.342 10.8476 109.142 10.4969 108.842 10.2463C108.567 9.97077 108.267 9.77035 107.917 9.6952C107.567 9.56994 107.167 9.49478 106.842 9.54488C106.367 9.54488 105.867 9.62004 105.442 9.77035C105.017 9.92066 104.617 10.1962 104.317 10.547C103.967 10.9478 103.692 11.3737 103.541 11.8747C103.341 12.501 103.266 13.1273 103.266 13.7787V20.3173H100.816L100.666 0Z" fill="white"/>
<path d="M115.97 14.8308C115.97 15.382 116.095 15.883 116.32 16.359C116.545 16.835 116.895 17.2108 117.295 17.5364C117.72 17.8872 118.195 18.1126 118.695 18.288C119.245 18.4884 119.77 18.5636 120.32 18.5636C121.02 18.5636 121.721 18.4133 122.296 18.0124C122.871 17.6116 123.421 17.1607 123.846 16.6596L125.721 18.0625C124.371 19.8162 122.471 20.668 120.02 20.668C119.095 20.668 118.145 20.5177 117.27 20.1669C116.495 19.8663 115.745 19.3903 115.169 18.764C114.594 18.1377 114.169 17.4362 113.844 16.6346C113.544 15.7828 113.369 14.8809 113.369 13.979C113.369 13.0772 113.519 12.2003 113.869 11.3235C114.169 10.5469 114.644 9.79533 115.269 9.21913C115.845 8.59282 116.595 8.14188 117.37 7.8162C118.22 7.46547 119.12 7.31516 120.045 7.31516C121.045 7.26505 122.021 7.46547 122.946 7.89136C123.696 8.24209 124.346 8.79324 124.896 9.44459C125.396 10.0709 125.796 10.7974 125.971 11.574C126.196 12.3506 126.321 13.1774 126.321 13.979V14.8308H115.97ZM123.696 12.8767C123.696 12.3757 123.571 11.8747 123.421 11.3987C123.271 10.9728 123.021 10.5719 122.721 10.2212C122.421 9.87048 121.971 9.59491 121.545 9.44459C121.045 9.24418 120.495 9.14397 119.92 9.16902C119.345 9.16902 118.795 9.29428 118.295 9.51975C117.82 9.72016 117.395 10.0208 117.02 10.3715C116.67 10.7223 116.395 11.1231 116.195 11.574C115.995 11.9999 115.92 12.4258 115.92 12.8517H123.696V12.8767Z" fill="white"/>
<path d="M130.297 14.8308C130.297 15.382 130.422 15.883 130.697 16.359C130.922 16.835 131.272 17.2108 131.672 17.5364C132.097 17.8872 132.572 18.1126 133.072 18.288C133.622 18.4884 134.147 18.5636 134.697 18.5636C135.397 18.5636 136.097 18.4133 136.673 18.0124C137.248 17.6116 137.798 17.1607 138.223 16.6596L140.098 18.0625C138.748 19.8162 136.848 20.668 134.397 20.668C133.472 20.668 132.522 20.5177 131.647 20.1669C130.872 19.8663 130.121 19.3903 129.546 18.764C128.971 18.1377 128.546 17.4362 128.221 16.6346C127.921 15.7828 127.746 14.8809 127.746 13.979C127.746 13.0772 127.896 12.2003 128.246 11.3235C128.546 10.5469 129.021 9.79533 129.646 9.21913C130.222 8.59282 130.972 8.14188 131.747 7.8162C132.597 7.46547 133.497 7.31516 134.422 7.31516C135.422 7.26505 136.398 7.46547 137.323 7.89136C138.073 8.29219 138.723 8.79324 139.273 9.44459C139.773 10.0709 140.173 10.7974 140.348 11.574C140.573 12.3506 140.698 13.1774 140.698 13.979V14.8308H130.297ZM137.998 12.8767C137.998 12.3757 137.923 11.8747 137.723 11.3987C137.573 10.9728 137.323 10.5719 137.023 10.2212C136.723 9.87048 136.273 9.59491 135.847 9.44459C135.347 9.24418 134.797 9.14397 134.222 9.16902C133.647 9.16902 133.097 9.29428 132.597 9.51975C132.122 9.72016 131.697 10.0208 131.322 10.3715C130.972 10.7223 130.697 11.1231 130.497 11.574C130.297 11.9749 130.222 12.4258 130.222 12.8517H137.998V12.8767Z" fill="white"/>
<path d="M77.6404 7.59074C76.8903 7.46548 76.1652 7.44043 75.39 7.44043C74.7649 7.44043 74.1898 7.59074 73.6398 7.91642C73.2897 8.11684 72.9896 8.3423 72.7146 8.61788C72.4395 8.89345 72.2145 9.19408 72.0645 9.54481H71.9895V7.59074H69.5391V20.2671H71.9895C71.9895 20.2671 71.9145 15.0062 71.9895 13.7786C72.0645 12.526 72.2895 11.1732 72.9646 10.5469C73.4397 9.99575 74.1398 9.69512 74.8399 9.64502C75.4651 9.56986 76.0902 9.56986 76.6652 9.64502L77.6404 7.59074Z" fill="white"/>
<path d="M86.6659 18.2882C86.3658 18.3383 86.0908 18.3634 85.7657 18.3634C85.3657 18.4135 85.0156 18.2882 84.6906 18.1379C84.4655 17.9876 84.2655 17.7371 84.1405 17.4865C84.0154 17.1859 83.9404 16.8602 83.9404 16.5596C83.9404 16.2089 83.8904 15.8581 83.8904 15.5074V9.67025H87.391V7.56586H83.8904V3.9834H81.44V7.56586H78.9896L78.0645 9.67025H81.44V16.284C81.44 16.7851 81.49 17.3362 81.515 17.8373C81.565 18.3383 81.7151 18.8143 81.9401 19.1901C82.2151 19.616 82.5902 19.9667 83.0653 20.1922C83.7654 20.4928 84.4905 20.6181 85.2407 20.593C85.5907 20.593 85.9408 20.5429 86.3158 20.5178C86.7159 20.4677 87.091 20.3675 87.441 20.1671V17.9876C87.291 18.1379 86.9659 18.2631 86.6659 18.2882Z" fill="white"/>
<path d="M149.226 18.2882C148.926 18.3383 148.651 18.3634 148.326 18.3634C147.926 18.4135 147.576 18.2882 147.251 18.1379C147.026 17.9876 146.826 17.7371 146.701 17.4865C146.576 17.1859 146.501 16.8602 146.501 16.5596C146.501 16.2089 146.451 15.8581 146.451 15.5074V9.67025H149.952V7.56586H146.451V3.9834H144.001V7.56586H141.55L140.625 9.67025H144.001V16.284C144.001 16.7851 144.051 17.3362 144.076 17.8373C144.126 18.3383 144.276 18.8143 144.501 19.1901C144.776 19.616 145.151 19.9667 145.626 20.1922C146.326 20.4928 147.051 20.6181 147.801 20.593C148.151 20.593 148.501 20.5429 148.876 20.5178C149.276 20.4677 149.652 20.3675 150.002 20.1671V17.9876C149.802 18.1379 149.501 18.2631 149.226 18.2882Z" fill="white"/>
<path d="M3.05051 12.025C3.05051 12.025 3.87564 10.7724 5.00083 10.7724C6.70112 10.7223 8.10135 13.929 8.35139 14.3799C10.2517 9.97075 13.4022 6.23798 15.9527 3.75781H0.200033C0.200033 5.286 0.200033 20.6931 0.200033 21.9707C0.200033 22.6722 0.125021 23.3236 0 24C2.05034 23.6492 4.07568 23.1482 6.026 22.4467C10.8018 20.668 12.6771 18.7891 12.6771 18.7891L12.8021 18.6639L12.8771 18.8142C13.1772 19.5657 13.6273 20.2421 14.0773 20.9186C14.7275 21.7453 15.0775 21.8204 15.3275 21.7453C15.6026 21.6701 15.7526 21.1941 15.8276 20.4676C15.9026 19.7161 15.9527 18.0877 15.9527 16.0584V5.16074C11.3769 11.048 7.95132 19.8664 7.95132 19.8664C7.95132 19.8664 5.67594 12 3.05051 12.025Z" fill="white"/>
</svg>
