<svg width="24" height="16" viewBox="0 0 24 16" fill="none" xmlns="http://www.w3.org/2000/svg">
<path d="M1.07326 9.03771H20.4413C20.4473 9.03771 20.4473 9.04371 20.4473 9.04971L15.8273 13.6757C15.4193 14.0837 15.4193 14.7377 15.8273 15.1457C16.2353 15.5537 16.8893 15.5537 17.2973 15.1457L23.7053 8.73771C24.1133 8.32971 24.1133 7.67571 23.7053 7.26771L17.2913 0.859711C17.0873 0.655711 16.8233 0.553711 16.5593 0.553711C16.2953 0.553711 16.0253 0.655711 15.8273 0.859711C15.4193 1.26771 15.4193 1.92171 15.8273 2.32971L20.4473 6.95571C20.4533 6.96171 20.4473 6.96771 20.4413 6.96771H1.03726C0.491261 6.96771 0.0472612 7.38771 -0.000738851 7.91571C-0.0487389 8.52771 0.455261 9.03771 1.07326 9.03771Z" fill="white"/>
</svg>
