<svg width="24" height="16" viewBox="0 0 24 16" fill="none" xmlns="http://www.w3.org/2000/svg">
<path d="M1.07326 9.03869H20.4413C20.4473 9.03869 20.4473 9.04469 20.4473 9.05069L15.8273 13.6767C15.4193 14.0847 15.4193 14.7387 15.8273 15.1467C16.2353 15.5547 16.8893 15.5547 17.2973 15.1467L23.7053 8.73869C24.1133 8.33069 24.1133 7.67669 23.7053 7.26869L17.2913 0.860687C17.0873 0.656687 16.8233 0.554688 16.5593 0.554688C16.2953 0.554688 16.0253 0.656687 15.8273 0.860687C15.4193 1.26869 15.4193 1.92269 15.8273 2.33069L20.4473 6.95669C20.4533 6.96269 20.4473 6.96869 20.4413 6.96869H1.03726C0.491261 6.96869 0.0472612 7.38869 -0.000738851 7.91669C-0.0487389 8.52869 0.455261 9.03869 1.07326 9.03869Z" fill="#006099"/>
</svg>
