<svg width="75" height="80" viewBox="0 0 75 80" fill="none" xmlns="http://www.w3.org/2000/svg">
<path fill-rule="evenodd" clip-rule="evenodd" d="M53.5179 0H33.1257C19.0081 0 5.53632 11.4418 3.04497 25.5594L2.12225 31.0957L0 42.1684L23.3449 32.6644L24.7289 26.7589C25.098 24.729 27.0358 23.0681 29.0658 23.0681H49.4579C51.4879 23.0681 52.872 24.729 52.5029 26.7589L47.2434 54.4406C46.8743 56.3783 44.8443 58.1315 42.9066 58.1315H25.7439V58.2238L9.50403 78.1546C12.2722 79.3541 15.3172 80 18.7313 80H39.1234C39.9539 80 40.7843 79.9077 41.5225 79.9077C54.7174 78.7082 66.8051 67.7278 69.1119 54.4406L74.5559 25.5594C77.0473 11.4418 67.5433 0 53.5179 0Z" fill="#D02488"/>
</svg>
