<svg width="39" height="56" viewBox="0 0 39 56" fill="none" xmlns="http://www.w3.org/2000/svg">
<g clip-path="url(#clip0_1186_2968)">
<path d="M7.75871 40.7887H7.7639C7.7639 41.5885 7.62377 42.4237 7.80541 43.183C7.98705 43.9575 8.29325 44.9192 8.89007 45.3242C9.72042 45.8911 9.99029 46.4378 9.92801 47.349C9.80865 49.0548 10.3795 50.3912 12.1181 51.1252C12.3879 51.2365 12.5696 51.763 12.6163 52.1224C12.9017 54.3395 14.4379 55.8378 16.7214 55.939C18.2731 56.0099 19.8352 56.0048 21.3921 55.9593C23.8157 55.8834 25.3623 54.4002 25.6373 52.0161C25.6737 51.7174 25.793 51.2517 25.9902 51.1758C28.118 50.4165 28.419 48.7764 28.3516 46.8731C28.336 46.4783 28.6266 45.9013 28.9588 45.7038C30.033 45.061 30.5209 44.1751 30.5157 42.9805C30.5157 41.462 30.6247 39.9333 30.469 38.4299C30.3963 37.7161 29.9967 36.6835 29.4466 36.4355C28.419 35.9748 28.4242 35.332 28.5124 34.5271C28.611 33.6464 28.72 32.7706 28.8602 31.8949C29.457 28.2503 31.2474 25.0866 32.96 21.8521C37.0288 14.1782 33.479 4.7681 25.3259 1.25513C17.2922 -2.20722 7.66529 1.74614 4.6293 9.81484C2.88555 14.4516 3.35781 18.9364 6.00458 23.1581C8.25692 26.752 9.61663 30.6041 9.77232 34.8359C9.79827 35.5041 9.66334 35.9141 8.96791 36.3342C8.38147 36.6886 7.97667 37.5541 7.80541 38.2679C7.6082 39.0677 7.75871 39.9434 7.75871 40.7887Z" fill="#CFD8DC"/>
<path d="M34.7204 23.3253C35.8258 23.1279 36.708 23.0621 37.5072 22.7786C37.8601 22.6521 38.0522 22.0851 38.3168 21.7156C37.9224 21.4727 37.528 21.0272 37.1336 21.0323C36.3292 21.0373 35.4884 21.1943 34.7359 21.4727C34.383 21.6043 34.0146 22.156 33.9886 22.5357C33.973 22.8141 34.518 23.1178 34.7256 23.3253H34.7204Z" fill="#CFD8DC"/>
<path d="M0.803847 29.157C1.91445 28.9596 2.75519 28.909 3.51289 28.6356C3.87098 28.504 4.063 27.9421 4.33287 27.5777C3.94883 27.3296 3.55959 26.869 3.17555 26.8741C2.37115 26.8791 1.53041 27.036 0.777898 27.3145C0.414617 27.4461 -0.0161304 28.0079 0.00462851 28.3572C0.0201977 28.6761 0.596258 28.9697 0.809037 29.1621L0.803847 29.157Z" fill="#CFD8DC"/>
<path d="M37.3123 29.1565C37.5511 28.9692 37.9299 28.6706 38.3088 28.3668C37.9974 27.9923 37.7535 27.4355 37.3539 27.2887C36.6014 27.0052 35.7606 26.8736 34.9562 26.8584C34.6137 26.8584 34.048 27.2684 33.9805 27.5772C33.9131 27.8708 34.2919 28.4681 34.6085 28.5845C35.361 28.8629 36.1966 28.9388 37.3123 29.1565Z" fill="#CFD8DC"/>
<path d="M3.10475 35.2057C4.15307 34.5376 5.17026 33.9352 6.1096 33.2366C6.2601 33.1253 6.18226 32.4622 5.98505 32.2394C5.79303 32.0218 5.23773 31.8851 4.97824 32.0015C4.12193 32.3812 3.28639 32.8418 2.53388 33.3885C2.28996 33.5657 2.21211 34.1326 2.27439 34.4869C2.31591 34.7198 2.73109 34.897 3.10994 35.2057H3.10475Z" fill="#CFD8DC"/>
<path d="M0.787951 20.916C0.569982 21.1134 0.0510093 21.3716 0.00430169 21.6956C-0.0424059 22.0195 0.300116 22.6371 0.601121 22.7332C1.49375 23.0116 2.44348 23.1635 3.38282 23.2192C3.68382 23.2394 4.25988 22.8092 4.27026 22.5662C4.28583 22.2119 3.98483 21.6196 3.67863 21.5184C2.8379 21.2299 1.91931 21.1387 0.787951 20.9211V20.916Z" fill="#CFD8DC"/>
<path d="M36.3194 34.3396C36.0755 33.8486 36.0339 33.5803 35.8834 33.4892C34.9701 32.9425 34.0515 32.3908 33.081 31.9504C32.8734 31.8542 32.2558 32.1478 32.1676 32.3807C32.0534 32.7046 32.1209 33.3222 32.3544 33.4892C33.1485 34.0562 34.0151 34.5725 34.9285 34.9015C35.2659 35.023 35.8264 34.5522 36.3142 34.3396H36.3194Z" fill="#CFD8DC"/>
<path d="M7.75724 40.7885C7.75724 39.9432 7.60674 39.0675 7.80395 38.2677C7.9804 37.5539 8.3852 36.6884 8.96645 36.334C9.66187 35.9139 9.7968 35.5039 9.77085 34.8357C9.61516 30.6039 8.25545 26.7518 6.00311 23.1578C3.36153 18.9362 2.88408 14.4513 4.62783 9.81463C7.66382 1.74593 17.2908 -2.20743 25.3297 1.25999C33.4827 4.77296 37.0325 14.1881 32.9638 21.8569C31.2512 25.0864 29.4607 28.2501 28.8639 31.8998C28.7238 32.7755 28.6096 33.6512 28.5162 34.532C28.4279 35.3368 28.4176 35.9797 29.4503 36.4403C30.0004 36.6884 30.4 37.7159 30.4727 38.4347C30.6232 39.9381 30.5142 41.4668 30.5194 42.9854C30.5194 44.18 30.0368 45.0608 28.9625 45.7087C28.6303 45.9061 28.3397 46.4882 28.3553 46.878C28.4227 48.7813 28.1166 50.4213 25.994 51.1806C25.7967 51.2515 25.6774 51.7222 25.6411 52.0209C25.366 54.4051 23.8143 55.8933 21.3959 55.9641C19.8389 56.0097 18.282 56.0198 16.7251 55.9439C14.4416 55.8376 12.9055 54.3443 12.62 52.1272C12.5733 51.7729 12.3917 51.2464 12.1218 51.13C10.3832 50.396 9.81237 49.0597 9.93173 47.3538C9.99401 46.4427 9.72415 45.896 8.89379 45.329C8.30216 44.9241 7.99078 43.9573 7.80913 43.1879C7.62749 42.4286 7.76762 41.5933 7.76762 40.7936H7.76243L7.75724 40.7885ZM20.1088 35.9797C22.138 35.9797 23.9855 36.0101 25.8331 35.9443C26.0977 35.9341 26.5596 35.4735 26.5648 35.2103C26.6842 30.1281 28.6355 25.6736 31.0747 21.2698C33.7318 16.4761 33.327 11.6015 29.9641 7.22799C26.6115 2.86462 21.9667 1.1385 16.4656 2.19138C7.24345 3.95293 2.70244 13.9705 7.49256 21.8924C9.19998 24.7119 10.6064 27.6326 11.2188 30.857C11.5302 32.4971 11.6236 34.1827 11.8208 35.9038H18.0277C18.2457 32.8464 18.9204 29.7282 15.1526 28.1691C15.1163 28.154 15.0592 28.1236 15.054 28.0932C14.9243 27.5921 14.7997 27.091 14.6751 26.5898C15.1786 26.5898 15.7546 26.4228 16.1646 26.6101C16.8548 26.929 17.4828 27.425 18.0537 27.9312C18.7802 28.5792 19.3978 28.6602 20.1555 27.9717C20.7523 27.4301 21.4218 26.9138 22.1484 26.5746C22.5376 26.3924 23.124 26.605 23.6171 26.6354C23.4977 27.1061 23.5392 27.7338 23.2382 28.0173C22.4961 28.7108 21.5775 29.222 20.7783 29.8649C20.4825 30.1028 20.1555 30.5078 20.1399 30.8469C20.0725 32.4819 20.1088 34.122 20.1088 35.9696V35.9797ZM11.8519 45.9365C11.8519 46.7312 11.8312 47.3538 11.8519 47.9764C11.8883 48.8876 12.402 49.3786 13.331 49.3786C17.2181 49.3887 21.1104 49.3887 24.9975 49.3735C25.8798 49.3735 26.3469 48.8572 26.378 48.0169C26.4091 47.1311 26.3988 46.2453 26.3832 45.3645C26.3728 44.5647 26.7049 44.1243 27.5613 43.9927C27.8986 43.9421 28.4539 43.5928 28.4643 43.365C28.5421 41.5782 28.5058 39.7862 28.5058 37.9842H9.68782C9.68782 39.4876 9.68782 40.9049 9.68782 42.3273C9.69301 43.9826 9.73453 44.0231 11.4316 44.0231C14.8464 44.0231 18.2613 44.0231 21.6709 44.0231C22.4078 44.0231 23.2901 43.932 23.2745 44.9899C23.2642 46.0529 22.3456 45.8909 21.6346 45.9314C21.2921 45.9517 20.9443 45.9314 20.5966 45.9314C17.7475 45.9314 14.8983 45.9314 11.8416 45.9314L11.8519 45.9365ZM14.5506 51.378C14.7011 53.3775 15.4484 54.0912 17.3063 54.1115C18.6401 54.1267 19.9791 54.1469 21.3128 54.1014C22.9009 54.0457 23.7157 53.0687 23.6119 51.373H14.5506V51.378Z" fill="#546E7A"/>
<path d="M34.7177 23.3253C34.5101 23.1177 33.9652 22.809 33.9808 22.5356C34.0016 22.156 34.37 21.6042 34.7281 21.4726C35.4806 21.1942 36.3214 21.0373 37.1258 21.0322C37.5202 21.0322 37.9146 21.4726 38.309 21.7156C38.0444 22.0851 37.8575 22.652 37.4994 22.7786C36.7002 23.0621 35.818 23.1279 34.7125 23.3253H34.7177Z" fill="#546E7A"/>
<path d="M0.805131 29.1571C0.597541 28.9648 0.0214812 28.6712 0.000722258 28.3523C-0.0200367 28.0081 0.410711 27.4462 0.773992 27.3095C1.5265 27.0311 2.36724 26.8742 3.17165 26.8691C3.55569 26.8691 3.94492 27.3247 4.32896 27.5727C4.05909 27.9372 3.86707 28.4991 3.50898 28.6307C2.75647 28.904 1.91573 28.9546 0.799941 29.1521L0.805131 29.1571Z" fill="#546E7A"/>
<path d="M37.3152 29.1566C36.1994 28.9389 35.3639 28.863 34.6114 28.5846C34.2948 28.4681 33.9211 27.8708 33.9834 27.5772C34.0509 27.2685 34.6166 26.8534 34.9591 26.8584C35.7687 26.8686 36.6094 27.0052 37.3568 27.2887C37.7564 27.4406 38.0003 27.9974 38.3117 28.3669C37.9328 28.6655 37.5488 28.9693 37.3152 29.1566Z" fill="#546E7A"/>
<path d="M3.10397 35.206C2.72511 34.8972 2.30994 34.7201 2.26842 34.4872C2.21133 34.1329 2.28399 33.571 2.52791 33.3888C3.28042 32.8421 4.11596 32.3814 4.97227 32.0018C5.23175 31.8854 5.78706 32.0271 5.97908 32.2397C6.17629 32.4574 6.25413 33.1256 6.10363 33.2369C5.16429 33.9355 4.1471 34.5378 3.09878 35.206H3.10397Z" fill="#546E7A"/>
<path d="M0.787951 20.9162C1.91931 21.1339 2.8379 21.225 3.67863 21.5135C3.98483 21.6198 4.28583 22.207 4.27026 22.5613C4.25988 22.8043 3.68382 23.2295 3.38282 23.2143C2.44348 23.1586 1.49375 23.0068 0.601121 22.7284C0.300116 22.6322 -0.0424059 22.0197 0.00430169 21.6907C0.0510093 21.3667 0.569982 21.1136 0.787951 20.9111V20.9162Z" fill="#546E7A"/>
<path d="M36.3165 34.3396C35.8235 34.5522 35.2682 35.023 34.9308 34.9015C34.0123 34.5775 33.1508 34.0562 32.3567 33.4892C32.1232 33.3222 32.0505 32.6996 32.1699 32.3807C32.2529 32.1478 32.8705 31.8542 33.0833 31.9504C34.0538 32.3908 34.9724 32.9425 35.8858 33.4892C36.0363 33.5803 36.0778 33.8486 36.3217 34.3396H36.3165Z" fill="#546E7A"/>
<path d="M11.8553 45.9365C14.912 45.9365 17.7612 45.9365 20.6103 45.9365C20.9581 45.9365 21.3006 45.9517 21.6483 45.9365C22.3593 45.896 23.2727 46.058 23.2882 44.995C23.2986 43.937 22.4216 44.0281 21.6846 44.0281C18.2698 44.0281 14.8549 44.0281 11.4453 44.0281C9.74823 44.0281 9.70672 43.9876 9.70153 42.3324C9.69634 40.91 9.70153 39.4926 9.70153 37.9893H28.5091C28.5091 39.7913 28.5454 41.5832 28.4676 43.3701C28.4572 43.6029 27.9071 43.9471 27.5646 43.9978C26.7083 44.1294 26.3761 44.5697 26.3865 45.3695C26.4021 46.2554 26.4125 47.1412 26.3813 48.022C26.3502 48.8673 25.8831 49.3735 25.0009 49.3786C21.1137 49.3938 17.2214 49.3938 13.3343 49.3836C12.4002 49.3836 11.8916 48.8926 11.8553 47.9815C11.8293 47.3589 11.8553 46.7363 11.8553 45.9415V45.9365Z" fill="#CFD8DC"/>
<path d="M14.5508 51.373H23.6121C23.7158 53.0688 22.9011 54.0457 21.313 54.1014C19.9792 54.147 18.6403 54.1267 17.3065 54.1115C15.4538 54.0913 14.7013 53.3776 14.5508 51.3781V51.373Z" fill="#CFD8DC"/>
<path d="M19.4876 16.1523C18.6832 16.1523 18.0916 16.1675 17.5 16.1523C16.2233 16.1118 15.8185 15.4639 16.4983 14.4566C17.4533 13.0493 18.4289 11.6523 19.5032 10.3362C19.7575 10.0274 20.4322 10.0476 20.9148 9.91602C20.9615 10.3969 21.2158 10.9841 21.0238 11.3435C20.51 12.3002 19.799 13.1556 18.9894 14.3047C19.825 14.3047 20.4062 14.2845 20.9875 14.3047C21.9995 14.3503 22.3368 14.9526 21.9164 15.7625C20.8889 17.7569 19.7938 19.721 18.6313 21.6445C18.4601 21.933 17.7854 21.933 17.3443 22.0646C17.2301 21.6293 16.9031 21.1029 17.0433 20.7738C17.5363 19.6551 18.1954 18.6073 18.7818 17.5291C18.9998 17.1343 19.1918 16.7294 19.4876 16.1523Z" fill="#546E7A"/>
<path d="M15.5484 5.83594C15.6886 5.9473 16.1764 6.14978 16.2023 6.39275C16.2387 6.77239 16.0778 7.42538 15.8027 7.54687C13.6075 8.53394 11.9 9.98165 10.6805 12.0267C10.5248 12.2848 9.82935 12.4266 9.48163 12.3203C9.23772 12.2443 8.97823 11.6318 9.03013 11.3028C9.29999 9.59694 13.6127 5.90174 15.5484 5.83594Z" fill="#546E7A"/>
</g>
<defs>
<clipPath id="clip0_1186_2968">
<rect width="38.3158" height="56" fill="white"/>
</clipPath>
</defs>
</svg>
