<svg width="46" height="56" viewBox="0 0 46 56" fill="none" xmlns="http://www.w3.org/2000/svg">
<g clip-path="url(#clip0_1186_2906)">
<path d="M18.2294 44.7978C18.2294 46.9637 18.1764 49.1296 18.2583 51.2857C18.2872 52.1139 18.4704 53.0057 18.8463 53.7359C19.7524 55.5 21.7863 56.333 23.6708 55.8773C25.7384 55.3823 27.0927 53.7163 27.1264 51.3102C27.1939 46.9 27.1698 42.4947 27.1216 38.0845C27.1168 37.6141 26.7649 37.0603 26.4179 36.6977C25.9794 36.242 25.7914 35.7618 26.4661 35.6393C28.2639 35.3109 28.5964 34.1202 28.4374 32.5815C28.3554 31.8024 28.6832 31.474 29.3675 31.1506C35.7439 28.137 39.3442 21.6246 38.6212 14.5143C37.6958 5.44395 29.6278 -0.960675 20.4946 0.117379C11.9109 1.13663 5.52489 9.61895 6.76835 18.4296C6.83101 18.8608 7.34671 19.5224 7.69372 19.5518C8.4986 19.6204 8.49378 18.9049 8.50341 18.2434C8.52751 16.6165 8.4263 14.9553 8.71548 13.3725C10.1276 5.66446 17.5932 0.651505 25.4106 2.06768C32.722 3.39074 38.0332 10.9028 36.7946 18.3414C35.7535 24.5647 32.2063 28.7838 26.1866 30.3323C20.191 31.8759 15.1015 29.9697 11.2169 25.0008C10.7976 24.4667 10.3831 23.8493 9.66012 24.4128C8.95646 24.9616 9.39986 25.584 9.79025 26.1181C11.3277 28.2203 13.2459 29.8913 15.5883 30.9644C16.5618 31.4103 16.9763 31.9004 16.8992 33.0323C16.7883 34.6984 17.1113 35.0561 18.6921 35.5756C19.4536 35.8255 19.4006 36.1244 18.9234 36.6781C18.5957 37.0554 18.268 37.5896 18.2535 38.0649C18.186 40.3092 18.2246 42.5535 18.2246 44.7978H18.2294Z" fill="#F3D1E9"/>
<path d="M15.2966 23.5946C12.2988 20.527 11.359 16.9646 12.6747 12.9905C14.0339 8.88895 16.9353 6.47803 21.1332 5.73319C23.1237 5.38037 25.0274 5.76259 26.9119 6.46823C27.3071 6.61523 28.112 6.46823 28.3047 6.16931C28.7385 5.49308 28.1698 5.07166 27.5673 4.81194C27.2733 4.68454 26.9697 4.57183 26.6661 4.46403C18.6318 1.63168 10.3179 7.74229 10.3517 16.4549C10.3709 21.7374 13.7206 26.4612 18.6655 28.1763C23.702 29.9257 29.2253 28.2204 32.4641 23.918C35.6209 19.7234 35.8282 13.8431 32.9798 9.46718C32.599 8.87915 32.1219 8.28622 31.4712 8.85464C31.211 9.08006 31.317 9.9229 31.4712 10.4178C31.9773 12.0349 32.8496 13.5785 33.0858 15.2201C33.5485 18.4297 32.4978 21.2621 30.1555 23.5799C30.0061 22.5557 30.0157 21.5561 30.0061 20.5564C29.9868 17.6359 28.6566 16.2491 25.8275 16.2197C23.702 16.2001 21.5717 16.1952 19.4463 16.205C16.7859 16.2197 15.3544 17.6408 15.2918 20.3359C15.2677 21.4189 15.2918 22.5067 15.2918 23.5897L15.2966 23.5946Z" fill="#F3D1E9"/>
<path d="M26.2508 10.9323C26.2845 9.13883 24.8001 7.79616 22.718 7.73736C20.5925 7.67855 19.0792 8.91832 19.0551 10.7363C19.0262 13.353 20.6359 15.6415 22.5541 15.7052C24.5109 15.7689 26.1977 13.5882 26.2459 10.9372L26.2508 10.9323Z" fill="#F3D1E9"/>
<path d="M3.90892 18.7529C2.64136 18.9881 1.60032 19.1057 0.612302 19.4096C0.313486 19.5027 -0.00942859 20.1103 0.000210647 20.4729C0.00503027 20.7032 0.621942 21.1246 0.935217 21.1001C1.96662 21.0217 3.00283 20.8453 3.99085 20.5464C4.29449 20.4533 4.6174 19.8359 4.61259 19.4684C4.61259 19.1891 4.08725 18.9195 3.90892 18.7529Z" fill="#F3D1E9"/>
<path d="M44.6623 21.1989C44.8454 21.0028 45.2984 20.7333 45.3274 20.4197C45.3611 20.1012 45.0382 19.5181 44.7586 19.4348C43.7272 19.1359 42.6621 18.9349 41.5922 18.8418C41.2933 18.8173 40.7487 19.2388 40.6861 19.5377C40.6282 19.8268 40.9752 20.4442 41.2596 20.5275C42.291 20.8264 43.3658 20.9636 44.6623 21.2038V21.1989Z" fill="#F3D1E9"/>
<path d="M39.2665 24.9863C38.9435 25.2411 38.5532 25.4028 38.4519 25.6724C38.3507 25.9468 38.423 26.5152 38.6158 26.6475C39.6135 27.3188 40.6545 27.9216 41.7293 28.4606C41.9317 28.5586 42.4667 28.3185 42.6113 28.0833C42.7607 27.8432 42.7559 27.2208 42.5872 27.1032C41.5461 26.3633 40.4376 25.7165 39.2665 24.9863Z" fill="#F3D1E9"/>
<path d="M6.08125 24.957C4.8908 25.7166 3.76301 26.3928 2.69787 27.1621C2.54365 27.2748 2.56293 27.956 2.74125 28.1324C2.96777 28.3578 3.51721 28.5244 3.78229 28.397C4.75585 27.9315 5.69568 27.3778 6.58249 26.7554C6.82347 26.5888 6.94878 26.0351 6.88612 25.7117C6.83311 25.4471 6.41862 25.2559 6.08125 24.957Z" fill="#F3D1E9"/>
<path d="M36.9362 34.6346C37.2061 34.4386 37.5772 34.3112 37.6688 34.0711C37.7797 33.7819 37.77 33.3115 37.6013 33.0763C37.0181 32.2531 36.4012 31.4298 35.6735 30.7487C35.4036 30.4939 34.7867 30.6164 34.3288 30.5674C34.3288 31.0084 34.1601 31.5572 34.3577 31.8659C34.8782 32.6794 35.5482 33.3948 36.1844 34.125C36.3579 34.3259 36.6278 34.4386 36.9266 34.6395L36.9362 34.6346Z" fill="#F3D1E9"/>
<path d="M10.2786 30.3076C10.1967 30.337 10.0473 30.3468 9.97979 30.4252C9.15564 31.4004 8.31702 32.3706 7.56034 33.3997C7.44949 33.5516 7.67601 34.1886 7.8929 34.2964C8.17725 34.4385 8.75561 34.4287 8.95321 34.2278C9.72917 33.4242 10.4666 32.5617 11.1028 31.6405C11.5221 31.0329 11.0015 30.2586 10.2738 30.3125L10.2786 30.3076Z" fill="#F3D1E9"/>
<path d="M18.2294 44.7978C18.2294 42.5535 18.1908 40.3042 18.2583 38.0648C18.2728 37.5895 18.6005 37.0554 18.9283 36.6781C19.4054 36.1243 19.4584 35.8254 18.6969 35.5755C17.1161 35.0512 16.7932 34.6935 16.904 33.0323C16.9811 31.9052 16.5666 31.4152 15.5931 30.9644C13.2507 29.8912 11.3325 28.2202 9.79507 26.118C9.40468 25.5839 8.95646 24.9665 9.66494 24.4128C10.3831 23.8492 10.8024 24.4716 11.2217 25.0008C15.1063 29.9745 20.1958 31.8807 26.1914 30.3322C32.2063 28.7838 35.7584 24.5647 36.7994 18.3413C38.0429 10.9028 32.7268 3.3907 25.4155 2.06763C17.5932 0.651461 10.1276 5.66441 8.71548 13.3774C8.4263 14.9602 8.52751 16.6214 8.50341 18.2482C8.49378 18.9098 8.4986 19.6252 7.69372 19.5566C7.34671 19.5272 6.83101 18.8657 6.76835 18.4345C5.52489 9.61891 11.9109 1.13659 20.4946 0.117334C29.6326 -0.96562 37.6958 5.4439 38.6212 14.5143C39.3442 21.6245 35.7439 28.1418 29.3675 31.1506C28.6832 31.474 28.3602 31.7974 28.4374 32.5815C28.5964 34.1201 28.2639 35.3109 26.4661 35.6392C25.7914 35.7617 25.9794 36.237 26.4179 36.6977C26.7649 37.0603 27.1168 37.614 27.1216 38.0844C27.1698 42.4947 27.1939 46.9049 27.1264 51.3102C27.0879 53.7162 25.7384 55.3823 23.6708 55.8772C21.7863 56.328 19.7524 55.4999 18.8463 53.7358C18.4752 53.0106 18.2921 52.1138 18.2583 51.2857C18.1812 49.1247 18.2294 46.9588 18.2294 44.7978ZM20.0512 49.2619H25.2564V39.236C23.478 40.6277 21.767 40.4562 20.0512 39.285V49.257V49.2619ZM21.1019 35.5951C20.9091 37.5111 21.3911 38.349 22.5863 38.3882C23.7768 38.4274 24.3118 37.6973 24.3214 36.0361C24.3278 34.7196 25.0845 33.8996 26.5914 33.5762V32.4639H18.7162V33.7428C19.9163 33.7428 21.073 33.6693 22.2152 33.782C22.6153 33.8212 22.9767 34.3112 23.3527 34.5955C22.9767 34.9287 22.6394 35.3403 22.2104 35.5706C21.9309 35.7176 21.5164 35.6 21.1019 35.6V35.5951ZM25.2275 51.222H20.0657C20.0753 53.0253 21.2417 54.265 22.7647 54.1866C24.2925 54.1082 25.3432 52.8636 25.2323 51.222H25.2275Z" fill="#9D1573"/>
<path d="M15.2957 23.5946C15.2957 22.5116 15.2764 21.4238 15.2957 20.3408C15.3583 17.6457 16.7849 16.2246 19.4502 16.2099C21.5756 16.2001 23.7059 16.2001 25.8314 16.2246C28.6605 16.254 29.9907 17.6408 30.01 20.5613C30.0148 21.561 30.01 22.5606 30.1594 23.5848C32.5065 21.2669 33.5524 18.4346 33.0897 15.2249C32.8536 13.5785 31.9812 12.0349 31.4751 10.4227C31.3209 9.92778 31.2149 9.08984 31.4751 8.85953C32.1258 8.2911 32.5981 8.88893 32.9837 9.47206C35.8321 13.848 35.6248 19.7283 32.468 23.9229C29.2292 28.2253 23.7059 29.9306 18.6694 28.1812C13.7245 26.4661 10.3748 21.7423 10.3556 16.4598C10.3218 7.74717 18.6357 1.63657 26.67 4.46891C26.9736 4.57671 27.2724 4.68942 27.5712 4.81683C28.1737 5.07654 28.7424 5.49796 28.3087 6.17419C28.1159 6.46821 27.311 6.62012 26.9158 6.47311C25.0313 5.76747 23.1276 5.38525 21.1371 5.73807C16.9392 6.48291 14.0378 8.88893 12.6786 12.9953C11.3629 16.9694 12.3027 20.5319 15.3005 23.5995L15.2957 23.5946ZM26.9929 25.8683C28.3327 25.5449 28.593 25.3489 28.6026 24.5158C28.6267 23.0506 28.6557 21.5757 28.5737 20.1154C28.4822 18.4493 27.6628 17.6898 26.029 17.6751C23.7445 17.6555 21.46 17.6702 19.1707 17.6947C17.6428 17.7143 16.809 18.5571 16.7657 20.1203C16.7271 21.4238 16.8042 22.7321 16.7175 24.0307C16.6355 25.2165 17.1561 25.7409 18.3224 25.9124C18.3224 24.3541 18.2742 22.8497 18.3513 21.3503C18.3706 20.9337 18.7272 20.2281 18.9971 20.1938C19.8068 20.0909 19.749 20.821 19.7538 21.3944C19.7635 22.8595 19.7876 24.3296 19.7538 25.7948C19.7394 26.4563 19.9563 26.814 20.6165 26.814C22.0094 26.814 23.4023 26.8581 24.7855 26.7601C25.0602 26.7405 25.4988 26.1623 25.5133 25.8242C25.5952 24.2806 25.5036 22.7272 25.5856 21.1787C25.6048 20.821 26.0434 20.4829 26.2844 20.1399C26.5158 20.4976 26.9302 20.8504 26.9447 21.2228C27.0218 22.7615 26.9784 24.3051 26.9784 25.8683H26.9929Z" fill="#9D1573"/>
<path d="M26.2538 10.9323C26.2056 13.5834 24.5187 15.7689 22.5619 15.7003C20.6437 15.6366 19.034 13.3482 19.0629 10.7314C19.0822 8.91343 20.6003 7.67367 22.7258 7.73247C24.8079 7.79128 26.2875 9.13394 26.2586 10.9274L26.2538 10.9323ZM20.5088 10.9225C20.528 12.569 21.5739 14.2008 22.6294 14.2351C23.6849 14.2694 24.7886 12.6278 24.8127 10.996C24.8271 9.95719 23.8102 9.15355 22.5475 9.19765C21.2654 9.24175 20.4991 9.89348 20.5088 10.9225Z" fill="#9D1573"/>
<path d="M3.90892 18.7529C4.08725 18.9244 4.60777 19.194 4.61259 19.4684C4.6174 19.8408 4.29449 20.4533 3.99085 20.5464C3.00283 20.8453 1.96662 21.0168 0.935217 21.1001C0.621942 21.1246 0.00503025 20.7032 0.000210632 20.4729C-0.00942861 20.1103 0.313486 19.5027 0.617122 19.4096C1.60514 19.1057 2.64618 18.9881 3.91374 18.7529H3.90892Z" fill="#9D1573"/>
<path d="M44.6622 21.1989C43.3657 20.9588 42.2909 20.8216 41.2595 20.5226C40.98 20.4393 40.6282 19.8219 40.686 19.5328C40.7486 19.2339 41.2933 18.8125 41.5921 18.837C42.6572 18.9301 43.7272 19.1359 44.7586 19.4299C45.0333 19.5083 45.3562 20.0963 45.3273 20.4148C45.2984 20.7285 44.8405 20.998 44.6622 21.194V21.1989Z" fill="#9D1573"/>
<path d="M39.2656 24.9863C40.4368 25.7165 41.5405 26.3633 42.5864 27.1032C42.755 27.2208 42.7599 27.8432 42.6105 28.0833C42.4659 28.3185 41.9261 28.5586 41.7285 28.4606C40.6585 27.9265 39.6127 27.3188 38.615 26.6475C38.4174 26.5152 38.3451 25.9517 38.4511 25.6724C38.5523 25.3979 38.9475 25.2362 39.2656 24.9863Z" fill="#9D1573"/>
<path d="M6.08354 24.957C6.42091 25.2559 6.8354 25.4471 6.88841 25.7117C6.95107 26.04 6.82576 26.5888 6.58478 26.7554C5.69797 27.3778 4.75814 27.9315 3.78458 28.397C3.5195 28.5244 2.97488 28.3578 2.74354 28.1324C2.57004 27.956 2.54594 27.2699 2.70017 27.1621C3.7653 26.3928 4.89309 25.7166 6.08354 24.957Z" fill="#9D1573"/>
<path d="M36.9356 34.6346C36.6368 34.4337 36.3669 34.321 36.1934 34.1201C35.5572 33.3899 34.8873 32.6745 34.3668 31.8611C34.1692 31.5523 34.3331 31.0035 34.3379 30.5625C34.7957 30.6115 35.4126 30.489 35.6825 30.7438C36.4103 31.4298 37.0272 32.2482 37.6104 33.0714C37.7791 33.3066 37.7887 33.7771 37.6779 34.0662C37.5863 34.3063 37.2104 34.4386 36.9453 34.6297L36.9356 34.6346Z" fill="#9D1573"/>
<path d="M10.2816 30.3076C11.0094 30.2537 11.5299 31.0329 11.1106 31.6356C10.4744 32.5568 9.73698 33.4193 8.96102 34.2229C8.76342 34.4238 8.18507 34.4336 7.90071 34.2915C7.68383 34.1837 7.4573 33.5467 7.56815 33.3948C8.32483 32.3657 9.16345 31.4004 9.9876 30.4203C10.0551 30.3419 10.2045 30.3321 10.2864 30.3027L10.2816 30.3076Z" fill="#9D1573"/>
<path d="M20.0508 49.2622V39.2902C21.7666 40.4614 23.4775 40.628 25.256 39.2412V49.2671H20.0508V49.2622Z" fill="#F3D1E9"/>
<path d="M21.1006 35.5951C21.515 35.5951 21.9295 35.7127 22.2091 35.5657C22.638 35.3403 22.9754 34.9287 23.3513 34.5906C22.9754 34.3064 22.6139 33.8164 22.2139 33.7772C21.0716 33.6644 19.9149 33.7379 18.7148 33.7379V32.459H26.5901V33.5713C25.08 33.8948 24.3233 34.7147 24.3201 36.0313C24.3152 37.6924 23.7754 38.4226 22.585 38.3834C21.3897 38.3442 20.9029 37.5062 21.1006 35.5902V35.5951Z" fill="#F3D1E9"/>
<path d="M25.2252 51.2227C25.3361 52.8642 24.2902 54.1089 22.7576 54.1873C21.2394 54.2657 20.0731 53.0259 20.0586 51.2227H25.2204H25.2252Z" fill="#F3D1E9"/>
<path d="M26.9928 25.8687C26.9928 24.3055 27.0362 22.7619 26.9591 21.2232C26.9398 20.8508 26.5302 20.5029 26.2988 20.1403C26.053 20.4882 25.6144 20.8214 25.6 21.1791C25.5229 22.7227 25.6096 24.2761 25.5277 25.8246C25.5084 26.1627 25.0746 26.7409 24.7999 26.7605C23.4167 26.8634 22.019 26.8193 20.6309 26.8144C19.9707 26.8144 19.7538 26.4518 19.7682 25.7952C19.802 24.33 19.7779 22.8599 19.7682 21.3947C19.7682 20.8214 19.8212 20.0913 19.0115 20.1942C18.7416 20.2285 18.385 20.9341 18.3657 21.3506C18.2886 22.8501 18.3368 24.3496 18.3368 25.9128C17.1705 25.7413 16.6451 25.2169 16.7319 24.0311C16.8234 22.7325 16.7463 21.4241 16.7801 20.1207C16.8234 18.5575 17.6572 17.7147 19.1851 17.6951C21.4696 17.6657 23.7541 17.651 26.0434 17.6755C27.6772 17.6902 28.4966 18.4497 28.5881 20.1158C28.6701 21.581 28.6363 23.051 28.617 24.5162C28.6026 25.3492 28.3423 25.5452 27.0073 25.8687H26.9928Z" fill="#F3D1E9"/>
<path d="M20.508 10.9229C20.4936 9.89386 21.2647 9.24212 22.5467 9.19802C23.8143 9.15392 24.8264 9.95756 24.8119 10.9964C24.7878 12.6282 23.6793 14.2698 22.6286 14.2355C21.5731 14.2012 20.5273 12.5694 20.508 10.9229Z" fill="#F3D1E9"/>
</g>
<defs>
<clipPath id="clip0_1186_2906">
<rect width="45.3333" height="56" fill="white"/>
</clipPath>
</defs>
</svg>
