<svg width="60" height="60" viewBox="0 0 60 60" fill="none" xmlns="http://www.w3.org/2000/svg">
<g clip-path="url(#clip0_1005_1395)">
<path d="M12.2825 27.9377C16.0325 27.9377 16.6888 27.6565 16.6888 30.0002C16.6888 32.344 16.0794 32.0159 12.2825 32.0627C9.46999 32.0627 7.96999 30.0002 7.96999 30.0002C7.96999 30.0002 9.46999 27.9377 12.2825 27.9377Z" fill="#9D1573"/>
<path d="M13.9229 33.4219C16.6416 32.2032 17.1104 32.2032 16.6416 30.5157C16.1729 28.8282 15.751 29.25 13.0791 30.5157C11.0635 31.4063 10.4073 33.375 10.4073 33.375C10.4073 33.375 11.9073 34.4063 13.9229 33.4219Z" fill="#9D1573"/>
<path d="M14.672 30.5158C16.172 29.8596 16.4064 29.6252 16.6407 30.5158C16.922 31.4533 16.6407 31.4533 15.1407 32.1096C14.0626 32.6252 13.172 32.1096 13.172 32.1096C13.172 32.1096 13.547 31.0783 14.672 30.5158Z" fill="#D4ACC8"/>
<path d="M16.5947 29.4375C17.0635 27.75 16.5947 27.75 13.8759 26.5313C11.8603 25.6407 10.3603 26.5782 10.3603 26.5782C10.3603 26.5782 11.0166 28.5469 13.0322 29.4375C15.751 30.6563 16.1728 31.0782 16.5947 29.4375Z" fill="#9D1573"/>
<path d="M14.6281 29.4378C16.1281 30.0941 16.3625 30.3284 16.5969 29.4378C16.8781 28.5003 16.5969 28.5003 15.0969 27.8441C14.0187 27.3284 13.1281 27.8441 13.1281 27.8441C13.1281 27.8441 13.55 28.9222 14.6281 29.4378Z" fill="#D4ACC8"/>
<path d="M14.2054 28.8285C16.2679 28.8285 16.6429 28.641 16.6429 29.9535C16.6429 31.266 16.2679 31.0785 14.2054 31.0785C12.6117 31.0785 11.8148 29.9066 11.8148 29.9066C11.8148 29.9066 12.6585 28.8753 14.2054 28.8285Z" fill="#D4ACC8"/>
<path d="M20.8625 26.4847C22.8312 18.7035 15.9875 15.891 15.9875 15.891C15.9875 15.891 29.7687 15.891 29.7687 25.1722L20.8625 26.4847Z" fill="#9D1573"/>
<path d="M26.7219 25.1253L29.7219 25.1253C29.7687 15.8909 15.9875 15.891 15.9875 15.891C15.9875 15.891 26.3469 17.6253 26.7219 25.1253Z" fill="#90A4AE"/>
<path d="M20.8594 33.5156C22.8281 41.2969 15.9844 44.1094 15.9844 44.1094C15.9844 44.1094 29.7656 44.1094 29.7656 34.8281L20.8594 33.5156Z" fill="#9D1573"/>
<path d="M26.7187 34.875L29.7188 34.875C29.7188 44.1563 15.9375 44.1563 15.9375 44.1563C15.9375 44.1563 26.3438 42.375 26.7187 34.875Z" fill="#90A4AE"/>
<path d="M38.3937 37.3593C27.4718 37.3124 18.4718 34.2187 18.4718 29.9999C18.4718 25.7812 27.4718 22.6874 38.3937 22.6405C51.1437 22.6405 57.9406 29.9999 57.9406 29.9999C57.9406 29.9999 51.0968 37.3124 38.3937 37.3593Z" fill="#78909C"/>
<path d="M38.5294 34.4063C27.6543 34.4063 18.6543 32.5313 18.6543 30.0001C18.6543 27.4688 27.6543 25.5938 38.5293 25.5938C51.2794 25.5938 58.1231 30.0001 58.1231 30.0001C58.1231 30.0001 51.2794 34.4063 38.5294 34.4063Z" fill="#F0F4F6"/>
<path d="M19.1211 33.6563C18.6523 33.6563 18.2773 33.2813 18.2773 32.8125L18.2773 27.1875C18.2773 26.7188 18.6992 26.2969 19.168 26.2969L20.8555 26.2969L20.8555 33.6094L19.1211 33.6563Z" fill="#D4ACC8"/>
<path d="M19.1754 32.0158C18.7067 32.0158 18.3317 31.8283 18.3317 31.547L18.3317 28.3595C18.3317 28.0783 18.7067 27.8908 19.1754 27.8908L20.8629 27.8908L20.8629 32.0158L19.1754 32.0158Z" fill="#9D1573"/>
<path d="M17.2021 32.3906C16.9208 32.3906 16.5927 32.0625 16.5927 31.7812L16.5927 28.1249C16.5927 27.8437 16.9208 27.6093 17.2021 27.6093L18.3271 27.6093L18.3271 32.3906L17.2021 32.3906Z" fill="#455A64"/>
<path d="M17.2031 31.6406C16.9219 31.6406 16.5937 31.4063 16.5937 31.2188L16.5937 28.6875C16.5937 28.5 16.875 28.3125 17.2031 28.3594L18.3281 28.3594L18.3281 31.6406L17.2031 31.6406Z" fill="#90A4AE"/>
<path d="M57.936 30C57.936 30 55.4985 27.375 50.7642 25.2656L50.7642 34.7344C55.4985 32.625 57.936 30 57.936 30Z" fill="#610A46"/>
<path d="M57.9375 30C57.9375 30 55.5 28.4063 50.7187 27.0938L50.7187 32.9063C55.5 31.5938 57.9375 30 57.9375 30Z" fill="#9D1573"/>
<path d="M38.4375 32.3438C39.7319 33.6382 41.8306 33.6382 43.125 32.3438C44.4194 31.0493 44.4194 28.9507 43.125 27.6563C41.8306 26.3618 39.7319 26.3618 38.4375 27.6563C37.1431 28.9507 37.1431 31.0493 38.4375 32.3438Z" fill="#9D1573"/>
<path d="M39.2344 31.5469C40.0887 32.4012 41.4738 32.4012 42.3281 31.5469C43.1824 30.6926 43.1824 29.3074 42.3281 28.4531C41.4738 27.5988 40.0887 27.5988 39.2344 28.4531C38.3801 29.3074 38.3801 30.6926 39.2344 31.5469Z" fill="#D5ACC8"/>
<path d="M29.0625 32.3438C30.3569 33.6382 32.4556 33.6382 33.75 32.3438C35.0444 31.0493 35.0444 28.9507 33.75 27.6563C32.4556 26.3618 30.3569 26.3618 29.0625 27.6563C27.7681 28.9507 27.7681 31.0493 29.0625 32.3438Z" fill="#9D1573"/>
<path d="M29.8594 31.5469C30.7137 32.4012 32.0988 32.4012 32.9531 31.5469C33.8074 30.6926 33.8074 29.3074 32.9531 28.4531C32.0988 27.5988 30.7137 27.5988 29.8594 28.4531C29.0051 29.3074 29.0051 30.6926 29.8594 31.5469Z" fill="#D5ACC8"/>
</g>
<defs>
<clipPath id="clip0_1005_1395">
<rect width="42.4265" height="42.4265" fill="white" transform="translate(30) rotate(45)"/>
</clipPath>
</defs>
</svg>
