<svg width="50" height="50" viewBox="0 0 50 50" fill="none" xmlns="http://www.w3.org/2000/svg">
<path d="M3.10997 0.311737C1.19022 0.311737 -0.466553 1.94043 -0.466553 3.86735V22.8167C-0.466553 24.4894 1.04646 25.5579 2.62892 25.9121L2.10604 31.6639C1.88466 34.2842 5.04176 35.7666 6.91657 33.9227L14.4879 26.3723H30.6555C32.5754 26.3723 34.2111 24.7437 34.2111 22.8167V3.86735C34.2111 1.94064 32.5752 0.311737 30.6555 0.311737H3.10997Z" fill="#9D1573"/>
<path d="M9.4554 11.0713C8.93783 11.0719 8.44162 11.2773 8.07547 11.6424C7.70932 12.0076 7.50309 12.5026 7.50195 13.0192C7.50162 13.5368 7.70721 14.0332 8.07351 14.3996C8.43982 14.7659 8.93687 14.972 9.4554 14.9727C9.71262 14.9731 9.96739 14.9228 10.2051 14.8248C10.4429 14.7268 10.6589 14.583 10.8409 14.4015C11.0228 14.2201 11.1672 14.0046 11.2656 13.7674C11.364 13.5302 11.4146 13.2759 11.4144 13.0192C11.4132 12.5017 11.2063 12.0058 10.8389 11.6405C10.4716 11.2752 9.97393 11.0705 9.4554 11.0713ZM16.7546 11.0713C16.237 11.0719 15.7408 11.2773 15.3746 11.6424C15.0085 12.0076 14.8022 12.5026 14.8011 13.0192C14.8008 13.5368 15.0064 14.0332 15.3727 14.3996C15.739 14.7659 16.236 14.972 16.7546 14.9727C17.0118 14.9731 17.2665 14.9228 17.5043 14.8248C17.742 14.7268 17.9581 14.583 18.14 14.4015C18.322 14.2201 18.4663 14.0046 18.5647 13.7674C18.6631 13.5302 18.7137 13.2759 18.7135 13.0192C18.7124 12.5017 18.5054 12.0058 18.1381 11.6405C17.7707 11.2752 17.2731 11.0705 16.7546 11.0713ZM24.0537 11.0713C23.5361 11.0719 23.0399 11.2773 22.6738 11.6424C22.3076 12.0076 22.1014 12.5026 22.1003 13.0192C22.0999 13.5368 22.3055 14.0332 22.6718 14.3996C23.0381 14.7659 23.5352 14.972 24.0537 14.9727C24.3109 14.9731 24.5657 14.9228 24.8034 14.8248C25.0412 14.7268 25.2572 14.583 25.4392 14.4015C25.6211 14.2201 25.7655 14.0046 25.8639 13.7674C25.9623 13.5302 26.0129 13.2759 26.0127 13.0192C26.0116 12.5017 25.8046 12.0058 25.4372 11.6405C25.0699 11.2752 24.5722 11.0705 24.0537 11.0713Z" fill="white"/>
<path d="M19.3403 15.2452C17.4205 15.2452 15.7847 16.8741 15.7847 18.8008V37.7501C15.7847 39.6771 17.4204 41.3057 19.3403 41.3057H35.5078L43.0792 48.8562C44.954 50.7001 48.1111 49.218 47.8897 46.5973L47.3669 40.8456C48.956 40.4965 50.4623 39.4277 50.4623 37.7501V18.8008C50.4623 16.8739 48.8265 15.2452 46.9067 15.2452H19.3403Z" fill="#C41A90"/>
<path d="M25.9463 26.0071C25.6891 26.0067 25.4343 26.057 25.1966 26.155C24.9588 26.253 24.7428 26.3968 24.5608 26.5783C24.3789 26.7597 24.2345 26.9752 24.1361 27.2124C24.0377 27.4496 23.9871 27.7039 23.9873 27.9606C23.9884 28.4781 24.1954 28.974 24.5628 29.3393C24.9301 29.7046 25.4278 29.9093 25.9463 29.9085C26.4639 29.9079 26.9601 29.7025 27.3262 29.3374C27.6924 28.9723 27.8986 28.4772 27.8997 27.9606C27.9001 27.4431 27.6945 26.9466 27.3282 26.5803C26.9619 26.2139 26.4648 26.0078 25.9463 26.0071ZM33.2454 26.0071C32.9882 26.0067 32.7335 26.057 32.4957 26.155C32.258 26.253 32.0419 26.3968 31.86 26.5783C31.678 26.7597 31.5337 26.9752 31.4353 27.2124C31.3369 27.4496 31.2863 27.7039 31.2865 27.9606C31.2876 28.4781 31.4946 28.974 31.8619 29.3393C32.2293 29.7046 32.7269 29.9093 33.2454 29.9085C33.763 29.9079 34.2592 29.7025 34.6254 29.3374C34.9915 28.9723 35.1978 28.4772 35.1989 27.9606C35.1992 27.4431 34.9936 26.9466 34.6273 26.5803C34.261 26.2139 33.764 26.0078 33.2454 26.0071ZM40.5446 26.0071C40.2874 26.0067 40.0326 26.057 39.7949 26.155C39.5571 26.253 39.3411 26.3968 39.1591 26.5783C38.9772 26.7597 38.8328 26.9752 38.7344 27.2124C38.636 27.4496 38.5854 27.7039 38.5856 27.9606C38.5867 28.4781 38.7937 28.974 39.1611 29.3393C39.5284 29.7046 40.0261 29.9093 40.5446 29.9085C41.0622 29.9079 41.5584 29.7025 41.9245 29.3374C42.2907 28.9723 42.4969 28.4772 42.498 27.9606C42.4984 27.4431 42.2928 26.9466 41.9265 26.5803C41.5602 26.2139 41.0631 26.0078 40.5446 26.0071Z" fill="white"/>
</svg>
