<svg width="445" height="682" viewBox="0 0 445 682" fill="none" xmlns="http://www.w3.org/2000/svg">
<mask id="mask0_1651_22818" style="mask-type:alpha" maskUnits="userSpaceOnUse" x="0" y="0" width="445" height="682">
<rect width="445" height="682" fill="#D9D9D9"/>
</mask>
<g mask="url(#mask0_1651_22818)">
<path fill-rule="evenodd" clip-rule="evenodd" d="M190.082 596.03H162.238C142.962 596.03 124.567 611.422 121.165 630.413L119.906 637.861L117.008 652.756L148.883 639.971L150.773 632.027C151.277 629.296 153.923 627.062 156.694 627.062H184.538C187.31 627.062 189.2 629.296 188.696 632.027L181.514 669.264C181.01 671.871 178.239 674.229 175.593 674.229H152.159V674.353L129.985 701.164C133.764 702.778 137.922 703.647 142.584 703.647H170.427C171.561 703.647 172.695 703.523 173.703 703.523C191.72 701.909 208.224 687.138 211.374 669.264L218.807 630.413C222.209 611.422 209.232 596.03 190.082 596.03Z" fill="#CFD8DC"/>
<path fill-rule="evenodd" clip-rule="evenodd" d="M408.028 596.03H380.759C361.88 596.03 343.864 611.422 340.533 630.413L339.299 637.861L336.461 652.756L367.679 639.971L369.53 632.027C370.023 629.296 372.615 627.062 375.329 627.062H402.599C405.313 627.062 407.164 629.296 406.671 632.027L399.637 669.264C399.144 671.871 396.429 674.229 393.838 674.229H370.887V674.353L349.17 701.164C352.872 702.778 356.944 703.647 361.509 703.647H388.779C389.89 703.647 391 703.523 391.987 703.523C409.632 701.909 425.796 687.138 428.881 669.264L436.161 630.413C439.493 611.422 426.784 596.03 408.028 596.03Z" fill="#CFD8DC"/>
<path fill-rule="evenodd" clip-rule="evenodd" d="M79.9031 565.434H52.6335C33.7546 565.434 15.7394 580.674 12.4078 599.479L11.1739 606.854L8.33594 621.603L39.554 608.943L41.4049 601.077C41.8985 598.373 44.4897 596.161 47.2043 596.161H74.4739C77.1885 596.161 79.0394 598.373 78.5458 601.077L71.5125 637.95C71.0189 640.531 68.3043 642.866 65.7131 642.866H42.7622V642.989L21.0453 669.537C24.747 671.135 28.8189 671.995 33.3844 671.995H60.654C61.7645 671.995 62.8751 671.872 63.8622 671.872C81.5072 670.274 97.6715 655.648 100.756 637.95L108.036 599.479C111.368 580.674 98.6586 565.434 79.9031 565.434Z" fill="#CFD8DC"/>
<path fill-rule="evenodd" clip-rule="evenodd" d="M299.356 565.434H272.087C253.208 565.434 235.193 580.674 231.861 599.479L230.627 606.854L227.789 621.603L259.007 608.943L260.858 601.077C261.352 598.373 263.943 596.161 266.657 596.161H293.927C296.642 596.161 298.492 598.373 297.999 601.077L290.966 637.95C290.472 640.531 287.757 642.866 285.166 642.866H262.215V642.989L240.498 669.537C244.2 671.135 248.272 671.995 252.838 671.995H280.107C281.218 671.995 282.328 671.872 283.315 671.872C300.96 670.274 317.125 655.648 320.209 637.95L327.49 599.479C330.821 580.674 318.112 565.434 299.356 565.434Z" fill="#CFD8DC"/>
<path fill-rule="evenodd" clip-rule="evenodd" d="M190.082 456.762H162.238C142.962 456.762 124.567 472.002 121.165 490.807L119.906 498.182L117.008 512.931L148.883 500.271L150.773 492.405C151.277 489.701 153.923 487.489 156.694 487.489H184.538C187.31 487.489 189.2 489.701 188.696 492.405L181.514 529.278C181.01 531.859 178.239 534.194 175.593 534.194H152.159V534.317L129.985 560.865C133.764 562.463 137.922 563.323 142.584 563.323H170.427C171.561 563.323 172.695 563.2 173.703 563.2C191.72 561.603 208.224 546.976 211.374 529.278L218.807 490.807C222.209 472.002 209.232 456.762 190.082 456.762Z" fill="#CFD8DC"/>
<path fill-rule="evenodd" clip-rule="evenodd" d="M408.028 456.762H380.759C361.88 456.762 343.864 472.002 340.533 490.807L339.299 498.182L336.461 512.931L367.679 500.271L369.53 492.405C370.023 489.701 372.615 487.489 375.329 487.489H402.599C405.313 487.489 407.164 489.701 406.671 492.405L399.637 529.278C399.144 531.859 396.429 534.194 393.838 534.194H370.887V534.317L349.17 560.865C352.872 562.463 356.944 563.323 361.509 563.323H388.779C389.89 563.323 391 563.2 391.987 563.2C409.632 561.603 425.796 546.976 428.881 529.278L436.161 490.807C439.493 472.002 426.784 456.762 408.028 456.762Z" fill="#CFD8DC"/>
<path fill-rule="evenodd" clip-rule="evenodd" d="M79.9031 427.22H52.6335C33.7546 427.22 15.7394 442.611 12.4078 461.602L11.1739 469.05L8.33594 483.945L39.554 471.16L41.4049 463.216C41.8985 460.485 44.4897 458.251 47.2043 458.251H74.4739C77.1885 458.251 79.0394 460.485 78.5458 463.216L71.5125 500.454C71.0189 503.06 68.3043 505.419 65.7131 505.419H42.7622V505.543L21.0453 532.354C24.747 533.967 28.8189 534.836 33.3844 534.836H60.654C61.7645 534.836 62.8751 534.712 63.8622 534.712C81.5072 533.099 97.6715 518.328 100.756 500.454L108.036 461.602C111.368 442.611 98.6586 427.22 79.9031 427.22Z" fill="#CFD8DC"/>
<path fill-rule="evenodd" clip-rule="evenodd" d="M299.356 427.22H272.087C253.208 427.22 235.193 442.611 231.861 461.602L230.627 469.05L227.789 483.945L259.007 471.16L260.858 463.216C261.352 460.485 263.943 458.251 266.657 458.251H293.927C296.642 458.251 298.492 460.485 297.999 463.216L290.966 500.454C290.472 503.06 287.757 505.419 285.166 505.419H262.215V505.543L240.498 532.354C244.2 533.967 248.272 534.836 252.838 534.836H280.107C281.218 534.836 282.328 534.712 283.315 534.712C300.96 533.099 317.125 518.328 320.209 500.454L327.49 461.602C330.821 442.611 318.112 427.22 299.356 427.22Z" fill="#CFD8DC"/>
<path fill-rule="evenodd" clip-rule="evenodd" d="M190.082 318.548H162.238C142.962 318.548 124.567 333.638 121.165 352.256L119.906 359.558L117.008 374.161L148.883 361.627L150.773 353.838C151.277 351.161 153.923 348.971 156.694 348.971H184.538C187.31 348.971 189.2 351.161 188.696 353.838L181.514 390.346C181.01 392.901 178.239 395.213 175.593 395.213H152.159V395.335L129.985 421.621C133.764 423.203 137.922 424.054 142.584 424.054H170.427C171.561 424.054 172.695 423.933 173.703 423.933C191.72 422.351 208.224 407.869 211.374 390.346L218.807 352.256C222.209 333.638 209.232 318.548 190.082 318.548Z" fill="#CFD8DC"/>
<path fill-rule="evenodd" clip-rule="evenodd" d="M408.028 318.548H380.759C361.88 318.548 343.864 333.638 340.533 352.256L339.299 359.558L336.461 374.161L367.679 361.627L369.53 353.838C370.023 351.161 372.615 348.971 375.329 348.971H402.599C405.313 348.971 407.164 351.161 406.671 353.838L399.637 390.346C399.144 392.901 396.429 395.213 393.838 395.213H370.887V395.335L349.17 421.621C352.872 423.203 356.944 424.054 361.509 424.054H388.779C389.89 424.054 391 423.933 391.987 423.933C409.632 422.351 425.796 407.869 428.881 390.346L436.161 352.256C439.493 333.638 426.784 318.548 408.028 318.548Z" fill="#CFD8DC"/>
<path fill-rule="evenodd" clip-rule="evenodd" d="M79.9031 287.951H52.6335C33.7546 287.951 15.7394 303.192 12.4078 321.997L11.1739 329.371L8.33594 344.12L39.554 331.461L41.4049 323.595C41.8985 320.891 44.4897 318.678 47.2043 318.678H74.4739C77.1885 318.678 79.0394 320.891 78.5458 323.595L71.5125 360.467C71.0189 363.048 68.3043 365.383 65.7131 365.383H42.7622V365.506L21.0453 392.055C24.747 393.652 28.8189 394.513 33.3844 394.513H60.654C61.7645 394.513 62.8751 394.39 63.8622 394.39C81.5072 392.792 97.6715 378.166 100.756 360.467L108.036 321.997C111.368 303.192 98.6586 287.951 79.9031 287.951Z" fill="#CFD8DC"/>
<path fill-rule="evenodd" clip-rule="evenodd" d="M299.356 287.951H272.087C253.208 287.951 235.193 303.192 231.861 321.997L230.627 329.371L227.789 344.12L259.007 331.461L260.858 323.595C261.352 320.891 263.943 318.678 266.657 318.678H293.927C296.642 318.678 298.492 320.891 297.999 323.595L290.966 360.467C290.472 363.048 287.757 365.383 285.166 365.383H262.215V365.506L240.498 392.055C244.2 393.652 248.272 394.513 252.838 394.513H280.107C281.218 394.513 282.328 394.39 283.315 394.39C300.96 392.792 317.125 378.166 320.209 360.467L327.49 321.997C330.821 303.192 318.112 287.951 299.356 287.951Z" fill="#CFD8DC"/>
<path fill-rule="evenodd" clip-rule="evenodd" d="M190.082 178.225H162.238C142.962 178.225 124.567 193.616 121.165 212.607L119.906 220.055L117.008 234.95L148.883 222.165L150.773 214.221C151.277 211.49 153.923 209.256 156.694 209.256H184.538C187.31 209.256 189.2 211.49 188.696 214.221L181.514 251.459C181.01 254.065 178.239 256.424 175.593 256.424H152.159V256.548L129.985 283.359C133.764 284.972 137.922 285.841 142.584 285.841H170.427C171.561 285.841 172.695 285.717 173.703 285.717C191.72 284.104 208.224 269.333 211.374 251.459L218.807 212.607C222.209 193.616 209.232 178.225 190.082 178.225Z" fill="#CFD8DC"/>
<path fill-rule="evenodd" clip-rule="evenodd" d="M408.028 178.225H380.759C361.88 178.225 343.864 193.616 340.533 212.607L339.299 220.055L336.461 234.95L367.679 222.165L369.53 214.221C370.023 211.49 372.615 209.256 375.329 209.256H402.599C405.313 209.256 407.164 211.49 406.671 214.221L399.637 251.459C399.144 254.065 396.429 256.424 393.838 256.424H370.887V256.548L349.17 283.359C352.872 284.972 356.944 285.841 361.509 285.841H388.779C389.89 285.841 391 285.717 391.987 285.717C409.632 284.104 425.796 269.333 428.881 251.459L436.161 212.607C439.493 193.616 426.784 178.225 408.028 178.225Z" fill="#CFD8DC"/>
<path fill-rule="evenodd" clip-rule="evenodd" d="M79.9031 147.627H52.6335C33.7546 147.627 15.7394 163.018 12.4078 182.01L11.1739 189.457L8.33594 204.352L39.554 191.567L41.4049 183.623C41.8985 180.893 44.4897 178.658 47.2043 178.658H74.4739C77.1885 178.658 79.0394 180.893 78.5458 183.623L71.5125 220.861C71.0189 223.468 68.3043 225.826 65.7131 225.826H42.7622V225.95L21.0453 252.761C24.747 254.375 28.8189 255.244 33.3844 255.244H60.654C61.7645 255.244 62.8751 255.119 63.8622 255.119C81.5072 253.506 97.6715 238.735 100.756 220.861L108.036 182.01C111.368 163.018 98.6586 147.627 79.9031 147.627Z" fill="#CFD8DC"/>
<path fill-rule="evenodd" clip-rule="evenodd" d="M299.356 147.627H272.087C253.208 147.627 235.193 163.018 231.861 182.01L230.627 189.457L227.789 204.352L259.007 191.567L260.858 183.623C261.352 180.893 263.943 178.658 266.657 178.658H293.927C296.642 178.658 298.492 180.893 297.999 183.623L290.966 220.861C290.472 223.468 287.757 225.826 285.166 225.826H262.215V225.95L240.498 252.761C244.2 254.375 248.272 255.244 252.838 255.244H280.107C281.218 255.244 282.328 255.119 283.315 255.119C300.96 253.506 317.125 238.735 320.209 220.861L327.49 182.01C330.821 163.018 318.112 147.627 299.356 147.627Z" fill="#CFD8DC"/>
<path fill-rule="evenodd" clip-rule="evenodd" d="M190.082 38.9551H162.238C142.962 38.9551 124.567 54.1957 121.165 73.0007L119.906 80.3752L117.008 95.1242L148.883 82.4647L150.773 74.5985C151.277 71.8945 153.923 69.6822 156.694 69.6822H184.538C187.31 69.6822 189.2 71.8945 188.696 74.5985L181.514 111.471C181.01 114.052 178.239 116.387 175.593 116.387H152.159V116.51L129.985 143.058C133.764 144.656 137.922 145.517 142.584 145.517H170.427C171.561 145.517 172.695 145.394 173.703 145.394C191.72 143.796 208.224 129.17 211.374 111.471L218.807 73.0007C222.209 54.1957 209.232 38.9551 190.082 38.9551Z" fill="#CFD8DC"/>
<path fill-rule="evenodd" clip-rule="evenodd" d="M408.028 38.9551H380.759C361.88 38.9551 343.864 54.1957 340.533 73.0007L339.299 80.3752L336.461 95.1242L367.679 82.4647L369.53 74.5985C370.023 71.8945 372.615 69.6822 375.329 69.6822H402.599C405.313 69.6822 407.164 71.8945 406.671 74.5985L399.637 111.471C399.144 114.052 396.429 116.387 393.838 116.387H370.887V116.51L349.17 143.058C352.872 144.656 356.944 145.517 361.509 145.517H388.779C389.89 145.517 391 145.394 391.987 145.394C409.632 143.796 425.796 129.17 428.881 111.471L436.161 73.0007C439.493 54.1957 426.784 38.9551 408.028 38.9551Z" fill="#CFD8DC"/>
<path fill-rule="evenodd" clip-rule="evenodd" d="M79.9031 9.41406H52.6335C33.7546 9.41406 15.7394 24.8056 12.4078 43.7968L11.1739 51.2443L8.33594 66.1393L39.554 53.3544L41.4049 45.4104C41.8985 42.6796 44.4897 40.4454 47.2043 40.4454H74.4739C77.1885 40.4454 79.0394 42.6796 78.5458 45.4104L71.5125 82.648C71.0189 85.2546 68.3043 87.613 65.7131 87.613H42.7622V87.7371L21.0453 114.548C24.747 116.162 28.8189 117.031 33.3844 117.031H60.654C61.7645 117.031 62.8751 116.907 63.8622 116.907C81.5072 115.293 97.6715 100.522 100.756 82.648L108.036 43.7968C111.368 24.8056 98.6586 9.41406 79.9031 9.41406Z" fill="#CFD8DC"/>
<path fill-rule="evenodd" clip-rule="evenodd" d="M299.356 9.41406H272.087C253.208 9.41406 235.193 24.8056 231.861 43.7968L230.627 51.2443L227.789 66.1393L259.007 53.3544L260.858 45.4104C261.352 42.6796 263.943 40.4454 266.657 40.4454H293.927C296.642 40.4454 298.492 42.6796 297.999 45.4104L290.966 82.648C290.472 85.2546 287.757 87.613 285.166 87.613H262.215V87.7371L240.498 114.548C244.2 116.162 248.272 117.031 252.838 117.031H280.107C281.218 117.031 282.328 116.907 283.315 116.907C300.96 115.293 317.125 100.522 320.209 82.648L327.49 43.7968C330.821 24.8056 318.112 9.41406 299.356 9.41406Z" fill="#CFD8DC"/>
<path fill-rule="evenodd" clip-rule="evenodd" d="M515.903 565.434H488.634C469.755 565.434 451.739 580.674 448.408 599.479L447.174 606.854L444.336 621.603L475.554 608.943L477.405 601.077C477.898 598.373 480.49 596.161 483.204 596.161H510.474C513.188 596.161 515.039 598.373 514.546 601.077L507.512 637.95C507.019 640.531 504.304 642.866 501.713 642.866H478.762V642.989L457.045 669.537C460.747 671.135 464.819 671.995 469.384 671.995H496.654C497.765 671.995 498.875 671.872 499.862 671.872C517.507 670.274 533.671 655.648 536.756 637.95L544.036 599.479C547.368 580.674 534.659 565.434 515.903 565.434Z" fill="#CFD8DC"/>
<path fill-rule="evenodd" clip-rule="evenodd" d="M515.903 427.22H488.634C469.755 427.22 451.739 442.611 448.408 461.602L447.174 469.05L444.336 483.945L475.554 471.16L477.405 463.216C477.898 460.485 480.49 458.251 483.204 458.251H510.474C513.188 458.251 515.039 460.485 514.546 463.216L507.512 500.454C507.019 503.06 504.304 505.419 501.713 505.419H478.762V505.543L457.045 532.354C460.747 533.967 464.819 534.836 469.384 534.836H496.654C497.765 534.836 498.875 534.712 499.862 534.712C517.507 533.099 533.671 518.328 536.756 500.454L544.036 461.602C547.368 442.611 534.659 427.22 515.903 427.22Z" fill="#CFD8DC"/>
<path fill-rule="evenodd" clip-rule="evenodd" d="M515.903 287.951H488.634C469.755 287.951 451.739 303.192 448.408 321.997L447.174 329.371L444.336 344.12L475.554 331.461L477.405 323.595C477.898 320.891 480.49 318.678 483.204 318.678H510.474C513.188 318.678 515.039 320.891 514.546 323.595L507.512 360.467C507.019 363.048 504.304 365.383 501.713 365.383H478.762V365.506L457.045 392.055C460.747 393.652 464.819 394.513 469.384 394.513H496.654C497.765 394.513 498.875 394.39 499.862 394.39C517.507 392.792 533.671 378.166 536.756 360.467L544.036 321.997C547.368 303.192 534.659 287.951 515.903 287.951Z" fill="#CFD8DC"/>
<path fill-rule="evenodd" clip-rule="evenodd" d="M515.903 147.627H488.634C469.755 147.627 451.739 163.018 448.408 182.01L447.174 189.457L444.336 204.352L475.554 191.567L477.405 183.623C477.898 180.893 480.49 178.658 483.204 178.658H510.474C513.188 178.658 515.039 180.893 514.546 183.623L507.512 220.861C507.019 223.468 504.304 225.826 501.713 225.826H478.762V225.95L457.045 252.761C460.747 254.375 464.819 255.244 469.384 255.244H496.654C497.765 255.244 498.875 255.119 499.862 255.119C517.507 253.506 533.671 238.735 536.756 220.861L544.036 182.01C547.368 163.018 534.659 147.627 515.903 147.627Z" fill="#CFD8DC"/>
<path fill-rule="evenodd" clip-rule="evenodd" d="M515.903 9.41406H488.634C469.755 9.41406 451.739 24.8056 448.408 43.7968L447.174 51.2443L444.336 66.1393L475.554 53.3544L477.405 45.4104C477.898 42.6796 480.49 40.4454 483.204 40.4454H510.474C513.188 40.4454 515.039 42.6796 514.546 45.4104L507.512 82.648C507.019 85.2546 504.304 87.613 501.713 87.613H478.762V87.7371L457.045 114.548C460.747 116.162 464.819 117.031 469.384 117.031H496.654C497.765 117.031 498.875 116.907 499.862 116.907C517.507 115.293 533.671 100.522 536.756 82.648L544.036 43.7968C547.368 24.8056 534.659 9.41406 515.903 9.41406Z" fill="#CFD8DC"/>
</g>
</svg>
