<svg width="20" height="20" viewBox="0 0 20 20" fill="none" xmlns="http://www.w3.org/2000/svg">
<path fill-rule="evenodd" clip-rule="evenodd" d="M0 9.69914C0 4.12713 4.36711 0 9.99911 0C15.6311 0 19.9982 4.12963 19.9982 9.70164C19.9982 15.2736 15.6311 19.4008 9.99911 19.4008C8.9867 19.4008 8.01679 19.2658 7.10437 19.0158C6.92689 18.9683 6.7369 18.9808 6.56942 19.0558L4.58459 19.9307C4.06464 20.1607 3.47969 19.7907 3.46219 19.2233L3.4072 17.4435C3.4022 17.2235 3.30221 17.0185 3.13972 16.8735C1.19489 15.1337 0 12.6139 0 9.69914ZM6.93199 7.87647L3.99476 12.5361C3.71228 12.9835 4.26223 13.486 4.68219 13.166L7.83691 10.7712C8.04939 10.6087 8.34436 10.6087 8.55934 10.7687L10.8966 12.5211C11.5991 13.046 12.599 12.8635 13.0664 12.1211L16.0062 7.46401C16.2861 7.01655 15.7362 6.51159 15.3162 6.83156L12.1615 9.22635C11.949 9.38884 11.6541 9.38884 11.4391 9.22885L9.10179 7.47651C8.39936 6.95155 7.39945 7.13404 6.93199 7.87647Z" fill="#006099"/>
</svg>
