<svg width="70" height="62" viewBox="0 0 70 62" fill="none" xmlns="http://www.w3.org/2000/svg">
<circle cx="31" cy="31" r="31" fill="white"/>
<path d="M69.8074 30.2891L56 35.374L50.732 22.2496L69.8074 30.2891Z" fill="white"/>
<path d="M18.6869 39.8843C20.6957 37.8755 20.8966 37.3733 22.1521 38.6288C23.4077 39.8843 22.9055 40.035 20.8966 42.0941C19.39 43.6007 17.4816 43.2993 17.4816 43.2993C17.4816 43.2993 17.1803 41.391 18.6869 39.8843Z" fill="#9D1573"/>
<path d="M22.5029 41.943C23.3064 39.8338 23.5575 39.5827 22.4025 38.9298C21.2474 38.2769 21.2474 38.7289 20.4941 40.8382C19.8914 42.395 20.5945 43.8012 20.5945 43.8012C20.5945 43.8012 21.9505 43.5501 22.5029 41.943" fill="#9D1573"/>
<path d="M21.3486 39.9859C21.8006 38.8308 21.8006 38.5797 22.4032 38.9312C23.0561 39.2828 22.9054 39.4334 22.4535 40.5885C22.1521 41.4422 21.3988 41.6431 21.3988 41.6431C21.3988 41.6431 21.0473 40.8898 21.3486 39.9859Z" fill="#D4ACC8"/>
<path d="M21.8011 38.3776C21.1482 37.2225 20.8971 37.4736 18.7878 38.2771C17.231 38.8798 16.9297 40.1855 16.9297 40.1855C16.9297 40.1855 18.3359 40.8886 19.8927 40.286C22.002 39.4824 22.454 39.4824 21.8011 38.3776Z" fill="#9D1573"/>
<path d="M20.7471 39.4314C21.9022 38.9795 22.1533 38.9795 21.8018 38.3768C21.4502 37.7239 21.2995 37.8746 20.1445 38.3266C19.2907 38.6279 19.0898 39.3812 19.0898 39.3812C19.0898 39.3812 19.8934 39.7328 20.7471 39.4314Z" fill="#D4ACC8"/>
<path d="M20.1934 39.3313C21.2983 38.2265 21.3987 37.9251 22.1018 38.6282C22.8049 39.3313 22.5036 39.4318 21.3987 40.5366C20.545 41.3904 19.4903 41.1895 19.4903 41.1895C19.4903 41.1895 19.3899 40.1851 20.1934 39.3313" fill="#D4ACC8"/>
<path d="M22.5051 34.5104C19.3915 29.2875 14.2188 31.4469 14.2188 31.4469C14.2188 31.4469 21.6012 24.0645 26.573 29.0363L22.5051 34.5104Z" fill="#9D1573"/>
<path d="M24.9157 30.6434L26.5228 29.0363C21.6012 24.0645 14.2188 31.4469 14.2188 31.4469C14.2188 31.4469 20.6972 26.8266 24.9157 30.6434" fill="#90A4AE"/>
<path d="M26.2695 38.2778C31.4925 41.3915 29.333 46.5642 29.333 46.5642C29.333 46.5642 36.7154 39.1818 31.7436 34.21L26.2695 38.2778Z" fill="#9D1573"/>
<path d="M30.1375 35.8678L31.7446 34.2607C36.7164 39.2326 29.334 46.615 29.334 46.615C29.334 46.615 33.9543 40.0863 30.1375 35.8678" fill="#90A4AE"/>
<path d="M37.7226 30.9446C31.8468 36.7702 25.3684 39.9341 23.1084 37.6741C20.8485 35.4142 24.0124 28.9358 29.838 23.06C36.668 16.23 44.2513 16.5313 44.2513 16.5313C44.2513 16.5313 44.5024 24.1146 37.7226 30.9446" fill="#78909C"/>
<path d="M36.2129 29.2901C30.3874 35.1156 24.5618 38.9324 23.2058 37.5765C21.8499 36.2205 25.6666 30.3949 31.4922 24.5693C38.3222 17.7393 44.3487 16.4336 44.3487 16.4336C44.3487 16.4336 43.0429 22.4601 36.2129 29.2901Z" fill="#F0F4F6"/>
<path d="M25.4141 39.2845C25.163 39.5356 24.7613 39.5356 24.5102 39.2845L21.4969 36.2712C21.2458 36.0201 21.2458 35.5682 21.4969 35.3171L22.4009 34.4131L26.3181 38.3303L25.4141 39.2845Z" fill="#D4ACC8"/>
<path d="M24.5654 38.3764C24.3143 38.6275 24.0129 38.7279 23.8623 38.5773L22.1548 36.8698C22.0041 36.7191 22.1046 36.4178 22.3557 36.1667L23.2596 35.2627L25.4693 37.4724L24.5654 38.3764" fill="#9D1573"/>
<path d="M23.7083 39.6346C23.5576 39.7853 23.2061 39.7853 23.0554 39.6346L21.0968 37.676C20.9462 37.5253 20.9964 37.224 21.147 37.0733L21.7497 36.4707L24.3109 39.032L23.7083 39.6346" fill="#455A64"/>
<path d="M23.3063 39.2324C23.1556 39.3831 22.8543 39.4333 22.7538 39.3329L21.3979 37.9769C21.2974 37.8765 21.3477 37.6254 21.5485 37.4747L22.1512 36.8721L23.9089 38.6298L23.3063 39.2324Z" fill="#90A4AE"/>
<path d="M44.2491 16.5338C44.2491 16.5338 41.5372 16.4334 37.8711 17.8395L42.9434 22.9118C44.3495 19.2457 44.2491 16.5338 44.2491 16.5338Z" fill="#610A46"/>
<path d="M44.25 16.5322C44.25 16.5322 42.0905 16.9842 38.8262 18.8424L41.9398 21.956C43.798 18.6917 44.25 16.5322 44.25 16.5322" fill="#9D1573"/>
<path d="M35.0579 28.234C36.4447 28.234 37.5689 27.1097 37.5689 25.7229C37.5689 24.3361 36.4447 23.2119 35.0579 23.2119C33.6711 23.2119 32.5469 24.3361 32.5469 25.7229C32.5469 27.1097 33.6711 28.234 35.0579 28.234Z" fill="#9D1573"/>
<path d="M35.0596 27.38C35.9749 27.38 36.7169 26.638 36.7169 25.7227C36.7169 24.8074 35.9749 24.0654 35.0596 24.0654C34.1443 24.0654 33.4023 24.8074 33.4023 25.7227C33.4023 26.638 34.1443 27.38 35.0596 27.38Z" fill="#D5ACC8"/>
<path d="M30.0364 33.2564C31.4232 33.2564 32.5474 32.1322 32.5474 30.7454C32.5474 29.3586 31.4232 28.2344 30.0364 28.2344C28.6496 28.2344 27.5254 29.3586 27.5254 30.7454C27.5254 32.1322 28.6496 33.2564 30.0364 33.2564Z" fill="#9D1573"/>
<path d="M30.0362 32.4024C30.9515 32.4024 31.6935 31.6605 31.6935 30.7452C31.6935 29.8299 30.9515 29.0879 30.0362 29.0879C29.1209 29.0879 28.3789 29.8299 28.3789 30.7452C28.3789 31.6605 29.1209 32.4024 30.0362 32.4024Z" fill="#D5ACC8"/>
</svg>
