<svg width="62" height="70" viewBox="0 0 62 70" fill="none" xmlns="http://www.w3.org/2000/svg">
<path fill-rule="evenodd" clip-rule="evenodd" d="M32.3067 61.973C48.8215 61.2882 62 47.6831 62 31C62 13.8792 48.1208 0 31 0C13.8792 0 0 13.8792 0 31C0 45.2386 9.59948 57.2351 22.6796 60.8707L21 70L32.3067 61.973Z" fill="#ECEFF1"/>
<path d="M18.9037 40.8853C20.9125 38.8765 21.1134 38.3743 22.3689 39.6298C23.6245 40.8853 23.1222 41.036 21.1134 43.095C19.6068 44.6016 17.6984 44.3003 17.6984 44.3003C17.6984 44.3003 17.3971 42.3919 18.9037 40.8853Z" fill="#9D1573"/>
<path d="M22.7197 42.944C23.5232 40.8347 23.7743 40.5836 22.6193 39.9308C21.4642 39.2779 21.4642 39.7299 20.7109 41.8391C20.1082 43.396 20.8113 44.8022 20.8113 44.8022C20.8113 44.8022 22.1673 44.5511 22.7197 42.944Z" fill="#9D1573"/>
<path d="M21.5654 40.9868C22.0174 39.8318 22.0174 39.5807 22.62 39.9322C23.2729 40.2837 23.1222 40.4344 22.6702 41.5895C22.3689 42.4432 21.6156 42.6441 21.6156 42.6441C21.6156 42.6441 21.2641 41.8908 21.5654 40.9868Z" fill="#D4ACC8"/>
<path d="M22.0179 39.3786C21.365 38.2235 21.1139 38.4746 19.0046 39.2781C17.4478 39.8808 17.1465 41.1865 17.1465 41.1865C17.1465 41.1865 18.5527 41.8896 20.1095 41.2869C22.2188 40.4834 22.6707 40.4834 22.0179 39.3786Z" fill="#9D1573"/>
<path d="M20.9639 40.4324C22.119 39.9804 22.3701 39.9804 22.0186 39.3778C21.667 38.7249 21.5163 38.8756 20.3613 39.3276C19.5075 39.6289 19.3066 40.3822 19.3066 40.3822C19.3066 40.3822 20.1102 40.7337 20.9639 40.4324Z" fill="#D4ACC8"/>
<path d="M20.4102 40.3323C21.5151 39.2274 21.6155 38.9261 22.3186 39.6292C23.0217 40.3323 22.7204 40.4327 21.6155 41.5376C20.7618 42.3913 19.7071 42.1904 19.7071 42.1904C19.7071 42.1904 19.6067 41.186 20.4102 40.3323Z" fill="#D4ACC8"/>
<path d="M22.7219 35.5114C19.6083 30.2884 14.4355 32.4479 14.4355 32.4479C14.4355 32.4479 21.818 25.0655 26.7898 30.0373L22.7219 35.5114Z" fill="#9D1573"/>
<path d="M25.1325 31.6444L26.7396 30.0373C21.818 25.0655 14.4355 32.4479 14.4355 32.4479C14.4355 32.4479 20.914 27.8276 25.1325 31.6444Z" fill="#90A4AE"/>
<path d="M26.4863 39.2788C31.7093 42.3925 29.5498 47.5652 29.5498 47.5652C29.5498 47.5652 36.9322 40.1828 31.9604 35.2109L26.4863 39.2788Z" fill="#9D1573"/>
<path d="M30.3543 36.8688L31.9614 35.2617C36.9332 40.2336 29.5508 47.616 29.5508 47.616C29.5508 47.616 34.1711 41.0873 30.3543 36.8688Z" fill="#90A4AE"/>
<path d="M37.9394 31.9456C32.0636 37.7711 25.5852 40.935 23.3252 38.6751C21.0653 36.4152 24.2292 29.9367 30.0548 24.0609C36.8848 17.2309 44.4681 17.5323 44.4681 17.5323C44.4681 17.5323 44.7192 25.1156 37.9394 31.9456Z" fill="#78909C"/>
<path d="M36.4297 30.291C30.6042 36.1166 24.7786 39.9334 23.4226 38.5774C22.0667 37.2215 25.8834 31.3959 31.709 25.5703C38.539 18.7403 44.5655 17.4346 44.5655 17.4346C44.5655 17.4346 43.2597 23.461 36.4297 30.291Z" fill="#F0F4F6"/>
<path d="M25.6309 40.2855C25.3798 40.5366 24.9781 40.5366 24.727 40.2855L21.7137 37.2722C21.4626 37.0211 21.4626 36.5691 21.7137 36.318L22.6177 35.4141L26.5349 39.3313L25.6309 40.2855Z" fill="#D4ACC8"/>
<path d="M24.7822 39.3773C24.5311 39.6285 24.2297 39.7289 24.0791 39.5782L22.3716 37.8707C22.2209 37.7201 22.3213 37.4187 22.5725 37.1676L23.4764 36.2637L25.6861 38.4734L24.7822 39.3773Z" fill="#9D1573"/>
<path d="M23.9251 40.6356C23.7744 40.7862 23.4229 40.7862 23.2722 40.6356L21.3136 38.677C21.163 38.5263 21.2132 38.225 21.3638 38.0743L21.9665 37.4717L24.5277 40.0329L23.9251 40.6356Z" fill="#455A64"/>
<path d="M23.5231 40.2334C23.3724 40.3841 23.0711 40.4343 22.9706 40.3339L21.6147 38.9779C21.5142 38.8775 21.5645 38.6264 21.7653 38.4757L22.368 37.873L24.1257 39.6308L23.5231 40.2334Z" fill="#90A4AE"/>
<path d="M44.4659 17.5348C44.4659 17.5348 41.754 17.4343 38.0879 18.8405L43.1602 23.9128C44.5663 20.2467 44.4659 17.5348 44.4659 17.5348Z" fill="#610A46"/>
<path d="M44.4668 17.5332C44.4668 17.5332 42.3073 17.9852 39.043 19.8433L42.1566 22.957C44.0148 19.6927 44.4668 17.5332 44.4668 17.5332Z" fill="#9D1573"/>
<path d="M35.2747 29.2349C36.6615 29.2349 37.7857 28.1107 37.7857 26.7239C37.7857 25.3371 36.6615 24.2129 35.2747 24.2129C33.8879 24.2129 32.7637 25.3371 32.7637 26.7239C32.7637 28.1107 33.8879 29.2349 35.2747 29.2349Z" fill="#9D1573"/>
<path d="M35.2764 28.381C36.1917 28.381 36.9337 27.639 36.9337 26.7237C36.9337 25.8084 36.1917 25.0664 35.2764 25.0664C34.3611 25.0664 33.6191 25.8084 33.6191 26.7237C33.6191 27.639 34.3611 28.381 35.2764 28.381Z" fill="#D5ACC8"/>
<path d="M30.2532 34.2574C31.64 34.2574 32.7642 33.1332 32.7642 31.7464C32.7642 30.3596 31.64 29.2354 30.2532 29.2354C28.8664 29.2354 27.7422 30.3596 27.7422 31.7464C27.7422 33.1332 28.8664 34.2574 30.2532 34.2574Z" fill="#9D1573"/>
<path d="M30.253 33.4034C31.1683 33.4034 31.9103 32.6614 31.9103 31.7461C31.9103 30.8309 31.1683 30.0889 30.253 30.0889C29.3377 30.0889 28.5957 30.8309 28.5957 31.7461C28.5957 32.6614 29.3377 33.4034 30.253 33.4034Z" fill="#D5ACC8"/>
</svg>
