<svg width="242" height="180" viewBox="0 0 242 180" fill="none" xmlns="http://www.w3.org/2000/svg">
<g clip-path="url(#clip0_16_1461)">
<path d="M236.98 153.983C236.98 154.058 183.928 154.123 118.492 154.123C53.0566 154.123 -0.00630188 154.058 -0.00630188 153.983C-0.00630188 153.908 53.0351 153.843 118.492 153.843C183.949 153.843 236.98 153.908 236.98 153.983Z" fill="#263238"/>
<path d="M215.546 138.524C215.546 138.524 215.578 138.433 215.654 138.261C215.74 138.072 215.858 137.824 216.009 137.501C216.31 136.834 216.703 135.816 217.052 134.47C217.741 131.772 217.983 127.653 216.961 122.759C216.487 120.309 215.724 117.682 214.793 114.893C213.873 112.104 212.808 109.137 211.936 105.938C211.076 102.746 210.393 99.278 210.527 95.6436C210.661 92.0038 211.737 88.364 212.921 84.7457C214.104 81.122 215.325 77.5792 215.691 74.0147C216.105 70.4557 215.347 66.9666 213.728 64.1022C212.162 61.2108 210.188 58.7394 208.709 56.1764C207.208 53.6243 206.272 50.9967 205.691 48.5576C204.572 43.6363 204.965 39.485 205.497 36.7497C206.078 34.0037 206.729 32.5823 206.729 32.5823C206.734 32.5823 206.713 32.6792 206.654 32.8569C206.595 33.0561 206.509 33.3199 206.406 33.6538C206.191 34.3537 205.906 35.4037 205.642 36.7767C205.153 39.5065 204.803 43.6255 205.949 48.493C206.541 50.9052 207.482 53.5004 208.972 56.0149C210.446 58.5455 212.426 61.0062 214.024 63.9353C215.675 66.8266 216.471 70.4341 216.052 74.047C215.681 77.6707 214.449 81.2351 213.271 84.8588C212.087 88.4717 211.022 92.0738 210.887 95.6544C210.753 99.2349 211.415 102.665 212.265 105.847C213.12 109.034 214.174 111.996 215.083 114.796C216.003 117.59 216.756 120.239 217.219 122.705C218.214 127.637 217.929 131.799 217.187 134.502C216.81 135.859 216.396 136.866 216.073 137.528C215.906 137.841 215.777 138.088 215.686 138.271C215.594 138.438 215.546 138.519 215.541 138.519L215.546 138.524Z" fill="#BDBDBD"/>
<path d="M210.715 58.7124C210.715 58.7124 207.719 49.1176 213.093 43.4963C213.281 43.2971 213.615 43.394 213.663 43.6632C213.948 45.2462 214.309 50.076 210.715 58.7124Z" fill="#E0E0E0"/>
<path d="M212.513 46.6946C212.561 46.7054 212.48 47.3784 212.308 48.466C212.109 49.6829 211.878 51.1151 211.625 52.6981C211.372 54.2811 211.146 55.7134 210.953 56.9302C210.786 58.0125 210.689 58.6855 210.635 58.6801C210.587 58.6801 210.592 57.9909 210.689 56.8979C210.786 55.7995 210.98 54.2919 211.254 52.6389C211.523 50.9859 211.813 49.4944 212.05 48.4176C212.287 47.3461 212.464 46.6838 212.513 46.6946Z" fill="#BDBDBD"/>
<path d="M214.239 81.3428C214.239 81.3428 216.073 71.4571 223.448 69.0073C223.707 68.9211 223.959 69.158 223.873 69.4219C223.389 70.9564 221.447 75.3931 214.233 81.3428H214.239Z" fill="#E0E0E0"/>
<path d="M221.441 71.5595C221.479 71.5918 221.092 72.1464 220.436 73.0294C219.693 74.0147 218.816 75.1724 217.853 76.4484C216.89 77.7299 216.024 78.8876 215.282 79.8729C214.631 80.7559 214.228 81.2997 214.185 81.2728C214.142 81.2459 214.464 80.6428 215.067 79.7221C215.669 78.8014 216.541 77.5576 217.558 76.2223C218.569 74.887 219.521 73.7024 220.231 72.8625C220.941 72.0225 221.404 71.5272 221.447 71.5595H221.441Z" fill="#BDBDBD"/>
<path d="M212.242 106.138C212.242 106.138 211.128 96.1444 217.476 91.6593C217.697 91.5031 218.009 91.6593 218.003 91.9285C217.982 93.5384 217.417 98.3466 212.236 106.138H212.242Z" fill="#E0E0E0"/>
<path d="M216.298 94.6853C216.347 94.7068 216.131 95.353 215.76 96.3868C215.335 97.5444 214.835 98.9066 214.281 100.409C213.732 101.911 213.237 103.273 212.818 104.436C212.452 105.47 212.226 106.111 212.172 106.095C212.124 106.084 212.258 105.411 212.565 104.356C212.871 103.3 213.35 101.857 213.931 100.28C214.512 98.7074 215.082 97.2967 215.513 96.2898C215.948 95.2776 216.25 94.6691 216.293 94.6907L216.298 94.6853Z" fill="#BDBDBD"/>
<path d="M217.808 131.083C217.808 131.083 217.055 121.058 223.559 116.799C223.785 116.648 224.092 116.815 224.075 117.089C224 118.699 223.258 123.481 217.808 131.083Z" fill="#E0E0E0"/>
<path d="M222.267 119.781C222.316 119.803 222.079 120.444 221.67 121.461C221.202 122.603 220.653 123.949 220.051 125.43C219.448 126.916 218.905 128.256 218.442 129.403C218.039 130.421 217.791 131.056 217.738 131.04C217.689 131.024 217.851 130.362 218.195 129.317C218.539 128.273 219.066 126.846 219.707 125.295C220.341 123.744 220.96 122.355 221.433 121.364C221.901 120.368 222.224 119.771 222.273 119.792L222.267 119.781Z" fill="#BDBDBD"/>
<path d="M206.407 50.2806C206.407 50.2806 197.504 45.6285 197.326 37.8481C197.321 37.5735 197.622 37.4066 197.843 37.5628C199.166 38.4781 202.835 41.6333 206.402 50.2806H206.407Z" fill="#E0E0E0"/>
<path d="M199.177 40.5188C199.22 40.4919 199.634 41.0249 200.285 41.9133C201.006 42.9148 201.856 44.0886 202.797 45.3862C203.739 46.6839 204.589 47.8523 205.315 48.8538C205.966 49.7368 206.369 50.2806 206.332 50.3183C206.294 50.3506 205.815 49.866 205.111 49.0207C204.406 48.1753 203.475 46.9746 202.496 45.6124C201.517 44.2501 200.667 42.9956 200.07 42.0695C199.478 41.1434 199.134 40.5565 199.177 40.5242V40.5188Z" fill="#BDBDBD"/>
<path d="M215.971 70.8865C215.971 70.8865 206.799 66.7836 206.154 59.0302C206.132 58.7556 206.423 58.5725 206.654 58.7125C208.031 59.5471 211.883 62.4708 215.971 70.8865Z" fill="#E0E0E0"/>
<path d="M208.161 61.5823C208.204 61.5499 208.651 62.0615 209.355 62.9068C210.135 63.8598 211.055 64.9852 212.072 66.2235C213.089 67.4566 214.014 68.5765 214.794 69.5295C215.499 70.3695 215.934 70.8864 215.897 70.9295C215.864 70.9618 215.353 70.5095 214.595 69.7072C213.842 68.9049 212.836 67.7635 211.776 66.4658C210.716 65.1682 209.791 63.9621 209.14 63.0737C208.489 62.1853 208.118 61.6199 208.156 61.5876L208.161 61.5823Z" fill="#BDBDBD"/>
<path d="M210.695 93.8722C210.695 93.8722 204.401 86.038 207.355 78.8391C207.457 78.586 207.801 78.5537 207.946 78.7853C208.791 80.1529 210.889 84.5142 210.701 93.8722H210.695Z" fill="#E0E0E0"/>
<path d="M207.979 82.032C208.033 82.0212 208.194 82.6835 208.436 83.755C208.7 84.9611 209.007 86.3771 209.345 87.944C209.69 89.5054 210.002 90.9215 210.265 92.1276C210.507 93.1991 210.663 93.856 210.61 93.8721C210.561 93.8883 210.319 93.2476 210.007 92.1922C209.701 91.1369 209.329 89.6616 208.974 88.0194C208.619 86.3771 208.345 84.8857 208.173 83.8034C208.001 82.7158 207.925 82.0428 207.974 82.032H207.979Z" fill="#BDBDBD"/>
<path d="M216.93 120.923C216.93 120.923 207.828 116.664 207.317 108.9C207.3 108.625 207.591 108.442 207.822 108.588C209.183 109.444 212.986 112.437 216.93 120.918V120.923Z" fill="#E0E0E0"/>
<path d="M209.28 111.49C209.323 111.457 209.764 111.98 210.447 112.83C211.211 113.8 212.115 114.936 213.11 116.19C214.105 117.445 215.009 118.576 215.778 119.539C216.467 120.39 216.897 120.918 216.854 120.955C216.816 120.988 216.316 120.525 215.574 119.712C214.831 118.899 213.852 117.741 212.814 116.422C211.776 115.103 210.872 113.886 210.237 112.987C209.603 112.087 209.237 111.511 209.28 111.484V111.49Z" fill="#BDBDBD"/>
<path d="M235.054 81.3967C235.054 81.3967 235.065 81.4721 235.065 81.6175C235.065 81.7952 235.054 82.0052 235.048 82.2582C235.021 82.8613 234.984 83.6797 234.941 84.6973C234.822 86.8403 234.661 89.8286 234.462 93.4038V93.4146V93.4253C233.811 97.0652 231.961 101.098 229.475 105.012C227.652 107.898 225.742 110.521 224.09 112.954C222.428 115.388 221.03 117.639 220.056 119.636C219.071 121.628 218.501 123.341 218.168 124.536C218.006 125.139 217.888 125.608 217.818 125.925C217.743 126.243 217.7 126.41 217.684 126.41C217.673 126.41 217.689 126.237 217.743 125.909C217.786 125.581 217.888 125.107 218.022 124.498C218.313 123.281 218.851 121.542 219.814 119.518C220.766 117.488 222.154 115.21 223.805 112.76C225.441 110.305 227.345 107.678 229.158 104.808C231.632 100.91 233.472 96.9413 234.145 93.3607V93.3823C234.392 89.8125 234.602 86.8241 234.753 84.6866C234.833 83.6689 234.898 82.8559 234.952 82.2529C234.978 81.9998 235 81.7898 235.016 81.6121C235.032 81.4667 235.048 81.3914 235.054 81.3914V81.3967Z" fill="#BDBDBD"/>
<path d="M229.636 104.258C229.636 104.258 233.488 94.9759 228.641 88.8916C228.468 88.6762 228.13 88.7408 228.06 89.0047C227.629 90.5554 226.839 95.3313 229.636 104.258Z" fill="#E0E0E0"/>
<path d="M228.936 92.133C228.99 92.1276 229.102 92.8006 229.242 93.8883C229.377 94.9813 229.533 96.4889 229.651 98.1634C229.77 99.8379 229.829 101.356 229.829 102.46C229.829 103.564 229.77 104.242 229.721 104.242C229.667 104.242 229.63 103.564 229.565 102.471C229.484 101.238 229.388 99.7949 229.28 98.1957C229.167 96.5966 229.07 95.1536 228.984 93.9206C228.914 92.8222 228.893 92.1437 228.941 92.1384L228.936 92.133Z" fill="#BDBDBD"/>
<g opacity="0.3">
<path d="M229.637 104.258C229.637 104.258 233.488 94.9759 228.641 88.8916C228.469 88.6762 228.13 88.7408 228.06 89.0047C227.63 90.5554 226.839 95.3313 229.637 104.258Z" fill="#E0E0E0"/>
</g>
<path d="M217.7 126.636C217.7 126.636 220.788 117.068 215.462 111.398C215.274 111.199 214.94 111.291 214.892 111.56C214.591 113.143 214.187 117.967 217.7 126.636Z" fill="#E0E0E0"/>
<path d="M216.021 114.602C216.07 114.591 216.242 115.253 216.468 116.33C216.694 117.407 216.968 118.899 217.221 120.557C217.479 122.215 217.656 123.723 217.743 124.821C217.829 125.92 217.829 126.604 217.78 126.604C217.726 126.604 217.635 125.936 217.479 124.848C217.296 123.626 217.086 122.194 216.85 120.611C216.607 119.028 216.392 117.596 216.204 116.373C216.048 115.286 215.967 114.613 216.021 114.602Z" fill="#BDBDBD"/>
<g opacity="0.3">
<path d="M217.701 126.636C217.701 126.636 220.789 117.068 215.463 111.398C215.275 111.199 214.941 111.291 214.893 111.56C214.592 113.143 214.188 117.967 217.701 126.636Z" fill="#E0E0E0"/>
</g>
<path d="M234.547 92.9138C234.547 92.9138 242.777 87.1471 241.944 79.4098C241.917 79.1406 241.594 79.0114 241.389 79.1945C240.195 80.2713 236.968 83.8788 234.541 92.9138H234.547Z" fill="#E0E0E0"/>
<g opacity="0.3">
<path d="M234.547 92.9138C234.547 92.9138 242.777 87.1471 241.943 79.4098C241.916 79.1406 241.594 79.0114 241.389 79.1945C240.195 80.2713 236.967 83.8788 234.541 92.9138H234.547Z" fill="#E0E0E0"/>
</g>
<path d="M240.454 82.3012C240.502 82.3227 240.239 82.9527 239.771 83.9488C239.303 84.9449 238.62 86.3017 237.823 87.777C237.027 89.2524 236.263 90.5661 235.672 91.4976C235.08 92.4237 234.666 92.9675 234.628 92.9406C234.58 92.9083 234.913 92.316 235.446 91.3576C236.037 90.2754 236.731 88.9993 237.495 87.594C238.259 86.1833 238.948 84.9126 239.534 83.8249C240.067 82.8612 240.406 82.2743 240.454 82.3012Z" fill="#BDBDBD"/>
<path d="M221.016 117.149C221.016 117.149 230.941 115.598 233.599 108.286C233.69 108.028 233.464 107.774 233.201 107.844C231.651 108.286 227.17 110.095 221.016 117.143V117.149Z" fill="#E0E0E0"/>
<g opacity="0.3">
<path d="M221.015 117.149C221.015 117.149 230.94 115.598 233.597 108.286C233.689 108.028 233.463 107.774 233.199 107.844C231.65 108.286 227.169 110.095 221.015 117.143V117.149Z" fill="#E0E0E0"/>
</g>
<path d="M230.994 110.23C231.027 110.273 230.516 110.72 229.655 111.409C228.794 112.093 227.589 113.013 226.223 113.988C224.856 114.963 223.592 115.803 222.656 116.379C221.715 116.949 221.107 117.256 221.08 117.213C221.053 117.165 221.613 116.782 222.511 116.153C223.517 115.442 224.7 114.602 226.008 113.681C227.309 112.755 228.493 111.915 229.499 111.199C230.397 110.569 230.962 110.192 230.994 110.235V110.23Z" fill="#BDBDBD"/>
<path d="M209.273 135.434L212.119 154.123L223.491 154.101L227.321 135.434H209.273Z" fill="#E0E0E0"/>
<path d="M225.653 142.643C225.653 142.643 225.627 142.67 225.557 142.713C225.492 142.751 225.395 142.821 225.255 142.886C224.981 143.02 224.561 143.187 223.986 143.263C223.416 143.343 222.684 143.327 221.893 143.069C221.113 142.816 220.258 142.31 219.645 141.437C219.354 140.996 219.15 140.457 219.117 139.876C219.074 139.305 219.3 138.611 219.887 138.271C220.473 137.932 221.232 138.056 221.791 138.427C222.377 138.81 222.716 139.472 222.878 140.145C223.039 140.829 223.061 141.54 223.017 142.256C222.969 142.972 222.84 143.71 222.555 144.415C222.281 145.12 221.834 145.782 221.237 146.299C220.64 146.811 219.876 147.177 219.047 147.215C218.219 147.252 217.434 146.967 216.772 146.552C216.11 146.132 215.545 145.605 215.072 145.018C214.604 144.426 214.254 143.72 214.211 142.966C214.174 142.223 214.437 141.453 215.018 140.985C215.61 140.506 216.444 140.538 217.03 140.861C217.638 141.168 218.085 141.75 218.192 142.385C218.413 143.666 217.665 144.824 216.756 145.341C215.825 145.874 214.814 145.89 214.012 145.739C213.195 145.583 212.554 145.26 212.054 144.975C211.559 144.684 211.199 144.415 210.957 144.232C210.72 144.049 210.602 143.941 210.607 143.936C210.612 143.925 210.747 144.016 210.994 144.183C211.247 144.35 211.613 144.598 212.113 144.873C212.614 145.136 213.254 145.438 214.039 145.573C214.819 145.702 215.782 145.664 216.643 145.158C217.477 144.673 218.149 143.575 217.939 142.439C217.842 141.879 217.444 141.378 216.906 141.109C216.379 140.829 215.68 140.813 215.196 141.211C214.712 141.599 214.47 142.288 214.507 142.95C214.55 143.618 214.868 144.275 215.309 144.829C215.755 145.389 216.304 145.901 216.928 146.289C217.552 146.676 218.284 146.935 219.026 146.902C219.768 146.87 220.473 146.536 221.027 146.062C221.587 145.583 222.001 144.969 222.264 144.302C222.533 143.64 222.662 142.934 222.711 142.24C222.754 141.545 222.738 140.85 222.587 140.215C222.437 139.585 222.13 138.987 221.624 138.659C221.135 138.325 220.478 138.223 220 138.497C219.515 138.772 219.311 139.343 219.338 139.871C219.359 140.404 219.542 140.91 219.806 141.324C220.365 142.148 221.178 142.654 221.925 142.913C222.679 143.176 223.389 143.214 223.948 143.155C225.078 143.026 225.61 142.611 225.627 142.654L225.653 142.643Z" fill="#BDBDBD"/>
<path d="M56.0537 143.661C50.2062 143.058 31.4642 142.66 25.6813 143.693C19.8984 144.727 13.2494 150.004 10.7748 154.71C7.99905 159.992 8.46706 170.104 12.8728 174.395C17.2786 178.692 25.1864 177.41 31.7009 178.325C38.2154 179.241 44.8752 178.907 51.4812 178.74C92.9675 177.669 134.766 183.015 175.795 177.34C181.029 176.619 186.586 175.553 190.287 172.209C194.381 168.51 195.188 162.969 195.78 157.854C196.248 153.811 196.603 149.363 193.918 146.068C192.159 143.909 189.319 142.622 186.317 142.084C191.121 136.22 193.477 131.902 193.725 126.9C194.16 118.059 191.853 111.517 191.325 102.778C190.804 94.0391 190.782 85.1119 193.332 76.7393C194.887 71.6403 197.2 65.5452 193.73 61.5016C191.729 59.1702 188.447 58.4971 185.413 58.0018C149.091 52.0952 112.027 51.9659 75.3283 54.5881C70.9548 54.9004 66.1025 55.4819 63.2514 58.8256C60.9651 61.5124 60.5886 65.3622 61.0189 68.862C61.4493 72.3618 62.5682 75.7647 62.8695 79.2807C64.295 95.9883 40.6254 124.536 56.0537 143.656" fill="#2D83C4"/>
<path d="M63.556 58.4917C63.556 58.4917 64.1747 58.131 65.4173 57.571C66.66 57.0218 68.5535 56.2842 71.1142 55.8534C73.6694 55.3958 76.8433 55.3042 80.5121 55.1104C84.1809 54.9273 88.3607 54.7496 92.987 54.5989C102.234 54.2866 113.246 54.1089 125.479 54.222C137.712 54.335 151.155 54.7604 165.244 55.6057C167.003 55.7188 168.757 55.8319 170.494 55.945C172.232 56.058 173.969 56.1711 175.669 56.4942C177.364 56.8172 179.047 57.3664 180.446 58.3841C181.14 58.8902 181.759 59.504 182.254 60.1986C182.743 60.8985 183.114 61.6739 183.383 62.4708C183.921 64.0753 184.04 65.7714 183.916 67.4136C183.781 69.0612 183.399 70.6496 182.964 72.1949C182.528 73.7402 182.022 75.2424 181.624 76.7554C181.199 78.2576 180.86 79.7706 180.548 81.2675C179.343 87.2602 179.064 93.1076 179.419 98.5297C179.596 101.238 179.94 103.849 180.408 106.326C180.866 108.808 181.479 111.156 182.044 113.396C183.206 117.87 184.201 121.962 184.518 125.64C184.857 129.312 184.518 132.516 183.873 135.03C183.545 136.285 183.141 137.367 182.732 138.282C182.307 139.187 181.893 139.924 181.517 140.495C181.323 140.775 181.156 141.023 181.006 141.238C180.844 141.437 180.71 141.61 180.602 141.75C180.382 142.019 180.263 142.154 180.263 142.154C180.263 142.154 180.365 142.008 180.581 141.728C180.688 141.588 180.817 141.416 180.973 141.211C181.119 140.996 181.28 140.748 181.468 140.463C181.834 139.887 182.243 139.149 182.652 138.25C183.05 137.34 183.442 136.258 183.76 135.009C184.389 132.51 184.707 129.317 184.357 125.661C184.029 122 183.023 117.924 181.845 113.45C181.269 111.21 180.651 108.857 180.188 106.369C179.709 103.882 179.359 101.27 179.177 98.5512C178.811 93.113 179.08 87.2441 180.285 81.2244C180.591 79.7222 180.93 78.2038 181.361 76.6962C181.759 75.1778 182.264 73.6702 182.7 72.1356C183.13 70.6011 183.507 69.0235 183.642 67.4082C183.765 65.7983 183.642 64.1345 183.12 62.5731C182.856 61.7977 182.496 61.0493 182.022 60.3709C181.544 59.6978 180.952 59.1109 180.279 58.621C178.929 57.6356 177.283 57.0972 175.615 56.7795C173.937 56.4619 172.21 56.3434 170.473 56.2357C168.735 56.1226 166.981 56.0096 165.222 55.8965C151.139 55.0512 137.701 54.615 125.474 54.4912C113.246 54.3673 102.234 54.5235 92.9924 54.8089C88.3714 54.9489 84.1916 55.1104 80.5228 55.2773C76.854 55.455 73.6855 55.5357 71.1357 55.9719C68.5804 56.3811 66.6923 57.1026 65.4442 57.6356C64.8202 57.9049 64.3522 58.1256 64.0348 58.2818C63.7228 58.4325 63.556 58.5079 63.556 58.5079V58.4917Z" fill="#263238"/>
<path d="M196.09 161.187C196.09 161.187 195.934 161.236 195.622 161.316C195.304 161.397 194.842 161.521 194.234 161.672C193.007 161.984 191.21 162.436 188.897 163.023C187.735 163.314 186.45 163.637 185.035 163.992C183.62 164.326 182.071 164.644 180.414 165.01C177.089 165.71 173.324 166.609 169.112 167.325C167.008 167.708 164.808 168.111 162.511 168.531C161.365 168.758 160.182 168.908 158.988 169.097C157.788 169.274 156.567 169.463 155.324 169.646C154.081 169.834 152.817 170.023 151.532 170.217C150.891 170.308 150.241 170.416 149.59 170.502C148.933 170.577 148.277 170.658 147.61 170.739C144.953 171.051 142.214 171.38 139.406 171.708C128.158 172.85 115.747 173.673 102.697 173.819C89.641 173.889 77.2145 173.275 65.9499 172.317C63.1364 172.031 60.3929 171.751 57.7301 171.482C57.063 171.412 56.4014 171.347 55.7451 171.283C55.0888 171.207 54.4433 171.111 53.7977 171.03C52.512 170.857 51.2425 170.691 49.9944 170.524C48.7464 170.357 47.5253 170.195 46.3203 170.034C45.1207 169.867 43.9372 169.738 42.786 169.528C40.4836 169.145 38.2726 168.779 36.1639 168.429C31.9356 167.783 28.1593 166.948 24.824 166.302C23.1617 165.963 21.6071 165.672 20.1869 165.36C18.7721 165.032 17.4757 164.725 16.3137 164.455C13.9898 163.906 12.1877 163.486 10.9558 163.196C10.3479 163.05 9.88526 162.937 9.56249 162.862C9.25048 162.786 9.0891 162.738 9.0891 162.738C9.0891 162.738 9.25048 162.765 9.56787 162.835C9.89064 162.905 10.3586 163.007 10.9665 163.142C12.2038 163.422 14.0113 163.826 16.3352 164.353C17.5026 164.617 18.799 164.913 20.2138 165.236C21.634 165.538 23.1886 165.823 24.8563 166.152C28.1915 166.782 31.9733 167.605 36.2015 168.235C38.3103 168.58 40.5212 168.941 42.8236 169.318C43.9695 169.522 45.1583 169.651 46.3579 169.813C47.5576 169.969 48.7841 170.131 50.0321 170.297C51.2801 170.459 52.5443 170.626 53.83 170.798C54.4755 170.879 55.1211 170.976 55.7774 171.046C56.4337 171.111 57.0953 171.175 57.7624 171.245C60.4252 171.514 63.1687 171.789 65.9768 172.069C77.236 173.011 89.6571 173.62 102.702 173.55C115.742 173.404 128.147 172.591 139.39 171.466C142.198 171.137 144.931 170.82 147.588 170.507C148.256 170.432 148.912 170.351 149.568 170.276C150.224 170.19 150.87 170.087 151.51 169.996C152.796 169.808 154.06 169.619 155.303 169.436C156.545 169.253 157.766 169.07 158.966 168.892C160.166 168.709 161.344 168.558 162.49 168.338C164.787 167.923 166.987 167.525 169.09 167.148C173.308 166.448 177.073 165.565 180.398 164.875C182.055 164.52 183.609 164.208 185.024 163.885C186.433 163.54 187.725 163.222 188.886 162.937C191.205 162.372 193.007 161.936 194.239 161.639C194.847 161.494 195.31 161.386 195.632 161.311C195.944 161.236 196.111 161.209 196.111 161.209L196.09 161.187Z" fill="#263238"/>
<path d="M56.0521 143.661C56.0521 143.661 56.1651 143.661 56.3856 143.672C56.617 143.688 56.9397 143.704 57.3647 143.731C58.2362 143.79 59.5004 143.877 61.1249 143.99C62.7549 144.108 64.7507 144.254 67.0746 144.377C69.3932 144.496 72.0345 144.69 74.9555 144.797C77.8766 144.921 81.0773 145.077 84.5148 145.158C86.2308 145.201 88.0114 145.277 89.8405 145.303C91.6695 145.336 93.5577 145.363 95.4889 145.395C103.219 145.481 111.724 145.443 120.643 145.239C138.492 144.803 154.631 143.893 166.309 143.236C172.141 142.902 176.864 142.627 180.14 142.444C181.765 142.353 183.029 142.288 183.9 142.24C184.325 142.218 184.648 142.202 184.879 142.191C185.1 142.181 185.213 142.186 185.213 142.186C185.213 142.186 185.1 142.202 184.879 142.218C184.648 142.234 184.325 142.261 183.9 142.294C183.029 142.353 181.765 142.439 180.14 142.552C176.864 142.762 172.146 143.064 166.315 143.435C154.636 144.14 138.498 145.083 120.643 145.519C111.719 145.723 103.214 145.75 95.4781 145.648C93.5469 145.61 91.6587 145.578 89.8297 145.546C87.9953 145.513 86.2201 145.438 84.4987 145.384C81.0612 145.293 77.8604 145.126 74.9394 144.986C72.0183 144.867 69.377 144.657 67.0585 144.523C64.7399 144.388 62.7442 144.221 61.1142 144.087C59.4896 143.952 58.2308 143.85 57.3593 143.774C56.9397 143.737 56.6116 143.71 56.3856 143.688C56.1651 143.667 56.0521 143.65 56.0521 143.65V143.661Z" fill="#263238"/>
<path d="M160.386 175.757C160.3 175.768 160.144 174.163 159.579 172.279C159.025 170.389 158.288 168.962 158.364 168.924C158.396 168.908 158.622 169.242 158.918 169.829C159.214 170.411 159.563 171.245 159.848 172.204C160.128 173.162 160.29 174.056 160.359 174.702C160.429 175.353 160.424 175.757 160.386 175.757Z" fill="#263238"/>
<path d="M165.136 173.539C165.05 173.544 165.023 172.182 164.442 170.642C163.882 169.091 163.016 168.041 163.086 167.988C163.129 167.934 164.119 168.941 164.7 170.545C165.297 172.144 165.195 173.555 165.13 173.539H165.136Z" fill="#263238"/>
<path d="M177.042 117.666C177.052 117.579 178.365 117.973 179.93 117.547C181.501 117.149 182.453 116.163 182.507 116.233C182.529 116.255 182.335 116.53 181.905 116.874C181.48 117.219 180.813 117.601 180 117.816C179.188 118.026 178.413 118.021 177.881 117.929C177.343 117.838 177.031 117.693 177.042 117.666Z" fill="#263238"/>
<path d="M176.718 111.21C176.756 111.134 177.708 111.619 178.972 111.931C180.236 112.254 181.301 112.276 181.301 112.362C181.307 112.432 180.209 112.534 178.902 112.2C177.595 111.877 176.675 111.264 176.713 111.204L176.718 111.21Z" fill="#263238"/>
<path d="M139.388 32.2484C140.163 30.7785 141.384 29.4971 142.939 28.9102C144.494 28.3233 146.382 28.5171 147.624 29.6155C148.867 30.7139 149.265 32.7492 148.329 34.1222C150.465 33.6968 152.81 34.8814 153.735 36.8574C154.661 38.8281 154.069 41.3964 152.374 42.7641C150.685 44.1317 148.049 44.1748 146.317 42.8556C146.075 44.0778 145.161 45.1439 143.993 45.5747C142.826 46.0054 141.443 45.79 140.464 45.0201C137.99 43.0763 138.555 38.5643 135.8 37.0459" fill="#EE7C64"/>
<path d="M137.463 39.5281C139.523 37.4067 140.502 34.2892 140.029 31.3709C139.964 30.9724 139.878 30.5417 140.05 30.1756C140.362 29.5241 141.368 29.5079 141.911 29.9817C142.455 30.4555 142.638 31.2201 142.729 31.9362C142.971 33.8423 142.777 35.8022 142.17 37.6221C141.927 38.349 141.61 39.0651 141.104 39.6412C140.599 40.2173 139.878 40.6373 139.109 40.6373C138.345 40.6373 137.683 40.2604 137.463 39.5281Z" fill="#9B92CA"/>
<path d="M135.806 11.255C134.778 8.40133 129.904 5.95684 127.231 4.53537C123.234 2.40856 119.608 2.98469 117.435 5.06304C113.271 1.79475 107.827 -1.29586 102.754 0.217138C97.6814 1.72475 93.706 7.10909 94.8088 12.2888C95.4597 15.3417 97.676 18.0231 97.6545 21.146C97.6384 23.2729 96.5786 25.2274 95.7502 27.1873C94.9164 29.1472 94.3031 31.414 95.1692 33.3577C95.9708 35.1669 97.8643 36.2491 98.9241 37.9236C99.7848 39.2859 100.027 40.9389 100.597 42.4465C102.711 48.0354 109.484 50.9806 115.337 49.7907C121.19 48.6008 125.94 44.0025 128.543 38.629C131.147 33.25 131.862 27.155 131.986 21.1784" fill="#EE7C64"/>
<path d="M113.857 10.0973C108.418 9.3489 103.453 13.2795 102.92 18.7499C102.291 25.2758 101.753 33.4761 102.388 38.4458C103.62 48.1484 110.979 49.6076 110.979 49.6076C110.979 49.6076 110.919 53.2151 110.839 57.4256C110.731 63.0415 115.072 67.7474 120.678 68.0758C126.703 68.4312 131.776 63.6176 131.743 57.5764L131.539 15.4924" fill="#FFBE9D"/>
<path d="M110.979 49.6077C110.979 49.6077 117.515 50.103 124.067 46.4363C124.067 46.4363 120.576 53.1936 110.952 51.9875L110.984 49.6077H110.979Z" fill="#EB996E"/>
<path d="M117.015 19.7353C117.133 20.1015 118.467 19.9722 120.027 20.2091C121.588 20.4137 122.836 20.9145 123.051 20.5914C123.148 20.4407 122.938 20.0907 122.443 19.7246C121.948 19.3584 121.152 19.0031 120.221 18.8684C119.285 18.7392 118.424 18.8577 117.849 19.073C117.268 19.2884 116.972 19.563 117.02 19.7353H117.015Z" fill="#EE7C64"/>
<path d="M104.723 20.473C104.949 20.7852 105.875 20.4999 106.977 20.516C108.08 20.4945 109.005 20.7852 109.231 20.473C109.328 20.3222 109.194 20.0153 108.796 19.7138C108.403 19.4176 107.736 19.1592 106.977 19.1592C106.219 19.1592 105.552 19.4122 105.159 19.7138C104.761 20.0153 104.621 20.3222 104.718 20.473H104.723Z" fill="#EE7C64"/>
<path d="M116.665 30.6225C116.671 30.8164 116.837 30.9725 117.031 30.9617C117.225 30.9563 117.381 30.7894 117.37 30.5956C117.365 30.4018 117.198 30.2456 117.004 30.2564C116.811 30.2618 116.655 30.4287 116.665 30.6225Z" fill="#EB996E"/>
<path d="M106.633 29.2226C106.639 29.4164 106.806 29.5726 106.999 29.5618C107.193 29.5564 107.349 29.3895 107.338 29.1957C107.333 29.0019 107.166 28.8457 106.972 28.8565C106.779 28.8619 106.623 29.0288 106.633 29.2226Z" fill="#EB996E"/>
<path d="M104.717 30.2078C104.722 30.4017 104.889 30.5578 105.083 30.5471C105.277 30.5417 105.433 30.3748 105.422 30.1809C105.411 29.9871 105.25 29.8309 105.056 29.8417C104.862 29.8471 104.706 30.014 104.717 30.2078Z" fill="#EB996E"/>
<path d="M104.072 28.7541C104.077 28.948 104.244 29.1041 104.438 29.0933C104.631 29.0879 104.787 28.921 104.777 28.7272C104.771 28.5334 104.604 28.3772 104.411 28.388C104.217 28.3987 104.061 28.5603 104.072 28.7541Z" fill="#EB996E"/>
<path d="M118.334 32.1247C118.339 32.3185 118.506 32.4747 118.7 32.4639C118.893 32.4585 119.049 32.2916 119.038 32.0978C119.033 31.904 118.866 31.7478 118.673 31.7586C118.479 31.764 118.323 31.9309 118.334 32.1247Z" fill="#EB996E"/>
<path d="M119.607 30.6601C119.613 30.8539 119.779 31.0101 119.973 30.9993C120.167 30.9939 120.323 30.827 120.312 30.6332C120.307 30.4394 120.14 30.2832 119.946 30.294C119.752 30.2994 119.596 30.4663 119.607 30.6601Z" fill="#EB996E"/>
<path d="M114.309 8.57904C115.433 16.2248 121.351 22.9498 128.79 25.0336C126.531 28.5388 128.242 35.0053 128.36 40.4435C128.473 45.5048 128.521 46.9478 131.884 49.4138C134.611 49.9738 135.924 42.5057 137.866 40.3681C139.808 38.2306 141.647 35.6084 141.4 32.7332C141.287 31.3871 140.717 30.111 140.598 28.7649C140.469 27.2734 140.894 25.7928 141.109 24.3121C142.067 17.7486 138.452 10.8458 132.658 7.62601C126.87 4.40079 119.296 4.89077 113.782 8.56288" fill="#EE7C64"/>
<path d="M140.35 28.0542C140.35 28.0542 140.437 27.9626 140.582 27.7742C140.716 27.5803 140.894 27.2627 140.996 26.8158C141.227 25.9273 141.061 24.5436 140.313 23.0952C139.958 22.3683 139.398 21.6414 138.704 20.9899C138.021 20.3276 137.236 19.6707 136.327 19.1C135.423 18.5239 134.395 18.0339 133.276 17.6947C132.163 17.3555 130.985 17.1024 129.785 16.844C128.586 16.5855 127.413 16.3271 126.315 15.9825C125.213 15.6433 124.18 15.2287 123.228 14.7602C121.323 13.8287 119.747 12.7196 118.531 11.6804C117.31 10.6358 116.433 9.67204 115.858 8.98284C115.562 8.64363 115.352 8.36364 115.207 8.18057C115.062 7.99751 114.981 7.90059 114.976 7.90597C114.97 7.90597 115.04 8.01366 115.175 8.2075C115.309 8.40133 115.514 8.69209 115.793 9.04207C116.353 9.74742 117.219 10.7381 118.435 11.8042C119.65 12.8703 121.232 13.9957 123.147 14.9487C124.105 15.4225 125.148 15.8479 126.262 16.1925C127.37 16.5424 128.548 16.8009 129.748 17.0593C130.947 17.3178 132.12 17.5709 133.223 17.9047C134.325 18.2331 135.331 18.7123 136.224 19.2723C137.123 19.8323 137.903 20.473 138.581 21.1245C139.275 21.7652 139.813 22.4544 140.178 23.1706C140.931 24.5813 141.114 25.9327 140.915 26.7996C140.732 27.6826 140.313 28.0326 140.35 28.0542Z" fill="#935143"/>
<path d="M114.97 7.91138C114.97 7.91138 115.035 7.99753 115.18 8.14829C115.32 8.29905 115.535 8.51443 115.815 8.78903C116.38 9.33284 117.219 10.0974 118.338 10.9428C119.467 11.7666 120.871 12.7088 122.631 13.3442C123.513 13.6618 124.476 13.8449 125.465 14.0118C126.461 14.1787 127.499 14.2972 128.553 14.421C130.667 14.6633 132.69 14.9272 134.449 15.4548C136.203 15.9933 137.688 16.7848 138.763 17.6624C139.845 18.5347 140.528 19.4554 140.894 20.1392C141.071 20.4838 141.206 20.7584 141.276 20.9522C141.356 21.1407 141.399 21.243 141.405 21.2376C141.41 21.2376 141.383 21.1299 141.313 20.9361C141.254 20.7369 141.136 20.4569 140.969 20.1015C140.619 19.3962 139.947 18.4431 138.86 17.544C137.779 16.6394 136.278 15.821 134.503 15.2664C132.722 14.7172 130.689 14.448 128.575 14.2057C127.515 14.0818 126.482 13.9634 125.492 13.8018C124.503 13.6403 123.55 13.4626 122.69 13.1557C120.957 12.5419 119.553 11.6266 118.418 10.8189C117.294 9.99512 116.439 9.25208 115.863 8.7298C115.589 8.47673 115.368 8.27213 115.201 8.12137C115.051 7.98138 114.97 7.91138 114.965 7.91676L114.97 7.91138Z" fill="#935143"/>
<path d="M103.912 -0.132793C103.912 -0.0843336 104.74 -0.0843328 106.037 0.21719C106.359 0.292571 106.714 0.384102 107.08 0.513326C107.457 0.621013 107.839 0.793312 108.242 0.960227C109.038 1.32636 109.883 1.7948 110.701 2.39246C111.507 3.00089 112.207 3.67393 112.788 4.33082C113.062 4.67003 113.336 4.98771 113.552 5.31615C113.783 5.62844 113.971 5.94074 114.138 6.23149C114.8 7.38374 115.042 8.186 115.09 8.16446C115.106 8.16446 115.047 7.95986 114.923 7.60449C114.864 7.42681 114.789 7.20605 114.671 6.96914C114.558 6.72685 114.445 6.44148 114.273 6.15611C114.111 5.85997 113.928 5.53691 113.702 5.21385C113.492 4.87464 113.218 4.55158 112.944 4.20159C112.363 3.52855 111.658 2.83936 110.835 2.21478C110.007 1.60635 109.141 1.13253 108.328 0.771776C107.914 0.610246 107.521 0.44333 107.139 0.341027C106.763 0.211803 106.402 0.136421 106.074 0.0664251C105.746 -0.0143399 105.445 -0.0412598 105.181 -0.0789501C104.918 -0.122025 104.686 -0.132793 104.498 -0.132793C104.121 -0.143561 103.917 -0.143561 103.917 -0.132793H103.912Z" fill="#935143"/>
<path d="M98.3009 36.7822C98.3009 36.7822 98.2794 36.7499 98.2363 36.7014C98.1825 36.6422 98.1126 36.5668 98.0265 36.4699C97.8436 36.2707 97.5639 35.9746 97.2465 35.5653C96.9345 35.1561 96.5579 34.6339 96.3374 33.9393C96.2298 33.5947 96.1706 33.207 96.2083 32.7978C96.2513 32.394 96.3804 31.974 96.6064 31.5755C97.0367 30.7625 97.7683 30.0464 98.43 29.1688C99.0863 28.2857 99.6834 27.2627 100.141 26.1158C100.603 24.969 100.937 23.6983 101.066 22.3576C101.2 21.0115 101.098 19.6223 101.034 18.2116C100.969 16.8009 100.958 15.4118 101.27 14.1249C101.582 12.8435 102.217 11.6966 102.997 10.7759C103.783 9.84976 104.724 9.13903 105.692 8.67598C106.661 8.20216 107.661 7.97601 108.576 7.9114C110.421 7.77679 111.895 8.26677 112.82 8.69752C113.288 8.91827 113.632 9.12826 113.858 9.27902C113.96 9.34902 114.047 9.40286 114.116 9.45132C114.176 9.48901 114.208 9.50517 114.208 9.50517C114.208 9.50517 113.788 9.10134 112.858 8.62214C111.932 8.15908 110.448 7.64219 108.565 7.75526C107.634 7.81449 106.607 8.03524 105.612 8.51445C104.616 8.98827 103.648 9.70438 102.841 10.6466C102.034 11.5889 101.378 12.7573 101.055 14.0765C100.727 15.3956 100.738 16.8063 100.808 18.2224C100.872 19.6385 100.98 21.0169 100.845 22.3414C100.722 23.6606 100.393 24.9097 99.947 26.0405C99.5005 27.1766 98.9141 28.1834 98.274 29.0611C97.6338 29.9279 96.9022 30.6656 96.4611 31.5056C96.2352 31.9202 96.1007 32.3617 96.063 32.7924C96.0308 33.2232 96.0953 33.627 96.2137 33.9823C96.4504 34.6985 96.8484 35.2207 97.1712 35.6246C97.5047 36.0284 97.7898 36.3138 97.9835 36.5022C98.0749 36.5884 98.1503 36.6584 98.2094 36.7176C98.2632 36.766 98.2901 36.7876 98.2901 36.7822H98.3009Z" fill="#935143"/>
<path d="M139.862 28.6141C139.862 28.6141 139.899 28.5979 139.964 28.5656C140.039 28.5226 140.136 28.4687 140.254 28.3987C140.502 28.2426 140.868 28.0057 141.287 27.6341C142.121 26.9073 143.245 25.6527 143.885 23.7359C144.542 21.8514 144.536 19.2615 143.288 16.8924C142.68 15.7132 141.75 14.6202 140.561 13.7856C139.383 12.9457 137.984 12.3534 136.51 11.9657C135.036 11.5781 133.546 11.4004 132.121 11.3142C130.69 11.2281 129.313 11.2119 128 11.1635C126.687 11.115 125.445 11.0396 124.294 10.8727C123.142 10.7166 122.088 10.4527 121.152 10.1297C119.28 9.48354 117.94 8.54667 117.144 7.78748C116.752 7.39981 116.466 7.07136 116.289 6.84522C116.208 6.73754 116.138 6.65139 116.084 6.58139C116.036 6.52216 116.015 6.49524 116.009 6.49524C116.009 6.49524 116.3 7.04983 117.08 7.85209C117.865 8.63821 119.21 9.61277 121.098 10.2804C122.04 10.6143 123.105 10.8889 124.267 11.0558C125.429 11.2281 126.677 11.3142 127.989 11.3681C130.609 11.4865 133.525 11.4111 136.451 12.1811C137.904 12.5634 139.275 13.1449 140.432 13.9633C141.594 14.7763 142.498 15.8371 143.1 16.9893C144.327 19.2992 144.353 21.8352 143.724 23.6874C143.111 25.5773 142.024 26.8319 141.217 27.5695C140.808 27.9464 140.459 28.1941 140.217 28.361C140.104 28.4364 140.012 28.4956 139.942 28.5441C139.883 28.5872 139.851 28.6087 139.851 28.6141H139.862Z" fill="#935143"/>
<path d="M104.735 26.3957C104.886 26.5572 105.832 25.8842 107.161 25.9165C108.485 25.9273 109.447 26.6272 109.593 26.4711C109.663 26.4011 109.517 26.1049 109.098 25.7873C108.689 25.4696 107.979 25.1573 107.156 25.1465C106.327 25.1358 105.628 25.4265 105.225 25.728C104.81 26.0349 104.665 26.3203 104.74 26.3957H104.735Z" fill="#263238"/>
<path d="M118.29 26.6165C118.441 26.7781 119.387 26.105 120.716 26.1373C122.039 26.1481 123.002 26.848 123.148 26.6919C123.218 26.6219 123.072 26.3258 122.653 26.0081C122.244 25.6904 121.534 25.3781 120.711 25.3674C119.882 25.3566 119.183 25.6473 118.774 25.9489C118.36 26.2558 118.215 26.5411 118.29 26.6165Z" fill="#263238"/>
<path d="M113.282 34.6338C113.288 34.5584 112.47 34.4023 111.136 34.203C110.797 34.16 110.48 34.09 110.426 33.8531C110.351 33.6054 110.501 33.2446 110.673 32.8516C111.007 32.0385 111.357 31.1824 111.728 30.2886C113.191 26.638 114.262 23.6336 114.111 23.5797C113.966 23.5205 112.658 26.4334 111.195 30.084C110.84 30.9832 110.507 31.8447 110.184 32.6631C110.049 33.0454 109.818 33.4761 109.979 33.993C110.066 34.2461 110.313 34.4346 110.528 34.4992C110.743 34.5692 110.937 34.5746 111.104 34.5907C112.449 34.6876 113.282 34.7145 113.288 34.6392L113.282 34.6338Z" fill="#263238"/>
<path d="M113.777 37.8428C114.266 37.2183 115.111 36.8898 115.939 36.9975C116.515 37.0729 117.09 37.3583 117.429 37.8375C117.768 38.3113 117.827 38.9789 117.505 39.4205C117.139 39.9158 116.386 40.0181 115.756 39.8243C115.127 39.6304 114.589 39.2051 114.078 38.7797C113.938 38.6613 113.793 38.5374 113.707 38.3813C113.621 38.2197 113.604 38.0151 113.717 37.8859" fill="#EB996E"/>
<path d="M117.167 35.6299C116.952 35.6137 116.92 37.0567 115.667 38.0528C114.413 39.0543 112.885 38.8605 112.869 39.0651C112.848 39.1566 113.208 39.3504 113.854 39.3827C114.488 39.4151 115.419 39.232 116.188 38.6182C116.952 38.0044 117.291 37.1752 117.356 36.5829C117.42 35.9798 117.27 35.6191 117.173 35.6299H117.167Z" fill="#263238"/>
<path d="M105.956 125.742L91.2374 130.755L90.0485 134.443C90.0485 134.443 48.9764 119.642 46.0607 118.086C43.1451 116.529 28.1364 113.078 23.1765 125.435C19.0075 135.827 27.2918 146.24 40.5038 152.077C53.7157 157.913 79.3649 160.439 79.3649 160.439L96.2403 163.362L133.568 163.847C144.602 163.992 155.124 159.216 162.311 150.833C168.196 143.973 174.275 136.198 175.426 132.144C177.669 124.267 175.636 114.058 163.903 113.073C152.17 112.087 133.143 125.505 133.143 125.505L125.919 123.524L105.956 125.737V125.742Z" fill="#263238"/>
<path d="M104.805 149.713C104.805 149.713 104.821 149.622 104.864 149.46C104.902 149.299 104.918 149.029 104.778 148.728C104.498 148.109 103.568 147.554 102.32 147.236H102.314C99.7805 146.208 95.9665 144.609 91.4478 142.363C86.9236 140.14 81.6948 137.302 76.0948 134.287C72.0441 132.117 68.1816 130.055 64.6043 128.321C61.0269 126.587 57.767 125.091 54.9643 123.992C54.265 123.712 53.6033 123.432 52.9739 123.195C52.3391 122.964 51.7366 122.743 51.1772 122.538C50.6177 122.334 50.0959 122.14 49.6118 121.968C49.1276 121.811 48.6811 121.666 48.283 121.537C47.4976 121.278 46.879 121.079 46.4433 120.934C46.2442 120.864 46.0882 120.81 45.9645 120.772C45.8569 120.735 45.8031 120.713 45.8031 120.708C45.8031 120.702 45.8623 120.718 45.9699 120.745C46.0936 120.783 46.255 120.826 46.454 120.88C46.8951 121.009 47.5191 121.198 48.3153 121.435C48.7188 121.558 49.1653 121.693 49.6548 121.844C50.1389 122.016 50.6661 122.199 51.231 122.393C51.7958 122.592 52.3983 122.802 53.0385 123.028C53.6732 123.265 54.3403 123.534 55.0396 123.809C57.8531 124.891 61.1292 126.367 64.7173 128.09C68.3107 129.818 72.1786 131.869 76.2293 134.045C81.8293 137.06 87.0474 139.908 91.5553 142.154C96.0526 144.415 99.8451 146.052 102.363 147.118H102.352C103.621 147.462 104.563 148.044 104.843 148.706C104.982 149.029 104.95 149.309 104.902 149.476C104.848 149.643 104.816 149.724 104.81 149.724L104.805 149.713Z" fill="#455A64"/>
<path d="M159.744 115.663C159.744 115.663 159.691 115.679 159.578 115.695C159.454 115.711 159.293 115.733 159.088 115.76C158.658 115.813 158.023 115.851 157.227 116.066C155.624 116.406 153.359 117.213 150.847 118.732C149.583 119.475 148.265 120.406 146.925 121.488C145.58 122.571 144.214 123.814 142.88 125.225C140.249 128.1 137.21 131.132 133.853 134.12C132.169 135.612 130.475 137.017 128.759 138.271C127.037 139.51 125.3 140.646 123.433 141.303C121.561 141.911 119.705 142.127 118 142.396C116.289 142.649 114.702 142.94 113.314 143.397C111.926 143.86 110.711 144.42 109.764 145.088C108.806 145.745 108.134 146.515 107.757 147.236C107.37 147.958 107.273 148.599 107.225 149.024C107.209 149.239 107.214 149.406 107.209 149.514C107.209 149.627 107.198 149.681 107.193 149.681C107.193 149.681 107.182 149.627 107.176 149.514C107.176 149.401 107.16 149.234 107.166 149.019C107.198 148.588 107.279 147.931 107.661 147.183C108.032 146.439 108.71 145.632 109.672 144.959C110.63 144.264 111.857 143.688 113.25 143.209C114.654 142.73 116.252 142.428 117.962 142.164C119.668 141.89 121.513 141.658 123.347 141.055C125.16 140.409 126.887 139.278 128.592 138.045C130.297 136.796 131.981 135.396 133.665 133.905C137.016 130.916 140.056 127.901 142.692 125.042C144.042 123.631 145.424 122.388 146.78 121.305C148.136 120.223 149.47 119.297 150.75 118.559C153.294 117.052 155.591 116.266 157.211 115.959C158.012 115.76 158.658 115.738 159.094 115.7C159.298 115.684 159.459 115.673 159.588 115.663C159.701 115.657 159.755 115.657 159.755 115.663H159.744Z" fill="#455A64"/>
<path d="M108.709 145.282C108.709 145.282 108.607 145.045 108.467 144.593C108.387 144.366 108.344 144.081 108.274 143.753C108.198 143.424 108.15 143.047 108.102 142.627C107.994 141.787 107.967 140.78 107.978 139.666C108.021 138.551 108.085 137.324 108.274 136.053C108.618 133.501 109.237 131.234 109.882 129.673C110.06 129.29 110.205 128.935 110.366 128.639C110.539 128.348 110.668 128.09 110.807 127.896C111.093 127.513 111.259 127.314 111.27 127.325C111.286 127.336 111.152 127.562 110.899 127.95C110.781 128.149 110.662 128.413 110.506 128.703C110.361 129 110.232 129.355 110.065 129.737C109.479 131.299 108.892 133.549 108.553 136.08C108.371 137.345 108.295 138.557 108.236 139.666C108.215 140.77 108.22 141.771 108.301 142.6C108.43 144.269 108.769 145.26 108.715 145.276L108.709 145.282Z" fill="#455A64"/>
<path d="M104.806 149.713C104.806 149.713 132.602 156.74 133.72 157.106C135.399 157.655 135.259 163.761 132.666 163.729C131.44 163.713 111.466 164.956 108.937 164.854C106.409 164.752 99.5502 162.221 99.5502 162.221L103.735 152.271L104.811 149.713H104.806Z" fill="#7FC8F2"/>
<path d="M116.554 159.997C116.694 160.013 116.844 158.549 117.705 157.004C118.539 155.448 119.69 154.521 119.599 154.414C119.55 154.306 118.195 155.119 117.296 156.783C116.382 158.436 116.435 160.013 116.554 160.003V159.997Z" fill="#263238"/>
<path d="M113.645 158.759C113.78 158.78 114.033 157.467 114.732 156.008C115.42 154.538 116.281 153.515 116.179 153.423C116.098 153.332 115.044 154.263 114.312 155.808C113.575 157.348 113.522 158.759 113.64 158.759H113.645Z" fill="#263238"/>
<path d="M110.922 158.097C111.062 158.086 110.922 156.707 111.503 155.162C112.057 153.606 113.047 152.642 112.95 152.54C112.891 152.438 111.675 153.321 111.067 155.001C110.449 156.675 110.809 158.14 110.922 158.097Z" fill="#263238"/>
<path d="M111.332 154.511C111.38 154.521 111.606 153.746 111.579 152.448C111.563 151.802 111.472 151.032 111.246 150.198C111.133 149.783 110.988 149.352 110.805 148.922C110.708 148.706 110.6 148.453 110.347 148.254C110.084 148.028 109.616 148.087 109.401 148.324C109.153 148.55 109.078 148.862 109.051 149.116C109.029 149.369 109.019 149.606 109.029 149.848C109.046 150.322 109.121 150.779 109.228 151.199C109.454 152.039 109.799 152.739 110.127 153.294C110.794 154.403 111.369 154.963 111.407 154.931C111.472 154.888 110.993 154.252 110.417 153.138C110.132 152.578 109.836 151.894 109.648 151.097C109.551 150.699 109.497 150.279 109.487 149.837C109.487 149.412 109.47 148.879 109.713 148.669C109.842 148.556 109.96 148.545 110.078 148.631C110.202 148.722 110.31 148.911 110.39 149.105C110.573 149.514 110.719 149.918 110.837 150.316C111.074 151.108 111.192 151.845 111.251 152.465C111.359 153.714 111.251 154.5 111.326 154.511H111.332Z" fill="#263238"/>
<path d="M111.294 154.231C111.305 154.182 110.633 153.967 109.508 153.983C108.949 153.994 108.277 154.069 107.556 154.268C107.201 154.371 106.819 154.473 106.437 154.71C106.06 154.909 105.678 155.448 105.84 155.986C105.969 156.498 106.415 156.848 106.856 156.95C107.298 157.063 107.722 157.009 108.094 156.917C108.847 156.724 109.428 156.341 109.869 155.991C110.74 155.275 111.16 154.737 111.122 154.699C111.074 154.64 110.557 155.108 109.675 155.728C109.229 156.029 108.669 156.352 107.997 156.498C107.663 156.568 107.303 156.6 106.969 156.508C106.641 156.428 106.367 156.185 106.281 155.868C106.195 155.561 106.378 155.275 106.673 155.087C106.964 154.898 107.33 154.78 107.669 154.672C108.347 154.462 108.987 154.355 109.525 154.306C110.606 154.204 111.284 154.306 111.294 154.225V154.231Z" fill="#263238"/>
<path d="M120.805 160.196C120.94 160.18 120.779 159.001 121.295 157.693C121.784 156.374 122.688 155.604 122.597 155.496C122.548 155.383 121.408 156.067 120.859 157.526C120.294 158.98 120.692 160.25 120.805 160.196Z" fill="#263238"/>
<path d="M101.556 161.914C101.545 161.946 101.927 162.113 102.637 162.393C103.353 162.646 104.402 162.996 105.731 163.276C108.388 163.885 112.164 164.175 116.301 164.035C120.438 163.895 124.166 163.621 126.866 163.454C128.147 163.357 129.217 163.276 130.062 163.212C130.815 163.142 131.234 163.093 131.229 163.061C131.229 163.029 130.81 163.023 130.051 163.034C129.201 163.061 128.131 163.093 126.845 163.131C124.048 163.249 120.363 163.406 116.28 163.578C112.159 163.712 108.431 163.476 105.79 162.959C103.138 162.474 101.578 161.828 101.551 161.919L101.556 161.914Z" fill="#263238"/>
<path d="M100.756 162.56C100.794 162.625 101.542 162.162 102.806 161.575C104.054 161.004 105.931 160.315 108.013 160.584C110.1 160.853 111.612 162.221 112.591 163.174C113.581 164.159 114.167 164.816 114.221 164.768C114.264 164.73 113.774 164.009 112.828 162.948C112.349 162.426 111.746 161.817 110.956 161.273C110.176 160.73 109.18 160.272 108.072 160.127C105.84 159.836 103.892 160.627 102.655 161.279C101.402 161.957 100.724 162.512 100.751 162.56H100.756Z" fill="#263238"/>
<path d="M128.491 163.126C128.539 163.093 128.297 162.732 128.066 162.092C127.829 161.456 127.641 160.514 127.802 159.497C127.969 158.479 128.443 157.644 128.868 157.117C129.287 156.584 129.631 156.314 129.599 156.266C129.578 156.228 129.169 156.422 128.668 156.939C128.174 157.45 127.614 158.333 127.437 159.432C127.259 160.536 127.512 161.548 127.824 162.189C128.136 162.84 128.464 163.147 128.496 163.12L128.491 163.126Z" fill="#263238"/>
<path d="M170.191 138.444C170.191 138.444 170.116 138.578 169.943 138.821C169.755 139.079 169.508 139.429 169.196 139.865C168.862 140.312 168.48 140.877 167.985 141.497C167.474 142.11 166.899 142.805 166.264 143.57C165.624 144.334 164.849 145.109 164.053 145.971C163.246 146.822 162.305 147.656 161.358 148.577C159.362 150.3 157.124 152.163 154.558 153.816C152.003 155.48 149.453 156.88 147.043 157.967C144.628 159.028 142.39 159.846 140.464 160.374C139.506 160.649 138.619 160.837 137.85 161.02C137.07 161.155 136.397 161.289 135.848 161.37C135.316 161.429 134.891 161.472 134.573 161.505C134.283 161.532 134.127 161.542 134.127 161.532C134.127 161.521 134.278 161.494 134.568 161.446C134.885 161.397 135.305 161.338 135.838 161.257C136.386 161.16 137.048 161.015 137.823 160.864C138.587 160.67 139.463 160.466 140.416 160.18C142.325 159.631 144.547 158.796 146.946 157.725C149.335 156.632 151.868 155.232 154.413 153.579C156.963 151.937 159.195 150.09 161.196 148.383C162.143 147.473 163.085 146.649 163.897 145.804C164.693 144.948 165.478 144.189 166.124 143.435C166.77 142.681 167.35 141.997 167.872 141.394C168.373 140.786 168.771 140.231 169.115 139.795C169.443 139.37 169.707 139.036 169.906 138.783C170.089 138.551 170.191 138.433 170.196 138.438L170.191 138.444Z" fill="#455A64"/>
<path d="M99.237 146.299C99.1994 146.321 98.7583 145.626 97.9782 144.56C97.1982 143.489 96.0524 142.067 94.6268 140.64C93.2013 139.214 91.7757 138.067 90.7052 137.291C89.6347 136.511 88.9408 136.075 88.9677 136.037C88.9784 136.021 89.1613 136.112 89.4841 136.295C89.8122 136.473 90.2695 136.758 90.8182 137.13C91.921 137.873 93.3842 139.009 94.8259 140.447C96.2622 141.89 97.3973 143.349 98.1396 144.453C98.5108 145.007 98.7959 145.465 98.9734 145.788C99.1563 146.111 99.2478 146.294 99.2316 146.305L99.237 146.299Z" fill="#455A64"/>
<path d="M132.811 130.895C132.838 130.933 132.203 131.336 131.245 132.069C130.293 132.801 129.034 133.899 127.829 135.283C126.624 136.672 125.71 138.067 125.118 139.111C124.521 140.156 124.214 140.84 124.171 140.824C124.155 140.818 124.214 140.641 124.338 140.323C124.462 140.005 124.666 139.558 124.941 139.02C125.495 137.938 126.393 136.505 127.614 135.1C128.835 133.7 130.132 132.612 131.127 131.913C131.622 131.563 132.036 131.299 132.337 131.132C132.633 130.965 132.8 130.879 132.811 130.895Z" fill="#455A64"/>
<path d="M139.847 122.366C147.346 116.363 161.445 113.498 161.445 113.498C161.445 113.498 160.655 86.1027 158.514 73.5141C158.46 73.2072 158.406 72.9057 158.347 72.6149C156.416 62.9123 147.825 57.0596 138.029 55.6973L131.39 54.7766L111.788 55.4873L99.8238 59.111C99.8238 59.111 85.692 62.2985 83.508 82.1829C81.3616 101.68 78.8278 117.789 79.2205 123.529C79.5003 127.578 83.239 130.464 85.3101 130.938C87.1875 131.369 89.5706 131.767 91.5987 130.545C90.8832 131.853 90.399 133.135 90.2807 134.309H102.245L111.621 126.054L120.19 132.203L131.67 127.347L139.551 121.957M98.947 121.564C98.947 121.564 98.9577 121.515 98.9631 121.489C100.297 114.887 100.464 112.944 100.464 112.944C100.464 112.944 93.4169 112.055 94.5466 102.67L95.644 94.5453L102.675 118.204C102.675 118.204 101.034 119.55 98.947 121.569V121.564Z" fill="#F887C2"/>
<g opacity="0.2">
<path d="M123.828 112.47L126.023 106.929C123.597 105.895 122.736 105.858 120.117 105.54C113.139 104.695 105.866 106.595 100.186 110.741L101.633 114.909H101.617C101.617 114.909 101.633 114.92 101.638 114.925C101.654 114.93 101.67 114.936 101.687 114.941C102.585 115.237 104.097 115.189 104.99 114.979C105.909 114.758 106.867 114.51 107.781 114.742C108.981 115.043 109.836 116.077 110.918 116.686C113.086 117.908 116.173 117.019 117.362 114.833C117.857 113.918 118.32 112.647 119.358 112.669C119.869 112.68 120.299 113.035 120.681 113.374C121.924 114.462 123.161 115.555 124.404 116.643C125.894 117.951 127.39 119.265 128.987 120.444C130.859 121.828 133.022 123.071 135.351 122.996C137.68 122.926 137.783 120.692 137.783 120.692L123.823 112.475L123.828 112.47Z" fill="black"/>
</g>
<path d="M110.889 54.8359L110.545 60.484C110.426 62.4331 110.727 64.3877 111.427 66.2129L118.323 84.1912C118.323 84.1912 117.263 73.6972 121.691 69.8258C126.118 65.9491 131.67 66.3422 131.745 60.3602C131.756 59.3641 131.723 52.8383 131.723 52.8383L122.202 50.9484L110.889 54.8359Z" fill="#FFBE9D"/>
<path d="M145.861 57.5915C145.861 57.5915 145.743 57.6669 145.501 57.7907C145.253 57.8984 144.914 58.1084 144.489 58.3776C143.645 58.9376 142.531 59.9498 141.557 61.4844C140.6 63.0189 139.793 65.0972 139.659 67.4987C139.594 68.6886 139.739 69.9593 139.836 71.2677C139.96 72.5761 140.089 73.9329 140.218 75.3275C140.783 80.8841 141.385 85.9077 141.864 89.5367C142.101 91.3513 142.311 92.8158 142.461 93.8281C142.531 94.3126 142.59 94.7003 142.633 94.9965C142.671 95.2657 142.687 95.4057 142.682 95.4057C142.671 95.4057 142.639 95.2711 142.58 95.0072C142.52 94.7434 142.45 94.3503 142.354 93.8496C142.171 92.8427 141.929 91.3782 141.665 89.5637C141.138 85.94 140.503 80.9164 139.938 75.3544C139.798 73.9652 139.669 72.6084 139.562 71.2946C139.465 69.9808 139.325 68.7101 139.4 67.4825C139.556 65.0326 140.395 62.9274 141.391 61.3767C142.402 59.826 143.553 58.8245 144.43 58.2861C144.877 58.0222 145.226 57.8338 145.479 57.7369C145.727 57.6292 145.861 57.5807 145.861 57.5861V57.5915Z" fill="#AB497C"/>
<path d="M140.081 121.553C140.081 121.553 140.043 121.542 139.973 121.515C139.893 121.477 139.79 121.434 139.667 121.38C139.398 121.262 139 121.084 138.499 120.831C137.488 120.341 136.046 119.571 134.266 118.586C130.699 116.61 129.313 115.948 123.761 112.588L123.659 112.529L123.708 112.416C124.353 110.871 125.02 109.266 125.703 107.624C126.381 105.976 127.032 104.361 127.64 102.789C127.941 102.003 128.237 101.227 128.506 100.468C128.641 100.086 128.77 99.7089 128.888 99.332C128.947 99.1435 129.001 98.9551 129.049 98.772C129.071 98.6805 129.092 98.5836 129.109 98.4974C129.114 98.4543 129.119 98.4113 129.119 98.3682C129.119 98.3467 129.119 98.3359 129.119 98.3197C129.119 98.3197 129.146 98.3574 129.168 98.352L129.265 98.1097C131.669 99.1812 133.81 100.344 135.709 101.389C137.608 102.439 139.276 103.376 140.669 104.119C142.062 104.867 143.181 105.432 143.956 105.809C144.327 105.992 144.623 106.132 144.838 106.24C145.037 106.337 145.139 106.396 145.139 106.402C145.139 106.407 145.026 106.369 144.822 106.283C144.618 106.197 144.311 106.068 143.918 105.89C143.133 105.535 142.003 104.991 140.594 104.264C139.184 103.537 137.511 102.616 135.602 101.583C133.692 100.554 131.551 99.402 129.157 98.352L129.254 98.1097C129.291 98.1259 129.34 98.169 129.351 98.1959C129.361 98.2174 129.372 98.2444 129.378 98.2713C129.378 98.3036 129.388 98.3413 129.383 98.3682C129.383 98.4274 129.378 98.4813 129.367 98.5297C129.351 98.632 129.329 98.729 129.308 98.8313C129.259 99.0251 129.205 99.2189 129.146 99.4074C129.028 99.7897 128.899 100.172 128.764 100.554C128.495 101.324 128.205 102.1 127.898 102.886C127.29 104.463 126.639 106.079 125.967 107.726C125.278 109.368 124.611 110.973 123.966 112.518L123.912 112.346C129.453 115.717 130.823 116.411 134.363 118.424C136.132 119.431 137.558 120.223 138.553 120.74C139.048 121.009 139.435 121.197 139.699 121.332C139.817 121.396 139.914 121.445 139.995 121.488C140.059 121.526 140.092 121.542 140.092 121.547L140.081 121.553Z" fill="#AB497C"/>
<path d="M95.1391 94.3609C95.1391 94.3609 95.053 94.0863 94.9455 93.5856C94.8379 93.0848 94.7034 92.3526 94.5635 91.4426C94.2784 89.6281 94.0041 87.0975 93.9234 84.2922C93.8427 81.487 93.9772 78.9456 94.1601 77.1149C94.2461 76.1996 94.3376 75.4619 94.4183 74.9558C94.4936 74.4497 94.5474 74.1697 94.5635 74.1697C94.585 74.1697 94.5635 74.4551 94.5259 74.9666C94.4774 75.4781 94.4183 76.2157 94.3591 77.1311C94.23 78.9564 94.1278 81.487 94.2085 84.2815C94.2892 87.0759 94.5366 89.5958 94.7679 91.4103C94.8809 92.3203 94.9831 93.0525 95.0584 93.5641C95.1284 94.0702 95.1606 94.3556 95.1445 94.3556L95.1391 94.3609Z" fill="#AB497C"/>
<path d="M93.9826 98.8726C93.9826 98.8726 93.8159 99.1256 93.477 99.551C93.1004 100.009 92.6163 100.612 92.0245 101.333C90.7604 102.868 89.0766 104.925 87.2099 107.191C85.354 109.469 83.6756 111.531 82.4222 113.071C81.8305 113.793 81.3409 114.39 80.9644 114.848C80.6147 115.262 80.4157 115.489 80.3995 115.478C80.3834 115.467 80.5555 115.219 80.8783 114.783C81.2011 114.347 81.6745 113.717 82.2662 112.953C83.4497 111.413 85.1173 109.313 86.9947 107.014C88.8722 104.72 90.6044 102.674 91.8739 101.204C92.5087 100.472 93.0305 99.8795 93.3963 99.481C93.7621 99.0772 93.9719 98.8618 93.9826 98.8726Z" fill="#AB497C"/>
<path d="M99.3886 116.302C99.3886 116.302 99.3994 116.544 99.3617 116.98C99.3456 117.201 99.3241 117.465 99.2703 117.772C99.2165 118.079 99.1788 118.429 99.0766 118.811C98.9152 119.581 98.6462 120.475 98.2697 121.438C97.877 122.397 97.3713 123.425 96.7365 124.438C96.0856 125.444 95.3702 126.333 94.6601 127.092C93.9392 127.84 93.2399 128.46 92.6159 128.928C92.3146 129.176 92.008 129.364 91.7552 129.537C91.5023 129.714 91.271 129.849 91.0774 129.957C90.6954 130.172 90.4802 130.28 90.4749 130.263C90.448 130.215 91.2925 129.747 92.4975 128.772C93.1054 128.293 93.7778 127.663 94.4772 126.914C95.1604 126.155 95.8651 125.278 96.5052 124.287C97.1346 123.291 97.6403 122.284 98.0384 121.342C98.4203 120.394 98.7108 119.516 98.8883 118.762C99.2649 117.26 99.3348 116.291 99.3886 116.302Z" fill="#AB497C"/>
<path d="M132.584 53.9567C132.584 53.9567 132.659 54.0805 132.783 54.3282C132.901 54.5759 133.095 54.9366 133.299 55.4212C133.692 56.3904 134.208 57.828 134.52 59.6802C134.838 61.527 134.935 63.7885 134.574 66.2491C134.235 68.7097 133.364 71.3534 131.917 73.8356C131.653 74.2448 131.395 74.6594 131.126 75.0579C130.835 75.4402 130.556 75.8171 130.276 76.1832L130.206 76.2801L130.098 76.2155C127.974 74.9179 125.402 74.8802 123.449 75.6178C122.454 75.9678 121.631 76.5655 120.921 77.1739C120.222 77.7931 119.657 78.4608 119.253 79.1392C118.436 80.5014 118.226 81.7937 118.129 82.6605C118.048 83.5328 118.07 84.0228 118.038 84.0228C118.027 84.0228 118.022 83.9043 118.011 83.6728C117.995 83.4413 118 83.0967 118.027 82.6552C118.097 81.7829 118.28 80.4584 119.092 79.0477C119.496 78.3477 120.066 77.6531 120.776 77.0124C121.491 76.3878 122.331 75.7632 123.358 75.3917C125.37 74.6164 128.022 74.6379 130.238 75.984L130.061 76.0163C130.335 75.6555 130.61 75.284 130.895 74.9071C131.158 74.5141 131.411 74.1048 131.675 73.701C133.1 71.2565 133.966 68.6505 134.316 66.2222C134.687 63.7938 134.612 61.554 134.321 59.7179C134.036 57.8765 133.552 56.4442 133.192 55.4643C133.003 54.9797 132.826 54.6135 132.729 54.3551C132.621 54.102 132.573 53.9674 132.578 53.962L132.584 53.9567Z" fill="#AB497C"/>
<path d="M116.93 81.5946C116.93 81.5946 116.86 81.4923 116.758 81.2877C116.645 81.0561 116.494 80.76 116.311 80.3885C115.929 79.6077 115.397 78.4663 114.676 77.0933C113.95 75.731 113.024 74.1103 111.647 72.6081C110.937 71.8866 110.13 71.1705 109.146 70.6751C108.161 70.1852 107.053 69.8783 105.88 69.819C105.418 69.8083 104.955 69.846 104.525 69.8513H104.347L104.374 69.6898C104.719 67.4876 105.294 65.4577 105.886 63.6486C106.488 61.8448 107.123 60.2618 107.715 58.9642C108.312 57.6666 108.871 56.6651 109.302 55.9974C109.512 55.6582 109.695 55.4105 109.818 55.249C109.942 55.0821 110.012 55.0013 110.017 55.0067C110.039 55.0229 109.781 55.3729 109.388 56.0567C108.99 56.7351 108.457 57.7473 107.887 59.0504C107.317 60.348 106.704 61.931 106.123 63.7347C105.547 65.5385 104.982 67.5576 104.649 69.7383L104.498 69.5767C104.939 69.566 105.418 69.5337 105.891 69.5444C107.096 69.6037 108.253 69.9267 109.27 70.4382C110.286 70.9551 111.115 71.6982 111.836 72.4412C113.229 73.9865 114.143 75.6287 114.848 77.0125C115.547 78.407 116.053 79.5593 116.408 80.3562C116.569 80.7331 116.704 81.04 116.806 81.2769C116.892 81.4869 116.935 81.5999 116.93 81.6053V81.5946Z" fill="#AB497C"/>
<g opacity="0.2">
<path d="M118.317 83.8305C118.92 81.9406 119.667 81.2675 120.7 80.2822C121.733 79.2969 123.11 78.5807 124.536 78.6615C125.73 78.7261 126.849 79.3399 128.048 79.3615C129.442 79.3884 130.727 78.6184 131.782 77.7085C136.118 73.9556 137.522 67.2036 135.047 62.0293C135.289 67.139 133.589 72.3188 130.372 76.2924C127.866 74.8548 124.563 74.9302 122.126 76.4862C119.689 78.0423 118.161 81.0037 118.322 83.8251" fill="black"/>
</g>
<path d="M142.859 95.0515C142.859 95.0515 142.929 95.3154 143.004 95.7999C143.079 96.3384 143.176 97.0276 143.295 97.8514C143.526 99.5851 143.833 101.987 144.15 104.641C144.209 105.142 144.268 105.632 144.322 106.106L144.214 105.987C146.512 106.482 148.384 107.446 149.594 108.281C150.202 108.695 150.664 109.072 150.966 109.342C151.267 109.616 151.423 109.778 151.412 109.788C151.38 109.826 150.729 109.218 149.497 108.432C148.271 107.645 146.42 106.73 144.161 106.256L144.064 106.235L144.053 106.138C143.994 105.669 143.935 105.174 143.876 104.673C143.558 102.019 143.284 99.6174 143.106 97.8783C143.026 97.0491 142.956 96.3545 142.902 95.8161C142.859 95.3261 142.848 95.0569 142.864 95.0569L142.859 95.0515Z" fill="#AB497C"/>
<path d="M125.704 119.285C125.704 119.285 125.613 119.323 125.424 119.376C125.209 119.43 124.94 119.495 124.612 119.581C123.902 119.743 122.869 119.947 121.578 120.119C119.001 120.464 115.37 120.62 111.427 120.066C109.458 119.791 107.602 119.371 105.951 118.881C105.128 118.623 104.342 118.396 103.627 118.09C102.911 117.788 102.314 117.298 101.948 116.743C101.566 116.194 101.367 115.624 101.222 115.123C101.082 114.622 101.012 114.175 100.964 113.814C100.916 113.454 100.889 113.174 100.873 112.98C100.862 112.786 100.856 112.689 100.867 112.689C100.889 112.689 100.942 113.088 101.072 113.798C101.136 114.154 101.222 114.59 101.373 115.08C101.529 115.564 101.733 116.119 102.11 116.63C102.47 117.153 103.024 117.594 103.718 117.88C104.412 118.165 105.203 118.386 106.021 118.633C107.667 119.107 109.507 119.516 111.465 119.786C115.381 120.34 118.985 120.211 121.557 119.926C122.842 119.775 123.88 119.608 124.596 119.479C124.929 119.42 125.198 119.366 125.419 119.328C125.607 119.296 125.709 119.285 125.709 119.296L125.704 119.285Z" fill="#AB497C"/>
<path d="M114.471 120.146C114.488 120.195 114.1 120.303 113.557 120.62C113.014 120.932 112.341 121.498 111.825 122.305C111.314 123.113 111.082 123.964 111.023 124.588C110.964 125.213 111.023 125.606 110.975 125.617C110.948 125.622 110.813 125.235 110.824 124.578C110.83 123.926 111.045 123.011 111.588 122.155C112.131 121.304 112.874 120.728 113.466 120.448C114.057 120.163 114.466 120.125 114.471 120.152V120.146Z" fill="#AB497C"/>
<path d="M117.124 83.5385C117.124 83.5385 117.156 83.6677 117.189 83.91C117.221 84.1846 117.264 84.5453 117.313 84.9869C117.409 85.9237 117.538 87.286 117.657 88.9659C117.899 92.3311 118.076 96.9939 117.953 102.136C117.893 104.71 117.764 107.16 117.603 109.383C117.447 111.607 117.183 113.615 116.715 115.247C116.258 116.884 115.602 118.111 115.059 118.887C114.779 119.269 114.547 119.554 114.37 119.732C114.198 119.915 114.106 120.007 114.101 120.001C114.074 119.98 114.445 119.608 114.967 118.827C115.478 118.047 116.097 116.824 116.522 115.198C116.957 113.578 117.205 111.585 117.339 109.367C117.49 107.143 117.608 104.699 117.668 102.131C117.791 96.9939 117.646 92.3419 117.452 88.9766C117.361 87.2967 117.264 85.9345 117.2 84.9922C117.167 84.5453 117.146 84.1846 117.124 83.91C117.108 83.6623 117.108 83.5331 117.119 83.5331L117.124 83.5385Z" fill="#AB497C"/>
<path d="M93.0403 80.8261C93.0457 80.9015 91.0284 81.1276 88.5269 81.3215C86.0309 81.5207 83.9974 81.6176 83.992 81.5368C83.9867 81.4615 86.004 81.2353 88.5054 81.0415C91.0015 80.8423 93.0349 80.7453 93.0403 80.8261Z" fill="white"/>
<path d="M117.199 90.3563C117.199 90.3563 116.887 90.4316 116.322 90.5232C115.752 90.6201 114.924 90.7116 113.896 90.787C112.869 90.8678 111.642 90.9001 110.276 90.8732C108.915 90.8301 107.414 90.7224 105.854 90.507C104.294 90.2809 102.825 89.9686 101.507 89.6294C100.189 89.274 99.0165 88.9025 98.0535 88.5364C97.0906 88.1756 96.316 87.8526 95.7996 87.6049C95.2777 87.3626 94.9926 87.2172 95.0034 87.201C95.0088 87.1849 95.31 87.2926 95.8426 87.508C96.3752 87.7287 97.1498 88.0195 98.1235 88.3533C99.0918 88.6925 100.259 89.0425 101.572 89.3817C102.89 89.7048 104.348 90.0063 105.897 90.2324C107.446 90.4478 108.931 90.5663 110.286 90.6201C111.642 90.6632 112.863 90.6524 113.885 90.5932C114.907 90.5447 115.736 90.4801 116.311 90.4155C116.882 90.3617 117.199 90.3401 117.204 90.3563H117.199Z" fill="white"/>
<path d="M139.852 82.269C139.852 82.269 139.588 82.4575 139.083 82.7536C138.582 83.0551 137.835 83.4536 136.893 83.9166C135.952 84.3797 134.806 84.875 133.509 85.365C132.208 85.8442 130.755 86.3073 129.206 86.7003C127.651 87.0826 126.15 87.3572 124.779 87.5457C123.401 87.7234 122.159 87.8257 121.11 87.858C120.061 87.8957 119.216 87.8957 118.63 87.8634C118.044 87.8364 117.721 87.8149 117.721 87.7934C117.721 87.7718 118.044 87.761 118.63 87.7503C119.211 87.7503 120.061 87.718 121.099 87.6534C122.143 87.5941 123.375 87.4703 124.741 87.2818C126.102 87.0772 127.592 86.8026 129.136 86.4203C130.68 86.0327 132.122 85.575 133.423 85.112C134.714 84.6381 135.866 84.1643 136.812 83.7282C137.759 83.292 138.518 82.9205 139.034 82.6513C139.556 82.3821 139.846 82.2421 139.857 82.2636L139.852 82.269Z" fill="white"/>
<path d="M157.842 71.0911C157.842 71.0911 157.589 71.1396 157.127 71.1719C156.664 71.2042 156.002 71.2581 155.185 71.3496C153.549 71.5273 151.301 71.8934 148.88 72.5665C146.465 73.2503 144.35 74.1064 142.86 74.8063C142.113 75.1563 141.515 75.4525 141.107 75.6678C140.698 75.8778 140.466 75.9855 140.456 75.9694C140.445 75.9532 140.66 75.8132 141.053 75.5709C141.445 75.3286 142.032 75.0002 142.769 74.6287C144.243 73.8802 146.362 72.981 148.799 72.2972C151.236 71.6134 153.512 71.2796 155.163 71.1504C155.986 71.0858 156.659 71.0588 157.121 71.0588C157.584 71.0588 157.842 71.0696 157.842 71.0858V71.0911Z" fill="white"/>
<path d="M160.304 93.6677C160.304 93.6677 160.051 93.673 159.599 93.6354C159.148 93.5923 158.497 93.5384 157.69 93.49C156.076 93.3877 153.843 93.3338 151.385 93.5061C148.927 93.6784 146.721 94.0392 145.139 94.3676C144.349 94.5292 143.708 94.6745 143.267 94.7768C142.826 94.8791 142.579 94.9276 142.573 94.9061C142.573 94.8899 142.805 94.8038 143.24 94.6691C143.671 94.5292 144.306 94.3569 145.096 94.1738C146.673 93.7969 148.889 93.4038 151.363 93.2261C153.838 93.0538 156.087 93.14 157.7 93.2908C158.507 93.3661 159.158 93.4523 159.61 93.5277C160.057 93.603 160.304 93.6515 160.299 93.6677H160.304Z" fill="white"/>
<path d="M143.312 120.369C143.264 120.352 143.522 119.582 143.796 118.306C144.076 117.03 144.329 115.243 144.318 113.25C144.297 111.258 144.012 109.471 143.71 108.205C143.409 106.935 143.14 106.17 143.188 106.154C143.205 106.149 143.291 106.332 143.425 106.676C143.565 107.015 143.732 107.522 143.904 108.157C144.259 109.428 144.582 111.231 144.603 113.25C144.619 115.264 144.324 117.079 143.995 118.355C143.834 118.99 143.673 119.502 143.544 119.846C143.414 120.191 143.334 120.379 143.318 120.374L143.312 120.369Z" fill="white"/>
<path d="M91.5277 101.62C91.5277 101.663 90.9306 101.68 89.9784 101.75C89.0209 101.814 87.7029 101.949 86.2666 102.207C84.8303 102.466 83.5446 102.799 82.6247 103.069C81.7048 103.338 81.14 103.526 81.1239 103.489C81.1131 103.456 81.651 103.203 82.5656 102.88C83.4747 102.557 84.7657 102.191 86.2182 101.927C87.6707 101.669 89.0048 101.566 89.9677 101.55C90.936 101.534 91.5277 101.583 91.5277 101.62Z" fill="white"/>
<path d="M95.3 124.229C95.3 124.229 95.23 124.245 95.0955 124.245C94.9611 124.245 94.762 124.251 94.5092 124.224C93.9981 124.192 93.2665 124.084 92.3843 123.82C90.6414 123.314 88.2959 122.016 86.6821 119.679C85.0736 117.343 84.6971 114.683 84.8423 112.874C84.9069 111.958 85.0682 111.231 85.2189 110.741C85.2834 110.494 85.3641 110.311 85.4071 110.187C85.4556 110.063 85.4878 109.998 85.4932 109.998C85.5578 110.015 85.1167 111.075 85.036 112.879C84.9445 114.661 85.348 117.24 86.908 119.513C88.4788 121.779 90.7436 123.077 92.4381 123.621C94.1541 124.186 95.3 124.154 95.2946 124.218L95.3 124.229Z" fill="white"/>
<path d="M107.533 127.761C107.511 127.837 105.22 127.32 102.406 126.609C99.5927 125.898 97.328 125.258 97.3441 125.182C97.3656 125.107 99.6573 125.624 102.471 126.334C105.284 127.045 107.549 127.686 107.527 127.761H107.533Z" fill="white"/>
<path d="M136.265 122.452C136.265 122.452 136.028 122.603 135.571 122.835C135.119 123.066 134.452 123.378 133.624 123.745C131.961 124.477 129.616 125.387 126.959 126.184C124.296 126.975 121.837 127.497 120.046 127.794C119.148 127.944 118.421 128.047 117.916 128.101C117.41 128.154 117.13 128.181 117.13 128.16C117.13 128.138 117.405 128.084 117.9 127.993C118.4 127.907 119.121 127.772 120.008 127.6C121.784 127.255 124.231 126.706 126.878 125.914C129.525 125.123 131.87 124.245 133.548 123.562C134.388 123.222 135.065 122.937 135.528 122.738C135.996 122.538 136.254 122.436 136.265 122.452Z" fill="white"/>
<path d="M117.178 107.112C117.178 107.112 116.963 107.198 116.554 107.312C116.15 107.425 115.559 107.559 114.822 107.694C113.348 107.974 111.277 108.216 108.985 108.205C106.688 108.189 104.622 107.915 103.154 107.618C102.417 107.473 101.825 107.328 101.422 107.215C101.018 107.102 100.798 107.026 100.803 107.01C100.803 106.994 101.04 107.026 101.448 107.107C101.857 107.193 102.454 107.301 103.186 107.425C104.66 107.672 106.71 107.909 108.985 107.925C111.261 107.936 113.316 107.726 114.789 107.5C115.526 107.387 116.124 107.285 116.532 107.204C116.941 107.128 117.173 107.096 117.178 107.112Z" fill="white"/>
<path d="M125.635 107.198C125.646 107.231 125.28 107.414 124.645 107.618C124.016 107.823 123.112 108.028 122.101 108.103C121.09 108.178 120.164 108.103 119.513 107.995C118.857 107.888 118.47 107.758 118.475 107.726C118.491 107.64 120.094 107.979 122.085 107.823C124.075 107.688 125.614 107.118 125.641 107.204L125.635 107.198Z" fill="white"/>
<path d="M106.951 60.9147C106.951 60.9578 106.182 61.0439 104.95 61.2485C103.718 61.4531 102.023 61.8085 100.205 62.3685C98.3868 62.9338 96.7891 63.6015 95.654 64.1292C94.519 64.6568 93.8358 65.0229 93.8142 64.9853C93.8035 64.9691 93.9649 64.8614 94.2661 64.673C94.562 64.4845 95.0085 64.2368 95.568 63.9515C96.6869 63.3753 98.2846 62.6754 100.124 62.1046C101.964 61.5393 103.675 61.2108 104.923 61.0547C105.547 60.9739 106.053 60.9309 106.408 60.9147C106.757 60.8985 106.951 60.8985 106.956 60.9147H106.951Z" fill="white"/>
<path d="M110.584 63.0631C110.653 63.0793 110.336 64.5384 109.685 66.2614C109.04 67.9844 108.319 69.2928 108.254 69.2605C108.179 69.2228 108.787 67.8713 109.427 66.1645C110.072 64.4576 110.508 63.047 110.589 63.0685L110.584 63.0631Z" fill="white"/>
<path d="M127.479 67.0045C127.56 67.0206 127.194 68.8136 126.952 71.0535C126.704 73.288 126.667 75.1186 126.586 75.1186C126.548 75.1186 126.511 74.661 126.511 73.9179C126.511 73.1749 126.554 72.1465 126.677 71.0212C126.801 69.8958 126.984 68.8836 127.145 68.1567C127.307 67.4298 127.447 66.9937 127.484 66.9991L127.479 67.0045Z" fill="white"/>
<path d="M133.914 67.2036C133.833 67.2251 133.537 66.2775 132.913 65.2437C132.294 64.2045 131.595 63.4938 131.654 63.4346C131.697 63.3807 132.509 64.0161 133.155 65.0983C133.806 66.1752 133.989 67.1928 133.919 67.2036H133.914Z" fill="white"/>
<path d="M95.9362 102.196C96.2482 100.446 96.2267 98.6373 95.8824 96.8928C95.6726 95.8428 95.4789 94.7552 95.6296 93.6945C95.7802 92.6338 96.7108 91.4815 97.776 91.5246L99.7126 99.165L95.9362 102.196Z" fill="#FFBE9D"/>
<path d="M95.8922 84.062L102.724 111.075L116.076 109.675L110.938 82.8828C110.804 82.1774 110.169 81.6767 109.454 81.709L97.2316 82.2582C96.3171 82.3013 95.6716 83.1682 95.8922 84.0566V84.062Z" fill="#263238"/>
<path d="M111.25 90.4909C111.25 90.4909 111.148 90.2109 111.014 89.6994C110.874 89.134 110.691 88.3964 110.465 87.5134C110.239 86.5711 109.981 85.4727 109.69 84.2612C109.653 84.1105 109.626 83.9436 109.572 83.8197C109.518 83.6905 109.432 83.572 109.319 83.4859C109.212 83.3943 109.077 83.3351 108.932 83.3082C108.797 83.2813 108.631 83.3082 108.453 83.3082C107.77 83.3351 107.065 83.362 106.339 83.389C103.439 83.4967 100.814 83.5828 98.9153 83.6313C98.0061 83.6474 97.2476 83.6636 96.6666 83.6743C96.1341 83.6743 95.8382 83.6743 95.8382 83.6528C95.8382 83.6313 96.1287 83.6043 96.6613 83.5666C97.2422 83.5343 98.0007 83.4913 98.9099 83.4374C100.809 83.3405 103.429 83.222 106.328 83.1144C107.054 83.0874 107.759 83.0605 108.442 83.039C108.609 83.039 108.781 83.0121 108.98 83.0497C109.168 83.0821 109.346 83.1682 109.486 83.2867C109.631 83.4051 109.744 83.5613 109.814 83.7282C109.884 83.9059 109.9 84.0566 109.938 84.2128C110.207 85.4296 110.449 86.528 110.653 87.4757C110.841 88.3695 110.992 89.1125 111.11 89.6833C111.213 90.2055 111.261 90.4963 111.24 90.5017L111.25 90.4909Z" fill="#455A64"/>
<path d="M103.838 84.8534C103.699 84.6165 103.419 84.3366 103.021 84.4927C102.865 84.5196 102.569 84.7673 102.569 85.0473C102.569 85.3219 102.725 85.5911 102.967 85.7149C103.209 85.8388 103.526 85.7957 103.725 85.6072C103.924 85.4188 103.973 85.0957 103.838 84.8588V84.8534Z" fill="#FAFAFA"/>
<path d="M103.827 93.0969C103.52 93.1884 96.5971 97.1567 96.5971 97.1567L93.0682 101.216C93.0682 101.216 91.8363 103.532 93.0682 107.005C94.3001 110.478 96.1237 111.641 100.239 112.47L107.883 110.919L113.263 107.565L111.676 101.475L106.388 105.712L103.391 106.24L102.896 105.271L107.216 102.783L113.973 97.0651L111.859 94.7714L105.597 98.8312L100.244 101.48L101.008 99.2727L107.216 94.2437C107.216 94.2437 107.625 91.95 103.832 93.0969H103.827Z" fill="#FFBE9D"/>
<path d="M104.339 89.3278C104.339 89.3278 105.775 88.4178 108.277 89.3278C110.773 90.2377 113.963 91.6377 113.963 91.6377L118.718 92.7737L118.11 91.6377C118.11 91.6377 113.495 92.3107 113.57 88.924H116.373L118.718 87.5833L123.64 91.9769L125.835 97.5066L128.864 99.8165L125.173 109.255L117.357 107.963L110.697 108.647L107.212 106.073L106.69 102.627L103.247 99.4072C103.247 99.4072 102.757 97.7381 104.269 97.512C105.781 97.2858 109.605 100.764 109.605 100.764L113.28 100.694C113.28 100.694 113.887 100.086 113.355 99.7842C112.828 99.4826 101.773 94.6313 101.246 93.4576C100.719 92.2838 100.186 91.5246 101.246 91.1477C102.305 90.7708 104.124 91.2984 104.124 91.2984C104.124 91.2984 103.548 89.6239 104.35 89.3278H104.339Z" fill="#FFBE9D"/>
<path d="M113.575 95.5844C113.543 95.6544 111.343 94.7444 108.658 93.5437C105.974 92.3484 103.822 91.32 103.854 91.25C103.887 91.18 106.087 92.09 108.771 93.2907C111.455 94.486 113.607 95.5144 113.575 95.5844Z" fill="#EB996E"/>
<path d="M116.131 104.14C116.131 104.14 115.943 104.232 115.588 104.345C115.233 104.452 114.716 104.609 114.065 104.754C113.414 104.894 112.618 105.029 111.725 105.018C110.832 105.012 109.842 104.808 108.906 104.366C107.018 103.494 105.727 102.083 104.866 101.087C104.436 100.581 104.102 100.156 103.882 99.8542C103.661 99.5581 103.543 99.3858 103.559 99.375C103.591 99.3481 104.124 99.9726 105.017 100.958C105.91 101.916 107.201 103.273 109.025 104.119C109.928 104.539 110.87 104.743 111.731 104.765C112.597 104.792 113.377 104.679 114.022 104.565C115.319 104.318 116.12 104.102 116.131 104.151V104.14Z" fill="#EB996E"/>
<path d="M128.87 99.8219C128.87 99.8219 128.8 99.7788 128.665 99.6819C128.525 99.5796 128.326 99.4342 128.079 99.2512C127.552 98.8581 126.793 98.2874 125.814 97.5551L125.803 97.5443V97.5282C125.217 96.0905 124.469 94.2276 123.576 92.0092L123.598 92.0415C122.145 90.7547 120.488 89.2848 118.665 87.6641L118.783 87.6748C118.057 88.0894 117.261 88.5471 116.438 89.0209L116.411 89.0371H116.384C115.512 89.0371 114.56 89.0371 113.581 89.0425L113.694 88.9348C113.721 89.3978 113.753 89.8878 114.022 90.2862C114.264 90.6901 114.652 90.997 115.098 91.1962C116.002 91.5892 117.078 91.6323 118.105 91.5246L118.191 91.5139L118.229 91.5892C118.417 91.9392 118.627 92.3323 118.837 92.7253L118.966 92.9676L118.697 92.903C117.196 92.5477 115.588 92.1654 113.936 91.7723H113.926L113.915 91.7669C112.441 91.1262 110.908 90.4855 109.321 89.877C108.525 89.5755 107.734 89.2417 106.889 89.1286C106.061 89.0101 105.146 89.0748 104.415 89.457L104.393 89.4678C104.146 89.5594 104.049 89.8878 104.06 90.227C104.07 90.5662 104.14 90.927 104.253 91.2662L104.334 91.5139L104.087 91.4439C103.575 91.3039 103.032 91.207 102.489 91.1746C101.956 91.1477 101.365 91.1747 100.961 91.4708C100.762 91.6108 100.751 91.8477 100.816 92.1061C100.886 92.3646 101.009 92.623 101.128 92.8815C101.262 93.1345 101.348 93.4415 101.526 93.5922C101.725 93.7753 101.962 93.9422 102.198 94.0983C104.183 95.3314 106.303 96.3167 108.347 97.3074C109.38 97.7866 110.397 98.2658 111.403 98.7343C111.908 98.9658 112.409 99.1973 112.909 99.4288L113.285 99.6065C113.404 99.6604 113.576 99.7411 113.662 99.9188C113.753 100.096 113.7 100.29 113.64 100.43C113.57 100.576 113.49 100.689 113.382 100.802L113.345 100.84H113.285C112.037 100.861 110.816 100.888 109.611 100.91H109.557L109.52 100.877C108.369 99.8596 107.185 98.9066 105.921 98.1797C105.297 97.8458 104.598 97.4797 103.968 97.7328C103.656 97.8405 103.436 98.0935 103.35 98.4058C103.269 98.7181 103.285 99.0681 103.366 99.3804L103.333 99.3265C104.533 100.452 105.673 101.523 106.771 102.552L106.798 102.579V102.616C106.981 103.806 107.153 104.959 107.32 106.068L107.277 105.998C108.514 106.913 109.67 107.775 110.757 108.582L110.692 108.566C113.253 108.313 115.464 108.092 117.358 107.909H117.368H117.379C119.875 108.34 121.823 108.674 123.162 108.9C123.813 109.018 124.319 109.104 124.668 109.169C124.83 109.201 124.959 109.223 125.05 109.244C125.136 109.261 125.179 109.271 125.179 109.277C125.179 109.282 125.136 109.277 125.05 109.266C124.953 109.25 124.824 109.234 124.663 109.212C124.308 109.158 123.802 109.083 123.146 108.981C121.806 108.765 119.854 108.453 117.352 108.055H117.374C115.486 108.254 113.275 108.491 110.714 108.76H110.676L110.644 108.744C109.552 107.941 108.39 107.085 107.147 106.175L107.11 106.148V106.105C106.932 104.996 106.755 103.849 106.572 102.659L106.604 102.724C105.501 101.696 104.355 100.63 103.156 99.5096L103.129 99.4881V99.4558C103.027 99.095 103.005 98.7235 103.102 98.3466C103.15 98.1581 103.247 97.9804 103.376 97.8297C103.516 97.6897 103.683 97.5659 103.866 97.5066C104.221 97.3559 104.651 97.3882 105.006 97.5013C105.361 97.6197 105.706 97.7758 106.029 97.9643C107.325 98.7073 108.514 99.6604 109.681 100.689L109.59 100.656C110.795 100.635 112.016 100.608 113.264 100.581L113.172 100.619C113.334 100.452 113.479 100.188 113.404 100.048C113.334 99.908 113.011 99.8057 112.78 99.6873C112.279 99.4558 111.779 99.2242 111.273 98.9927C110.262 98.5243 109.245 98.0451 108.213 97.5659C106.163 96.5751 104.054 95.5952 102.032 94.3406C101.784 94.1791 101.542 94.0122 101.316 93.7968C101.203 93.7053 101.09 93.5115 101.047 93.3984L100.864 93.0053C100.746 92.7415 100.617 92.4777 100.536 92.1815C100.498 92.0308 100.477 91.8692 100.504 91.6969C100.531 91.5246 100.644 91.3577 100.773 91.2608C101.305 90.8731 101.935 90.8839 102.494 90.9001C103.064 90.9377 103.613 91.04 104.151 91.1854L103.979 91.3631C103.861 90.9916 103.785 90.6255 103.775 90.2378C103.769 90.0493 103.791 89.8501 103.861 89.6563C103.931 89.4678 104.092 89.2901 104.291 89.2148L104.264 89.2255C105.114 88.784 106.045 88.7409 106.921 88.8594C107.809 88.9832 108.621 89.3278 109.412 89.624C110.999 90.2432 112.532 90.8839 114.012 91.53H113.99C115.642 91.9177 117.25 92.3054 118.746 92.6661L118.606 92.8438C118.396 92.4454 118.186 92.0523 118.003 91.7023L118.127 91.7669C117.051 91.88 115.964 91.8315 114.991 91.4116C114.512 91.1962 114.082 90.8516 113.813 90.4047C113.517 89.9578 113.484 89.4247 113.458 88.9294V88.8163H113.57C114.55 88.8163 115.502 88.8163 116.373 88.8217L116.319 88.8379C117.142 88.3694 117.939 87.9171 118.67 87.5025L118.735 87.4648L118.789 87.5133C120.607 89.1448 122.253 90.6254 123.695 91.9231L123.711 91.9338V91.95C124.588 94.1791 125.319 96.0475 125.884 97.4905L125.868 97.4689C126.836 98.2228 127.584 98.8043 128.106 99.2081C128.353 99.4019 128.542 99.5527 128.676 99.6604C128.805 99.7627 128.864 99.8219 128.864 99.8219H128.87Z" fill="#EB996E"/>
<path d="M37.3994 25.432L74.7005 8.19141L64.9153 44.708L56.561 37.7999L50.8803 41.5527L47.857 40.9766L44.7101 29.1957L37.3994 25.432Z" fill="#C6CBCE"/>
<g opacity="0.5">
<path d="M48.0067 40.6051L74.6995 8.19141L44.7091 29.1957L48.0067 40.6051Z" fill="#797F84"/>
</g>
<path d="M74.8074 7.73376C74.8719 7.77145 71.0525 14.3511 66.2756 22.4222C61.4986 30.4987 57.5716 37.0084 57.5017 36.9707C57.4371 36.933 61.2566 30.3534 66.0335 22.2822C70.8105 14.2111 74.7375 7.69607 74.802 7.73915L74.8074 7.73376Z" fill="#797F84"/>
<path d="M62.7687 14.4157C62.801 14.4857 57.7335 16.9356 51.4557 19.8808C45.1725 22.8314 40.0567 25.1629 40.0244 25.0929C39.9921 25.0229 45.0542 22.573 51.3374 19.6278C57.6152 16.6771 62.7364 14.3457 62.7687 14.4157Z" fill="white"/>
<path d="M65.486 13.3011C65.5182 13.3711 65.2977 13.5434 64.991 13.6834C64.6844 13.8234 64.4101 13.8826 64.3778 13.8126C64.3455 13.7426 64.5661 13.5703 64.8727 13.4303C65.1793 13.2903 65.4537 13.2311 65.486 13.3011Z" fill="white"/>
<path d="M64.3136 27.0851C64.3459 27.1012 64.0715 27.7043 63.5659 28.6465C63.0602 29.5888 62.3232 30.8702 61.441 32.2432C60.5588 33.6163 59.7034 34.8223 59.0525 35.6731C58.407 36.5238 57.9712 37.0245 57.9443 37.003C57.9121 36.9761 58.2886 36.4323 58.8911 35.5546C59.4936 34.677 60.3221 33.4601 61.2043 32.0925C62.0811 30.7249 62.845 29.4649 63.3884 28.5496C63.9371 27.6343 64.276 27.0689 64.3082 27.0851H64.3136Z" fill="white"/>
<path d="M44.4959 43.3134C44.4582 43.2488 44.8025 42.985 45.2866 42.775C45.7654 42.5596 46.1904 42.4789 46.2173 42.5489C46.2442 42.6243 45.873 42.8181 45.3996 43.0281C44.9316 43.2381 44.5335 43.3781 44.4959 43.3134Z" fill="#263238"/>
<path d="M39.0256 48.2132C38.9611 48.1701 39.3753 47.4378 40.0585 46.6571C40.7417 45.8764 41.4141 45.3756 41.4625 45.4295C41.5163 45.4887 40.9353 46.0756 40.2683 46.8402C39.5958 47.5994 39.0902 48.2509 39.0256 48.2078V48.2132Z" fill="#263238"/>
<path d="M36.368 55.0567C36.2927 55.0513 36.3196 54.2059 36.5832 53.2045C36.8414 52.203 37.2233 51.4492 37.2879 51.4815C37.3632 51.5138 37.105 52.2945 36.8521 53.2745C36.5939 54.2544 36.4433 55.0674 36.368 55.0567Z" fill="#263238"/>
<path d="M37.3526 62.3148C37.2827 62.3471 36.89 61.5987 36.621 60.5972C36.3467 59.5957 36.309 58.7557 36.3843 58.745C36.465 58.7342 36.621 59.5472 36.89 60.5218C37.1536 61.5018 37.4226 62.2825 37.3526 62.3094V62.3148Z" fill="#263238"/>
<path d="M41.6284 68.2914C41.58 68.3506 40.8968 67.8553 40.2028 67.0907C39.5089 66.3261 39.0785 65.5992 39.1431 65.5562C39.2076 65.5077 39.7294 66.1538 40.4126 66.9022C41.0904 67.656 41.6822 68.2322 41.6284 68.2914Z" fill="#263238"/>
<path d="M48.1604 71.6027C48.1551 71.6404 47.9453 71.6243 47.6117 71.5704C47.2782 71.522 46.821 71.4143 46.3368 71.2366C45.3631 70.8866 44.653 70.4343 44.6853 70.3697C44.723 70.2997 45.4761 70.6336 46.4283 70.9728C46.9017 71.1451 47.3428 71.2851 47.6602 71.382C47.9775 71.4843 48.1712 71.5704 48.1658 71.6081L48.1604 71.6027Z" fill="#263238"/>
<path d="M55.3027 70.5097C55.3511 70.5689 54.6786 71.1127 53.6888 71.4519C52.699 71.7911 51.849 71.8073 51.8437 71.7373C51.8329 71.6565 52.6506 71.5165 53.5974 71.1881C54.5495 70.865 55.2596 70.4451 55.3027 70.5151V70.5097Z" fill="#263238"/>
<path d="M57.8596 64.0539C57.9241 64.0323 58.2039 64.8508 58.1447 65.9061C58.0909 66.9614 57.6874 67.7368 57.6229 67.7045C57.5476 67.6722 57.8165 66.8914 57.8649 65.8899C57.9241 64.8885 57.7735 64.0754 57.8596 64.0539Z" fill="#263238"/>
<path d="M53.3785 58.508C53.4001 58.438 54.2339 58.675 55.0623 59.3211C55.8961 59.9618 56.348 60.6941 56.2888 60.7318C56.2243 60.7856 55.6863 60.1556 54.8902 59.5418C54.0994 58.9226 53.3463 58.5834 53.3785 58.508Z" fill="#263238"/>
<path d="M46.1751 58.8095C46.1429 58.7449 46.8798 58.325 47.8912 58.0719C48.9025 57.8134 49.7525 57.8511 49.7525 57.9265C49.7525 58.0073 48.9348 58.0934 47.9611 58.3411C46.9821 58.5834 46.2128 58.8795 46.1805 58.8042L46.1751 58.8095Z" fill="#263238"/>
<path d="M40.7728 63.6985C40.7082 63.6608 41.0632 62.8962 41.7088 62.0832C42.3812 61.2971 43.0429 60.7694 43.0805 60.8179C43.1397 60.8879 42.5856 61.4909 41.9293 62.2555C41.2999 63.047 40.8427 63.7362 40.7728 63.6931V63.6985Z" fill="#263238"/>
<path d="M38.5567 70.7143C38.4814 70.7089 38.5029 69.869 38.7073 68.8567C38.9117 67.8444 39.2291 67.0637 39.299 67.0906C39.3743 67.1176 39.1807 67.9198 38.9816 68.9105C38.7772 69.9067 38.6374 70.7197 38.5567 70.7089V70.7143Z" fill="#263238"/>
<path d="M38.8039 78.0908C38.7286 78.107 38.5135 77.294 38.4112 76.2709C38.3037 75.2479 38.3467 74.4133 38.422 74.408C38.5027 74.408 38.5834 75.2264 38.691 76.2386C38.7932 77.2509 38.8846 78.0747 38.8093 78.0855L38.8039 78.0908Z" fill="#263238"/>
<path d="M40.9946 85.1443C40.9247 85.1766 40.5159 84.4497 40.15 83.4859C39.7842 82.5275 39.6013 81.7091 39.6767 81.6876C39.752 81.666 40.0478 82.436 40.4136 83.3836C40.7741 84.3313 41.0699 85.1066 41 85.1389L40.9946 85.1443Z" fill="#263238"/>
<path d="M44.8505 91.4494C44.7913 91.4978 44.2211 90.8894 43.6293 90.044C43.0376 89.1987 42.6664 88.4557 42.731 88.4126C42.8009 88.3695 43.2743 89.0479 43.8607 89.8825C44.4416 90.7171 44.9097 91.4009 44.8505 91.4494Z" fill="#263238"/>
<path d="M50.1075 96.64C50.0644 96.6992 49.3597 96.2523 48.5851 95.5738C47.8105 94.8954 47.2671 94.2601 47.3209 94.2062C47.3747 94.1524 48.0041 94.6908 48.768 95.3639C49.5319 96.0315 50.1559 96.5807 50.1075 96.6453V96.64Z" fill="#263238"/>
<path d="M56.5027 100.334C56.4758 100.404 55.6743 100.156 54.7544 99.6982C53.8291 99.2459 53.1459 98.7667 53.1836 98.7021C53.2213 98.6321 53.9636 99.0036 54.8781 99.4505C55.7873 99.8974 56.535 100.264 56.5027 100.334Z" fill="#263238"/>
<path d="M63.7123 101.777C63.7123 101.852 62.8785 101.911 61.851 101.809C60.8235 101.712 60.0166 101.48 60.0328 101.405C60.0489 101.33 60.8666 101.432 61.8779 101.529C62.8892 101.631 63.7123 101.696 63.7123 101.777Z" fill="#263238"/>
<path d="M71.0609 101.023C71.0771 101.098 70.2755 101.335 69.2642 101.497C68.2528 101.658 67.4137 101.68 67.4083 101.604C67.4029 101.524 68.2152 101.384 69.2211 101.217C70.2271 101.055 71.0448 100.942 71.0609 101.017V101.023Z" fill="#263238"/>
<path d="M78.1606 98.9606C78.1875 99.0306 77.4182 99.3537 76.4499 99.6767C75.4763 99.9998 74.6693 100.199 74.6478 100.124C74.6263 100.048 75.3956 99.7306 76.3585 99.4075C77.3268 99.0898 78.1337 98.8852 78.1606 98.9606Z" fill="#263238"/>
<path d="M84.9436 95.9991C84.9813 96.0691 84.255 96.4783 83.3298 96.9145C82.4045 97.3506 81.6245 97.6467 81.5976 97.5767C81.5653 97.5067 82.2915 97.0975 83.2114 96.6614C84.1313 96.2253 84.9113 95.9291 84.9436 95.9991Z" fill="#263238"/>
<path d="M91.3571 92.2893C91.4001 92.354 90.7277 92.8439 89.8562 93.3824C88.9847 93.9208 88.2424 94.3031 88.2047 94.2331C88.167 94.1685 88.8395 93.6785 89.7056 93.1401C90.5717 92.607 91.314 92.2247 91.3571 92.2893Z" fill="#263238"/>
<path d="M95.8478 88.9834C95.8962 89.0426 95.6057 89.3549 95.1969 89.678C94.788 90.001 94.4169 90.2164 94.3738 90.1518C94.3254 90.0926 94.6159 89.7803 95.0247 89.4572C95.4282 89.1341 95.7994 88.9242 95.8478 88.9834Z" fill="#263238"/>
</g>
<defs>
<clipPath id="clip0_16_1461">
<rect width="242" height="180" fill="white"/>
</clipPath>
</defs>
</svg>
