<svg width="73" height="74" viewBox="0 0 73 74" fill="none" xmlns="http://www.w3.org/2000/svg">
<path d="M71.9607 19.6691C71.9606 19.6691 71.9606 19.6691 71.9604 19.6691L71.958 19.6667L67.2461 18.9944C66.5838 18.9001 66.1234 18.2867 66.2177 17.6245C66.263 17.3062 66.433 17.0191 66.6901 16.8262L70.4984 13.97C71.0336 13.5686 71.1421 12.8094 70.7407 12.2742L66.38 6.45999C65.9786 5.92476 65.2194 5.81635 64.6842 6.21774L60.8771 9.07396C60.3441 9.47838 59.5844 9.37421 59.1799 8.84124C58.9836 8.58248 58.8994 8.25558 58.9463 7.93414L59.6198 3.22221C59.7147 2.55994 59.2549 1.94627 58.5928 1.85118C58.5923 1.85118 58.5919 1.85103 58.5914 1.85103L51.4012 0.823856C50.7391 0.728769 50.1251 1.18845 50.03 1.85073C50.03 1.85088 50.03 1.85088 50.03 1.85103L49.3565 6.56295C49.2622 7.22523 48.6488 7.68567 47.9865 7.59134C47.6683 7.54607 47.3812 7.37603 47.1883 7.11894L44.3333 3.31064C43.9319 2.7754 43.1727 2.66699 42.6375 3.06838L38.9975 5.79984C37.3508 5.62481 35.6901 5.62481 34.0434 5.79984C23.2589 7.03248 14.8018 15.633 13.7506 26.4366C13.7179 26.7794 13.7058 27.1198 13.6888 27.4602H13.3254C12.7507 27.4612 12.2557 27.8661 12.1408 28.4292L11.3038 32.4095L7.95092 30.0971C7.46974 29.7651 6.81988 29.8243 6.40653 30.2376L2.77265 33.8715C2.3599 34.2847 2.30085 34.9337 2.63214 35.4147L4.93359 38.7615L0.952078 39.5985C0.395187 39.7205 -0.00120852 40.2143 2.76845e-06 40.7844V45.6295C-0.000300054 46.2025 0.401092 46.6973 0.961768 46.8154L4.94328 47.6524L2.64183 50.9992C2.31054 51.4802 2.36959 52.1292 2.78234 52.5424L6.41622 56.1762C6.82957 56.5896 7.47943 56.6488 7.96061 56.3168L11.3074 54.0092L12.1444 57.9908C12.2593 58.5539 12.7543 58.9587 13.3291 58.9598H18.1742C18.7472 58.9601 19.242 58.5587 19.3601 57.998L20.1971 54.0165L23.5439 56.318C24.0249 56.6493 24.6739 56.5902 25.0871 56.1775L26.9682 54.2903V57.7424C26.9737 59.4657 27.8968 61.0553 29.3908 61.9141V68.6441C29.3908 71.32 31.5601 73.4892 34.236 73.4892H39.0811C41.757 73.4892 43.9263 71.32 43.9263 68.6441V61.9141C45.4203 61.0553 46.3434 59.4657 46.3489 57.7424V52.9482C46.3817 50.9309 47.4371 49.0685 49.1506 48.0037C50.1558 47.3515 51.1091 46.6225 52.002 45.8233L50.3861 44.0185C49.5874 44.7344 48.7341 45.3868 47.8339 45.9699C45.4287 47.4795 43.9564 50.1086 43.9263 52.9482V57.7424C43.9263 59.0805 42.8417 60.165 41.5037 60.165H31.8134C30.4753 60.165 29.3908 59.0805 29.3908 57.7424V52.8476C29.3628 50.0618 27.9136 47.4834 25.5486 46.0111C15.948 39.9786 13.0555 27.3056 19.088 17.705C22.8309 11.7483 29.3631 8.1228 36.3981 8.09766C36.3801 8.14081 36.3642 8.18487 36.3509 8.22969C36.3059 8.54766 36.3892 8.87062 36.5822 9.12726L39.4372 12.9343C39.7382 13.3239 39.7672 13.859 39.5099 14.2789C39.2622 14.7013 38.7833 14.9318 38.2986 14.8615L33.5867 14.188C32.9244 14.0931 32.3108 14.5529 32.2157 15.2151C32.2157 15.2155 32.2155 15.216 32.2155 15.2164L31.1871 22.4103C31.0922 23.0724 31.552 23.6862 32.2142 23.7813C32.2146 23.7813 32.2151 23.7815 32.2155 23.7815L36.9274 24.4549C37.5897 24.5493 38.0502 25.1626 37.9558 25.8249C37.9106 26.1432 37.7405 26.4303 37.4834 26.6232L33.6763 29.4782C33.1411 29.8796 33.0327 30.6387 33.4341 31.174L37.7947 36.9882C38.1961 37.5234 38.9553 37.6318 39.4905 37.2304L43.2988 34.3754C43.8345 33.9748 44.5937 34.0843 44.9943 34.6201C45.186 34.8764 45.2686 35.1983 45.2236 35.5152L44.5513 40.2272C44.4562 40.8893 44.9159 41.5033 45.5782 41.5984C45.5783 41.5984 45.5783 41.5984 45.5785 41.5984L52.7736 42.6267C52.8302 42.634 52.8873 42.6376 52.9444 42.6376C53.5474 42.6384 54.0591 42.1954 54.1447 41.5984L54.817 36.8864C54.9113 36.2242 55.5247 35.7637 56.187 35.858C56.5053 35.9033 56.7923 36.0733 56.9852 36.3304L59.8415 40.1375C60.2428 40.6728 61.002 40.7812 61.5373 40.3798L67.3515 36.0191C67.8867 35.6177 67.9951 34.8586 67.5937 34.3233L64.7387 30.5162C64.4391 30.1261 64.4101 29.5919 64.666 29.1717C64.9084 28.7437 65.3917 28.5117 65.8773 28.5903L70.5892 29.2626C71.2514 29.3576 71.8653 28.8978 71.9604 28.2357C71.9604 28.2355 71.9604 28.2355 71.9604 28.2354L72.9876 21.0403C73.0827 20.378 72.623 19.7642 71.9607 19.6691ZM31.8134 62.5876H41.5037V65.0102H31.8134V62.5876ZM31.8134 67.4328H41.5037V68.6441C41.5037 69.9821 40.4191 71.0666 39.0811 71.0666H34.236C32.8979 71.0666 31.8134 69.9821 31.8134 68.6441V67.4328ZM22.1703 46.5441C22.8316 47.0849 23.5227 47.5885 24.2404 48.0521C25.3849 48.7754 26.2464 49.8697 26.6811 51.1518L24.0829 53.7452L21.5671 52.0106C20.4654 51.2514 18.9569 51.5291 18.1975 52.6308C18.0155 52.895 17.8878 53.1927 17.8217 53.5066L17.187 56.5312H14.3078L13.6731 53.5114C13.3975 52.2021 12.1128 51.3641 10.8035 51.6397C10.4896 51.7057 10.192 51.8335 9.92775 52.0155L7.41069 53.7452L5.20371 51.5431L6.93707 49.0284C7.69701 47.9272 7.42023 46.4185 6.31901 45.6586C6.05465 45.4762 5.75667 45.3481 5.44234 45.2819L2.42259 44.646V41.7679L5.44234 41.132C6.75114 40.8545 7.58723 39.5685 7.30969 38.2596C7.24383 37.949 7.1177 37.6545 6.93828 37.3927L5.20371 34.8708L7.41069 32.6687L9.92896 34.4033C11.0311 35.1617 12.5396 34.8831 13.298 33.781C13.4797 33.5171 13.6072 33.2197 13.6731 32.9061L13.885 31.8983C14.0792 33.294 14.4006 34.6688 14.8456 36.0058C10.86 36.4809 8.01421 40.0973 8.48934 44.0829C8.96447 48.0685 12.5808 50.9142 16.5664 50.4391C18.9657 50.1529 21.0659 48.6932 22.1703 46.5441ZM20.2891 44.8373C19.3846 47.3515 16.6133 48.6564 14.0991 47.752C11.5849 46.8475 10.2801 44.0762 11.1845 41.562C11.8764 39.6386 13.7026 38.3575 15.7466 38.3618C15.7624 38.3618 15.7769 38.3618 15.7927 38.3618C16.9066 40.7636 18.4278 42.9544 20.2891 44.8373ZM69.7268 26.6898L66.2141 26.1883C64.2272 25.9046 62.3867 27.2853 62.1029 29.2719C61.9667 30.226 62.215 31.1952 62.7934 31.9662L64.9216 34.8042L61.0455 37.7113L58.916 34.8745C57.712 33.2687 55.4343 32.9431 53.8288 34.1471C53.0578 34.7252 52.548 35.5859 52.4114 36.54L51.9208 40.0576L47.1253 39.372L47.6268 35.8592C47.9113 33.8726 46.5313 32.0314 44.5447 31.7471C43.59 31.6103 42.6204 31.8587 41.8489 32.4374L39.0109 34.5656L36.1038 30.6895L38.9406 28.56C40.5463 27.356 40.872 25.0783 39.668 23.4727C39.0899 22.7017 38.2291 22.1919 37.2751 22.0554L33.7623 21.5539L34.4479 16.7584L37.9607 17.2599C39.9473 17.5444 41.7885 16.1644 42.0729 14.1777C42.2096 13.2231 41.9613 12.2534 41.3826 11.482L39.2471 8.64153L43.1232 5.73443L45.2527 8.57249C46.4567 10.1782 48.7344 10.5039 50.3399 9.29987C51.1109 8.72178 51.6207 7.861 51.7573 6.90696L52.2588 3.39422L57.0543 4.0786L56.5528 7.59134C56.2691 9.57816 57.6496 11.4187 59.6364 11.7025C60.5905 11.8387 61.5597 11.5904 62.3307 11.012L65.1687 8.88379L68.0758 12.7599L65.2378 14.8894C63.632 16.0934 63.3064 18.3711 64.5104 19.9766C65.0885 20.7476 65.9492 21.2574 66.9033 21.394L70.416 21.8955L69.7268 26.6898Z" fill="#006099"/>
</svg>
