<svg width="616" height="598" viewBox="0 0 616 598" fill="none" xmlns="http://www.w3.org/2000/svg">
<path d="M12 338L114.5 338" stroke="#B0BEC5" stroke-width="2" stroke-dasharray="4 4"/>
<rect x="111" y="4" width="295" height="568" rx="26" stroke="#00263D" stroke-width="8"/>
<path d="M213 6H304V27C304 31.4183 300.418 35 296 35H221C216.582 35 213 31.4183 213 27V6Z" fill="#00263D"/>
<rect x="232" y="18" width="54" height="4" rx="2" fill="#D9D9D9"/>
<path d="M384.311 576L584.001 576" stroke="#263238" stroke-miterlimit="10"/>
<path d="M0 576L374.262 576" stroke="#263238" stroke-miterlimit="10"/>
<path d="M484.762 222.901C482.874 221.546 483.701 222.024 481.594 221.03C479.486 220.037 475.929 217.908 475.735 215.599C475.451 212.18 475.322 211.122 475.399 209.174C475.593 204.349 469.179 201.717 468.209 196.982C467.42 193.047 470.757 189.345 470.614 185.332C470.472 181.333 466.993 178.34 465.416 174.663C461.717 166.122 466.605 158.214 463.372 147.377C462.661 144.977 461.187 140.642 457.553 136.927C455.807 135.133 450.66 131.598 445.681 131.598L445.345 131.069C442.099 126.128 434.741 125.935 429.206 128.038C423.671 130.14 418.809 133.946 413.067 135.365C410.274 136.049 410.674 131.921 407.855 132.501C404.157 133.25 399.605 137.572 398.544 141.158C397.406 145.003 396.63 149.247 395.26 153.027C393.746 157.194 389.272 160.097 388.858 164.51C388.367 169.657 393.695 173.85 393.708 179.011C393.708 184.571 387.565 189.538 389.531 194.737C390.656 197.717 394.096 199.304 395.285 202.246C396.941 206.31 393.656 210.774 393.953 215.147C394.251 219.469 397.885 222.72 401.338 225.352C414.541 235.415 429.128 243.814 444.854 249.207C451.656 251.542 458.82 253.322 465.972 252.664C473.136 252.019 480.339 248.6 484.089 242.472C487.167 237.441 489.547 226.333 484.749 222.888L484.762 222.901Z" fill="url(#paint0_linear_1_559)"/>
<path d="M409.523 157.569C408.748 145.158 418.563 134.488 431.404 134.114C443.509 133.766 453.635 143.235 454.669 155.053C455.587 165.413 456.273 175.863 455.975 179.617C455.096 190.957 448.035 194.931 445.203 196.079C444.556 196.337 442.81 196.569 442.112 196.621C442.112 196.621 442.035 196.66 442.047 196.711L443.78 209.896C444.388 218.501 439.034 225.804 430.266 226.487C421.46 227.171 415.071 220.179 414.282 211.548L409.523 157.556V157.569Z" fill="url(#paint1_linear_1_559)"/>
<path d="M450.517 164.626C450.633 165.58 449.909 166.445 448.9 166.587C447.891 166.716 446.986 166.058 446.87 165.103C446.753 164.148 447.478 163.284 448.486 163.142C449.495 163.013 450.4 163.671 450.517 164.626Z" fill="#263238"/>
<path d="M451.809 157.956C451.602 158.214 450.128 157.311 448.149 157.465C446.171 157.594 444.8 158.704 444.567 158.485C444.451 158.381 444.645 157.943 445.24 157.44C445.822 156.936 446.843 156.42 448.085 156.33C449.313 156.24 450.387 156.601 451.02 157.014C451.667 157.427 451.913 157.84 451.809 157.943V157.956Z" fill="#263238"/>
<path d="M432.427 165.684C432.543 166.638 431.819 167.503 430.81 167.645C429.801 167.774 428.896 167.116 428.78 166.161C428.663 165.206 429.388 164.342 430.396 164.2C431.405 164.071 432.31 164.729 432.427 165.684Z" fill="#263238"/>
<path d="M432.387 159.839C432.18 160.097 430.706 159.194 428.728 159.349C426.749 159.478 425.378 160.588 425.145 160.368C425.029 160.265 425.223 159.826 425.818 159.323C426.4 158.82 427.421 158.304 428.663 158.214C429.891 158.123 430.965 158.485 431.599 158.897C432.245 159.31 432.491 159.71 432.387 159.826V159.839Z" fill="#263238"/>
<path d="M440.767 173.657C440.754 173.553 441.957 173.244 443.935 172.844C444.44 172.753 444.905 172.624 444.957 172.276C445.047 171.915 444.789 171.386 444.491 170.831C443.922 169.67 443.315 168.457 442.681 167.18C440.159 161.968 438.284 157.672 438.504 157.582C438.724 157.478 440.935 161.62 443.457 166.832C444.065 168.122 444.647 169.335 445.203 170.509C445.435 171.05 445.823 171.67 445.629 172.431C445.526 172.805 445.177 173.115 444.853 173.218C444.543 173.334 444.259 173.373 444 173.399C442.008 173.657 440.754 173.76 440.741 173.657H440.767Z" fill="#263238"/>
<path d="M442.033 196.634C442.033 196.634 434.442 197.846 424.42 192.957C425.028 193.254 427.924 204.4 442.499 200.194L442.033 196.647V196.634Z" fill="#E3BAA4"/>
<path d="M440.316 178.391C439.527 177.527 438.234 177.114 437.018 177.346C436.165 177.501 435.337 177.979 434.872 178.701C434.406 179.423 434.38 180.404 434.91 181.023C435.505 181.72 436.63 181.797 437.561 181.462C438.48 181.126 439.243 180.456 439.967 179.785C440.161 179.604 440.368 179.411 440.484 179.165C440.6 178.92 440.6 178.624 440.419 178.443" fill="#E3BAA4"/>
<path d="M435.052 175.45C435.375 175.411 435.556 177.514 437.509 178.856C439.462 180.21 441.738 179.798 441.776 180.094C441.815 180.223 441.298 180.546 440.341 180.649C439.397 180.752 437.987 180.559 436.785 179.733C435.582 178.907 435 177.72 434.858 176.856C434.703 175.979 434.897 175.437 435.052 175.45V175.45Z" fill="#263238"/>
<path d="M432.322 153.556C432.166 154.098 430.175 154.008 427.873 154.46C425.571 154.872 423.748 155.685 423.399 155.234C423.243 155.014 423.528 154.498 424.239 153.931C424.95 153.363 426.101 152.782 427.485 152.524C428.869 152.266 430.162 152.382 431.028 152.653C431.908 152.924 432.373 153.298 432.309 153.556H432.322Z" fill="#263238"/>
<path d="M450.788 152.873C450.478 153.337 449.081 152.989 447.439 153.092C445.796 153.143 444.439 153.621 444.077 153.182C443.921 152.963 444.102 152.511 444.671 152.047C445.227 151.582 446.21 151.17 447.335 151.118C448.46 151.066 449.469 151.389 450.077 151.802C450.698 152.215 450.918 152.653 450.788 152.873V152.873Z" fill="#263238"/>
<path d="M411.723 164.2C411.529 164.123 403.783 162.394 404.52 170.109C405.257 177.824 412.874 175.502 412.861 175.282C412.861 175.063 411.723 164.2 411.723 164.2V164.2Z" fill="#EBCAB9"/>
<path d="M410.224 172.573C410.224 172.573 410.095 172.676 409.875 172.805C409.668 172.921 409.293 173.037 408.866 172.921C408.026 172.702 407.211 171.463 407.043 170.083C406.952 169.386 407.043 168.702 407.237 168.122C407.418 167.528 407.754 167.103 408.155 166.999C408.556 166.87 408.866 167.09 408.982 167.296C409.112 167.503 409.073 167.657 409.112 167.67C409.138 167.683 409.267 167.528 409.176 167.206C409.125 167.051 409.021 166.883 408.827 166.754C408.633 166.625 408.349 166.574 408.064 166.625C407.469 166.729 406.991 167.322 406.771 167.954C406.525 168.599 406.409 169.36 406.512 170.147C406.706 171.696 407.65 173.076 408.801 173.295C409.357 173.386 409.797 173.179 410.017 172.973C410.237 172.753 410.263 172.586 410.237 172.573H410.224Z" fill="#E3BAA4"/>
<path d="M461.212 204.129C461.212 204.129 461.018 203.949 460.76 203.536C460.488 203.123 460.178 202.452 459.971 201.536C459.544 199.704 459.855 196.892 461.096 193.821C461.665 192.273 462.389 190.609 462.816 188.751C463.294 186.893 463.243 184.855 462.544 182.816C461.911 180.778 460.799 178.714 460.32 176.327C459.79 173.966 459.79 171.45 459.971 168.935C460.385 163.903 461.381 159.168 460.98 154.872C460.682 150.563 458.742 146.989 456.57 144.59C454.397 142.138 452.044 140.797 450.375 140.048C448.694 139.313 447.686 139.107 447.711 139.029C447.711 139.003 447.97 139.055 448.449 139.158C448.927 139.262 449.625 139.468 450.492 139.803C452.212 140.487 454.656 141.803 456.932 144.267C458.057 145.493 459.156 146.989 459.997 148.77C460.85 150.55 461.406 152.614 461.6 154.82C462.053 159.246 461.044 164.032 460.656 168.999C460.475 171.489 460.475 173.927 460.98 176.211C461.419 178.494 462.493 180.533 463.152 182.649C463.876 184.752 463.902 186.996 463.385 188.906C462.907 190.828 462.156 192.479 461.562 194.015C460.294 197.034 459.919 199.717 460.255 201.51C460.579 203.316 461.329 204.103 461.238 204.142L461.212 204.129Z" fill="#793F1D"/>
<path d="M472.58 543.498L471.378 565.379C471.378 565.379 494.151 573.468 494.332 577.532L450.053 577.648L450.467 543.498H472.58V543.498Z" fill="#00304C"/>
<g opacity="0.3">
<path d="M472.58 543.498L471.378 565.379C471.378 565.379 494.151 573.468 494.332 577.532L450.053 577.648L450.467 543.498H472.58Z" fill="black"/>
</g>
<g opacity="0.6">
<path d="M457.721 563.586C456.854 563.818 456.247 564.734 456.441 565.572C456.622 566.398 457.591 566.991 458.458 566.772C459.324 566.566 460.087 565.469 459.803 564.669C459.518 563.869 458.354 563.237 457.553 563.65" fill="white"/>
</g>
<g opacity="0.6">
<path d="M450.067 577.648L450.105 574.203L492.639 575.39C492.639 575.39 494.591 576.203 494.346 577.545L450.067 577.661V577.648Z" fill="white"/>
</g>
<path d="M472.102 565.172C472.102 565.379 471.003 565.482 469.93 566.153C468.83 566.798 468.274 567.701 468.08 567.611C467.886 567.572 468.223 566.334 469.542 565.547C470.848 564.747 472.154 564.992 472.102 565.185V565.172Z" fill="#003A5C"/>
<path d="M476.719 567.004C476.771 567.211 475.827 567.559 475.077 568.436C474.301 569.301 474.094 570.243 473.887 570.23C473.68 570.268 473.551 569.043 474.508 567.972C475.452 566.888 476.719 566.798 476.732 566.992L476.719 567.004Z" fill="#003A5C"/>
<path d="M479.267 572.333C479.073 572.371 478.788 571.339 479.357 570.204C479.926 569.069 480.948 568.617 481.039 568.785C481.155 568.952 480.495 569.572 480.03 570.501C479.551 571.43 479.474 572.307 479.254 572.333H479.267Z" fill="#003A5C"/>
<path d="M471.806 560.167C471.715 560.36 470.72 560.076 469.504 560.167C468.276 560.231 467.319 560.618 467.215 560.451C467.099 560.296 468.03 559.535 469.478 559.457C470.914 559.367 471.922 560.025 471.819 560.193L471.806 560.167Z" fill="#003A5C"/>
<g opacity="0.3">
<path d="M472.336 547.833L472.129 551.742L450.377 551.6L450.416 547.098L472.336 547.833Z" fill="black"/>
</g>
<path d="M471.958 555.742C471.958 555.832 471.104 555.961 469.747 555.742C469.074 555.625 468.272 555.419 467.445 555.058C467.031 554.877 466.604 554.671 466.177 554.413C465.97 554.284 465.738 554.168 465.518 553.91C465.285 553.69 465.156 553.148 465.44 552.8C465.673 552.478 466.074 552.336 466.397 552.323C466.72 552.323 466.992 552.374 467.225 552.426C467.716 552.542 468.182 552.697 468.596 552.877C469.436 553.239 470.109 553.716 470.613 554.155C471.622 555.071 471.958 555.845 471.893 555.883C471.79 555.948 471.311 555.303 470.277 554.555C469.759 554.18 469.1 553.793 468.311 553.497C467.923 553.342 467.496 553.213 467.044 553.123C466.578 553.006 466.177 553.006 466.048 553.2C466.009 553.277 465.996 553.303 466.087 553.432C466.19 553.548 466.371 553.677 466.578 553.793C466.966 554.039 467.354 554.245 467.742 554.439C468.505 554.8 469.242 555.058 469.876 555.226C471.143 555.561 471.971 555.613 471.971 555.729L471.958 555.742Z" fill="#003A5C"/>
<path d="M471.675 556.051C471.597 556.077 471.183 555.342 471.131 554C471.106 553.329 471.196 552.529 471.468 551.665C471.61 551.239 471.804 550.8 472.05 550.375C472.321 549.949 472.644 549.394 473.485 549.291C473.925 549.278 474.287 549.6 474.403 549.884C474.545 550.168 474.571 550.413 474.623 550.658C474.701 551.149 474.675 551.639 474.597 552.09C474.442 552.994 474.041 553.742 473.614 554.297C472.735 555.406 471.83 555.651 471.804 555.574C471.739 555.471 472.489 555.071 473.175 554.013C473.511 553.497 473.808 552.8 473.912 552.013C473.964 551.613 473.963 551.2 473.886 550.787C473.821 550.336 473.653 549.975 473.472 550.013C473.252 550.013 472.877 550.349 472.683 550.71C472.45 551.097 472.256 551.484 472.114 551.858C471.83 552.632 471.687 553.368 471.649 553.987C471.571 555.238 471.778 556.012 471.662 556.038L471.675 556.051Z" fill="#003A5C"/>
<path d="M460.734 540.144L463.1 569.804L471.92 592.975C472.553 594.639 471.622 596.445 469.877 596.884C468.907 597.129 467.859 596.91 467.057 596.278C461.962 592.239 443.314 577.3 443.262 575.132C443.211 572.617 438.633 543.937 438.633 543.937L460.721 540.157L460.734 540.144Z" fill="#003A5C"/>
<g opacity="0.6">
<path opacity="0.7" d="M469.732 597L444 575.764L444.129 577.015C444.246 578.099 444.737 579.131 445.552 579.905C447.712 581.995 448.68 584.078 462.789 595.366C463.604 596.024 468.737 597.284 469.732 597Z" fill="#212121"/>
<path d="M469.876 596.884L443.055 573.132L443.184 574.384C443.3 575.468 443.792 576.5 444.607 577.274C446.766 579.364 452.857 585.002 466.966 596.29C467.781 596.948 468.88 597.168 469.876 596.884V596.884Z" fill="white"/>
</g>
<g opacity="0.6">
<path d="M448.321 563.173C449.136 563.637 449.498 564.747 449.084 565.534C448.67 566.333 447.519 566.656 446.705 566.204C445.877 565.753 445.398 564.437 445.916 563.702C446.42 562.966 447.791 562.644 448.489 563.263" fill="white"/>
</g>
<path d="M461.586 584.395C461.767 584.46 462.298 582.873 464.018 581.918C465.712 580.912 467.432 581.222 467.457 581.041C467.47 580.964 467.07 580.757 466.345 580.706C465.634 580.654 464.612 580.809 463.668 581.351C462.724 581.893 462.091 582.667 461.806 583.299C461.509 583.931 461.509 584.37 461.586 584.395V584.395Z" fill="#B0BEC5"/>
<path d="M464.16 588.214C464.315 588.33 465.195 587.311 466.721 586.769C468.234 586.202 469.617 586.395 469.656 586.202C469.734 586.047 468.195 585.505 466.462 586.15C464.729 586.769 463.992 588.137 464.16 588.214Z" fill="#B0BEC5"/>
<path d="M457.035 579.57C457.19 579.699 458.535 578.112 460.824 577.067C463.1 575.984 465.247 575.945 465.234 575.752C465.273 575.597 462.971 575.326 460.514 576.474C458.057 577.596 456.88 579.493 457.035 579.557V579.57Z" fill="#B0BEC5"/>
<path d="M455.535 570.578C455.639 570.746 457.242 569.959 459.428 569.739C461.6 569.494 463.398 569.92 463.437 569.739C463.501 569.585 461.665 568.836 459.324 569.094C456.984 569.339 455.419 570.449 455.535 570.578Z" fill="#B0BEC5"/>
<path d="M454.617 561.883C454.733 562.05 456.311 560.954 458.639 560.902C460.953 560.812 462.686 561.805 462.777 561.625C462.816 561.56 462.453 561.212 461.703 560.863C460.966 560.515 459.841 560.218 458.587 560.244C457.332 560.283 456.259 560.657 455.574 561.044C454.888 561.431 454.565 561.805 454.617 561.87V561.883Z" fill="#B0BEC5"/>
<path d="M458.419 559.264C458.419 559.264 458.484 558.864 458.342 558.141C458.199 557.432 457.876 556.387 457.126 555.264C456.738 554.735 456.324 554.052 455.432 553.716C454.992 553.548 454.372 553.664 454.048 554.077C453.725 554.477 453.673 554.98 453.699 555.445C453.919 557.328 455.768 559.031 457.967 559.16C460.178 559.251 462.027 557.909 462.713 556.232C462.855 555.793 462.933 555.277 462.648 554.787C462.364 554.297 461.73 554.142 461.29 554.232C460.398 554.426 459.881 554.968 459.389 555.38C458.419 556.271 457.863 557.174 457.553 557.819C457.242 558.464 457.152 558.864 457.191 558.877C457.307 558.941 457.812 557.367 459.713 555.729C460.191 555.355 460.747 554.877 461.394 554.774C461.704 554.722 461.989 554.826 462.131 555.071C462.273 555.303 462.247 555.677 462.118 556.013C461.523 557.393 459.829 558.606 457.967 558.503C456.117 558.412 454.488 556.903 454.294 555.393C454.255 555.032 454.32 554.658 454.488 554.426C454.669 554.206 454.954 554.116 455.251 554.219C455.872 554.413 456.324 555.006 456.712 555.509C458.212 557.599 458.264 559.289 458.393 559.251L458.419 559.264Z" fill="#B0BEC5"/>
<path d="M485.473 305.353C485.473 305.353 499.246 330.42 499 357.603C498.767 384.786 471.571 552.465 471.571 552.465L438.905 543.563C438.09 548.955 437.651 476.345 442.63 447.227C439.433 371.883 433.496 325.764 433.496 325.764L482.925 305.237" fill="url(#paint2_linear_1_559)"/>
<path d="M411.167 317.183C411.167 317.183 400.162 344.457 403.834 365.666C407.494 386.876 434.897 561.624 434.897 561.624L466.942 555.38L465.009 438.551L460.898 355.445C460.898 355.445 463.639 350.879 472.316 338.093C480.993 325.308 486.93 312.979 486.93 312.979L411.154 317.183H411.167Z" fill="url(#paint3_linear_1_559)"/>
<path d="M460.943 355.397C460.943 355.397 460.981 355.565 461.007 355.9C461.046 356.261 461.085 356.765 461.15 357.384C461.253 358.726 461.408 360.648 461.602 363.099C461.99 368.066 462.494 375.252 463.051 384.128C464.176 401.893 465.417 426.457 466.193 453.602C466.956 480.759 467.098 505.349 466.995 523.153C466.943 532.055 466.853 539.253 466.736 544.233C466.684 546.697 466.633 548.62 466.607 549.962C466.581 550.594 466.568 551.084 466.555 551.445C466.542 551.781 466.529 551.948 466.516 551.948C466.516 551.948 466.49 551.781 466.49 551.445C466.49 551.071 466.49 550.581 466.478 549.949C466.478 548.607 466.478 546.672 466.478 544.22C466.478 539.202 466.503 532.016 466.516 523.14C466.516 505.349 466.284 480.759 465.521 453.615C464.745 426.47 463.568 401.919 462.572 384.154C462.055 375.304 461.628 368.118 461.331 363.112C461.188 360.661 461.072 358.738 460.994 357.397C460.968 356.764 460.943 356.274 460.93 355.913C460.93 355.578 460.93 355.41 460.93 355.41L460.943 355.397Z" fill="#AC9F95"/>
<path d="M413.686 204.903C413.686 204.903 398.245 211.264 394.275 213.818C390.305 216.373 407.97 271.564 407.97 271.564C407.97 271.564 416.401 294.309 413.699 304.256C412.173 309.856 409.534 315.79 408.306 320.964C407.039 326.305 410.31 331.672 415.651 332.975C425.156 335.31 443.507 338.419 459.504 333.052C472.371 328.73 481.307 323.647 486.648 320.035C490.916 317.145 492.247 311.468 489.765 306.953C488.808 305.198 487.54 303.34 485.885 301.573C480.764 296.064 476.794 275.151 475.785 269.397C475.617 268.442 475.591 267.501 475.707 266.546C476.328 261.14 478.333 241.324 475.371 231.583C473.005 223.791 467.884 214.476 464.896 209.393C463.487 207.006 461.146 205.303 458.443 204.697L442.627 201.239C441.515 200.994 439.627 201.33 438.502 201.472L414.759 204.929L413.673 204.903H413.686Z" fill="url(#paint4_linear_1_559)"/>
<g opacity="0.3">
<path d="M414.553 302.192L411.307 311.61C411.307 311.61 431.481 305.65 438.205 298.36C444.93 291.058 451.473 285.678 454.474 285.446C457.474 285.227 470.328 285.704 472.514 287.601C474.699 289.484 482.122 294.593 482.122 294.593L479.006 284.453L470.716 277.434L445.357 273.835L414.553 302.205V302.192Z" fill="black"/>
</g>
<g style="mix-blend-mode:multiply" opacity="0.7">
<path d="M391.837 216.268C391.837 216.268 392.502 213.792 392.049 225.365C392.049 225.365 387.352 235.917 387.223 241.542C386.887 257.256 386.176 288.022 387.224 295.608C389.125 309.322 397.592 311.364 403.347 311.583C409.101 311.803 438.689 286.623 438.689 286.623L431.901 273.434L409.205 278.427C409.205 278.427 409.114 256.533 409.399 249.102C409.683 241.671 391.824 216.256 391.824 216.256L391.837 216.268Z" fill="#78909C"/>
</g>
<path d="M394.29 213.818C394.29 213.818 387.655 218.192 387.203 229.764C387.203 229.764 387.022 233.467 386.892 239.092C386.556 254.806 386.142 285.562 387.19 293.148C389.091 306.862 400.044 308.914 405.799 309.133C411.554 309.352 443.276 285.536 443.276 285.536L434.353 270.984L411.657 275.977C411.657 275.977 411.567 254.083 411.851 246.652C412.136 239.221 394.277 213.805 394.277 213.805L394.29 213.818Z" fill="url(#paint5_linear_1_559)"/>
<path d="M459.984 205.187C459.984 205.187 474.171 209.096 479.408 221.714C484.012 232.796 513.574 282.892 497.009 291.29C485.046 297.354 470.653 281.795 470.653 281.795L476.268 252.318L473.409 242.517L466.465 235.166L467.691 224.956L459.984 205.187Z" fill="url(#paint6_linear_1_559)"/>
<path d="M485.279 235.247C485.343 235.415 482.227 236.795 478.153 237.814C474.079 238.834 470.678 239.079 470.652 238.911C470.627 238.717 473.963 238.176 477.985 237.169C482.007 236.176 485.201 235.079 485.279 235.26V235.247Z" fill="#F9E8F4"/>
<path d="M490.747 246.858C490.811 247.013 487.798 248.29 483.841 249.039C479.897 249.8 476.625 249.748 476.625 249.581C476.625 249.387 479.832 249.142 483.712 248.381C487.604 247.645 490.669 246.678 490.734 246.858H490.747Z" fill="#F9E8F4"/>
<path d="M474.997 259.876C474.868 259.837 475.708 257.799 475.85 254.328C475.993 250.909 475.165 245.955 472.152 241.607C471.169 240.175 470.018 238.95 468.828 237.853C467.652 236.757 466.527 235.595 465.958 234.241L465.932 234.163V234.086C466.41 231.312 466.798 228.964 467.108 227.171C467.406 225.507 467.6 224.552 467.665 224.565C467.716 224.565 467.626 225.532 467.419 227.222C467.173 229.029 466.85 231.39 466.475 234.176V234.034C467.561 236.524 470.729 238.214 472.682 241.272C475.799 245.762 476.562 250.871 476.316 254.354C476.2 256.121 475.85 257.515 475.592 258.457C475.281 259.385 475.075 259.889 475.036 259.876H474.997Z" fill="#B76690"/>
<path d="M479.651 267.488C478.85 265.217 478.475 262.792 478.565 260.392C478.617 258.947 478.63 257.45 478.203 256.07C477.763 254.69 476.276 253.348 474.854 253.645L473.936 264.275L479.664 267.501L479.651 267.488Z" fill="#EBCAB9"/>
<path d="M475.734 243.272L472.514 280.841L454.318 281.899L455.314 245.001C455.34 244.033 456.077 243.221 457.047 243.104L473.548 241.156C474.777 241.014 475.837 242.034 475.734 243.272V243.272Z" fill="#263238"/>
<path d="M456.567 255.219C456.567 255.219 456.645 254.819 456.71 254.109C456.774 253.322 456.865 252.303 456.968 251.065C457.059 249.762 457.175 248.239 457.292 246.549C457.305 246.343 457.305 246.11 457.356 245.943C457.395 245.762 457.486 245.581 457.615 245.44C457.744 245.298 457.912 245.182 458.093 245.117C458.262 245.053 458.494 245.04 458.727 245.014C459.645 244.898 460.602 244.782 461.572 244.665C465.478 244.175 469.008 243.711 471.569 243.362C472.797 243.182 473.806 243.04 474.595 242.924C475.306 242.808 475.694 242.743 475.694 242.717C475.694 242.692 475.293 242.717 474.569 242.782C473.78 242.859 472.758 242.975 471.53 243.104C468.969 243.388 465.426 243.814 461.52 244.304C460.551 244.433 459.594 244.549 458.675 244.665C458.456 244.704 458.21 244.704 457.964 244.795C457.718 244.885 457.499 245.027 457.33 245.22C457.162 245.414 457.046 245.646 456.994 245.878C456.943 246.136 456.955 246.33 456.93 246.549C456.839 248.226 456.761 249.762 456.684 251.065C456.632 252.303 456.58 253.322 456.555 254.109C456.529 254.832 456.529 255.232 456.555 255.232L456.567 255.219Z" fill="#78909C"/>
<path d="M465.258 246.072C465.388 245.723 465.711 245.285 466.267 245.414C466.487 245.414 466.926 245.685 466.991 246.059C467.056 246.42 466.901 246.82 466.603 247.039C466.306 247.259 465.866 247.272 465.569 247.065C465.258 246.859 465.116 246.433 465.258 246.085V246.072Z" fill="#FAFAFA"/>
<path d="M467.082 257.063C467.509 257.115 477.661 260.895 477.661 260.895L483.273 265.54C483.273 265.54 485.433 268.365 484.541 273.267C483.648 278.183 481.463 280.131 476.135 282.144L465.556 281.744L459.789 278.08C458.651 277.357 458.069 276.015 458.327 274.699L458.366 274.467L457.655 273.551C457.202 272.971 457.151 272.184 457.513 271.552C458.004 270.687 459.116 270.378 459.983 270.868L466.423 274.48L470.561 274.532L471.014 273.126L464.677 270.752L456.388 265.798C455.288 265.14 454.965 263.708 455.663 262.65C456.258 261.734 457.435 261.398 458.431 261.837L465.97 265.127L473.716 267.488L472.203 264.714L462.789 259.36C462.789 259.36 461.741 256.38 467.069 257.089L467.082 257.063Z" fill="url(#paint7_linear_1_559)"/>
<path d="M465.569 252.148C465.569 252.148 463.448 251.245 460.293 253.013C457.15 254.78 453.18 257.347 453.18 257.347L447.05 259.915L447.607 258.263C447.607 258.263 453.943 258.147 453.09 253.645L449.339 254.264L445.9 252.987L440.274 259.928L438.541 267.797L434.998 271.552L442.007 283.344L452.197 279.899L461.276 279.344L465.388 275.138L465.336 270.416L469.242 265.359C469.242 265.359 469.539 263.024 467.457 263.05C465.375 263.076 461.03 268.559 461.03 268.559L456.09 269.268C456.09 269.268 455.146 268.597 455.792 268.068C456.439 267.552 470.173 258.65 470.625 256.96C471.078 255.27 471.621 254.148 470.121 253.877C468.621 253.606 466.306 254.716 466.306 254.716C466.306 254.716 466.707 252.355 465.569 252.135V252.148Z" fill="url(#paint8_linear_1_559)"/>
<path d="M454.577 262.534C454.629 262.624 457.383 260.921 460.72 258.728C464.056 256.534 466.707 254.69 466.656 254.612C466.604 254.522 463.849 256.225 460.513 258.418C457.176 260.611 454.525 262.456 454.577 262.534Z" fill="#BD9078"/>
<path d="M453.026 274.519C453.026 274.519 453.297 274.596 453.801 274.674C454.306 274.738 455.03 274.829 455.935 274.88C456.84 274.932 457.927 274.932 459.129 274.725C460.319 274.519 461.599 274.029 462.763 273.242C465.104 271.655 466.514 269.5 467.458 267.978C467.923 267.204 468.272 266.559 468.505 266.12C468.738 265.669 468.854 265.424 468.828 265.411C468.777 265.385 468.195 266.34 467.225 267.836C466.242 269.32 464.807 271.41 462.543 272.932C461.418 273.693 460.216 274.171 459.065 274.39C457.914 274.609 456.84 274.635 455.948 274.622C454.151 274.571 453.038 274.467 453.038 274.532L453.026 274.519Z" fill="#BD9078"/>
<path d="M435.011 271.539C435.011 271.539 435.102 271.461 435.257 271.306C435.425 271.139 435.658 270.907 435.955 270.597C436.576 269.952 437.468 269.036 438.619 267.836H438.632V267.797C439.097 265.746 439.692 263.101 440.391 259.94L440.365 259.979C442.033 257.941 443.921 255.618 446.016 253.051L445.861 253.09C446.921 253.49 448.098 253.928 449.301 254.367H449.34H449.378C450.542 254.174 451.823 253.967 453.129 253.761L452.948 253.632C453.012 254.251 453.077 254.922 452.805 255.502C452.573 256.096 452.12 256.586 451.564 256.96C450.439 257.683 449.016 257.979 447.607 258.057H447.49L447.452 258.173C447.283 258.676 447.089 259.257 446.883 259.824L446.766 260.186L447.115 260.044C449.042 259.244 451.111 258.379 453.245 257.489H453.258L453.271 257.476C455.107 256.302 457.021 255.102 459.013 253.941C460.009 253.361 461.004 252.741 462.104 252.406C463.19 252.058 464.431 251.955 465.492 252.303H465.518C465.867 252.367 466.074 252.78 466.138 253.245C466.203 253.696 466.177 254.199 466.112 254.677L466.061 255.025L466.384 254.883C467.044 254.586 467.742 254.328 468.466 254.174C469.177 254.019 469.979 253.916 470.574 254.238C470.871 254.38 470.936 254.69 470.91 255.051C470.871 255.412 470.768 255.786 470.664 256.16C470.535 256.522 470.496 256.96 470.289 257.192C470.07 257.476 469.785 257.76 469.501 258.018C467.108 260.108 464.483 261.876 461.974 263.643C460.694 264.507 459.44 265.372 458.185 266.223C457.564 266.649 456.931 267.062 456.323 267.488L455.857 267.81C455.715 267.913 455.495 268.055 455.418 268.313C455.34 268.571 455.444 268.817 455.56 268.997C455.689 269.178 455.819 269.307 455.987 269.436L456.038 269.474H456.116C457.784 269.216 459.44 268.984 461.056 268.752H461.121L461.172 268.688C462.491 267.075 463.862 265.54 465.401 264.301C466.164 263.721 467.018 263.075 467.923 263.282C468.363 263.359 468.712 263.643 468.893 264.043C469.074 264.443 469.126 264.92 469.087 265.346L469.126 265.269C467.768 267.036 466.475 268.713 465.233 270.326L465.194 270.365V270.416C465.22 272.042 465.233 273.616 465.259 275.138L465.298 275.035C463.849 276.532 462.479 277.925 461.198 279.254L461.289 279.215C457.797 279.434 454.797 279.628 452.211 279.796H452.198C448.952 280.918 446.404 281.795 444.671 282.389C443.818 282.685 443.171 282.918 442.706 283.072C442.499 283.15 442.33 283.214 442.201 283.253C442.085 283.292 442.033 283.318 442.033 283.318C442.033 283.318 442.098 283.318 442.201 283.279C442.33 283.24 442.499 283.189 442.706 283.124C443.171 282.969 443.831 282.763 444.684 282.479C446.43 281.898 448.978 281.06 452.249 279.976H452.223C454.797 279.834 457.81 279.667 461.302 279.46H461.353L461.392 279.421C462.685 278.105 464.043 276.712 465.505 275.228L465.543 275.19V275.125C465.53 273.616 465.518 272.042 465.492 270.403L465.466 270.494C466.72 268.881 468.013 267.204 469.384 265.449L469.41 265.411V265.372C469.462 264.869 469.41 264.366 469.203 263.888C469.1 263.656 468.932 263.437 468.725 263.256C468.505 263.101 468.259 262.972 468 262.934C467.483 262.805 466.927 262.946 466.475 263.179C466.022 263.424 465.595 263.695 465.207 264.017C463.629 265.294 462.246 266.83 460.914 268.455L461.03 268.391C459.414 268.623 457.771 268.855 456.09 269.1L456.219 269.139C455.974 268.958 455.715 268.636 455.78 268.429C455.844 268.223 456.258 268.017 456.53 267.81C457.151 267.397 457.771 266.972 458.392 266.559C459.646 265.707 460.901 264.843 462.181 263.979C464.716 262.211 467.315 260.444 469.759 258.315C470.057 258.044 470.341 257.773 470.6 257.438C470.729 257.283 470.846 257.012 470.871 256.844L471.027 256.276C471.13 255.902 471.246 255.515 471.285 255.102C471.311 254.896 471.298 254.664 471.221 254.444C471.143 254.212 470.962 254.019 470.768 253.928C469.966 253.528 469.126 253.683 468.388 253.825C467.625 253.993 466.914 254.251 466.229 254.573L466.5 254.78C466.578 254.264 466.604 253.748 466.526 253.232C466.487 252.974 466.423 252.716 466.281 252.483C466.151 252.238 465.893 252.045 465.608 251.993H465.647C464.418 251.593 463.151 251.748 462 252.096C460.836 252.458 459.827 253.09 458.832 253.67C456.84 254.844 454.926 256.031 453.09 257.218H453.116C450.995 258.096 448.926 258.96 446.999 259.773L447.219 259.979C447.413 259.399 447.607 258.831 447.775 258.328L447.62 258.444C449.081 258.354 450.529 258.057 451.745 257.283C452.34 256.896 452.844 256.341 453.103 255.683C453.4 255.025 453.336 254.303 453.258 253.632V253.477L453.077 253.503C451.771 253.722 450.491 253.928 449.327 254.122H449.404C448.202 253.683 447.038 253.258 445.964 252.871L445.874 252.832L445.809 252.909C443.74 255.489 441.852 257.825 440.21 259.876V259.902L440.184 259.928C439.498 263.101 438.929 265.746 438.49 267.797V267.759C437.378 268.971 436.498 269.913 435.89 270.571C435.606 270.881 435.386 271.126 435.218 271.306C435.076 271.474 434.998 271.565 434.998 271.565L435.011 271.539Z" fill="#BD9078"/>
<path d="M414.565 275.461C414.539 275.577 413.647 275.422 412.224 275.486C410.802 275.551 408.849 275.938 406.922 276.944C405.008 277.963 403.573 279.357 402.732 280.492C401.879 281.627 401.504 282.453 401.4 282.401C401.336 282.376 401.53 281.473 402.318 280.195C403.094 278.931 404.569 277.383 406.586 276.312C408.616 275.241 410.724 274.906 412.211 274.97C413.711 275.035 414.578 275.383 414.552 275.448L414.565 275.461Z" fill="#D27BA9"/>
<path d="M412.497 246.084C412.691 246.084 412.704 252.612 412.536 260.65C412.355 268.687 412.057 275.202 411.863 275.202C411.669 275.202 411.656 268.674 411.824 260.637C412.005 252.599 412.303 246.084 412.497 246.097V246.084Z" fill="#B76690"/>
<path d="M386.968 232.848C386.968 232.848 386.981 233.002 386.994 233.286C386.994 233.609 386.994 234.034 386.981 234.576C386.955 235.75 386.93 237.402 386.891 239.505C386.826 243.839 386.749 250.032 386.632 257.657C386.58 265.32 386.542 274.441 386.8 284.569C386.839 285.833 386.878 287.11 386.917 288.413C386.943 289.059 386.968 289.717 386.994 290.362C387.059 291.007 387.124 291.652 387.188 292.31C387.24 293.626 387.641 294.89 387.912 296.193C388.365 297.444 388.753 298.735 389.451 299.896C390.732 302.27 392.646 304.347 395.012 305.843C397.366 307.353 400.133 308.294 402.978 308.63C403.146 308.643 403.314 308.656 403.483 308.669H403.521C405.603 308.978 407.737 308.475 409.69 307.727C411.656 306.966 413.505 305.946 415.328 304.927C418.962 302.876 422.441 300.747 425.713 298.567C432.282 294.206 438.089 289.678 443.093 285.33L443.042 285.704C439.705 280.208 436.731 275.319 434.183 271.126L434.429 271.229C428.183 272.519 423.243 273.68 419.842 274.403C418.173 274.751 416.88 275.035 415.949 275.228C415.535 275.306 415.199 275.37 414.94 275.422C414.708 275.461 414.591 275.473 414.591 275.473C414.591 275.473 414.695 275.422 414.927 275.37C415.186 275.306 415.509 275.215 415.923 275.112C416.841 274.893 418.135 274.57 419.79 274.17C423.178 273.383 428.092 272.145 434.338 270.79L434.494 270.752L434.584 270.894C437.17 275.074 440.171 279.937 443.559 285.408L443.688 285.614L443.507 285.782C438.515 290.181 432.696 294.748 426.114 299.147C422.829 301.341 419.337 303.495 415.69 305.559C413.867 306.591 411.992 307.636 409.962 308.411C407.944 309.185 405.707 309.726 403.431 309.391H403.47C403.289 309.391 403.108 309.365 402.914 309.352C399.939 309.004 397.094 308.023 394.637 306.45C392.18 304.888 390.176 302.721 388.844 300.244C388.119 299.031 387.706 297.69 387.253 296.399C386.981 295.058 386.58 293.742 386.516 292.4C386.451 291.729 386.386 291.071 386.322 290.413C386.296 289.755 386.27 289.11 386.257 288.452C386.218 287.149 386.18 285.872 386.154 284.608C385.934 274.467 386.024 265.346 386.141 257.67C386.27 250.006 386.451 243.801 386.619 239.518C386.71 237.415 386.787 235.763 386.839 234.589C386.878 234.06 386.904 233.635 386.93 233.312C386.955 233.028 386.968 232.873 386.981 232.873L386.968 232.848Z" fill="#D27BA9"/>
<path d="M491.809 292.645C491.809 292.645 491.459 292.722 490.839 292.735C490.218 292.761 489.313 292.697 488.214 292.542C487.101 292.4 485.808 292.077 484.399 291.626C483.002 291.136 481.515 290.465 480.028 289.626C477.066 287.936 474.725 285.911 473.096 284.414C471.48 282.892 470.587 281.86 470.652 281.795C470.729 281.718 471.751 282.621 473.432 284.04C475.126 285.433 477.48 287.368 480.377 289.02C481.825 289.845 483.261 290.503 484.606 291.019C485.963 291.497 487.218 291.858 488.291 292.064C490.438 292.49 491.809 292.542 491.796 292.658L491.809 292.645Z" fill="#D27BA9"/>
<path d="M496.141 269.113C496.011 269.294 493.515 267.178 489.752 266.094C486.002 264.959 482.756 265.398 482.743 265.178C482.678 265.023 486.015 264.236 489.959 265.41C493.903 266.546 496.296 269.01 496.154 269.1L496.141 269.113Z" fill="#D27BA9"/>
<path d="M490.527 262.791C490.514 262.998 488.6 262.907 486.35 263.449C484.1 263.978 482.432 264.92 482.328 264.739C482.212 264.597 483.79 263.32 486.195 262.753C488.587 262.172 490.579 262.598 490.54 262.778L490.527 262.791Z" fill="#D27BA9"/>
<g opacity="0.3">
<path d="M411.591 274.828C409.781 273.487 407.427 272.893 405.203 273.19C402.966 273.499 400.871 274.699 399.487 276.48C398.944 277.176 398.504 277.989 398.465 278.866C398.426 279.744 398.879 280.686 399.707 281.008C400.871 281.46 402.164 280.686 403.069 279.834C405.785 277.215 408.112 276.028 411.876 275.202" fill="#BC678F"/>
</g>
<g opacity="0.3">
<path d="M483.051 265.537C486.724 265.163 490.241 266.956 493.875 267.588C494.535 267.704 495.272 267.769 495.815 267.382C496.242 267.072 496.462 266.53 496.449 266.001C496.436 265.472 496.203 264.969 495.867 264.556C494.845 263.266 493.061 262.866 491.418 262.776C489.724 262.686 488.017 262.828 486.362 263.202C484.991 263.511 483.53 264.066 482.818 265.279" fill="#BC678F"/>
</g>
<path d="M414.088 234.022C413.985 234.035 413.687 232.37 412.976 229.738C412.252 227.132 411.049 223.468 408.437 220.243C405.825 217.044 402.217 215.379 399.553 215.044C396.85 214.67 395.208 215.353 395.182 215.212C395.182 215.186 395.557 215.005 396.32 214.812C397.07 214.618 398.208 214.489 399.604 214.618C402.385 214.863 406.174 216.527 408.902 219.856C411.592 223.197 412.756 226.965 413.377 229.622C413.687 230.964 413.881 232.061 413.985 232.822C414.088 233.583 414.114 234.009 414.075 234.009L414.088 234.022Z" fill="#D27BA9"/>
<path d="M443.92 199.872C443.92 199.872 444.088 200.272 444.257 201.033C444.334 201.42 444.425 201.884 444.451 202.452C444.489 203.007 444.386 203.729 443.959 204.336C443.545 204.916 443.119 205.548 442.472 206.116C441.838 206.671 441.049 207.135 440.209 207.522C438.502 208.283 436.536 208.851 434.441 209.277C430.238 210.128 426.294 209.909 423.552 209.432C422.169 209.199 421.082 208.89 420.332 208.67C419.595 208.425 419.194 208.271 419.207 208.219C419.233 208.116 420.876 208.645 423.617 209.006C426.346 209.367 430.2 209.509 434.325 208.683C436.381 208.271 438.321 207.716 439.989 207.019C440.817 206.658 441.554 206.232 442.162 205.729C442.769 205.239 443.209 204.619 443.623 204.091C444.024 203.562 444.14 202.981 444.14 202.452C444.14 201.923 444.088 201.446 444.05 201.059C443.959 200.298 443.895 199.872 443.946 199.859L443.92 199.872Z" fill="#D27BA9"/>
<path d="M477.375 311.545C477.375 311.545 477.233 311.662 476.922 311.855C476.547 312.061 476.095 312.319 475.552 312.616C474.957 312.952 474.22 313.339 473.353 313.752C472.487 314.164 471.504 314.668 470.379 315.145C468.154 316.138 465.439 317.183 462.387 318.19C459.309 319.157 455.882 320.073 452.235 320.783C448.575 321.467 445.045 321.879 441.838 322.099C438.618 322.292 435.708 322.318 433.277 322.202C432.061 322.176 430.962 322.073 429.992 322.008C429.022 321.944 428.195 321.854 427.522 321.763C426.901 321.673 426.397 321.608 425.97 321.557C425.621 321.505 425.427 321.467 425.44 321.441C425.44 321.415 425.634 321.415 425.996 321.441C426.423 321.467 426.94 321.505 427.561 321.544C428.233 321.596 429.061 321.66 430.031 321.686C430.988 321.725 432.087 321.802 433.303 321.789C435.721 321.841 438.618 321.776 441.812 321.557C445.006 321.299 448.511 320.873 452.145 320.202C455.779 319.493 459.18 318.602 462.245 317.674C465.296 316.706 468.012 315.713 470.236 314.771C471.362 314.332 472.357 313.855 473.237 313.468C474.116 313.081 474.866 312.719 475.474 312.423C476.03 312.165 476.509 311.945 476.884 311.752C477.207 311.61 477.388 311.533 477.401 311.558L477.375 311.545Z" fill="#B76690"/>
<path d="M412.457 245.646C412.457 245.723 410.97 245.646 408.616 245.194C406.263 244.755 403.055 243.904 399.667 242.524C396.279 241.143 393.395 239.505 391.404 238.176C389.412 236.847 388.3 235.879 388.339 235.815C388.403 235.725 389.619 236.563 391.649 237.776C393.68 238.989 396.564 240.537 399.913 241.904C403.262 243.259 406.405 244.175 408.707 244.73C411.009 245.284 412.457 245.542 412.444 245.646H412.457Z" fill="#F9E8F4"/>
<path d="M412.793 253.851C412.793 253.928 411.293 254.057 408.874 254.006C406.443 253.954 403.094 253.683 399.447 252.999C395.8 252.315 392.58 251.361 390.291 250.522C388.015 249.697 386.657 249.039 386.696 248.961C386.735 248.871 388.145 249.361 390.446 250.071C392.748 250.78 395.955 251.658 399.576 252.328C403.184 252.999 406.495 253.348 408.9 253.515C411.306 253.696 412.806 253.735 412.806 253.838L412.793 253.851Z" fill="#F9E8F4"/>
<path d="M468.219 236.589C468.219 236.589 467.469 236.886 466.086 237.311C464.702 237.737 462.697 238.318 460.202 239.014C455.223 240.408 448.317 242.227 440.648 244.085C432.98 245.929 425.996 247.465 420.927 248.497C418.392 249.013 416.336 249.413 414.914 249.671C413.491 249.929 412.702 250.045 412.689 250.006C412.689 249.955 413.452 249.761 414.862 249.426C416.375 249.077 418.392 248.613 420.824 248.045C425.867 246.897 432.812 245.297 440.48 243.452C448.136 241.607 455.055 239.853 460.072 238.576C462.491 237.969 464.495 237.466 466.008 237.079C467.418 236.731 468.194 236.563 468.207 236.615L468.219 236.589Z" fill="#F9E8F4"/>
<path fill-rule="evenodd" clip-rule="evenodd" d="M433.848 120.593C439.964 122.258 445.008 127.392 446.547 133.521L446.56 133.546C447.594 137.688 446.883 142.59 443.611 145.338C439.809 148.538 434.184 147.828 429.308 146.835C429.143 146.801 428.977 146.767 428.811 146.734C426.527 146.482 425.091 146.943 423.361 148.138C420.633 150.021 419.728 152.885 419.43 155.066C419.025 157.967 420.605 160.715 422.172 163.441C423.86 166.376 425.532 169.284 424.693 172.328C424.244 173.964 423.085 175.273 421.93 176.578C420.69 177.979 419.455 179.375 419.107 181.165C418.637 183.612 419.95 185.854 421.256 188.085C421.712 188.864 422.168 189.643 422.547 190.428C423.866 193.138 424.28 196.298 423.53 199.214C422.779 202.13 420.814 204.749 418.137 206.116C416.277 207.068 414.193 207.401 412.112 207.732C411.458 207.837 410.804 207.941 410.158 208.064C409.556 208.179 408.765 208.279 407.882 208.39C404.795 208.778 400.589 209.306 399.463 211.122C394.911 197.37 396.565 183.243 398.243 168.913C398.559 166.212 398.876 163.504 399.152 160.791C397.687 160.145 396.562 158.922 396.5 157.323L397.858 144.564C397.767 141.648 401.75 135.185 404.466 134.114C407.182 133.043 408.527 132.45 410.945 130.824C412.347 129.875 413.453 128.581 414.56 127.285C415.138 126.608 415.717 125.931 416.338 125.302C420.786 120.8 427.731 118.929 433.848 120.593Z" fill="url(#paint9_linear_1_559)"/>
<path d="M399.036 209.69C399.036 209.69 399.295 209.329 399.812 208.658C400.304 207.974 401.015 206.955 401.7 205.51C402.373 204.078 403.032 202.22 403.343 199.988C403.627 197.769 403.601 195.137 402.774 192.428C401.985 189.706 400.355 186.971 399.424 183.668C398.972 182.029 398.765 180.159 399.347 178.365C399.877 176.546 401.196 175.063 402.541 173.734C403.886 172.392 405.36 171.102 406.291 169.425C407.248 167.761 407.3 165.709 406.782 163.774C406.265 161.826 405.36 159.929 404.623 157.904C403.873 155.917 403.42 153.608 403.808 151.402C404.093 149.196 404.765 147.067 405.735 145.132C406.718 143.209 408.011 141.429 409.744 140.165C410.597 139.52 411.567 139.055 412.537 138.707C413.507 138.333 414.516 138.1 415.524 137.959C417.529 137.662 419.495 137.752 421.305 137.365C423.103 137.004 424.745 136.088 425.922 134.811C427.124 133.521 428.159 132.101 429.219 130.798C430.28 129.482 431.366 128.218 432.698 127.289C433.345 126.812 434.172 126.515 434.948 126.464C435.711 126.399 436.474 126.425 437.199 126.541C440.121 126.992 442.462 128.618 443.82 130.502C445.19 132.359 446.018 134.178 446.484 135.727C446.949 137.275 447.001 138.565 446.872 139.404C446.742 140.255 446.51 140.642 446.51 140.642C446.471 140.629 446.652 140.216 446.742 139.391C446.82 138.565 446.742 137.314 446.238 135.804C445.747 134.295 444.893 132.514 443.522 130.721C442.19 128.941 439.927 127.405 437.134 127.005C435.75 126.851 434.198 126.786 432.983 127.715C431.754 128.592 430.681 129.831 429.646 131.147C428.599 132.45 427.577 133.869 426.336 135.223C425.081 136.591 423.335 137.572 421.421 137.971C419.508 138.384 417.529 138.307 415.602 138.604C414.632 138.746 413.675 138.965 412.757 139.326C411.826 139.674 410.921 140.1 410.132 140.707C408.515 141.893 407.274 143.596 406.33 145.454C405.399 147.325 404.739 149.376 404.468 151.505C404.106 153.647 404.519 155.711 405.244 157.698C405.955 159.671 406.873 161.594 407.403 163.632C407.946 165.658 407.895 167.941 406.834 169.76C405.813 171.579 404.287 172.87 402.955 174.198C401.623 175.514 400.381 176.895 399.89 178.572C399.347 180.21 399.515 181.965 399.941 183.552C400.808 186.751 402.424 189.512 403.213 192.312C404.041 195.111 404.028 197.795 403.692 200.065C403.343 202.336 402.631 204.22 401.907 205.652C401.183 207.097 400.42 208.103 399.89 208.761C399.618 209.083 399.398 209.316 399.243 209.483C399.088 209.638 399.01 209.716 399.01 209.716L399.036 209.69Z" fill="#793F1D"/>
<path d="M111.833 529.113C110.81 532.567 109.655 536.722 107.711 539.785C105.892 542.653 102.703 541.888 99.9072 541.275C98.5269 540.966 95.0951 540.529 93.7804 541.346C92.3511 542.241 93.8424 543.908 95.0503 544.511C95.738 544.858 100.404 546.874 100.979 546.172C95.3587 553.062 88.2739 558.674 80.3566 562.676C77.1764 564.282 75.4764 563.081 73.5818 560.583C71.3694 557.68 69.361 554.697 67.9828 551.292C66.211 546.895 64.7716 542.355 63.7372 537.731C63.1156 534.949 59.7673 510.354 63.7053 510.82C64.4498 510.906 65.0004 511.52 65.5138 512.072C66.6235 513.282 67.8164 514.409 69.0966 515.445C69.5203 515.789 69.9755 516.137 70.506 516.255C71.0365 516.372 71.6727 516.22 71.9528 515.744C72.1768 515.363 72.1168 514.881 71.9998 514.45C71.0883 511.111 67.2962 508.977 66.9011 505.528C66.7718 504.35 67.0629 503.172 67.4221 502.036C68.7632 497.815 70.9889 493.945 73.2019 490.102C74.3771 488.058 75.5615 486.018 76.741 483.965C76.8787 483.721 77.0296 483.471 77.2401 483.283C77.8369 482.769 78.8075 482.962 79.3917 483.481C79.985 484.004 80.2885 484.767 80.5733 485.498C81.371 487.556 82.1735 489.627 82.9712 491.685C83.2227 492.323 83.4836 492.988 84.0126 493.437C84.5326 493.882 85.3856 494.019 85.8892 493.538C86.1956 493.241 86.2883 492.787 86.3368 492.356C86.9088 486.555 82.8412 480.719 86.6215 475.36C88.2037 473.111 90.6487 471.633 93.0945 470.388C95.0982 469.377 97.1533 468.468 99.2462 467.642C100.63 467.101 103.23 465.553 104.765 466.002C106.282 466.442 106.757 468.856 107.246 470.115C109.855 476.91 112.338 483.711 113.431 490.951C113.494 491.357 113.544 491.79 113.36 492.156C113.15 492.555 112.711 492.757 112.304 492.94C109.721 494.077 107.137 495.499 104.385 496.057C103.418 496.253 102.596 496.285 101.941 497.204C101.083 498.413 101.681 499.182 103.116 498.908C106.069 498.346 109.32 496.917 112.313 496.926C112.711 496.926 113.137 496.983 113.434 497.245C113.817 497.581 113.866 498.157 113.882 498.662C114.013 502.296 113.92 505.935 113.625 509.556C113.576 510.152 113.501 510.802 113.095 511.241C112.584 511.807 111.718 511.862 110.963 511.915C107.529 512.162 103.781 513.002 100.722 514.61C99.9569 515.012 99.1903 515.534 98.9134 516.355C98.8215 516.643 98.7929 516.961 98.9112 517.249C99.1292 517.795 99.774 518.022 100.344 518.125C103.183 518.625 106.035 517.55 108.862 516.972C109.508 516.846 110.208 516.745 110.797 517.045C112.068 517.701 112.406 520.404 112.516 521.694C112.718 524.146 112.53 526.722 111.827 529.077L111.833 529.113Z" fill="#FFEF5D"/>
<path d="M103.569 483.841C100.644 485.656 97.6631 487.378 94.6451 489.038C96.8214 483.961 99.1423 478.953 101.567 473.982C101.918 473.263 100.75 472.855 100.404 473.565C97.8844 478.712 95.4919 483.919 93.244 489.195C92.3981 487.778 92.0854 486.004 91.6436 484.458C91.0413 482.337 90.4432 480.208 89.8409 478.088C89.6269 477.323 88.4062 477.543 88.6292 478.312C89.2755 480.597 89.9265 482.895 90.5728 485.179C91.0834 487.002 91.482 489.015 92.6749 490.54C90.2464 496.339 88.0078 502.227 86.0395 508.198C84.2255 503.913 82.7311 499.513 81.6008 494.999C81.4091 494.233 80.1884 494.453 80.3891 495.223C81.656 500.244 83.3409 505.154 85.4156 509.894C85.4251 509.92 85.4523 509.933 85.4708 509.964C85.3036 510.482 85.1315 510.987 84.9732 511.51C83.818 515.244 82.7666 519.016 81.8455 522.817C81.7219 522.891 81.5935 522.952 81.4699 523.026C79.3113 519.331 77.1484 515.644 74.9898 511.949C74.5942 511.264 73.479 511.799 73.8794 512.497C76.1495 516.378 78.4196 520.259 80.685 524.127C80.8385 524.387 81.1597 524.55 81.4611 524.427C80.3675 529.108 79.476 533.829 78.8091 538.591C78.587 538.265 78.3539 537.845 78.2801 537.744C77.7536 537.008 77.2447 536.259 76.7316 535.519C75.5332 533.748 74.37 531.949 73.251 530.127C71.1569 526.716 69.2131 523.221 67.4019 519.656C67.0414 518.944 65.931 519.493 66.2914 520.205C69.348 526.238 72.8157 532.056 76.6755 537.605C77.1563 538.297 77.628 538.984 78.1263 539.662C78.2693 539.851 78.4164 540.031 78.5983 540.161C78.1703 543.409 77.8588 546.668 77.6548 549.934C77.6277 549.921 77.6005 549.908 77.5777 549.886C77.1725 549.573 76.8267 549.111 76.4828 548.739C75.7499 547.973 75.0126 547.215 74.2797 546.449C72.7224 544.829 71.1651 543.209 69.6078 541.589C69.0582 541.019 68.1145 541.823 68.6732 542.397C70.4595 544.258 72.2459 546.119 74.0366 547.971C74.9024 548.877 75.7596 549.802 76.6473 550.686C76.9402 550.979 77.2454 551.222 77.5842 551.371C77.5721 551.631 77.551 551.887 77.5432 552.137C77.1981 559.87 77.5112 567.638 78.6005 575.307C78.7123 576.101 79.9283 575.868 79.8122 575.083C78.7056 567.24 78.4246 559.31 78.8243 551.415C79.7358 551.171 80.6488 550.596 81.4803 550.17C82.4795 549.647 83.4734 549.087 84.4354 548.502C86.4213 547.295 88.3147 545.955 90.1252 544.509C90.7491 544.008 89.9408 543.073 89.3169 543.575C86.1972 546.083 82.8055 548.23 79.1802 549.935C79.0828 549.978 78.9986 550.015 78.9054 550.049C79.1084 546.739 79.4322 543.43 79.8592 540.137C80.133 539.979 80.3696 539.759 80.6025 539.57C81.3186 538.99 82.0347 538.411 82.7461 537.818C85.4428 535.597 88.098 533.323 90.7118 530.996C93.6677 528.366 96.5731 525.68 99.419 522.932C99.9882 522.382 99.1842 521.439 98.6107 521.997C92.7218 527.676 86.608 533.106 80.2599 538.258C80.2114 538.291 80.1592 538.354 80.1021 538.405C80.3064 536.942 80.542 535.483 80.7866 534.028C81.3837 530.539 82.1112 527.078 82.9376 523.642C87.382 521.162 91.5895 518.295 95.5112 515.048C96.1261 514.542 95.3178 513.608 94.7029 514.114C91.1457 517.056 87.3531 519.678 83.3656 521.986C84.3957 517.861 85.5653 513.769 86.8699 509.718C90.873 506.51 94.5041 502.872 97.729 498.877C98.2296 498.262 97.2119 497.56 96.7113 498.175C93.9736 501.56 90.9213 504.675 87.6074 507.501C89.0289 503.273 90.5717 499.069 92.2277 494.93C92.7698 493.571 93.339 492.225 93.8991 490.875C97.3729 488.999 100.795 487.021 104.144 484.942C104.814 484.529 104.279 483.413 103.595 483.831L103.569 483.841Z" fill="#9E9224"/>
<path d="M33.8824 545.452C35.2874 547.836 36.9211 550.717 38.9399 552.638C40.829 554.436 43.0629 553.273 45.0325 552.296C46.0035 551.809 48.4796 550.844 49.6113 551.208C50.843 551.61 50.0418 553.129 49.254 553.804C48.8061 554.19 45.704 556.56 45.1451 556.144C50.6155 560.233 56.9395 563.096 63.5842 564.605C66.2529 565.21 67.2962 563.999 68.2431 561.785C69.3516 559.21 70.293 556.613 70.6865 553.819C71.1884 550.213 71.4163 546.562 71.3264 542.923C71.272 540.735 69.1899 521.784 66.3421 522.864C65.8033 523.067 65.5073 523.627 65.2275 524.134C64.6256 525.242 63.9465 526.304 63.1853 527.314C62.9335 527.649 62.659 527.993 62.2856 528.179C61.9122 528.366 61.4097 528.37 61.1124 528.068C60.8745 527.826 60.8296 527.455 60.8366 527.112C60.8944 524.454 63.3232 522.159 62.9757 519.515C62.8529 518.613 62.4166 517.789 61.9376 517.01C60.1526 514.114 57.7738 511.644 55.4095 509.192C54.1533 507.888 52.8912 506.588 51.6302 505.278C51.4821 505.121 51.3231 504.963 51.1313 504.862C50.5908 504.59 49.9034 504.914 49.5647 505.41C49.22 505.911 49.1358 506.535 49.0597 507.134C48.8482 508.815 48.6356 510.508 48.4241 512.19C48.3556 512.712 48.2849 513.257 47.9742 513.69C47.6695 514.118 47.0594 514.379 46.5946 514.114C46.3108 513.949 46.1573 513.628 46.0411 513.316C44.5352 509.1 46.4803 503.994 42.6659 500.704C41.0682 499.322 38.9712 498.676 36.917 498.204C35.2357 497.823 33.5349 497.528 31.8217 497.302C30.6901 497.157 28.4645 496.487 27.4038 497.107C26.3549 497.717 26.4504 499.604 26.3204 500.634C25.641 506.183 25.0563 511.713 25.5891 517.312C25.6178 517.626 25.6611 517.958 25.8665 518.197C26.0973 518.454 26.4616 518.523 26.7994 518.584C28.9352 518.95 31.1261 519.529 33.2808 519.433C34.0374 519.4 34.6561 519.27 35.315 519.833C36.1798 520.574 35.8768 521.259 34.757 521.322C32.4516 521.452 29.7629 520.992 27.5344 521.556C27.2377 521.63 26.9308 521.752 26.7584 522.003C26.5353 522.324 26.6062 522.762 26.6884 523.142C27.2671 525.874 28.0134 528.568 28.9067 531.212C29.0543 531.647 29.2311 532.118 29.6154 532.369C30.1013 532.696 30.7574 532.576 31.3296 532.474C33.9349 532.019 36.884 531.948 39.463 532.577C40.1077 532.734 40.7763 532.981 41.1352 533.54C41.2574 533.738 41.3379 533.97 41.3034 534.207C41.2424 534.654 40.8042 534.943 40.3984 535.126C38.3763 536.027 36.0508 535.757 33.8362 535.852C33.3315 535.878 32.7911 535.933 32.4085 536.266C31.5829 536.992 31.834 539.069 31.9926 540.051C32.2977 541.915 32.9174 543.8 33.8797 545.425L33.8824 545.452Z" fill="#FFD25D"/>
<path d="M31.9868 511.668C34.5042 512.476 37.0459 513.204 39.6039 513.88C37.0373 510.502 34.3757 507.201 31.6438 503.949C31.2486 503.478 32.043 502.957 32.4332 503.421C35.2684 506.788 38.0203 510.223 40.6771 513.736C41.0438 512.523 40.9468 511.143 40.9882 509.908C41.0425 508.216 41.0919 506.518 41.1461 504.826C41.1633 504.216 42.1139 504.153 42.0908 504.767C42.0344 506.59 41.9769 508.424 41.9205 510.247C41.8792 511.7 41.9567 513.274 41.3517 514.633C44.2405 518.502 47.0044 522.473 49.5824 526.556C50.1368 523.026 50.4317 519.469 50.4337 515.894C50.4341 515.288 51.3847 515.225 51.3784 515.836C51.3688 519.814 51.027 523.786 50.363 527.704C50.3609 527.726 50.343 527.74 50.3349 527.767C50.556 528.122 50.7782 528.466 50.9934 528.826C52.5492 531.393 54.0347 534.009 55.4284 536.67C55.5344 536.702 55.6414 536.724 55.7473 536.756C56.6681 533.6 57.5938 530.451 58.5146 527.295C58.682 526.711 59.6127 526.902 59.4442 527.497C58.4748 530.811 57.5053 534.126 56.537 537.43C56.4711 537.652 56.262 537.834 56.0145 537.798C57.7007 541.083 59.2437 544.435 60.6267 547.859C60.7315 547.575 60.8271 547.219 60.8633 547.129C61.1188 546.484 61.3586 545.831 61.6033 545.184C62.1666 543.641 62.6987 542.084 63.1934 540.518C64.1191 537.586 64.9173 534.62 65.6036 531.627C65.7396 531.029 66.6692 531.231 66.5331 531.829C65.3781 536.893 63.8767 541.874 62.0332 546.728C61.8036 547.332 61.58 547.932 61.3348 548.53C61.2635 548.698 61.1873 548.859 61.076 548.99C61.9995 551.331 62.8381 553.702 63.5979 556.097C63.6157 556.083 63.6335 556.068 63.6465 556.047C63.8902 555.739 64.062 555.33 64.2489 554.989C64.6524 554.281 65.0609 553.58 65.4644 552.872C66.3234 551.375 67.1824 549.878 68.0414 548.381C68.345 547.854 69.1978 548.278 68.8883 548.809C67.9034 550.528 66.9186 552.248 65.9288 553.961C65.4524 554.798 64.9856 555.646 64.4886 556.47C64.3249 556.743 64.1428 556.981 63.918 557.155C63.9753 557.347 64.0386 557.533 64.0911 557.718C65.7874 563.417 66.9996 569.263 67.6152 575.181C67.6796 575.794 66.7301 575.846 66.6706 575.24C66.0355 569.189 64.7693 563.228 63.0021 557.419C62.2774 557.406 61.4899 557.148 60.7911 556.985C59.9491 556.781 59.1044 556.549 58.2786 556.292C56.574 555.762 54.9137 555.116 53.2956 554.376C52.7373 554.118 53.1656 553.271 53.7239 553.529C56.5155 554.817 59.4425 555.786 62.4614 556.382C62.542 556.396 62.6117 556.408 62.6873 556.416C61.92 553.987 61.063 551.581 60.1319 549.207C59.8985 549.14 59.6812 549.02 59.4726 548.923C58.831 548.624 58.1895 548.325 57.5491 548.016C55.1261 546.862 52.7243 545.662 50.3435 544.415C47.6514 543.005 44.9863 541.544 42.3542 540.026C41.8278 539.722 42.2513 538.869 42.7826 539.179C48.2279 542.315 53.7942 545.223 59.4837 547.881C59.5259 547.897 59.5767 547.934 59.6286 547.961C59.2042 546.909 58.757 545.866 58.304 544.827C57.2097 542.338 56.0235 539.895 54.7682 537.488C50.9948 536.467 47.3257 535.113 43.7991 533.424C43.2467 533.161 43.6751 532.314 44.2275 532.577C47.426 534.108 50.7401 535.356 54.1411 536.334C52.6058 533.451 50.9726 530.619 49.2465 527.844C45.6665 526.198 42.2836 524.163 39.1368 521.786C38.6493 521.421 39.2771 520.708 39.7647 521.073C42.4347 523.086 45.289 524.84 48.2843 526.328C46.4382 523.442 44.5062 520.597 42.5018 517.821C41.845 516.909 41.1704 516.012 40.5017 515.11C37.5639 514.359 34.6455 513.521 31.7632 512.595C31.1866 512.412 31.3777 511.481 31.9652 511.666L31.9868 511.668Z" fill="#9E9224"/>
<defs>
<linearGradient id="paint0_linear_1_559" x1="398.788" y1="172.338" x2="480.071" y2="229.884" gradientUnits="userSpaceOnUse">
<stop stop-color="#3E200F"/>
<stop offset="1" stop-color="#3E2110"/>
</linearGradient>
<linearGradient id="paint1_linear_1_559" x1="432.763" y1="134.105" x2="432.763" y2="226.534" gradientUnits="userSpaceOnUse">
<stop stop-color="#F7CCB6"/>
<stop offset="1" stop-color="#F0CEBC"/>
</linearGradient>
<linearGradient id="paint2_linear_1_559" x1="386.913" y1="428.962" x2="505.197" y2="428.962" gradientUnits="userSpaceOnUse">
<stop stop-color="#ECE2DA"/>
<stop offset="1" stop-color="#CDC0B6"/>
</linearGradient>
<linearGradient id="paint3_linear_1_559" x1="368.646" y1="405.674" x2="562.741" y2="406.587" gradientUnits="userSpaceOnUse">
<stop stop-color="#ECE2DA"/>
<stop offset="1" stop-color="#CDC0B6"/>
</linearGradient>
<linearGradient id="paint4_linear_1_559" x1="415.911" y1="217.506" x2="466.529" y2="318.084" gradientUnits="userSpaceOnUse">
<stop stop-color="#E9A3B8"/>
<stop offset="1" stop-color="#E892BF"/>
</linearGradient>
<linearGradient id="paint5_linear_1_559" x1="399.478" y1="225.365" x2="439.09" y2="290.304" gradientUnits="userSpaceOnUse">
<stop stop-color="#E9A3B8"/>
<stop offset="1" stop-color="#E892BF"/>
</linearGradient>
<linearGradient id="paint6_linear_1_559" x1="469.577" y1="215.798" x2="508.926" y2="267.828" gradientUnits="userSpaceOnUse">
<stop stop-color="#E9A3B8"/>
<stop offset="1" stop-color="#E892BF"/>
</linearGradient>
<linearGradient id="paint7_linear_1_559" x1="470.026" y1="256.98" x2="470.026" y2="282.144" gradientUnits="userSpaceOnUse">
<stop stop-color="#EBCAB9"/>
<stop offset="1" stop-color="#CDA18B"/>
</linearGradient>
<linearGradient id="paint8_linear_1_559" x1="453.052" y1="251.917" x2="453.052" y2="283.344" gradientUnits="userSpaceOnUse">
<stop stop-color="#EBCAB9"/>
<stop offset="1" stop-color="#CDA18B"/>
</linearGradient>
<linearGradient id="paint9_linear_1_559" x1="421.75" y1="119.993" x2="400.71" y2="211.481" gradientUnits="userSpaceOnUse">
<stop stop-color="#361D0E"/>
<stop offset="1" stop-color="#472614"/>
</linearGradient>
</defs>
</svg>
