<svg width="29" height="15" viewBox="0 0 29 15" fill="none" xmlns="http://www.w3.org/2000/svg">
<path d="M20.9902 0.757202C20.7913 0.757255 20.5969 0.816633 20.4319 0.927747C20.2669 1.03886 20.1388 1.19666 20.0639 1.38097C19.989 1.56528 19.9709 1.76773 20.0117 1.96244C20.0525 2.15714 20.1504 2.33525 20.293 2.474L24.5859 6.76697H13C12.8675 6.76509 12.7359 6.78957 12.613 6.83899C12.49 6.8884 12.3781 6.96176 12.2837 7.05481C12.1893 7.14785 12.1144 7.25872 12.0632 7.38098C12.0121 7.50324 11.9858 7.63444 11.9858 7.76697C11.9858 7.89949 12.0121 8.0307 12.0632 8.15295C12.1144 8.27521 12.1893 8.38608 12.2837 8.47913C12.3781 8.57217 12.49 8.64553 12.613 8.69495C12.7359 8.74436 12.8675 8.76884 13 8.76697H24.5859L20.293 13.0599C20.197 13.1521 20.1204 13.2625 20.0676 13.3846C20.0148 13.5067 19.9869 13.6381 19.9856 13.7712C19.9842 13.9042 20.0094 14.0362 20.0597 14.1594C20.11 14.2826 20.1843 14.3945 20.2784 14.4885C20.3725 14.5826 20.4844 14.657 20.6076 14.7073C20.7308 14.7576 20.8627 14.7828 20.9958 14.7814C21.1288 14.7801 21.2603 14.7522 21.3824 14.6994C21.5045 14.6466 21.6149 14.57 21.707 14.474L27.6191 8.56189C27.7417 8.46843 27.8409 8.34793 27.9092 8.20979C27.9774 8.07164 28.0129 7.9196 28.0127 7.76551C28.0125 7.61142 27.9767 7.45946 27.9081 7.32148C27.8395 7.18351 27.7399 7.06325 27.6172 6.97009L21.707 1.05994C21.6138 0.964142 21.5024 0.887997 21.3793 0.836C21.2562 0.784004 21.1239 0.75721 20.9902 0.757202ZM1 6.76697C0.734784 6.76697 0.48043 6.87232 0.292893 7.05986C0.105357 7.2474 0 7.50175 0 7.76697C0 8.03218 0.105357 8.28654 0.292893 8.47407C0.48043 8.66161 0.734784 8.76697 1 8.76697C1.26522 8.76697 1.51957 8.66161 1.70711 8.47407C1.89464 8.28654 2 8.03218 2 7.76697C2 7.50175 1.89464 7.2474 1.70711 7.05986C1.51957 6.87232 1.26522 6.76697 1 6.76697ZM5 6.76697C4.73478 6.76697 4.48043 6.87232 4.29289 7.05986C4.10536 7.2474 4 7.50175 4 7.76697C4 8.03218 4.10536 8.28654 4.29289 8.47407C4.48043 8.66161 4.73478 8.76697 5 8.76697C5.26522 8.76697 5.51957 8.66161 5.70711 8.47407C5.89464 8.28654 6 8.03218 6 7.76697C6 7.50175 5.89464 7.2474 5.70711 7.05986C5.51957 6.87232 5.26522 6.76697 5 6.76697ZM9 6.76697C8.73478 6.76697 8.48043 6.87232 8.29289 7.05986C8.10536 7.2474 8 7.50175 8 7.76697C8 8.03218 8.10536 8.28654 8.29289 8.47407C8.48043 8.66161 8.73478 8.76697 9 8.76697C9.26522 8.76697 9.51957 8.66161 9.70711 8.47407C9.89464 8.28654 10 8.03218 10 7.76697C10 7.50175 9.89464 7.2474 9.70711 7.05986C9.51957 6.87232 9.26522 6.76697 9 6.76697Z" fill="#9D1573"/>
</svg>
