<svg width="69" height="70" viewBox="0 0 69 70" fill="none" xmlns="http://www.w3.org/2000/svg">
<path d="M17.5975 67.7496C16.0068 67.7489 14.4814 67.1172 13.3559 65.9932C12.2303 64.8693 11.5965 63.3447 11.5936 61.7541V14.2065C11.5936 13.9592 11.6918 13.7221 11.8667 13.5472C12.0415 13.3723 12.2787 13.2741 12.526 13.2741C12.7733 13.2741 13.0105 13.3723 13.1853 13.5472C13.3602 13.7221 13.4584 13.9592 13.4584 14.2065V61.7541C13.4747 62.8412 13.9181 63.8782 14.6926 64.6412C15.4671 65.4042 16.5107 65.8319 17.598 65.8319C18.6852 65.8319 19.7288 65.4042 20.5033 64.6412C21.2779 63.8782 21.7212 62.8412 21.7375 61.7541V57.3064C21.7375 57.0591 21.8357 56.8219 22.0106 56.647C22.1855 56.4722 22.4226 56.3739 22.6699 56.3739H59.6129V8.48607C59.6117 7.38845 59.1751 6.33614 58.399 5.56001C57.6228 4.78387 56.5705 4.3473 55.4729 4.34607H6.97149C6.7242 4.34607 6.48703 4.24783 6.31217 4.07296C6.1373 3.8981 6.03906 3.66093 6.03906 3.41363C6.03906 3.16634 6.1373 2.92917 6.31217 2.7543C6.48703 2.57944 6.7242 2.4812 6.97149 2.4812H55.4729C57.065 2.48293 58.5913 3.11614 59.7171 4.24189C60.8428 5.36765 61.476 6.89401 61.4778 8.48607V57.3064C61.4778 57.5537 61.3795 57.7908 61.2047 57.9657C61.0298 58.1406 60.7926 58.2388 60.5453 58.2388H23.6024V61.7541C23.5992 63.3448 22.9652 64.8694 21.8395 65.9933C20.7138 67.1173 19.1882 67.7489 17.5975 67.7496Z" fill="#006099"/>
<path d="M60.1976 67.7515H17.5994C17.3521 67.7515 17.115 67.6533 16.9401 67.4784C16.7652 67.3036 16.667 67.0664 16.667 66.8191C16.667 66.5718 16.7652 66.3346 16.9401 66.1598C17.115 65.9849 17.3521 65.8867 17.5994 65.8867C18.6958 65.8867 19.7474 65.4518 20.5236 64.6774C21.2997 63.903 21.737 62.8524 21.7394 61.756V57.3083C21.7394 57.061 21.8377 56.8238 22.0125 56.649C22.1874 56.4741 22.4246 56.3759 22.6719 56.3759H65.2598C65.5071 56.3759 65.7442 56.4741 65.9191 56.649C66.094 56.8238 66.1922 57.061 66.1922 57.3083V61.756C66.1907 63.3455 65.5587 64.8695 64.4348 65.9935C63.311 67.1175 61.7871 67.7498 60.1976 67.7515ZM21.9483 65.8867H60.1976C61.2927 65.8854 62.3425 65.4498 63.1167 64.6754C63.891 63.901 64.3264 62.851 64.3273 61.756V58.2407H23.6043V61.756C23.6055 63.2949 23.0122 64.7748 21.9483 65.8867Z" fill="#006099"/>
<path d="M30.7885 51.0463C30.6184 51.0465 30.4515 51 30.3059 50.9121C30.1603 50.8242 30.0415 50.6981 29.9624 50.5475L28.5992 47.9507L25.8075 48.843C25.6372 48.8977 25.4547 48.9023 25.2819 48.8562C25.109 48.81 24.9531 48.7152 24.8327 48.5829C24.7123 48.4506 24.6325 48.2864 24.6028 48.11C24.5731 47.9336 24.5948 47.7524 24.6652 47.588L28.6439 38.2702C28.741 38.0426 28.9245 37.863 29.154 37.7708C29.3835 37.6785 29.6402 37.6812 29.8677 37.7783C30.0953 37.8754 30.2749 38.0588 30.3671 38.2883C30.4594 38.5178 30.4567 38.7746 30.3596 39.0021L27.1809 46.4457L28.7763 45.9366C28.9853 45.8695 29.2112 45.8783 29.4143 45.9613C29.6175 46.0444 29.7848 46.1964 29.8869 46.3907L30.6999 47.9395L34.1108 39.9206C34.1564 39.8047 34.2248 39.6991 34.3119 39.6101C34.399 39.521 34.5031 39.4503 34.6179 39.4022C34.7328 39.354 34.8561 39.3294 34.9807 39.3297C35.1052 39.33 35.2285 39.3553 35.3431 39.404C35.4577 39.4527 35.5614 39.5239 35.6481 39.6134C35.7348 39.7028 35.8026 39.8087 35.8477 39.9248C35.8927 40.041 35.9141 40.1649 35.9104 40.2894C35.9068 40.4139 35.8782 40.5364 35.8265 40.6497L31.6454 50.4785C31.5765 50.6407 31.463 50.7801 31.3181 50.8804C31.1732 50.9807 31.0028 51.038 30.8268 51.0454L30.7885 51.0463Z" fill="#006099"/>
<path d="M41.3001 51.0461H41.2619C41.0855 51.039 40.9147 50.9819 40.7694 50.8816C40.6242 50.7812 40.5104 50.6417 40.4413 50.4792L36.2724 40.6467C36.1757 40.4189 36.1735 40.1621 36.2662 39.9327C36.3588 39.7032 36.5389 39.52 36.7666 39.4233C36.9944 39.3266 37.2512 39.3244 37.4806 39.4171C37.7101 39.5097 37.8933 39.6898 37.99 39.9175L41.3924 47.9364L42.2046 46.3895C42.3066 46.1955 42.4738 46.0436 42.6767 45.9605C42.8796 45.8775 43.1053 45.8686 43.3142 45.9354L44.9077 46.4445L41.7328 39.0215C41.681 38.9084 41.6524 38.7861 41.6487 38.6617C41.6449 38.5374 41.6661 38.4136 41.7109 38.2976C41.7557 38.1816 41.8233 38.0757 41.9096 37.9862C41.996 37.8967 42.0993 37.8254 42.2137 37.7764C42.328 37.7275 42.451 37.7019 42.5753 37.7012C42.6997 37.7005 42.8229 37.7246 42.9378 37.7723C43.0527 37.8199 43.1569 37.89 43.2443 37.9785C43.3316 38.0671 43.4004 38.1721 43.4466 38.2876L47.4215 47.5877C47.4918 47.752 47.5133 47.9329 47.4837 48.1091C47.454 48.2852 47.3744 48.4492 47.2543 48.5814C47.1342 48.7136 46.9786 48.8085 46.8061 48.8548C46.6336 48.9012 46.4514 48.897 46.2812 48.8428L43.4895 47.9504L42.1262 50.5473C42.0471 50.6978 41.9283 50.8239 41.7827 50.9119C41.6371 50.9998 41.4702 51.0462 41.3001 51.0461Z" fill="#006099"/>
<path d="M36.0491 41.7002C35.5423 41.7002 35.05 41.5308 34.6505 41.219L33.1632 40.0619C33.0746 39.9969 32.9648 39.9676 32.8555 39.9798L30.9907 40.2391C30.4884 40.3108 29.9765 40.2119 29.537 39.9584C29.0975 39.7048 28.7557 39.3112 28.5663 38.8404L27.8605 37.0977C27.8401 37.0456 27.8094 36.9981 27.7703 36.9581C27.7313 36.9181 27.6846 36.8863 27.633 36.8646L25.8903 36.1587C25.4199 35.9688 25.0267 35.627 24.7732 35.1876C24.5197 34.7482 24.4206 34.2367 24.4916 33.7344L24.7499 31.8695C24.7577 31.8152 24.7544 31.7597 24.7402 31.7067C24.7259 31.6536 24.701 31.604 24.6669 31.5609L23.5098 30.069C23.1978 29.6695 23.0283 29.1772 23.0283 28.6704C23.0283 28.1635 23.1978 27.6712 23.5098 27.2717L24.665 25.7798C24.6991 25.7365 24.724 25.6867 24.7384 25.6336C24.7529 25.5804 24.7564 25.5248 24.749 25.4703L24.4907 23.6054C24.4196 23.1031 24.5188 22.5916 24.7722 22.1522C25.0257 21.7128 25.419 21.371 25.8893 21.1811L27.633 20.4743C27.6841 20.4538 27.7306 20.4232 27.7695 20.3843C27.8085 20.3453 27.8391 20.2989 27.8596 20.2477L28.5663 18.5041C28.756 18.0335 29.0978 17.6401 29.5372 17.3865C29.9767 17.133 30.4884 17.034 30.9907 17.1054L32.8555 17.3646C32.9101 17.3722 32.9657 17.3687 33.0189 17.3543C33.0721 17.3399 33.1218 17.3149 33.1651 17.2807L34.6514 16.1245C35.0511 15.8131 35.5434 15.644 36.05 15.644C36.5567 15.644 37.049 15.8131 37.4487 16.1245L38.9359 17.2816C38.9793 17.3156 39.029 17.3405 39.0822 17.3548C39.1354 17.369 39.191 17.3724 39.2455 17.3646L41.1104 17.1054C41.6126 17.0344 42.1242 17.1335 42.5635 17.387C43.0029 17.6404 43.3448 18.0337 43.5347 18.5041L44.2405 20.2477C44.2615 20.299 44.2925 20.3455 44.3317 20.3846C44.3709 20.4237 44.4176 20.4545 44.469 20.4752L46.2117 21.1811C46.6818 21.3714 47.0747 21.7133 47.3281 22.1526C47.5816 22.5918 47.6809 23.1032 47.6103 23.6054L47.3511 25.4703C47.3368 25.5801 47.3666 25.6911 47.4341 25.7789L48.5903 27.2708C48.9028 27.6701 49.0725 28.1624 49.0725 28.6694C49.0725 29.1764 48.9028 29.6688 48.5903 30.0681L47.4332 31.5553C47.3662 31.6434 47.3367 31.7543 47.3511 31.8639L47.6103 33.7288C47.6809 34.231 47.5816 34.7424 47.3281 35.1816C47.0747 35.6209 46.6818 35.9628 46.2117 36.1531L44.4643 36.8646C44.4131 36.8855 44.3665 36.9164 44.3273 36.9554C44.288 36.9945 44.257 37.0409 44.2359 37.0921L43.531 38.8348C43.3406 39.3049 42.9987 39.6978 42.5594 39.9512C42.1202 40.2047 41.6088 40.304 41.1066 40.2335L39.2418 39.9742C39.1317 39.9601 39.0204 39.9899 38.9322 40.0572L37.4459 41.2134C37.0477 41.5271 36.556 41.6984 36.0491 41.7002ZM32.9078 38.1112C33.414 38.1121 33.9057 38.2803 34.3064 38.5896L35.7983 39.7477C35.8706 39.8036 35.9595 39.834 36.051 39.834C36.1424 39.834 36.2313 39.8036 36.3037 39.7477L37.79 38.5905C38.0306 38.4043 38.3059 38.2679 38.5999 38.1893C38.8938 38.1107 39.2005 38.0914 39.5019 38.1327L41.3668 38.391C41.4578 38.406 41.5512 38.389 41.6311 38.3429C41.7109 38.2969 41.7724 38.2246 41.805 38.1383L42.5109 36.3946C42.626 36.112 42.7966 35.8554 43.0124 35.6397C43.2283 35.424 43.4851 35.2536 43.7678 35.1386L45.5114 34.4328C45.5964 34.3984 45.6674 34.3365 45.7132 34.2571C45.7589 34.1777 45.7769 34.0853 45.7641 33.9946L45.5058 32.1297C45.4645 31.8288 45.4835 31.5227 45.5618 31.2292C45.6401 30.9358 45.7761 30.6609 45.9618 30.4205L47.1199 28.9286C47.1761 28.8566 47.2066 28.7678 47.2066 28.6764C47.2066 28.585 47.1761 28.4963 47.1199 28.4242L45.9637 26.9323C45.7779 26.6929 45.6416 26.4188 45.5627 26.1262C45.4838 25.8336 45.4638 25.5282 45.504 25.2278L45.7623 23.363C45.775 23.2722 45.7571 23.1798 45.7113 23.1004C45.6655 23.021 45.5945 22.9592 45.5096 22.9247L43.7659 22.2179C43.4834 22.1031 43.2268 21.9329 43.0111 21.7174C42.7954 21.5018 42.625 21.2453 42.5099 20.9629L41.8032 19.2192C41.7694 19.1337 41.7078 19.0621 41.6282 19.0161C41.5487 18.97 41.4559 18.9523 41.3649 18.9656L39.5 19.2248C39.1989 19.2661 38.8925 19.2469 38.5989 19.1683C38.3052 19.0897 38.0302 18.9533 37.79 18.767L36.2981 17.6099C36.2259 17.5534 36.137 17.5228 36.0454 17.5228C35.9538 17.5228 35.8648 17.5534 35.7927 17.6099L34.3008 18.7661C34.0601 18.9515 33.7851 19.0875 33.4916 19.1663C33.1981 19.245 32.8919 19.2649 32.5907 19.2248L30.7259 18.9656C30.635 18.9533 30.5427 18.9715 30.4633 19.0174C30.384 19.0633 30.3222 19.1343 30.2876 19.2192L29.5808 20.9629C29.4659 21.2452 29.2956 21.5016 29.0801 21.7172C28.8645 21.9327 28.6081 22.103 28.3258 22.2179L26.5821 22.9238C26.4972 22.9583 26.4262 23.0201 26.3803 23.0995C26.3344 23.1788 26.3162 23.2712 26.3285 23.362L26.5877 25.2269C26.6289 25.5283 26.6095 25.835 26.5306 26.1288C26.4516 26.4226 26.3148 26.6977 26.128 26.9379L24.9811 28.4261C24.9247 28.4982 24.8941 28.5872 24.8941 28.6788C24.8941 28.7703 24.9247 28.8593 24.9811 28.9314L26.1383 30.4233C26.3244 30.6637 26.4608 30.9387 26.5394 31.2323C26.618 31.5259 26.6373 31.8323 26.5961 32.1334L26.3369 33.9983C26.3242 34.0892 26.3423 34.1817 26.3883 34.2611C26.4342 34.3405 26.5054 34.4022 26.5905 34.4365L28.3342 35.1433C28.6164 35.2584 28.8728 35.4287 29.0883 35.6442C29.3038 35.8598 29.4741 36.1162 29.5892 36.3984L30.296 38.1429C30.3307 38.2275 30.3924 38.2982 30.4715 38.3439C30.5507 38.3896 30.6427 38.4078 30.7333 38.3956L32.5982 38.1374C32.7007 38.1217 32.8041 38.113 32.9078 38.1112Z" fill="#006099"/>
<path d="M36.0491 41.7002C35.5423 41.7002 35.05 41.5308 34.6505 41.219L33.1632 40.0619C33.0746 39.9969 32.9648 39.9676 32.8555 39.9798L30.9907 40.2391C30.4884 40.3108 29.9765 40.2119 29.537 39.9584C29.0975 39.7048 28.7557 39.3112 28.5663 38.8404L27.8605 37.0977C27.8401 37.0456 27.8094 36.9981 27.7703 36.9581C27.7313 36.9181 27.6846 36.8863 27.633 36.8646L25.8903 36.1587C25.4199 35.9688 25.0267 35.627 24.7732 35.1876C24.5197 34.7482 24.4206 34.2367 24.4916 33.7344L24.7499 31.8695C24.7577 31.8152 24.7544 31.7597 24.7402 31.7067C24.7259 31.6536 24.701 31.604 24.6669 31.5609L23.5098 30.069C23.1978 29.6695 23.0283 29.1772 23.0283 28.6704C23.0283 28.1635 23.1978 27.6712 23.5098 27.2717L24.665 25.7798C24.6991 25.7365 24.724 25.6867 24.7384 25.6336C24.7529 25.5804 24.7564 25.5248 24.749 25.4703L24.4907 23.6054C24.4196 23.1031 24.5188 22.5916 24.7722 22.1522C25.0257 21.7128 25.419 21.371 25.8893 21.1811L27.633 20.4743C27.6841 20.4538 27.7306 20.4232 27.7695 20.3843C27.8085 20.3453 27.8391 20.2989 27.8596 20.2477L28.5663 18.5041C28.756 18.0335 29.0978 17.6401 29.5372 17.3865C29.9767 17.133 30.4884 17.034 30.9907 17.1054L32.8555 17.3646C32.9101 17.3722 32.9657 17.3687 33.0189 17.3543C33.0721 17.3399 33.1218 17.3149 33.1651 17.2807L34.6514 16.1245C35.0511 15.8131 35.5434 15.644 36.05 15.644C36.5567 15.644 37.049 15.8131 37.4487 16.1245L38.9359 17.2816C38.9793 17.3156 39.029 17.3405 39.0822 17.3548C39.1354 17.369 39.191 17.3724 39.2455 17.3646L41.1104 17.1054C41.6126 17.0344 42.1242 17.1335 42.5635 17.387C43.0029 17.6404 43.3448 18.0337 43.5347 18.5041L44.2405 20.2477C44.2615 20.299 44.2925 20.3455 44.3317 20.3846C44.3709 20.4237 44.4176 20.4545 44.469 20.4752L46.2117 21.1811C46.6818 21.3714 47.0747 21.7133 47.3281 22.1526C47.5816 22.5918 47.6809 23.1032 47.6103 23.6054L47.3511 25.4703C47.3368 25.5801 47.3666 25.6911 47.4341 25.7789L48.5903 27.2708C48.9028 27.6701 49.0725 28.1624 49.0725 28.6694C49.0725 29.1764 48.9028 29.6688 48.5903 30.0681L47.4332 31.5553C47.3662 31.6434 47.3367 31.7543 47.3511 31.8639L47.6103 33.7288C47.6809 34.231 47.5816 34.7424 47.3281 35.1816C47.0747 35.6209 46.6818 35.9628 46.2117 36.1531L44.4643 36.8646C44.4131 36.8855 44.3665 36.9164 44.3273 36.9554C44.288 36.9945 44.257 37.0409 44.2359 37.0921L43.531 38.8348C43.3406 39.3049 42.9987 39.6978 42.5594 39.9512C42.1202 40.2047 41.6088 40.304 41.1066 40.2335L39.2418 39.9742C39.1317 39.9601 39.0204 39.9899 38.9322 40.0572L37.4459 41.2134C37.0477 41.5271 36.556 41.6984 36.0491 41.7002ZM32.9078 38.1112C33.414 38.1121 33.9057 38.2803 34.3064 38.5896L35.7983 39.7477C35.8706 39.8036 35.9595 39.834 36.051 39.834C36.1424 39.834 36.2313 39.8036 36.3037 39.7477L37.79 38.5905C38.0306 38.4043 38.3059 38.2679 38.5999 38.1893C38.8938 38.1107 39.2005 38.0914 39.5019 38.1327L41.3668 38.391C41.4578 38.406 41.5512 38.389 41.6311 38.3429C41.7109 38.2969 41.7724 38.2246 41.805 38.1383L42.5109 36.3946C42.626 36.112 42.7966 35.8554 43.0124 35.6397C43.2283 35.424 43.4851 35.2536 43.7678 35.1386L45.5114 34.4328C45.5964 34.3984 45.6674 34.3365 45.7132 34.2571C45.7589 34.1777 45.7769 34.0853 45.7641 33.9946L45.5058 32.1297C45.4645 31.8288 45.4836 31.5227 45.5618 31.2292C45.6401 30.9358 45.7761 30.6609 45.9618 30.4205L47.1199 28.9286C47.1761 28.8566 47.2066 28.7678 47.2066 28.6764C47.2066 28.585 47.1761 28.4963 47.1199 28.4242L45.9637 26.9323C45.7779 26.6929 45.6416 26.4188 45.5627 26.1262C45.4838 25.8336 45.4638 25.5282 45.504 25.2278L45.7623 23.363C45.775 23.2722 45.7571 23.1798 45.7113 23.1004C45.6655 23.021 45.5945 22.9592 45.5096 22.9247L43.7659 22.2179C43.4834 22.1031 43.2268 21.9329 43.0111 21.7174C42.7954 21.5018 42.625 21.2453 42.5099 20.9629L41.8032 19.2192C41.7694 19.1337 41.7078 19.0621 41.6282 19.0161C41.5487 18.97 41.4559 18.9523 41.3649 18.9656L39.5 19.2248C39.1989 19.2661 38.8925 19.2469 38.5989 19.1683C38.3052 19.0897 38.0302 18.9533 37.79 18.767L36.2981 17.6099C36.2259 17.5534 36.137 17.5228 36.0454 17.5228C35.9538 17.5228 35.8648 17.5534 35.7927 17.6099L34.3008 18.7661C34.0601 18.9515 33.7851 19.0875 33.4916 19.1663C33.1981 19.245 32.8919 19.2649 32.5907 19.2248L30.7259 18.9656C30.635 18.9533 30.5427 18.9715 30.4633 19.0174C30.384 19.0633 30.3222 19.1343 30.2876 19.2192L29.5808 20.9629C29.4659 21.2452 29.2956 21.5016 29.0801 21.7172C28.8645 21.9327 28.6081 22.103 28.3258 22.2179L26.5821 22.9238C26.4972 22.9583 26.4262 23.0201 26.3803 23.0995C26.3344 23.1788 26.3162 23.2712 26.3285 23.362L26.5877 25.2269C26.6289 25.5283 26.6095 25.835 26.5306 26.1288C26.4516 26.4226 26.3148 26.6977 26.128 26.9379L24.9811 28.4261C24.9247 28.4982 24.8941 28.5872 24.8941 28.6788C24.8941 28.7703 24.9247 28.8593 24.9811 28.9314L26.1383 30.4233C26.3244 30.6637 26.4608 30.9387 26.5394 31.2323C26.618 31.5259 26.6373 31.8323 26.5961 32.1334L26.3369 33.9983C26.3242 34.0892 26.3423 34.1817 26.3883 34.2611C26.4342 34.3405 26.5054 34.4022 26.5905 34.4365L28.3342 35.1433C28.6164 35.2584 28.8728 35.4287 29.0883 35.6442C29.3038 35.8598 29.4741 36.1161 29.5892 36.3984L30.296 38.1429C30.3307 38.2275 30.3924 38.2982 30.4715 38.3439C30.5507 38.3896 30.6427 38.4078 30.7333 38.3956L32.5982 38.1374C32.7007 38.1217 32.8041 38.113 32.9078 38.1112Z" fill="#006099"/>
<path d="M32.7392 34.7015C32.6035 34.7014 32.4694 34.6717 32.3463 34.6144C32.2233 34.5572 32.1142 34.4737 32.0267 34.3699C31.9393 34.2661 31.8755 34.1445 31.84 34.0135C31.8044 33.8825 31.7978 33.7453 31.8208 33.6115L32.369 30.4114L30.0445 28.1447C29.9214 28.023 29.8347 27.8696 29.7939 27.7014C29.7531 27.5333 29.7599 27.3571 29.8135 27.1926C29.8671 27.0281 29.9654 26.8818 30.0974 26.77C30.2294 26.6582 30.39 26.5853 30.5611 26.5595L33.7742 26.0933L35.2111 23.1822C35.2969 23.0369 35.4191 22.9164 35.5657 22.8327C35.7123 22.749 35.8782 22.705 36.047 22.705C36.2158 22.705 36.3817 22.749 36.5283 22.8327C36.6749 22.9164 36.7971 23.0369 36.8829 23.1822L38.3226 26.0877L41.5348 26.5539C41.7071 26.5788 41.869 26.6514 42.0022 26.7635C42.1354 26.8756 42.2345 27.0228 42.2884 27.1883C42.3422 27.3539 42.3486 27.5312 42.3069 27.7002C42.2652 27.8692 42.177 28.0232 42.0524 28.1447L39.7213 30.4114L40.2695 33.6115C40.2988 33.7829 40.2796 33.959 40.214 34.12C40.1485 34.281 40.0393 34.4205 39.8987 34.5227C39.758 34.6249 39.5917 34.6857 39.4183 34.6984C39.2449 34.7111 39.0715 34.675 38.9175 34.5943L36.0428 33.0837L33.17 34.5943C33.0371 34.6642 32.8893 34.701 32.7392 34.7015ZM36.0466 31.0977C36.1976 31.0978 36.3464 31.1346 36.4801 31.2049L38.1166 32.0655L37.8042 30.2445C37.7786 30.0956 37.7896 29.9426 37.8362 29.7989C37.8828 29.6551 37.9637 29.5249 38.0718 29.4193L39.3959 28.1297L37.5674 27.864C37.4177 27.8423 37.2757 27.7845 37.1533 27.6956C37.031 27.6068 36.9321 27.4895 36.8652 27.354L36.0466 25.6961L35.2288 27.354C35.162 27.4897 35.0632 27.6071 34.9409 27.6962C34.8185 27.7852 34.6764 27.8431 34.5267 27.8649L32.6982 28.1307L34.0213 29.4202C34.1294 29.5258 34.2103 29.6561 34.2569 29.7998C34.3035 29.9436 34.3145 30.0965 34.2889 30.2454L33.9775 32.0674L35.612 31.2068C35.746 31.1361 35.8951 31.0987 36.0466 31.0977Z" fill="#006099"/>
<path d="M12.5402 15.1391H2.3963C2.149 15.1391 1.91184 15.0409 1.73697 14.866C1.56211 14.6912 1.46387 14.454 1.46387 14.2067V8.47691C1.48355 6.89741 2.12482 5.38927 3.24872 4.27929C4.37263 3.1693 5.88864 2.54688 7.46827 2.54688C9.04789 2.54688 10.5639 3.1693 11.6878 4.27929C12.8117 5.38927 13.453 6.89741 13.4727 8.47691V14.2067C13.4727 14.454 13.3744 14.6912 13.1996 14.866C13.0247 15.0409 12.7875 15.1391 12.5402 15.1391ZM3.32873 13.2743H11.6078V8.47691C11.5915 7.3898 11.1482 6.35274 10.3736 5.58974C9.5991 4.82674 8.5555 4.39904 7.46827 4.39904C6.38103 4.39904 5.33743 4.82674 4.56289 5.58974C3.78835 6.35274 3.34505 7.3898 3.32873 8.47691V13.2743Z" fill="#006099"/>
</svg>
