<svg width="64" height="64" viewBox="0 0 64 64" fill="none" xmlns="http://www.w3.org/2000/svg">
<path d="M0 0H32C49.6731 0 64 14.3269 64 32C64 49.6731 49.6731 64 32 64C14.3269 64 0 49.6731 0 32V0Z" fill="#3380AD"/>
<path d="M46.3334 43.6507V25.7173C46.3334 24.834 45.9834 23.984 45.3501 23.3673L37.3001 15.3173C36.6834 14.684 35.8334 14.334 34.9501 14.334H23.0001C21.1667 14.334 19.6834 15.834 19.6834 17.6673L19.6667 44.334C19.6667 46.1673 21.1501 47.6673 22.9834 47.6673H43.0001C43.7501 47.6673 44.4167 47.4173 44.9834 47.0007L37.6001 39.6173C36.1667 40.5507 34.4501 41.084 32.6001 40.984C28.6501 40.8007 25.2667 37.7173 24.7334 33.8007C24.0001 28.2173 28.8167 23.5007 34.4501 24.4507C37.7001 25.0007 40.4001 27.534 41.1167 30.7507C41.6667 33.184 41.1334 35.4507 39.9501 37.2507L46.3334 43.6507ZM28.0001 32.6673C28.0001 35.434 30.2334 37.6673 33.0001 37.6673C35.7667 37.6673 38.0001 35.434 38.0001 32.6673C38.0001 29.9007 35.7667 27.6673 33.0001 27.6673C30.2334 27.6673 28.0001 29.9007 28.0001 32.6673Z" fill="white"/>
</svg>
