<svg width="64" height="64" viewBox="0 0 64 64" fill="none" xmlns="http://www.w3.org/2000/svg">
<path d="M0 0H32C49.6731 0 64 14.3269 64 32C64 49.6731 49.6731 64 32 64C14.3269 64 0 49.6731 0 32V0Z" fill="#3380AD"/>
<path d="M34.6667 27.6667H18C17.0834 27.6667 16.3334 28.4167 16.3334 29.3333C16.3334 30.25 17.0834 31 18 31H34.6667C35.5834 31 36.3334 30.25 36.3334 29.3333C36.3334 28.4167 35.5834 27.6667 34.6667 27.6667ZM34.6667 21H18C17.0834 21 16.3334 21.75 16.3334 22.6667C16.3334 23.5833 17.0834 24.3333 18 24.3333H34.6667C35.5834 24.3333 36.3334 23.5833 36.3334 22.6667C36.3334 21.75 35.5834 21 34.6667 21ZM18 37.6667H28C28.9167 37.6667 29.6667 36.9167 29.6667 36C29.6667 35.0833 28.9167 34.3333 28 34.3333H18C17.0834 34.3333 16.3334 35.0833 16.3334 36C16.3334 36.9167 17.0834 37.6667 18 37.6667ZM50.0167 31.35L50.1667 31.5C50.8167 32.15 50.8167 33.2 50.1667 33.85L40.8667 43.1667C40.2167 43.8167 39.1667 43.8167 38.5167 43.1667L33.3667 38.0167C32.7167 37.3667 32.7167 36.3167 33.3667 35.6667L33.5167 35.5167C34.1667 34.8667 35.2167 34.8667 35.8667 35.5167L39.7 39.35L47.6667 31.3667C48.3 30.7 49.3667 30.7 50.0167 31.35Z" fill="white"/>
</svg>
