<svg width="64" height="64" viewBox="0 0 64 64" fill="none" xmlns="http://www.w3.org/2000/svg">
<path d="M0 0H32C49.6731 0 64 14.3269 64 32C64 49.6731 49.6731 64 32 64C14.3269 64 0 49.6731 0 32V0Z" fill="#3380AD"/>
<path d="M51.3333 29.3507L43 29.334C42.0833 29.334 41.3333 30.084 41.3333 31.0007V46.0007C41.3333 46.9173 42.0833 47.6673 43 47.6673H51.3333C52.25 47.6673 53 46.9173 53 46.0007V31.0007C53 30.084 52.25 29.3507 51.3333 29.3507ZM51.3333 44.334H43V32.6673H51.3333V44.334ZM46.3333 14.334H16.3333C14.5 14.334 13 15.834 13 17.6673V37.6673C13 39.5007 14.5 41.0007 16.3333 41.0007H28V44.334H26.3333C25.4167 44.334 24.6667 45.084 24.6667 46.0007C24.6667 46.9173 25.4167 47.6673 26.3333 47.6673H36.3333C37.25 47.6673 38 46.9173 38 46.0007C38 45.084 37.25 44.334 36.3333 44.334H34.6667V41.0007H36.3333C37.25 41.0007 38 40.2507 38 39.334C38 38.4173 37.25 37.6673 36.3333 37.6673H18C17.0833 37.6673 16.3333 36.9173 16.3333 36.0007V19.334C16.3333 18.4173 17.0833 17.6673 18 17.6673H44.6667C45.5833 17.6673 46.3333 18.4173 46.3333 19.334V24.334C46.3333 25.2507 47.0833 26.0007 48 26.0007C48.9167 26.0007 49.6667 25.2507 49.6667 24.334V17.6673C49.6667 15.834 48.1667 14.334 46.3333 14.334ZM32.95 26.0007L31.3333 21.0007L29.7167 26.0007H24.6667L28.7833 28.934L27.2167 33.784L31.3333 30.784L35.45 33.784L33.8833 28.934L38 26.0007H32.95Z" fill="white"/>
</svg>
