<svg width="64" height="64" viewBox="0 0 64 64" fill="none" xmlns="http://www.w3.org/2000/svg">
<path d="M0 0H32C49.6731 0 64 14.3269 64 32C64 49.6731 49.6731 64 32 64C14.3269 64 0 49.6731 0 32V0Z" fill="#3380AD"/>
<path d="M51.3334 22.667V12.667H41.3334V16.0003H24.6667V12.667H14.6667V22.667H18.0001V39.3337H14.6667V49.3337H24.6667V46.0003H41.3334V49.3337H51.3334V39.3337H48.0001V22.667H51.3334ZM18.0001 16.0003H21.3334V19.3337H18.0001V16.0003ZM21.3334 46.0003H18.0001V42.667H21.3334V46.0003ZM41.3334 42.667H24.6667V39.3337H21.3334V22.667H24.6667V19.3337H41.3334V22.667H44.6667V39.3337H41.3334V42.667ZM48.0001 46.0003H44.6667V42.667H48.0001V46.0003ZM44.6667 19.3337V16.0003H48.0001V19.3337H44.6667ZM35.8834 34.3337H30.0667L28.8501 37.667H26.1501L31.8167 22.667H34.1501L39.8334 37.667H37.1167L35.8834 34.3337ZM30.8167 32.2337H35.1667L33.0001 25.8503L30.8167 32.2337Z" fill="white"/>
</svg>
