<svg width="64" height="64" viewBox="0 0 64 64" fill="none" xmlns="http://www.w3.org/2000/svg">
<path d="M0 0H32C49.6731 0 64 14.3269 64 32C64 49.6731 49.6731 64 32 64C14.3269 64 0 49.6731 0 32V0Z" fill="#3380AD"/>
<path d="M24.6665 19.3337H41.3332V21.0003C41.3332 21.917 42.0832 22.667 42.9999 22.667C43.9165 22.667 44.6665 21.917 44.6665 21.0003V16.0003C44.6665 14.167 43.1665 12.6837 41.3332 12.6837L24.6665 12.667C22.8332 12.667 21.3332 14.167 21.3332 16.0003V21.0003C21.3332 21.917 22.0832 22.667 22.9999 22.667C23.9165 22.667 24.6665 21.917 24.6665 21.0003V19.3337ZM39.8665 37.467L45.1499 32.1837C45.7999 31.5337 45.7999 30.4837 45.1499 29.8337L39.8665 24.5503C39.2165 23.9003 38.1499 23.9003 37.4999 24.5503C36.8499 25.2003 36.8499 26.2503 37.4999 26.9003L41.6165 31.0003L37.4999 35.117C36.8499 35.767 36.8499 36.817 37.4999 37.467C38.1499 38.117 39.2165 38.117 39.8665 37.467ZM28.4832 35.1003L24.3832 31.0003L28.4832 26.9003C29.1332 26.2503 29.1332 25.2003 28.4832 24.5503C27.8332 23.9003 26.7665 23.9003 26.1165 24.5503L20.8332 29.8337C20.1832 30.4837 20.1832 31.5337 20.8332 32.1837L26.1165 37.467C26.7665 38.117 27.8332 38.117 28.4832 37.467C29.1499 36.817 29.1332 35.7503 28.4832 35.1003ZM41.3332 42.667H24.6665V41.0003C24.6665 40.0837 23.9165 39.3337 22.9999 39.3337C22.0832 39.3337 21.3332 40.0837 21.3332 41.0003V46.0003C21.3332 47.8337 22.8332 49.3337 24.6665 49.3337H41.3332C43.1665 49.3337 44.6665 47.8337 44.6665 46.0003V41.0003C44.6665 40.0837 43.9165 39.3337 42.9999 39.3337C42.0832 39.3337 41.3332 40.0837 41.3332 41.0003V42.667Z" fill="white"/>
</svg>
