<svg width="203" height="204" viewBox="0 0 203 204" fill="none" xmlns="http://www.w3.org/2000/svg">
<path d="M203 102.214C203 158.271 157.557 203.714 101.5 203.714C45.4431 203.714 0 158.271 0 102.214C0 46.1568 45.4431 36.6616 101.5 36.6616C157.557 36.6616 203 46.1568 203 102.214Z" fill="white"/>
<rect y="-1" width="203" height="103" fill="white"/>
<path d="M53.8927 65.1851V113.711H42.0723V65.1851H53.8927Z" fill="#00263D"/>
<path d="M117.147 65.1851V113.711H105.327V84.6092L94.4744 113.711H84.9351L74.0133 84.5401V113.711H62.1929V65.1851H76.1562L89.7738 98.7799L103.253 65.1851H117.147Z" fill="#00263D"/>
<path d="M143.562 65.1851C148.677 65.1851 153.147 66.1989 156.972 68.2266C160.797 70.2542 163.746 73.1114 165.82 76.7981C167.94 80.4387 169 84.6553 169 89.448C169 94.1946 167.94 98.4112 165.82 102.098C163.746 105.785 160.774 108.642 156.903 110.669C153.078 112.697 148.631 113.711 143.562 113.711H125.382V65.1851H143.562ZM142.801 103.48C147.271 103.48 150.751 102.259 153.239 99.8168C155.728 97.3743 156.972 93.9181 156.972 89.448C156.972 84.9779 155.728 81.4986 153.239 79.0101C150.751 76.5216 147.271 75.2773 142.801 75.2773H137.202V103.48H142.801Z" fill="#00263D"/>
<path d="M43.5066 121.942V129.403H42.0723V121.942H43.5066Z" fill="#00263D"/>
<path d="M47.9088 123.396C48.585 123.396 49.1314 123.62 49.5481 124.069C49.9647 124.511 50.173 125.131 50.173 125.929V129.403H48.7387V126.132C48.7387 125.662 48.626 125.302 48.4006 125.053C48.1752 124.796 47.8679 124.668 47.4785 124.668C47.0824 124.668 46.7682 124.796 46.536 125.053C46.3106 125.302 46.1979 125.662 46.1979 126.132V129.403H44.7636V123.481H46.1979V124.219C46.3892 123.962 46.6316 123.763 46.9253 123.62C47.2258 123.47 47.5537 123.396 47.9088 123.396Z" fill="#00263D"/>
<path d="M51.0081 126.421C51.0081 125.822 51.1208 125.291 51.3462 124.828C51.5784 124.365 51.8926 124.009 52.2887 123.759C52.6848 123.51 53.1254 123.385 53.6103 123.385C53.9791 123.385 54.3309 123.47 54.6656 123.642C55.0002 123.805 55.2666 124.026 55.4647 124.304V121.493H56.9195V129.403H55.4647V128.527C55.2871 128.819 55.0378 129.054 54.7168 129.232C54.3958 129.411 54.0235 129.5 53.6001 129.5C53.122 129.5 52.6848 129.371 52.2887 129.115C51.8926 128.858 51.5784 128.498 51.3462 128.035C51.1208 127.565 51.0081 127.027 51.0081 126.421ZM55.4749 126.442C55.4749 126.079 55.4066 125.769 55.27 125.512C55.1334 125.249 54.949 125.049 54.7168 124.914C54.4846 124.771 54.2353 124.7 53.9689 124.7C53.7025 124.7 53.4566 124.768 53.2312 124.903C53.0059 125.038 52.8214 125.238 52.678 125.502C52.5414 125.758 52.4731 126.065 52.4731 126.421C52.4731 126.777 52.5414 127.091 52.678 127.362C52.8214 127.625 53.0059 127.828 53.2312 127.971C53.4635 128.113 53.7094 128.185 53.9689 128.185C54.2353 128.185 54.4846 128.117 54.7168 127.982C54.949 127.839 55.1334 127.64 55.27 127.383C55.4066 127.119 55.4749 126.806 55.4749 126.442Z" fill="#00263D"/>
<path d="M58.8877 122.776C58.6349 122.776 58.4232 122.694 58.2525 122.53C58.0885 122.359 58.0066 122.148 58.0066 121.899C58.0066 121.65 58.0885 121.443 58.2525 121.279C58.4232 121.108 58.6349 121.022 58.8877 121.022C59.1404 121.022 59.3487 121.108 59.5126 121.279C59.6834 121.443 59.7687 121.65 59.7687 121.899C59.7687 122.148 59.6834 122.359 59.5126 122.53C59.3487 122.694 59.1404 122.776 58.8877 122.776ZM59.5946 123.481V129.403H58.1603V123.481H59.5946Z" fill="#00263D"/>
<path d="M60.4828 126.442C60.4828 125.829 60.6023 125.295 60.8413 124.839C61.0804 124.376 61.4117 124.019 61.8351 123.77C62.2586 123.513 62.7435 123.385 63.2899 123.385C63.9934 123.385 64.574 123.57 65.0316 123.941C65.496 124.304 65.8068 124.817 65.9639 125.48H64.4169C64.3349 125.224 64.1949 125.024 63.9968 124.882C63.8056 124.732 63.5665 124.657 63.2797 124.657C62.8699 124.657 62.5454 124.814 62.3064 125.127C62.0673 125.434 61.9478 125.872 61.9478 126.442C61.9478 127.005 62.0673 127.444 62.3064 127.757C62.5454 128.064 62.8699 128.217 63.2797 128.217C63.8602 128.217 64.2393 127.946 64.4169 127.404H65.9639C65.8068 128.046 65.496 128.555 65.0316 128.933C64.5671 129.311 63.9866 129.5 63.2899 129.5C62.7435 129.5 62.2586 129.375 61.8351 129.125C61.4117 128.869 61.0804 128.513 60.8413 128.056C60.6023 127.593 60.4828 127.055 60.4828 126.442Z" fill="#00263D"/>
<path d="M72.1308 126.314C72.1308 126.528 72.1171 126.72 72.0898 126.891H67.9406C67.9747 127.319 68.1181 127.654 68.3708 127.896C68.6236 128.138 68.9343 128.26 69.3031 128.26C69.8359 128.26 70.215 128.021 70.4404 127.543H71.9874C71.8234 128.113 71.5093 128.584 71.0448 128.954C70.5804 129.318 70.0101 129.5 69.3339 129.5C68.7875 129.5 68.2957 129.375 67.8586 129.125C67.4283 128.869 67.0902 128.509 66.8443 128.046C66.6053 127.583 66.4857 127.048 66.4857 126.442C66.4857 125.829 66.6053 125.291 66.8443 124.828C67.0834 124.365 67.4181 124.009 67.8483 123.759C68.2786 123.51 68.7738 123.385 69.3339 123.385C69.8735 123.385 70.355 123.506 70.7784 123.748C71.2087 123.991 71.54 124.336 71.7722 124.785C72.0113 125.227 72.1308 125.737 72.1308 126.314ZM70.6453 125.886C70.6384 125.502 70.5052 125.195 70.2457 124.967C69.9862 124.732 69.6686 124.614 69.2929 124.614C68.9377 124.614 68.6372 124.728 68.3913 124.956C68.1523 125.177 68.0054 125.487 67.9508 125.886H70.6453Z" fill="#00263D"/>
<path d="M74.9299 126.421C74.9299 125.822 75.0426 125.291 75.268 124.828C75.5003 124.365 75.8144 124.009 76.2106 123.759C76.6067 123.51 77.0473 123.385 77.5322 123.385C77.901 123.385 78.2528 123.47 78.5874 123.642C78.9221 123.805 79.1885 124.026 79.3866 124.304V121.493H80.8414V129.403H79.3866V128.527C79.209 128.819 78.9597 129.054 78.6387 129.232C78.3176 129.411 77.9454 129.5 77.5219 129.5C77.0438 129.5 76.6067 129.371 76.2106 129.115C75.8144 128.858 75.5003 128.498 75.268 128.035C75.0426 127.565 74.9299 127.027 74.9299 126.421ZM79.3968 126.442C79.3968 126.079 79.3285 125.769 79.1919 125.512C79.0553 125.249 78.8709 125.049 78.6387 124.914C78.4064 124.771 78.1571 124.7 77.8908 124.7C77.6244 124.7 77.3785 124.768 77.1531 124.903C76.9277 125.038 76.7433 125.238 76.5999 125.502C76.4633 125.758 76.395 126.065 76.395 126.421C76.395 126.777 76.4633 127.091 76.5999 127.362C76.7433 127.625 76.9277 127.828 77.1531 127.971C77.3853 128.113 77.6312 128.185 77.8908 128.185C78.1571 128.185 78.4064 128.117 78.6387 127.982C78.8709 127.839 79.0553 127.64 79.1919 127.383C79.3285 127.119 79.3968 126.806 79.3968 126.442Z" fill="#00263D"/>
<path d="M87.3584 126.314C87.3584 126.528 87.3447 126.72 87.3174 126.891H83.1681C83.2023 127.319 83.3457 127.654 83.5984 127.896C83.8511 128.138 84.1619 128.26 84.5307 128.26C85.0635 128.26 85.4425 128.021 85.6679 127.543H87.2149C87.051 128.113 86.7368 128.584 86.2724 128.954C85.8079 129.318 85.2376 129.5 84.5614 129.5C84.015 129.5 83.5233 129.375 83.0861 129.125C82.6559 128.869 82.3178 128.509 82.0719 128.046C81.8328 127.583 81.7133 127.048 81.7133 126.442C81.7133 125.829 81.8328 125.291 82.0719 124.828C82.3109 124.365 82.6456 124.009 83.0759 123.759C83.5062 123.51 84.0014 123.385 84.5614 123.385C85.101 123.385 85.5825 123.506 86.006 123.748C86.4363 123.991 86.7676 124.336 86.9998 124.785C87.2388 125.227 87.3584 125.737 87.3584 126.314ZM85.8728 125.886C85.866 125.502 85.7328 125.195 85.4733 124.967C85.2137 124.732 84.8961 124.614 84.5205 124.614C84.1653 124.614 83.8648 124.728 83.6189 124.956C83.3798 125.177 83.233 125.487 83.1784 125.886H85.8728Z" fill="#00263D"/>
<path d="M98.3228 121.942V129.403H96.8885V124.55L94.9727 129.403H93.8867L91.9606 124.55V129.403H90.5263V121.942H92.1553L94.4297 127.49L96.7041 121.942H98.3228Z" fill="#00263D"/>
<path d="M99.212 126.421C99.212 125.822 99.3247 125.291 99.5501 124.828C99.7823 124.365 100.093 124.009 100.482 123.759C100.879 123.51 101.319 123.385 101.804 123.385C102.227 123.385 102.596 123.474 102.91 123.652C103.231 123.83 103.488 124.055 103.679 124.326V123.481H105.123V129.403H103.679V128.538C103.494 128.815 103.238 129.047 102.91 129.232C102.589 129.411 102.217 129.5 101.794 129.5C101.316 129.5 100.879 129.371 100.482 129.115C100.093 128.858 99.7823 128.498 99.5501 128.035C99.3247 127.565 99.212 127.027 99.212 126.421ZM103.679 126.442C103.679 126.079 103.611 125.769 103.474 125.512C103.337 125.249 103.153 125.049 102.921 124.914C102.689 124.771 102.439 124.7 102.173 124.7C101.906 124.7 101.661 124.768 101.435 124.903C101.21 125.038 101.025 125.238 100.882 125.502C100.745 125.758 100.677 126.065 100.677 126.421C100.677 126.777 100.745 127.091 100.882 127.362C101.025 127.625 101.21 127.828 101.435 127.971C101.667 128.113 101.913 128.185 102.173 128.185C102.439 128.185 102.689 128.117 102.921 127.982C103.153 127.839 103.337 127.64 103.474 127.383C103.611 127.119 103.679 126.806 103.679 126.442Z" fill="#00263D"/>
<path d="M105.995 126.421C105.995 125.822 106.108 125.291 106.333 124.828C106.566 124.365 106.88 124.009 107.276 123.759C107.672 123.51 108.113 123.385 108.598 123.385C108.966 123.385 109.318 123.47 109.653 123.642C109.988 123.805 110.254 124.026 110.452 124.304V121.493H111.907V129.403H110.452V128.527C110.274 128.819 110.025 129.054 109.704 129.232C109.383 129.411 109.011 129.5 108.587 129.5C108.109 129.5 107.672 129.371 107.276 129.115C106.88 128.858 106.566 128.498 106.333 128.035C106.108 127.565 105.995 127.027 105.995 126.421ZM110.462 126.442C110.462 126.079 110.394 125.769 110.257 125.512C110.121 125.249 109.936 125.049 109.704 124.914C109.472 124.771 109.223 124.7 108.956 124.7C108.69 124.7 108.444 124.768 108.219 124.903C107.993 125.038 107.809 125.238 107.665 125.502C107.529 125.758 107.46 126.065 107.46 126.421C107.46 126.777 107.529 127.091 107.665 127.362C107.809 127.625 107.993 127.828 108.219 127.971C108.451 128.113 108.697 128.185 108.956 128.185C109.223 128.185 109.472 128.117 109.704 127.982C109.936 127.839 110.121 127.64 110.257 127.383C110.394 127.119 110.462 126.806 110.462 126.442Z" fill="#00263D"/>
<path d="M118.506 123.481V129.403H117.061V128.655C116.877 128.912 116.634 129.115 116.334 129.264C116.04 129.407 115.719 129.478 115.371 129.478C114.927 129.478 114.534 129.382 114.193 129.19C113.851 128.99 113.581 128.701 113.383 128.324C113.192 127.939 113.096 127.483 113.096 126.955V123.481H114.531V126.742C114.531 127.212 114.643 127.575 114.869 127.832C115.094 128.081 115.401 128.206 115.791 128.206C116.187 128.206 116.498 128.081 116.723 127.832C116.948 127.575 117.061 127.212 117.061 126.742V123.481H118.506Z" fill="#00263D"/>
<path d="M121.195 124.4C121.38 124.087 121.619 123.841 121.912 123.663C122.213 123.485 122.554 123.396 122.937 123.396V124.967H122.558C122.107 124.967 121.765 125.078 121.533 125.298C121.308 125.519 121.195 125.904 121.195 126.453V129.403H119.761V123.481H121.195V124.4Z" fill="#00263D"/>
<path d="M129.019 126.314C129.019 126.528 129.005 126.72 128.978 126.891H124.829C124.863 127.319 125.006 127.654 125.259 127.896C125.512 128.138 125.823 128.26 126.191 128.26C126.724 128.26 127.103 128.021 127.329 127.543H128.876C128.712 128.113 128.397 128.584 127.933 128.954C127.469 129.318 126.898 129.5 126.222 129.5C125.676 129.5 125.184 129.375 124.747 129.125C124.317 128.869 123.978 128.509 123.733 128.046C123.494 127.583 123.374 127.048 123.374 126.442C123.374 125.829 123.494 125.291 123.733 124.828C123.972 124.365 124.306 124.009 124.737 123.759C125.167 123.51 125.662 123.385 126.222 123.385C126.762 123.385 127.243 123.506 127.667 123.748C128.097 123.991 128.428 124.336 128.66 124.785C128.9 125.227 129.019 125.737 129.019 126.314ZM127.534 125.886C127.527 125.502 127.393 125.195 127.134 124.967C126.874 124.732 126.557 124.614 126.181 124.614C125.826 124.614 125.525 124.728 125.28 124.956C125.041 125.177 124.894 125.487 124.839 125.886H127.534Z" fill="#00263D"/>
<path d="M131.217 128.174H133.748V129.403H129.588V128.195L132.068 124.711H129.599V123.481H133.717V124.689L131.217 128.174Z" fill="#00263D"/>
<path d="M139.479 121.942C140.23 121.942 140.89 122.095 141.457 122.401C142.03 122.708 142.471 123.146 142.778 123.716C143.092 124.279 143.249 124.935 143.249 125.683C143.249 126.432 143.092 127.087 142.778 127.65C142.471 128.206 142.03 128.637 141.457 128.944C140.89 129.25 140.23 129.403 139.479 129.403H136.979V121.942H139.479ZM139.428 128.131C140.179 128.131 140.76 127.917 141.17 127.49C141.579 127.062 141.784 126.46 141.784 125.683C141.784 124.906 141.579 124.301 141.17 123.866C140.76 123.424 140.179 123.203 139.428 123.203H138.414V128.131H139.428Z" fill="#00263D"/>
<path d="M144.89 122.776C144.638 122.776 144.426 122.694 144.255 122.53C144.091 122.359 144.009 122.148 144.009 121.899C144.009 121.65 144.091 121.443 144.255 121.279C144.426 121.108 144.638 121.022 144.89 121.022C145.143 121.022 145.351 121.108 145.515 121.279C145.686 121.443 145.771 121.65 145.771 121.899C145.771 122.148 145.686 122.359 145.515 122.53C145.351 122.694 145.143 122.776 144.89 122.776ZM145.597 123.481V129.403H144.163V123.481H145.597Z" fill="#00263D"/>
<path d="M149.077 123.385C149.501 123.385 149.873 123.474 150.194 123.652C150.515 123.823 150.768 124.048 150.952 124.326V123.481H152.397V129.446C152.397 129.995 152.291 130.483 152.079 130.911C151.868 131.345 151.55 131.687 151.126 131.937C150.703 132.193 150.191 132.322 149.59 132.322C148.784 132.322 148.121 132.126 147.602 131.734C147.09 131.342 146.8 130.807 146.731 130.13H148.155C148.231 130.401 148.391 130.615 148.637 130.772C148.89 130.936 149.194 131.018 149.549 131.018C149.965 131.018 150.303 130.886 150.563 130.622C150.823 130.365 150.952 129.974 150.952 129.446V128.527C150.768 128.805 150.512 129.036 150.184 129.222C149.863 129.407 149.494 129.5 149.077 129.5C148.599 129.5 148.162 129.371 147.766 129.115C147.37 128.858 147.056 128.498 146.824 128.035C146.598 127.565 146.485 127.027 146.485 126.421C146.485 125.822 146.598 125.291 146.824 124.828C147.056 124.365 147.367 124.009 147.756 123.759C148.152 123.51 148.593 123.385 149.077 123.385ZM150.952 126.442C150.952 126.079 150.884 125.769 150.747 125.512C150.611 125.249 150.426 125.049 150.194 124.914C149.962 124.771 149.713 124.7 149.446 124.7C149.18 124.7 148.934 124.768 148.709 124.903C148.483 125.038 148.299 125.238 148.155 125.502C148.019 125.758 147.951 126.065 147.951 126.421C147.951 126.777 148.019 127.091 148.155 127.362C148.299 127.625 148.483 127.828 148.709 127.971C148.941 128.113 149.187 128.185 149.446 128.185C149.713 128.185 149.962 128.117 150.194 127.982C150.426 127.839 150.611 127.64 150.747 127.383C150.884 127.119 150.952 126.806 150.952 126.442Z" fill="#00263D"/>
<path d="M154.365 122.776C154.112 122.776 153.901 122.694 153.73 122.53C153.566 122.359 153.484 122.148 153.484 121.899C153.484 121.65 153.566 121.443 153.73 121.279C153.901 121.108 154.112 121.022 154.365 121.022C154.618 121.022 154.826 121.108 154.99 121.279C155.161 121.443 155.246 121.65 155.246 121.899C155.246 122.148 155.161 122.359 154.99 122.53C154.826 122.694 154.618 122.776 154.365 122.776ZM155.072 123.481V129.403H153.638V123.481H155.072Z" fill="#00263D"/>
<path d="M157.999 124.711V127.575C157.999 127.775 158.043 127.921 158.132 128.014C158.228 128.099 158.385 128.142 158.603 128.142H159.269V129.403H158.368C157.159 129.403 156.554 128.791 156.554 127.565V124.711H155.878V123.481H156.554V122.017H157.999V123.481H159.269V124.711H157.999Z" fill="#00263D"/>
<path d="M159.772 126.421C159.772 125.822 159.885 125.291 160.11 124.828C160.342 124.365 160.653 124.009 161.042 123.759C161.439 123.51 161.879 123.385 162.364 123.385C162.788 123.385 163.156 123.474 163.471 123.652C163.792 123.83 164.048 124.055 164.239 124.326V123.481H165.683V129.403H164.239V128.538C164.055 128.815 163.798 129.047 163.471 129.232C163.15 129.411 162.777 129.5 162.354 129.5C161.876 129.5 161.439 129.371 161.042 129.115C160.653 128.858 160.342 128.498 160.11 128.035C159.885 127.565 159.772 127.027 159.772 126.421ZM164.239 126.442C164.239 126.079 164.171 125.769 164.034 125.512C163.897 125.249 163.713 125.049 163.481 124.914C163.249 124.771 162.999 124.7 162.733 124.7C162.467 124.7 162.221 124.768 161.995 124.903C161.77 125.038 161.585 125.238 161.442 125.502C161.305 125.758 161.237 126.065 161.237 126.421C161.237 126.777 161.305 127.091 161.442 127.362C161.585 127.625 161.77 127.828 161.995 127.971C162.227 128.113 162.473 128.185 162.733 128.185C162.999 128.185 163.249 128.117 163.481 127.982C163.713 127.839 163.897 127.64 164.034 127.383C164.171 127.119 164.239 126.806 164.239 126.442Z" fill="#00263D"/>
<path d="M168.359 121.493V129.403H166.924V121.493H168.359Z" fill="#00263D"/>
</svg>
