<svg width="26" height="26" viewBox="0 0 26 26" fill="none" xmlns="http://www.w3.org/2000/svg">
<path d="M22.1667 3.83317C17.0975 -1.236 8.9025 -1.236 3.83333 3.83317C-1.23583 8.90234 -1.23583 17.0973 3.83333 22.1665C8.9025 27.2357 17.0975 27.2357 22.1667 22.1665C27.2358 17.0973 27.2358 8.90234 22.1667 3.83317ZM13 20.8832C12.285 20.8832 11.7075 20.3057 11.7075 19.5907L11.7075 14.2923L6.40917 14.2923C5.69417 14.2923 5.11667 13.7148 5.11667 12.9998C5.11667 12.2848 5.69417 11.7073 6.40917 11.7073H11.7075L11.7075 6.409C11.7075 5.694 12.285 5.1165 13 5.1165C13.715 5.1165 14.2925 5.694 14.2925 6.409L14.2925 11.7073H19.5908C20.3058 11.7073 20.8833 12.2848 20.8833 12.9998C20.8833 13.7148 20.3058 14.2923 19.5908 14.2923L14.2925 14.2923L14.2925 19.5907C14.2925 20.2873 13.7058 20.874 13 20.8832Z" fill="#C41A90"/>
</svg>
