<svg width="26" height="26" viewBox="0 0 26 26" fill="none" xmlns="http://www.w3.org/2000/svg">
<path d="M25.9639 12.9998C25.9639 5.83091 20.1691 0.0361328 13.0002 0.0361328C5.83123 0.0361328 0.0364538 5.83091 0.0364538 12.9998C0.0364538 20.1688 5.83123 25.9635 13.0002 25.9635C20.1691 25.9635 25.9639 20.1688 25.9639 12.9998ZM7.42577 18.5742C6.92018 18.0686 6.92018 17.2519 7.42577 16.7464L11.1723 12.9998L7.42577 9.25333C6.92018 8.74774 6.92018 7.93103 7.42577 7.42545C7.93135 6.91986 8.74806 6.91986 9.25365 7.42545L13.0002 11.172L16.7467 7.42545C17.2523 6.91986 18.069 6.91986 18.5746 7.42545C19.0801 7.93103 19.0801 8.74774 18.5746 9.25333L14.828 12.9998L18.5746 16.7464C19.0801 17.2519 19.0801 18.0686 18.5746 18.5742C18.069 19.0798 17.2523 19.0798 16.7467 18.5742L13.0002 14.8277L9.25365 18.5742C8.76103 19.0669 7.93135 19.0669 7.42577 18.5742Z" fill="#C41A90"/>
</svg>
