<svg width="64" height="64" viewBox="0 0 64 64" fill="none" xmlns="http://www.w3.org/2000/svg">
<path d="M0 0H32C49.6731 0 64 14.3269 64 32C64 49.6731 49.6731 64 32 64C14.3269 64 0 49.6731 0 32V0Z" fill="#3380AD"/>
<path d="M31.3334 21.0003C33.6334 21.0003 35.7167 21.9337 37.2334 23.4337L34.4167 26.2503C33.9001 26.767 34.2667 27.667 35.0167 27.667H42.1667C42.6334 27.667 43.0001 27.3003 43.0001 26.8337V19.6837C43.0001 18.9337 42.1001 18.567 41.5834 19.1003L39.5834 21.1003C37.4667 18.967 34.5501 17.667 31.3334 17.667C26.2667 17.667 21.9667 20.9003 20.3667 25.4003C19.9667 26.5003 20.7501 27.667 21.9167 27.667C22.6167 27.667 23.2334 27.2337 23.4667 26.567C24.6001 23.3337 27.7001 21.0003 31.3334 21.0003ZM40.7334 36.2337C41.4001 35.3337 41.9334 34.317 42.3167 33.2337C42.7001 32.1503 41.9001 31.0003 40.7501 31.0003C40.0501 31.0003 39.4334 31.4337 39.2001 32.1003C38.0667 35.3337 34.9667 37.667 31.3334 37.667C29.0334 37.667 26.9501 36.7337 25.4334 35.2337L28.2501 32.417C28.7667 31.9003 28.4001 31.0003 27.6501 31.0003H20.5001C20.0334 31.0003 19.6667 31.367 19.6667 31.8337V38.9837C19.6667 39.7337 20.5667 40.1003 21.0834 39.567L23.0834 37.567C25.2001 39.7003 28.1167 41.0003 31.3334 41.0003C33.9167 41.0003 36.3001 40.1503 38.2334 38.7337L45.0834 45.5837C45.7667 46.267 46.8834 46.267 47.5667 45.5837C48.2501 44.9003 48.2501 43.7837 47.5667 43.1003L40.7334 36.2337Z" fill="white"/>
</svg>
