<svg width="27" height="27" viewBox="0 0 27 27" fill="none" xmlns="http://www.w3.org/2000/svg">
<path d="M24.6614 15.3603H15.3603V24.6614C15.3603 25.6845 14.5232 26.5216 13.5001 26.5216C12.4769 26.5216 11.6398 25.6845 11.6398 24.6614V15.3603H2.33874C1.31562 15.3603 0.478516 14.5232 0.478516 13.5001C0.478516 12.4769 1.31562 11.6398 2.33874 11.6398H11.6398V2.33874C11.6398 1.31562 12.4769 0.478516 13.5001 0.478516C14.5232 0.478516 15.3603 1.31562 15.3603 2.33874V11.6398H24.6614C25.6845 11.6398 26.5216 12.4769 26.5216 13.5001C26.5216 14.5232 25.6845 15.3603 24.6614 15.3603Z" fill="white"/>
</svg>
