<svg width="59" height="60" viewBox="0 0 59 60" fill="none" xmlns="http://www.w3.org/2000/svg">
<path d="M53.6523 7.47797V5.01992C53.6523 4.41489 53.412 3.83465 52.9841 3.40683C52.5563 2.97901 51.9761 2.73867 51.3711 2.73867H49.0898V1.96875C49.0898 1.66623 48.9696 1.37611 48.7557 1.1622C48.5418 0.948295 48.2517 0.828122 47.9492 0.828122H36.9878C36.247 0.82568 35.5295 1.08641 34.9632 1.56383C34.3923 1.08258 33.668 0.821602 32.9214 0.828122H21.9372C21.6347 0.828122 21.3446 0.948295 21.1307 1.1622C20.9168 1.37611 20.7966 1.66623 20.7966 1.96875V2.75578H18.5154C17.9103 2.75578 17.3301 2.99612 16.9023 3.42394C16.4744 3.85176 16.2341 4.432 16.2341 5.03703V26.1386C16.2341 26.85 16.5163 27.5324 17.0188 28.036C17.5214 28.5396 18.2031 28.8232 18.9146 28.8248H32.9214C33.6628 28.8251 34.3802 28.5624 34.9461 28.0834C35.5119 28.5624 36.2293 28.8251 36.9707 28.8248H50.9547C51.6662 28.8232 52.3479 28.5396 52.8505 28.036C53.353 27.5324 53.6352 26.85 53.6352 26.1386V9.82195C54.3776 10.0597 55.0254 10.5267 55.4856 11.156C55.9457 11.7852 56.1944 12.5441 56.1959 13.3237V36.6609H52.4946C52.1921 36.6609 51.9019 36.781 51.688 36.9949C51.4741 37.2088 51.3539 37.499 51.3539 37.8015C51.3539 38.104 51.4741 38.3941 51.688 38.608C51.9019 38.8219 52.1921 38.9421 52.4946 38.9421H56.1959V44.976C56.1959 45.9516 55.8083 46.8873 55.1185 47.5771C54.4286 48.267 53.493 48.6545 52.5174 48.6545H6.46465C5.48905 48.6545 4.5534 48.267 3.86355 47.5771C3.17369 46.8873 2.78613 45.9516 2.78613 44.976V38.9421H47.6013C47.9038 38.9421 48.1939 38.8219 48.4078 38.608C48.6217 38.3941 48.7419 38.104 48.7419 37.8015C48.7419 37.499 48.6217 37.2088 48.4078 36.9949C48.1939 36.781 47.9038 36.6609 47.6013 36.6609H2.78613V13.3237C2.78764 12.3491 3.17587 11.4149 3.86556 10.7263C4.55525 10.0376 5.49003 9.65086 6.46465 9.65086H11.8199C12.1224 9.65086 12.4125 9.53068 12.6264 9.31677C12.8403 9.10287 12.9605 8.81274 12.9605 8.51023C12.9605 8.20772 12.8403 7.9176 12.6264 7.70369C12.4125 7.48978 12.1224 7.36961 11.8199 7.36961H6.45895C4.88029 7.37112 3.36673 7.9989 2.25046 9.11518C1.13418 10.2315 0.506393 11.745 0.504883 13.3237V44.976C0.506393 46.5562 1.13478 48.0712 2.25213 49.1885C3.36947 50.3059 4.88448 50.9343 6.46465 50.9358H18.6636V56.8898H12.6525C12.35 56.8898 12.0599 57.01 11.846 57.2239C11.6321 57.4378 11.5119 57.728 11.5119 58.0305C11.5119 58.333 11.6321 58.6231 11.846 58.837C12.0599 59.0509 12.35 59.1711 12.6525 59.1711H46.3466C46.6491 59.1711 46.9392 59.0509 47.1531 58.837C47.3671 58.6231 47.4872 58.333 47.4872 58.0305C47.4872 57.728 47.3671 57.4378 47.1531 57.2239C46.9392 57.01 46.6491 56.8898 46.3466 56.8898H40.3355V50.9358H52.5117C54.0918 50.9343 55.6069 50.3059 56.7242 49.1885C57.8415 48.0712 58.4699 46.5562 58.4714 44.976V13.3237C58.4705 11.9417 57.9894 10.6029 57.1103 9.53654C56.2312 8.47017 55.0088 7.74247 53.6523 7.47797ZM33.8225 25.6082C33.8226 25.726 33.7992 25.8426 33.7537 25.9513C33.7083 26.06 33.6418 26.1586 33.5579 26.2414C33.4741 26.3241 33.3747 26.3894 33.2654 26.4335C33.1562 26.4775 33.0392 26.4994 32.9214 26.4979H18.9545C18.9016 26.4979 18.8492 26.4874 18.8004 26.467C18.7516 26.4465 18.7073 26.4166 18.6702 26.3789C18.633 26.3413 18.6037 26.2966 18.584 26.2475C18.5643 26.1984 18.5545 26.1459 18.5553 26.093V5.03703H20.8365V22.5855C20.8365 22.8881 20.9567 23.1782 21.1706 23.3921C21.3845 23.606 21.6746 23.7262 21.9771 23.7262C22.6786 23.6463 33.4176 23.903 33.8625 23.6007L33.8225 25.6082ZM33.8225 20.5324C33.8264 20.6523 33.8059 20.7718 33.7621 20.8835C33.7184 20.9952 33.6523 21.0969 33.568 21.1822C33.4837 21.2676 33.3829 21.3349 33.2717 21.3801C33.1606 21.4252 33.0414 21.4473 32.9214 21.4449H23.0779V3.10937H32.9214C33.0375 3.10937 33.1525 3.13224 33.2597 3.17666C33.367 3.22109 33.4644 3.2862 33.5465 3.36828C33.6286 3.45037 33.6937 3.54782 33.7381 3.65507C33.7826 3.76232 33.8054 3.87727 33.8054 3.99336L33.8225 20.5324ZM36.1038 3.99336C36.1038 3.75891 36.1969 3.53406 36.3627 3.36828C36.5285 3.20251 36.7533 3.10937 36.9878 3.10937H46.8485V21.4449H36.9878C36.7533 21.4449 36.5285 21.3518 36.3627 21.186C36.1969 21.0202 36.1038 20.7954 36.1038 20.5609V3.99336ZM51.3711 26.093C51.3711 26.1994 51.3292 26.3015 51.2545 26.3773C51.1798 26.4531 51.0782 26.4964 50.9718 26.4979H36.9878C36.7528 26.4964 36.528 26.402 36.3624 26.2353C36.1967 26.0686 36.1038 25.8432 36.1038 25.6082V23.5722C36.2064 23.863 47.55 23.6235 47.9891 23.6977C48.2916 23.6977 48.5817 23.5775 48.7956 23.3636C49.0096 23.1497 49.1297 22.8595 49.1297 22.557V5.03132H51.3711V26.093ZM38.0543 56.8898H20.9449V50.9358H38.0543V56.8898Z" fill="#006099"/>
</svg>
