<svg width="65" height="64" viewBox="0 0 65 64" fill="none" xmlns="http://www.w3.org/2000/svg">
<path d="M0.5 0H32.5C50.1731 0 64.5 14.3269 64.5 32C64.5 49.6731 50.1731 64 32.5 64C14.8269 64 0.5 49.6731 0.5 32V0Z" fill="#3380AD"/>
<path d="M32.5 32C36.3675 32 39.5 28.8675 39.5 25C39.5 21.1325 36.3675 18 32.5 18C28.6325 18 25.5 21.1325 25.5 25C25.5 28.8675 28.6325 32 32.5 32ZM32.5 21.5C34.425 21.5 36 23.075 36 25C36 26.925 34.425 28.5 32.5 28.5C30.575 28.5 29 26.925 29 25C29 23.075 30.575 21.5 32.5 21.5ZM32.5 33.75C27.8275 33.75 18.5 36.095 18.5 40.75V44.25C18.5 45.2125 19.2875 46 20.25 46H44.75C45.7125 46 46.5 45.2125 46.5 44.25V40.75C46.5 36.095 37.1725 33.75 32.5 33.75ZM43 42.5H22V40.7675C22.35 39.5075 27.775 37.25 32.5 37.25C37.225 37.25 42.65 39.5075 43 40.75V42.5Z" fill="white"/>
</svg>
