<svg width="65" height="64" viewBox="0 0 65 64" fill="none" xmlns="http://www.w3.org/2000/svg">
<path d="M0.5 0H32.5C50.1731 0 64.5 14.3269 64.5 32C64.5 49.6731 50.1731 64 32.5 64C14.8269 64 0.5 49.6731 0.5 32V0Z" fill="#3380AD"/>
<path d="M20.25 34.0652V38.9827C20.25 40.2602 20.95 41.4502 22.07 42.0627L30.82 46.8402C31.87 47.4177 33.13 47.4177 34.18 46.8402L42.93 42.0627C44.05 41.4502 44.75 40.2602 44.75 38.9827V34.0652L34.18 39.8402C33.13 40.4177 31.87 40.4177 30.82 39.8402L20.25 34.0652ZM30.82 17.1602L16.0675 25.2102C14.86 25.8752 14.86 27.6252 16.0675 28.2902L30.82 36.3402C31.87 36.9177 33.13 36.9177 34.18 36.3402L48.25 28.6577V39.0002C48.25 39.9627 49.0375 40.7502 50 40.7502C50.9625 40.7502 51.75 39.9627 51.75 39.0002V27.7827C51.75 27.1352 51.4 26.5577 50.84 26.2427L34.18 17.1602C33.13 16.6002 31.87 16.6002 30.82 17.1602Z" fill="white"/>
</svg>
