<svg width="65" height="64" viewBox="0 0 65 64" fill="none" xmlns="http://www.w3.org/2000/svg">
<path d="M0.5 0H32.5C50.1731 0 64.5 14.3269 64.5 32C64.5 49.6731 50.1731 64 32.5 64C14.8269 64 0.5 49.6731 0.5 32V0Z" fill="#3380AD"/>
<path d="M27.25 32C30.6275 32 33.375 29.2525 33.375 25.875C33.375 22.4975 30.6275 19.75 27.25 19.75C23.8725 19.75 21.125 22.4975 21.125 25.875C21.125 29.2525 23.8725 32 27.25 32ZM27.25 23.25C28.7025 23.25 29.875 24.4225 29.875 25.875C29.875 27.3275 28.7025 28.5 27.25 28.5C25.7975 28.5 24.625 27.3275 24.625 25.875C24.625 24.4225 25.7975 23.25 27.25 23.25ZM27.25 35.0625C23.155 35.0625 15 37.11 15 41.1875V42.5C15 43.4625 15.7875 44.25 16.75 44.25H37.75C38.7125 44.25 39.5 43.4625 39.5 42.5V41.1875C39.5 37.11 31.345 35.0625 27.25 35.0625ZM19.095 40.75C20.565 39.735 24.1175 38.5625 27.25 38.5625C30.3825 38.5625 33.935 39.735 35.405 40.75H19.095ZM39.57 35.1675C41.6 36.6375 43 38.5975 43 41.1875V44.25H48.25C49.2125 44.25 50 43.4625 50 42.5V41.1875C50 37.6525 43.875 35.64 39.57 35.1675ZM37.75 32C41.1275 32 43.875 29.2525 43.875 25.875C43.875 22.4975 41.1275 19.75 37.75 19.75C36.805 19.75 35.93 19.9775 35.125 20.3625C36.2275 21.92 36.875 23.8275 36.875 25.875C36.875 27.9225 36.2275 29.83 35.125 31.3875C35.93 31.7725 36.805 32 37.75 32Z" fill="white"/>
</svg>
