<svg width="64" height="64" viewBox="0 0 64 64" fill="none" xmlns="http://www.w3.org/2000/svg">
<path d="M0 0H32C49.6731 0 64 14.3269 64 32C64 49.6731 49.6731 64 32 64C14.3269 64 0 49.6731 0 32V0Z" fill="#99BFD6"/>
<path d="M37.81 16.25H26.19C25.735 16.25 25.28 16.4425 24.965 16.7575L16.7575 24.965C16.4425 25.28 16.25 25.735 16.25 26.19V37.7925C16.25 38.265 16.4425 38.7025 16.7575 39.035L24.9475 47.225C25.28 47.5575 25.735 47.75 26.19 47.75H37.7925C38.265 47.75 38.7025 47.5575 39.035 47.2425L47.225 39.0525C47.5575 38.72 47.7325 38.2825 47.7325 37.81V26.19C47.7325 25.7175 47.54 25.28 47.225 24.9475L39.035 16.7575C38.72 16.4425 38.265 16.25 37.81 16.25ZM32 41.275C30.74 41.275 29.725 40.26 29.725 39C29.725 37.74 30.74 36.725 32 36.725C33.26 36.725 34.275 37.74 34.275 39C34.275 40.26 33.26 41.275 32 41.275ZM32 33.75C31.0375 33.75 30.25 32.9625 30.25 32V25C30.25 24.0375 31.0375 23.25 32 23.25C32.9625 23.25 33.75 24.0375 33.75 25V32C33.75 32.9625 32.9625 33.75 32 33.75Z" fill="white"/>
</svg>
