<svg width="64" height="64" viewBox="0 0 64 64" fill="none" xmlns="http://www.w3.org/2000/svg">
<path d="M0 0H32C49.6731 0 64 14.3269 64 32C64 49.6731 49.6731 64 32 64C14.3269 64 0 49.6731 0 32V0Z" fill="#99BFD6"/>
<path d="M40.75 46H19.75C18.7875 46 18 45.2125 18 44.25V23.25C18 22.2875 17.2125 21.5 16.25 21.5C15.2875 21.5 14.5 22.2875 14.5 23.25V46C14.5 47.925 16.075 49.5 18 49.5H40.75C41.7125 49.5 42.5 48.7125 42.5 47.75C42.5 46.7875 41.7125 46 40.75 46ZM46 14.5H25C23.075 14.5 21.5 16.075 21.5 18V39C21.5 40.925 23.075 42.5 25 42.5H46C47.925 42.5 49.5 40.925 49.5 39V18C49.5 16.075 47.925 14.5 46 14.5ZM46 32L41.625 29.375L37.25 32V18H46V32Z" fill="white"/>
</svg>
