<svg width="65" height="64" viewBox="0 0 65 64" fill="none" xmlns="http://www.w3.org/2000/svg">
<path d="M0.5 0H32.5C50.1731 0 64.5 14.3269 64.5 32C64.5 49.6731 50.1731 64 32.5 64C14.8269 64 0.5 49.6731 0.5 32V0Z" fill="#3380AD"/>
<path d="M29 28.535H37.75V47.75H29V28.535ZM41.25 47.75H46.5C48.425 47.75 50 46.175 50 44.25V28.5H41.25V47.75ZM46.5 16.25H20.25C18.325 16.25 16.75 17.825 16.75 19.75V25H50V19.75C50 17.825 48.425 16.25 46.5 16.25ZM16.75 44.25C16.75 46.175 18.325 47.75 20.25 47.75H25.5V28.5H16.75V44.25Z" fill="white"/>
</svg>
