<svg width="65" height="64" viewBox="0 0 65 64" fill="none" xmlns="http://www.w3.org/2000/svg">
<path d="M0.5 0H32.5C50.1731 0 64.5 14.3269 64.5 32C64.5 49.6731 50.1731 64 32.5 64C14.8269 64 0.5 49.6731 0.5 32V0Z" fill="#3380AD"/>
<path d="M43 37.2503V44.2503C43 45.2128 42.2125 46.0003 41.25 46.0003H20.25C19.2875 46.0003 18.5 45.2128 18.5 44.2503V23.2503C18.5 22.2878 19.2875 21.5003 20.25 21.5003H25.535C26.4975 21.5003 27.285 20.7128 27.285 19.7503C27.285 18.7878 26.4975 18.0003 25.535 18.0003H18.5C16.575 18.0003 15 19.5753 15 21.5003V46.0003C15 47.9253 16.575 49.5003 18.5 49.5003H43C44.925 49.5003 46.5 47.9253 46.5 46.0003V37.2503C46.5 36.2878 45.7125 35.5003 44.75 35.5003C43.7875 35.5003 43 36.2878 43 37.2503ZM38.625 42.5003H22.91C22.175 42.5003 21.7725 41.6603 22.2275 41.0828L25.2725 37.1803C25.6225 36.7428 26.2875 36.7253 26.6375 37.1628L29.3675 40.4528L33.48 35.1678C33.83 34.7128 34.53 34.7128 34.8625 35.1853L39.325 41.1178C39.7625 41.6778 39.3425 42.5003 38.625 42.5003ZM45.275 26.5578C46.115 25.2103 46.5875 23.6353 46.4825 21.9028C46.255 18.1403 43.2625 14.9553 39.535 14.5528C34.775 14.0278 30.75 17.7203 30.75 22.3753C30.75 26.7328 34.2675 30.2503 38.6075 30.2503C40.1475 30.2503 41.5825 29.7953 42.79 29.0253L47.0075 33.2428C47.69 33.9253 48.81 33.9253 49.4925 33.2428C50.175 32.5603 50.175 31.4403 49.4925 30.7578L45.275 26.5578ZM38.625 26.7503C36.21 26.7503 34.25 24.7903 34.25 22.3753C34.25 19.9603 36.21 18.0003 38.625 18.0003C41.04 18.0003 43 19.9603 43 22.3753C43 24.7903 41.04 26.7503 38.625 26.7503Z" fill="white"/>
</svg>
