<svg width="64" height="64" viewBox="0 0 64 64" fill="none" xmlns="http://www.w3.org/2000/svg">
<path d="M0 0H32C49.6731 0 64 14.3269 64 32C64 49.6731 49.6731 64 32 64C14.3269 64 0 49.6731 0 32V0Z" fill="#99BFD6"/>
<path d="M18.8225 47.7504H45.1775C47.8725 47.7504 49.5525 44.8279 48.205 42.5004L35.0275 19.7329C33.68 17.4054 30.32 17.4054 28.9725 19.7329L15.795 42.5004C14.4475 44.8279 16.1275 47.7504 18.8225 47.7504ZM32 35.5004C31.0375 35.5004 30.25 34.7129 30.25 33.7504V30.2504C30.25 29.2879 31.0375 28.5004 32 28.5004C32.9625 28.5004 33.75 29.2879 33.75 30.2504V33.7504C33.75 34.7129 32.9625 35.5004 32 35.5004ZM33.75 42.5004H30.25V39.0004H33.75V42.5004Z" fill="white"/>
</svg>
