<svg width="65" height="64" viewBox="0 0 65 64" fill="none" xmlns="http://www.w3.org/2000/svg">
<path d="M0.5 0H32.5C50.1731 0 64.5 14.3269 64.5 32C64.5 49.6731 50.1731 64 32.5 64C14.8269 64 0.5 49.6731 0.5 32V0Z" fill="#3380AD"/>
<path d="M46.5 16.25H32.5C31.5375 16.25 30.75 17.0375 30.75 18V20.8175C30.75 20.8175 30.75 20.8175 30.7675 20.835L39.5175 28.71C40.62 29.69 41.25 31.125 41.25 32.6125V33.75H44.75V37.25H41.25V40.75H44.75V44.25H41.25V47.75H46.5C47.4625 47.75 48.25 46.9625 48.25 46V18C48.25 17.0375 47.4625 16.25 46.5 16.25ZM37.75 23.25H34.25V19.75H37.75V23.25ZM44.75 30.25H41.25V26.75H44.75V30.25ZM44.75 23.25H41.25V19.75H44.75V23.25Z" fill="white"/>
<path d="M37.75 45.9998V32.6123C37.75 32.1223 37.54 31.6498 37.1725 31.3173L28.4225 23.4423C28.09 23.1273 27.67 22.9873 27.25 22.9873C26.83 22.9873 26.41 23.1448 26.0775 23.4423L17.3275 31.3173C16.96 31.6323 16.75 32.1048 16.75 32.6123V45.9998C16.75 46.9623 17.5375 47.7498 18.5 47.7498H22C22.9625 47.7498 23.75 46.9623 23.75 45.9998V38.9998H30.75V45.9998C30.75 46.9623 31.5375 47.7498 32.5 47.7498H36C36.9625 47.7498 37.75 46.9623 37.75 45.9998Z" fill="white"/>
</svg>
