<?xml version="1.0" encoding="UTF-8"?>
<svg width="102px" height="239px" viewBox="0 0 102 239" version="1.1" xmlns="http://www.w3.org/2000/svg" xmlns:xlink="http://www.w3.org/1999/xlink">
    <title>flower-cell</title>
    <g id="Page-1" stroke="none" stroke-width="1" fill="none" fill-rule="evenodd">
        <g id="flower-cell" fill-rule="nonzero">
            <path d="M99.833,191.612962 C98.81,195.066962 97.655,199.221962 95.711,202.284962 C93.892,205.152962 90.7033,204.387962 87.9072,203.774962 C86.5269,203.465962 83.0951,203.028962 81.7804,203.845962 C80.3511,204.740962 81.8424,206.407962 83.0503,207.010962 C83.738,207.357962 88.4042,209.373962 88.9789,208.671962 C83.3587,215.561962 76.2739,221.173962 68.3566,225.175962 C65.1764,226.781962 63.4764,225.580962 61.5818,223.082962 C59.3694,220.179962 57.361,217.196962 55.9828,213.791962 C54.211,209.394962 52.7716,204.854962 51.7372,200.230962 C51.1156,197.448962 47.7673,172.853962 51.7053,173.319962 C52.4498,173.405962 53.0004,174.019962 53.5138,174.571962 C54.6235,175.781962 55.8164,176.908962 57.0966,177.944962 C57.5203,178.288962 57.9755,178.636962 58.506,178.754962 C59.0365,178.871962 59.6727,178.719962 59.9528,178.243962 C60.1768,177.862962 60.1168,177.380962 59.9998,176.949962 C59.0883,173.610962 55.2962,171.476962 54.9011,168.027962 C54.7718,166.849962 55.0629,165.671962 55.4221,164.535962 C56.7632,160.314962 58.9889,156.444962 61.2019,152.601962 C62.3771,150.557962 63.5615,148.517962 64.741,146.464962 C64.8787,146.220962 65.0296,145.970962 65.2401,145.782962 C65.8369,145.268962 66.8075,145.461962 67.3917,145.980962 C67.985,146.503962 68.2885,147.266962 68.5733,147.997962 C69.371,150.055962 70.1735,152.126962 70.9712,154.184962 C71.2227,154.822962 71.4836,155.487962 72.0126,155.936962 C72.5326,156.381962 73.3856,156.518962 73.8892,156.037962 C74.1956,155.740962 74.2883,155.286962 74.3368,154.855962 C74.9088,149.054962 70.8412,143.218962 74.6215,137.859962 C76.2037,135.610962 78.6487,134.132962 81.0945,132.887962 C83.0982,131.876962 85.1533,130.967962 87.2462,130.141962 C88.6297,129.600962 91.2296,128.052962 92.7651,128.501962 C94.2825,128.941962 94.7572,131.355962 95.246,132.614962 C97.855,139.409962 100.338,146.210962 101.431,153.450962 C101.494,153.856962 101.544,154.289962 101.36,154.655962 C101.15,155.054962 100.711,155.256962 100.304,155.439962 C97.721,156.576962 95.137,157.998962 92.3846,158.556962 C91.4183,158.752962 90.5959,158.784962 89.9411,159.703962 C89.0825,160.912962 89.6813,161.681962 91.1156,161.407962 C94.0687,160.845962 97.32,159.416962 100.313,159.425962 C100.711,159.425962 101.137,159.482962 101.434,159.744962 C101.817,160.080962 101.866,160.656962 101.882,161.161962 C102.013,164.795962 101.92,168.434962 101.625,172.055962 C101.576,172.651962 101.501,173.301962 101.095,173.740962 C100.584,174.306962 99.718,174.361962 98.963,174.414962 C95.529,174.661962 91.7811,175.501962 88.7217,177.109962 C87.9569,177.511962 87.1903,178.033962 86.9134,178.854962 C86.8215,179.142962 86.7929,179.460962 86.9112,179.748962 C87.1292,180.294962 87.774,180.521962 88.3444,180.624962 C91.1827,181.124962 94.0349,180.049962 96.862,179.471962 C97.508,179.345962 98.208,179.244962 98.797,179.544962 C100.068,180.200962 100.406,182.903962 100.516,184.193962 C100.718,186.645962 100.53,189.221962 99.827,191.576962 L99.833,191.612962 Z" id="Path" fill="#FFEF5D"></path>
            <path d="M91.5688,146.340962 C88.6438,148.155962 85.6631,149.877962 82.6451,151.537962 C84.8214,146.460962 87.1423,141.452962 89.567,136.481962 C89.9177,135.762962 88.7499,135.354962 88.4036,136.064962 C85.8844,141.211962 83.4919,146.418962 81.244,151.694962 C80.3981,150.277962 80.0854,148.503962 79.6436,146.957962 C79.0413,144.836962 78.4432,142.707962 77.8409,140.587962 C77.6269,139.822962 76.4062,140.042962 76.6292,140.811962 C77.2755,143.096962 77.9265,145.394962 78.5728,147.678962 C79.0834,149.501962 79.482,151.514962 80.6749,153.039962 C78.2464,158.838962 76.0078,164.726962 74.0395,170.697962 C72.2255,166.412962 70.7311,162.012962 69.6008,157.498962 C69.4091,156.732962 68.1884,156.952962 68.3891,157.722962 C69.656,162.743962 71.3409,167.653962 73.4156,172.393962 C73.4251,172.419962 73.4523,172.432962 73.4708,172.463962 C73.3036,172.981962 73.1315,173.486962 72.9732,174.009962 C71.818,177.743962 70.7666,181.515962 69.8455,185.316962 C69.7219,185.390962 69.5935,185.451962 69.4699,185.525962 C67.3113,181.830962 65.1484,178.143962 62.9898,174.448962 C62.5942,173.763962 61.479,174.298962 61.8794,174.996962 C64.1495,178.877962 66.4196,182.758962 68.685,186.626962 C68.8385,186.886962 69.1597,187.049962 69.4611,186.926962 C68.3675,191.607962 67.476,196.328962 66.8091,201.090962 C66.587,200.764962 66.3539,200.344962 66.2801,200.243962 C65.7536,199.507962 65.2447,198.758962 64.7316,198.018962 C63.5332,196.247962 62.37,194.448962 61.251,192.626962 C59.1569,189.215962 57.2131,185.720962 55.4019,182.155962 C55.0414,181.443962 53.931,181.992962 54.2914,182.704962 C57.348,188.737962 60.8157,194.555962 64.6755,200.104962 C65.1563,200.796962 65.628,201.483962 66.1263,202.161962 C66.2693,202.350962 66.4164,202.530962 66.5983,202.660962 C66.1703,205.908962 65.8588,209.167962 65.6548,212.433962 C65.6277,212.420962 65.6005,212.407962 65.5777,212.385962 C65.1725,212.072962 64.8267,211.610962 64.4828,211.238962 C63.7499,210.472962 63.0126,209.714962 62.2797,208.948962 C60.7224,207.328962 59.1651,205.708962 57.6078,204.088962 C57.0582,203.518962 56.1145,204.322962 56.6732,204.896962 C58.4595,206.757962 60.2459,208.618962 62.0366,210.470962 C62.9024,211.376962 63.7596,212.301962 64.6473,213.185962 C64.9402,213.478962 65.2454,213.721962 65.5842,213.870962 C65.5721,214.130962 65.551,214.386962 65.5432,214.636962 C65.1981,222.369962 65.5112,230.137962 66.6005,237.806962 C66.7123,238.600962 67.9283,238.367962 67.8122,237.582962 C66.7056,229.739962 66.4246,221.809962 66.8243,213.914962 C67.7358,213.670962 68.6488,213.095962 69.4803,212.669962 C70.4795,212.146962 71.4734,211.586962 72.4354,211.001962 C74.4213,209.794962 76.3147,208.454962 78.1252,207.008962 C78.7491,206.507962 77.9408,205.572962 77.3169,206.074962 C74.1972,208.582962 70.8055,210.729962 67.1802,212.434962 C67.0828,212.477962 66.9986,212.514962 66.9054,212.548962 C67.1084,209.238962 67.4322,205.929962 67.8592,202.636962 C68.133,202.478962 68.3696,202.258962 68.6025,202.069962 C69.3186,201.489962 70.0347,200.910962 70.7461,200.317962 C73.4428,198.096962 76.098,195.822962 78.7118,193.495962 C81.6677,190.865962 84.5731,188.179962 87.419,185.431962 C87.9882,184.881962 87.1842,183.938962 86.6107,184.496962 C80.7218,190.175962 74.608,195.605962 68.2599,200.757962 C68.2114,200.790962 68.1592,200.853962 68.1021,200.904962 C68.3064,199.441962 68.542,197.982962 68.7866,196.527962 C69.3837,193.038962 70.1112,189.577962 70.9376,186.141962 C75.382,183.661962 79.5895,180.794962 83.5112,177.547962 C84.1261,177.041962 83.3178,176.107962 82.7029,176.613962 C79.1457,179.555962 75.3531,182.177962 71.3656,184.485962 C72.3957,180.360962 73.5653,176.268962 74.8699,172.217962 C78.873,169.009962 82.5041,165.371962 85.729,161.376962 C86.2296,160.761962 85.2119,160.059962 84.7113,160.674962 C81.9736,164.059962 78.9213,167.174962 75.6074,170.000962 C77.0289,165.772962 78.5717,161.568962 80.2277,157.429962 C80.7698,156.070962 81.339,154.724962 81.8991,153.374962 C85.3729,151.498962 88.7953,149.520962 92.1438,147.441962 C92.8144,147.028962 92.2794,145.912962 91.5955,146.330962 L91.5688,146.340962 Z" id="Path" fill="#9E9224"></path>
            <path d="M21.8824,207.951962 C23.2874,210.335962 24.9211,213.216962 26.9399,215.137962 C28.829,216.935962 31.0629,215.772962 33.0325,214.795962 C34.0035,214.308962 36.4796,213.343962 37.6113,213.707962 C38.843,214.109962 38.0418,215.628962 37.254,216.303962 C36.8061,216.689962 33.704,219.059962 33.1451,218.643962 C38.6155,222.732962 44.9395,225.595962 51.5842,227.104962 C54.2529,227.709962 55.2962,226.498962 56.2431,224.284962 C57.3516,221.709962 58.2931,219.112962 58.6865,216.318962 C59.1884,212.712962 59.4163,209.061962 59.3264,205.422962 C59.272,203.234962 57.1899,184.283962 54.3421,185.363962 C53.8033,185.566962 53.5073,186.126962 53.2275,186.633962 C52.6256,187.741962 51.9465,188.803962 51.1853,189.813962 C50.9335,190.148962 50.659,190.492962 50.2856,190.678962 C49.9122,190.865962 49.4097,190.869962 49.1124,190.567962 C48.8745,190.325962 48.8296,189.954962 48.8366,189.611962 C48.8944,186.953962 51.3232,184.658962 50.9757,182.014962 C50.8529,181.112962 50.4166,180.288962 49.9376,179.509962 C48.1526,176.613962 45.7738,174.143962 43.4095,171.691962 C42.1533,170.387962 40.8912,169.087962 39.6302,167.777962 C39.4821,167.620962 39.3231,167.462962 39.1313,167.361962 C38.5908,167.089962 37.9034,167.413962 37.5647,167.909962 C37.22,168.410962 37.1358,169.034962 37.0597,169.633962 C36.8482,171.314962 36.6356,173.007962 36.4241,174.689962 C36.3556,175.211962 36.2849,175.756962 35.9742,176.189962 C35.6695,176.617962 35.0594,176.878962 34.5946,176.613962 C34.3108,176.448962 34.1573,176.127962 34.0411,175.815962 C32.5352,171.599962 34.4803,166.493962 30.6659,163.203962 C29.0682,161.821962 26.9712,161.175962 24.917,160.703962 C23.2357,160.322962 21.5349,160.027962 19.8217,159.801962 C18.6901,159.656962 16.4645,158.986962 15.4038,159.606962 C14.3549,160.216962 14.4504,162.103962 14.3204,163.133962 C13.641,168.682962 13.0563,174.212962 13.5891,179.811962 C13.6178,180.125962 13.6611,180.457962 13.8665,180.696962 C14.0973,180.953962 14.4616,181.022962 14.7994,181.083962 C16.9352,181.449962 19.1261,182.028962 21.2808,181.932962 C22.0374,181.899962 22.6561,181.769962 23.315,182.332962 C24.1798,183.073962 23.8768,183.758962 22.757,183.821962 C20.4516,183.951962 17.7629,183.491962 15.5344,184.055962 C15.2377,184.129962 14.9308,184.251962 14.7584,184.502962 C14.5353,184.823962 14.6062,185.261962 14.6884,185.641962 C15.2671,188.373962 16.0134,191.067962 16.9067,193.711962 C17.0543,194.146962 17.2311,194.617962 17.6154,194.868962 C18.1013,195.195962 18.7574,195.075962 19.3296,194.973962 C21.9349,194.518962 24.884,194.447962 27.463,195.076962 C28.1077,195.233962 28.7763,195.480962 29.1352,196.039962 C29.2574,196.237962 29.3379,196.469962 29.3034,196.706962 C29.2424,197.153962 28.8042,197.442962 28.3984,197.625962 C26.3763,198.526962 24.0508,198.256962 21.8362,198.351962 C21.3315,198.377962 20.7911,198.432962 20.4085,198.765962 C19.5829,199.491962 19.834,201.568962 19.9926,202.550962 C20.2977,204.414962 20.9174,206.299962 21.8797,207.924962 L21.8824,207.951962 Z" id="Path" fill="#FFD25D"></path>
            <path d="M19.9868,174.167962 C22.5042,174.975962 25.0459,175.703962 27.6039,176.379962 C25.0373,173.001962 22.3757,169.700962 19.6438,166.448962 C19.2486,165.977962 20.043,165.456962 20.4332,165.920962 C23.2684,169.287962 26.0203,172.722962 28.6771,176.235962 C29.0438,175.022962 28.9468,173.642962 28.9882,172.407962 C29.0425,170.715962 29.0919,169.017962 29.1461,167.325962 C29.1633,166.715962 30.1139,166.652962 30.0908,167.266962 C30.0344,169.089962 29.9769,170.923962 29.9205,172.746962 C29.8792,174.199962 29.9567,175.773962 29.3517,177.132962 C32.2405,181.001962 35.0044,184.972962 37.5824,189.055962 C38.1368,185.525962 38.4317,181.968962 38.4337,178.393962 C38.4341,177.787962 39.3847,177.724962 39.3784,178.335962 C39.3688,182.313962 39.027,186.285962 38.363,190.203962 C38.3609,190.225962 38.343,190.239962 38.3349,190.266962 C38.556,190.621962 38.7782,190.965962 38.9934,191.325962 C40.5492,193.893962 42.0347,196.508962 43.4284,199.169962 C43.5344,199.201962 43.6414,199.223962 43.7473,199.255962 C44.6681,196.099962 45.5938,192.950962 46.5146,189.794962 C46.682,189.210962 47.6127,189.401962 47.4442,189.996962 C46.4748,193.310962 45.5053,196.625962 44.537,199.929962 C44.4711,200.151962 44.262,200.333962 44.0145,200.297962 C45.7007,203.582962 47.2437,206.934962 48.6267,210.358962 C48.7315,210.074962 48.8271,209.718962 48.8633,209.628962 C49.1188,208.983962 49.3586,208.330962 49.6033,207.683962 C50.1666,206.140962 50.6987,204.583962 51.1934,203.017962 C52.1191,200.085962 52.9173,197.119962 53.6036,194.126962 C53.7396,193.528962 54.6692,193.730962 54.5331,194.328962 C53.3781,199.392962 51.8767,204.373962 50.0332,209.227962 C49.8036,209.831962 49.58,210.431962 49.3348,211.029962 C49.2635,211.197962 49.1873,211.358962 49.076,211.489962 C49.9995,213.830962 50.8381,216.201962 51.5979,218.596962 C51.6157,218.582962 51.6335,218.567962 51.6465,218.546962 C51.8902,218.238962 52.062,217.829962 52.2489,217.488962 C52.6524,216.780962 53.0609,216.079962 53.4644,215.371962 C54.3234,213.874962 55.1824,212.377962 56.0414,210.880962 C56.345,210.353962 57.1978,210.777962 56.8883,211.308962 C55.9034,213.027962 54.9186,214.747962 53.9288,216.460962 C53.4524,217.297962 52.9856,218.145962 52.4886,218.969962 C52.3249,219.242962 52.1428,219.480962 51.918,219.654962 C51.9753,219.846962 52.0386,220.032962 52.0911,220.217962 C53.7874,225.916962 54.9996,231.762962 55.6152,237.680962 C55.6796,238.293962 54.7301,238.345962 54.6706,237.739962 C54.0355,231.688962 52.7693,225.727962 51.0021,219.918962 C50.2774,219.905962 49.4899,219.647962 48.7911,219.484962 C47.9491,219.280962 47.1044,219.048962 46.2786,218.791962 C44.574,218.261962 42.9137,217.615962 41.2956,216.875962 C40.7373,216.617962 41.1656,215.770962 41.7239,216.028962 C44.5155,217.316962 47.4425,218.285962 50.4614,218.881962 C50.542,218.895962 50.6117,218.907962 50.6873,218.915962 C49.92,216.486962 49.063,214.080962 48.1319,211.706962 C47.8985,211.639962 47.6812,211.519962 47.4726,211.422962 C46.831,211.123962 46.1895,210.824962 45.5491,210.515962 C43.1261,209.362962 40.7243,208.161962 38.3435,206.914962 C35.6514,205.504962 32.9863,204.043962 30.3542,202.525962 C29.8278,202.221962 30.2513,201.368962 30.7826,201.678962 C36.2279,204.814962 41.7942,207.722962 47.4837,210.380962 C47.5259,210.396962 47.5767,210.433962 47.6286,210.460962 C47.2041,209.408962 46.757,208.365962 46.304,207.326962 C45.2097,204.837962 44.0235,202.394962 42.7682,199.987962 C38.9948,198.966962 35.3257,197.612962 31.7991,195.923962 C31.2467,195.660962 31.6751,194.813962 32.2275,195.076962 C35.426,196.607962 38.7401,197.855962 42.1411,198.833962 C40.6058,195.950962 38.9726,193.118962 37.2465,190.343962 C33.6665,188.697962 30.2836,186.662962 27.1368,184.285962 C26.6493,183.920962 27.2771,183.207962 27.7647,183.572962 C30.4347,185.586962 33.289,187.339962 36.2843,188.827962 C34.4382,185.941962 32.5062,183.096962 30.5018,180.320962 C29.845,179.408962 29.1704,178.511962 28.5017,177.609962 C25.5639,176.858962 22.6455,176.020962 19.7632,175.094962 C19.1866,174.911962 19.3777,173.980962 19.9652,174.165962 L19.9868,174.167962 Z" id="Path" fill="#9E9224"></path>
        </g>
    </g>
</svg>