<svg width="611" height="575" viewBox="0 0 611 575" fill="none" xmlns="http://www.w3.org/2000/svg">
<path opacity="0.7" d="M555.606 146.998C552.619 123.705 546.794 101.367 534.537 81.0162C511.932 43.2075 471.035 20.3609 429.679 8.77621C394.978 -0.933597 357.6 -3.73976 322.986 6.29288C284.989 17.3064 253.101 42.6612 218.884 62.5402C193.836 76.8801 167.686 89.195 140.683 99.368C118.896 107.724 91.2093 112.405 73.3012 128.274C62.3406 138.077 52.622 149.19 44.3631 161.364C10.9264 210.174 0.0947683 272.53 5.20075 330.74C8.80716 371.292 19.9362 412.329 44.8589 444.451C79.8943 489.536 140.038 511.749 196.787 506.149C261.231 499.792 322.267 461.214 386.315 470.476C418.203 475.083 448.715 491.498 480.788 488.443C512.403 485.438 539.458 463.61 558.531 438.218C573.824 417.817 583.999 393.146 584.94 367.443C585.969 339.642 573.402 314.287 567.094 287.741C556.126 241.34 561.617 193.871 555.606 146.998Z" fill="white"/>
<path d="M418.001 378.645H609.693V371.421H418.001V378.645Z" stroke="#263238" stroke-linecap="round" stroke-linejoin="round"/>
<path d="M426.893 574.042H600.801V378.855H426.893V574.042Z" stroke="#263238" stroke-linecap="round" stroke-linejoin="round"/>
<path d="M433.159 430.292H594.76V387.945H433.159V430.292Z" stroke="#263238" stroke-linecap="round" stroke-linejoin="round"/>
<path d="M506.151 413.007H522.307V405.204H506.151V413.007Z" fill="#263238" stroke="#263238" stroke-linecap="round" stroke-linejoin="round"/>
<path d="M433.159 483.791H594.76V441.444H433.159V483.791Z" stroke="#263238" stroke-linecap="round" stroke-linejoin="round"/>
<path d="M506.151 466.519H522.307V458.717H506.151V466.519Z" fill="#263238" stroke="#263238" stroke-linecap="round" stroke-linejoin="round"/>
<path d="M433.159 537.527H594.76V495.179H433.159V537.527Z" stroke="#263238" stroke-linecap="round" stroke-linejoin="round"/>
<path d="M506.151 520.254H522.307V512.452H506.151V520.254Z" fill="#263238" stroke="#263238" stroke-linecap="round" stroke-linejoin="round"/>
<path d="M521.86 286.03C523.817 286.884 528.611 286.779 528.611 286.779C528.611 286.779 527.587 283.639 527.495 283.442C526.444 281.249 523.121 277.61 520.415 277.978C519.964 278.049 519.534 278.214 519.151 278.463C518.768 278.711 518.442 279.037 518.195 279.421C517.947 279.804 517.782 280.235 517.712 280.685C517.642 281.136 517.668 281.597 517.788 282.037C518.139 282.957 518.685 283.79 519.387 284.479C520.09 285.168 520.934 285.697 521.86 286.03Z" fill="#263238"/>
<path d="M570.288 287.081C570.288 287.081 571.155 283.902 571.181 283.692C571.523 281.275 570.748 276.415 568.292 275.22C567.876 275.034 567.426 274.938 566.971 274.938C566.516 274.938 566.066 275.034 565.65 275.22C565.235 275.406 564.864 275.678 564.56 276.017C564.257 276.357 564.029 276.756 563.892 277.19C563.673 278.148 563.664 279.142 563.866 280.103C564.068 281.064 564.475 281.971 565.061 282.76C566.23 284.52 570.275 287.081 570.288 287.081Z" fill="#263238"/>
<path d="M584.593 269.716C581.874 269.428 578.643 273.145 577.657 275.365C577.566 275.562 576.58 278.727 576.633 278.727C576.121 279.305 575.569 279.936 574.991 280.645C573.927 281.958 572.745 283.429 571.563 285.137C570.265 286.952 569.076 288.842 568.003 290.798C566.782 292.987 565.762 295.282 564.956 297.655C564.956 297.655 564.956 297.655 564.956 297.734C564.956 296.932 564.956 294.699 564.956 294.529C564.641 292.112 562.618 287.62 559.925 287.12C559.477 287.052 559.02 287.078 558.582 287.198C558.145 287.318 557.738 287.528 557.387 287.815C557.037 288.103 556.751 288.461 556.547 288.866C556.344 289.271 556.229 289.715 556.208 290.168C556.252 291.151 556.51 292.112 556.964 292.986C557.418 293.859 558.056 294.623 558.835 295.225C560.372 296.538 564.614 297.917 564.956 298.022C564.199 300.451 563.598 302.925 563.156 305.431C562.907 306.902 562.684 308.373 562.486 309.857C562.486 309.174 562.486 308.544 562.486 308.465C562.171 306.048 560.148 301.556 557.469 301.07C557.021 300.997 556.562 301.02 556.123 301.137C555.684 301.254 555.275 301.463 554.923 301.75C554.57 302.036 554.283 302.394 554.079 302.8C553.875 303.206 553.759 303.65 553.739 304.104C553.782 305.087 554.04 306.049 554.494 306.923C554.947 307.796 555.586 308.56 556.366 309.161C558.192 310.371 560.195 311.293 562.303 311.893C562.237 312.471 562.158 313.036 562.092 313.614C561.764 316.346 561.449 319.091 561.055 321.757C560.923 322.703 560.753 323.623 560.582 324.555C560.582 323.938 560.582 323.413 560.582 323.334C560.267 320.917 558.244 316.438 555.551 315.939C555.104 315.868 554.647 315.892 554.209 316.011C553.772 316.129 553.365 316.338 553.014 316.624C552.663 316.911 552.377 317.268 552.173 317.673C551.97 318.077 551.854 318.52 551.834 318.973C551.878 319.956 552.135 320.918 552.589 321.791C553.043 322.665 553.682 323.429 554.461 324.03C556.234 325.202 558.179 326.089 560.227 326.657C560.03 327.603 559.833 328.548 559.597 329.455C559.413 330.059 559.295 330.663 559.085 331.267C558.874 331.871 558.69 332.476 558.507 333.067C558.099 334.196 557.679 335.365 557.193 336.456C556.904 337.204 556.615 337.927 556.326 338.649C556.471 337.717 556.72 335.878 556.72 335.72C556.69 333.574 556.112 331.471 555.039 329.612C555.063 329.109 554.973 328.607 554.776 328.144C554.579 327.68 554.28 327.267 553.901 326.935C553.523 326.603 553.074 326.361 552.589 326.226C552.103 326.092 551.594 326.068 551.098 326.158C548.471 326.867 546.79 331.491 546.659 333.934C546.659 334.078 546.751 335.641 546.83 336.626C546.685 336.062 546.567 335.497 546.422 334.906C546.147 333.737 545.831 332.581 545.503 331.346C545.332 330.742 545.148 330.138 544.964 329.533C544.78 328.929 544.531 328.312 544.321 327.695C543.808 326.263 543.204 324.844 542.574 323.426C544.706 322.979 546.757 322.208 548.655 321.14C549.473 320.597 550.163 319.882 550.676 319.045C551.188 318.208 551.512 317.269 551.624 316.293C551.636 315.839 551.553 315.388 551.38 314.968C551.206 314.549 550.946 314.17 550.616 313.858C550.286 313.546 549.895 313.306 549.466 313.156C549.038 313.005 548.583 312.946 548.13 312.983C545.411 313.285 543.06 317.607 542.574 319.997C542.574 320.142 542.377 321.902 542.311 322.861C541.917 322.007 541.536 321.166 541.116 320.313C539.907 317.87 538.594 315.44 537.307 312.996C536.913 312.261 536.532 311.512 536.138 310.763C536.505 310.672 540.827 309.673 542.442 308.425C543.26 307.883 543.95 307.168 544.463 306.33C544.975 305.493 545.299 304.554 545.411 303.579C545.424 303.125 545.34 302.673 545.167 302.254C544.993 301.834 544.733 301.456 544.403 301.143C544.074 300.831 543.682 300.592 543.253 300.441C542.825 300.29 542.37 300.231 541.917 300.269C539.211 300.571 536.847 304.892 536.361 307.283C536.361 307.453 536.098 309.975 536.072 310.619C535.218 308.977 534.378 307.335 533.616 305.667C532.591 303.433 531.713 301.134 530.989 298.784C531.159 298.784 535.678 297.72 537.333 296.446C538.151 295.903 538.84 295.188 539.353 294.351C539.866 293.514 540.19 292.575 540.301 291.599C540.314 291.146 540.231 290.694 540.057 290.274C539.884 289.855 539.623 289.476 539.294 289.164C538.964 288.852 538.572 288.612 538.144 288.462C537.715 288.311 537.26 288.252 536.808 288.289C534.102 288.592 531.737 292.913 531.251 295.29C531.251 295.448 531.041 297.379 530.976 298.298H530.831C530.145 295.916 529.679 293.476 529.439 291.008C529.281 289.695 529.215 288.381 529.176 287.068C531.382 286.864 533.544 286.323 535.586 285.465C536.459 285.013 537.222 284.375 537.823 283.597C538.425 282.819 538.849 281.919 539.067 280.96C539.128 280.511 539.093 280.053 538.966 279.618C538.839 279.183 538.621 278.779 538.328 278.433C538.034 278.088 537.671 277.808 537.262 277.612C536.853 277.416 536.407 277.308 535.954 277.295C533.222 277.295 530.411 281.328 529.662 283.653C529.662 283.771 529.347 285.098 529.163 286.07C529.163 285.505 529.163 284.914 529.163 284.362C529.163 282.287 529.294 280.422 529.426 278.727C529.504 277.781 529.596 276.914 529.688 276.1C531.543 274.906 533.204 273.436 534.614 271.739C535.179 270.936 535.563 270.02 535.737 269.053C535.912 268.087 535.874 267.094 535.625 266.144C535.472 265.717 535.23 265.328 534.916 265C534.603 264.673 534.224 264.415 533.804 264.243C533.385 264.07 532.934 263.988 532.48 264.001C532.027 264.014 531.582 264.122 531.173 264.318C528.756 265.631 528.112 270.452 528.546 272.856C528.546 273.066 529.491 276.258 529.531 276.231C529.426 277.006 529.321 277.834 529.215 278.74C529.058 280.408 528.887 282.3 528.835 284.375C528.759 286.609 528.812 288.846 528.992 291.074C529.185 293.566 529.598 296.037 530.227 298.456V298.548C529.793 297.865 528.532 296.026 528.414 295.921C526.825 294.082 522.648 291.455 520.139 292.519C519.728 292.708 519.36 292.981 519.061 293.321C518.762 293.661 518.538 294.06 518.403 294.492C518.268 294.924 518.225 295.38 518.278 295.83C518.33 296.28 518.477 296.714 518.707 297.103C519.28 297.901 520.02 298.564 520.875 299.048C521.73 299.531 522.68 299.822 523.659 299.901C525.695 300.19 529.964 298.955 530.306 298.85C531.023 301.3 531.901 303.7 532.933 306.035C533.524 307.348 534.154 308.741 534.811 310.094L534.01 308.951C532.407 307.099 528.243 304.485 525.735 305.549C525.322 305.736 524.953 306.009 524.653 306.348C524.352 306.688 524.127 307.087 523.992 307.52C523.857 307.953 523.815 308.41 523.868 308.86C523.922 309.31 524.07 309.744 524.303 310.133C524.876 310.931 525.615 311.594 526.471 312.078C527.326 312.561 528.276 312.852 529.255 312.931C531.447 312.93 533.627 312.593 535.717 311.933C535.98 312.445 536.23 312.97 536.479 313.482C537.793 315.952 538.962 318.408 540.118 320.851C540.525 321.705 540.892 322.572 541.26 323.478C540.919 322.966 540.617 322.546 540.564 322.48C538.975 320.641 534.798 318.014 532.289 319.078C531.877 319.268 531.51 319.543 531.21 319.884C530.911 320.225 530.687 320.625 530.552 321.059C530.417 321.492 530.375 321.949 530.427 322.399C530.48 322.85 530.626 323.285 530.857 323.675C531.433 324.469 532.173 325.13 533.028 325.61C533.883 326.091 534.832 326.381 535.809 326.46C537.942 326.467 540.064 326.148 542.101 325.514C542.456 326.407 542.81 327.3 543.112 328.141C543.296 328.745 543.533 329.323 543.69 329.941L544.203 331.753C544.478 332.922 544.767 334.118 545.017 335.273C545.188 336.062 545.345 336.823 545.503 337.585C545.109 336.731 544.308 335.05 544.189 334.958C542.876 332.896 539.172 329.704 536.532 330.348C536.096 330.473 535.692 330.689 535.344 330.98C534.997 331.271 534.715 331.632 534.516 332.039C534.316 332.446 534.205 332.891 534.188 333.344C534.171 333.797 534.249 334.248 534.417 334.669C534.865 335.543 535.497 336.31 536.271 336.915C537.044 337.521 537.94 337.951 538.896 338.176C541.112 338.516 543.366 338.516 545.582 338.176C545.844 339.49 546.081 340.685 546.278 341.854C546.724 344.415 547.066 346.714 547.329 348.671H536.571V371.29H564.864V348.632H553.922C554.632 347.056 555.407 345.269 556.221 343.286C556.72 342.064 557.232 340.751 557.745 339.411C558.257 339.516 562.46 340.37 564.417 339.923C565.386 339.773 566.309 339.413 567.124 338.868C567.938 338.324 568.624 337.608 569.133 336.771C569.336 336.365 569.452 335.921 569.471 335.468C569.491 335.015 569.415 334.562 569.247 334.14C569.08 333.719 568.825 333.337 568.5 333.021C568.174 332.704 567.786 332.46 567.36 332.305C564.733 331.425 560.792 334.367 559.373 336.337C559.282 336.442 558.493 337.809 558.06 338.675C558.27 338.124 558.48 337.585 558.677 337.02C559.098 335.891 559.479 334.748 559.886 333.54C560.07 332.935 560.24 332.331 560.424 331.727C560.608 331.123 560.753 330.413 560.91 329.836C561.265 328.351 561.554 326.841 561.803 325.304C563.825 326.118 565.961 326.61 568.135 326.762C569.117 326.763 570.087 326.548 570.977 326.133C571.866 325.718 572.654 325.112 573.283 324.358C573.545 323.987 573.725 323.565 573.813 323.12C573.901 322.674 573.893 322.216 573.792 321.773C573.69 321.331 573.496 320.915 573.223 320.552C572.95 320.19 572.604 319.889 572.206 319.669C569.776 318.421 565.429 320.733 563.695 322.454C563.59 322.559 562.486 323.925 561.895 324.7C562.04 323.767 562.184 322.848 562.303 321.915C562.644 319.209 562.894 316.451 563.17 313.719C563.248 312.878 563.34 312.038 563.432 311.197C563.774 311.328 567.938 312.878 570 312.734C571.812 312.602 574.098 311.946 575.149 310.33C575.408 309.958 575.586 309.535 575.671 309.089C575.757 308.644 575.748 308.185 575.645 307.743C575.542 307.301 575.348 306.886 575.075 306.524C574.801 306.162 574.455 305.861 574.058 305.641C571.642 304.327 567.281 306.692 565.56 308.412C565.429 308.544 563.839 310.527 563.472 311.039C563.669 309.187 563.879 307.348 564.155 305.549C564.524 303.114 565.05 300.705 565.731 298.338C565.888 298.338 570.223 300.032 572.298 299.888C573.28 299.885 574.249 299.669 575.138 299.254C576.027 298.839 576.815 298.235 577.447 297.484C577.709 297.113 577.889 296.691 577.977 296.246C578.064 295.8 578.057 295.341 577.955 294.899C577.854 294.456 577.66 294.04 577.387 293.678C577.114 293.315 576.767 293.014 576.37 292.795C573.94 291.547 569.593 293.846 567.859 295.566C567.74 295.684 566.545 297.195 565.98 297.917H565.849C566.596 295.551 567.555 293.256 568.713 291.061C569.33 289.852 570.026 288.723 570.656 287.646C572.614 288.688 574.717 289.427 576.896 289.839C577.873 289.941 578.86 289.829 579.79 289.511C580.72 289.194 581.57 288.678 582.281 288C582.579 287.66 582.803 287.261 582.937 286.828C583.071 286.396 583.113 285.94 583.06 285.491C583.006 285.041 582.859 284.608 582.628 284.219C582.396 283.83 582.086 283.494 581.716 283.232C579.431 281.722 574.86 283.535 572.955 285.058C572.85 285.137 571.891 286.096 571.195 286.805C571.51 286.319 571.812 285.807 572.128 285.36C573.257 283.64 574.413 282.129 575.451 280.802C576.042 280.054 576.594 279.397 577.106 278.78C579.329 278.8 581.543 278.486 583.673 277.847C584.59 277.493 585.417 276.943 586.098 276.235C586.779 275.527 587.296 274.678 587.614 273.749C587.737 273.28 587.752 272.79 587.659 272.315C587.566 271.84 587.367 271.391 587.076 271.004C586.786 270.616 586.412 270.299 585.982 270.076C585.552 269.853 585.077 269.73 584.593 269.716ZM554.527 342.655C553.555 344.915 552.609 346.924 551.795 348.632H548.918C548.616 346.609 548.209 344.205 547.604 341.513C547.355 340.199 547.053 338.886 546.738 337.454C548.012 336.936 549.258 336.348 550.468 335.694C552.115 337.107 553.95 338.288 555.919 339.201C555.499 340.396 555.013 341.552 554.527 342.655Z" fill="#263238"/>
<path d="M92.416 207.527H1V62H114.181V207.527H98.3557" stroke="#263238" stroke-miterlimit="10"/>
<path d="M110.081 67.2751H5.10938V202.252H110.081V67.2751Z" stroke="#263238" stroke-miterlimit="10"/>
<path d="M26.1387 104.242C27.9964 105.962 29.982 107.537 32.0784 108.955C55.8269 125.067 96.1064 117.441 109.673 140.33" stroke="#263238" stroke-miterlimit="10"/>
<path d="M12.1549 67.8271C11.5861 73.8566 12.2715 79.9386 14.1682 85.6902C16.0649 91.4418 19.1317 96.7385 23.1756 101.247" stroke="#263238" stroke-miterlimit="10"/>
<path d="M21.1504 142.181C32.7333 136.047 47.7307 131.722 55.4084 144.144C64.3128 158.569 23.1746 184.014 23.1746 202.232" stroke="#263238" stroke-miterlimit="10"/>
<path d="M5.375 152.629C9.34077 149.425 13.5444 146.526 17.9496 143.959" stroke="#263238" stroke-miterlimit="10"/>
<path d="M60.0684 67.8271C60.0684 67.8271 75.3316 91.5757 110.101 85.2066" stroke="#263238" stroke-miterlimit="10"/>
<path d="M64.6293 91.1464C64.6996 91.7094 64.7337 92.2762 64.7315 92.8435C64.7265 96.256 63.473 99.5487 61.2075 102.101C58.942 104.653 55.8211 106.288 52.4332 106.697C49.0454 107.106 45.6248 106.262 42.8166 104.323C40.0083 102.385 38.0065 99.4853 37.1886 96.1723C36.3707 92.8593 36.7933 89.3615 38.3766 86.3386C39.9599 83.3157 42.5946 80.9765 45.7837 79.7623C48.9729 78.548 52.4961 78.5426 55.689 79.7471C58.8818 80.9515 61.5237 83.2826 63.1163 86.3006" stroke="#263238" stroke-miterlimit="10"/>
<path d="M99.4907 111.715C99.4847 113.015 99.0937 114.283 98.3673 115.36C97.6409 116.437 96.6115 117.275 95.4092 117.767C94.207 118.26 92.8857 118.385 91.6123 118.127C90.3389 117.869 89.1705 117.24 88.2547 116.318C87.3388 115.397 86.7166 114.224 86.4666 112.95C86.2166 111.675 86.35 110.354 86.85 109.155C87.35 107.956 88.1941 106.932 89.2758 106.212C90.3575 105.492 91.6282 105.109 92.9274 105.111C93.7928 105.111 94.6496 105.282 95.4486 105.615C96.2476 105.947 96.9729 106.434 97.5829 107.048C98.1929 107.662 98.6755 108.39 99.0029 109.191C99.3303 109.992 99.4961 110.85 99.4907 111.715V111.715Z" stroke="#263238" stroke-miterlimit="10"/>
<path d="M99.582 156.053C103.285 157.017 106.739 158.759 109.713 161.165" stroke="#263238" stroke-miterlimit="10"/>
<path d="M74.4013 202.334C70.3745 198.641 67.5564 193.819 66.316 188.498C65.0755 183.176 65.4704 177.605 67.449 172.512C69.4276 167.419 72.8977 163.042 77.4052 159.954C81.9126 156.866 87.2473 155.211 92.7111 155.205C93.2427 155.205 93.7334 155.205 94.2752 155.205" stroke="#263238" stroke-miterlimit="10"/>
</svg>
