<?xml version="1.0" encoding="utf-8"?>
<!-- Generator: Adobe Illustrator 23.0.5, SVG Export Plug-In . SVG Version: 6.00 Build 0)  -->
<svg version="1.1" id="Capa_1" xmlns="http://www.w3.org/2000/svg" xmlns:xlink="http://www.w3.org/1999/xlink" x="0px" y="0px"
	 viewBox="0 0 1440 689.6" style="enable-background:new 0 0 1440 689.6;" xml:space="preserve">
<style type="text/css">
	.st0{opacity:0.5;fill:none;stroke:url(#SVGID_1_);enable-background:new    ;}
	.st1{opacity:0.8;fill:none;stroke:url(#SVGID_2_);enable-background:new    ;}
	.st2{fill:none;stroke:url(#SVGID_3_);}
	.st3{opacity:0.2;fill:none;stroke:url(#SVGID_4_);enable-background:new    ;}
	.st4{opacity:0.1;fill:none;stroke:url(#SVGID_5_);enable-background:new    ;}
</style>
<linearGradient id="SVGID_1_" gradientUnits="userSpaceOnUse" x1="-93.1674" y1="417.2786" x2="1510.8326" y2="281.2786" gradientTransform="matrix(1 0 0 -1 0 540.329)">
	<stop  offset="5.208330e-02" style="stop-color:#FF00C6"/>
	<stop  offset="1" style="stop-color:#035F99"/>
</linearGradient>
<path class="st0" d="M-200-52.3c65,10,270,109,379,238.5s391,580.5,912.5,440.5c417.2-112,534-592.8,540-806.5"/>
<linearGradient id="SVGID_2_" gradientUnits="userSpaceOnUse" x1="-99.6945" y1="303.2968" x2="1508.9624" y2="362.8518" gradientTransform="matrix(1 0 0 -1 0 540.329)">
	<stop  offset="0.1719" style="stop-color:#FF00C6"/>
	<stop  offset="1" style="stop-color:#035F99"/>
</linearGradient>
<path class="st1" d="M-226.8,80.8c65.7,2,281.2,75.4,405.1,190.8c123.9,115.3,453.5,518.3,954.2,316.1
	c400.5-161.8,463.1-642.8,443.2-855.6"/>
<linearGradient id="SVGID_3_" gradientUnits="userSpaceOnUse" x1="1472.3081" y1="530.7117" x2="-68.1915" y2="53.2118" gradientTransform="matrix(1 0 0 -1 0 540.329)">
	<stop  offset="5.208330e-02" style="stop-color:#FF00C6"/>
	<stop  offset="1" style="stop-color:#035F99"/>
</linearGradient>
<path class="st2" d="M-239.2,306.8c64.5-12.9,291,9.8,437.8,94.1C345.4,485.2,781.1,820,1223,509.7
	c353.5-248.2,282.3-747.7,214.7-950.5"/>
<linearGradient id="SVGID_4_" gradientUnits="userSpaceOnUse" x1="1489.1595" y1="215.492" x2="-153.8405" y2="487.4919" gradientTransform="matrix(1 0 0 -1 0 540.329)">
	<stop  offset="0.3281" style="stop-color:#FF00C6"/>
	<stop  offset="1" style="stop-color:#035F99"/>
</linearGradient>
<path class="st3" d="M-128.8-45.5C-64.4-32.2,135.3,77,237.6,211.9C339.9,346.7,613.1,762.6,1141,649.2
	c422.3-90.7,549-516.2,565.8-729.3"/>
<linearGradient id="SVGID_5_" gradientUnits="userSpaceOnUse" x1="1489.2825" y1="261.1516" x2="-164.7004" y2="455.5008" gradientTransform="matrix(1 0 0 -1 0 540.329)">
	<stop  offset="0" style="stop-color:#FF00C6"/>
	<stop  offset="1" style="stop-color:#035F99"/>
</linearGradient>
<path class="st4" d="M-143-25.7c65,10.2,269.6,110,378.2,239.8C343.7,344,624.7,770.5,1146.7,632.3
	c417.6-110.5,535.5-565.4,542.3-779.1"/>
</svg>
