<svg width="116" height="123" viewBox="0 0 116 123" fill="none" xmlns="http://www.w3.org/2000/svg">
<path fill-rule="evenodd" clip-rule="evenodd" d="M82.8264 0H51.2667C29.4177 0 8.56823 17.5917 4.71252 39.2976L3.28448 47.8097L0 64.8339L36.1294 50.2215L38.2715 41.1419C38.8427 38.0208 41.8416 35.4671 44.9833 35.4671H76.5431C79.6847 35.4671 81.8268 38.0208 81.2556 41.1419L73.1158 83.7024C72.5445 86.6817 69.4028 89.3772 66.404 89.3772H39.8424V89.519L14.7088 120.163C18.9929 122.007 23.7055 123 28.9892 123H60.549C61.8342 123 63.1195 122.858 64.2619 122.858C84.6829 121.014 103.39 104.131 106.96 83.7024L115.386 39.2976C119.241 17.5917 104.533 0 82.8264 0Z" fill="#C41A90"/>
</svg>
