<svg width="124" height="84" viewBox="0 0 124 84" fill="none" xmlns="http://www.w3.org/2000/svg">
<circle cx="2" cy="2" r="2" fill="#E0E0E0"/>
<circle cx="10" cy="2" r="2" fill="#E0E0E0"/>
<circle cx="18" cy="2" r="2" fill="#E0E0E0"/>
<circle cx="26" cy="2" r="2" fill="#E0E0E0"/>
<circle cx="34" cy="2" r="2" fill="#E0E0E0"/>
<circle cx="42" cy="2" r="2" fill="#E0E0E0"/>
<circle cx="50" cy="2" r="2" fill="#E0E0E0"/>
<circle cx="58" cy="2" r="2" fill="#E0E0E0"/>
<circle cx="66" cy="2" r="2" fill="#E0E0E0"/>
<circle cx="74" cy="2" r="2" fill="#E0E0E0"/>
<circle cx="82" cy="2" r="2" fill="#E0E0E0"/>
<circle cx="90" cy="2" r="2" fill="#E0E0E0"/>
<circle cx="98" cy="2" r="2" fill="#E0E0E0"/>
<circle cx="106" cy="2" r="2" fill="#E0E0E0"/>
<circle cx="114" cy="2" r="2" fill="#E0E0E0"/>
<circle cx="122" cy="2" r="2" fill="#E0E0E0"/>
<circle cx="2" cy="10" r="2" fill="#E0E0E0"/>
<circle cx="10" cy="10" r="2" fill="#E0E0E0"/>
<circle cx="18" cy="10" r="2" fill="#E0E0E0"/>
<circle cx="26" cy="10" r="2" fill="#E0E0E0"/>
<circle cx="34" cy="10" r="2" fill="#E0E0E0"/>
<circle cx="42" cy="10" r="2" fill="#E0E0E0"/>
<circle cx="50" cy="10" r="2" fill="#E0E0E0"/>
<circle cx="58" cy="10" r="2" fill="#E0E0E0"/>
<circle cx="66" cy="10" r="2" fill="#E0E0E0"/>
<circle cx="74" cy="10" r="2" fill="#E0E0E0"/>
<circle cx="82" cy="10" r="2" fill="#E0E0E0"/>
<circle cx="90" cy="10" r="2" fill="#E0E0E0"/>
<circle cx="98" cy="10" r="2" fill="#E0E0E0"/>
<circle cx="106" cy="10" r="2" fill="#E0E0E0"/>
<circle cx="114" cy="10" r="2" fill="#E0E0E0"/>
<circle cx="122" cy="10" r="2" fill="#E0E0E0"/>
<circle cx="2" cy="18" r="2" fill="#E0E0E0"/>
<circle cx="10" cy="18" r="2" fill="#E0E0E0"/>
<circle cx="18" cy="18" r="2" fill="#E0E0E0"/>
<circle cx="26" cy="18" r="2" fill="#E0E0E0"/>
<circle cx="34" cy="18" r="2" fill="#E0E0E0"/>
<circle cx="42" cy="18" r="2" fill="#E0E0E0"/>
<circle cx="50" cy="18" r="2" fill="#E0E0E0"/>
<circle cx="58" cy="18" r="2" fill="#E0E0E0"/>
<circle cx="66" cy="18" r="2" fill="#E0E0E0"/>
<circle cx="74" cy="18" r="2" fill="#E0E0E0"/>
<circle cx="82" cy="18" r="2" fill="#E0E0E0"/>
<circle cx="90" cy="18" r="2" fill="#E0E0E0"/>
<circle cx="98" cy="18" r="2" fill="#E0E0E0"/>
<circle cx="106" cy="18" r="2" fill="#E0E0E0"/>
<circle cx="114" cy="18" r="2" fill="#E0E0E0"/>
<circle cx="122" cy="18" r="2" fill="#E0E0E0"/>
<circle cx="2" cy="26" r="2" fill="#E0E0E0"/>
<circle cx="10" cy="26" r="2" fill="#E0E0E0"/>
<circle cx="18" cy="26" r="2" fill="#E0E0E0"/>
<circle cx="26" cy="26" r="2" fill="#E0E0E0"/>
<circle cx="34" cy="26" r="2" fill="#E0E0E0"/>
<circle cx="42" cy="26" r="2" fill="#E0E0E0"/>
<circle cx="50" cy="26" r="2" fill="#E0E0E0"/>
<circle cx="58" cy="26" r="2" fill="#E0E0E0"/>
<circle cx="66" cy="26" r="2" fill="#E0E0E0"/>
<circle cx="74" cy="26" r="2" fill="#E0E0E0"/>
<circle cx="82" cy="26" r="2" fill="#E0E0E0"/>
<circle cx="90" cy="26" r="2" fill="#E0E0E0"/>
<circle cx="98" cy="26" r="2" fill="#E0E0E0"/>
<circle cx="106" cy="26" r="2" fill="#E0E0E0"/>
<circle cx="114" cy="26" r="2" fill="#E0E0E0"/>
<circle cx="122" cy="26" r="2" fill="#E0E0E0"/>
<circle cx="2" cy="34" r="2" fill="#E0E0E0"/>
<circle cx="10" cy="34" r="2" fill="#E0E0E0"/>
<circle cx="18" cy="34" r="2" fill="#E0E0E0"/>
<circle cx="26" cy="34" r="2" fill="#E0E0E0"/>
<circle cx="34" cy="34" r="2" fill="#E0E0E0"/>
<circle cx="42" cy="34" r="2" fill="#E0E0E0"/>
<circle cx="50" cy="34" r="2" fill="#E0E0E0"/>
<circle cx="58" cy="34" r="2" fill="#E0E0E0"/>
<circle cx="66" cy="34" r="2" fill="#E0E0E0"/>
<circle cx="74" cy="34" r="2" fill="#E0E0E0"/>
<circle cx="82" cy="34" r="2" fill="#E0E0E0"/>
<circle cx="90" cy="34" r="2" fill="#E0E0E0"/>
<circle cx="98" cy="34" r="2" fill="#E0E0E0"/>
<circle cx="106" cy="34" r="2" fill="#E0E0E0"/>
<circle cx="114" cy="34" r="2" fill="#E0E0E0"/>
<circle cx="122" cy="34" r="2" fill="#E0E0E0"/>
<circle cx="2" cy="42" r="2" fill="#E0E0E0"/>
<circle cx="10" cy="42" r="2" fill="#E0E0E0"/>
<circle cx="18" cy="42" r="2" fill="#E0E0E0"/>
<circle cx="26" cy="42" r="2" fill="#E0E0E0"/>
<circle cx="34" cy="42" r="2" fill="#E0E0E0"/>
<circle cx="42" cy="42" r="2" fill="#E0E0E0"/>
<circle cx="50" cy="42" r="2" fill="#E0E0E0"/>
<circle cx="58" cy="42" r="2" fill="#E0E0E0"/>
<circle cx="66" cy="42" r="2" fill="#E0E0E0"/>
<circle cx="74" cy="42" r="2" fill="#E0E0E0"/>
<circle cx="82" cy="42" r="2" fill="#E0E0E0"/>
<circle cx="90" cy="42" r="2" fill="#E0E0E0"/>
<circle cx="98" cy="42" r="2" fill="#E0E0E0"/>
<circle cx="106" cy="42" r="2" fill="#E0E0E0"/>
<circle cx="114" cy="42" r="2" fill="#E0E0E0"/>
<circle cx="122" cy="42" r="2" fill="#E0E0E0"/>
<circle cx="2" cy="50" r="2" fill="#E0E0E0"/>
<circle cx="10" cy="50" r="2" fill="#E0E0E0"/>
<circle cx="18" cy="50" r="2" fill="#E0E0E0"/>
<circle cx="26" cy="50" r="2" fill="#E0E0E0"/>
<circle cx="34" cy="50" r="2" fill="#E0E0E0"/>
<circle cx="42" cy="50" r="2" fill="#E0E0E0"/>
<circle cx="50" cy="50" r="2" fill="#E0E0E0"/>
<circle cx="58" cy="50" r="2" fill="#E0E0E0"/>
<circle cx="66" cy="50" r="2" fill="#E0E0E0"/>
<circle cx="74" cy="50" r="2" fill="#E0E0E0"/>
<circle cx="82" cy="50" r="2" fill="#E0E0E0"/>
<circle cx="90" cy="50" r="2" fill="#E0E0E0"/>
<circle cx="98" cy="50" r="2" fill="#E0E0E0"/>
<circle cx="106" cy="50" r="2" fill="#E0E0E0"/>
<circle cx="114" cy="50" r="2" fill="#E0E0E0"/>
<circle cx="122" cy="50" r="2" fill="#E0E0E0"/>
<circle cx="2" cy="58" r="2" fill="#E0E0E0"/>
<circle cx="10" cy="58" r="2" fill="#E0E0E0"/>
<circle cx="18" cy="58" r="2" fill="#E0E0E0"/>
<circle cx="26" cy="58" r="2" fill="#E0E0E0"/>
<circle cx="34" cy="58" r="2" fill="#E0E0E0"/>
<circle cx="42" cy="58" r="2" fill="#E0E0E0"/>
<circle cx="50" cy="58" r="2" fill="#E0E0E0"/>
<circle cx="58" cy="58" r="2" fill="#E0E0E0"/>
<circle cx="66" cy="58" r="2" fill="#E0E0E0"/>
<circle cx="74" cy="58" r="2" fill="#E0E0E0"/>
<circle cx="82" cy="58" r="2" fill="#E0E0E0"/>
<circle cx="90" cy="58" r="2" fill="#E0E0E0"/>
<circle cx="98" cy="58" r="2" fill="#E0E0E0"/>
<circle cx="106" cy="58" r="2" fill="#E0E0E0"/>
<circle cx="114" cy="58" r="2" fill="#E0E0E0"/>
<circle cx="122" cy="58" r="2" fill="#E0E0E0"/>
<circle cx="2" cy="66" r="2" fill="#E0E0E0"/>
<circle cx="10" cy="66" r="2" fill="#E0E0E0"/>
<circle cx="18" cy="66" r="2" fill="#E0E0E0"/>
<circle cx="26" cy="66" r="2" fill="#E0E0E0"/>
<circle cx="34" cy="66" r="2" fill="#E0E0E0"/>
<circle cx="42" cy="66" r="2" fill="#E0E0E0"/>
<circle cx="50" cy="66" r="2" fill="#E0E0E0"/>
<circle cx="58" cy="66" r="2" fill="#E0E0E0"/>
<circle cx="66" cy="66" r="2" fill="#E0E0E0"/>
<circle cx="74" cy="66" r="2" fill="#E0E0E0"/>
<circle cx="82" cy="66" r="2" fill="#E0E0E0"/>
<circle cx="90" cy="66" r="2" fill="#E0E0E0"/>
<circle cx="98" cy="66" r="2" fill="#E0E0E0"/>
<circle cx="106" cy="66" r="2" fill="#E0E0E0"/>
<circle cx="114" cy="66" r="2" fill="#E0E0E0"/>
<circle cx="122" cy="66" r="2" fill="#E0E0E0"/>
<circle cx="2" cy="74" r="2" fill="#E0E0E0"/>
<circle cx="10" cy="74" r="2" fill="#E0E0E0"/>
<circle cx="18" cy="74" r="2" fill="#E0E0E0"/>
<circle cx="26" cy="74" r="2" fill="#E0E0E0"/>
<circle cx="34" cy="74" r="2" fill="#E0E0E0"/>
<circle cx="42" cy="74" r="2" fill="#E0E0E0"/>
<circle cx="50" cy="74" r="2" fill="#E0E0E0"/>
<circle cx="58" cy="74" r="2" fill="#E0E0E0"/>
<circle cx="66" cy="74" r="2" fill="#E0E0E0"/>
<circle cx="74" cy="74" r="2" fill="#E0E0E0"/>
<circle cx="82" cy="74" r="2" fill="#E0E0E0"/>
<circle cx="90" cy="74" r="2" fill="#E0E0E0"/>
<circle cx="98" cy="74" r="2" fill="#E0E0E0"/>
<circle cx="106" cy="74" r="2" fill="#E0E0E0"/>
<circle cx="114" cy="74" r="2" fill="#E0E0E0"/>
<circle cx="122" cy="74" r="2" fill="#E0E0E0"/>
<circle cx="2" cy="82" r="2" fill="#E0E0E0"/>
<circle cx="10" cy="82" r="2" fill="#E0E0E0"/>
<circle cx="18" cy="82" r="2" fill="#E0E0E0"/>
<circle cx="26" cy="82" r="2" fill="#E0E0E0"/>
<circle cx="34" cy="82" r="2" fill="#E0E0E0"/>
<circle cx="42" cy="82" r="2" fill="#E0E0E0"/>
<circle cx="50" cy="82" r="2" fill="#E0E0E0"/>
<circle cx="58" cy="82" r="2" fill="#E0E0E0"/>
<circle cx="66" cy="82" r="2" fill="#E0E0E0"/>
<circle cx="74" cy="82" r="2" fill="#E0E0E0"/>
<circle cx="82" cy="82" r="2" fill="#E0E0E0"/>
<circle cx="90" cy="82" r="2" fill="#E0E0E0"/>
<circle cx="98" cy="82" r="2" fill="#E0E0E0"/>
<circle cx="106" cy="82" r="2" fill="#E0E0E0"/>
<circle cx="114" cy="82" r="2" fill="#E0E0E0"/>
<circle cx="122" cy="82" r="2" fill="#E0E0E0"/>
</svg>
