<svg width="117" height="479" viewBox="0 0 117 479" fill="none" xmlns="http://www.w3.org/2000/svg">
<path d="M98.7619 103.901C96.8738 102.546 97.7014 103.024 95.5935 102.03C93.4856 101.037 89.9293 98.908 89.7353 96.5987C89.4508 93.1798 89.3215 92.1219 89.3991 90.1738C89.5931 85.3488 83.1788 82.7169 82.2089 77.9821C81.4201 74.0472 84.7565 70.3445 84.6143 66.3322C84.472 62.3328 80.9933 59.3397 79.4156 55.6628C75.717 47.1222 80.6053 39.2137 77.3724 28.3766C76.6611 25.9769 75.1868 21.6421 71.5529 17.9265C69.8071 16.1333 64.6602 12.5983 59.6814 12.5983L59.3451 12.0693C56.0992 7.12814 48.7409 6.93462 43.206 9.03754C37.6711 11.1404 32.8087 14.9463 27.0669 16.3655C24.2736 17.0492 24.6745 12.9208 21.8553 13.5014C18.1567 14.2497 13.6047 18.5716 12.5443 22.1582C11.4062 26.0028 10.6303 30.2473 9.25953 34.0274C7.74648 38.1945 3.27201 41.0973 2.85819 45.5095C2.36677 50.6571 7.69475 54.8501 7.70769 60.0106C7.70769 65.5711 1.56499 70.5381 3.53065 75.7373C4.65574 78.7175 8.09565 80.3043 9.28539 83.2458C10.9407 87.3098 7.65596 91.7736 7.95339 96.1471C8.25083 100.469 11.8847 103.72 15.3376 106.352C28.5411 116.415 43.1284 124.814 58.8537 130.207C65.656 132.542 72.8203 134.322 79.9717 133.664C87.136 133.019 94.3391 129.6 98.0894 123.472C101.167 118.441 103.547 107.333 98.7489 103.888L98.7619 103.901Z" fill="url(#paint0_linear_0_88)"/>
<path d="M23.5235 38.5686C22.7476 26.1576 32.5629 15.4882 45.4044 15.114C57.5088 14.7657 67.6345 24.2353 68.6691 36.0529C69.5872 46.4126 70.2726 56.8627 69.9752 60.617C69.0958 71.9572 62.035 75.9308 59.2029 77.079C58.5563 77.337 56.8104 77.5693 56.1121 77.6209C56.1121 77.6209 56.0345 77.6596 56.0474 77.7112L57.7803 90.8963C58.3881 99.5015 53.0343 106.804 44.2664 107.487C35.4597 108.171 29.0713 101.179 28.2825 92.5477L23.5235 38.5557V38.5686Z" fill="url(#paint1_linear_0_88)"/>
<path d="M64.5165 45.6255C64.6329 46.5802 63.9087 47.4446 62.9 47.5865C61.8913 47.7155 60.9861 47.0576 60.8697 46.1029C60.7533 45.1482 61.4775 44.2838 62.4862 44.1419C63.4949 44.0129 64.4001 44.6708 64.5165 45.6255Z" fill="#263238"/>
<path d="M65.8092 38.9557C65.6023 39.2137 64.1281 38.3106 62.1495 38.4655C60.1709 38.5945 58.8001 39.704 58.5673 39.4847C58.4509 39.3814 58.6449 38.9428 59.2398 38.4397C59.8217 37.9365 60.8433 37.4204 62.0848 37.3301C63.3134 37.2398 64.3867 37.6011 65.0204 38.0139C65.667 38.4267 65.9127 38.8396 65.8092 38.9428V38.9557Z" fill="#263238"/>
<path d="M46.4267 46.6836C46.5431 47.6383 45.8189 48.5027 44.8102 48.6446C43.8015 48.7736 42.8962 48.1157 42.7799 47.161C42.6635 46.2063 43.3877 45.3419 44.3964 45.2C45.4051 45.071 46.3103 45.7289 46.4267 46.6836Z" fill="#263238"/>
<path d="M46.3874 40.8392C46.1804 41.0973 44.7062 40.1942 42.7276 40.349C40.749 40.478 39.3782 41.5875 39.1454 41.3682C39.0291 41.265 39.223 40.8263 39.8179 40.3232C40.3998 39.82 41.4215 39.304 42.6629 39.2137C43.8915 39.1234 44.9648 39.4846 45.5985 39.8975C46.2451 40.3103 46.4908 40.7102 46.3874 40.8263V40.8392Z" fill="#263238"/>
<path d="M54.7669 54.6565C54.754 54.5533 55.9567 54.2437 57.9353 53.8438C58.4396 53.7534 58.9052 53.6244 58.9569 53.2761C59.0474 52.9149 58.7888 52.3859 58.4913 51.8312C57.9223 50.67 57.3145 49.4573 56.6809 48.1801C54.1591 42.968 52.284 38.6718 52.5038 38.5815C52.7237 38.4783 54.935 42.6196 57.4568 47.8317C58.0646 49.1219 58.6465 50.3346 59.2026 51.5086C59.4354 52.0505 59.8233 52.6697 59.6293 53.4309C59.5259 53.805 59.1767 54.1147 58.8534 54.2179C58.5431 54.334 58.2586 54.3727 57.9999 54.3985C56.0084 54.6565 54.754 54.7597 54.7411 54.6565H54.7669Z" fill="#263238"/>
<path d="M56.0333 77.6337C56.0333 77.6337 48.4422 78.8464 38.4199 73.9568C39.0277 74.2535 41.9245 85.4002 56.4989 81.1944L56.0333 77.6466V77.6337Z" fill="#E3BAA4"/>
<path d="M54.316 59.3914C53.5271 58.527 52.2339 58.1141 51.0183 58.3463C50.1648 58.5012 49.3372 58.9785 48.8716 59.701C48.4061 60.4235 48.3802 61.404 48.9104 62.0232C49.5053 62.7199 50.6304 62.7973 51.5615 62.4619C52.4796 62.1264 53.2426 61.4556 53.9668 60.7847C54.1608 60.6041 54.3677 60.4106 54.4841 60.1654C54.6005 59.9203 54.6005 59.6236 54.4194 59.443" fill="#E3BAA4"/>
<path d="M49.0517 56.4498C49.375 56.4111 49.5561 58.514 51.5088 59.8558C53.4615 61.2104 55.7376 60.7976 55.7763 61.0943C55.8151 61.2233 55.2979 61.5458 54.3409 61.649C53.3969 61.7523 51.9873 61.5587 50.7846 60.7331C49.5819 59.9074 49 58.7205 48.8577 57.8561C48.7025 56.9788 48.8965 56.4369 49.0517 56.4498Z" fill="#263238"/>
<path d="M46.3216 34.5564C46.1665 35.0983 44.1749 35.008 41.873 35.4595C39.5711 35.8723 37.7477 36.6851 37.3986 36.2336C37.2434 36.0143 37.5279 35.4982 38.2392 34.9306C38.9504 34.3629 40.1014 33.7823 41.4851 33.5243C42.8688 33.2663 44.162 33.3824 45.0284 33.6533C45.9078 33.9242 46.3734 34.2984 46.3087 34.5564H46.3216Z" fill="#263238"/>
<path d="M64.7882 33.8726C64.4779 34.337 63.0812 33.9887 61.4389 34.0919C59.7965 34.1435 58.4386 34.6208 58.0765 34.1822C57.9214 33.9629 58.1024 33.5113 58.6714 33.0469C59.2275 32.5824 60.2103 32.1696 61.3354 32.118C62.4605 32.0664 63.4692 32.3889 64.077 32.8018C64.6977 33.2146 64.9176 33.6532 64.7882 33.8726Z" fill="#263238"/>
<path d="M25.7233 45.2C25.5293 45.1226 17.783 43.3938 18.5201 51.1088C19.2573 58.8238 26.8742 56.5015 26.8613 56.2822C26.8613 56.0629 25.7233 45.2 25.7233 45.2Z" fill="#EBCAB9"/>
<path d="M24.2239 53.5728C24.2239 53.5728 24.0946 53.676 23.8748 53.8051C23.6679 53.9212 23.2928 54.0373 22.8661 53.9212C22.0255 53.7019 21.2108 52.4633 21.0427 51.0829C20.9521 50.3862 21.0427 49.7024 21.2367 49.1219C21.4177 48.5284 21.7539 48.1027 22.1548 47.9995C22.5557 47.8705 22.8661 48.0898 22.9825 48.2962C23.1118 48.5026 23.073 48.6574 23.1118 48.6703C23.1377 48.6832 23.267 48.5284 23.1765 48.2059C23.1247 48.0511 23.0213 47.8834 22.8273 47.7544C22.6333 47.6253 22.3488 47.5737 22.0643 47.6253C21.4694 47.7285 20.9909 48.322 20.7711 48.9542C20.5254 49.5992 20.409 50.3604 20.5125 51.1474C20.7064 52.6955 21.6505 54.076 22.8014 54.2953C23.3575 54.3856 23.7972 54.1792 24.017 53.9728C24.2369 53.7535 24.2627 53.5857 24.2369 53.5728H24.2239Z" fill="#E3BAA4"/>
<path d="M75.2124 85.1293C75.2124 85.1293 75.0184 84.9487 74.7598 84.5358C74.4882 84.123 74.1779 83.4521 73.971 82.5361C73.5442 80.7041 73.8546 77.8916 75.096 74.8211C75.665 73.273 76.3892 71.6087 76.816 69.7509C77.2945 67.8931 77.2427 65.8547 76.5444 63.8163C75.9108 61.7779 74.7986 59.7137 74.3201 57.327C73.7899 54.966 73.7899 52.4503 73.971 49.9345C74.3848 44.903 75.3805 40.1682 74.9796 35.8721C74.6822 31.563 72.7424 27.9894 70.5698 25.5897C68.3973 23.1385 66.0436 21.7968 64.3754 21.0485C62.6943 20.3131 61.6856 20.1067 61.7114 20.0293C61.7114 20.0035 61.9701 20.0551 62.4485 20.1583C62.927 20.2615 63.6254 20.4679 64.4918 20.8034C66.2118 21.4871 68.6559 22.8031 70.9319 25.2672C72.057 26.4928 73.1562 27.9894 73.9968 29.7698C74.8503 31.5501 75.4064 33.6144 75.6004 35.8205C76.053 40.2456 75.0443 45.032 74.6564 49.999C74.4753 52.489 74.4753 54.9273 74.9796 57.2108C75.4193 59.4944 76.4927 61.5328 77.1522 63.6486C77.8764 65.7515 77.9023 67.9963 77.385 69.9057C76.9065 71.828 76.1565 73.4794 75.5616 75.0146C74.2943 78.0336 73.9192 80.717 74.2555 82.5103C74.5788 84.3165 75.3288 85.1035 75.2383 85.1422L75.2124 85.1293Z" fill="#793F1D"/>
<path d="M86.5805 424.498L85.3778 446.379C85.3778 446.379 108.151 454.468 108.332 458.532L64.0529 458.648L64.4668 424.498H86.5805Z" fill="#00304C"/>
<g opacity="0.3">
<path d="M86.5805 424.498L85.3778 446.379C85.3778 446.379 108.151 454.468 108.332 458.532L64.0529 458.648L64.4668 424.498H86.5805Z" fill="black"/>
</g>
<g opacity="0.6">
<path d="M71.7208 444.586C70.8544 444.818 70.2466 445.734 70.4406 446.572C70.6216 447.398 71.5915 447.991 72.4579 447.772C73.3244 447.566 74.0874 446.469 73.8029 445.669C73.5184 444.869 72.3545 444.237 71.5527 444.65" fill="white"/>
</g>
<g opacity="0.6">
<path d="M64.0666 458.648L64.1054 455.203L106.639 456.39C106.639 456.39 108.591 457.203 108.346 458.545L64.0666 458.661V458.648Z" fill="white"/>
</g>
<path d="M86.1022 446.172C86.1022 446.379 85.0029 446.482 83.9296 447.153C82.8304 447.798 82.2743 448.701 82.0803 448.611C81.8863 448.572 82.2226 447.334 83.5416 446.547C84.8478 445.747 86.1539 445.992 86.1022 446.185V446.172Z" fill="#003A5C"/>
<path d="M90.7195 448.004C90.7712 448.211 89.8272 448.559 89.0771 449.436C88.3012 450.301 88.0943 451.243 87.8874 451.23C87.6805 451.268 87.5511 450.043 88.5081 448.972C89.4521 447.888 90.7195 447.798 90.7324 447.992L90.7195 448.004Z" fill="#003A5C"/>
<path d="M93.267 453.333C93.073 453.371 92.7885 452.339 93.3575 451.204C93.9265 450.069 94.9481 449.617 95.0386 449.785C95.155 449.952 94.4955 450.572 94.0299 451.501C93.5515 452.43 93.4739 453.307 93.254 453.333H93.267Z" fill="#003A5C"/>
<path d="M85.8059 441.167C85.7154 441.36 84.7197 441.076 83.504 441.167C82.2755 441.231 81.3185 441.618 81.2151 441.451C81.0987 441.296 82.0298 440.535 83.4782 440.457C84.9136 440.367 85.9223 441.025 85.8189 441.193L85.8059 441.167Z" fill="#003A5C"/>
<g opacity="0.3">
<path d="M86.3357 428.833L86.1288 432.742L64.3772 432.6L64.416 428.098L86.3357 428.833Z" fill="black"/>
</g>
<path d="M85.9579 436.742C85.9579 436.832 85.1044 436.961 83.7466 436.742C83.0741 436.625 82.2723 436.419 81.4447 436.058C81.0308 435.877 80.6041 435.671 80.1773 435.413C79.9704 435.284 79.7377 435.168 79.5178 434.91C79.285 434.69 79.1557 434.148 79.4402 433.8C79.673 433.478 80.0739 433.336 80.3972 433.323C80.7205 433.323 80.9921 433.374 81.2248 433.426C81.7162 433.542 82.1818 433.697 82.5956 433.877C83.4362 434.239 84.1087 434.716 84.613 435.155C85.6217 436.071 85.9579 436.845 85.8933 436.883C85.7898 436.948 85.3113 436.303 84.2768 435.555C83.7595 435.18 83.1 434.793 82.3111 434.497C81.9232 434.342 81.4964 434.213 81.0438 434.123C80.5782 434.006 80.1773 434.006 80.048 434.2C80.0092 434.277 79.9963 434.303 80.0868 434.432C80.1903 434.548 80.3713 434.677 80.5782 434.793C80.9662 435.039 81.3541 435.245 81.7421 435.439C82.5051 435.8 83.2422 436.058 83.8759 436.226C85.1432 436.561 85.9709 436.613 85.9709 436.729L85.9579 436.742Z" fill="#003A5C"/>
<path d="M85.6745 437.051C85.5969 437.077 85.1831 436.342 85.1314 435C85.1055 434.329 85.196 433.529 85.4676 432.665C85.6099 432.239 85.8039 431.8 86.0496 431.375C86.3211 430.949 86.6444 430.394 87.485 430.291C87.9247 430.278 88.2868 430.6 88.4032 430.884C88.5454 431.168 88.5713 431.413 88.623 431.658C88.7006 432.149 88.6748 432.639 88.5972 433.09C88.442 433.994 88.0411 434.742 87.6143 435.297C86.735 436.406 85.8297 436.651 85.8039 436.574C85.7392 436.471 86.4893 436.071 87.1747 435.013C87.5109 434.497 87.8083 433.8 87.9118 433.013C87.9635 432.613 87.9635 432.2 87.8859 431.787C87.8212 431.336 87.6531 430.975 87.4721 431.013C87.2522 431.013 86.8772 431.349 86.6832 431.71C86.4505 432.097 86.2565 432.484 86.1142 432.858C85.8297 433.632 85.6875 434.368 85.6487 434.987C85.5711 436.238 85.778 437.012 85.6616 437.038L85.6745 437.051Z" fill="#003A5C"/>
<path d="M74.7336 421.144L77.1001 450.804L85.9198 473.975C86.5534 475.639 85.6223 477.445 83.8765 477.884C82.9066 478.129 81.8591 477.91 81.0573 477.278C75.9621 473.239 57.3142 458.3 57.2625 456.132C57.2107 453.617 52.6328 424.937 52.6328 424.937L74.7207 421.157L74.7336 421.144Z" fill="#003A5C"/>
<g opacity="0.6">
<path opacity="0.7" d="M83.7324 478L58 456.764L58.1294 458.015C58.2458 459.099 58.7372 460.131 59.5519 460.905C61.7115 462.995 62.68 465.078 76.7888 476.366C77.6035 477.024 82.7367 478.284 83.7324 478Z" fill="#212121"/>
<path d="M83.8757 477.884L57.0547 454.132L57.1841 455.384C57.3004 456.468 57.7919 457.5 58.6066 458.274C60.7662 460.364 66.8572 466.002 80.966 477.29C81.7807 477.948 82.8799 478.168 83.8757 477.884Z" fill="white"/>
</g>
<g opacity="0.6">
<path d="M62.3211 444.173C63.1358 444.637 63.4979 445.747 63.0841 446.534C62.6703 447.333 61.5193 447.656 60.7046 447.204C59.877 446.753 59.3985 445.437 59.9158 444.702C60.4201 443.966 61.7909 443.644 62.4892 444.263" fill="white"/>
</g>
<path d="M75.5864 465.395C75.7674 465.46 76.2976 463.873 78.0176 462.918C79.7117 461.912 81.4316 462.222 81.4575 462.041C81.4704 461.964 81.0695 461.757 80.3453 461.706C79.6341 461.654 78.6124 461.809 77.6684 462.351C76.7244 462.893 76.0907 463.667 75.8062 464.299C75.5088 464.931 75.5088 465.37 75.5864 465.395Z" fill="#B0BEC5"/>
<path d="M78.1601 469.214C78.3152 469.33 79.1946 468.311 80.7206 467.769C82.2336 467.202 83.6174 467.395 83.6562 467.202C83.7338 467.047 82.1948 466.505 80.462 467.15C78.7291 467.769 77.9919 469.137 78.1601 469.214Z" fill="#B0BEC5"/>
<path d="M71.0351 460.57C71.1902 460.699 72.5352 459.112 74.8241 458.067C77.1002 456.984 79.2469 456.945 79.2339 456.752C79.2727 456.597 76.9708 456.326 74.5138 457.474C72.0567 458.596 70.8799 460.493 71.0351 460.557V460.57Z" fill="#B0BEC5"/>
<path d="M69.5353 451.578C69.6388 451.746 71.2424 450.959 73.4279 450.739C75.6005 450.494 77.398 450.92 77.4368 450.739C77.5015 450.585 75.6651 449.836 73.3244 450.094C70.9837 450.339 69.419 451.449 69.5353 451.578Z" fill="#B0BEC5"/>
<path d="M68.6167 442.883C68.7331 443.05 70.3108 441.954 72.6385 441.902C74.9534 441.812 76.6862 442.805 76.7768 442.625C76.8156 442.56 76.4535 442.212 75.7034 441.863C74.9663 441.515 73.8412 441.218 72.5868 441.244C71.3324 441.283 70.259 441.657 69.5736 442.044C68.8883 442.431 68.565 442.805 68.6167 442.87V442.883Z" fill="#B0BEC5"/>
<path d="M72.4193 440.264C72.4193 440.264 72.484 439.864 72.3417 439.141C72.1995 438.432 71.8762 437.387 71.1261 436.264C70.7381 435.735 70.3243 435.052 69.432 434.716C68.9923 434.548 68.3716 434.664 68.0483 435.077C67.725 435.477 67.6733 435.98 67.6991 436.445C67.919 438.328 69.7683 440.031 71.9667 440.16C74.1781 440.251 76.0273 438.909 76.7127 437.232C76.855 436.793 76.9326 436.277 76.6481 435.787C76.3636 435.297 75.7299 435.142 75.2902 435.232C74.3979 435.426 73.8806 435.968 73.3892 436.38C72.4193 437.271 71.8632 438.174 71.5529 438.819C71.2425 439.464 71.152 439.864 71.1908 439.877C71.3072 439.941 71.8115 438.367 73.7125 436.729C74.191 436.355 74.7471 435.877 75.3937 435.774C75.704 435.722 75.9885 435.826 76.1308 436.071C76.273 436.303 76.2472 436.677 76.1179 437.013C75.523 438.393 73.8289 439.606 71.9667 439.503C70.1174 439.412 68.488 437.903 68.294 436.393C68.2552 436.032 68.3199 435.658 68.488 435.426C68.669 435.206 68.9535 435.116 69.251 435.219C69.8717 435.413 70.3243 436.006 70.7123 436.509C72.2124 438.599 72.2641 440.289 72.3934 440.251L72.4193 440.264Z" fill="#B0BEC5"/>
<path d="M99.473 186.353C99.473 186.353 113.246 211.42 113 238.603C112.767 265.786 85.5711 433.465 85.5711 433.465L52.9049 424.563C52.0902 429.955 51.6511 357.345 56.63 328.227C53.4331 252.883 47.4961 206.764 47.4961 206.764L96.9254 186.237" fill="url(#paint2_linear_0_88)"/>
<path d="M25.1666 198.183C25.1666 198.183 14.1615 225.457 17.8342 246.666C21.494 267.876 48.8969 442.624 48.8969 442.624L80.9423 436.38L79.0087 319.551L74.8984 236.445C74.8984 236.445 77.6386 231.879 86.3157 219.093C94.9929 206.308 100.93 193.979 100.93 193.979L25.1537 198.183H25.1666Z" fill="url(#paint3_linear_0_88)"/>
<path d="M74.9426 236.397C74.9426 236.397 74.9814 236.565 75.0073 236.9C75.0461 237.261 75.0849 237.765 75.1495 238.384C75.253 239.726 75.4082 241.648 75.6022 244.099C75.9901 249.066 76.4945 256.252 77.0505 265.128C78.1756 282.893 79.4171 307.457 80.193 334.602C80.956 361.759 81.0983 386.349 80.9948 404.153C80.9431 413.055 80.8525 420.253 80.7362 425.233C80.6844 427.697 80.6327 429.62 80.6068 430.962C80.581 431.594 80.568 432.084 80.5551 432.445C80.5422 432.781 80.5292 432.948 80.5163 432.948C80.5163 432.948 80.4904 432.781 80.4904 432.445C80.4904 432.071 80.4904 431.581 80.4775 430.949C80.4775 429.607 80.4775 427.672 80.4775 425.22C80.4775 420.202 80.5034 413.016 80.5163 404.14C80.5163 386.349 80.2835 361.759 79.5205 334.615C78.7446 307.47 77.5678 282.919 76.5721 265.154C76.0548 256.304 75.628 249.118 75.3306 244.112C75.1883 241.661 75.0719 239.738 74.9944 238.397C74.9685 237.764 74.9426 237.274 74.9297 236.913C74.9297 236.578 74.9297 236.41 74.9297 236.41L74.9426 236.397Z" fill="#AC9F95"/>
<path d="M27.6856 85.9034C27.6856 85.9034 12.2448 92.2638 8.27469 94.8182C4.30457 97.3727 21.9697 152.564 21.9697 152.564C21.9697 152.564 30.4013 175.309 27.6986 185.256C26.1726 190.856 23.5345 196.79 22.3059 201.964C21.0386 207.305 24.3104 212.672 29.6513 213.975C39.1563 216.31 57.5068 219.419 73.5037 214.052C86.371 209.73 95.307 204.647 100.648 201.035C104.916 198.145 106.247 192.468 103.765 187.953C102.808 186.198 101.54 184.34 99.8849 182.573C94.7639 177.064 90.7938 156.151 89.7851 150.397C89.617 149.442 89.5911 148.501 89.7075 147.546C90.3282 142.14 92.3327 122.324 89.3712 112.583C87.0047 104.791 81.8836 95.4762 78.8963 90.3931C77.4867 88.0063 75.146 86.3034 72.4433 85.697L56.6274 82.2394C55.5153 81.9943 53.6272 82.3298 52.5021 82.4717L28.759 85.9292L27.6727 85.9034H27.6856Z" fill="url(#paint4_linear_0_88)"/>
<g opacity="0.3">
<path d="M28.5526 183.192L25.3066 192.61C25.3066 192.61 45.4806 186.65 52.2052 179.36C58.9298 172.058 65.4734 166.678 68.4736 166.446C71.4739 166.227 84.3283 166.704 86.5138 168.601C88.6993 170.484 96.1223 175.593 96.1223 175.593L93.0056 165.453L84.7162 158.434L59.3566 154.835L28.5526 183.205V183.192Z" fill="black"/>
</g>
<g style="mix-blend-mode:multiply" opacity="0.7">
<path d="M5.83725 97.2685C5.83725 97.2685 6.50203 94.7922 6.04941 106.365C6.04941 106.365 1.35209 116.917 1.22277 122.542C0.886536 138.256 0.176074 169.022 1.22357 176.608C3.12457 190.322 11.592 192.364 17.3467 192.583C23.1015 192.803 52.6893 167.623 52.6893 167.623L45.9006 154.434L23.2049 159.427C23.2049 159.427 23.1144 137.533 23.3989 130.102C23.6834 122.671 5.82432 97.2556 5.82432 97.2556L5.83725 97.2685Z" fill="#78909C"/>
</g>
<path d="M8.28952 94.8181C8.28952 94.8181 1.6554 99.1917 1.20278 110.764C1.20278 110.764 1.02173 114.467 0.892414 120.092C0.556182 135.806 0.142358 166.562 1.18985 174.148C3.09085 187.862 14.0443 189.914 19.799 190.133C25.5537 190.352 57.2759 166.536 57.2759 166.536L48.3528 151.984L25.6572 156.977C25.6572 156.977 25.5667 135.083 25.8512 127.652C26.1357 120.221 8.27658 94.8052 8.27658 94.8052L8.28952 94.8181Z" fill="url(#paint5_linear_0_88)"/>
<path d="M73.9842 86.1872C73.9842 86.1872 88.1706 90.0963 93.4081 102.714C98.0119 113.796 127.574 163.892 111.009 172.29C99.0464 178.354 84.6531 162.795 84.6531 162.795L90.268 133.318L87.4088 123.517L80.4652 116.166L81.6905 105.956L73.9842 86.1872Z" fill="url(#paint6_linear_0_88)"/>
<path d="M99.2786 116.247C99.3432 116.415 96.2266 117.795 92.1531 118.814C88.0795 119.834 84.6784 120.079 84.6525 119.911C84.6266 119.717 87.9631 119.176 91.9849 118.169C96.0068 117.176 99.201 116.079 99.2786 116.26V116.247Z" fill="#F9E8F4"/>
<path d="M104.747 127.858C104.811 128.013 101.798 129.29 97.8411 130.039C93.8968 130.8 90.625 130.748 90.625 130.581C90.625 130.387 93.8321 130.142 97.7117 129.381C101.604 128.645 104.669 127.678 104.734 127.858H104.747Z" fill="#F9E8F4"/>
<path d="M88.997 140.876C88.8676 140.837 89.7082 138.799 89.8505 135.328C89.9927 131.909 89.1651 126.955 86.1519 122.607C85.1691 121.175 84.0182 119.95 82.8284 118.853C81.6516 117.757 80.5265 116.595 79.9575 115.241L79.9316 115.163V115.086C80.4101 112.312 80.7981 109.964 81.1085 108.171C81.4059 106.507 81.5999 105.552 81.6645 105.565C81.7163 105.565 81.6257 106.532 81.4188 108.222C81.1731 110.029 80.8498 112.39 80.4748 115.176V115.034C81.5611 117.524 84.7294 119.214 86.6821 122.272C89.7987 126.762 90.5617 131.871 90.316 135.354C90.1996 137.121 89.8505 138.515 89.5918 139.457C89.2815 140.385 89.0746 140.889 89.0358 140.876H88.997Z" fill="#B76690"/>
<path d="M93.6515 148.488C92.8497 146.217 92.4747 143.792 92.5652 141.392C92.6169 139.947 92.6299 138.45 92.2031 137.07C91.7634 135.69 90.2762 134.348 88.8537 134.645L87.9355 145.275L93.6644 148.501L93.6515 148.488Z" fill="#EBCAB9"/>
<path d="M89.7337 124.272L86.5137 161.841L68.3184 162.899L69.3141 126.001C69.34 125.033 70.0771 124.221 71.047 124.104L87.5482 122.156C88.7768 122.014 89.8372 123.034 89.7337 124.272Z" fill="#263238"/>
<path d="M70.5675 136.219C70.5675 136.219 70.6451 135.819 70.7097 135.109C70.7744 134.322 70.8649 133.303 70.9684 132.065C71.0589 130.762 71.1753 129.239 71.2917 127.549C71.3046 127.343 71.3046 127.11 71.3563 126.943C71.3951 126.762 71.4857 126.581 71.615 126.44C71.7443 126.298 71.9124 126.182 72.0935 126.117C72.2616 126.053 72.4944 126.04 72.7271 126.014C73.6453 125.898 74.6023 125.782 75.5722 125.665C79.4776 125.175 83.0081 124.711 85.5686 124.362C86.7971 124.182 87.8058 124.04 88.5947 123.924C89.3059 123.808 89.6939 123.743 89.6939 123.717C89.6939 123.692 89.293 123.717 88.5688 123.782C87.78 123.859 86.7583 123.975 85.5298 124.104C82.9693 124.388 79.4259 124.814 75.5204 125.304C74.5505 125.433 73.5936 125.549 72.6754 125.665C72.4556 125.704 72.2098 125.704 71.9641 125.795C71.7184 125.885 71.4986 126.027 71.3305 126.22C71.1624 126.414 71.046 126.646 70.9942 126.878C70.9425 127.136 70.9554 127.33 70.9296 127.549C70.8391 129.226 70.7615 130.762 70.6839 132.065C70.6321 133.303 70.5804 134.322 70.5546 135.109C70.5287 135.832 70.5287 136.232 70.5546 136.232L70.5675 136.219Z" fill="#78909C"/>
<path d="M79.2582 127.072C79.3876 126.723 79.7109 126.285 80.2669 126.414C80.4868 126.414 80.9265 126.685 80.9911 127.059C81.0558 127.42 80.9006 127.82 80.6032 128.039C80.3057 128.259 79.866 128.272 79.5686 128.065C79.2582 127.859 79.116 127.433 79.2582 127.085V127.072Z" fill="#FAFAFA"/>
<path d="M81.0823 138.063C81.5091 138.115 91.6607 141.895 91.6607 141.895L97.2732 146.54C97.2732 146.54 99.4328 149.365 98.5405 154.267C97.6482 159.183 95.4627 161.131 90.1347 163.144L79.5564 162.744L73.7887 159.08C72.6507 158.357 72.0687 157.015 72.3274 155.699L72.3662 155.467L71.6549 154.551C71.2023 153.971 71.1506 153.184 71.5127 152.552C72.0041 151.687 73.1162 151.378 73.9827 151.868L80.4228 155.48L84.5611 155.532L85.0137 154.126L78.677 151.752L70.3876 146.798C69.2884 146.14 68.9651 144.708 69.6634 143.65C70.2583 142.734 71.4351 142.398 72.4308 142.837L79.9702 146.127L87.7165 148.488L86.2034 145.714L76.7889 140.36C76.7889 140.36 75.7414 137.38 81.0694 138.089L81.0823 138.063Z" fill="url(#paint7_linear_0_88)"/>
<path d="M79.5691 133.148C79.5691 133.148 77.4482 132.245 74.2928 134.013C71.1503 135.78 67.1802 138.347 67.1802 138.347L61.0505 140.915L61.6065 139.263C61.6065 139.263 67.9432 139.147 67.0897 134.645L63.3394 135.264L59.8995 133.987L54.2741 140.928L52.5412 148.797L48.9978 152.552L56.007 164.344L66.1974 160.899L75.2756 160.344L79.388 156.138L79.3363 151.416L83.2418 146.359C83.2418 146.359 83.5392 144.024 81.4571 144.05C79.3751 144.076 75.0299 149.559 75.0299 149.559L70.0899 150.268C70.0899 150.268 69.1459 149.597 69.7925 149.068C70.4391 148.552 84.1729 139.65 84.6255 137.96C85.0781 136.27 85.6213 135.148 84.1211 134.877C82.621 134.606 80.3062 135.716 80.3062 135.716C80.3062 135.716 80.7071 133.355 79.5691 133.135V133.148Z" fill="url(#paint8_linear_0_88)"/>
<path d="M68.5771 143.534C68.6288 143.624 71.3833 141.921 74.7198 139.728C78.0562 137.534 80.7073 135.69 80.6556 135.612C80.6038 135.522 77.8493 137.225 74.5129 139.418C71.1764 141.611 68.5254 143.456 68.5771 143.534Z" fill="#BD9078"/>
<path d="M67.0255 155.519C67.0255 155.519 67.2971 155.596 67.8014 155.674C68.3058 155.738 69.03 155.829 69.9352 155.88C70.8405 155.932 71.9267 155.932 73.1294 155.725C74.3192 155.519 75.5994 155.029 76.7633 154.242C79.104 152.655 80.5136 150.5 81.4576 148.978C81.9232 148.204 82.2723 147.559 82.5051 147.12C82.7379 146.669 82.8543 146.424 82.8284 146.411C82.7767 146.385 82.1947 147.34 81.2248 148.836C80.242 150.32 78.8066 152.41 76.5435 153.932C75.4184 154.693 74.2157 155.171 73.0648 155.39C71.9138 155.609 70.8404 155.635 69.9481 155.622C68.1506 155.571 67.0384 155.467 67.0384 155.532L67.0255 155.519Z" fill="#BD9078"/>
<path d="M49.011 152.539C49.011 152.539 49.1015 152.461 49.2567 152.306C49.4248 152.139 49.6576 151.907 49.955 151.597C50.5758 150.952 51.4681 150.036 52.619 148.836H52.6319V148.797C53.0975 146.746 53.6924 144.101 54.3907 140.94L54.3648 140.979C56.0331 138.941 57.9211 136.618 60.0161 134.051L59.8609 134.09C60.9213 134.49 62.0982 134.928 63.3008 135.367H63.3396H63.3784C64.5423 135.174 65.8226 134.967 67.1287 134.761L66.9477 134.632C67.0123 135.251 67.077 135.922 66.8054 136.502C66.5726 137.096 66.12 137.586 65.5639 137.96C64.4389 138.683 63.0163 138.979 61.6067 139.057H61.4904L61.4516 139.173C61.2834 139.676 61.0895 140.257 60.8826 140.824L60.7662 141.186L61.1153 141.044C63.0422 140.244 65.1113 139.379 67.2451 138.489H67.258L67.271 138.476C69.1073 137.302 71.0212 136.102 73.0128 134.941C74.0085 134.361 75.0043 133.741 76.1035 133.406C77.1898 133.058 78.4313 132.955 79.4917 133.303H79.5176C79.8667 133.367 80.0736 133.78 80.1383 134.245C80.203 134.696 80.1771 135.199 80.1124 135.677L80.0607 136.025L80.384 135.883C81.0435 135.586 81.7419 135.328 82.4661 135.174C83.1773 135.019 83.9791 134.916 84.574 135.238C84.8714 135.38 84.9361 135.69 84.9102 136.051C84.8714 136.412 84.7679 136.786 84.6645 137.16C84.5352 137.522 84.4964 137.96 84.2895 138.192C84.0696 138.476 83.7851 138.76 83.5006 139.018C81.1082 141.108 78.483 142.876 75.9742 144.643C74.6939 145.507 73.4395 146.372 72.1851 147.223C71.5644 147.649 70.9307 148.062 70.3229 148.488L69.8574 148.81C69.7151 148.913 69.4953 149.055 69.4177 149.313C69.3401 149.571 69.4435 149.817 69.5599 149.997C69.6892 150.178 69.8186 150.307 69.9867 150.436L70.0384 150.474H70.116C71.7842 150.216 73.4395 149.984 75.056 149.752H75.1207L75.1724 149.688C76.4915 148.075 77.8623 146.54 79.4012 145.301C80.1642 144.721 81.0177 144.075 81.9229 144.282C82.3626 144.359 82.7118 144.643 82.8928 145.043C83.0739 145.443 83.1256 145.92 83.0868 146.346L83.1256 146.269C81.7677 148.036 80.4745 149.713 79.2331 151.326L79.1943 151.365V151.416C79.2201 153.042 79.2331 154.616 79.2589 156.138L79.2977 156.035C77.8493 157.532 76.4785 158.925 75.1983 160.254L75.2888 160.215C71.7972 160.434 68.7969 160.628 66.2105 160.796H66.1976C62.9517 161.918 60.4041 162.795 58.6712 163.389C57.8177 163.685 57.1711 163.918 56.7055 164.072C56.4986 164.15 56.3305 164.214 56.2012 164.253C56.0848 164.292 56.0331 164.318 56.0331 164.318C56.0331 164.318 56.0977 164.318 56.2012 164.279C56.3305 164.24 56.4986 164.189 56.7055 164.124C57.1711 163.969 57.8306 163.763 58.6841 163.479C60.4299 162.898 62.9775 162.06 66.2493 160.976H66.2235C68.7969 160.834 71.8101 160.667 75.3017 160.46H75.3535L75.3923 160.421C76.6854 159.105 78.0433 157.712 79.5046 156.228L79.5434 156.19V156.125C79.5305 154.616 79.5176 153.042 79.4917 151.403L79.4658 151.494C80.7202 149.881 82.0134 148.204 83.3842 146.449L83.4101 146.411V146.372C83.4618 145.869 83.4101 145.366 83.2032 144.888C83.0997 144.656 82.9316 144.437 82.7247 144.256C82.5048 144.101 82.2591 143.972 82.0005 143.934C81.4832 143.805 80.9271 143.946 80.4745 144.179C80.0219 144.424 79.5951 144.695 79.2072 145.017C77.6295 146.294 76.2458 147.83 74.9138 149.455L75.0302 149.391C73.4137 149.623 71.7713 149.855 70.0901 150.1L70.2195 150.139C69.9737 149.958 69.7151 149.636 69.7798 149.429C69.8444 149.223 70.2582 149.017 70.5298 148.81C71.1506 148.397 71.7713 147.972 72.392 147.559C73.6464 146.707 74.9008 145.843 76.1811 144.979C78.7158 143.211 81.3151 141.444 83.7592 139.315C84.0567 139.044 84.3412 138.773 84.5998 138.438C84.7291 138.283 84.8455 138.012 84.8714 137.844L85.0266 137.276C85.13 136.902 85.2464 136.515 85.2852 136.102C85.3111 135.896 85.2982 135.664 85.2206 135.444C85.143 135.212 84.9619 135.019 84.768 134.928C83.9662 134.528 83.1256 134.683 82.3885 134.825C81.6255 134.993 80.9142 135.251 80.2288 135.573L80.5004 135.78C80.578 135.264 80.6038 134.748 80.5263 134.232C80.4875 133.974 80.4228 133.716 80.2805 133.483C80.1512 133.238 79.8926 133.045 79.6081 132.993H79.6469C78.4183 132.593 77.151 132.748 76.0001 133.096C74.8362 133.458 73.8275 134.09 72.8317 134.67C70.8402 135.844 68.9263 137.031 67.0899 138.218H67.1158C64.9949 139.096 62.9258 139.96 60.9989 140.773L61.2188 140.979C61.4128 140.399 61.6067 139.831 61.7749 139.328L61.6197 139.444C63.081 139.354 64.5294 139.057 65.745 138.283C66.3399 137.896 66.8442 137.341 67.1028 136.683C67.4003 136.025 67.3356 135.303 67.258 134.632V134.477L67.077 134.503C65.7708 134.722 64.4906 134.928 63.3267 135.122H63.4043C62.2016 134.683 61.0377 134.258 59.9644 133.871L59.8739 133.832L59.8092 133.909C57.7401 136.489 55.852 138.825 54.2096 140.876V140.902L54.1838 140.928C53.4984 144.101 52.9294 146.746 52.4897 148.797V148.759C51.3775 149.971 50.4982 150.913 49.8904 151.571C49.6059 151.881 49.386 152.126 49.2179 152.306C49.0756 152.474 48.998 152.565 48.998 152.565L49.011 152.539Z" fill="#BD9078"/>
<path d="M28.565 156.461C28.5391 156.577 27.6468 156.422 26.2243 156.486C24.8018 156.551 22.849 156.938 20.9222 157.944C19.0082 158.963 17.5728 160.357 16.7322 161.492C15.8787 162.627 15.5037 163.453 15.4002 163.401C15.3355 163.376 15.5295 162.473 16.3184 161.195C17.0943 159.931 18.5685 158.383 20.5859 157.312C22.6163 156.241 24.7242 155.906 26.2114 155.97C27.7115 156.035 28.5779 156.383 28.552 156.448L28.565 156.461Z" fill="#D27BA9"/>
<path d="M26.4968 127.084C26.6908 127.084 26.7037 133.612 26.5356 141.65C26.3545 149.687 26.0571 156.202 25.8631 156.202C25.6691 156.202 25.6562 149.674 25.8243 141.637C26.0054 133.599 26.3028 127.084 26.4968 127.097V127.084Z" fill="#B76690"/>
<path d="M0.968428 113.848C0.968428 113.848 0.98136 114.002 0.994292 114.286C0.994292 114.609 0.994292 115.034 0.98136 115.576C0.955496 116.75 0.929632 118.402 0.890836 120.505C0.826176 124.839 0.748584 131.032 0.632196 138.657C0.580468 146.32 0.541672 155.441 0.800312 165.569C0.839108 166.833 0.877904 168.11 0.9167 169.413C0.942564 170.059 0.968428 170.717 0.994292 171.362C1.05895 172.007 1.12361 172.652 1.18827 173.31C1.24 174.626 1.64089 175.89 1.91246 177.193C2.36508 178.444 2.75304 179.735 3.45137 180.896C4.73164 183.27 6.64557 185.347 9.01213 186.843C11.3658 188.353 14.1332 189.294 16.9782 189.63C17.1464 189.643 17.3145 189.656 17.4826 189.669H17.5214C19.6034 189.978 21.7372 189.475 23.6899 188.727C25.6556 187.966 27.5049 186.946 29.3283 185.927C32.9622 183.876 36.4409 181.747 39.7127 179.567C46.2821 175.206 52.0886 170.678 57.0933 166.33L57.0416 166.704C53.7051 161.208 50.7307 156.319 48.1831 152.126L48.4289 152.229C42.1827 153.519 37.2427 154.68 33.8416 155.403C32.1733 155.751 30.8801 156.035 29.949 156.228C29.5352 156.306 29.199 156.37 28.9403 156.422C28.7076 156.461 28.5912 156.473 28.5912 156.473C28.5912 156.473 28.6946 156.422 28.9274 156.37C29.186 156.306 29.5093 156.215 29.9232 156.112C30.8413 155.893 32.1345 155.57 33.7898 155.17C37.178 154.383 42.0922 153.145 48.3383 151.79L48.4935 151.752L48.584 151.894C51.1704 156.074 54.1707 160.937 57.5588 166.408L57.6882 166.614L57.5071 166.782C52.5154 171.181 46.696 175.748 40.1136 180.147C36.8289 182.341 33.3372 184.495 29.6904 186.559C27.867 187.591 25.9918 188.636 23.9615 189.411C21.9441 190.185 19.7069 190.726 17.4309 190.391H17.4697C17.2886 190.391 17.1076 190.365 16.9136 190.352C13.9392 190.004 11.0942 189.023 8.6371 187.45C6.18002 185.888 4.17556 183.721 2.84357 181.244C2.11938 180.031 1.70555 178.69 1.25293 177.399C0.98136 176.058 0.580468 174.742 0.515808 173.4C0.451148 172.729 0.386488 172.071 0.321828 171.413C0.295964 170.755 0.2701 170.11 0.257168 169.452C0.218372 168.149 0.179576 166.872 0.153712 165.608C-0.066132 155.467 0.0243919 146.346 0.14078 138.67C0.2701 131.006 0.451148 124.801 0.619264 120.518C0.709788 118.415 0.78738 116.763 0.839108 115.589C0.877904 115.06 0.903768 114.635 0.929632 114.312C0.955496 114.028 0.968428 113.873 0.98136 113.873L0.968428 113.848Z" fill="#D27BA9"/>
<path d="M105.809 173.645C105.809 173.645 105.459 173.722 104.839 173.735C104.218 173.761 103.313 173.697 102.214 173.542C101.101 173.4 99.8082 173.077 98.3986 172.626C97.0019 172.136 95.5148 171.465 94.0276 170.626C91.0662 168.936 88.7255 166.911 87.096 165.414C85.4795 163.892 84.5872 162.86 84.6519 162.795C84.7295 162.718 85.7511 163.621 87.4323 165.04C89.1264 166.433 91.48 168.368 94.3768 170.02C95.8251 170.845 97.2606 171.503 98.6055 172.019C99.9634 172.497 101.218 172.858 102.291 173.064C104.438 173.49 105.809 173.542 105.796 173.658L105.809 173.645Z" fill="#D27BA9"/>
<path d="M110.141 150.113C110.011 150.294 107.515 148.178 103.752 147.094C100.002 145.959 96.756 146.398 96.7431 146.178C96.6785 146.023 100.015 145.236 103.959 146.41C107.903 147.546 110.296 150.01 110.154 150.1L110.141 150.113Z" fill="#D27BA9"/>
<path d="M104.527 143.791C104.514 143.998 102.6 143.907 100.35 144.449C98.1 144.978 96.4318 145.92 96.3283 145.739C96.2119 145.597 97.7896 144.32 100.195 143.753C102.587 143.172 104.579 143.598 104.54 143.778L104.527 143.791Z" fill="#D27BA9"/>
<g opacity="0.3">
<path d="M25.5912 155.828C23.7807 154.487 21.4271 153.893 19.2028 154.19C16.9655 154.499 14.8705 155.699 13.4868 157.48C12.9437 158.176 12.504 158.989 12.4652 159.866C12.4264 160.744 12.879 161.686 13.7067 162.008C14.8705 162.46 16.1637 161.686 17.069 160.834C19.7847 158.215 22.1125 157.028 25.8757 156.202" fill="#BC678F"/>
</g>
<g opacity="0.3">
<path d="M97.0511 146.537C100.724 146.163 104.241 147.956 107.875 148.588C108.535 148.704 109.272 148.769 109.815 148.382C110.242 148.072 110.462 147.53 110.449 147.001C110.436 146.472 110.203 145.969 109.867 145.556C108.845 144.266 107.061 143.866 105.418 143.776C103.724 143.686 102.017 143.828 100.362 144.202C98.9909 144.511 97.5296 145.066 96.8184 146.279" fill="#BC678F"/>
</g>
<path d="M28.0882 115.022C27.9848 115.035 27.6873 113.37 26.9761 110.738C26.2519 108.132 25.0492 104.468 22.4369 101.243C19.8247 98.0435 16.2166 96.3793 13.5527 96.0438C10.8499 95.6697 9.2075 96.3535 9.18164 96.2116C9.18164 96.1858 9.55667 96.0051 10.3197 95.8116C11.0697 95.6181 12.2077 95.4891 13.6044 95.6181C16.3848 95.8632 20.1738 97.5275 22.9025 100.856C25.5923 104.197 26.7562 107.965 27.377 110.622C27.6873 111.964 27.8813 113.061 27.9848 113.822C28.0882 114.583 28.1141 115.009 28.0753 115.009L28.0882 115.022Z" fill="#D27BA9"/>
<path d="M57.9204 80.8718C57.9204 80.8718 58.0885 81.2717 58.2566 82.0329C58.3342 82.4199 58.4247 82.8844 58.4506 83.452C58.4894 84.0068 58.3859 84.7293 57.9592 85.3356C57.5454 85.9162 57.1186 86.5484 56.472 87.116C55.8383 87.6708 55.0495 88.1352 54.2089 88.5223C52.5019 89.2834 50.5362 89.8511 48.4412 90.2768C44.2383 91.1283 40.2941 90.909 37.5525 90.4317C36.1688 90.1994 35.0825 89.8898 34.3324 89.6705C33.5953 89.4254 33.1944 89.2705 33.2073 89.2189C33.2332 89.1157 34.8756 89.6447 37.6171 90.0059C40.3458 90.3671 44.1995 90.5091 48.3248 89.6834C50.381 89.2705 52.3208 88.7158 53.9891 88.0191C54.8167 87.6579 55.5538 87.2321 56.1616 86.729C56.7694 86.2387 57.2091 85.6195 57.6229 85.0905C58.0238 84.5616 58.1402 83.981 58.1402 83.452C58.1402 82.9231 58.0885 82.4457 58.0497 82.0587C57.9592 81.2975 57.8945 80.8718 57.9462 80.8589L57.9204 80.8718Z" fill="#D27BA9"/>
<path d="M91.375 192.545C91.375 192.545 91.2327 192.662 90.9223 192.855C90.5473 193.061 90.0947 193.319 89.5515 193.616C88.9567 193.952 88.2196 194.339 87.3531 194.752C86.4867 195.164 85.5038 195.668 84.3787 196.145C82.1544 197.138 79.4387 198.183 76.3868 199.19C73.309 200.157 69.882 201.073 66.2352 201.783C62.5754 202.467 59.045 202.879 55.8378 203.099C52.6178 203.292 49.7081 203.318 47.2769 203.202C46.0612 203.176 44.962 203.073 43.9921 203.008C43.0222 202.944 42.1946 202.854 41.5221 202.763C40.9014 202.673 40.397 202.608 39.9703 202.557C39.6211 202.505 39.4271 202.467 39.4401 202.441C39.4401 202.415 39.634 202.415 39.9961 202.441C40.4229 202.467 40.9402 202.505 41.5609 202.544C42.2334 202.596 43.061 202.66 44.0309 202.686C44.9879 202.725 46.0871 202.802 47.3027 202.789C49.721 202.841 52.6178 202.776 55.812 202.557C59.0062 202.299 62.5107 201.873 66.1446 201.202C69.7785 200.493 73.1796 199.602 76.2445 198.674C79.2965 197.706 82.0122 196.713 84.2365 195.771C85.3616 195.332 86.3573 194.855 87.2367 194.468C88.1161 194.081 88.8662 193.719 89.474 193.423C90.03 193.165 90.5085 192.945 90.8835 192.752C91.2068 192.61 91.3879 192.533 91.4008 192.558L91.375 192.545Z" fill="#B76690"/>
<path d="M26.457 126.646C26.457 126.723 24.9698 126.646 22.6162 126.194C20.2625 125.755 17.0554 124.904 13.6672 123.524C10.279 122.143 7.39521 120.505 5.40368 119.176C3.41215 117.847 2.3 116.879 2.3388 116.815C2.40346 116.725 3.61906 117.563 5.64939 118.776C7.67971 119.989 10.5635 121.537 13.9129 122.904C17.2623 124.259 20.4048 125.175 22.7067 125.73C25.0086 126.284 26.457 126.542 26.444 126.646H26.457Z" fill="#F9E8F4"/>
<path d="M26.7929 134.851C26.7929 134.928 25.2928 135.057 22.8745 135.006C20.4433 134.954 17.0939 134.683 13.4471 133.999C9.80025 133.315 6.58018 132.361 4.29122 131.522C2.01519 130.697 0.657326 130.039 0.696122 129.961C0.734918 129.871 2.14451 130.361 4.4464 131.071C6.7483 131.78 9.95543 132.658 13.5764 133.328C17.1844 133.999 20.495 134.348 22.9004 134.515C25.3057 134.696 26.8058 134.735 26.8058 134.838L26.7929 134.851Z" fill="#F9E8F4"/>
<path d="M82.2194 117.589C82.2194 117.589 81.4694 117.886 80.0857 118.311C78.7019 118.737 76.6975 119.318 74.2016 120.014C69.2228 121.408 62.3171 123.227 54.6484 125.085C46.9798 126.929 39.9965 128.465 34.9271 129.497C32.3925 130.013 30.3363 130.413 28.9138 130.671C27.4912 130.929 26.7024 131.045 26.6895 131.006C26.6895 130.955 27.4524 130.761 28.862 130.426C30.3751 130.077 32.3925 129.613 34.8237 129.045C39.8672 127.897 46.8116 126.297 54.4803 124.452C62.1361 122.607 69.0547 120.853 74.0723 119.576C76.4906 118.969 78.495 118.466 80.0081 118.079C81.4177 117.731 82.1936 117.563 82.2065 117.615L82.2194 117.589Z" fill="#F9E8F4"/>
<path fill-rule="evenodd" clip-rule="evenodd" d="M47.8476 1.59344C53.9644 3.25771 59.0079 8.39243 60.5468 14.5205L60.5598 14.5464C61.5943 18.6877 60.8831 23.5902 57.6113 26.3381C53.8093 29.5377 48.1838 28.8281 43.3085 27.8347C43.1433 27.801 42.9774 27.7672 42.8108 27.7337C40.5266 27.4822 39.0911 27.9432 37.3614 29.1378C34.6328 31.0214 33.7275 33.8855 33.4301 36.0658C33.0253 38.9668 34.6054 41.7152 36.1723 44.4408C37.8596 47.3757 39.5316 50.2841 38.6934 53.3277C38.2444 54.9641 37.0854 56.2734 35.9304 57.5784C34.6904 58.9793 33.4549 60.3751 33.1068 62.1651C32.6373 64.6123 33.9498 66.8541 35.2558 69.0846C35.7124 69.8644 36.1682 70.6429 36.5467 71.4283C37.8658 74.1375 38.2796 77.2984 37.5295 80.2141C36.7795 83.1298 34.8138 85.7487 32.1369 87.1162C30.2773 88.0684 28.1931 88.4007 26.1122 88.7324C25.4581 88.8367 24.8043 88.9409 24.1578 89.0644C23.5565 89.1792 22.765 89.2787 21.8818 89.3897C18.7955 89.7776 14.5892 90.3064 13.4631 92.122C8.91059 78.3702 10.5647 64.243 12.2427 49.9126C12.5589 47.2121 12.8759 44.5044 13.1524 41.7906C11.6866 41.1452 10.5622 39.922 10.5 38.3235L11.8579 25.5641C11.7673 22.6484 15.7504 16.1848 18.4661 15.114C21.1818 14.0432 22.5268 13.4497 24.945 11.8242C26.3468 10.8749 27.4528 9.58051 28.5599 8.2847C29.1381 7.60799 29.7166 6.93091 30.3377 6.30242C34.7863 1.79986 41.7308 -0.0708268 47.8476 1.59344Z" fill="url(#paint9_linear_0_88)"/>
<path d="M13.0362 90.6898C13.0362 90.6898 13.2948 90.3286 13.8121 89.6577C14.3035 88.974 15.0148 87.9548 15.7002 86.5098C16.3727 85.0778 17.0322 83.22 17.3426 80.9881C17.6271 78.769 17.6012 76.1372 16.7735 73.4279C15.9847 70.7057 14.3553 67.9706 13.4242 64.6679C12.9715 63.0294 12.7646 61.1587 13.3466 59.3655C13.8768 57.5464 15.1958 56.0627 16.5408 54.7339C17.8857 53.3922 19.3599 52.102 20.291 50.4249C21.248 48.7606 21.2997 46.7093 20.7825 44.7741C20.2652 42.826 19.3599 40.9295 18.6228 38.904C17.8728 36.9172 17.4201 34.6079 17.8081 32.4017C18.0926 30.1956 18.7651 28.0669 19.735 26.1317C20.7178 24.2094 22.011 22.429 23.7439 21.1647C24.5974 20.5196 25.5673 20.0552 26.5372 19.7069C27.5071 19.3327 28.5158 19.1005 29.5245 18.9586C31.529 18.6618 33.4946 18.7522 35.3051 18.3651C37.1026 18.0039 38.745 17.0879 39.9218 15.8107C41.1245 14.5205 42.159 13.1014 43.2195 11.7984C44.2799 10.4824 45.3662 9.21809 46.6982 8.2892C47.3448 7.81185 48.1724 7.51512 48.9483 7.46351C49.7113 7.39901 50.4743 7.42481 51.1985 7.54092C54.1212 7.99247 56.4618 9.61803 57.8197 11.5016C59.1905 13.3594 60.0181 15.1785 60.4837 16.7266C60.9492 18.2748 61.001 19.5649 60.8717 20.4035C60.7423 21.255 60.5096 21.642 60.5096 21.642C60.4708 21.6291 60.6518 21.2163 60.7423 20.3906C60.8199 19.5649 60.7423 18.3135 60.238 16.8041C59.7466 15.2946 58.8931 13.5142 57.5223 11.7209C56.1903 9.94056 53.9272 8.40531 51.1339 8.00537C49.7501 7.85055 48.1983 7.78604 46.9827 8.71494C45.7542 9.59223 44.6808 10.8308 43.6462 12.1467C42.5987 13.4497 41.5771 14.8689 40.3356 16.2235C39.0812 17.591 37.3354 18.5715 35.4215 18.9715C33.5075 19.3843 31.529 19.3069 29.6021 19.6036C28.6322 19.7456 27.6752 19.9649 26.757 20.3261C25.8259 20.6744 24.9207 21.1002 24.1319 21.7066C22.5154 22.8935 21.2739 24.5964 20.3298 26.4542C19.3987 28.3249 18.7392 30.3762 18.4676 32.5049C18.1055 34.6466 18.5194 36.7108 19.2436 38.6976C19.9548 40.6715 20.873 42.5938 21.4032 44.6322C21.9463 46.6577 21.8946 48.9412 20.8342 50.7603C19.8126 52.5794 18.2866 53.8695 16.9546 55.1983C15.6226 56.5143 14.3811 57.8947 13.8897 59.5719C13.3466 61.2104 13.5147 62.9649 13.9414 64.5518C14.8079 67.7513 16.4244 70.5122 17.2132 73.3118C18.0409 76.1114 18.0279 78.7948 17.6917 81.0655C17.3426 83.3361 16.6313 85.2197 15.9071 86.6517C15.1829 88.0967 14.4199 89.103 13.8897 89.7609C13.6181 90.0835 13.3983 90.3157 13.2431 90.4834C13.0879 90.6382 13.0103 90.7156 13.0103 90.7156L13.0362 90.6898Z" fill="#793F1D"/>
<defs>
<linearGradient id="paint0_linear_0_88" x1="12.7878" y1="53.3382" x2="94.0711" y2="110.884" gradientUnits="userSpaceOnUse">
<stop stop-color="#3E200F"/>
<stop offset="1" stop-color="#3E2110"/>
</linearGradient>
<linearGradient id="paint1_linear_0_88" x1="46.763" y1="15.1047" x2="46.763" y2="107.534" gradientUnits="userSpaceOnUse">
<stop stop-color="#F7CCB6"/>
<stop offset="1" stop-color="#F0CEBC"/>
</linearGradient>
<linearGradient id="paint2_linear_0_88" x1="0.913409" y1="309.962" x2="119.197" y2="309.962" gradientUnits="userSpaceOnUse">
<stop stop-color="#ECE2DA"/>
<stop offset="1" stop-color="#CDC0B6"/>
</linearGradient>
<linearGradient id="paint3_linear_0_88" x1="-17.3535" y1="286.674" x2="176.741" y2="287.587" gradientUnits="userSpaceOnUse">
<stop stop-color="#ECE2DA"/>
<stop offset="1" stop-color="#CDC0B6"/>
</linearGradient>
<linearGradient id="paint4_linear_0_88" x1="29.9106" y1="98.5056" x2="80.5286" y2="199.084" gradientUnits="userSpaceOnUse">
<stop stop-color="#E9A3B8"/>
<stop offset="1" stop-color="#E892BF"/>
</linearGradient>
<linearGradient id="paint5_linear_0_88" x1="13.4785" y1="106.365" x2="53.0897" y2="171.304" gradientUnits="userSpaceOnUse">
<stop stop-color="#E9A3B8"/>
<stop offset="1" stop-color="#E892BF"/>
</linearGradient>
<linearGradient id="paint6_linear_0_88" x1="83.5772" y1="96.7979" x2="122.926" y2="148.828" gradientUnits="userSpaceOnUse">
<stop stop-color="#E9A3B8"/>
<stop offset="1" stop-color="#E892BF"/>
</linearGradient>
<linearGradient id="paint7_linear_0_88" x1="84.0258" y1="137.98" x2="84.0258" y2="163.144" gradientUnits="userSpaceOnUse">
<stop stop-color="#EBCAB9"/>
<stop offset="1" stop-color="#CDA18B"/>
</linearGradient>
<linearGradient id="paint8_linear_0_88" x1="67.0517" y1="132.917" x2="67.0517" y2="164.344" gradientUnits="userSpaceOnUse">
<stop stop-color="#EBCAB9"/>
<stop offset="1" stop-color="#CDA18B"/>
</linearGradient>
<linearGradient id="paint9_linear_0_88" x1="35.7502" y1="0.993439" x2="14.7101" y2="92.4808" gradientUnits="userSpaceOnUse">
<stop stop-color="#361D0E"/>
<stop offset="1" stop-color="#472614"/>
</linearGradient>
</defs>
</svg>
