<svg width="168" height="78" viewBox="0 0 168 78" fill="none" xmlns="http://www.w3.org/2000/svg">
<circle cx="38.537" cy="20.4131" r="2.289" transform="rotate(-90 38.537 20.4131)" fill="#D9D9D9"/>
<circle cx="38.537" cy="38.5372" r="2.289" transform="rotate(-90 38.537 38.5372)" fill="#D9D9D9"/>
<circle cx="38.537" cy="2.28912" r="2.289" transform="rotate(-90 38.537 2.28912)" fill="#D9D9D9"/>
<circle cx="111.032" cy="56.6611" r="2.289" transform="rotate(-90 111.032 56.6611)" fill="#D9D9D9"/>
<circle cx="111.032" cy="20.4131" r="2.289" transform="rotate(-90 111.032 20.4131)" fill="#D9D9D9"/>
<circle cx="111.032" cy="38.5372" r="2.289" transform="rotate(-90 111.032 38.5372)" fill="#D9D9D9"/>
<circle cx="111.032" cy="2.289" r="2.289" transform="rotate(-90 111.032 2.289)" fill="#D9D9D9"/>
<circle cx="74.7841" cy="56.6611" r="2.289" transform="rotate(-90 74.7841 56.6611)" fill="#D9D9D9"/>
<circle cx="74.7841" cy="20.4131" r="2.289" transform="rotate(-90 74.7841 20.4131)" fill="#D9D9D9"/>
<circle cx="74.7841" cy="38.5372" r="2.289" transform="rotate(-90 74.7841 38.5372)" fill="#D9D9D9"/>
<circle cx="74.7841" cy="2.28912" r="2.289" transform="rotate(-90 74.7841 2.28912)" fill="#D9D9D9"/>
<circle cx="2.289" cy="2.289" r="2.289" transform="rotate(-90 2.289 2.289)" fill="#D9D9D9"/>
<circle cx="147.28" cy="56.6611" r="2.289" transform="rotate(-90 147.28 56.6611)" fill="#D9D9D9"/>
<circle cx="147.279" cy="20.4131" r="2.289" transform="rotate(-90 147.279 20.4131)" fill="#D9D9D9"/>
<circle cx="147.279" cy="38.5372" r="2.289" transform="rotate(-90 147.279 38.5372)" fill="#D9D9D9"/>
<circle cx="147.279" cy="2.28912" r="2.289" transform="rotate(-90 147.279 2.28912)" fill="#D9D9D9"/>
<circle cx="56.6601" cy="20.4131" r="2.289" transform="rotate(-90 56.6601 20.4131)" fill="#D9D9D9"/>
<circle cx="56.6601" cy="38.5372" r="2.289" transform="rotate(-90 56.6601 38.5372)" fill="#D9D9D9"/>
<circle cx="56.6601" cy="2.28912" r="2.289" transform="rotate(-90 56.6601 2.28912)" fill="#D9D9D9"/>
<circle cx="129.156" cy="56.6611" r="2.289" transform="rotate(-90 129.156 56.6611)" fill="#D9D9D9"/>
<circle cx="129.156" cy="20.413" r="2.289" transform="rotate(-90 129.156 20.413)" fill="#D9D9D9"/>
<circle cx="129.156" cy="38.5372" r="2.289" transform="rotate(-90 129.156 38.5372)" fill="#D9D9D9"/>
<circle cx="129.156" cy="2.289" r="2.289" transform="rotate(-90 129.156 2.289)" fill="#D9D9D9"/>
<circle cx="92.9081" cy="56.6611" r="2.289" transform="rotate(-90 92.9081 56.6611)" fill="#D9D9D9"/>
<circle cx="92.9081" cy="20.4131" r="2.289" transform="rotate(-90 92.9081 20.4131)" fill="#D9D9D9"/>
<circle cx="92.9081" cy="38.5372" r="2.289" transform="rotate(-90 92.9081 38.5372)" fill="#D9D9D9"/>
<circle cx="92.9081" cy="2.289" r="2.289" transform="rotate(-90 92.9081 2.289)" fill="#D9D9D9"/>
<circle cx="20.413" cy="20.4131" r="2.289" transform="rotate(-90 20.413 20.4131)" fill="#D9D9D9"/>
<circle cx="20.413" cy="2.28912" r="2.289" transform="rotate(-90 20.413 2.28912)" fill="#D9D9D9"/>
<circle cx="165.403" cy="56.6611" r="2.289" transform="rotate(-90 165.403 56.6611)" fill="#D9D9D9"/>
<circle cx="111.032" cy="74.7222" r="2.289" transform="rotate(-90 111.032 74.7222)" fill="#D9D9D9"/>
<circle cx="93.1581" cy="74.7222" r="2.289" transform="rotate(-90 93.1581 74.7222)" fill="#D9D9D9"/>
<circle cx="147.279" cy="74.7222" r="2.289" transform="rotate(-90 147.279 74.7222)" fill="#D9D9D9"/>
<circle cx="129.156" cy="74.7222" r="2.289" transform="rotate(-90 129.156 74.7222)" fill="#D9D9D9"/>
<circle cx="165.403" cy="74.7222" r="2.289" transform="rotate(-90 165.403 74.7222)" fill="#D9D9D9"/>
<circle cx="165.403" cy="20.4131" r="2.289" transform="rotate(-90 165.403 20.4131)" fill="#D9D9D9"/>
<circle cx="165.403" cy="38.5372" r="2.289" transform="rotate(-90 165.403 38.5372)" fill="#D9D9D9"/>
<circle cx="165.403" cy="2.28912" r="2.289" transform="rotate(-90 165.403 2.28912)" fill="#D9D9D9"/>
</svg>
