<svg width="279" height="306" viewBox="0 0 279 306" fill="none" xmlns="http://www.w3.org/2000/svg">
<path d="M210.797 354.797C337.028 295.723 261.944 251.356 194.04 230.001C163.761 220.482 125.628 213.882 115.791 208.609C101.62 201.076 109.06 190.983 150.735 183.676C195.221 175.87 241.667 159.93 227.035 144.13C210.23 126.052 165.189 118.708 140.579 115.036C133.281 114.518 125.923 114.094 118.566 113.878C140.508 118.717 163.902 127.766 176.338 137.238C208.305 161.577 110.406 163.856 52.658 181.445C16.4268 192.489 11.6204 221.198 97.9705 243.277C111.941 246.846 147.133 257.071 126.88 280.771C105.127 306.193 52.658 322.416 29.8929 322.416C17.0561 327.519 0.141712 352.085 0 357.584C67.9511 369.457 144.11 368.497 210.797 354.797Z" fill="#FAFAFA"/>
<path d="M120.803 12.4773C139.509 12.4773 155.077 11.196 162.444 18.8837C169.811 26.5713 156.486 32.4652 169.747 32.4652C183.008 32.4652 201.779 31.4401 199.857 39.7044C198.896 44.1248 196.974 48.4811 198.896 50.0186C203.445 53.6703 211.004 55.2719 224.522 54.7594C214.208 59.7563 185.763 58.6672 189.607 52.7734C192.234 48.6733 185.059 49.4421 168.979 49.4421C152.899 49.4421 150.4 44.5092 152.835 38.4872C155.269 32.4652 120.803 35.4762 120.803 35.4762V12.4773Z" fill="#D048A6"/>
<path d="M120.802 113.185C120.037 113.185 119.304 112.882 118.763 112.341C118.222 111.8 117.919 111.067 117.919 110.303V3.38027C117.856 2.96125 117.885 2.53371 118.003 2.12682C118.121 1.71993 118.325 1.34327 118.602 1.02245C118.879 0.701637 119.221 0.444235 119.606 0.267796C119.991 0.091356 120.41 0 120.834 0C121.257 0 121.676 0.091356 122.061 0.267796C122.446 0.444235 122.789 0.701637 123.065 1.02245C123.342 1.34327 123.546 1.71993 123.664 2.12682C123.782 2.53371 123.811 2.96125 123.749 3.38027V110.303C123.749 110.687 123.672 111.067 123.523 111.421C123.374 111.775 123.156 112.096 122.882 112.364C122.607 112.633 122.282 112.844 121.924 112.985C121.567 113.126 121.186 113.194 120.802 113.185Z" fill="#424242"/>
</svg>
