<svg width="93" height="93" viewBox="0 0 93 93" fill="none" xmlns="http://www.w3.org/2000/svg">
<circle cx="46.5" cy="46.5" r="45.5" fill="#F5F5F5" stroke="#B0BEC5" stroke-width="2" stroke-dasharray="4 4"/>
<g clip-path="url(#clip0_906_2022)">
<path d="M67.7175 48.0626C63.9675 48.0626 63.3112 48.3439 63.3112 46.0001C63.3112 43.6564 63.9206 43.9845 67.7175 43.9376C70.53 43.9376 72.03 46.0001 72.03 46.0001C72.03 46.0001 70.53 48.0626 67.7175 48.0626Z" fill="#9D1573"/>
<path d="M66.0771 42.5783C63.3584 43.797 62.8896 43.797 63.3584 45.4845C63.8271 47.172 64.249 46.7502 66.9209 45.4845C68.9365 44.5939 69.5927 42.6251 69.5927 42.6251C69.5927 42.6251 68.0927 41.5939 66.0771 42.5783Z" fill="#9D1573"/>
<path d="M65.328 45.4844C63.828 46.1407 63.5936 46.3751 63.3593 45.4844C63.078 44.5469 63.3593 44.5469 64.8593 43.8907C65.9374 43.3751 66.828 43.8907 66.828 43.8907C66.828 43.8907 66.453 44.9219 65.328 45.4844Z" fill="#D4ACC8"/>
<path d="M63.4053 46.5626C62.9365 48.2501 63.4053 48.2501 66.1241 49.4688C68.1397 50.3595 69.6397 49.422 69.6397 49.422C69.6397 49.422 68.9834 47.4532 66.9678 46.5626C64.249 45.3438 63.8272 44.922 63.4053 46.5626Z" fill="#9D1573"/>
<path d="M65.3719 46.5626C63.8719 45.9063 63.6375 45.6719 63.4031 46.5626C63.1219 47.5001 63.4031 47.5001 64.9031 48.1563C65.9813 48.6719 66.8719 48.1563 66.8719 48.1563C66.8719 48.1563 66.45 47.0782 65.3719 46.5626Z" fill="#D4ACC8"/>
<path d="M65.7946 47.1719C63.7321 47.1719 63.3571 47.3594 63.3571 46.0469C63.3571 44.7344 63.7321 44.9219 65.7946 44.9219C67.3883 44.9219 68.1852 46.0938 68.1852 46.0938C68.1852 46.0938 67.3415 47.125 65.7946 47.1719Z" fill="#D4ACC8"/>
<path d="M59.1375 49.5156C57.1688 57.2969 64.0125 60.1094 64.0125 60.1094C64.0125 60.1094 50.2313 60.1094 50.2313 50.8281L59.1375 49.5156Z" fill="#9D1573"/>
<path d="M53.2781 50.875L50.2781 50.875C50.2313 60.1094 64.0125 60.1094 64.0125 60.1094C64.0125 60.1094 53.6531 58.375 53.2781 50.875Z" fill="#90A4AE"/>
<path d="M59.1406 42.4844C57.1719 34.7032 64.0156 31.8907 64.0156 31.8907C64.0156 31.8907 50.2344 31.8907 50.2344 41.1719L59.1406 42.4844Z" fill="#9D1573"/>
<path d="M53.2813 41.1251L50.2812 41.1251C50.2812 31.8438 64.0625 31.8438 64.0625 31.8438C64.0625 31.8438 53.6563 33.625 53.2813 41.1251Z" fill="#90A4AE"/>
<path d="M41.6063 38.6407C52.5282 38.6876 61.5282 41.7813 61.5282 46.0001C61.5282 50.2188 52.5282 53.3126 41.6063 53.3595C28.8563 53.3595 22.0594 46.0001 22.0594 46.0001C22.0594 46.0001 28.9032 38.6876 41.6063 38.6407Z" fill="#78909C"/>
<path d="M41.4707 41.5938C52.3457 41.5938 61.3457 43.4688 61.3457 46C61.3457 48.5313 52.3457 50.4063 41.4707 50.4063C28.7206 50.4063 21.8769 46 21.8769 46C21.8769 46 28.7206 41.5938 41.4707 41.5938Z" fill="#F0F4F6"/>
<path d="M60.8789 42.3439C61.3477 42.3439 61.7227 42.7189 61.7227 43.1876L61.7227 48.8126C61.7227 49.2814 61.3008 49.7032 60.832 49.7032L59.1445 49.7032L59.1445 42.3907L60.8789 42.3439Z" fill="#D4ACC8"/>
<path d="M60.8246 43.9845C61.2933 43.9845 61.6683 44.172 61.6683 44.4532L61.6683 47.6407C61.6683 47.922 61.2933 48.1095 60.8246 48.1095L59.1371 48.1095L59.1371 43.9845L60.8246 43.9845Z" fill="#9D1573"/>
<path d="M62.7979 43.6094C63.0792 43.6094 63.4073 43.9375 63.4073 44.2188L63.4073 47.8751C63.4073 48.1563 63.0792 48.3907 62.7979 48.3907L61.6729 48.3907L61.6729 43.6094L62.7979 43.6094Z" fill="#455A64"/>
<path d="M62.7969 44.3594C63.0781 44.3594 63.4063 44.5938 63.4063 44.7813L63.4063 47.3126C63.4063 47.5001 63.125 47.6876 62.7969 47.6407L61.6719 47.6407L61.6719 44.3594L62.7969 44.3594Z" fill="#90A4AE"/>
<path d="M22.064 46.0001C22.064 46.0001 24.5015 48.6251 29.2358 50.7345L29.2358 41.2657C24.5015 43.3751 22.064 46.0001 22.064 46.0001Z" fill="#610A46"/>
<path d="M22.0625 46.0001C22.0625 46.0001 24.5 47.5938 29.2813 48.9063L29.2813 43.0938C24.5 44.4063 22.0625 46.0001 22.0625 46.0001Z" fill="#9D1573"/>
<path d="M41.5625 43.6563C40.2681 42.3619 38.1694 42.3619 36.875 43.6563C35.5806 44.9507 35.5806 47.0494 36.875 48.3438C38.1694 49.6382 40.2681 49.6382 41.5625 48.3438C42.8569 47.0494 42.8569 44.9507 41.5625 43.6563Z" fill="#9D1573"/>
<path d="M40.7656 44.4532C39.9113 43.5989 38.5262 43.5989 37.6719 44.4532C36.8176 45.3075 36.8176 46.6926 37.6719 47.5469C38.5262 48.4013 39.9113 48.4013 40.7656 47.5469C41.6199 46.6926 41.6199 45.3075 40.7656 44.4532Z" fill="#D5ACC8"/>
<path d="M50.9375 43.6563C49.6431 42.3619 47.5444 42.3619 46.25 43.6563C44.9556 44.9507 44.9556 47.0494 46.25 48.3438C47.5444 49.6382 49.6431 49.6382 50.9375 48.3438C52.2319 47.0494 52.2319 44.9507 50.9375 43.6563Z" fill="#9D1573"/>
<path d="M50.1406 44.4532C49.2863 43.5989 47.9012 43.5989 47.0469 44.4532C46.1926 45.3075 46.1926 46.6926 47.0469 47.5469C47.9012 48.4013 49.2863 48.4013 50.1406 47.5469C50.9949 46.6926 50.9949 45.3075 50.1406 44.4532Z" fill="#D5ACC8"/>
</g>
<defs>
<clipPath id="clip0_906_2022">
<rect width="42.4265" height="42.4265" fill="white" transform="translate(50 76.0001) rotate(-135)"/>
</clipPath>
</defs>
</svg>
