<svg width="27" height="27" viewBox="0 0 27 27" fill="none" xmlns="http://www.w3.org/2000/svg">
<path d="M24.25 15.2917H15.2917V24.25C15.2917 25.2355 14.4854 26.0417 13.5 26.0417C12.5146 26.0417 11.7083 25.2355 11.7083 24.25V15.2917H2.75C1.76458 15.2917 0.958328 14.4855 0.958328 13.5C0.958328 12.5146 1.76458 11.7084 2.75 11.7084H11.7083V2.75004C11.7083 1.76462 12.5146 0.958374 13.5 0.958374C14.4854 0.958374 15.2917 1.76462 15.2917 2.75004V11.7084H24.25C25.2354 11.7084 26.0417 12.5146 26.0417 13.5C26.0417 14.4855 25.2354 15.2917 24.25 15.2917Z" fill="#C41A90"/>
</svg>
