<svg width="67" height="33" viewBox="0 0 67 33" fill="none" xmlns="http://www.w3.org/2000/svg">
<path d="M11.99 16.5343C12.0234 16.6496 11.9708 16.8036 11.8322 16.9964C11.6936 17.1891 11.6208 17.3212 11.6137 17.3927C11.4623 18.1166 11.6661 19.3971 12.2253 21.234L12.4612 21.9778C12.4959 21.9538 12.5389 21.9345 12.5902 21.9196C12.7823 21.8641 12.9931 21.9211 13.2226 22.0906C13.4649 22.2565 13.6157 22.4419 13.675 22.6468C13.7194 22.8005 13.6292 22.9446 13.4044 23.079C13.2234 23.173 13.0424 23.267 12.8614 23.361C13.0483 23.9593 13.2371 24.564 13.4278 25.1751C13.6794 25.949 13.9313 26.5077 14.1833 26.8512C14.3784 27.1417 14.4908 27.3382 14.5204 27.4407C14.5945 27.6969 14.567 27.9616 14.4378 28.2349C14.305 28.4954 14.1105 28.6627 13.8543 28.7368C13.3676 28.8776 12.9733 28.7141 12.6714 28.2462C12.6162 28.1512 12.4288 27.7196 12.1095 26.9514C12.0023 26.677 11.8913 26.3413 11.7765 25.9443L11.5486 25.1566C11.3839 24.6351 11.2278 24.2153 11.0802 23.8971C10.3447 24.1376 9.49246 24.5022 8.52338 24.9907C7.68778 25.4128 6.85859 25.8332 6.03579 26.2516C6.13519 26.4033 6.36089 27.0875 6.71287 28.3043C6.99446 29.2777 7.32701 29.8755 7.71052 30.0977C7.76747 30.1506 7.80521 30.2091 7.82374 30.2732C7.92007 30.6062 7.71207 30.8468 7.19974 30.995C6.72584 31.1321 6.31179 31.0922 5.9576 30.8754C5.73923 30.7443 5.19379 29.4586 4.3213 27.0182C4.06312 27.0374 3.82839 26.9457 3.61711 26.7431C3.40582 26.5405 3.26127 26.3047 3.18346 26.0357C3.139 25.882 3.19261 25.7555 3.3443 25.6561C3.49228 25.5439 3.63571 25.4399 3.77459 25.3442C3.73923 25.174 3.67778 24.8656 3.59023 24.419C3.5212 24.0365 3.4552 23.7363 3.39221 23.5186C2.74011 21.2643 2.44682 19.7946 2.51233 19.1094C2.57276 18.5506 2.85273 18.199 3.35225 18.0545C3.65965 17.9656 3.97748 17.9847 4.30573 18.1118C4.63028 18.2261 4.83516 18.4305 4.92038 18.7251C4.96484 18.8788 4.96919 19.0858 4.93341 19.346C4.88144 19.6941 4.85647 19.8957 4.85848 19.9506C4.82389 21.1265 5.02149 22.4574 5.45128 23.9431C5.52168 24.1865 5.56429 24.3338 5.57911 24.385C5.69068 24.3388 5.97685 24.2005 6.43762 23.9701C7.86007 23.2255 9.23732 22.6605 10.5694 22.2752C10.0631 20.3813 9.76239 19.1497 9.66711 18.5804C9.35131 16.673 9.52643 15.623 10.1925 15.4303C10.5895 15.3155 10.9606 15.3747 11.3057 15.608C11.647 15.8285 11.8752 16.1373 11.99 16.5343ZM22.6058 22.7491C23.0837 24.4014 23.3696 25.5818 23.4636 26.2902C23.5144 26.7058 23.3028 26.9822 22.8289 27.1192C22.1117 27.3267 21.6877 27.0607 21.5571 26.3212C21.0056 26.8139 20.384 27.1603 19.6924 27.3603C19.0264 27.553 18.3442 27.5699 17.6459 27.411C16.8138 27.2215 16.3088 26.8193 16.1309 26.2045C15.9568 25.6025 16.2036 24.9204 16.8714 24.1581C17.4772 23.4693 18.1067 23.0304 18.7599 22.8415L20.393 22.3691L20.2596 21.908C19.8834 20.5594 19.2918 20.0018 18.4849 20.2353C17.473 20.528 17.1042 21.1482 17.3784 22.096C17.471 22.4162 17.338 22.6282 16.9794 22.7319C16.7616 22.7949 16.5033 22.7656 16.2044 22.6438C15.9145 22.5056 15.7381 22.3276 15.6751 22.1099C15.4677 21.3926 15.5534 20.7293 15.9323 20.12C16.3113 19.5107 16.8594 19.1023 17.5766 18.8949C19.9846 18.1983 21.661 19.4831 22.6058 22.7491ZM20.8654 24.0021C20.7913 23.7459 20.5621 23.6734 20.1779 23.7846C18.5768 24.2477 17.8856 24.8571 18.1042 25.6128C18.2228 26.0227 18.6343 26.1257 19.3388 25.922C19.7742 25.796 20.1489 25.5557 20.4627 25.2012C20.846 24.7989 20.9802 24.3992 20.8654 24.0021ZM28.859 16.7554C28.9405 17.0372 28.956 17.2826 28.9054 17.4915C28.8747 17.6253 28.7865 17.8243 28.6408 18.0885C28.1038 19.0628 27.5731 20.0353 27.0488 21.0058C26.33 22.4075 25.9532 23.384 25.9183 23.9353C26.0373 23.9148 26.148 23.8897 26.2505 23.8601C26.5451 23.7749 26.9722 23.5958 27.5317 23.3229C28.0912 23.05 28.5183 22.8709 28.8129 22.7857C29.6326 22.5486 30.2797 22.7223 30.7541 23.3068L30.5442 23.8047L30.0255 23.9548C29.5607 24.0754 28.9132 24.3321 28.083 24.7249C27.2565 25.1306 26.6319 25.3945 26.2093 25.5168C25.7866 25.6391 25.3855 25.644 25.006 25.5317C24.5551 25.4123 24.2722 25.1541 24.1573 24.7571C24.0202 24.2832 24.1333 23.5703 24.4964 22.6186C24.7217 22.0538 25.1319 21.1925 25.7269 20.0349C26.3021 18.9524 26.6496 18.2343 26.7693 17.8804L26.6677 17.889C26.0273 18.0742 25.4443 18.458 24.9187 19.0403C24.4023 19.6061 24.1249 19.8946 24.0864 19.9057C23.8431 19.9761 23.6122 19.9457 23.3938 19.8146C23.1717 19.6706 23.0255 19.477 22.9551 19.2336C22.8291 18.7981 23.3683 18.191 24.5727 17.4124C25.5944 16.7698 26.4126 16.3596 27.0274 16.1818C28.0521 15.8854 28.6626 16.0766 28.859 16.7554ZM43.2191 16.9111C43.2895 17.1545 43.3106 17.4676 43.2826 17.8505C43.2069 18.7884 42.7976 19.6286 42.0546 20.371C41.3737 21.0399 40.5529 21.5132 39.5923 21.7911C38.0169 22.2469 36.6342 22.0014 35.4443 21.0548C34.4141 20.2285 33.6619 18.9957 33.1877 17.3562C32.7949 15.9985 32.6376 14.663 32.7157 13.3496C32.7969 11.8548 33.1874 10.5898 33.8873 9.55453C34.4432 8.74135 35.099 8.22546 35.8547 8.00686C36.9434 7.69192 37.9066 7.92685 38.7443 8.71163C39.4277 9.34674 39.938 10.2471 40.2752 11.4126C40.4271 11.9377 40.4834 12.6363 40.4442 13.5082C40.4055 14.5742 40.1877 15.1647 39.7907 15.2796C39.3424 15.4092 38.9214 15.2256 38.5279 14.7288C38.63 14.6021 38.7667 14.4029 38.938 14.1313C39.1126 13.7754 39.0814 13.1876 38.8443 12.3679C38.6146 11.5738 38.3368 10.9254 38.011 10.4228C37.514 9.66439 36.9709 9.37039 36.3817 9.54083C35.9718 9.65939 35.5995 10.0516 35.2647 10.7176C35.0081 11.2221 34.8221 11.7547 34.7068 12.3155C34.4349 13.7267 34.5638 15.348 35.0937 17.1796C35.8643 19.8437 37.2487 20.8868 39.2468 20.3088C40.1049 20.0605 40.7134 19.6208 41.0721 18.9896C41.214 18.7126 41.3835 18.1708 41.5805 17.3643C41.7049 16.787 41.9209 16.4539 42.2283 16.3649C42.4332 16.3056 42.6366 16.337 42.8385 16.4591C43.0366 16.5683 43.1635 16.719 43.2191 16.9111ZM47.2508 18.5972C47.3175 18.8277 47.277 19.0476 47.1293 19.2569C46.9982 19.4753 46.8109 19.6197 46.5676 19.6901C45.7606 19.9235 45.0515 18.9835 44.4402 16.8702C44.1623 15.9096 43.7519 14.4668 43.2089 12.5419C42.6788 10.6132 42.2747 9.16859 41.9969 8.20797C41.9524 8.05427 41.8683 7.83569 41.7447 7.55222C41.6211 7.26874 41.5389 7.05656 41.4981 6.91567C41.8393 6.51162 42.1315 6.2744 42.3749 6.204C42.6566 6.12249 42.9534 6.14074 43.2651 6.25876C43.5732 6.36398 43.768 6.55747 43.8495 6.83925C43.8902 6.98014 43.9064 7.15591 43.8979 7.36656C43.8972 7.69989 43.8941 7.88122 43.8887 7.91054C43.9519 8.75282 44.1947 9.90402 44.6171 11.3642C45.2877 13.6824 45.6323 14.8736 45.6508 14.9376C46.1561 16.5404 46.6166 17.6286 47.0324 18.2023C47.1483 18.3631 47.2211 18.4947 47.2508 18.5972ZM47.6195 8.12216C47.701 8.40394 47.6716 8.66228 47.5313 8.89717C47.3911 9.13206 47.1801 9.29027 46.8983 9.37178C46.5653 9.46811 46.2181 9.44361 45.8569 9.29828C45.5084 9.14925 45.286 8.90822 45.1896 8.57521C45.1081 8.29343 45.1375 8.03509 45.2778 7.8002C45.4308 7.56161 45.6546 7.3997 45.9492 7.31448C46.2951 7.21444 46.6358 7.24079 46.9715 7.39353C47.3034 7.53347 47.5194 7.77634 47.6195 8.12216ZM48.2246 10.8619C48.2913 11.0925 48.3346 11.4339 48.3544 11.8862C48.3742 12.3385 48.4174 12.6799 48.4841 12.9105L49.629 16.8682C49.6994 17.1116 49.881 17.4754 50.1738 17.9598C50.0669 18.31 49.8981 18.5184 49.6676 18.5851C48.8607 18.8185 48.3021 18.5429 47.9918 17.7582C47.4302 16.2967 47.0401 15.1881 46.8215 14.4324C46.4547 13.1644 46.1984 12.0865 46.0527 11.1987C46.0213 11.1384 45.9964 11.0762 45.9779 11.0122C45.9112 10.7816 46.0572 10.6145 46.4158 10.5107C46.736 10.4181 47.0747 10.3895 47.432 10.425C47.8826 10.4473 48.1468 10.5929 48.2246 10.8619ZM57.1865 13.9325C57.3013 14.3295 57.1356 14.8841 56.6892 15.5962C56.2958 16.2513 55.8998 16.7059 55.5014 16.96C55.1158 17.2103 54.7308 17.3911 54.3466 17.5022C53.3347 17.7949 52.448 17.7045 51.6864 17.2308C50.9376 16.7534 50.4168 16.0088 50.1241 14.9969C49.8388 14.0107 49.7827 12.8332 49.9559 11.4645C50.1611 9.82286 50.68 8.8816 51.5125 8.64077C51.9736 8.50739 52.5826 8.52553 53.3396 8.6952C54.1461 8.89218 54.6644 9.17252 54.8946 9.53623C55.0971 9.85241 55.2613 10.2282 55.3873 10.6637C55.5021 11.0608 55.5486 11.5331 55.5265 12.0808C55.5069 12.7805 55.3433 13.1748 55.0359 13.2637C54.8182 13.3267 54.5947 13.322 54.3656 13.2495C54.0943 13.1753 53.929 13.0357 53.8697 12.8308C53.866 12.818 53.881 12.654 53.9148 12.3389C53.9418 12.1923 53.8719 11.8308 53.7052 11.2544C53.5681 10.7805 53.4599 10.4787 53.3808 10.3489C53.1891 9.97407 52.9523 9.82741 52.6705 9.90893C52.0429 10.0905 51.7137 10.7756 51.6828 11.9644C51.6601 12.8454 51.7672 13.6957 52.0044 14.5155C52.4008 15.8859 53.0345 16.4452 53.9055 16.1933C54.2513 16.0932 54.5965 15.7991 54.941 15.3107C55.2546 14.8592 55.4446 14.4364 55.511 14.0424C55.5974 13.5733 55.7879 13.2961 56.0825 13.2109C56.2746 13.1553 56.4936 13.2168 56.7397 13.3955C56.982 13.5614 57.1309 13.7404 57.1865 13.9325ZM66.2535 14.3077C65.8705 14.8071 65.5381 15.0976 65.2563 15.1791C64.8849 15.2866 64.2358 15.0579 63.3091 14.4932C62.6539 14.0998 62.0033 13.6981 61.3573 13.2881C60.9792 13.0366 60.3957 12.6988 59.6067 12.2746L59.5602 12.3297L60.0493 14.0204C60.0789 14.1229 60.1618 14.2655 60.2979 14.4482C60.4432 14.6144 60.5325 14.7551 60.5658 14.8704C60.6177 15.0497 60.5661 15.2312 60.411 15.4148C60.2725 15.6076 60.1071 15.7318 59.915 15.7873C59.582 15.8837 59.2751 15.8545 58.9944 15.6997C58.7137 15.5449 58.5251 15.3011 58.4288 14.9681L57.6952 12.432C57.6507 12.2783 57.6032 12.0422 57.5527 11.7237C57.5113 11.3887 57.4684 11.1443 57.424 10.9906L55.9289 5.82252C55.7029 5.04122 55.4637 4.43029 55.2114 3.98974C55.0972 3.78682 55.0234 3.62772 54.99 3.51245C54.9196 3.26909 55.0039 3.00874 55.243 2.7314C55.4472 2.47799 55.6775 2.31423 55.9336 2.24012C56.1258 2.18455 56.3529 2.20211 56.6151 2.29283C56.8864 2.36702 57.048 2.49378 57.0999 2.6731C57.1147 2.72433 57.1282 2.91476 57.1402 3.24439C57.1523 3.57401 57.251 4.05903 57.4362 4.69944C57.4955 4.90437 57.9709 6.61982 58.8625 9.8458C58.8989 9.77974 59.4071 8.94566 60.3872 7.34355C61.1923 6.00026 61.6909 5.30082 61.883 5.24524C62.5619 5.04887 63.0089 5.37066 63.2241 6.2106L63.2797 6.40272C62.8216 6.88225 62.2571 7.59381 61.5862 8.5374C60.7329 9.71419 60.347 10.4435 60.4285 10.7253C60.436 10.7509 60.8985 11.0543 61.8161 11.6355C62.6843 12.1894 63.2275 12.532 63.4459 12.6631C64.4478 13.2477 65.3244 13.591 66.0756 13.6929L66.2535 14.3077Z" fill="white"/>
</svg>
