<svg width="43" height="30" viewBox="0 0 43 30" fill="none" xmlns="http://www.w3.org/2000/svg">
<path d="M12.4273 19.7214C12.6534 20.5027 12.3728 21.2362 11.5857 21.9219C10.9685 22.4752 10.218 22.8797 9.33421 23.1354C8.5273 23.3688 7.52762 23.4637 6.33518 23.42C4.85693 23.3479 4.02889 23.0045 3.85104 22.3897C3.78435 22.1591 3.81017 21.9365 3.92851 21.7219C4.04685 21.5072 4.2213 21.3665 4.45185 21.2998C4.79767 21.1998 5.15863 21.248 5.53473 21.4446C6.15652 21.7228 6.49218 21.8755 6.54172 21.9028C7.06411 22.0293 7.90808 21.924 9.07362 21.5868C10.1111 21.2867 10.5613 20.8997 10.4242 20.4258C10.3093 20.0287 9.6633 19.6188 8.48609 19.1959C7.68128 18.9568 6.87648 18.7177 6.07167 18.4786C5.03027 18.1413 4.2351 17.7676 3.68613 17.3573C2.96092 16.8176 2.46864 16.0994 2.20928 15.2028C1.88323 14.0757 1.9382 12.9702 2.37419 11.8864C2.83547 10.6981 3.61687 9.94461 4.71838 9.62597C5.66618 9.35179 6.54265 9.38279 7.34778 9.71896C8.1492 10.0423 8.7748 10.6456 9.22459 11.5287C9.36676 11.8762 9.59737 12.3855 9.91643 13.0566C10.0269 13.2467 10.097 13.393 10.1267 13.4955C10.26 13.9566 10.2962 14.3695 10.2351 14.7341C10.169 15.2252 9.93098 15.53 9.52111 15.6486C9.29057 15.7153 9.03678 15.6776 8.75976 15.5357C8.49184 15.3772 8.32454 15.1827 8.25784 14.9522C8.20968 14.7857 8.17771 14.5312 8.16193 14.1888C8.14244 13.8335 8.10862 13.5726 8.06045 13.4061C7.56026 11.677 6.7338 10.9792 5.58106 11.3127C4.94065 11.4979 4.48237 11.9289 4.20621 12.6056C3.92634 13.2696 3.88089 13.9281 4.06985 14.5813C4.33662 15.5035 5.14673 16.2408 6.50018 16.7931C7.7084 17.1792 8.92302 17.5635 10.1441 17.9459C11.4588 18.4123 12.2199 19.0041 12.4273 19.7214ZM21.5229 12.6764C21.8564 13.8291 21.9896 15.0814 21.9226 16.4333C21.8387 18.2065 21.3421 19.2246 20.4327 19.4876C19.5745 19.7359 18.7099 19.41 17.8388 18.5099C17.7806 19.7482 17.3353 20.4877 16.5027 20.7286C15.4397 21.0361 14.4536 20.5302 13.5445 19.2108C12.9225 18.3081 12.4169 17.1844 12.0279 15.8395C11.7834 14.9941 11.6172 14.2996 11.5293 13.756C11.6271 13.4223 11.8233 13.2129 12.1179 13.1277C12.374 13.0536 12.6543 13.0627 12.9586 13.1551C13.2758 13.2438 13.4677 13.4035 13.5344 13.634C13.5825 13.8005 13.61 14.0632 13.6166 14.4222C13.6324 14.7646 13.6644 15.0191 13.7125 15.1856C14.5277 18.0034 15.2362 19.3252 15.8382 19.1511C16.4658 18.9695 16.6497 18.0697 16.3898 16.4515C16.2834 15.8438 16.0171 14.8035 15.591 13.3305C15.4502 12.8438 15.6616 12.519 16.2252 12.3559C16.8528 12.1744 17.2685 12.4358 17.4723 13.1403C17.4908 13.2043 17.5039 13.2977 17.5116 13.4204C17.5322 13.5393 17.5499 13.6245 17.5647 13.6757L18.1927 15.8467C18.6595 17.4605 19.1876 18.1822 19.7767 18.0118C20.2762 17.8673 20.4837 17.1688 20.3989 15.9163C20.3539 15.041 20.2184 14.2127 19.9924 13.4314C19.7998 12.7654 19.6547 12.384 19.5573 12.2873C19.5371 12.2654 19.4445 12.2089 19.2793 12.1179C19.1728 12.0376 19.1066 11.9527 19.0807 11.863C19.014 11.6325 19.0572 11.3979 19.2102 11.1593C19.3596 10.9079 19.5495 10.7489 19.7801 10.6822C20.1259 10.5821 20.4902 10.8099 20.873 11.3654C21.1766 11.7911 21.3932 12.2281 21.5229 12.6764ZM23.6943 7.57196C23.7759 7.85374 23.7465 8.11207 23.6062 8.34697C23.466 8.58186 23.255 8.74006 22.9732 8.82157C22.6402 8.9179 22.293 8.89341 21.9318 8.74808C21.5833 8.59904 21.3609 8.35802 21.2645 8.025C21.183 7.74322 21.2124 7.48489 21.3527 7.25C21.5057 7.0114 21.7295 6.84949 22.0241 6.76427C22.3699 6.66424 22.7107 6.69059 23.0464 6.84333C23.3783 6.98326 23.5943 7.22614 23.6943 7.57196ZM24.2995 10.3117C24.3662 10.5422 24.4095 10.8837 24.4293 11.336C24.4491 11.7883 24.4923 12.1297 24.559 12.3603L25.7039 16.318C25.7743 16.5614 25.9559 16.9252 26.2487 17.4096C26.1418 17.7598 25.973 17.9682 25.7425 18.0349C24.9356 18.2683 24.377 17.9927 24.0667 17.208C23.5051 15.7465 23.115 14.6379 22.8964 13.8822C22.5296 12.6142 22.2733 11.5363 22.1276 10.6485C22.0962 10.5882 22.0713 10.526 22.0528 10.4619C21.9861 10.2314 22.1321 10.0643 22.4907 9.96051C22.8109 9.86788 23.1496 9.8393 23.5069 9.87475C23.9575 9.89708 24.2217 10.0427 24.2995 10.3117ZM32.4898 11.003C32.8677 12.3094 32.9577 13.484 32.7596 14.5268C32.5241 15.8719 31.8236 16.713 30.6581 17.0502C30.0305 17.2317 29.4407 17.208 28.8886 16.9791C28.9294 17.1199 28.985 17.3121 29.0554 17.5554C29.1369 17.8372 29.1924 18.0293 29.2221 18.1318C29.5778 19.3614 29.9984 20.2876 30.484 20.9106C30.6936 21.1553 30.8095 21.3161 30.8317 21.3929C30.9577 21.8284 30.7645 22.1203 30.2522 22.2685C29.8679 22.3796 29.5594 22.3925 29.3265 22.3072C29.1597 22.2583 28.9261 21.9789 28.6259 21.4689C28.3699 21.0155 28.2048 20.6608 28.1307 20.4046L26.7913 15.7744C26.669 15.3518 26.5279 14.768 26.3679 14.0231C26.182 13.1885 26.0492 12.6093 25.9694 12.2854C25.8895 11.9615 25.7673 11.5388 25.6026 11.0174C25.3971 10.3551 25.2666 9.92785 25.211 9.73573C24.896 8.64703 25.0972 7.99894 25.8145 7.79146C25.9938 7.73958 26.1788 7.75546 26.3696 7.83908C26.5566 7.90989 26.6742 8.02855 26.7224 8.19506C26.8039 8.47684 26.9201 8.99843 27.0709 9.75983C27.3667 8.91088 27.8668 8.38451 28.5712 8.18073C29.519 7.90655 30.3602 8.07961 31.0949 8.6999C31.7358 9.23624 32.2008 10.0039 32.4898 11.003ZM30.7299 11.3247C30.3297 9.94141 29.8351 9.33499 29.2459 9.50542C28.9897 9.57952 28.729 9.92562 28.4636 10.5437C27.9474 11.734 27.8954 13.1857 28.3076 14.8986C28.4707 14.9347 28.7983 15.1314 29.2903 15.4887C29.6721 15.753 30.0039 15.8444 30.2857 15.7629C31.3488 15.4554 31.4969 13.976 30.7299 11.3247ZM40.5767 11.7866C40.762 12.427 40.471 13.0525 39.7038 13.6631C39.1064 14.1413 38.4363 14.4878 37.6935 14.7027C35.721 15.2733 34.4106 14.4378 33.7622 12.1964C33.4954 11.2742 33.4231 10.1847 33.5454 8.92792C33.696 7.38532 34.1619 6.50101 34.9432 6.275C35.6477 6.07121 36.4941 6.16641 37.4826 6.56059C38.4839 6.95107 39.0827 7.48572 39.2791 8.16456C39.5236 9.0099 39.3403 9.79163 38.7291 10.5098C38.1928 11.1507 37.4635 11.6046 36.5413 11.8713C36.362 11.9232 36.0423 11.8977 35.5823 11.7948C35.9855 12.9968 36.5201 13.5014 37.1861 13.3088C37.7497 13.1457 38.2541 12.8263 38.6995 12.3505C39.1576 11.871 39.4635 11.609 39.6172 11.5645C40.1679 11.4052 40.4878 11.4792 40.5767 11.7866ZM37.4322 8.76129C37.3395 8.44108 37.1564 8.16788 36.8828 7.94167C36.6182 7.69896 36.3323 7.62206 36.0249 7.71098C35.6022 7.83325 35.3293 8.11345 35.2062 8.55158C35.1067 8.92736 35.12 9.33299 35.2459 9.76847C35.3163 10.0118 35.457 10.1863 35.668 10.2918C35.879 10.3973 36.1125 10.4131 36.3687 10.3389C37.3037 10.0685 37.6582 9.54259 37.4322 8.76129Z" fill="white"/>
</svg>
