<svg width="9" height="12" viewBox="0 0 9 12" fill="none" xmlns="http://www.w3.org/2000/svg">
<path d="M7.74984 4.33317H7.20817V3.24984C7.20817 1.75484 5.99484 0.541504 4.49984 0.541504C3.00484 0.541504 1.7915 1.75484 1.7915 3.24984V4.33317H1.24984C0.654004 4.33317 0.166504 4.82067 0.166504 5.4165V10.8332C0.166504 11.429 0.654004 11.9165 1.24984 11.9165H7.74984C8.34567 11.9165 8.83317 11.429 8.83317 10.8332V5.4165C8.83317 4.82067 8.34567 4.33317 7.74984 4.33317ZM2.87484 3.24984C2.87484 2.35067 3.60067 1.62484 4.49984 1.62484C5.399 1.62484 6.12484 2.35067 6.12484 3.24984V4.33317H2.87484V3.24984ZM7.74984 10.8332H1.24984V5.4165H7.74984V10.8332ZM4.49984 9.20817C5.09567 9.20817 5.58317 8.72067 5.58317 8.12484C5.58317 7.529 5.09567 7.0415 4.49984 7.0415C3.904 7.0415 3.4165 7.529 3.4165 8.12484C3.4165 8.72067 3.904 9.20817 4.49984 9.20817Z" fill="#546E7A"/>
</svg>
