<svg width="9" height="12" viewBox="0 0 9 12" fill="none" xmlns="http://www.w3.org/2000/svg">
<path d="M7.75033 4.33341H7.20866V3.25008C7.20866 1.75508 5.99533 0.541748 4.50033 0.541748C3.00533 0.541748 1.79199 1.75508 1.79199 3.25008V4.33341H1.25033C0.654492 4.33341 0.166992 4.82091 0.166992 5.41675V10.8334C0.166992 11.4292 0.654492 11.9167 1.25033 11.9167H7.75033C8.34616 11.9167 8.83366 11.4292 8.83366 10.8334V5.41675C8.83366 4.82091 8.34616 4.33341 7.75033 4.33341ZM2.87533 3.25008C2.87533 2.35091 3.60116 1.62508 4.50033 1.62508C5.39949 1.62508 6.12533 2.35091 6.12533 3.25008V4.33341H2.87533V3.25008ZM7.75033 10.8334H1.25033V5.41675H7.75033V10.8334ZM4.50033 9.20842C5.09616 9.20842 5.58366 8.72091 5.58366 8.12508C5.58366 7.52925 5.09616 7.04175 4.50033 7.04175C3.90449 7.04175 3.41699 7.52925 3.41699 8.12508C3.41699 8.72091 3.90449 9.20842 4.50033 9.20842Z" fill="white"/>
</svg>
