<svg width="121" height="32" viewBox="0 0 121 32" fill="none" xmlns="http://www.w3.org/2000/svg">
<path fill-rule="evenodd" clip-rule="evenodd" d="M114.175 0H108.19C104.046 0 100.092 3.07824 99.3611 6.87638L99.0903 8.36585L98.4674 11.3448L105.319 8.78787L105.725 7.1991C105.834 6.65296 106.402 6.20612 106.998 6.20612H112.983C113.579 6.20612 113.985 6.65296 113.877 7.1991L112.333 14.6464C112.225 15.1678 111.629 15.6394 111.06 15.6394H106.023V15.6642L101.257 21.0263C102.069 21.3491 102.963 21.5228 103.965 21.5228H109.95C110.194 21.5228 110.437 21.498 110.654 21.498C114.527 21.1753 118.074 18.2212 118.751 14.6464L120.349 6.87638C121.08 3.07824 118.291 0 114.175 0Z" fill="#D02488"/>
<path fill-rule="evenodd" clip-rule="evenodd" d="M16.8716 31.3534H23.2898V8.2666H16.8716V31.3534Z" fill="#145986"/>
<path fill-rule="evenodd" clip-rule="evenodd" d="M44.9279 17.8488V31.3782L51.319 28.995V17.8488C51.319 16.26 51.0482 14.7458 50.4795 13.3556C49.9379 11.9654 49.1525 10.7242 48.1235 9.65674C47.1214 8.58928 45.9028 7.77007 44.4675 7.17429C43.0593 6.5785 41.4615 6.28061 39.7283 6.28061C38.2388 6.28061 36.8847 6.52885 35.6661 7.00052C34.4474 7.47218 33.3642 8.09279 32.4163 8.83753V6.23096H26.0251V31.3782H32.4163V17.8488C32.4163 16.26 33.0121 14.8947 34.2308 13.8024C35.4494 12.6853 36.9118 12.1392 38.645 12.1392C40.3511 12.1392 41.8135 12.6853 43.0051 13.8024C44.305 14.8699 44.9279 16.2104 44.9279 17.8488Z" fill="#145986"/>
<path fill-rule="evenodd" clip-rule="evenodd" d="M60.1475 19.3633L73.4715 14.3984C72.7945 13.6288 71.657 12.9586 70.7904 12.6359C68.8406 11.8911 66.8907 11.8911 64.9138 12.6359C63.0181 13.3558 61.6099 14.6218 60.7433 16.434C60.3642 17.2532 60.1746 18.0476 60.1746 18.8668L60.1475 19.3633ZM62.991 24.6261C63.5327 25.0233 64.1555 25.346 64.8326 25.5942C65.8075 25.9666 66.7824 26.1404 67.7844 26.1404C68.7864 26.1404 69.7613 25.9418 70.7092 25.5942C72.0633 25.0978 73.1194 24.353 73.9319 23.3849L81.1084 23.3104C80.4855 25.0233 79.5106 26.5376 78.1565 27.8781C76.8025 29.2186 75.1234 30.2612 73.1465 31.006C71.3321 31.6762 69.5176 32.0238 67.649 31.999C65.8075 31.9741 64.0201 31.6514 62.3682 31.006C60.6891 30.3605 59.1997 29.442 57.8727 28.2505C56.5457 27.0589 55.5166 25.6439 54.7854 24.0303C54.0542 22.3671 53.6751 20.7038 53.7022 18.9909C53.7292 17.278 54.0813 15.6644 54.7854 14.1502C55.4895 12.611 56.4915 11.2457 57.7914 10.0293C59.0913 8.81289 60.635 7.86956 62.4494 7.1993C64.2639 6.52904 66.0783 6.1815 67.9469 6.20632C69.8155 6.23115 71.5758 6.55386 73.2277 7.1993C74.9068 7.84474 76.3963 8.76324 77.7232 9.95482C79.0502 11.1464 80.1335 12.5117 80.8647 14.175C81.298 15.1431 81.6771 16.6823 81.8396 17.6008C81.8396 17.5759 62.991 24.6261 62.991 24.6261Z" fill="#145986"/>
<path fill-rule="evenodd" clip-rule="evenodd" d="M97.2758 25.4948H92.997C92.347 25.4948 91.8054 25.2714 91.345 24.8494C90.8847 24.4274 90.6409 23.9061 90.6409 23.2855V20.381V14.2493L95.4072 12.4868L94.351 8.26664H90.6138V5.18841V0.496582L84.2227 1.96123V23.2855C84.2227 24.4026 84.4664 25.4452 84.9268 26.4133C85.3872 27.3815 86.01 28.2504 86.7954 28.9703C87.5807 29.715 88.5015 30.286 89.5577 30.708C90.6138 31.13 91.7513 31.3534 92.9699 31.3534H98.8465L97.2758 25.4948Z" fill="#145986"/>
<path fill-rule="evenodd" clip-rule="evenodd" d="M18.686 6.23104H21.4483C22.4503 6.23104 23.2628 5.4863 23.2628 4.5678V2.15982C23.2628 1.24132 22.4503 0.496582 21.4483 0.496582H18.686C17.684 0.496582 16.8716 1.24132 16.8716 2.15982V4.5678C16.8716 5.4863 17.684 6.23104 18.686 6.23104Z" fill="#145986"/>
<path fill-rule="evenodd" clip-rule="evenodd" d="M12.999 25.5197H8.74724C8.09729 25.5197 7.55567 25.2963 7.09529 24.8743C6.63491 24.4523 6.39118 23.931 6.39118 23.3104V20.4059V14.2742L11.1575 12.5117L10.1013 8.29155H6.39118V5.21331V0.521484L0 1.98613V23.3104C0 24.4275 0.243731 25.4701 0.704113 26.4382C1.16449 27.4064 1.78736 28.2753 2.57272 28.9952C3.35808 29.7399 4.27884 30.3109 5.33501 30.7329C6.39118 31.1549 7.52859 31.3783 8.74724 31.3783H14.6239L12.999 25.5197Z" fill="#145986"/>
</svg>
