<svg width="22" height="20" viewBox="0 0 22 20" fill="none" xmlns="http://www.w3.org/2000/svg">
<path d="M15.2901 2.2168H4.3884C4.28614 2.2168 4.20325 2.30522 4.20325 2.4143V17.5858C4.20325 17.6948 4.28614 17.7833 4.3884 17.7833H15.2901C15.3924 17.7833 15.4753 17.6948 15.4753 17.5858V2.4143C15.4753 2.30522 15.3924 2.2168 15.2901 2.2168Z" stroke="#006099" stroke-linecap="round" stroke-linejoin="round"/>
<path d="M12.7499 14.5077C12.6596 14.5077 12.5738 14.4692 12.5105 14.4017L10.8644 12.6459C10.7312 12.5038 10.7312 12.275 10.8644 12.1353L18.5462 3.93898C18.6094 3.87154 18.6952 3.83301 18.7856 3.83301C18.8759 3.83301 18.9617 3.87154 19.0249 3.93898L20.671 5.69482C20.8042 5.83692 20.8042 6.06573 20.671 6.20543L12.9892 14.4017C12.926 14.4692 12.8402 14.5077 12.7499 14.5077Z" fill="#ECEFF1"/>
<path d="M18.8024 3.61147L20.5352 5.58382L12.4485 14.7908L10.7156 12.8185L18.8024 3.61147ZM18.8024 2.7998C18.6122 2.7998 18.4315 2.88638 18.2984 3.03789L10.2093 12.2422C10.0762 12.3937 10.0001 12.602 10.0001 12.8158C10.0001 13.0295 10.0762 13.2379 10.2093 13.3894L11.9422 15.3617C12.0824 15.5213 12.2631 15.5998 12.4461 15.5998C12.6291 15.5998 12.8122 15.5213 12.95 15.3617L21.0415 6.1574C21.3197 5.84085 21.3197 5.3268 21.0415 5.01025L19.3087 3.03789C19.1755 2.88638 18.9925 2.7998 18.8047 2.7998H18.8024Z" fill="#ECEFF1"/>
<path d="M20.4313 5.95023L18.7852 4.19434L11.102 12.3897L12.7482 14.1456L20.4313 5.95023Z" fill="#ECEFF1" stroke="#006099" stroke-linecap="round" stroke-linejoin="round"/>
<path d="M17.5504 5.51172L19.1988 7.26755" stroke="#006099" stroke-linecap="round" stroke-linejoin="round"/>
<path d="M9.8822 15.4471L12.7499 14.1465L11.1038 12.3906L9.8822 15.4471Z" fill="#ECEFF1" stroke="#006099" stroke-linecap="round" stroke-linejoin="round"/>
<path d="M6.24902 6.9884V4.34863H8.72381" stroke="#006099" stroke-linecap="round" stroke-linejoin="round"/>
<path d="M7.5564 5.81287L8.39638 7.26282L10.2299 4.62305" stroke="#006099" stroke-linecap="round" stroke-linejoin="round"/>
<path d="M6.24902 11.5963V8.9541H8.72381" stroke="#006099" stroke-linecap="round" stroke-linejoin="round"/>
<path d="M7.5564 10.4183L8.39638 11.8707L10.2299 9.22852" stroke="#006099" stroke-linecap="round" stroke-linejoin="round"/>
<path d="M6.24902 16.2013V13.5615H8.72381" stroke="#006099" stroke-linecap="round" stroke-linejoin="round"/>
</svg>
