<svg width="20" height="20" viewBox="0 0 20 20" fill="none" xmlns="http://www.w3.org/2000/svg">
<g clip-path="url(#clip0_251_3444)">
<path d="M5.80313 10.0713H4.15857" stroke="#006099" stroke-linecap="round" stroke-linejoin="round"/>
<path d="M15.8725 10.0771H14.2539" stroke="#006099" stroke-linecap="round" stroke-linejoin="round"/>
<path d="M7.02932 13.0723L5.87524 14.2263" stroke="#006099" stroke-linecap="round" stroke-linejoin="round"/>
<path d="M14.1846 5.91699L13.0161 7.0855" stroke="#006099" stroke-linecap="round" stroke-linejoin="round"/>
<path d="M10.0299 4.19727V5.8476" stroke="#006099" stroke-linecap="round" stroke-linejoin="round"/>
<path d="M11.2619 15.3022H8.79797" stroke="#006099" stroke-linecap="round" stroke-linejoin="round"/>
<path d="M8.7979 14.1917V13.8455C8.7979 12.3539 7.13892 11.9672 7.13892 10.0746C7.13892 8.47905 8.43148 7.18359 10.027 7.18359C11.6225 7.18359 12.9151 8.47616 12.9151 10.0746C12.9151 11.9672 11.2561 12.3539 11.2561 13.8455V14.1917" stroke="#006099" stroke-linecap="round" stroke-linejoin="round"/>
<path d="M10.6618 16.4131H9.39807" stroke="#006099" stroke-linecap="round" stroke-linejoin="round"/>
<path d="M15.0617 15.0772L13.9942 14.0068L12.7305 18.7155L17.4391 17.4546L16.3687 16.3842" stroke="#006099" stroke-linecap="round" stroke-linejoin="round"/>
<path d="M9.85962 1.02899C12.2111 0.991478 14.5769 1.86858 16.3686 3.6574C19.877 7.1658 19.877 12.8727 16.3686 16.3811" stroke="#006099" stroke-linecap="round" stroke-linejoin="round"/>
<path d="M4.9635 4.97856L6.03391 6.04897L7.29474 1.34033L2.58899 2.60405L3.6594 3.67445" stroke="#006099" stroke-linecap="round" stroke-linejoin="round"/>
<path d="M10.1684 19.0264C7.81694 19.0639 5.45108 18.1868 3.65937 16.398C0.150977 12.8896 0.150977 7.18271 3.65937 3.67432" stroke="#006099" stroke-linecap="round" stroke-linejoin="round"/>
</g>
<defs>
<clipPath id="clip0_251_3444">
<rect width="20" height="20" fill="white"/>
</clipPath>
</defs>
</svg>
