<svg width="21" height="21" viewBox="0 0 21 21" fill="none" xmlns="http://www.w3.org/2000/svg">
<path d="M10.6807 1.2666V4.24275" stroke="#006099" stroke-linecap="round" stroke-linejoin="round"/>
<path d="M10.6807 19.734V16.7578" stroke="#006099" stroke-linecap="round" stroke-linejoin="round"/>
<path d="M5.9425 18.7061L7.31953 16.3252" stroke="#006099" stroke-linecap="round" stroke-linejoin="round"/>
<path d="M15.4189 2.29395L14.0448 4.67783" stroke="#006099" stroke-linecap="round" stroke-linejoin="round"/>
<path d="M19.9527 5.14844L17.9153 6.32409" stroke="#006099" stroke-linecap="round" stroke-linejoin="round"/>
<path d="M3.4461 14.6787L1.40869 15.8544" stroke="#006099" stroke-linecap="round" stroke-linejoin="round"/>
<path d="M15.4189 18.7061L14.0448 16.3252" stroke="#006099" stroke-linecap="round" stroke-linejoin="round"/>
<path d="M7.31953 4.67487L5.9425 2.29395" stroke="#006099" stroke-linecap="round" stroke-linejoin="round"/>
<path d="M19.9527 15.8544L17.9153 14.6787" stroke="#006099" stroke-linecap="round" stroke-linejoin="round"/>
<path d="M1.40869 5.14844L3.4461 6.32113" stroke="#006099" stroke-linecap="round" stroke-linejoin="round"/>
<path d="M14.9601 11.1438C15.3154 8.78085 13.6878 6.57734 11.3249 6.22209C8.96201 5.86684 6.75849 7.49438 6.40325 9.8573C6.048 12.2202 7.67554 14.4237 10.0385 14.779C12.4014 15.1342 14.6049 13.5067 14.9601 11.1438Z" stroke="#006099" stroke-linecap="round" stroke-linejoin="round"/>
<path d="M1.88843 10.8438C4.0354 13.2839 7.17739 14.8268 10.6807 14.8268C14.1839 14.8268 17.3289 13.2839 19.4729 10.8438" stroke="#ECEFF1" stroke-width="2" stroke-linecap="round" stroke-linejoin="round"/>
<path d="M19.4729 10.1568C17.3259 7.71669 14.1839 6.17383 10.6807 6.17383C7.17739 6.17383 4.0354 7.71669 1.88843 10.1568" stroke="#ECEFF1" stroke-width="2" stroke-linecap="round" stroke-linejoin="round"/>
<path d="M10.6807 14.8269C14.1869 14.8269 17.3289 13.284 19.4729 10.8439C19.6447 10.6484 19.6447 10.3493 19.4729 10.1568C17.326 7.71669 14.184 6.17383 10.6807 6.17383C7.17743 6.17383 4.03544 7.71669 1.88846 10.1568C1.7167 10.3523 1.7167 10.6514 1.88846 10.8439C4.03544 13.284 7.17743 14.8269 10.6807 14.8269Z" stroke="#006099" stroke-linecap="round" stroke-linejoin="round"/>
<path d="M12.5463 9.84299C12.5463 10.5093 12.0074 11.0512 11.3381 11.0512C10.6688 11.0512 10.1299 10.5123 10.1299 9.84299C10.1299 9.17373 10.6688 8.63477 11.3381 8.63477C12.0074 8.63477 12.5463 9.17373 12.5463 9.84299Z" stroke="#006099" stroke-linecap="round" stroke-linejoin="round"/>
<path d="M12.8188 10.5004C12.8188 11.682 11.8623 12.6385 10.6807 12.6385C9.49912 12.6385 8.5426 11.682 8.5426 10.5004C8.5426 9.31882 9.49912 8.3623 10.6807 8.3623C11.8623 8.3623 12.8188 9.31882 12.8188 10.5004Z" stroke="#ECEFF1" stroke-width="2" stroke-linecap="round" stroke-linejoin="round"/>
<path d="M12.8188 10.5004C12.8188 11.682 11.8623 12.6385 10.6807 12.6385C9.49912 12.6385 8.5426 11.682 8.5426 10.5004C8.5426 9.31882 9.49912 8.3623 10.6807 8.3623C11.8623 8.3623 12.8188 9.31882 12.8188 10.5004Z" stroke="#006099" stroke-linecap="round" stroke-linejoin="round"/>
</svg>
