<svg width="20" height="20" viewBox="0 0 20 20" fill="none" xmlns="http://www.w3.org/2000/svg">
<g clip-path="url(#clip0_251_3553)">
<path d="M13.323 12.717C13.323 12.717 14.7901 11.6742 15.9743 10.7868C17.2195 9.85218 18.1874 10.2488 18.9667 11.0281L13.3036 16.3445H5.90161" stroke="#006099" stroke-linecap="round" stroke-linejoin="round"/>
<path d="M2.73999 13.7931C4.19876 11.9627 5.35523 11.2666 6.79458 11.2666C8.00097 11.2666 8.64161 11.408 9.67051 12.0986H11.8753C12.2303 12.0986 13.4006 12.2567 13.4006 13.9789H8.75532" stroke="#006099" stroke-linecap="round" stroke-linejoin="round"/>
<path d="M0.832031 14.5001L2.02456 13.3076L6.69205 17.9751L5.49952 19.1676" stroke="#ECEFF1" stroke-width="1.66399" stroke-linecap="round" stroke-linejoin="round"/>
<path d="M0.832031 14.5001L2.02456 13.3076L6.69205 17.9751L5.49953 19.1676" fill="#ECEFF1"/>
<path d="M0.832031 14.5001L2.02456 13.3076L6.69205 17.9751L5.49952 19.1676" stroke="#006099" stroke-linecap="round" stroke-linejoin="round"/>
<path d="M14.743 2.19853C14.7735 2.10979 14.7319 1.99886 14.6514 1.95448L13.4783 1.27779C13.3979 1.23065 13.2814 1.25006 13.2204 1.31939L12.4217 2.20685C12.3607 2.27896 12.2331 2.32888 12.1388 2.32056H11.2735C11.1793 2.32888 11.0517 2.27619 10.9907 2.20685L10.1892 1.31939C10.1282 1.25006 10.0117 1.23065 9.93126 1.27779L8.76369 1.95171C8.68327 1.99886 8.64167 2.10979 8.67217 2.19853L9.04102 3.33559C9.07153 3.42434 9.05212 3.56023 8.99665 3.63789L8.56401 4.38668C8.52519 4.47265 8.41703 4.55585 8.32274 4.57527L7.15517 4.82487C7.06365 4.84428 6.98877 4.93303 6.98877 5.02732V6.37792C6.98877 6.47222 7.06365 6.56374 7.15517 6.58038L8.32551 6.82997C8.41703 6.84939 8.52519 6.93259 8.56679 7.01856L8.99942 7.76736C9.05489 7.84501 9.0743 7.9809 9.0438 8.06965L8.67217 9.20671C8.64167 9.29545 8.68327 9.40639 8.76369 9.45076L9.93681 10.1274C10.0172 10.1746 10.1337 10.1552 10.1947 10.0858L10.9934 9.19839C11.0545 9.12628 11.182 9.07636 11.2763 9.08468H12.1416C12.2359 9.07636 12.3635 9.12905 12.4245 9.19839L13.226 10.0858C13.287 10.1552 13.4035 10.1746 13.4839 10.1274L14.6514 9.45353C14.7319 9.40639 14.7735 9.29545 14.743 9.20671L14.3741 8.06965C14.3436 7.9809 14.363 7.84501 14.4185 7.76736L14.8511 7.01856C14.89 6.93259 14.9981 6.84939 15.0924 6.82997L16.2627 6.58038C16.3543 6.56096 16.4291 6.47222 16.4291 6.37792V5.02454C16.4291 4.93025 16.3543 4.83873 16.2627 4.82209L15.0924 4.57249C15.0009 4.55308 14.8927 4.46988 14.8511 4.38391L14.4185 3.63511C14.3658 3.55746 14.3464 3.42157 14.3769 3.33282L14.7457 2.19576L14.743 2.19853Z" stroke="#006099" stroke-linecap="round" stroke-linejoin="round"/>
<path d="M13.434 5.70125C13.434 6.65527 12.6602 7.4318 11.7035 7.4318C10.7467 7.4318 9.9729 6.65805 9.9729 5.70125C9.9729 4.74446 10.7467 3.9707 11.7035 3.9707" stroke="#006099" stroke-linecap="round" stroke-linejoin="round"/>
</g>
<defs>
<clipPath id="clip0_251_3553">
<rect width="19.2163" height="19" fill="white" transform="translate(0 1)"/>
</clipPath>
</defs>
</svg>
