<svg width="20" height="22" viewBox="0 0 20 22" fill="none" xmlns="http://www.w3.org/2000/svg">
<path d="M7.55203 7.70668C7.55203 8.28155 7.08526 8.74832 6.51039 8.74832C5.93552 8.74832 5.46875 8.28155 5.46875 7.70668C5.46875 7.13181 5.93552 6.66504 6.51039 6.66504C7.08526 6.66504 7.55203 7.13181 7.55203 7.70668Z" fill="#ECEFF1" stroke="#ECEFF1" stroke-width="2.20932" stroke-linecap="round" stroke-linejoin="round"/>
<path d="M8.22521 9.7334H4.79811C4.33133 9.7334 3.953 10.1117 3.953 10.5785V13.1138" fill="#ECEFF1"/>
<path d="M8.22521 9.7334H4.79811C4.33133 9.7334 3.953 10.1117 3.953 10.5785V13.1138" stroke="#ECEFF1" stroke-width="2.20932" stroke-linecap="round" stroke-linejoin="round"/>
<path d="M7.55203 7.70668C7.55203 8.28155 7.08526 8.74832 6.51039 8.74832C5.93552 8.74832 5.46875 8.28155 5.46875 7.70668C5.46875 7.13181 5.93552 6.66504 6.51039 6.66504C7.08526 6.66504 7.55203 7.13181 7.55203 7.70668V7.70668Z" stroke="#006099" stroke-linecap="round" stroke-linejoin="round"/>
<path d="M8.22521 9.7334H4.79811C4.33133 9.7334 3.953 10.1117 3.953 10.5785V12.8681" stroke="#006099" stroke-linecap="round" stroke-linejoin="bevel"/>
<path d="M13.8781 7.70668C13.8781 8.28155 13.4113 8.74832 12.8364 8.74832C12.2616 8.74832 11.7948 8.28155 11.7948 7.70668C11.7948 7.13181 12.2616 6.66504 12.8364 6.66504C13.4113 6.66504 13.8781 7.13181 13.8781 7.70668Z" fill="#ECEFF1" stroke="#ECEFF1" stroke-width="2.20932" stroke-linecap="round" stroke-linejoin="round"/>
<path d="M15.3939 13.1119V10.5765C15.3939 10.1098 15.0156 9.73145 14.5488 9.73145H11.1217" stroke="#ECEFF1" stroke-width="2.20932" stroke-linecap="square" stroke-linejoin="bevel"/>
<path d="M13.8781 7.70668C13.8781 8.28155 13.4113 8.74832 12.8364 8.74832C12.2616 8.74832 11.7948 8.28155 11.7948 7.70668C11.7948 7.13181 12.2616 6.66504 12.8364 6.66504C13.4113 6.66504 13.8781 7.13181 13.8781 7.70668V7.70668Z" stroke="#006099" stroke-linecap="round" stroke-linejoin="round"/>
<path d="M15.3939 12.8662V10.5765C15.3939 10.1098 15.0156 9.73145 14.5488 9.73145H11.1217" stroke="#006099" stroke-linecap="round" stroke-linejoin="bevel"/>
<path d="M10.7139 9.63051C10.7139 10.2054 10.2471 10.6721 9.67226 10.6721C9.09739 10.6721 8.63062 10.2054 8.63062 9.63051C8.63062 9.05564 9.09739 8.58887 9.67226 8.58887C10.2471 8.58887 10.7139 9.05564 10.7139 9.63051Z" fill="#ECEFF1" stroke="#ECEFF1" stroke-width="2.20932" stroke-linecap="round" stroke-linejoin="round"/>
<path d="M10.7138 9.63051C10.7138 10.2054 10.247 10.6721 9.67213 10.6721C9.09727 10.6721 8.63049 10.2054 8.63049 9.63051C8.63049 9.05564 9.09727 8.58887 9.67213 8.58887C10.247 8.58887 10.7138 9.05564 10.7138 9.63051Z" stroke="#006099" stroke-linecap="round" stroke-linejoin="round"/>
<path d="M12.2321 15.4012V12.5023C12.2321 12.0356 11.8537 11.6572 11.3869 11.6572H7.95985C7.49308 11.6572 7.11475 12.0356 7.11475 12.5023V15.4012" stroke="#006099" stroke-linecap="round" stroke-linejoin="bevel"/>
<path d="M9.67224 4.70009V6.03653L13.3966 3.88692L9.67224 1.7373V3.07375" stroke="#ECEFF1" stroke-width="2.20932" stroke-linecap="round" stroke-linejoin="round"/>
<path d="M4.15691 16.7089C2.66569 15.2644 1.73706 13.2425 1.73706 11.0094C1.73706 6.63398 5.29682 3.07422 9.6722 3.07422" stroke="#ECEFF1" stroke-width="2.20932" stroke-linecap="round" stroke-linejoin="round"/>
<path d="M9.67222 17.3003V15.9639L5.95032 18.1135L9.67222 20.2631V18.9291" stroke="#ECEFF1" stroke-width="2.20932" stroke-linecap="round" stroke-linejoin="round"/>
<path d="M15.19 5.29199C16.6812 6.73653 17.6098 8.7584 17.6098 10.9915C17.6098 15.3694 14.0501 18.9291 9.67468 18.9291" stroke="#ECEFF1" stroke-width="2.20932" stroke-linecap="round" stroke-linejoin="round"/>
<path d="M9.67224 4.70009V6.03653L13.3966 3.88692L9.67224 1.7373V3.07375" stroke="#006099" stroke-linecap="round" stroke-linejoin="round"/>
<path d="M4.15691 16.7089C2.66569 15.2644 1.73706 13.2425 1.73706 11.0094C1.73706 6.63398 5.29682 3.07422 9.6722 3.07422" stroke="#006099" stroke-linecap="round" stroke-linejoin="round"/>
<path d="M9.67222 17.3003V15.9639L5.95032 18.1135L9.67222 20.2631V18.9291" stroke="#006099" stroke-linecap="round" stroke-linejoin="round"/>
<path d="M15.19 5.29199C16.6812 6.73653 17.6098 8.7584 17.6098 10.9915C17.6098 15.3694 14.0501 18.9291 9.67468 18.9291" stroke="#006099" stroke-linecap="round" stroke-linejoin="round"/>
</svg>
