<svg width="64" height="64" viewBox="0 0 64 64" fill="none" xmlns="http://www.w3.org/2000/svg">
<rect width="64" height="64" rx="32" fill="#F9E8F4"/>
<g clip-path="url(#clip0_1916_7150)">
<path d="M20.6544 30.4987C20.6456 32.8319 21.1338 34.8835 22.5748 36.7023C25.2305 40.0613 26.4216 43.8225 26.5304 48.0262C26.6039 50.9053 28.9743 52.9713 31.93 53C34.865 53.0316 37.4177 50.9772 37.4325 48.1354C37.453 43.7737 38.9941 40.0641 41.4968 36.5471C44.2113 32.7313 43.8966 27.4328 41.0028 23.7808C37.9677 19.9506 32.8593 18.5111 28.0744 20.1403C23.6483 21.6459 20.675 25.8008 20.6603 30.5016L20.6544 30.4987Z" fill="white"/>
<path d="M32.955 14.0142C32.6197 13.247 32.2286 11.9713 32.0463 12C30.717 12.204 31.4081 13.339 31.3757 14.0573C31.3493 14.678 31.7757 15.3158 32.0021 15.948C32.3021 15.3417 32.6021 14.7354 32.958 14.0113L32.955 14.0142Z" fill="white"/>
<path d="M43.9564 17.5686C43.7829 17.5198 43.6123 17.4709 43.4388 17.4192C42.6447 18.3157 41.8507 19.2122 41.0566 20.1115C41.4154 20.2609 41.9507 20.6345 42.1007 20.5224C42.8271 19.9765 43.5006 19.3415 44.077 18.6461C44.2417 18.4479 44.0093 17.9364 43.9564 17.5686Z" fill="white"/>
<path d="M22.0897 40.2308C22.0397 40.0613 21.9897 39.8917 21.9367 39.7222C21.5662 39.682 21.0574 39.4693 20.8515 39.6303C20.1369 40.1906 19.4781 40.8428 18.9164 41.5497C18.7988 41.6991 19.187 42.2306 19.3428 42.5869C20.2575 41.7996 21.1721 41.0152 22.0867 40.2279L22.0897 40.2308Z" fill="white"/>
<path d="M16.0521 31.49C16.7315 31.1395 17.3697 30.8119 18.0079 30.4843C17.3256 30.2976 16.6433 29.9614 15.9639 29.97C15.264 29.9786 14.1699 29.404 13.9964 30.6251C13.9729 30.8004 15.1993 31.1423 16.0492 31.49H16.0521Z" fill="white"/>
<path d="M47.9597 31.4642C48.7332 31.1481 50.0301 30.7487 50.0007 30.6079C49.7448 29.3522 48.6243 30.0074 47.8862 29.9786C47.2539 29.9528 46.1628 29.3982 46.0569 30.5906C46.0363 30.8148 47.2186 31.1395 47.9597 31.467V31.4642Z" fill="white"/>
<path d="M45.7128 42.8944C44.4864 41.8973 43.5571 41.1416 42.6278 40.3859C42.4454 40.6158 42.0719 41.0123 42.1101 41.0554C42.8601 41.8916 43.6365 42.7076 44.4688 43.4633C44.5541 43.5409 45.0246 43.2191 45.7128 42.8944Z" fill="white"/>
<path d="M22.356 20.0827C21.1619 19.0914 20.2679 18.3472 19.3709 17.603C19.165 17.853 18.7474 18.284 18.7857 18.3271C19.5091 19.1403 20.265 19.9305 21.0855 20.6488C21.1855 20.7379 21.6913 20.3873 22.356 20.0827Z" fill="white"/>
<path d="M20.6544 30.4987C20.6691 25.7979 23.6424 21.6459 28.0685 20.1374C32.8534 18.511 37.9618 19.9477 40.9968 23.7779C43.8907 27.43 44.2054 32.7284 41.4909 36.5443C38.9882 40.0641 37.4442 43.7736 37.4265 48.1325C37.4148 50.9743 34.8591 53.0287 31.924 52.9971C28.9684 52.9655 26.598 50.8996 26.5245 48.0233C26.4157 43.8196 25.2275 40.0555 22.5689 36.6994C21.1308 34.8806 20.6426 32.8319 20.6485 30.4958L20.6544 30.4987ZM31.9505 41.2738C33.371 41.2738 34.7973 41.3456 36.209 41.2336C36.706 41.1934 37.3324 40.8112 37.6118 40.4003C38.5264 39.0498 39.247 37.5758 40.1528 36.2196C41.6938 33.9094 42.332 31.4498 41.8262 28.7143C40.891 23.64 35.6531 20.0339 30.3918 20.8672C25.0834 21.7091 21.322 26.68 22.0278 31.7917C22.3366 34.0301 23.5071 35.7972 24.807 37.5557C25.6863 38.7481 26.1627 40.5497 27.3215 41.1359C28.5567 41.7623 30.383 41.2767 31.9505 41.2767V41.2738ZM28.0891 48.4055C28.2214 50.2042 29.8477 51.6553 31.8035 51.7443C33.8298 51.8392 35.6031 50.437 35.9178 48.4055H28.0891ZM36.6384 42.7335H27.295C27.2038 43.8397 27.6597 44.1845 28.6655 44.1587C30.8565 44.1041 33.0534 44.0983 35.2444 44.1587C36.3266 44.1903 36.7825 43.8139 36.6384 42.7306V42.7335ZM27.8008 46.8999H36.0855V45.5436H27.8008V46.8999Z" fill="#C41A90"/>
<path d="M32.954 14.0142C32.5982 14.7354 32.2982 15.3417 31.9982 15.9509C31.7718 15.3187 31.3454 14.6808 31.3718 14.0602C31.4042 13.339 30.7131 12.2069 32.0424 12.0029C32.2247 11.9741 32.6158 13.2499 32.954 14.0142Z" fill="#C41A90"/>
<path d="M43.9564 17.5686C44.0064 17.9364 44.2387 18.4479 44.077 18.6461C43.5035 19.3415 42.8271 19.9794 42.1007 20.5224C41.9477 20.6374 41.4154 20.2609 41.0566 20.1115C41.8507 19.215 42.6447 18.3157 43.4388 17.4192C43.6123 17.468 43.7829 17.5169 43.9564 17.5686Z" fill="#C41A90"/>
<path d="M22.0906 40.2308C21.176 41.0181 20.2614 41.8025 19.3467 42.5898C19.1909 42.2335 18.8027 41.7019 18.9203 41.5525C19.482 40.8457 20.1378 40.1934 20.8554 39.6331C21.0613 39.4722 21.5701 39.6848 21.9406 39.7251C21.9906 39.8946 22.0406 40.0641 22.0936 40.2337L22.0906 40.2308Z" fill="#C41A90"/>
<path d="M16.0531 31.49C15.2032 31.1423 13.9768 30.8004 14.0003 30.6251C14.1738 29.404 15.2679 29.9786 15.9678 29.97C16.6472 29.9614 17.3295 30.3004 18.0118 30.4843C17.3736 30.8119 16.7354 31.1395 16.056 31.49H16.0531Z" fill="#C41A90"/>
<path d="M47.9597 31.4641C47.2186 31.1366 46.0363 30.8119 46.0569 30.5878C46.1628 29.3982 47.2539 29.9499 47.8862 29.9757C48.6243 30.0073 49.7448 29.3493 50.0007 30.605C50.0301 30.7458 48.7332 31.1452 47.9597 31.4613V31.4641Z" fill="#C41A90"/>
<path d="M45.7128 42.8944C45.0246 43.2162 44.557 43.5409 44.4688 43.4633C43.6365 42.7076 42.8571 41.8916 42.1101 41.0554C42.0719 41.0123 42.4454 40.6187 42.6278 40.3859C43.5571 41.1416 44.4864 41.8973 45.7128 42.8944Z" fill="#C41A90"/>
<path d="M22.356 20.0827C21.6913 20.3902 21.1855 20.7379 21.0855 20.6488C20.265 19.9305 19.5121 19.1374 18.7857 18.3271C18.7474 18.284 19.165 17.853 19.3709 17.603C20.2679 18.3472 21.1619 19.0914 22.356 20.0827Z" fill="#C41A90"/>
<path d="M31.9512 41.2738C30.3837 41.2738 28.5603 41.7594 27.3222 41.133C26.1664 40.5469 25.687 38.7453 24.8077 37.5528C23.5107 35.7915 22.3402 34.0243 22.0285 31.7889C21.3227 26.6772 25.0841 21.7091 30.3925 20.8643C35.6539 20.0282 40.8917 23.6371 41.8269 28.7115C42.3298 31.4498 41.6945 33.9094 40.1535 36.2167C39.2477 37.5729 38.5271 39.047 37.6125 40.3975C37.3331 40.8083 36.7067 41.1934 36.2097 41.2307C34.798 41.3428 33.3717 41.271 31.9512 41.271V41.2738ZM31.9659 34.9725C30.8542 33.9726 29.8426 33.0072 28.7574 32.125C28.5044 31.9182 28.0074 31.9957 27.6222 31.9412C27.6898 32.3176 27.6633 32.7486 27.8516 33.0531C28.0721 33.4066 28.4691 33.6594 28.8074 33.9324C30.3837 35.1938 31.863 36.4839 31.3601 38.8114C31.3072 39.0498 31.7895 39.3975 32.0247 39.6964C32.2306 39.3659 32.657 38.9953 32.6041 38.7165C32.1835 36.5989 33.357 35.3059 34.898 34.1565C35.2862 33.8663 35.6921 33.5531 35.9479 33.1623C36.1685 32.8261 36.1891 32.3664 36.2979 31.9584C35.8803 32.0417 35.3568 31.9957 35.0657 32.2285C34.0128 33.0704 33.0394 34.0071 31.963 34.9754L31.9659 34.9725Z" fill="white"/>
<path d="M28.0898 48.4055H35.9186C35.6039 50.4399 33.8306 51.8421 31.8042 51.7444C29.8515 51.6524 28.2222 50.2042 28.0898 48.4055Z" fill="white"/>
<path d="M36.6386 42.7335C36.7827 43.8167 36.3268 44.1903 35.2446 44.1615C33.0536 44.0983 30.8596 44.1041 28.6657 44.1615C27.6599 44.1874 27.2011 43.8426 27.2952 42.7363H36.6386V42.7335Z" fill="white"/>
<path d="M27.8027 46.897V45.5408H36.0874V46.897H27.8027Z" fill="white"/>
<path d="M31.9658 34.9725C33.0422 34.0042 34.0157 33.0703 35.0685 32.2256C35.3597 31.9928 35.8831 32.0388 36.3008 31.9555C36.1919 32.3606 36.1714 32.8232 35.9508 33.1594C35.6949 33.5502 35.2861 33.8634 34.9009 34.1536C33.3598 35.3058 32.1893 36.5988 32.6069 38.7136C32.6628 38.9923 32.2334 39.3659 32.0276 39.6934C31.7923 39.3946 31.3129 39.0469 31.3629 38.8084C31.8658 36.4781 30.3865 35.1909 28.8102 33.9295C28.469 33.6565 28.072 33.4036 27.8544 33.0502C27.6662 32.7456 27.6926 32.3146 27.625 31.9382C28.0103 31.9928 28.5043 31.9152 28.7602 32.1221C29.8454 33.0042 30.8571 33.9697 31.9688 34.9696L31.9658 34.9725Z" fill="#C41A90"/>
</g>
<defs>
<clipPath id="clip0_1916_7150">
<rect width="36" height="41" fill="white" transform="translate(14 12)"/>
</clipPath>
</defs>
</svg>
