<svg width="64" height="64" viewBox="0 0 64 64" fill="none" xmlns="http://www.w3.org/2000/svg">
<rect width="64" height="64" rx="32" fill="#E5EFF5"/>
<g clip-path="url(#clip0_1916_7177)">
<path d="M39.4791 39.8432C38.2464 37.8315 37.8634 37.625 35.6104 37.6435C34.4301 37.6541 33.2499 37.6991 32.0748 37.6223C31.545 37.5879 30.9549 37.4079 30.5168 37.1088C27.0101 34.7079 23.3355 34.3717 19.4432 36.0209C18.7901 36.2988 18.1108 37.0056 17.3737 36.0473C17.2767 35.9203 16.7102 36.042 16.4374 36.1903C15.863 36.5026 15.3646 36.9579 14.7876 37.2623C13.8775 37.7415 13.8119 38.3053 14.2971 39.1841C15.8499 41.9926 17.3187 44.8462 18.853 47.6626C20.4582 50.6062 20.4949 50.622 23.1781 48.5123C23.7919 48.0306 24.2928 48.0015 25.043 48.0809C26.8973 48.2794 28.8461 48.5812 30.6322 48.2238C33.3417 47.6812 35.9829 46.7097 38.5847 45.7382C41.281 44.7297 43.9091 43.5226 46.5451 42.3553C47.7306 41.8312 48.2447 40.8173 47.8827 39.8273C47.4604 38.6706 46.5267 38.435 45.4304 38.5832C45.1287 38.6229 44.8271 38.6891 44.5307 38.7526C42.8678 39.11 41.2076 39.47 39.4765 39.8432H39.4791Z" fill="white"/>
<path d="M42.7639 23.7941C42.7508 18.3386 38.5018 14.0133 33.1485 14C27.7271 13.9868 23.4387 18.3491 23.4571 23.855C23.4728 29.2418 27.7192 33.5591 33.0095 33.5724C38.4991 33.5856 42.7796 29.2947 42.7639 23.7941Z" fill="white"/>
<path d="M39.4792 39.8432C41.2103 39.47 42.8706 39.11 44.5334 38.7526C44.8324 38.6891 45.1314 38.6256 45.4331 38.5832C46.5294 38.435 47.4632 38.6732 47.8854 39.8273C48.2474 40.8173 47.7333 41.8312 46.5478 42.3553C43.9092 43.5226 41.2837 44.7297 38.5874 45.7382C35.9856 46.7123 33.3444 47.6812 30.635 48.2238C28.8462 48.5838 26.9 48.2794 25.0457 48.0809C24.2955 48.0015 23.7946 48.0279 23.1808 48.5123C20.4976 50.6247 20.4583 50.6088 18.8557 47.6626C17.3214 44.8462 15.85 41.99 14.2998 39.1841C13.8146 38.3053 13.8776 37.7415 14.7903 37.2623C15.3673 36.9579 15.8657 36.5026 16.4401 36.1903C16.7129 36.042 17.2768 35.9203 17.3764 36.0473C18.1108 37.0056 18.7902 36.2962 19.4459 36.0209C23.3382 34.3717 27.0128 34.7079 30.5196 37.1088C30.9576 37.4079 31.5451 37.5879 32.0775 37.6223C33.2526 37.6965 34.4355 37.6541 35.6131 37.6435C37.8662 37.625 38.2491 37.8315 39.4818 39.8432H39.4792ZM18.5069 37.8394C19.96 40.5632 21.3632 43.2447 22.8267 45.8891C23.0051 46.212 23.4851 46.4317 23.8706 46.5615C26.4174 47.4165 29.1189 47.75 31.6133 46.8923C36.5154 45.2062 41.2942 43.1547 46.1071 41.2065C46.3983 41.0873 46.5268 40.5526 46.7314 40.2112C46.3144 40.0629 45.8685 39.7294 45.4882 39.7956C43.6836 40.1132 41.8896 40.5103 40.1113 40.955C39.7074 41.0556 39.2668 41.3891 39.0386 41.7438C38.4038 42.7285 37.5567 43.1917 36.4131 43.1865C33.9214 43.1732 31.4323 43.197 28.9406 43.1441C28.5524 43.1362 28.1695 42.8053 27.7839 42.6226C28.1564 42.4294 28.5262 42.08 28.9013 42.0694C31.3484 42.0165 33.7955 42.0376 36.2426 42.035C37.3075 42.035 38.0917 41.5559 38.1232 40.4494C38.1573 39.3138 37.3599 38.8373 36.3029 38.8215C34.8184 38.7976 33.3286 38.8717 31.8493 38.7685C31.1543 38.7209 30.3858 38.4959 29.8166 38.1041C26.1263 35.5603 22.4123 35.6926 18.5043 37.8447L18.5069 37.8394ZM15.286 38.4403C17.1588 41.945 18.9423 45.2909 20.7757 48.7241C21.3684 48.3032 21.8169 47.9856 22.3389 47.6123C20.5055 44.1791 18.7193 40.8332 16.8755 37.3788C16.3037 37.76 15.8473 38.0644 15.2834 38.4403H15.286Z" fill="#424242"/>
<path d="M42.7639 23.7941C42.7796 29.2947 38.4991 33.5856 33.0095 33.5724C27.7166 33.5591 23.4728 29.2418 23.4571 23.855C23.4387 18.3491 27.7271 13.9868 33.1485 14C38.5018 14.0133 42.7508 18.3386 42.7665 23.7941H42.7639ZM24.9364 25.1177C24.8734 25.4168 24.8131 25.5386 24.8315 25.6471C25.3954 29.1465 28.792 32.0741 32.6213 32.368C36.1281 32.638 39.9653 30.1921 40.9725 26.968C41.0643 26.6794 40.7915 26.105 40.5135 25.8959C39.3201 24.9827 38.0952 25.6947 36.8861 25.9515C35.4776 26.2506 34.5439 25.8218 34.4993 24.6994C34.4757 24.1515 34.738 23.5003 35.0711 23.045C35.6717 22.2244 36.3117 21.5839 35.8081 20.3636C35.6219 19.9136 36.1622 19.0083 36.5871 18.4947C37.0356 17.9521 37.7438 17.6318 38.3706 17.1897C35.0317 14.3018 29.2719 14.7147 27.2602 17.9018C27.6694 18.0712 28.0681 18.2459 28.472 18.4047C31.2548 19.4768 31.2889 19.4847 30.565 22.4018C30.3657 23.2118 30.6358 23.54 31.3178 23.7597C32.1781 24.0377 32.9649 24.3897 33.0279 25.4883C33.0961 26.6741 33.2298 27.86 33.2561 29.0486C33.2875 30.5044 32.1177 31.415 30.8378 30.8194C30.2555 30.5468 29.7886 29.8136 29.4896 29.1836C29.0254 28.2015 28.6949 27.2777 27.3127 27.365C26.9061 27.3915 26.4157 26.8991 26.0537 26.5524C25.6577 26.1712 25.3639 25.6815 24.9364 25.1256V25.1177ZM25.9881 18.725C25.5265 20.1041 24.9023 21.3483 24.7738 22.6427C24.7134 23.2436 25.6183 23.9424 26.0957 24.5936C26.3816 24.9827 26.6491 25.393 26.9874 25.7318C27.2156 25.9594 27.5566 26.24 27.832 26.2241C29.2195 26.1447 29.9014 26.9124 30.3106 28.1115C30.4522 28.5271 30.6044 28.9665 30.8693 29.2974C31.045 29.5171 31.4358 29.6706 31.7191 29.6521C31.8659 29.6441 32.1099 29.1994 32.102 28.9559C32.0705 27.8997 32.0102 26.8409 31.8528 25.798C31.8056 25.4909 31.462 25.1309 31.163 24.98C29.0359 23.9212 28.9284 23.7783 29.6444 21.4541C29.9014 20.6203 29.8332 20.1359 28.9362 19.8553C28.0654 19.5827 27.2261 19.2041 25.9908 18.7224L25.9881 18.725ZM41.5023 25.1097C41.8459 22.1847 41.0617 20.0115 39.3883 18.013C38.869 18.365 38.4572 18.688 38.006 18.9421C37.1589 19.4159 36.7444 19.9162 37.13 21.0333C37.3162 21.5759 36.8703 22.4018 36.5792 23.0397C36.3274 23.5877 35.892 24.0509 35.3334 24.8397C37.6179 24.8371 39.522 23.4156 41.5023 25.1124V25.1097Z" fill="#424242"/>
<path d="M18.5059 37.8394C22.4139 35.6873 26.1252 35.555 29.8182 38.0988C30.3874 38.4906 31.1559 38.7156 31.8509 38.7632C33.3302 38.8665 34.82 38.7923 36.3045 38.8162C37.3589 38.832 38.1589 39.3085 38.1248 40.4441C38.0907 41.5506 37.3064 42.027 36.2442 42.0297C33.7971 42.035 31.35 42.0112 28.9028 42.0641C28.5278 42.072 28.1579 42.4241 27.7855 42.6173C28.1711 42.8 28.5514 43.1309 28.9422 43.1388C31.4313 43.1918 33.923 43.1679 36.4147 43.1812C37.5582 43.1865 38.4054 42.7232 39.0401 41.7385C39.2683 41.3838 39.709 41.0503 40.1129 40.9497C41.8912 40.505 43.6852 40.1106 45.4897 39.7903C45.8674 39.7241 46.3159 40.0576 46.733 40.2059C46.5284 40.5473 46.4025 41.082 46.1087 41.2012C41.2984 43.1494 36.517 45.2009 31.6149 46.887C29.1205 47.7447 26.4216 47.4112 23.8722 46.5562C23.4867 46.4265 23.0067 46.2067 22.8283 45.8838C21.3648 43.2394 19.9615 40.5606 18.5085 37.8341L18.5059 37.8394Z" fill="white"/>
<path d="M15.2871 38.4403C15.851 38.0644 16.3074 37.76 16.8792 37.3788C18.723 40.8333 20.5092 44.1791 22.3426 47.6124C21.818 47.9856 21.3721 48.3033 20.7794 48.7241C18.946 45.2883 17.1598 41.945 15.2897 38.4403H15.2871Z" fill="white"/>
<path d="M24.9396 25.1176C25.3671 25.6735 25.6583 26.1632 26.057 26.5444C26.4189 26.8938 26.9094 27.3835 27.3159 27.357C28.6982 27.2697 29.0286 28.1935 29.4929 29.1756C29.7919 29.8056 30.2588 30.5414 30.841 30.8114C32.121 31.4097 33.2908 30.4964 33.2593 29.0406C33.2331 27.852 33.0993 26.6688 33.0311 25.4803C32.9682 24.3817 32.1787 24.027 31.321 23.7517C30.6391 23.532 30.3663 23.2012 30.5683 22.3938C31.2895 19.4767 31.2581 19.4714 28.4752 18.3967C28.0687 18.2406 27.6726 18.0659 27.2635 17.8938C29.2726 14.7067 35.035 14.2938 38.3765 17.187C37.7496 17.6264 37.0414 17.9494 36.5929 18.492C36.168 19.0056 35.6277 19.9109 35.814 20.3609C36.3149 21.5812 35.6749 22.2217 35.0769 23.0423C34.7438 23.4976 34.4842 24.1488 34.5052 24.6967C34.5524 25.8191 35.4861 26.2506 36.8919 25.9488C38.1011 25.692 39.326 24.98 40.5193 25.8932C40.7947 26.105 41.0675 26.6767 40.9783 26.9653C39.9712 30.1867 36.1339 32.6353 32.6272 32.3653C28.7978 32.0714 25.4012 29.1438 24.8373 25.6444C24.819 25.5359 24.8793 25.4141 24.9422 25.115L24.9396 25.1176Z" fill="white"/>
<path d="M25.9911 18.725C27.2291 19.2067 28.0658 19.5879 28.9366 19.8579C29.8336 20.1385 29.9018 20.6229 29.6447 21.4567C28.9287 23.7809 29.0362 23.9238 31.1634 24.9826C31.4624 25.1309 31.8086 25.4935 31.8532 25.8006C32.0106 26.8435 32.0709 27.9023 32.1024 28.9585C32.1102 29.1994 31.8663 29.6441 31.7194 29.6547C31.4362 29.6706 31.0454 29.5197 30.8696 29.3C30.6047 28.9691 30.4526 28.5297 30.311 28.1141C29.9018 26.915 29.2198 26.1473 27.8324 26.2267C27.557 26.2426 27.216 25.962 26.9878 25.7344C26.6521 25.3956 26.3819 24.9853 26.096 24.5962C25.6213 23.9476 24.7164 23.2462 24.7741 22.6453C24.9026 21.3509 25.5295 20.1067 25.9885 18.7276L25.9911 18.725Z" fill="white"/>
<path d="M41.5029 25.1097C39.5227 23.413 37.6185 24.8344 35.334 24.8371C35.8927 24.0483 36.328 23.585 36.5798 23.0371C36.871 22.3991 37.3195 21.5759 37.1306 21.0306C36.7451 19.9136 37.1569 19.4133 38.0067 18.9394C38.4578 18.688 38.8696 18.3624 39.3889 18.0103C41.0623 20.0088 41.8439 22.1847 41.5029 25.1071V25.1097Z" fill="white"/>
</g>
<defs>
<clipPath id="clip0_1916_7177">
<rect width="34" height="36" fill="white" transform="translate(14 14)"/>
</clipPath>
</defs>
</svg>
