<svg width="64" height="64" viewBox="0 0 64 64" fill="none" xmlns="http://www.w3.org/2000/svg">
<rect width="64" height="64" rx="32" fill="#E5EFF5"/>
<g clip-path="url(#clip0_1916_7134)">
<path d="M22.7175 18.7749C21.0324 18.7749 19.59 18.7193 18.1564 18.8129C17.7546 18.8392 17.0725 19.2778 17.0464 19.5789C16.7285 23.0906 18.087 27.4503 22.018 28.6637C22.4545 28.7982 22.8187 29.3246 23.1106 29.7456C24.1107 31.2017 24.8102 32.9854 26.082 34.1111C29.7529 37.3626 29.6083 41.4678 29.2702 45.8421C28.5707 45.8421 27.9868 45.7719 27.4289 45.8713C27.1312 45.924 26.8827 46.2661 26.6109 46.4766C26.8769 46.6813 27.137 47.0614 27.4058 47.0643C30.4379 47.1082 33.47 47.1111 36.4992 47.0731C36.7824 47.0702 37.0628 46.7164 37.3461 46.5263C37.0455 46.2982 36.768 45.9327 36.4356 45.8684C35.8575 45.7602 35.2418 45.8392 34.5626 45.8392C34.5626 44.4152 34.6117 43.2485 34.5539 42.0877C34.3863 38.7807 35.632 36.1696 38.0745 33.9883C39.0197 33.1433 39.855 32.0263 40.355 30.8655C40.9158 29.5643 41.5893 28.8129 42.9247 28.1696C46.1388 26.6287 46.9106 23.5643 46.9944 20.2222C47.0204 19.1433 46.6649 18.7222 45.5983 18.7602C44.1791 18.8129 42.757 18.7719 41.2193 18.7719C41.2193 17.1316 41.1846 15.7251 41.2309 14.3246C41.2684 13.4269 41.0256 12.9941 40.0342 13C34.6464 13.0351 29.2557 13.0322 23.865 13.0088C22.9776 13.0058 22.677 13.3596 22.7031 14.2281C22.7464 15.6754 22.7146 17.1257 22.7146 18.7749H22.7175Z" fill="white"/>
<path d="M31.888 50.9825V50.9912C33.9518 50.9912 36.0185 51.0263 38.0794 50.9591C38.4725 50.9474 38.8511 50.5234 39.2384 50.2865C38.8656 50.0819 38.4956 49.7047 38.1227 49.7017C34.0443 49.6667 29.963 49.6696 25.8845 49.7281C25.4914 49.7339 25.1041 50.1637 24.7168 50.3977C25.1417 50.5936 25.5579 50.9444 25.9886 50.9591C27.9541 51.0205 29.9225 50.9854 31.8909 50.9854L31.888 50.9825Z" fill="white"/>
<path d="M22.7165 18.7749C22.7165 17.1257 22.7483 15.6754 22.7049 14.2281C22.676 13.3596 22.9766 13.0058 23.864 13.0088C29.2547 13.0322 34.6454 13.0351 40.0332 13C41.0217 12.9941 41.2645 13.4269 41.2356 14.3246C41.1894 15.7251 41.224 17.1316 41.224 18.7719C42.7618 18.7719 44.1839 18.8129 45.6031 18.7602C46.6697 18.7193 47.0252 19.1403 46.9992 20.2222C46.9153 23.5643 46.1407 26.6287 42.9294 28.1696C41.5911 28.8099 40.9177 29.5614 40.3598 30.8655C39.8598 32.0292 39.0215 33.1462 38.0792 33.9883C35.6368 36.1696 34.391 38.7807 34.5587 42.0877C34.6165 43.2485 34.5673 44.4152 34.5673 45.8392C35.2466 45.8392 35.8594 45.7602 36.4404 45.8684C36.7728 45.9298 37.0473 46.2953 37.3508 46.5263C37.0705 46.7164 36.7901 47.0702 36.5039 47.0731C33.4719 47.1111 30.4398 47.1082 27.4106 47.0643C27.1418 47.0614 26.8816 46.6813 26.6157 46.4766C26.8874 46.2661 27.136 45.924 27.4337 45.8713C27.9916 45.7719 28.5754 45.8421 29.2749 45.8421C29.6131 41.4678 29.7576 37.3626 26.0868 34.1111C24.815 32.9825 24.1155 31.2017 23.1154 29.7456C22.8263 29.3246 22.4592 28.7982 22.0228 28.6637C18.0831 27.4474 16.7246 23.0877 17.0425 19.576C17.0685 19.2778 17.7536 18.8363 18.1525 18.8099C19.5861 18.7164 21.0285 18.7719 22.7136 18.7719L22.7165 18.7749ZM39.8193 19.2339H24.208C24.208 22.4678 23.9681 25.6403 24.3149 28.7456C24.4768 30.1813 25.5202 31.7865 26.6273 32.7953C29.5322 35.4357 30.9312 38.5585 30.723 42.4766C30.6652 43.5643 30.7144 44.655 30.7144 45.7281H33.2233C33.2233 44.7076 33.2695 43.7895 33.2146 42.8743C32.9718 38.7602 34.3679 35.4503 37.452 32.6579C38.6053 31.614 39.5245 29.8275 39.7152 28.2778C40.0708 25.3626 39.8164 22.3713 39.8164 19.2368L39.8193 19.2339ZM39.7962 14.3772H24.1762V17.6842H39.9349C39.9349 16.8596 39.9494 16.1403 39.9291 15.4181C39.9205 15.0877 39.8482 14.7602 39.7962 14.3772ZM41.224 27.2398C44.0567 26.8801 46.1234 23.3304 45.4152 20.2018H41.224C41.224 20.8801 41.224 21.4503 41.224 22.0234C41.224 23.7573 41.224 25.4912 41.224 27.2368V27.2398ZM22.65 20.2134H18.4184C18.1062 23.7982 20.0197 26.9269 22.65 27.2251V20.2134Z" fill="#424242"/>
<path d="M31.8889 50.9825C29.9205 50.9825 27.9521 51.0176 25.9866 50.9562C25.5589 50.9415 25.1397 50.5907 24.7148 50.3948C25.1051 50.1608 25.4895 49.731 25.8826 49.7252C29.961 49.6696 34.0423 49.6638 38.1208 49.6989C38.4936 49.7018 38.8636 50.0819 39.2365 50.2836C38.852 50.5176 38.4705 50.9415 38.0774 50.9562C36.0165 51.0234 33.9498 50.9883 31.8861 50.9883V50.9796L31.8889 50.9825Z" fill="#424242"/>
<path d="M39.8194 19.2339C39.8194 22.3684 40.0738 25.3597 39.7182 28.2749C39.5275 29.8275 38.6083 31.6111 37.455 32.655C34.3709 35.4474 32.9748 38.7573 33.2176 42.8714C33.2725 43.7866 33.2263 44.7047 33.2263 45.7252H30.7174C30.7174 44.6521 30.6682 43.5585 30.726 42.4737C30.9341 38.5556 29.5352 35.4328 26.6303 32.7924C25.5232 31.7866 24.4769 30.1813 24.3179 28.7427C23.9682 25.6375 24.211 22.4679 24.211 19.231H39.8223L39.8194 19.2339ZM31.9631 30.0877C32.4459 30.4357 32.7985 30.8275 33.2321 30.9708C33.8564 31.1813 34.7293 31.5088 35.1484 31.2369C35.5733 30.962 35.8884 29.8948 35.6947 29.3918C35.16 27.9971 35.4866 27.1725 36.6861 26.3714C37.0908 26.0994 37.3741 25.1199 37.2093 24.6404C37.0503 24.1784 36.2063 23.617 35.7265 23.6725C34.2206 23.8451 33.7494 23.0994 33.3795 21.8217C33.2378 21.3334 32.469 20.731 31.9834 20.731C31.4978 20.731 30.6885 21.3451 30.5873 21.8129C30.2751 23.2807 29.5814 23.8158 28.1015 23.6725C27.6564 23.6287 26.8991 24.1784 26.7401 24.6228C26.5753 25.0819 26.7835 26.0644 27.1361 26.2661C28.59 27.1024 28.7663 28.1287 28.2171 29.617C28.0581 30.0497 28.3819 31.0088 28.7605 31.2164C29.223 31.4708 30.0063 31.2924 30.5873 31.0994C31.0613 30.9415 31.44 30.4883 31.9631 30.0877Z" fill="white"/>
<path d="M39.7977 14.3772C39.8498 14.7632 39.922 15.0906 39.9307 15.4181C39.9509 16.1374 39.9365 16.8597 39.9365 17.6842H24.1777V14.3772H39.7948H39.7977Z" fill="white"/>
<path d="M41.2246 27.2397C41.2246 25.4912 41.2246 23.7573 41.2246 22.0263C41.2246 21.4532 41.2246 20.883 41.2246 20.2047H45.4158C46.1268 23.3333 44.0573 26.883 41.2246 27.2427V27.2397Z" fill="white"/>
<path d="M22.6518 20.2134V27.2251C20.0186 26.9269 18.108 23.7953 18.4201 20.2134H22.6518Z" fill="white"/>
<path d="M31.9632 30.0848C31.4401 30.4854 31.0614 30.9386 30.5874 31.0965C30.0093 31.2895 29.2231 31.4649 28.7606 31.2135C28.3849 31.0059 28.0582 30.0468 28.2172 29.6141C28.7693 28.1257 28.593 27.0965 27.1362 26.2632C26.7835 26.0614 26.5725 25.079 26.7402 24.6199C26.8992 24.1755 27.6594 23.6287 28.1016 23.6696C29.5815 23.8129 30.2752 23.2778 30.5874 21.81C30.6885 21.3421 31.4979 20.7281 31.9835 20.7281C32.4691 20.7281 33.2379 21.3334 33.3796 21.8187C33.7466 23.0965 34.2207 23.8421 35.7266 23.6696C36.2064 23.6141 37.0504 24.1755 37.2094 24.6374C37.3742 25.117 37.0938 26.0965 36.6862 26.3684C35.4867 27.1696 35.1601 27.9912 35.6948 29.3889C35.8885 29.8918 35.5705 30.9591 35.1485 31.2339C34.7323 31.5059 33.8594 31.1784 33.2321 30.9679C32.7986 30.8217 32.4459 30.4328 31.9632 30.0848ZM29.3011 30.0702C30.4486 29.5497 31.258 28.8918 32.0644 28.9006C32.8419 28.9065 33.6166 29.5965 34.7785 30.1784C33.4403 27.8597 33.9432 26.2749 36.1168 25.0643C33.764 25.307 32.3592 24.4562 31.9286 21.9006C31.7609 24.6667 30.122 25.2047 27.801 25.1082C30.2232 26.2339 30.3966 27.9298 29.304 30.0673L29.3011 30.0702Z" fill="#424242"/>
<path d="M29.3019 30.0731C30.3945 27.9327 30.221 26.2398 27.7988 25.114C30.1228 25.2105 31.7587 24.6725 31.9264 21.9064C32.3571 24.462 33.7647 25.3099 36.1147 25.0702C33.941 26.2807 33.4352 27.8655 34.7764 30.1842C33.6144 29.6023 32.8427 28.9123 32.0622 28.9064C31.2587 28.9006 30.4494 29.5556 29.299 30.076L29.3019 30.0731Z" fill="white"/>
</g>
<defs>
<clipPath id="clip0_1916_7134">
<rect width="30" height="38" fill="white" transform="translate(17 13)"/>
</clipPath>
</defs>
</svg>
