<svg width="64" height="64" viewBox="0 0 64 64" fill="none" xmlns="http://www.w3.org/2000/svg">
<rect width="64" height="64" rx="32" fill="#F9E8F4"/>
<g clip-path="url(#clip0_1916_7124)">
<path d="M17 47.5V28H24V47L17 47.5Z" fill="white"/>
<path d="M23.5451 28.8414V46.7117C21.6928 46.7117 19.9566 46.6711 18.2262 46.7407C17.811 46.7582 17.4104 47.1354 17.0039 47.3473C17.4104 47.5649 17.8139 47.9625 18.2233 47.9683C21.8379 48.0176 25.4497 47.9973 29.0643 47.9973C33.1754 47.9973 37.2865 47.9973 41.3976 47.9973C44.4867 47.9973 45.4593 46.8278 44.9687 43.772C44.9106 43.4093 44.9426 42.8724 45.1661 42.649C46.2345 41.5723 46.1126 40.31 45.9674 38.9867C45.9239 38.5775 45.9848 38.029 46.2287 37.7417C47.2739 36.5026 47.0358 35.1619 46.7716 33.7631C46.67 33.2205 46.6642 32.614 46.792 32.08C47.3523 29.7381 46.9371 27.3208 43.6622 27.5152C41.6966 27.6313 39.7195 27.5355 37.6001 27.5355C37.6755 26.8449 37.7307 26.3283 37.7859 25.8089C37.9601 24.1286 38.2678 22.4513 38.2765 20.771C38.2881 18.6439 36.8858 16.865 35.0161 16.2556C32.6412 15.4836 31.0618 16.5022 31.2592 18.9863C31.6483 23.8094 28.7101 26.3776 25.1129 28.7543C24.9677 28.2784 24.8545 27.907 24.7383 27.5326C22.5086 27.5326 20.3805 27.5007 18.2552 27.5587C17.8343 27.5703 17.4191 27.9331 17.0039 28.1362C17.4452 28.3713 17.8749 28.7921 18.3249 28.8124C20.0466 28.8936 21.7741 28.8443 23.548 28.8443L23.5451 28.8414Z" fill="white"/>
<path d="M23.5441 28.841C21.7731 28.841 20.0427 28.8874 18.321 28.809C17.871 28.7887 17.4384 28.3708 17 28.1329C17.4181 27.9326 17.8303 27.567 18.2513 27.5554C20.3766 27.4944 22.5047 27.5293 24.7344 27.5293C24.8506 27.9036 24.9638 28.2751 25.109 28.751C28.7091 26.3743 31.6443 23.806 31.2553 18.983C31.055 16.4989 32.6344 15.4803 35.0122 16.2522C36.8819 16.8616 38.2842 18.6405 38.2726 20.7677C38.2639 22.4479 37.9562 24.1253 37.782 25.8055C37.7268 26.322 37.6716 26.8415 37.5961 27.5322C39.7156 27.5322 41.6927 27.625 43.6583 27.5119C46.9303 27.3203 47.3484 29.7348 46.7881 32.0766C46.6603 32.6106 46.6632 33.2171 46.7677 33.7598C47.0319 35.1585 47.2729 36.4992 46.2248 37.7384C45.9809 38.0286 45.92 38.5771 45.9635 38.9833C46.1087 40.3037 46.2306 41.569 45.1622 42.6456C44.9386 42.8691 44.9067 43.4059 44.9648 43.7687C45.4525 46.8274 44.4799 47.9939 41.3937 47.9939C37.2826 47.9939 33.1715 47.9939 29.0604 47.9939C25.4458 47.9939 21.8311 48.0143 18.2194 47.9649C17.81 47.9591 17.4065 47.5586 17 47.3439C17.4065 47.1321 17.8071 46.7548 18.2223 46.7374C19.9527 46.6677 21.6889 46.7084 23.5412 46.7084V28.841H23.5441ZM35.0848 46.5604C35.0848 46.6068 35.0848 46.6532 35.0848 46.6968C37.4539 46.6968 39.8259 46.7693 42.1892 46.6416C42.7263 46.6126 43.5015 45.9974 43.6786 45.4837C43.9457 44.706 43.9341 43.7513 42.8802 43.2666C42.5173 43.0983 42.2502 42.7182 41.9395 42.4338C42.3286 42.248 42.7379 42.0942 43.0979 41.8679C43.6409 41.5255 44.4538 41.2266 44.6106 40.7361C44.8748 39.912 44.927 38.8905 43.7425 38.4378C43.4028 38.3101 43.1531 37.9502 42.8599 37.6978C43.246 37.512 43.6583 37.3669 44.0096 37.1319C44.5902 36.7459 45.4206 36.4035 45.6209 35.855C45.9287 35.0047 45.7806 34.021 44.6222 33.6205C44.3115 33.5131 44.0735 33.1939 43.8034 32.9734C44.0647 32.7412 44.2912 32.393 44.5961 32.2972C45.7835 31.9286 45.7835 31.0058 45.6761 30.0714C45.56 29.0296 44.8167 28.8148 43.8876 28.8293C41.7595 28.8584 39.6314 28.78 37.5061 28.8584C36.2606 28.9048 36.0109 28.3999 36.2026 27.2942C36.519 25.4863 36.7803 23.6696 37.0097 21.8472C37.2042 20.3034 36.7774 18.9017 35.4622 18.0282C34.8438 17.6161 33.8654 17.3259 33.2179 17.5262C32.8086 17.651 32.4747 18.7972 32.5124 19.4618C32.7302 23.0805 31.2437 25.8229 28.4391 27.9588C27.5942 28.603 26.7813 29.3053 25.8754 29.8508C25.109 30.3123 24.8854 30.8723 24.8941 31.7371C24.9377 35.8927 24.9144 40.0513 24.9174 44.2069C24.9174 46.2034 24.9638 46.4153 26.9642 46.5226C29.6614 46.6677 32.3731 46.5604 35.079 46.5604H35.0848Z" fill="#C41A90"/>
<path d="M35.0855 46.5606C32.3796 46.5606 29.6679 46.6709 26.9707 46.5229C24.9703 46.4156 24.9239 46.2037 24.9239 44.2072C24.9239 40.0515 24.9442 35.893 24.9006 31.7374C24.8919 30.8726 25.1155 30.3125 25.882 29.8511C26.7878 29.3055 27.6007 28.6033 28.4456 27.959C31.2502 25.8232 32.7367 23.0808 32.5189 19.4621C32.4783 18.7975 32.8151 17.6512 33.2245 17.5265C33.8719 17.3262 34.8474 17.6193 35.4687 18.0285C36.7839 18.9049 37.2136 20.3036 37.0162 21.8475C36.7868 23.667 36.5255 25.4866 36.2091 27.2945C36.0145 28.4001 36.2642 28.9051 37.5127 28.8586C39.6379 28.7803 41.766 28.8586 43.8941 28.8296C44.8232 28.818 45.5665 29.0299 45.6826 30.0717C45.7871 31.0061 45.79 31.9289 44.6026 32.2975C44.2977 32.3932 44.0713 32.7415 43.81 32.9736C44.08 33.1942 44.318 33.5134 44.6287 33.6208C45.7871 34.0212 45.9352 35.0021 45.6274 35.8553C45.4271 36.4067 44.5968 36.7462 44.0161 37.1322C43.6648 37.3672 43.2525 37.5123 42.8664 37.698C43.1567 37.9505 43.4093 38.3075 43.749 38.438C44.9335 38.8907 44.8813 39.9122 44.6171 40.7364C44.4603 41.2268 43.6474 41.5257 43.1044 41.8682C42.7415 42.0974 42.3322 42.2483 41.946 42.434C42.2567 42.7184 42.5209 43.1015 42.8867 43.2669C43.9406 43.7515 43.9522 44.7063 43.6851 45.484C43.508 45.9977 42.7328 46.6129 42.1957 46.6419C39.8324 46.7667 37.4604 46.697 35.0913 46.697C35.0913 46.6506 35.0913 46.6042 35.0913 46.5606H35.0855Z" fill="white"/>
</g>
<defs>
<clipPath id="clip0_1916_7124">
<rect width="30" height="32" fill="white" transform="translate(17 16)"/>
</clipPath>
</defs>
</svg>
