<svg width="64" height="64" viewBox="0 0 64 64" fill="none" xmlns="http://www.w3.org/2000/svg">
<rect width="64" height="64" rx="32" fill="#E5EFF5"/>
<mask id="path-2-outside-1_1916_7109" maskUnits="userSpaceOnUse" x="8.33203" y="17.8802" width="47" height="32" fill="black">
<rect fill="white" x="8.33203" y="17.8802" width="47" height="32"/>
<path d="M47.5857 35.6396C47.3676 35.809 47.1172 35.9295 46.9746 36.1274C46.3239 37.0293 45.456 37.68 44.5614 38.304C44.4179 38.4043 44.2697 38.4982 44.1123 38.6031C45.1274 39.5649 45.4072 40.6592 44.694 41.8823C44.1049 42.8928 43.1386 43.1984 41.7047 42.9076C41.6679 43.7727 41.3117 44.4731 40.5846 44.9544C39.8585 45.4357 39.079 45.4597 38.2553 45.1467C38.1531 46.0763 37.7288 46.7794 36.8876 47.1733C36.0492 47.5654 35.2467 47.4393 34.4809 46.9129C34.4607 46.969 34.4395 47.0077 34.4322 47.0482C34.2812 47.9308 33.7879 48.5557 32.9605 48.8732C32.1129 49.1981 31.315 49.049 30.6146 48.4627C30.1967 48.1139 29.7909 47.7504 29.3795 47.3942C29.3224 47.3445 29.2626 47.2985 29.2064 47.2525C27.8793 48.3311 25.8987 47.397 25.6594 45.6861C24.9858 45.8085 24.3664 45.6732 23.8298 45.2369C23.2978 44.8053 23.0383 44.2347 23.0217 43.5288C22.2615 43.6282 21.6063 43.4395 21.0734 42.902C20.5433 42.3673 20.3785 41.7111 20.4807 40.9822C20.2368 40.9435 20.0049 40.9316 19.7877 40.8681C18.3897 40.4576 17.7583 38.9639 18.3593 37.8494C18.3878 37.7969 18.3685 37.6819 18.3271 37.634C17.8697 37.1039 17.4463 36.5535 17.1435 35.9157C17.0975 35.8191 16.9981 35.7353 16.9042 35.6773C16.7229 35.566 16.5278 35.4767 16.3309 35.3736C16.2766 35.4316 16.2296 35.4795 16.1836 35.5301C15.6553 36.1164 14.8289 36.2866 14.1266 35.9295C12.829 35.2687 11.534 34.6024 10.2465 33.9232C9.3924 33.4731 9.08868 32.4506 9.54057 31.5653C10.3008 30.0771 11.0729 28.5953 11.8405 27.1117C13.0839 24.7087 14.3254 22.3048 15.5725 19.9036C16.0833 18.9198 17.0809 18.6133 18.0629 19.1241C19.2861 19.7609 20.5138 20.3914 21.7369 21.0301C22.5156 21.436 22.8607 22.1824 22.661 23.03C22.6288 23.1653 22.6637 23.2205 22.7769 23.2794C23.3475 23.5767 23.9044 23.9052 24.4879 24.174C24.7501 24.2946 25.064 24.3516 25.3557 24.3535C26.4362 24.3617 27.5176 24.3378 28.5981 24.3176C28.6791 24.3157 28.7693 24.2587 28.8365 24.2044C29.2847 23.8436 29.7246 23.4736 30.1728 23.1128C31.0425 22.4134 32.0337 22.1262 33.1501 22.1888C35.2255 22.3039 37.2475 22.7447 39.2824 23.1202C39.8769 23.2297 40.477 23.3254 41.0798 23.3678C41.4212 23.3917 41.7774 23.3218 42.1152 23.2426C42.4713 23.1589 42.8119 23.0107 43.1625 22.8984C43.2932 22.857 43.3411 22.8073 43.3116 22.6536C43.1358 21.7461 43.6006 20.9371 44.4758 20.6408C45.826 20.1843 47.1789 19.737 48.5346 19.298C49.4963 18.9869 50.4397 19.4747 50.7563 20.43C52.1377 24.5973 53.5191 28.7647 54.8996 32.932C55.2181 33.8928 54.7634 34.8481 53.8081 35.1739C52.4525 35.6369 51.0913 36.0841 49.7292 36.5268C48.9487 36.7799 48.1996 36.5112 47.7293 35.8375C47.6989 35.7942 47.6667 35.751 47.5866 35.6396H47.5857ZM29.8967 46.4463C30.402 46.8834 30.8879 47.3169 31.3904 47.732C31.6352 47.9345 31.9389 48.0081 32.2565 47.9694C32.7949 47.9041 33.1685 47.6114 33.336 47.0979C33.5035 46.5843 33.3848 46.1205 32.9752 45.7615C32.1055 44.9967 31.2238 44.2457 30.3532 43.4828C30.2345 43.3788 30.1268 43.2499 30.0532 43.1119C29.9418 42.902 29.9887 42.695 30.1516 42.5192C30.3118 42.3461 30.506 42.267 30.7305 42.3664C30.8677 42.4271 31.003 42.5081 31.1171 42.6066C32.4378 43.7414 33.7511 44.8845 35.0718 46.0183C35.6258 46.4932 36.4035 46.4371 36.8655 45.9079C37.3414 45.3621 37.2843 44.5899 36.7293 44.0994C36.4937 43.8914 36.2544 43.6871 36.017 43.4809C34.8454 42.4676 33.6719 41.4562 32.5022 40.4401C32.204 40.1815 32.1727 39.8355 32.4102 39.5704C32.6375 39.3164 32.9789 39.3099 33.2707 39.5557C33.4465 39.7038 33.6195 39.8557 33.7934 40.0066C35.3138 41.3209 36.8324 42.6361 38.3546 43.9485C38.8958 44.4151 39.6487 44.416 40.1613 43.9604C40.8055 43.3871 40.8046 42.4538 40.1466 41.8814C38.9087 40.8037 37.6653 39.7333 36.4238 38.6593C36.0059 38.2985 35.5853 37.9405 35.1712 37.5751C34.8518 37.2935 34.7929 36.9594 35.0028 36.6824C35.2273 36.3869 35.5964 36.3851 35.9507 36.6906C36.8747 37.4858 37.7951 38.2856 38.7182 39.0835C39.7103 39.9413 40.6969 40.8046 41.6973 41.6531C42.5128 42.3443 43.7267 41.9568 43.977 40.9279C44.1188 40.3435 43.9264 39.8621 43.4718 39.4701C42.2339 38.4043 41.0034 37.3294 39.7674 36.2618C37.0919 33.9499 34.4156 31.6398 31.7401 29.3297C31.5147 29.1346 31.372 29.1236 31.1189 29.2846C30.6744 29.5663 30.4167 29.9712 30.3863 30.4958C30.3449 31.2091 30.1774 31.8892 29.9096 32.5463C29.5258 33.4869 29.0058 34.3254 28.114 34.872C27.4293 35.2917 26.7077 35.427 25.9383 35.1233C25.3336 34.884 25.0115 34.3208 25.0842 33.6747C25.1284 33.2789 25.1726 32.8795 25.1671 32.4828C25.1505 31.3407 25.1256 30.1986 25.0723 29.0573C25.0272 28.0965 25.329 27.2976 26.0488 26.6571C26.45 26.3 26.8476 25.9392 27.2461 25.5794C27.2875 25.5416 27.3234 25.4984 27.3814 25.4349C26.9258 25.4349 26.5062 25.4284 26.0865 25.4358C25.1293 25.4533 24.209 25.3511 23.3788 24.7998C22.9987 24.5476 22.5735 24.3636 22.1447 24.1363C20.3675 27.5728 18.5977 30.9946 16.8196 34.4321C16.9254 34.4901 17.0073 34.5462 17.0975 34.5831C17.6276 34.8021 17.9718 35.185 18.2341 35.6958C18.4578 36.1311 18.7836 36.5139 19.0818 36.9465C19.2861 36.7054 19.4241 36.4955 19.6064 36.3372C19.8401 36.1338 20.0859 35.9148 20.3666 35.8025C21.3845 35.3939 22.6186 35.9176 23.1037 36.9244C23.1414 37.0026 23.18 37.0809 23.2215 37.1646C24.14 36.4688 24.9397 36.329 25.7377 36.7597C26.751 37.3054 27.0998 38.1779 26.8844 39.3026C27.7956 39.3596 28.484 39.7572 28.8668 40.5865C29.2515 41.4184 29.0877 42.1952 28.5401 42.9112C30.275 43.3005 31.003 45.2443 29.8967 46.4454V46.4463ZM47.2866 34.6981C46.0818 31.0628 44.8836 27.4476 43.6825 23.8243C43.2794 23.9595 42.9085 24.0599 42.556 24.2071C41.9302 24.4685 41.2804 24.4915 40.6334 24.3884C39.3477 24.1832 38.0721 23.9135 36.7855 23.7157C35.5366 23.5233 34.2812 23.3678 33.0249 23.2352C32.2233 23.1506 31.4815 23.3816 30.8631 23.9052C29.4761 25.0787 28.102 26.2678 26.727 27.4541C26.2586 27.8581 26.0773 28.3772 26.1159 28.9938C26.2153 30.5934 26.312 32.1939 26.1233 33.7943C26.1012 33.9821 26.1804 34.1045 26.3571 34.1661C26.6681 34.2738 26.9755 34.2573 27.2765 34.1275C27.6732 33.9572 28.0045 33.6959 28.2603 33.3535C28.8558 32.5574 29.2193 31.6628 29.3141 30.6716C29.3574 30.217 29.4209 29.7734 29.6427 29.3675C29.9206 28.8595 30.3182 28.4711 30.852 28.2474C31.5064 27.9732 32.0457 28.2032 32.5556 28.645C35.9912 31.6223 39.4361 34.5904 42.8781 37.5604C43.2693 37.8972 43.2748 37.9018 43.7074 37.6156C44.5007 37.0892 45.2995 36.56 45.8913 35.8007C46.2677 35.3184 46.6635 34.8923 47.2866 34.6981ZM49.0444 20.2487C49.0159 20.2543 48.9533 20.2579 48.8963 20.2773C47.5213 20.731 46.1444 21.1801 44.7722 21.644C44.4004 21.7701 44.2375 22.1419 44.3507 22.5229C44.3949 22.6702 44.4473 22.8137 44.4961 22.9591C45.8269 26.9746 47.1577 30.99 48.4904 35.0046C48.656 35.5043 48.991 35.6718 49.4936 35.5062C50.7811 35.0819 52.0687 34.6558 53.3553 34.2278C53.8974 34.0474 54.0557 33.7207 53.8753 33.1786C53.1206 30.9017 52.3669 28.6248 51.6122 26.3478C50.9974 24.4924 50.3826 22.6379 49.766 20.7834C49.65 20.4346 49.3988 20.2432 49.0435 20.2478L49.0444 20.2487ZM14.8786 35.0837C15.2338 35.0626 15.4243 34.8546 15.5716 34.5702C17.5614 30.7158 19.5548 26.8632 21.5464 23.0098C21.7959 22.5266 21.6817 22.175 21.2004 21.9247C20.0095 21.308 18.8185 20.6914 17.6267 20.0766C17.0763 19.7932 16.7469 19.9018 16.4643 20.4503C15.775 21.7848 15.0847 23.1184 14.3945 24.4529C13.0922 26.9718 11.788 29.4899 10.4885 32.0098C10.2594 32.4552 10.3753 32.8142 10.8198 33.0452C12.0494 33.6857 13.2827 34.3226 14.5159 34.9558C14.6291 35.0138 14.7571 35.0414 14.8786 35.0828V35.0837ZM25.9622 38.7255C25.9429 38.7163 25.9236 38.7071 25.9043 38.6988C25.9052 38.2423 25.6097 37.8135 25.179 37.6469C24.7281 37.472 24.2412 37.5926 23.9163 37.992C23.181 38.8949 22.4511 39.8023 21.7296 40.7171C21.3412 41.2095 21.4388 41.8869 21.9302 42.2716C22.4106 42.648 23.0825 42.5827 23.4736 42.1023C24.2044 41.2049 24.9315 40.3057 25.642 39.3928C25.7901 39.2032 25.8573 38.9501 25.9613 38.7264L25.9622 38.7255ZM28.0799 41.5178C28.0606 41.5086 28.0404 41.4994 28.021 41.4902C28.0238 41.0126 27.7321 40.5947 27.2811 40.43C26.831 40.2662 26.3543 40.3932 26.0377 40.7751C25.4708 41.4599 24.9066 42.1483 24.3461 42.8385C23.931 43.3493 23.9899 44.0074 24.4786 44.4169C24.9692 44.8283 25.6429 44.762 26.0718 44.2476C26.6415 43.5647 27.213 42.8827 27.7606 42.1823C27.9088 41.9927 27.9759 41.7406 28.0809 41.516L28.0799 41.5178ZM22.3278 37.8724C22.2744 37.3671 21.9081 36.8996 21.4075 36.7578C20.9887 36.6391 20.6252 36.7201 20.338 37.0753C20.0398 37.4444 19.7269 37.8006 19.4223 38.165C19.0413 38.6215 19.1195 39.2087 19.6146 39.6192C20.107 40.0278 20.7356 40.002 21.1084 39.5575C21.4286 39.1765 21.759 38.8047 22.0627 38.4117C22.1824 38.2561 22.2404 38.0537 22.3269 37.8733L22.3278 37.8724ZM26.6819 45.4956C26.7243 46.011 27.1366 46.5125 27.6529 46.6386C28.0376 46.7325 28.3625 46.6432 28.6165 46.3257C28.7886 46.1103 28.9699 45.9033 29.1466 45.6916C29.4669 45.3078 29.4549 44.8163 29.1163 44.416C28.7408 43.9724 28.1508 43.8215 27.7422 44.0709C27.6649 44.1178 27.594 44.1804 27.5351 44.2494C27.3207 44.4988 27.0989 44.7446 26.9065 45.0105C26.8044 45.1523 26.7556 45.3327 26.6829 45.4965L26.6819 45.4956Z"/>
</mask>
<path d="M47.5857 35.6396C47.3676 35.809 47.1172 35.9295 46.9746 36.1274C46.3239 37.0293 45.456 37.68 44.5614 38.304C44.4179 38.4043 44.2697 38.4982 44.1123 38.6031C45.1274 39.5649 45.4072 40.6592 44.694 41.8823C44.1049 42.8928 43.1386 43.1984 41.7047 42.9076C41.6679 43.7727 41.3117 44.4731 40.5846 44.9544C39.8585 45.4357 39.079 45.4597 38.2553 45.1467C38.1531 46.0763 37.7288 46.7794 36.8876 47.1733C36.0492 47.5654 35.2467 47.4393 34.4809 46.9129C34.4607 46.969 34.4395 47.0077 34.4322 47.0482C34.2812 47.9308 33.7879 48.5557 32.9605 48.8732C32.1129 49.1981 31.315 49.049 30.6146 48.4627C30.1967 48.1139 29.7909 47.7504 29.3795 47.3942C29.3224 47.3445 29.2626 47.2985 29.2064 47.2525C27.8793 48.3311 25.8987 47.397 25.6594 45.6861C24.9858 45.8085 24.3664 45.6732 23.8298 45.2369C23.2978 44.8053 23.0383 44.2347 23.0217 43.5288C22.2615 43.6282 21.6063 43.4395 21.0734 42.902C20.5433 42.3673 20.3785 41.7111 20.4807 40.9822C20.2368 40.9435 20.0049 40.9316 19.7877 40.8681C18.3897 40.4576 17.7583 38.9639 18.3593 37.8494C18.3878 37.7969 18.3685 37.6819 18.3271 37.634C17.8697 37.1039 17.4463 36.5535 17.1435 35.9157C17.0975 35.8191 16.9981 35.7353 16.9042 35.6773C16.7229 35.566 16.5278 35.4767 16.3309 35.3736C16.2766 35.4316 16.2296 35.4795 16.1836 35.5301C15.6553 36.1164 14.8289 36.2866 14.1266 35.9295C12.829 35.2687 11.534 34.6024 10.2465 33.9232C9.3924 33.4731 9.08868 32.4506 9.54057 31.5653C10.3008 30.0771 11.0729 28.5953 11.8405 27.1117C13.0839 24.7087 14.3254 22.3048 15.5725 19.9036C16.0833 18.9198 17.0809 18.6133 18.0629 19.1241C19.2861 19.7609 20.5138 20.3914 21.7369 21.0301C22.5156 21.436 22.8607 22.1824 22.661 23.03C22.6288 23.1653 22.6637 23.2205 22.7769 23.2794C23.3475 23.5767 23.9044 23.9052 24.4879 24.174C24.7501 24.2946 25.064 24.3516 25.3557 24.3535C26.4362 24.3617 27.5176 24.3378 28.5981 24.3176C28.6791 24.3157 28.7693 24.2587 28.8365 24.2044C29.2847 23.8436 29.7246 23.4736 30.1728 23.1128C31.0425 22.4134 32.0337 22.1262 33.1501 22.1888C35.2255 22.3039 37.2475 22.7447 39.2824 23.1202C39.8769 23.2297 40.477 23.3254 41.0798 23.3678C41.4212 23.3917 41.7774 23.3218 42.1152 23.2426C42.4713 23.1589 42.8119 23.0107 43.1625 22.8984C43.2932 22.857 43.3411 22.8073 43.3116 22.6536C43.1358 21.7461 43.6006 20.9371 44.4758 20.6408C45.826 20.1843 47.1789 19.737 48.5346 19.298C49.4963 18.9869 50.4397 19.4747 50.7563 20.43C52.1377 24.5973 53.5191 28.7647 54.8996 32.932C55.2181 33.8928 54.7634 34.8481 53.8081 35.1739C52.4525 35.6369 51.0913 36.0841 49.7292 36.5268C48.9487 36.7799 48.1996 36.5112 47.7293 35.8375C47.6989 35.7942 47.6667 35.751 47.5866 35.6396H47.5857ZM29.8967 46.4463C30.402 46.8834 30.8879 47.3169 31.3904 47.732C31.6352 47.9345 31.9389 48.0081 32.2565 47.9694C32.7949 47.9041 33.1685 47.6114 33.336 47.0979C33.5035 46.5843 33.3848 46.1205 32.9752 45.7615C32.1055 44.9967 31.2238 44.2457 30.3532 43.4828C30.2345 43.3788 30.1268 43.2499 30.0532 43.1119C29.9418 42.902 29.9887 42.695 30.1516 42.5192C30.3118 42.3461 30.506 42.267 30.7305 42.3664C30.8677 42.4271 31.003 42.5081 31.1171 42.6066C32.4378 43.7414 33.7511 44.8845 35.0718 46.0183C35.6258 46.4932 36.4035 46.4371 36.8655 45.9079C37.3414 45.3621 37.2843 44.5899 36.7293 44.0994C36.4937 43.8914 36.2544 43.6871 36.017 43.4809C34.8454 42.4676 33.6719 41.4562 32.5022 40.4401C32.204 40.1815 32.1727 39.8355 32.4102 39.5704C32.6375 39.3164 32.9789 39.3099 33.2707 39.5557C33.4465 39.7038 33.6195 39.8557 33.7934 40.0066C35.3138 41.3209 36.8324 42.6361 38.3546 43.9485C38.8958 44.4151 39.6487 44.416 40.1613 43.9604C40.8055 43.3871 40.8046 42.4538 40.1466 41.8814C38.9087 40.8037 37.6653 39.7333 36.4238 38.6593C36.0059 38.2985 35.5853 37.9405 35.1712 37.5751C34.8518 37.2935 34.7929 36.9594 35.0028 36.6824C35.2273 36.3869 35.5964 36.3851 35.9507 36.6906C36.8747 37.4858 37.7951 38.2856 38.7182 39.0835C39.7103 39.9413 40.6969 40.8046 41.6973 41.6531C42.5128 42.3443 43.7267 41.9568 43.977 40.9279C44.1188 40.3435 43.9264 39.8621 43.4718 39.4701C42.2339 38.4043 41.0034 37.3294 39.7674 36.2618C37.0919 33.9499 34.4156 31.6398 31.7401 29.3297C31.5147 29.1346 31.372 29.1236 31.1189 29.2846C30.6744 29.5663 30.4167 29.9712 30.3863 30.4958C30.3449 31.2091 30.1774 31.8892 29.9096 32.5463C29.5258 33.4869 29.0058 34.3254 28.114 34.872C27.4293 35.2917 26.7077 35.427 25.9383 35.1233C25.3336 34.884 25.0115 34.3208 25.0842 33.6747C25.1284 33.2789 25.1726 32.8795 25.1671 32.4828C25.1505 31.3407 25.1256 30.1986 25.0723 29.0573C25.0272 28.0965 25.329 27.2976 26.0488 26.6571C26.45 26.3 26.8476 25.9392 27.2461 25.5794C27.2875 25.5416 27.3234 25.4984 27.3814 25.4349C26.9258 25.4349 26.5062 25.4284 26.0865 25.4358C25.1293 25.4533 24.209 25.3511 23.3788 24.7998C22.9987 24.5476 22.5735 24.3636 22.1447 24.1363C20.3675 27.5728 18.5977 30.9946 16.8196 34.4321C16.9254 34.4901 17.0073 34.5462 17.0975 34.5831C17.6276 34.8021 17.9718 35.185 18.2341 35.6958C18.4578 36.1311 18.7836 36.5139 19.0818 36.9465C19.2861 36.7054 19.4241 36.4955 19.6064 36.3372C19.8401 36.1338 20.0859 35.9148 20.3666 35.8025C21.3845 35.3939 22.6186 35.9176 23.1037 36.9244C23.1414 37.0026 23.18 37.0809 23.2215 37.1646C24.14 36.4688 24.9397 36.329 25.7377 36.7597C26.751 37.3054 27.0998 38.1779 26.8844 39.3026C27.7956 39.3596 28.484 39.7572 28.8668 40.5865C29.2515 41.4184 29.0877 42.1952 28.5401 42.9112C30.275 43.3005 31.003 45.2443 29.8967 46.4454V46.4463ZM47.2866 34.6981C46.0818 31.0628 44.8836 27.4476 43.6825 23.8243C43.2794 23.9595 42.9085 24.0599 42.556 24.2071C41.9302 24.4685 41.2804 24.4915 40.6334 24.3884C39.3477 24.1832 38.0721 23.9135 36.7855 23.7157C35.5366 23.5233 34.2812 23.3678 33.0249 23.2352C32.2233 23.1506 31.4815 23.3816 30.8631 23.9052C29.4761 25.0787 28.102 26.2678 26.727 27.4541C26.2586 27.8581 26.0773 28.3772 26.1159 28.9938C26.2153 30.5934 26.312 32.1939 26.1233 33.7943C26.1012 33.9821 26.1804 34.1045 26.3571 34.1661C26.6681 34.2738 26.9755 34.2573 27.2765 34.1275C27.6732 33.9572 28.0045 33.6959 28.2603 33.3535C28.8558 32.5574 29.2193 31.6628 29.3141 30.6716C29.3574 30.217 29.4209 29.7734 29.6427 29.3675C29.9206 28.8595 30.3182 28.4711 30.852 28.2474C31.5064 27.9732 32.0457 28.2032 32.5556 28.645C35.9912 31.6223 39.4361 34.5904 42.8781 37.5604C43.2693 37.8972 43.2748 37.9018 43.7074 37.6156C44.5007 37.0892 45.2995 36.56 45.8913 35.8007C46.2677 35.3184 46.6635 34.8923 47.2866 34.6981ZM49.0444 20.2487C49.0159 20.2543 48.9533 20.2579 48.8963 20.2773C47.5213 20.731 46.1444 21.1801 44.7722 21.644C44.4004 21.7701 44.2375 22.1419 44.3507 22.5229C44.3949 22.6702 44.4473 22.8137 44.4961 22.9591C45.8269 26.9746 47.1577 30.99 48.4904 35.0046C48.656 35.5043 48.991 35.6718 49.4936 35.5062C50.7811 35.0819 52.0687 34.6558 53.3553 34.2278C53.8974 34.0474 54.0557 33.7207 53.8753 33.1786C53.1206 30.9017 52.3669 28.6248 51.6122 26.3478C50.9974 24.4924 50.3826 22.6379 49.766 20.7834C49.65 20.4346 49.3988 20.2432 49.0435 20.2478L49.0444 20.2487ZM14.8786 35.0837C15.2338 35.0626 15.4243 34.8546 15.5716 34.5702C17.5614 30.7158 19.5548 26.8632 21.5464 23.0098C21.7959 22.5266 21.6817 22.175 21.2004 21.9247C20.0095 21.308 18.8185 20.6914 17.6267 20.0766C17.0763 19.7932 16.7469 19.9018 16.4643 20.4503C15.775 21.7848 15.0847 23.1184 14.3945 24.4529C13.0922 26.9718 11.788 29.4899 10.4885 32.0098C10.2594 32.4552 10.3753 32.8142 10.8198 33.0452C12.0494 33.6857 13.2827 34.3226 14.5159 34.9558C14.6291 35.0138 14.7571 35.0414 14.8786 35.0828V35.0837ZM25.9622 38.7255C25.9429 38.7163 25.9236 38.7071 25.9043 38.6988C25.9052 38.2423 25.6097 37.8135 25.179 37.6469C24.7281 37.472 24.2412 37.5926 23.9163 37.992C23.181 38.8949 22.4511 39.8023 21.7296 40.7171C21.3412 41.2095 21.4388 41.8869 21.9302 42.2716C22.4106 42.648 23.0825 42.5827 23.4736 42.1023C24.2044 41.2049 24.9315 40.3057 25.642 39.3928C25.7901 39.2032 25.8573 38.9501 25.9613 38.7264L25.9622 38.7255ZM28.0799 41.5178C28.0606 41.5086 28.0404 41.4994 28.021 41.4902C28.0238 41.0126 27.7321 40.5947 27.2811 40.43C26.831 40.2662 26.3543 40.3932 26.0377 40.7751C25.4708 41.4599 24.9066 42.1483 24.3461 42.8385C23.931 43.3493 23.9899 44.0074 24.4786 44.4169C24.9692 44.8283 25.6429 44.762 26.0718 44.2476C26.6415 43.5647 27.213 42.8827 27.7606 42.1823C27.9088 41.9927 27.9759 41.7406 28.0809 41.516L28.0799 41.5178ZM22.3278 37.8724C22.2744 37.3671 21.9081 36.8996 21.4075 36.7578C20.9887 36.6391 20.6252 36.7201 20.338 37.0753C20.0398 37.4444 19.7269 37.8006 19.4223 38.165C19.0413 38.6215 19.1195 39.2087 19.6146 39.6192C20.107 40.0278 20.7356 40.002 21.1084 39.5575C21.4286 39.1765 21.759 38.8047 22.0627 38.4117C22.1824 38.2561 22.2404 38.0537 22.3269 37.8733L22.3278 37.8724ZM26.6819 45.4956C26.7243 46.011 27.1366 46.5125 27.6529 46.6386C28.0376 46.7325 28.3625 46.6432 28.6165 46.3257C28.7886 46.1103 28.9699 45.9033 29.1466 45.6916C29.4669 45.3078 29.4549 44.8163 29.1163 44.416C28.7408 43.9724 28.1508 43.8215 27.7422 44.0709C27.6649 44.1178 27.594 44.1804 27.5351 44.2494C27.3207 44.4988 27.0989 44.7446 26.9065 45.0105C26.8044 45.1523 26.7556 45.3327 26.6829 45.4965L26.6819 45.4956Z" fill="#424242"/>
<path d="M47.5857 35.6396C47.3676 35.809 47.1172 35.9295 46.9746 36.1274C46.3239 37.0293 45.456 37.68 44.5614 38.304C44.4179 38.4043 44.2697 38.4982 44.1123 38.6031C45.1274 39.5649 45.4072 40.6592 44.694 41.8823C44.1049 42.8928 43.1386 43.1984 41.7047 42.9076C41.6679 43.7727 41.3117 44.4731 40.5846 44.9544C39.8585 45.4357 39.079 45.4597 38.2553 45.1467C38.1531 46.0763 37.7288 46.7794 36.8876 47.1733C36.0492 47.5654 35.2467 47.4393 34.4809 46.9129C34.4607 46.969 34.4395 47.0077 34.4322 47.0482C34.2812 47.9308 33.7879 48.5557 32.9605 48.8732C32.1129 49.1981 31.315 49.049 30.6146 48.4627C30.1967 48.1139 29.7909 47.7504 29.3795 47.3942C29.3224 47.3445 29.2626 47.2985 29.2064 47.2525C27.8793 48.3311 25.8987 47.397 25.6594 45.6861C24.9858 45.8085 24.3664 45.6732 23.8298 45.2369C23.2978 44.8053 23.0383 44.2347 23.0217 43.5288C22.2615 43.6282 21.6063 43.4395 21.0734 42.902C20.5433 42.3673 20.3785 41.7111 20.4807 40.9822C20.2368 40.9435 20.0049 40.9316 19.7877 40.8681C18.3897 40.4576 17.7583 38.9639 18.3593 37.8494C18.3878 37.7969 18.3685 37.6819 18.3271 37.634C17.8697 37.1039 17.4463 36.5535 17.1435 35.9157C17.0975 35.8191 16.9981 35.7353 16.9042 35.6773C16.7229 35.566 16.5278 35.4767 16.3309 35.3736C16.2766 35.4316 16.2296 35.4795 16.1836 35.5301C15.6553 36.1164 14.8289 36.2866 14.1266 35.9295C12.829 35.2687 11.534 34.6024 10.2465 33.9232C9.3924 33.4731 9.08868 32.4506 9.54057 31.5653C10.3008 30.0771 11.0729 28.5953 11.8405 27.1117C13.0839 24.7087 14.3254 22.3048 15.5725 19.9036C16.0833 18.9198 17.0809 18.6133 18.0629 19.1241C19.2861 19.7609 20.5138 20.3914 21.7369 21.0301C22.5156 21.436 22.8607 22.1824 22.661 23.03C22.6288 23.1653 22.6637 23.2205 22.7769 23.2794C23.3475 23.5767 23.9044 23.9052 24.4879 24.174C24.7501 24.2946 25.064 24.3516 25.3557 24.3535C26.4362 24.3617 27.5176 24.3378 28.5981 24.3176C28.6791 24.3157 28.7693 24.2587 28.8365 24.2044C29.2847 23.8436 29.7246 23.4736 30.1728 23.1128C31.0425 22.4134 32.0337 22.1262 33.1501 22.1888C35.2255 22.3039 37.2475 22.7447 39.2824 23.1202C39.8769 23.2297 40.477 23.3254 41.0798 23.3678C41.4212 23.3917 41.7774 23.3218 42.1152 23.2426C42.4713 23.1589 42.8119 23.0107 43.1625 22.8984C43.2932 22.857 43.3411 22.8073 43.3116 22.6536C43.1358 21.7461 43.6006 20.9371 44.4758 20.6408C45.826 20.1843 47.1789 19.737 48.5346 19.298C49.4963 18.9869 50.4397 19.4747 50.7563 20.43C52.1377 24.5973 53.5191 28.7647 54.8996 32.932C55.2181 33.8928 54.7634 34.8481 53.8081 35.1739C52.4525 35.6369 51.0913 36.0841 49.7292 36.5268C48.9487 36.7799 48.1996 36.5112 47.7293 35.8375C47.6989 35.7942 47.6667 35.751 47.5866 35.6396H47.5857ZM29.8967 46.4463C30.402 46.8834 30.8879 47.3169 31.3904 47.732C31.6352 47.9345 31.9389 48.0081 32.2565 47.9694C32.7949 47.9041 33.1685 47.6114 33.336 47.0979C33.5035 46.5843 33.3848 46.1205 32.9752 45.7615C32.1055 44.9967 31.2238 44.2457 30.3532 43.4828C30.2345 43.3788 30.1268 43.2499 30.0532 43.1119C29.9418 42.902 29.9887 42.695 30.1516 42.5192C30.3118 42.3461 30.506 42.267 30.7305 42.3664C30.8677 42.4271 31.003 42.5081 31.1171 42.6066C32.4378 43.7414 33.7511 44.8845 35.0718 46.0183C35.6258 46.4932 36.4035 46.4371 36.8655 45.9079C37.3414 45.3621 37.2843 44.5899 36.7293 44.0994C36.4937 43.8914 36.2544 43.6871 36.017 43.4809C34.8454 42.4676 33.6719 41.4562 32.5022 40.4401C32.204 40.1815 32.1727 39.8355 32.4102 39.5704C32.6375 39.3164 32.9789 39.3099 33.2707 39.5557C33.4465 39.7038 33.6195 39.8557 33.7934 40.0066C35.3138 41.3209 36.8324 42.6361 38.3546 43.9485C38.8958 44.4151 39.6487 44.416 40.1613 43.9604C40.8055 43.3871 40.8046 42.4538 40.1466 41.8814C38.9087 40.8037 37.6653 39.7333 36.4238 38.6593C36.0059 38.2985 35.5853 37.9405 35.1712 37.5751C34.8518 37.2935 34.7929 36.9594 35.0028 36.6824C35.2273 36.3869 35.5964 36.3851 35.9507 36.6906C36.8747 37.4858 37.7951 38.2856 38.7182 39.0835C39.7103 39.9413 40.6969 40.8046 41.6973 41.6531C42.5128 42.3443 43.7267 41.9568 43.977 40.9279C44.1188 40.3435 43.9264 39.8621 43.4718 39.4701C42.2339 38.4043 41.0034 37.3294 39.7674 36.2618C37.0919 33.9499 34.4156 31.6398 31.7401 29.3297C31.5147 29.1346 31.372 29.1236 31.1189 29.2846C30.6744 29.5663 30.4167 29.9712 30.3863 30.4958C30.3449 31.2091 30.1774 31.8892 29.9096 32.5463C29.5258 33.4869 29.0058 34.3254 28.114 34.872C27.4293 35.2917 26.7077 35.427 25.9383 35.1233C25.3336 34.884 25.0115 34.3208 25.0842 33.6747C25.1284 33.2789 25.1726 32.8795 25.1671 32.4828C25.1505 31.3407 25.1256 30.1986 25.0723 29.0573C25.0272 28.0965 25.329 27.2976 26.0488 26.6571C26.45 26.3 26.8476 25.9392 27.2461 25.5794C27.2875 25.5416 27.3234 25.4984 27.3814 25.4349C26.9258 25.4349 26.5062 25.4284 26.0865 25.4358C25.1293 25.4533 24.209 25.3511 23.3788 24.7998C22.9987 24.5476 22.5735 24.3636 22.1447 24.1363C20.3675 27.5728 18.5977 30.9946 16.8196 34.4321C16.9254 34.4901 17.0073 34.5462 17.0975 34.5831C17.6276 34.8021 17.9718 35.185 18.2341 35.6958C18.4578 36.1311 18.7836 36.5139 19.0818 36.9465C19.2861 36.7054 19.4241 36.4955 19.6064 36.3372C19.8401 36.1338 20.0859 35.9148 20.3666 35.8025C21.3845 35.3939 22.6186 35.9176 23.1037 36.9244C23.1414 37.0026 23.18 37.0809 23.2215 37.1646C24.14 36.4688 24.9397 36.329 25.7377 36.7597C26.751 37.3054 27.0998 38.1779 26.8844 39.3026C27.7956 39.3596 28.484 39.7572 28.8668 40.5865C29.2515 41.4184 29.0877 42.1952 28.5401 42.9112C30.275 43.3005 31.003 45.2443 29.8967 46.4454V46.4463ZM47.2866 34.6981C46.0818 31.0628 44.8836 27.4476 43.6825 23.8243C43.2794 23.9595 42.9085 24.0599 42.556 24.2071C41.9302 24.4685 41.2804 24.4915 40.6334 24.3884C39.3477 24.1832 38.0721 23.9135 36.7855 23.7157C35.5366 23.5233 34.2812 23.3678 33.0249 23.2352C32.2233 23.1506 31.4815 23.3816 30.8631 23.9052C29.4761 25.0787 28.102 26.2678 26.727 27.4541C26.2586 27.8581 26.0773 28.3772 26.1159 28.9938C26.2153 30.5934 26.312 32.1939 26.1233 33.7943C26.1012 33.9821 26.1804 34.1045 26.3571 34.1661C26.6681 34.2738 26.9755 34.2573 27.2765 34.1275C27.6732 33.9572 28.0045 33.6959 28.2603 33.3535C28.8558 32.5574 29.2193 31.6628 29.3141 30.6716C29.3574 30.217 29.4209 29.7734 29.6427 29.3675C29.9206 28.8595 30.3182 28.4711 30.852 28.2474C31.5064 27.9732 32.0457 28.2032 32.5556 28.645C35.9912 31.6223 39.4361 34.5904 42.8781 37.5604C43.2693 37.8972 43.2748 37.9018 43.7074 37.6156C44.5007 37.0892 45.2995 36.56 45.8913 35.8007C46.2677 35.3184 46.6635 34.8923 47.2866 34.6981ZM49.0444 20.2487C49.0159 20.2543 48.9533 20.2579 48.8963 20.2773C47.5213 20.731 46.1444 21.1801 44.7722 21.644C44.4004 21.7701 44.2375 22.1419 44.3507 22.5229C44.3949 22.6702 44.4473 22.8137 44.4961 22.9591C45.8269 26.9746 47.1577 30.99 48.4904 35.0046C48.656 35.5043 48.991 35.6718 49.4936 35.5062C50.7811 35.0819 52.0687 34.6558 53.3553 34.2278C53.8974 34.0474 54.0557 33.7207 53.8753 33.1786C53.1206 30.9017 52.3669 28.6248 51.6122 26.3478C50.9974 24.4924 50.3826 22.6379 49.766 20.7834C49.65 20.4346 49.3988 20.2432 49.0435 20.2478L49.0444 20.2487ZM14.8786 35.0837C15.2338 35.0626 15.4243 34.8546 15.5716 34.5702C17.5614 30.7158 19.5548 26.8632 21.5464 23.0098C21.7959 22.5266 21.6817 22.175 21.2004 21.9247C20.0095 21.308 18.8185 20.6914 17.6267 20.0766C17.0763 19.7932 16.7469 19.9018 16.4643 20.4503C15.775 21.7848 15.0847 23.1184 14.3945 24.4529C13.0922 26.9718 11.788 29.4899 10.4885 32.0098C10.2594 32.4552 10.3753 32.8142 10.8198 33.0452C12.0494 33.6857 13.2827 34.3226 14.5159 34.9558C14.6291 35.0138 14.7571 35.0414 14.8786 35.0828V35.0837ZM25.9622 38.7255C25.9429 38.7163 25.9236 38.7071 25.9043 38.6988C25.9052 38.2423 25.6097 37.8135 25.179 37.6469C24.7281 37.472 24.2412 37.5926 23.9163 37.992C23.181 38.8949 22.4511 39.8023 21.7296 40.7171C21.3412 41.2095 21.4388 41.8869 21.9302 42.2716C22.4106 42.648 23.0825 42.5827 23.4736 42.1023C24.2044 41.2049 24.9315 40.3057 25.642 39.3928C25.7901 39.2032 25.8573 38.9501 25.9613 38.7264L25.9622 38.7255ZM28.0799 41.5178C28.0606 41.5086 28.0404 41.4994 28.021 41.4902C28.0238 41.0126 27.7321 40.5947 27.2811 40.43C26.831 40.2662 26.3543 40.3932 26.0377 40.7751C25.4708 41.4599 24.9066 42.1483 24.3461 42.8385C23.931 43.3493 23.9899 44.0074 24.4786 44.4169C24.9692 44.8283 25.6429 44.762 26.0718 44.2476C26.6415 43.5647 27.213 42.8827 27.7606 42.1823C27.9088 41.9927 27.9759 41.7406 28.0809 41.516L28.0799 41.5178ZM22.3278 37.8724C22.2744 37.3671 21.9081 36.8996 21.4075 36.7578C20.9887 36.6391 20.6252 36.7201 20.338 37.0753C20.0398 37.4444 19.7269 37.8006 19.4223 38.165C19.0413 38.6215 19.1195 39.2087 19.6146 39.6192C20.107 40.0278 20.7356 40.002 21.1084 39.5575C21.4286 39.1765 21.759 38.8047 22.0627 38.4117C22.1824 38.2561 22.2404 38.0537 22.3269 37.8733L22.3278 37.8724ZM26.6819 45.4956C26.7243 46.011 27.1366 46.5125 27.6529 46.6386C28.0376 46.7325 28.3625 46.6432 28.6165 46.3257C28.7886 46.1103 28.9699 45.9033 29.1466 45.6916C29.4669 45.3078 29.4549 44.8163 29.1163 44.416C28.7408 43.9724 28.1508 43.8215 27.7422 44.0709C27.6649 44.1178 27.594 44.1804 27.5351 44.2494C27.3207 44.4988 27.0989 44.7446 26.9065 45.0105C26.8044 45.1523 26.7556 45.3327 26.6829 45.4965L26.6819 45.4956Z" stroke="#424242" stroke-width="0.4" mask="url(#path-2-outside-1_1916_7109)"/>
<path d="M29.8955 46.4462C31.0027 45.2452 30.2747 43.3014 28.5389 42.9121C29.0865 42.1961 29.2503 41.4184 28.8656 40.5873C28.4819 39.7581 27.7934 39.3605 26.8832 39.3035C27.0986 38.1788 26.7498 37.3063 25.7365 36.7606C24.9376 36.3308 24.1388 36.4707 23.2203 37.1655C23.1798 37.0827 23.1402 37.0045 23.1025 36.9253C22.6174 35.9184 21.3823 35.3948 20.3654 35.8034C20.0847 35.9157 19.8389 36.1347 19.6052 36.3381C19.4229 36.4964 19.284 36.7063 19.0806 36.9474C18.7814 36.5148 18.4566 36.132 18.2329 35.6966C17.9706 35.1859 17.6264 34.8021 17.0963 34.584C17.0061 34.5471 16.9242 34.491 16.8184 34.433C18.5965 30.9946 20.3654 27.5737 22.1435 24.1371C22.5723 24.3645 22.9985 24.5476 23.3776 24.8007C24.2078 25.352 25.1281 25.4551 26.0853 25.4367C26.505 25.4293 26.9246 25.4357 27.3802 25.4357C27.3213 25.4983 27.2863 25.5425 27.2449 25.5802C26.8464 25.9401 26.4488 26.3009 26.0476 26.658C25.3278 27.2985 25.026 28.0974 25.0711 29.0582C25.1244 30.1994 25.1493 31.3416 25.1659 32.4837C25.1714 32.8804 25.1272 33.2798 25.083 33.6756C25.0103 34.3217 25.3324 34.8849 25.9371 35.1242C26.7065 35.4279 27.4281 35.2926 28.1128 34.8729C29.0055 34.3263 29.5255 33.4878 29.9084 32.5472C30.1762 31.8901 30.3437 31.2091 30.3851 30.4967C30.4155 29.9721 30.6732 29.5672 31.1177 29.2855C31.3717 29.1245 31.5135 29.1355 31.7389 29.3306C34.4153 31.6407 37.0917 33.9508 39.7662 36.2627C41.0022 37.3312 42.2327 38.4052 43.4706 39.471C43.9252 39.863 44.1176 40.3444 43.9758 40.9288C43.7255 41.9577 42.5116 42.3452 41.6961 41.654C40.6957 40.8055 39.7091 39.9422 38.717 39.0844C37.7948 38.2874 36.8735 37.4876 35.9495 36.6915C35.5952 36.3869 35.2261 36.3878 35.0016 36.6833C34.7917 36.9594 34.8506 37.2944 35.17 37.576C35.5841 37.9404 36.0047 38.2985 36.4226 38.6601C37.6641 39.7333 38.9084 40.8045 40.1454 41.8823C40.8034 42.4556 40.8043 43.3879 40.1601 43.9613C39.6484 44.4169 38.8946 44.416 38.3534 43.9494C36.8321 42.6369 35.3126 41.3218 33.7922 40.0075C33.6183 39.8575 33.4453 39.7057 33.2695 39.5566C32.9786 39.3099 32.6363 39.3173 32.409 39.5713C32.1715 39.8363 32.2028 40.1824 32.501 40.441C33.6707 41.4561 34.8442 42.4685 36.0158 43.4818C36.2532 43.6871 36.4925 43.8914 36.7281 44.1003C37.2831 44.5908 37.3402 45.3621 36.8643 45.9088C36.4023 46.4389 35.6246 46.4941 35.0706 46.0192C33.749 44.8853 32.4356 43.7423 31.1159 42.6075C31.0018 42.5099 30.8674 42.4289 30.7293 42.3673C30.5048 42.2679 30.3106 42.347 30.1504 42.5201C29.9885 42.6958 29.9406 42.9029 30.052 43.1128C30.1256 43.2508 30.2333 43.3797 30.352 43.4837C31.2226 44.2466 32.1043 44.9985 32.974 45.7624C33.3836 46.1223 33.5023 46.5861 33.3348 47.0988C33.1673 47.6123 32.7937 47.9059 32.2553 47.9703C31.9377 48.009 31.635 47.9354 31.3892 47.7329C30.8876 47.3187 30.4017 46.8843 29.8955 46.4472V46.4462Z" fill="white"/>
<path d="M47.2851 34.6983C46.662 34.8925 46.2662 35.3186 45.8898 35.8009C45.298 36.5593 44.4992 37.0894 43.7058 37.6158C43.2733 37.903 43.2678 37.8984 42.8766 37.5606C39.4345 34.5907 35.9906 31.6226 32.5541 28.6452C32.0442 28.2035 31.5049 27.9743 30.8505 28.2477C30.3167 28.4713 29.9191 28.8597 29.6412 29.3677C29.4185 29.7736 29.3559 30.2172 29.3126 30.6718C29.2178 31.664 28.8543 32.5585 28.2588 33.3537C28.003 33.6961 27.6707 33.9565 27.275 34.1277C26.974 34.2575 26.6666 34.2741 26.3556 34.1664C26.1788 34.1047 26.0997 33.9823 26.1218 33.7946C26.3095 32.1941 26.2138 30.5936 26.1144 28.9941C26.0758 28.3765 26.2571 27.8584 26.7255 27.4543C28.1014 26.2671 29.4755 25.0789 30.8616 23.9055C31.48 23.3818 32.2218 23.1508 33.0234 23.2355C34.2797 23.368 35.535 23.5235 36.784 23.7159C38.0706 23.9138 39.3462 24.1843 40.6319 24.3887C41.2789 24.4917 41.9287 24.4687 42.5545 24.2074C42.907 24.0601 43.2779 23.9598 43.681 23.8245C44.882 27.4479 46.0803 31.063 47.2851 34.6983Z" fill="white"/>
<path d="M49.0451 20.2487C49.4004 20.2441 49.6516 20.4355 49.7676 20.7843C50.3842 22.6388 50.999 24.4933 51.6138 26.3487C52.3685 28.6256 53.1222 30.9026 53.8769 33.1795C54.0564 33.7216 53.8981 34.0483 53.3569 34.2287C52.0703 34.6566 50.7827 35.0818 49.4951 35.507C48.9936 35.6727 48.6586 35.5052 48.492 35.0054C47.1602 30.9909 45.8294 26.9755 44.4977 22.96C44.4498 22.8146 44.3965 22.6701 44.3523 22.5238C44.2382 22.1427 44.4011 21.7709 44.7738 21.6448C46.146 21.1819 47.5219 20.7319 48.8978 20.2781C48.9558 20.2588 49.0175 20.2551 49.046 20.2496L49.0451 20.2487Z" fill="white"/>
<path d="M14.8798 35.084C14.7583 35.0426 14.6304 35.015 14.5172 34.957C13.2839 34.3229 12.0506 33.687 10.8211 33.0464C10.3765 32.8145 10.2606 32.4565 10.4897 32.011C11.7893 29.4902 13.0925 26.9721 14.3957 24.4541C15.0859 23.1196 15.7762 21.786 16.4655 20.4515C16.749 19.903 17.0785 19.7944 17.6279 20.0779C18.8198 20.6926 20.0107 21.3093 21.2016 21.9259C21.6829 22.1753 21.7971 22.5269 21.5476 23.011C19.556 26.8645 17.5635 30.717 15.5728 34.5714C15.4255 34.8558 15.2359 35.0638 14.8798 35.085V35.084Z" fill="white"/>
<path d="M25.9632 38.7256C25.8583 38.9492 25.7911 39.2014 25.6439 39.3919C24.9334 40.3049 24.2063 41.205 23.4756 42.1014C23.0844 42.5818 22.4126 42.6471 21.9321 42.2707C21.4398 41.8851 21.3431 41.2077 21.7315 40.7163C22.4531 39.8024 23.182 38.894 23.9182 37.9911C24.2431 37.5926 24.73 37.4711 25.181 37.646C25.6117 37.8126 25.9071 38.2424 25.9062 38.698C25.9255 38.7072 25.9448 38.7164 25.9642 38.7246L25.9632 38.7256Z" fill="white"/>
<path d="M28.0811 41.5179C27.9771 41.7416 27.909 41.9947 27.7608 42.1842C27.2123 42.8846 26.6417 43.5666 26.072 44.2495C25.6441 44.763 24.9704 44.8302 24.4789 44.4188C23.9902 44.0093 23.9322 43.3512 24.3464 42.8404C24.9069 42.1502 25.471 41.4618 26.038 40.777C26.3546 40.3951 26.8313 40.2681 27.2814 40.4319C27.7323 40.5957 28.025 41.0145 28.0213 41.4921C28.0406 41.5013 28.0609 41.5106 28.0802 41.5198L28.0811 41.5179Z" fill="white"/>
<path d="M22.3284 37.8735C22.2419 38.0548 22.1839 38.2573 22.0643 38.4119C21.7605 38.8049 21.4301 39.1776 21.1099 39.5577C20.7371 40.0014 20.1085 40.028 19.6161 39.6194C19.121 39.2089 19.0428 38.6218 19.4238 38.1653C19.7275 37.8008 20.0413 37.4446 20.3395 37.0756C20.6267 36.7194 20.9902 36.6393 21.409 36.7581C21.9096 36.8998 22.2759 37.3673 22.3293 37.8726L22.3284 37.8735Z" fill="white"/>
<path d="M26.6826 45.4966C26.7553 45.3337 26.804 45.1524 26.9062 45.0107C27.0986 44.7447 27.3204 44.499 27.5348 44.2495C27.5937 44.1814 27.6655 44.1179 27.7419 44.071C28.1505 43.8216 28.7404 43.9725 29.1159 44.4161C29.4546 44.8156 29.4666 45.3079 29.1463 45.6917C28.9696 45.9034 28.7874 46.1105 28.6162 46.3258C28.3622 46.6443 28.0382 46.7336 27.6526 46.6388C27.1372 46.5127 26.724 46.0111 26.6816 45.4957L26.6826 45.4966Z" fill="white"/>
</svg>
