<svg width="43" height="43" viewBox="0 0 43 43" fill="none" xmlns="http://www.w3.org/2000/svg">
<g clip-path="url(#clip0_1624_8944)">
<path d="M41.3458 18.3131C41.4089 19.5037 41.4283 20.8685 41.5787 22.2187C41.6223 22.6204 42.025 22.9785 42.2627 23.3609C42.5198 22.9834 43.0146 22.5962 43.0001 22.2332C42.9224 20.4329 42.903 18.5938 42.5149 16.8419C40.1088 5.9334 29.7081 -1.47122 18.2304 0.246847C17.5852 0.343639 16.4792 0.19845 16.7023 1.28736C16.9158 2.32304 17.9248 1.80036 18.5555 1.71325C22.0288 1.22929 25.4052 1.5729 28.6651 2.8312C31.4351 3.90076 33.8752 5.47363 35.7913 7.54015C34.9618 8.36772 34.2924 9.1953 33.4677 9.81477C32.5654 10.4972 31.6194 11.257 30.2902 10.7295C28.0296 9.82929 25.9485 10.2794 24.0129 11.678C23.4939 12.0555 22.8681 12.2878 22.3538 12.6653C21.7426 13.1105 21.2527 13.0428 20.6075 12.675C18.929 11.7216 17.2893 10.5601 15.4702 10.0326C12.8554 9.27273 10.4687 8.33385 8.73686 6.02535C9.30443 5.61882 10.0078 5.20745 10.5754 4.66058C10.9053 4.34116 11.012 3.78945 11.2158 3.3442C10.721 3.37808 10.1243 3.25225 9.75559 3.48455C8.73686 4.12822 7.75694 4.859 6.86919 5.6769C3.39582 8.89524 1.15947 12.825 0.334782 17.5049C0.276569 17.8485 0.664655 18.2696 0.844145 18.6568C1.16432 18.3664 1.61062 18.1389 1.76585 17.7759C2.01326 17.2145 2.05692 16.566 2.15879 16.1063C3.35216 16.416 4.4485 16.566 5.41872 17.0016C6.29191 17.3888 7.41251 17.684 7.6017 18.8842C8.0383 21.5944 9.5955 23.3754 12.089 24.4207C12.3461 24.5272 12.5692 24.7256 12.8312 24.8273C13.9324 25.2725 14.3399 25.9984 14.2816 27.2374C14.1992 28.9942 14.0779 30.8526 14.5388 32.5126C15.2616 35.1211 15.5429 37.6039 14.4126 40.1834C10.6482 38.7847 7.53379 36.3988 5.14706 33.0691C2.98832 30.054 1.761 26.6954 1.49904 22.9882C1.46023 22.4413 1.41172 21.6767 0.611293 21.8993C0.300824 21.9912 -0.00479409 22.7365 5.69952e-05 23.177C0.00975916 24.0916 0.198951 25.016 0.37359 25.921C3.42007 41.4175 22.6886 48.3236 34.923 38.3008C35.3693 37.9378 36.097 37.5651 35.5439 36.8634C35.0103 36.181 34.4767 36.7182 33.9964 37.086C33.7733 37.2602 33.555 37.4393 33.327 37.6039C31.1877 39.1477 28.8689 40.2898 26.3851 40.8464C26.0989 39.6897 25.7059 38.6492 25.6138 37.5845C25.5362 36.6408 25.1966 35.547 26.1717 34.7678C28.3207 33.0449 29.0435 30.78 28.7282 28.1085C28.6748 27.673 28.767 27.218 28.7136 26.7825C28.6117 25.9646 28.9174 25.4903 29.6644 25.0741C31.2507 24.1981 32.9389 23.3947 34.2633 22.1994C36.2959 20.37 38.1296 18.347 41.341 18.3035L41.3458 18.3131Z" fill="white"/>
<path d="M42.4027 26.8889C42.2281 26.6663 42.0389 26.2017 41.7818 26.1581C41.5101 26.1097 41.0299 26.3953 40.8892 26.6663C40.603 27.2229 40.3895 27.852 40.3216 28.4715C40.2828 28.8054 40.603 29.1732 40.763 29.5265C41.0784 29.3474 41.5344 29.241 41.6799 28.97C41.9904 28.3795 42.1359 27.7068 42.4076 26.8938L42.4027 26.8889Z" fill="white"/>
<path d="M40.0071 32.6481C39.7402 32.3044 39.619 32.0044 39.4007 31.9124C39.1921 31.8205 38.7603 31.8447 38.6439 31.9947C38.12 32.6481 37.6397 33.3401 37.2225 34.0661C37.1255 34.2306 37.2565 34.6613 37.4263 34.8017C37.6009 34.9469 38.086 35.0098 38.1928 34.8888C38.8282 34.1919 39.391 33.4272 40.0022 32.6529L40.0071 32.6481Z" fill="white"/>
<path d="M13.2675 3.46514C14.0534 2.8989 14.6985 2.43914 15.3389 1.97454C15.0575 1.70836 14.65 1.15664 14.5191 1.21956C13.8108 1.53897 13.1705 2.00842 12.5059 2.42946C12.7145 2.71016 12.9231 2.9957 13.2675 3.46514Z" fill="white"/>
<path d="M41.3458 18.3131C38.1344 18.3567 36.3056 20.3796 34.2681 22.209C32.9438 23.3995 31.2507 24.2078 29.6693 25.0837C28.9222 25.4951 28.6166 25.9694 28.7185 26.7921C28.7718 27.2277 28.6845 27.6826 28.733 28.1182C29.0483 30.7896 28.3255 33.0546 26.1765 34.7775C25.2063 35.5567 25.541 36.6504 25.6186 37.5941C25.7059 38.6589 26.0989 39.6994 26.3899 40.856C28.8737 40.2995 31.1925 39.1573 33.3318 37.6135C33.5598 37.4489 33.7781 37.2699 34.0013 37.0957C34.4767 36.723 35.0152 36.1858 35.5488 36.873C36.097 37.5796 35.3693 37.9474 34.9279 38.3104C22.6886 48.3284 3.42007 41.4223 0.37359 25.9258C0.198951 25.016 0.00975916 24.0964 5.69929e-05 23.1769C-0.00479409 22.7365 0.300824 21.9912 0.616145 21.9041C1.41657 21.6815 1.46508 22.4413 1.50389 22.993C1.76585 26.7002 2.99318 30.0589 5.15191 33.0739C7.53379 36.4036 10.6482 38.7944 14.4175 40.1882C15.5478 37.6087 15.2616 35.1211 14.5436 32.5174C14.0828 30.8574 14.1992 28.999 14.2865 27.2422C14.3447 25.9984 13.9372 25.2725 12.836 24.8321C12.5741 24.7256 12.3558 24.532 12.0938 24.4255C9.60035 23.3802 8.04315 21.604 7.60656 18.889C7.41251 17.6888 6.29191 17.3936 5.42357 17.0064C4.45335 16.5757 3.35701 16.4257 2.16364 16.1111C2.06662 16.5708 2.01811 17.2193 1.7707 17.7807C1.61547 18.1389 1.16432 18.3712 0.848997 18.6616C0.669506 18.2744 0.28142 17.8533 0.339633 17.5097C1.16432 12.8347 3.40067 8.90489 6.88374 5.68654C7.76664 4.86865 8.75141 4.1427 9.77014 3.49419C10.1388 3.26189 10.7355 3.39256 11.2303 3.35385C11.0217 3.79909 10.9198 4.35081 10.59 4.67022C10.0224 5.22194 9.31899 5.62847 8.75141 6.03499C10.4832 8.34349 12.87 9.28238 15.4847 10.0422C17.3039 10.5697 18.9435 11.7312 20.622 12.6846C21.2672 13.0524 21.7572 13.1202 22.3684 12.6749C22.8875 12.2975 23.5084 12.0603 24.0275 11.6877C25.9631 10.289 28.0442 9.83893 30.3048 10.7391C31.634 11.2666 32.5751 10.5068 33.4822 9.82441C34.3069 9.2001 34.9812 8.37253 35.8059 7.54979C33.8897 5.48328 31.4448 3.9104 28.6797 2.84085C25.4197 1.58255 22.0434 1.23893 18.57 1.72289C17.9345 1.81001 16.9255 2.33269 16.7169 1.29701C16.4937 0.208094 17.5998 0.353283 18.245 0.25649C29.7226 -1.46157 40.1234 5.94304 42.5295 16.8515C42.9176 18.6035 42.937 20.4377 43.0146 22.2429C43.0292 22.6107 42.5344 22.993 42.2772 23.3705C42.0395 22.993 41.6369 22.63 41.5932 22.2284C41.4429 20.8781 41.4235 19.5133 41.3604 18.3228L41.3458 18.3131ZM16.5034 22.4461C16.3385 22.4607 16.1736 22.4752 16.0086 22.4849C15.0918 27.6536 16.1445 32.74 17.0759 37.9813C19.123 37.9813 21.2915 38.0055 23.4599 37.9474C23.6685 37.9426 24.0711 37.4006 24.0372 37.1586C23.7461 35.2566 24.7357 34.0031 25.9388 32.711C26.5743 32.0286 27.0351 31.0123 27.1758 30.0879C27.3796 28.7522 27.2923 27.3535 27.1855 25.9936C27.1516 25.5483 26.7198 24.8175 26.3948 24.774C25.5313 24.6578 25.5798 25.4322 25.5798 26.042C25.5798 27.3729 25.6235 28.7038 25.541 30.025C25.5216 30.3396 25.0705 30.6299 24.8133 30.93C24.5659 30.6251 24.2458 30.3541 24.0954 30.0105C23.979 29.7394 24.0663 29.3765 24.0663 29.0522C24.0663 26.3953 24.0857 23.7383 24.0469 21.0814C24.042 20.67 23.7752 20.2635 23.6345 19.8521C23.4696 19.8957 23.3095 19.9344 23.1446 19.9779C23.1446 21.817 23.1882 23.6609 23.1106 25.4951C23.0912 25.8919 22.6352 26.2743 22.3781 26.6614C22.1258 26.2791 21.6795 25.9065 21.6601 25.5193C21.5825 23.5883 21.6456 21.6573 21.6019 19.7214C21.5922 19.3923 21.306 19.0729 21.1508 18.7438C20.9955 19.0584 20.7142 19.373 20.7093 19.6972C20.6657 21.6282 20.7287 23.5641 20.6511 25.4951C20.6366 25.9016 20.2 26.2888 19.9574 26.6808C19.6761 26.2743 19.1909 25.8871 19.157 25.4612C19.0503 24.14 19.1279 22.8091 19.1085 21.4782C19.1036 20.9555 19.0309 20.4329 18.9872 19.9053C18.8417 19.8908 18.701 19.8763 18.5555 19.8618C18.4536 20.2151 18.2741 20.5635 18.2644 20.9168C18.2304 22.4074 18.3032 23.898 18.211 25.3838C18.1819 25.829 17.7405 26.2501 17.4882 26.6808C17.2166 26.2646 16.8285 25.8823 16.712 25.4273C16.5762 24.8998 16.6975 24.3094 16.6684 23.7432C16.6441 23.3027 16.5617 22.8672 16.5034 22.4316V22.4461ZM25.4391 22.5042C25.5556 22.5816 25.6671 22.6591 25.7836 22.7365C26.2056 22.5139 26.6082 22.2235 27.0594 22.0783C27.7822 21.8509 28.1266 22.1751 28.0636 22.9349C28.0393 23.2447 28.049 23.5592 28.0393 23.8738C28.3983 23.8012 28.83 23.8351 29.1066 23.6464C32.0948 21.5702 35.054 19.4601 38.1005 17.3016C36.8683 15.1722 35.7089 13.1686 34.4379 10.9666C32.5072 12.946 30.363 12.3507 28.18 11.8232C27.6512 11.6973 26.9527 11.8522 26.4482 12.1039C25.0462 12.8105 23.6782 13.5945 22.3684 14.4511C22.0531 14.6592 22.0094 15.2787 21.8445 15.7045C22.3053 15.7239 22.8487 15.9127 23.2173 15.7336C24.3379 15.1964 25.3906 14.5043 26.4821 13.8994C26.9963 13.6138 27.6512 13.1492 27.9957 13.9623C28.1072 14.2285 27.627 14.9351 27.2486 15.1819C25.7836 16.1256 24.2458 16.9677 22.7371 17.8437C22.7759 17.9937 22.8196 18.1437 22.8584 18.2937C23.3095 18.2018 23.7607 18.1002 24.2167 18.0276C24.5853 17.9695 25.0656 17.7953 25.3033 17.955C25.5071 18.0905 25.3906 18.647 25.4974 18.9907C25.5992 19.3149 25.7545 19.6488 25.9776 19.8957C26.2105 20.1522 26.7877 20.2925 26.7974 20.5006C26.8071 20.8055 26.4579 21.1298 26.2396 21.4298C25.9825 21.7928 25.7059 22.1412 25.4391 22.4994V22.5042ZM16.2657 20.9991C16.8479 19.9102 17.5755 19.1213 17.6531 18.2744C17.7744 16.9048 18.2838 17.0742 19.1958 17.4565C19.5111 17.592 19.9526 17.4323 20.3358 17.4081C19.9429 16.8661 19.5257 16.6773 19.2055 16.3821C18.6622 15.8836 18.7058 15.4142 19.4189 15.0802C19.7003 14.9496 19.9768 14.8092 20.2582 14.6737C20.0011 14.3688 19.7828 14.0155 19.4772 13.7735C16.5277 11.4602 12.7002 11.1263 9.48392 9.30657C8.29056 11.3779 7.13115 13.3864 5.86987 15.5739C8.46035 16.1982 9.12494 18.1921 9.67312 20.3215C9.80895 20.8587 10.231 21.4395 10.6918 21.7638C11.7688 22.5139 12.9476 23.1237 14.0828 23.7867C14.5727 22.5623 14.2574 21.7928 13.098 21.3475C12.6517 21.1782 12.186 20.9362 11.8755 20.5926C11.6669 20.3651 11.6038 19.8666 11.7057 19.5666C11.7591 19.4117 12.3606 19.2762 12.6129 19.3778C13.2435 19.6295 13.7965 20.0699 14.4175 20.3457C15.0772 20.6361 15.7855 20.8297 16.2706 20.9943L16.2657 20.9991ZM40.8559 16.3482C40.07 13.5654 38.8718 11.1214 37.0235 8.92424C36.4899 9.2485 36.0533 9.50984 35.5488 9.80989C36.9653 12.2587 38.3333 14.6108 39.7207 17.0064C40.1234 16.7741 40.4338 16.595 40.8559 16.3482ZM4.30297 15.1915C5.72434 12.7233 7.08264 10.3713 8.4749 7.95632C7.99464 7.7095 7.65507 7.54011 7.30094 7.35621C5.29259 9.43724 3.7548 11.6877 2.79428 14.3495C3.3279 14.6447 3.74509 14.877 4.30297 15.1867V15.1915ZM16.0329 39.5397C16.3045 40.1059 16.421 40.7931 16.6975 40.8609C19.2783 41.5239 21.893 41.6885 24.5465 41.1996V39.5397H16.028H16.0329Z" fill="#006099"/>
<path d="M42.403 26.8889C42.1313 27.702 41.9858 28.3747 41.6753 28.9651C41.5346 29.2361 41.0738 29.3426 40.7584 29.5217C40.5984 29.1684 40.283 28.7957 40.317 28.4666C40.3849 27.8472 40.5935 27.2132 40.8846 26.6615C41.0252 26.3953 41.5055 26.1097 41.7772 26.1533C42.0391 26.1969 42.2235 26.6615 42.3981 26.8841L42.403 26.8889Z" fill="#006099"/>
<path d="M40.0061 32.6481C39.3949 33.4224 38.8273 34.1822 38.1967 34.884C38.0899 35.0049 37.6048 34.942 37.4302 34.7968C37.2604 34.6565 37.1294 34.2258 37.2264 34.0612C37.6436 33.3401 38.1239 32.6432 38.6478 31.9899C38.7642 31.8447 39.1911 31.8205 39.4046 31.9076C39.618 31.9995 39.7442 32.3044 40.011 32.6432L40.0061 32.6481Z" fill="#006099"/>
<path d="M13.2675 3.46514C12.9182 2.9957 12.7145 2.71016 12.5059 2.42946C13.1705 2.00841 13.8108 1.53897 14.5191 1.21956C14.65 1.16148 15.0575 1.70836 15.3389 1.97454C14.6985 2.4343 14.0534 2.8989 13.2675 3.46514Z" fill="#006099"/>
<path d="M16.4995 22.4462C16.5577 22.8817 16.6401 23.3221 16.6644 23.7577C16.6935 24.3191 16.5722 24.9095 16.7081 25.4419C16.8245 25.8968 17.2174 26.2791 17.4842 26.6953C17.7365 26.2646 18.1779 25.8436 18.207 25.3983C18.2992 23.9126 18.2264 22.422 18.2604 20.9314C18.2701 20.5781 18.4496 20.2296 18.5515 19.8763C18.697 19.8908 18.8377 19.9054 18.9832 19.9199C19.0269 20.4425 19.0996 20.9652 19.1045 21.4927C19.1239 22.8188 19.0463 24.1545 19.153 25.4758C19.187 25.9016 19.6721 26.2888 19.9534 26.6953C20.196 26.2985 20.6326 25.9113 20.6471 25.5096C20.7199 23.5786 20.6617 21.6476 20.7053 19.7118C20.7102 19.3924 20.9916 19.0778 21.1468 18.7584C21.302 19.0826 21.5931 19.4069 21.5979 19.736C21.6416 21.667 21.5834 23.6028 21.6562 25.5338C21.6707 25.921 22.1219 26.2936 22.3741 26.676C22.6312 26.2888 23.0872 25.9065 23.1066 25.5096C23.1842 23.6754 23.1406 21.8315 23.1406 19.9925C23.3055 19.9489 23.4656 19.9102 23.6305 19.8666C23.7761 20.278 24.038 20.6845 24.0429 21.0959C24.0817 23.7528 24.0623 26.4098 24.0623 29.0667C24.0623 29.391 23.975 29.7491 24.0914 30.025C24.2418 30.3686 24.562 30.6396 24.8094 30.9445C25.0616 30.6445 25.5176 30.3541 25.537 30.0395C25.6195 28.7183 25.5758 27.3826 25.5758 26.0565C25.5758 25.4467 25.5273 24.6724 26.3908 24.7885C26.7158 24.8321 27.1476 25.5629 27.1815 26.0081C27.2883 27.368 27.3756 28.7667 27.1718 30.1024C27.0312 31.0268 26.5703 32.0431 25.9348 32.7255C24.7317 34.0177 23.7421 35.2711 24.0332 37.1731C24.072 37.4151 23.6694 37.9523 23.4559 37.962C21.2875 38.02 19.119 37.9958 17.0719 37.9958C16.1453 32.7594 15.0878 27.6681 16.0046 22.4994C16.1696 22.4849 16.3345 22.4703 16.4995 22.4607V22.4462Z" fill="white"/>
<path d="M25.4345 22.5042C25.7013 22.1461 25.9778 21.7977 26.2349 21.4347C26.4484 21.1298 26.8025 20.8055 26.7928 20.5055C26.7831 20.2974 26.2058 20.1522 25.973 19.9005C25.7498 19.6537 25.5897 19.3198 25.4927 18.9955C25.386 18.6519 25.5024 18.0954 25.2987 17.9598C25.061 17.8001 24.5807 17.9744 24.212 18.0324C23.756 18.105 23.3049 18.2067 22.8537 18.2986C22.8149 18.1486 22.7713 17.9986 22.7324 17.8485C24.2411 16.9677 25.7789 16.1305 27.2439 15.1867C27.6223 14.9448 28.1026 14.2333 27.991 13.9672C27.6466 13.1589 26.9917 13.6187 26.4775 13.9042C25.386 14.5092 24.3382 15.2013 23.2127 15.7385C22.844 15.9127 22.3055 15.7288 21.8398 15.7094C22.0096 15.2787 22.0484 14.6592 22.3638 14.456C23.6736 13.5993 25.0464 12.8153 26.4435 12.1087C26.948 11.8522 27.6466 11.6974 28.1754 11.828C30.3583 12.3556 32.5025 12.9508 34.4333 10.9714C35.7042 13.1686 36.8636 15.1722 38.0958 17.3065C35.0493 19.465 32.0853 21.575 29.1019 23.6512C28.8254 23.84 28.3937 23.8109 28.0347 23.8787C28.0395 23.5641 28.0347 23.2495 28.0589 22.9398C28.122 22.18 27.7776 21.8509 27.0548 22.0832C26.6036 22.2284 26.201 22.5188 25.7789 22.7414C25.6625 22.664 25.5509 22.5865 25.4345 22.5091V22.5042Z" fill="white"/>
<path d="M16.2601 20.9991C15.775 20.8345 15.0667 20.6458 14.407 20.3506C13.786 20.0747 13.233 19.6343 12.6024 19.3826C12.3453 19.281 11.7437 19.4165 11.6952 19.5714C11.5934 19.8714 11.6613 20.3699 11.865 20.5974C12.1755 20.941 12.646 21.183 13.0875 21.3524C14.2469 21.7976 14.5622 22.5671 14.0723 23.7915C12.9323 23.1237 11.7534 22.5187 10.6814 21.7686C10.2205 21.4492 9.80331 20.8684 9.66262 20.3264C9.11445 18.1921 8.44985 16.203 5.85938 15.5787C7.12066 13.3912 8.28007 11.3779 9.47343 9.3114C12.6897 11.1359 16.5172 11.465 19.4667 13.7784C19.7723 14.0203 19.9906 14.3785 20.2477 14.6785C19.9663 14.814 19.6898 14.9544 19.4084 15.0851C18.6953 15.4142 18.6517 15.8884 19.195 16.3869C19.5152 16.6821 19.9324 16.8709 20.3253 17.4129C19.9421 17.4371 19.5006 17.592 19.1853 17.4613C18.2733 17.0741 17.7639 16.9096 17.6427 18.2792C17.5699 19.1261 16.8374 19.915 16.2552 21.0039L16.2601 20.9991Z" fill="white"/>
<path d="M40.8501 16.3531C40.4232 16.5999 40.1175 16.7789 39.7149 17.0112C38.3275 14.6156 36.9643 12.2636 35.543 9.81473C36.0475 9.50983 36.4792 9.24849 37.0177 8.92908C38.866 11.1263 40.0642 13.5751 40.8501 16.3531Z" fill="white"/>
<path d="M4.30361 15.1916C3.74573 14.8818 3.32854 14.6495 2.79492 14.3543C3.76029 11.6925 5.29323 9.44212 7.30158 7.36108C7.65571 7.54015 7.99528 7.71438 8.47554 7.9612C7.08328 10.3762 5.72498 12.7282 4.30361 15.1964V15.1916Z" fill="white"/>
<path d="M16.0332 39.5397H24.5517V41.1997C21.8982 41.6885 19.2786 41.5239 16.7027 40.8609C16.4261 40.7883 16.3097 40.1059 16.0381 39.5397H16.0332Z" fill="white"/>
</g>
<defs>
<clipPath id="clip0_1624_8944">
<rect width="43" height="43" fill="white"/>
</clipPath>
</defs>
</svg>
