<svg width="36" height="44" viewBox="0 0 36 44" fill="none" xmlns="http://www.w3.org/2000/svg">
<g clip-path="url(#clip0_1624_8965)">
<path d="M17.7859 44H14.4024C14.938 43.6614 15.1154 43.3193 14.9798 42.8836C14.8493 42.4651 14.5241 42.2821 13.9076 42.2821C12.9867 42.2821 12.0659 42.2821 11.105 42.2821C11.105 42.0853 11.105 41.9315 11.105 41.7768C11.105 39.557 11.0963 37.3364 11.1128 35.1166C11.1163 34.6792 10.9798 34.3578 10.6598 34.0604C9.02413 32.5436 7.39717 31.0174 5.77544 29.4851C4.14674 27.9468 3.81196 26.1559 4.75717 24.1441C5.26239 23.069 5.76413 21.9922 6.27196 20.9189C6.79196 19.8189 7.69544 19.4872 8.80326 19.9968C11.4972 21.236 14.1894 22.4804 16.8815 23.7247C16.9798 23.7703 17.0693 23.8339 17.165 23.8906C16.012 25.4658 13.8424 26.0236 11.9833 25.2252C11.2033 24.89 10.4415 24.5119 9.66761 24.163C9.10239 23.9078 8.59022 24.0676 8.37978 24.5463C8.17196 25.0198 8.37196 25.4727 8.91891 25.7314C9.59544 26.0519 10.2798 26.3553 10.9563 26.6767C11.9093 27.1304 12.9059 27.3865 13.9685 27.3204C14.2607 27.3023 14.445 27.4011 14.6285 27.6177C16.2876 29.5797 17.1137 31.8441 17.1789 34.393C17.1946 34.9894 17.5285 35.3349 18.0702 35.3246C18.5859 35.3151 18.9076 34.9602 18.9137 34.3896C18.9285 32.9579 18.6572 31.5768 18.1676 30.2336C17.7189 29.0022 17.0676 27.8815 16.2302 26.8116C17.592 26.1705 18.5911 25.1968 19.2476 23.8725C20.4789 24.3495 21.6198 24.2137 22.7094 23.5065C23.1754 24.34 23.8137 24.9382 24.6963 25.2518C25.5667 25.5612 26.4363 25.4761 27.418 25.1161C26.9754 26.8477 26.5937 28.4573 26.1502 30.0506C25.3746 32.8358 24.872 35.6511 24.9807 38.5558C25.0215 39.6575 24.9876 40.761 24.9876 41.8644V42.2829C23.9328 42.2829 22.9502 42.2778 21.9676 42.2855C21.4746 42.2889 21.1267 42.6069 21.0859 43.0538C21.0433 43.5247 21.3111 43.7972 21.6911 44.0008H18.3076C18.392 43.9475 18.4798 43.8986 18.5598 43.8393C18.9189 43.5711 19.0233 43.1182 18.818 42.7367C18.6198 42.3689 18.1894 42.1893 17.7911 42.3087C17.3833 42.4307 17.0676 42.8596 17.2059 43.2678C17.2998 43.5454 17.5867 43.7585 17.7867 44.0008L17.7859 44Z" fill="white"/>
<path d="M21.6865 44C21.3065 43.7954 21.0387 43.523 21.0813 43.0529C21.1221 42.606 21.47 42.2881 21.963 42.2846C22.9456 42.2769 23.9291 42.2821 24.983 42.2821V41.8636C24.983 40.761 25.0178 39.6567 24.9761 38.555C24.8674 35.6503 25.3691 32.835 26.1456 30.0497C26.5891 28.4573 26.9708 26.8468 27.4134 25.1152C26.4317 25.4744 25.5621 25.5603 24.6917 25.251C23.8091 24.9373 23.1708 24.34 22.7047 23.5056C21.6152 24.2128 20.4743 24.3495 19.243 23.8717C18.5865 25.196 17.5874 26.1696 16.2256 26.8107C17.063 27.8807 17.7143 29.0013 18.163 30.2328C18.6526 31.576 18.923 32.957 18.9091 34.3887C18.903 34.9602 18.5821 35.3143 18.0656 35.3237C17.5239 35.334 17.19 34.9885 17.1743 34.3921C17.1091 31.8432 16.283 29.5788 14.6239 27.6168C14.4404 27.4003 14.2561 27.3014 13.9639 27.3195C12.9021 27.3857 11.9056 27.1296 10.9517 26.6758C10.2761 26.3544 9.59083 26.0502 8.91431 25.7305C8.36735 25.4718 8.16736 25.0189 8.37518 24.5454C8.58475 24.0667 9.09779 23.9078 9.66301 24.1621C10.4369 24.511 11.1987 24.8892 11.9787 25.2243C13.8378 26.0227 16.0074 25.465 17.1604 23.8897C17.0647 23.833 16.9752 23.7685 16.8769 23.7239C14.1847 22.4795 11.4934 21.236 8.79866 19.9959C7.69083 19.4863 6.78822 19.818 6.26736 20.918C5.75953 21.9922 5.25779 23.0682 4.75257 24.1432C3.80736 26.1559 4.14214 27.946 5.77083 29.4843C7.39257 31.0165 9.01953 32.5428 10.6552 34.0596C10.9752 34.356 11.1117 34.6783 11.1082 35.1157C11.0917 37.3355 11.1004 39.5561 11.1004 41.7759C11.1004 41.9306 11.1004 42.0844 11.1004 42.2812C12.0613 42.2812 12.9821 42.2812 13.903 42.2812C14.5195 42.2812 14.8447 42.4643 14.9752 42.8828C15.1108 43.3185 14.9334 43.6614 14.3978 43.9991H9.97344C9.49692 43.7722 9.35344 43.3958 9.35779 42.8802C9.37779 40.4894 9.35953 38.0978 9.37431 35.707C9.37605 35.3753 9.26909 35.1553 9.03083 34.9344C7.54214 33.5551 6.06909 32.1612 4.58649 30.7759C2.41257 28.7443 1.89257 26.1018 3.14736 23.4282C3.58475 22.4958 4.02649 21.5651 4.46649 20.6344C5.1717 19.1408 5.31692 18.9853 6.76475 18.1757C6.76475 16.9425 6.77605 15.6973 6.76214 14.4521C6.74388 12.8846 7.4317 11.7278 8.8717 11.1117C10.2978 10.5015 11.6108 10.8066 12.7343 11.8765C12.7552 11.8963 12.7804 11.9109 12.843 11.9564C13.6761 11.1031 14.7082 10.6889 15.9117 10.8513C17.1204 11.0146 18.0013 11.6935 18.5769 12.7505C20.443 11.5671 22.6561 12.0621 23.8056 14.0318C24.4604 13.6296 25.1595 13.3847 25.9508 13.401C27.7491 13.4371 29.3039 14.9453 29.3143 16.7243C29.3256 18.7575 29.3465 20.7917 29.3056 22.8241C29.2595 25.0817 28.7178 27.2602 28.1482 29.4361C27.6969 31.1609 27.2865 32.8994 26.9526 34.65C26.7717 35.5987 26.7447 36.5844 26.7265 37.5546C26.6926 39.3293 26.703 41.1056 26.7265 42.881C26.7334 43.3967 26.5865 43.7731 26.1108 44H21.6865V44ZM17.3204 22.0034C17.2708 21.4697 17.1865 20.9653 17.183 20.46C17.1674 18.4439 17.1795 16.4286 17.1752 14.4125C17.1734 13.536 16.6995 12.8579 15.9534 12.6353C14.7969 12.2907 13.7169 13.1123 13.7082 14.3635C13.6969 15.9508 13.7752 17.5415 13.6787 19.1228C13.6213 20.0638 13.8926 20.5639 14.8013 20.8699C15.6752 21.1638 16.4934 21.6235 17.3195 22.0034H17.3204ZM22.3813 18.1654C22.3813 17.3361 22.3874 16.5068 22.3795 15.6784C22.37 14.6171 21.6065 13.8221 20.6247 13.8376C19.6508 13.8539 18.9169 14.6317 18.9117 15.6758C18.9047 17.3052 18.9056 18.9354 18.9117 20.5648C18.9152 21.633 19.6595 22.4262 20.6439 22.4271C21.6291 22.4271 22.3717 21.6364 22.3795 20.5665C22.3856 19.7656 22.3804 18.9655 22.3804 18.1646L22.3813 18.1654ZM27.5865 19.4519C27.5865 18.6226 27.5926 17.7933 27.5847 16.9649C27.5752 15.9207 26.8447 15.143 25.8708 15.1267C24.8891 15.1103 24.1221 15.907 24.1169 16.9675C24.11 18.5968 24.1108 20.2271 24.1169 21.8564C24.1204 22.9246 24.8665 23.7178 25.8517 23.7161C26.8369 23.7144 27.5778 22.9229 27.5847 21.853C27.59 21.0521 27.5856 20.252 27.5856 19.451L27.5865 19.4519ZM11.9717 19.5361C11.9717 17.7813 11.9761 16.0952 11.97 14.4091C11.9665 13.3392 11.2195 12.5477 10.2343 12.5494C9.24822 12.5511 8.50822 13.3417 8.50214 14.4134C8.49692 15.314 8.50127 16.2155 8.50127 17.1161C8.50127 17.6948 8.76011 18.0901 9.27779 18.3021C9.43779 18.3674 9.59431 18.4396 9.75083 18.5118C10.4665 18.8418 11.1821 19.1726 11.9717 19.537V19.5361Z" fill="#006099"/>
<path d="M18.3917 4.88279e-06C18.8099 0.301646 18.9447 0.700396 18.9221 1.2143C18.8839 2.09946 18.9152 2.98805 18.9099 3.87493C18.9073 4.45758 18.5552 4.82196 18.0221 4.81079C17.5117 4.80047 17.1812 4.4404 17.1786 3.87407C17.1743 2.98719 17.2056 2.0986 17.1665 1.21344C17.1439 0.699536 17.2778 0.300786 17.6969 -0.000854492H18.3908L18.3917 4.88279e-06Z" fill="#006099"/>
<path d="M35.9988 10.6563C35.7483 10.8815 35.524 11.147 35.2431 11.3249C34.6474 11.7013 34.0248 12.0365 33.4083 12.3794C32.8796 12.6733 32.3866 12.5753 32.1188 12.137C31.8414 11.6824 31.9996 11.1883 32.5361 10.8755C33.1701 10.5059 33.8101 10.145 34.4483 9.78147C35.1675 9.3724 35.5361 9.45834 35.9979 10.1407V10.6563H35.9988Z" fill="#006099"/>
<path d="M17.7857 43.9999C17.5849 43.7576 17.2988 43.5445 17.2049 43.2669C17.0666 42.8596 17.3823 42.4299 17.7901 42.3078C18.1883 42.1884 18.6188 42.368 18.817 42.7358C19.0223 43.1165 18.9179 43.5694 18.5588 43.8384C18.4788 43.8977 18.391 43.9467 18.3066 43.9999H17.7857V43.9999Z" fill="#006099"/>
<path d="M11.1094 5.98725C11.0938 6.43412 10.8938 6.72201 10.5155 6.84147C10.1451 6.95748 9.76506 6.89303 9.55115 6.54842C9.06071 5.75779 8.59202 4.95256 8.14767 4.13529C7.93376 3.74084 8.1068 3.28365 8.48419 3.05592C8.86158 2.82818 9.36941 2.87889 9.60593 3.25358C10.1172 4.06483 10.5807 4.90615 11.0564 5.73889C11.1033 5.82053 11.0981 5.93139 11.1094 5.98811V5.98725Z" fill="#006099"/>
<path d="M28.0276 3.88863C27.9928 3.97715 27.9458 4.15761 27.8563 4.31402C27.4676 4.99894 27.0719 5.68043 26.6684 6.35761C26.3615 6.87238 25.8832 7.02965 25.4293 6.78043C24.9606 6.52347 24.8493 6.01816 25.1571 5.48105C25.5632 4.77293 25.971 4.06566 26.3945 3.36785C26.6249 2.988 27.0241 2.83418 27.3936 2.95965C27.7867 3.09371 28.0076 3.36871 28.0267 3.88863H28.0276Z" fill="#006099"/>
<path d="M1.07973 9.53394C1.16408 9.56745 1.34495 9.61815 1.50408 9.70581C2.19539 10.0908 2.88408 10.481 3.56669 10.8814C4.08408 11.1848 4.23799 11.666 3.98234 12.1138C3.72669 12.5607 3.21886 12.6784 2.70408 12.3905C1.97539 11.9832 1.2493 11.5715 0.532777 11.1435C0.152777 10.9175 0.00147299 10.5153 0.131908 10.1501C0.271038 9.76167 0.549299 9.54425 1.07973 9.53394Z" fill="#006099"/>
<path d="M17.3201 22.0034C16.4931 21.6235 15.6757 21.1638 14.8018 20.8699C13.8931 20.5639 13.6218 20.0638 13.6792 19.1228C13.7757 17.5415 13.6975 15.9499 13.7088 14.3635C13.7175 13.1123 14.7975 12.2907 15.954 12.6353C16.7001 12.8579 17.174 13.536 17.1757 14.4125C17.1801 16.4286 17.1679 18.4447 17.1835 20.4599C17.1879 20.9653 17.2714 21.4688 17.3209 22.0034H17.3201Z" fill="white"/>
<path d="M22.3795 18.1655C22.3795 18.9664 22.3839 19.7665 22.3787 20.5674C22.3708 21.6365 21.6282 22.428 20.643 22.428C19.6587 22.428 18.9143 21.6339 18.9108 20.5657C18.9056 18.9363 18.9039 17.3061 18.9108 15.6767C18.9152 14.6326 19.6491 13.8548 20.6239 13.8385C21.6056 13.8222 22.3691 14.618 22.3787 15.6793C22.3856 16.5086 22.3804 17.3379 22.3804 18.1663L22.3795 18.1655Z" fill="white"/>
<path d="M27.5827 19.4519C27.5827 20.2529 27.587 21.053 27.5818 21.8539C27.574 22.9238 26.834 23.7153 25.8487 23.717C24.8635 23.7187 24.1174 22.9255 24.114 21.8573C24.1087 20.228 24.107 18.5977 24.114 16.9683C24.1183 15.9079 24.8861 15.1112 25.8679 15.1276C26.8418 15.1439 27.5722 15.9208 27.5818 16.9658C27.5896 17.7951 27.5835 18.6244 27.5835 19.4528L27.5827 19.4519Z" fill="white"/>
<path d="M11.9721 19.5362C11.1826 19.1718 10.4678 18.8401 9.75126 18.5109C9.59474 18.4387 9.43735 18.3666 9.27822 18.3012C8.76054 18.0887 8.5017 17.6934 8.5017 17.1153C8.5017 16.2147 8.49735 15.3132 8.50257 14.4126C8.50865 13.3418 9.24779 12.5503 10.2347 12.5486C11.22 12.5469 11.9669 13.3392 11.9704 14.4083C11.9765 16.0944 11.9721 17.7805 11.9721 19.5353V19.5362Z" fill="white"/>
</g>
<defs>
<clipPath id="clip0_1624_8965">
<rect width="36" height="44" fill="white"/>
</clipPath>
</defs>
</svg>
