<?xml version="1.0" encoding="utf-8"?>
<!-- Generator: Adobe Illustrator 23.0.5, SVG Export Plug-In . SVG Version: 6.00 Build 0)  -->
<svg version="1.1" id="Capa_1" xmlns="http://www.w3.org/2000/svg" xmlns:xlink="http://www.w3.org/1999/xlink" x="0px" y="0px"
	 viewBox="0 0 100 100" style="enable-background:new 0 0 100 100;" xml:space="preserve">
<path d="M50,26.6v-9.4c0-5.2-4.2-9.4-9.4-9.4H12.5c-5.2,0-9.4,4.2-9.4,9.4v65.7c0,5.2,4.2,9.4,9.4,9.4h75c5.2,0,9.4-4.2,9.4-9.4
	V35.9c0-5.2-4.2-9.4-9.4-9.4H50z M21.9,82.8h-9.4v-9.4h9.4V82.8z M21.9,64.1h-9.4v-9.4h9.4V64.1z M21.9,45.3h-9.4v-9.4h9.4V45.3z
	 M21.9,26.6h-9.4v-9.4h9.4V26.6z M40.6,82.8h-9.4v-9.4h9.4V82.8z M40.6,64.1h-9.4v-9.4h9.4V64.1z M40.6,45.3h-9.4v-9.4h9.4V45.3z
	 M40.6,26.6h-9.4v-9.4h9.4V26.6z M82.8,82.8H50v-9.4h9.4v-9.4H50v-9.4h9.4v-9.4H50v-9.4h32.8c2.6,0,4.7,2.1,4.7,4.7v37.5
	C87.5,80.7,85.4,82.8,82.8,82.8z M78.1,45.3h-9.4v9.4h9.4V45.3z M78.1,64.1h-9.4v9.4h9.4V64.1z"/>
</svg>
