<?xml version="1.0" encoding="utf-8"?>
<!-- Generator: Adobe Illustrator 23.0.5, SVG Export Plug-In . SVG Version: 6.00 Build 0)  -->
<svg version="1.1" id="Capa_1" xmlns="http://www.w3.org/2000/svg" xmlns:xlink="http://www.w3.org/1999/xlink" x="0px" y="0px"
	 viewBox="0 0 100 100" style="enable-background:new 0 0 100 100;" xml:space="preserve">
<g>
	<path d="M12.6,38.4c0.7,0,1.5-0.3,2-0.9c0.9-1.1,0.8-2.7-0.3-3.7L6,26.6c-1.1-0.9-2.7-0.8-3.7,0.3c-0.9,1.1-0.8,2.7,0.3,3.7
		l8.3,7.2C11.4,38.1,12,38.4,12.6,38.4z"/>
	<path d="M27.2,24.6c0.4,1.1,1.4,1.7,2.4,1.7c0.3,0,0.6-0.1,0.9-0.2c1.3-0.5,2-2,1.6-3.3L27.2,9.6c-0.5-1.3-2-2-3.3-1.6
		c-1.3,0.5-2,2-1.6,3.3L27.2,24.6z"/>
	<path d="M49.7,26.3c1.4,0,2.6-1.2,2.6-2.6V5.2c0-1.4-1.2-2.6-2.6-2.6c-1.4,0-2.6,1.2-2.6,2.6v18.5C47.1,25.1,48.3,26.3,49.7,26.3z"
		/>
	<path d="M97.1,26.9c-0.9-1.1-2.6-1.2-3.7-0.3l-8.3,7.2c-1.1,0.9-1.2,2.6-0.3,3.7c0.5,0.6,1.2,0.9,2,0.9c0.6,0,1.2-0.2,1.7-0.6
		l8.3-7.2C97.9,29.6,98,27.9,97.1,26.9z"/>
	<path d="M68.9,26.2c0.3,0.1,0.6,0.2,0.9,0.2c1.1,0,2.1-0.7,2.4-1.7l4.8-13.3c0.5-1.3-0.2-2.8-1.6-3.3c-1.3-0.5-2.8,0.2-3.3,1.6
		l-4.8,13.3C66.9,24.2,67.6,25.7,68.9,26.2z"/>
	<path d="M90.8,52.2c0-0.1,0-0.2,0-0.4c0-0.1-0.1-0.3-0.1-0.4c0-0.1,0-0.2-0.1-0.3c0,0,0,0,0,0c0,0,0,0,0,0
		c-0.1-0.2-0.2-0.4-0.4-0.6L73.9,31.6c0,0-0.1-0.1-0.1-0.1c-0.1-0.1-0.2-0.2-0.3-0.2c-0.1-0.1-0.2-0.1-0.3-0.2
		C73.2,31,73.1,31,73,31c-0.1,0-0.2-0.1-0.3-0.1c-0.1,0-0.2,0-0.3-0.1c-0.1,0-0.2,0-0.4,0c0,0,0,0-0.1,0H49.7H27.4c0,0-0.1,0-0.1,0
		c-0.1,0-0.2,0-0.3,0c-0.1,0-0.2,0-0.3,0.1c-0.1,0-0.2,0.1-0.3,0.1c-0.1,0-0.2,0.1-0.3,0.2c-0.1,0-0.2,0.1-0.2,0.2
		c-0.1,0.1-0.2,0.2-0.3,0.3c0,0-0.1,0.1-0.1,0.1L9.2,50.5c0,0,0,0,0,0c-0.2,0.2-0.3,0.4-0.4,0.6c0,0,0,0,0,0c0,0,0,0,0,0
		c0,0.1,0,0.1-0.1,0.2c-0.1,0.2-0.1,0.3-0.1,0.5c0,0.1,0,0.2,0,0.3c0,0.1,0,0.3,0,0.4c0,0.1,0.1,0.3,0.1,0.4c0,0.1,0,0.2,0.1,0.3
		c0,0,0,0,0,0C8.9,53.4,9,53.5,9,53.6c0.1,0.1,0.1,0.2,0.2,0.3c0,0,0,0,0,0l38.5,42.4c0,0,0,0,0.1,0.1c0,0,0.1,0.1,0.1,0.1
		c0,0,0.1,0.1,0.1,0.1c0,0,0,0,0.1,0.1c0,0,0.1,0,0.1,0.1c0,0,0.1,0,0.1,0.1c0,0,0,0,0,0c0,0,0,0,0,0c0.1,0,0.1,0.1,0.2,0.1
		c0,0,0.1,0,0.1,0.1c0.1,0,0.1,0.1,0.2,0.1c0,0,0.1,0,0.1,0c0,0,0,0,0,0c0,0,0.1,0,0.1,0c0.2,0,0.3,0,0.5,0c0,0,0,0,0,0c0,0,0,0,0,0
		c0,0,0,0,0,0c0.2,0,0.3,0,0.5,0c0,0,0.1,0,0.1,0c0,0,0,0,0,0c0,0,0.1,0,0.1,0c0.1,0,0.2-0.1,0.2-0.1c0,0,0.1,0,0.1,0
		c0.1,0,0.2-0.1,0.2-0.1c0,0,0,0,0,0c0,0,0,0,0,0c0,0,0.1,0,0.1-0.1c0,0,0,0,0,0c0,0,0.1-0.1,0.1-0.1c0,0,0.1,0,0.1-0.1
		c0,0,0.1-0.1,0.1-0.1c0,0,0,0,0,0l38.5-42.4c0,0,0,0,0,0c0.1-0.1,0.2-0.3,0.3-0.4c0-0.1,0.1-0.1,0.1-0.2c0,0,0,0,0,0
		c0-0.1,0.1-0.2,0.1-0.3c0-0.1,0.1-0.2,0.1-0.4C90.8,52.4,90.8,52.3,90.8,52.2z M49.7,37.3l10.4,12.2H39.3L49.7,37.3z M62,54.8
		L49.7,87.2L37.4,54.8H62z M73,38.5l9.5,11H69.4L73,38.5z M68.4,35.9l-3.6,11l-9.4-11H68.4z M44.1,35.9l-9.4,11l-3.6-11H44.1z
		 M26.4,38.5l3.6,11.1H16.9L26.4,38.5z M17.1,54.8h14.8l10.6,27.9L17.1,54.8z M57,82.7l10.6-27.9h14.8L57,82.7z"/>
</g>
</svg>
