<?xml version="1.0" encoding="utf-8"?>
<!-- Generator: Adobe Illustrator 23.0.5, SVG Export Plug-In . SVG Version: 6.00 Build 0)  -->
<svg version="1.1" id="Capa_1" xmlns="http://www.w3.org/2000/svg" xmlns:xlink="http://www.w3.org/1999/xlink" x="0px" y="0px"
	 viewBox="0 0 100 100" style="enable-background:new 0 0 100 100;" xml:space="preserve">
<path d="M83.9,11.3H79V6.4c0-2.7-2.2-4.8-4.8-4.8c-2.7,0-4.8,2.2-4.8,4.8v4.8H30.6V6.4c0-2.7-2.2-4.8-4.8-4.8S21,3.8,21,6.4v4.8
	h-4.8c-5.4,0-9.6,4.4-9.6,9.7l0,67.8c0,5.3,4.3,9.7,9.7,9.7h67.8c5.3,0,9.7-4.4,9.7-9.7V21C93.6,15.6,89.2,11.3,83.9,11.3z
	 M83.9,83.9c0,2.7-2.2,4.8-4.8,4.8H21c-2.7,0-4.8-2.2-4.8-4.8V35.5h67.8V83.9z M25.8,45.2h9.7v9.7h-9.7V45.2z M45.2,45.2h9.7v9.7
	h-9.7V45.2z M64.5,45.2h9.7v9.7h-9.7V45.2z"/>
</svg>
