<?xml version="1.0" encoding="utf-8"?>
<!-- Generator: Adobe Illustrator 23.0.5, SVG Export Plug-In . SVG Version: 6.00 Build 0)  -->
<svg version="1.1" id="Capa_1" xmlns="http://www.w3.org/2000/svg" xmlns:xlink="http://www.w3.org/1999/xlink" x="0px" y="0px"
	 viewBox="0 0 100 100" style="enable-background:new 0 0 100 100;" xml:space="preserve">
<path d="M66.6,4.3H33.4C27.7,4.3,23,9,23,14.7v70.6c0,5.7,4.6,10.4,10.4,10.4h33.2C72.3,95.7,77,91,77,85.3V14.7
	C77,9,72.3,4.3,66.6,4.3z M50,91.5c-3.4,0-6.2-2.8-6.2-6.2c0-3.4,2.8-6.2,6.2-6.2s6.2,2.8,6.2,6.2C56.2,88.7,53.4,91.5,50,91.5z
	 M68.7,74.9H31.3V16.8h37.4V74.9z"/>
</svg>
