<?xml version="1.0" encoding="utf-8"?>
<!-- Generator: Adobe Illustrator 23.0.5, SVG Export Plug-In . SVG Version: 6.00 Build 0)  -->
<svg version="1.1" id="Capa_1" xmlns="http://www.w3.org/2000/svg" xmlns:xlink="http://www.w3.org/1999/xlink" x="0px" y="0px"
	 viewBox="0 0 100 100" style="enable-background:new 0 0 100 100;" xml:space="preserve">
<path d="M96.8,91.3h-5.5V51.1l5.5,5.5V25.3H65.5l9.8,9.8l-9.5,9.5L44.6,28.8L8.7,54.4V3.2H3.2v93.6h93.6V91.3z M41.8,51.1v40.2H25.3
	V62.8L41.8,51.1z M47.2,51.3l16.6,12.4v27.6H47.2V51.3L47.2,51.3z M69.4,64.4l16.5-16.5v43.4H69.4V64.4L69.4,64.4z M44.6,35.6
	l21.8,16.2l16.7-16.7l-4.3-4.3h12.6v12.6L87,39.1L66.9,59.1L44.5,42.5L8.7,67.9v-6.7L44.6,35.6z M8.7,74.6l11.2-7.9v24.6H8.7V74.6z"
	/>
</svg>
