<svg width="40" height="38" viewBox="0 0 40 38" fill="none" xmlns="http://www.w3.org/2000/svg">
<g clip-path="url(#clip0_1353_589)">
<path d="M40.0023 23.6341L36.9549 30.8584C36.1083 32.8654 34.4798 34.4405 32.4456 35.2197L25.1875 38C25.2875 37.9761 25.3859 37.9459 25.4875 37.9297C26.3305 37.7961 27.1844 37.7096 28.0164 37.5242C29.7125 37.1465 31.2859 36.4568 32.7492 35.5261C33.232 35.2187 33.3367 34.7476 33.0352 34.3437C32.8266 34.0641 32.3563 33.9189 31.7813 34.2734C28.4563 36.3201 24.8547 36.8886 21.0547 36.0444C13.3133 34.3251 8.52891 26.4965 10.5234 18.8841C12.3672 11.848 19.2188 7.36984 26.4672 8.50984C30.1633 9.09065 33.1945 10.8671 35.4781 13.809C37.7617 16.7501 38.6836 20.113 38.35 23.7963C38.1516 25.9906 37.4281 28.0273 36.2367 29.8957C35.9172 30.3969 35.9898 30.8518 36.4078 31.1059C36.8234 31.3585 37.2602 31.2117 37.5805 30.7082C38.6133 29.0831 39.3281 27.3314 39.6945 25.4438C39.8109 24.8429 39.9008 24.2374 40.0031 23.6334L40.0023 23.6341ZM24.2539 10.3813C17.5852 10.3766 12.1516 15.7708 12.1586 22.3868C12.1656 28.9974 17.5711 34.3606 24.232 34.3668C30.9203 34.373 36.3336 29.0206 36.3461 22.3891C36.3586 15.7762 30.9305 10.3851 24.2539 10.3813ZM34.8305 32.0799C34.4008 32.0853 34.0547 32.4483 34.0641 32.8847C34.0727 33.3002 34.4195 33.6454 34.832 33.6501C35.2516 33.6547 35.6297 33.2824 35.6297 32.8638C35.6297 32.4452 35.2508 32.0745 34.8305 32.0799Z" fill="white"/>
<path d="M39.9989 23.6341C39.8966 24.2373 39.8067 24.8436 39.6903 25.4445C39.3239 27.3314 38.6091 29.0831 37.5762 30.7089C37.2567 31.2125 36.82 31.3585 36.4036 31.1067C35.9856 30.8526 35.913 30.3976 36.2325 29.8964C37.4239 28.028 38.1473 25.9913 38.3458 23.7971C38.6786 20.1137 37.7575 16.7509 35.4739 13.8097C33.1903 10.8678 30.1598 9.09216 26.463 8.51057C19.2145 7.37057 12.363 11.8495 10.5192 18.8849C8.52468 26.4972 13.3083 34.3259 21.0505 36.0451C24.8497 36.8893 28.452 36.3209 31.777 34.2741C32.3528 33.9196 32.8223 34.0648 33.0309 34.3444C33.3325 34.7483 33.2278 35.2195 32.745 35.5269C31.2817 36.4568 29.7083 37.1465 28.0122 37.525C27.1809 37.7103 26.327 37.7968 25.4833 37.9304C25.3825 37.9467 25.2833 37.9768 25.1833 38.0007H23.3122C22.6091 37.898 21.8973 37.8354 21.2051 37.6848C15.8106 36.5147 11.9731 33.4353 9.73874 28.4266C9.57156 28.052 9.38952 27.9215 8.97624 27.9284C7.37859 27.9547 5.78015 27.9408 4.18171 27.9377C3.61062 27.9361 3.25437 27.6844 3.19968 27.2596C3.13249 26.739 3.50202 26.359 4.10593 26.3559C5.5739 26.3497 7.04265 26.3536 8.5114 26.3536C8.65281 26.3536 8.79421 26.3536 8.95906 26.3536C8.80046 25.3657 8.64734 24.4111 8.48562 23.4024C8.35515 23.4024 8.20515 23.4024 8.05515 23.4024C7.08093 23.4024 6.10593 23.4055 5.13171 23.4009C4.61999 23.3985 4.29499 23.1004 4.28874 22.6424C4.28327 22.1666 4.61218 21.8608 5.14656 21.8592C6.2489 21.8561 7.35124 21.8585 8.45593 21.8585C8.58484 20.8698 8.71062 19.9075 8.84031 18.9111H8.39812C5.98093 18.9111 3.56452 18.9127 1.14734 18.9088C0.967649 18.9088 0.779368 18.8988 0.611399 18.8439C0.251243 18.7281 0.0676491 18.4655 0.0785866 18.0839C0.0887429 17.7333 0.317649 17.4491 0.67468 17.3718C0.83718 17.3371 1.00906 17.3317 1.17702 17.3309C3.76296 17.3286 6.3489 17.3224 8.93484 17.3378C9.2528 17.3394 9.37468 17.232 9.48952 16.954C9.84343 16.1021 10.2372 15.2664 10.6372 14.3759C10.5216 14.3759 10.3887 14.3759 10.2559 14.3759C8.89187 14.3751 7.52702 14.3797 6.16296 14.3689C5.70906 14.365 5.39421 14.0407 5.38484 13.6205C5.37546 13.1949 5.71218 12.8512 6.16765 12.8257C6.27156 12.8196 6.37546 12.8242 6.47937 12.8242C8.11687 12.8242 9.75437 12.8157 11.3911 12.8319C11.6841 12.835 11.8583 12.7377 12.0395 12.5199C14.2575 9.85756 17.0466 8.08037 20.4364 7.25008C20.6934 7.18675 20.7973 7.08557 20.7825 6.81061C20.7559 6.32248 20.7739 5.83281 20.7716 5.3439C20.7716 5.30683 20.7575 5.26898 20.7614 5.28829C20.3661 5.04268 19.9684 4.86427 19.6567 4.59008C18.8716 3.89882 18.6122 3.00675 18.8661 2.00191C19.1255 0.976993 19.8145 0.35061 20.8403 0.0795129C20.913 0.060204 20.9817 0.0269926 21.052 0.000732422C23.1833 0.000732422 25.3145 0.000732422 27.4458 0.000732422C27.5278 0.030082 27.6083 0.0663828 27.6926 0.0880088C29.0981 0.4487 29.9598 1.83894 29.6286 3.23691C29.3848 4.26801 28.6981 4.89362 27.7067 5.2126V7.14813C27.777 7.16512 27.8262 7.17671 27.8755 7.18984C34.1122 8.86508 38.0356 12.8026 39.6216 19.0077C39.802 19.7128 39.8762 20.4443 39.9997 21.1641V23.6357L39.9989 23.6341ZM24.2411 3.71268C25.1505 3.71268 26.0606 3.71655 26.97 3.71114C27.6325 3.70805 28.1153 3.26394 28.1278 2.66073C28.1395 2.08146 27.6887 1.59102 27.0372 1.58329C25.1661 1.56167 23.295 1.5609 21.4239 1.58561C20.7661 1.59411 20.3341 2.0776 20.3481 2.67077C20.3622 3.27244 20.845 3.70882 21.5122 3.71191C22.4216 3.71655 23.3317 3.71268 24.2411 3.71268ZM26.0958 6.82915V5.30606H22.3934V6.82915H26.0958Z" fill="#006099"/>
<path d="M0.0782062 27.1584C0.0719562 26.7297 0.427425 26.3613 0.851644 26.3582C1.27508 26.3551 1.63758 26.7204 1.63602 27.1476C1.63446 27.5646 1.2993 27.9091 0.882112 27.9245C0.454769 27.9408 0.0852374 27.5878 0.0789874 27.1576L0.0782062 27.1584Z" fill="#006099"/>
<path d="M24.2508 10.3812C30.9274 10.3858 36.3563 15.7769 36.3438 22.3891C36.3313 29.0213 30.918 34.373 24.2297 34.3668C17.5688 34.3606 12.1633 28.9966 12.1563 22.3867C12.1492 15.77 17.5828 10.3766 24.2516 10.3812H24.2508ZM24.2445 11.9615C18.4352 11.9638 13.7203 16.6334 13.7211 22.3837C13.7227 28.12 18.4711 32.8221 24.2547 32.8151C30.05 32.8074 34.7797 28.1153 34.7773 22.3744C34.775 16.625 30.0563 11.9599 24.2445 11.9622V11.9615Z" fill="#006099"/>
<path d="M34.8291 32.0799C35.2502 32.0745 35.6283 32.4452 35.6283 32.8638C35.6283 33.2825 35.2502 33.6555 34.8307 33.6501C34.4182 33.6455 34.0713 33.2994 34.0627 32.8847C34.0533 32.4483 34.3994 32.0853 34.8291 32.0799Z" fill="#006099"/>
<path d="M24.2449 3.71271C23.3355 3.71271 22.4253 3.7158 21.516 3.71194C20.8488 3.70885 20.366 3.2717 20.3519 2.6708C20.3378 2.07763 20.7699 1.59414 21.4277 1.58564C23.2988 1.5617 25.1699 1.5617 27.041 1.58332C27.6917 1.59105 28.1433 2.08149 28.1316 2.66076C28.1191 3.26397 27.6355 3.70808 26.9738 3.71117C26.0644 3.7158 25.1542 3.71271 24.2449 3.71271Z" fill="white"/>
<path d="M26.093 6.82912H22.3906V5.30603H26.093V6.82912Z" fill="white"/>
<path d="M24.2422 11.9615C30.0539 11.9591 34.7734 16.6242 34.775 22.3736C34.7773 28.1146 30.0477 32.8066 24.2523 32.8144C18.4687 32.8221 13.7203 28.1192 13.7188 22.3829C13.7172 16.6327 18.4328 11.963 24.2422 11.9607V11.9615ZM21.8133 22.3242C21.8523 23.397 22.3289 24.1585 23.2844 24.5787C24.2148 24.9873 25.0977 24.8336 25.8539 24.1694C26.6406 23.4789 26.8477 22.5961 26.5398 21.6121C26.4664 21.3773 26.4945 21.2514 26.6641 21.0853C27.8195 19.9554 28.9664 18.8169 30.1086 17.6754C30.2516 17.5325 30.3945 17.3657 30.4672 17.1826C30.6039 16.8389 30.4445 16.4689 30.1312 16.2836C29.782 16.0774 29.4508 16.1252 29.1141 16.4566C27.9258 17.6267 26.7406 18.7991 25.5617 19.9785C25.3969 20.1431 25.2688 20.1963 25.0273 20.1067C24.5023 19.9121 23.9516 19.9198 23.4281 20.1176C23.2141 20.1987 23.1008 20.15 22.9586 20.0063C22.4875 19.5267 22.0094 19.054 21.5281 18.5852C21.1547 18.2214 20.6742 18.1913 20.3508 18.4995C20.0094 18.8246 20.0313 19.2981 20.4188 19.6912C20.8172 20.0967 21.207 20.5146 21.6359 20.8861C21.9539 21.1618 22.0984 21.4228 21.893 21.8299C21.8164 21.982 21.8328 22.1798 21.8125 22.3234L21.8133 22.3242ZM16.2898 23.1815C16.2906 23.173 16.2914 23.1653 16.2922 23.1568C16.4086 23.1568 16.5266 23.1661 16.6422 23.1552C17.0961 23.1143 17.4023 22.8046 17.4117 22.3868C17.4211 21.9635 17.1398 21.6407 16.6742 21.5997C16.3672 21.5727 16.05 21.5789 15.7461 21.6244C15.3688 21.6808 15.1648 21.9426 15.1297 22.3157C15.0953 22.6779 15.3133 22.9992 15.6789 23.102C15.8742 23.1568 16.0859 23.1576 16.2898 23.1823V23.1815ZM25.0289 14.4824C25.0289 14.3411 25.0383 14.199 25.0273 14.0592C24.9945 13.6491 24.7031 13.3702 24.2984 13.3548C23.8742 13.3378 23.5211 13.6043 23.4812 14.0128C23.4516 14.3179 23.4523 14.6307 23.4812 14.9358C23.5188 15.3452 23.8687 15.6163 24.2914 15.6031C24.6945 15.5908 24.9938 15.312 25.0281 14.9057C25.0398 14.7651 25.0297 14.6238 25.0305 14.4824H25.0289ZM23.4219 30.2555C23.4352 30.2578 23.4477 30.2594 23.4609 30.2617C23.4609 30.3899 23.4555 30.5189 23.4617 30.6471C23.4844 31.0843 23.8062 31.4118 24.2203 31.4226C24.6375 31.4341 25.0008 31.0858 25.0203 30.6425C25.0312 30.3861 25.0336 30.1281 25.018 29.8717C24.9953 29.5063 24.7359 29.2175 24.3688 29.1541C24.0086 29.0916 23.7117 29.2345 23.5617 29.5511C23.4617 29.7612 23.4648 30.0192 23.4219 30.2555ZM32.2406 21.6213C32.2406 21.6213 32.2406 21.6198 32.2406 21.619C32.1109 21.619 31.9813 21.6136 31.8516 21.6198C31.3984 21.6437 31.0883 21.9488 31.0805 22.3713C31.0727 22.8092 31.393 23.1437 31.8563 23.1645C32.1148 23.1761 32.3758 23.18 32.6336 23.1622C33.0656 23.1321 33.3766 22.7845 33.3664 22.3667C33.3562 21.9573 33.057 21.6515 32.6297 21.6221C32.5008 21.6136 32.3703 21.6206 32.2406 21.6206V21.6213Z" fill="white"/>
<path d="M21.8193 22.3234C21.8404 22.1797 21.8232 21.982 21.8998 21.8298C22.106 21.4228 21.9615 21.1617 21.6427 20.886C21.2138 20.5145 20.824 20.0967 20.4255 19.6912C20.038 19.2973 20.0162 18.8246 20.3576 18.4994C20.681 18.1913 21.1615 18.2214 21.5349 18.5852C22.0162 19.054 22.4943 19.5267 22.9654 20.0063C23.1068 20.1507 23.2209 20.1986 23.4349 20.1175C23.9591 19.9198 24.5091 19.9121 25.0341 20.1067C25.2755 20.1963 25.4045 20.143 25.5685 19.9785C26.7474 18.7991 27.9334 17.6267 29.1209 16.4565C29.4568 16.1252 29.7881 16.0773 30.1381 16.2835C30.4506 16.4681 30.6099 16.8389 30.474 17.1826C30.4013 17.3656 30.2584 17.5324 30.1154 17.6753C28.9724 18.8176 27.8256 19.9561 26.6709 21.0853C26.5013 21.2513 26.4732 21.3772 26.5466 21.612C26.8545 22.596 26.6474 23.4788 25.8607 24.1693C25.1045 24.8335 24.2216 24.9872 23.2912 24.5787C22.3357 24.1585 21.8591 23.397 21.8201 22.3241L21.8193 22.3234ZM24.2427 21.5425C23.7834 21.5464 23.4013 21.9194 23.3959 22.3689C23.3896 22.8269 23.7982 23.2293 24.263 23.2232C24.7138 23.217 25.1037 22.8324 25.1099 22.3883C25.1162 21.9248 24.7201 21.5387 24.2427 21.5433V21.5425Z" fill="#006099"/>
<path d="M16.2887 23.1816C16.0848 23.1561 15.8731 23.1561 15.6778 23.1012C15.3121 22.9985 15.0942 22.6772 15.1285 22.315C15.1637 21.9419 15.3676 21.6801 15.745 21.6237C16.0489 21.5781 16.366 21.572 16.6731 21.599C17.1395 21.6399 17.42 21.9628 17.4106 22.386C17.4012 22.8039 17.095 23.1136 16.641 23.1545C16.5254 23.1653 16.4075 23.1561 16.291 23.1561C16.2903 23.1646 16.2895 23.1723 16.2887 23.1808V23.1816Z" fill="#006099"/>
<path d="M25.0315 14.4824C25.0315 14.6238 25.0409 14.7659 25.0292 14.9057C24.9948 15.312 24.6964 15.5908 24.2925 15.6031C23.8706 15.6163 23.5206 15.3452 23.4823 14.9358C23.4542 14.63 23.4534 14.3179 23.4823 14.0129C23.5222 13.6043 23.8753 13.3378 24.2995 13.3548C24.7042 13.371 24.9956 13.6491 25.0284 14.0592C25.0394 14.1998 25.03 14.3411 25.03 14.4824H25.0315Z" fill="#006099"/>
<path d="M23.4219 30.2556C23.4648 30.0192 23.4617 29.7612 23.5617 29.5512C23.7117 29.2345 24.0094 29.0916 24.3687 29.1542C24.7352 29.2183 24.9953 29.5071 25.018 29.8717C25.0336 30.1281 25.0312 30.3861 25.0203 30.6425C25.0008 31.0858 24.6375 31.4342 24.2203 31.4226C23.8063 31.411 23.4844 31.0843 23.4617 30.6471C23.4555 30.5189 23.4609 30.3899 23.4609 30.2617C23.4477 30.2594 23.4352 30.2579 23.4219 30.2556Z" fill="#006099"/>
<path d="M32.2462 21.6214C32.3759 21.6214 32.5056 21.6137 32.6353 21.6229C33.0626 21.6523 33.3619 21.9574 33.372 22.3675C33.3822 22.7853 33.0712 23.1337 32.6392 23.163C32.3814 23.1808 32.1205 23.1769 31.8619 23.1653C31.3986 23.1445 31.0783 22.81 31.0861 22.3721C31.0939 21.9489 31.404 21.6446 31.8572 21.6206C31.9861 21.6137 32.1165 21.6198 32.2462 21.6198C32.2462 21.6198 32.2462 21.6214 32.2462 21.6222V21.6214Z" fill="#006099"/>
<path d="M24.2376 21.5425C24.7149 21.5379 25.111 21.9241 25.1047 22.3875C25.0985 22.8316 24.7086 23.2162 24.2579 23.2224C23.7938 23.2294 23.3852 22.8269 23.3907 22.3682C23.3961 21.9194 23.779 21.5464 24.2376 21.5417V21.5425Z" fill="white"/>
</g>
<defs>
<clipPath id="clip0_1353_589">
<rect width="40" height="38" fill="white"/>
</clipPath>
</defs>
</svg>
