<?xml version="1.0" encoding="utf-8"?>
<!-- Generator: Adobe Illustrator 23.0.5, SVG Export Plug-In . SVG Version: 6.00 Build 0)  -->
<svg version="1.1" id="Capa_1" xmlns="http://www.w3.org/2000/svg" xmlns:xlink="http://www.w3.org/1999/xlink" x="0px" y="0px"
	 viewBox="0 0 100 100" style="enable-background:new 0 0 100 100;" xml:space="preserve">
<path d="M93.4,6.7c-2.7-2.7-7-2.7-9.7,0L50,40.3L16.3,6.6c-2.7-2.7-7-2.7-9.7,0c-2.7,2.7-2.7,7,0,9.7L40.3,50L6.6,83.7
	c-2.7,2.7-2.7,7,0,9.7c2.7,2.7,7,2.7,9.7,0L50,59.7l33.7,33.7c2.7,2.7,7,2.7,9.7,0c2.7-2.7,2.7-7,0-9.7L59.7,50l33.7-33.7
	C96,13.7,96,9.3,93.4,6.7z"/>
</svg>
