<svg width="56" height="56" viewBox="0 0 56 56" fill="none" xmlns="http://www.w3.org/2000/svg">
<g clip-path="url(#clip0_1186_2810)">
<path d="M28.0777 14.0893C23.3454 14.0893 18.6077 14.0522 13.8754 14.1318C13.184 14.1424 12.3105 14.5349 11.8496 15.0388C9.53967 17.5585 7.37449 20.2055 5.08604 22.741C4.28214 23.6322 4.25534 24.29 4.96814 25.266C10.6437 33.0902 16.2657 40.9568 21.9091 48.8075C23.4365 50.9346 24.9532 53.0618 26.4967 55.173C27.3113 56.2869 28.0724 56.2604 28.7637 55.173C29.0746 54.6903 29.3908 54.2075 29.7391 53.7461C36.8349 44.2615 43.9254 34.7823 51.0319 25.3084C51.6 24.5552 52.0448 23.9292 51.2141 23.0063C48.8131 20.3328 46.5193 17.5585 44.1022 14.8956C43.6949 14.4447 42.9017 14.1265 42.28 14.1159C37.5477 14.0522 32.8154 14.0787 28.0777 14.0787V14.0893Z" fill="#CCDFEB"/>
<path d="M38.5077 2.6308C38.2773 2.32314 38.0683 1.78208 37.7788 1.73964C37.4037 1.68129 36.7231 1.90939 36.5944 2.19583C36.0317 3.43179 35.5761 4.72079 35.2064 6.02571C35.126 6.30154 35.5011 6.90626 35.7959 7.01765C36.096 7.13435 36.7981 6.93278 36.9106 6.68877C37.5002 5.41568 37.9557 4.08425 38.5131 2.6308H38.5077Z" fill="#CCDFEB"/>
<path d="M18.3834 54.9182C18.93 54.6158 19.2784 54.5416 19.3534 54.3559C19.9108 52.9767 20.4521 51.587 20.8808 50.1706C20.9505 49.9479 20.4628 49.3537 20.152 49.2795C19.8465 49.2052 19.2302 49.4917 19.1015 49.7728C18.5656 50.9716 18.0779 52.2076 17.751 53.4754C17.6545 53.8573 18.1315 54.3824 18.3834 54.9182Z" fill="#CCDFEB"/>
<path d="M36.3306 49.1362C35.2694 49.343 34.9639 49.8576 35.2587 50.6957C35.6392 51.7725 35.9715 52.8759 36.486 53.889C36.6736 54.2603 37.3328 54.3983 37.7723 54.6423C37.9491 54.1649 38.3511 53.6291 38.2546 53.2154C37.992 52.112 37.5472 51.0458 37.097 49.9955C36.9416 49.6401 36.561 49.3802 36.3306 49.1309V49.1362Z" fill="#CCDFEB"/>
<path d="M48.5327 17.6584C49.969 16.746 51.3571 15.9079 52.6862 14.9743C52.8309 14.8735 52.7452 14.1627 52.5415 13.9399C52.3379 13.7171 51.7537 13.5633 51.4964 13.6906C50.2692 14.3059 49.074 14.9849 47.9218 15.7329C47.6806 15.8867 47.5412 16.4543 47.627 16.7566C47.7074 17.059 48.1308 17.2765 48.5381 17.6531L48.5327 17.6584Z" fill="#CCDFEB"/>
<path d="M3.74549 43.2801C5.66414 42.0706 7.05222 41.2325 8.38134 40.3201C8.5314 40.2193 8.50996 39.5404 8.33846 39.3918C8.05442 39.1478 7.47561 38.9038 7.20764 39.0364C5.97498 39.6305 4.78521 40.3148 3.63294 41.0575C3.39177 41.2113 3.28994 41.7471 3.31138 42.0918C3.33282 42.4738 3.57399 42.8398 3.74549 43.2854V43.2801Z" fill="#CCDFEB"/>
<path d="M8.56391 16.4179C8.47816 16.2323 8.446 15.9458 8.29058 15.8556C7.00433 15.0865 5.71808 14.3067 4.37288 13.6436C4.16387 13.5428 3.48323 13.9195 3.36532 14.2165C3.24742 14.5136 3.42428 15.1607 3.69224 15.3358C4.79627 16.0678 5.94854 16.7415 7.14367 17.3144C7.91006 17.6857 8.39777 17.2507 8.56927 16.4179H8.56391Z" fill="#CCDFEB"/>
<path d="M48.5615 38.6963C48.1381 39.0729 47.7147 39.2745 47.6343 39.5715C47.5485 39.8739 47.6932 40.4362 47.9291 40.59C49.076 41.3379 50.2657 42.0275 51.4877 42.6429C51.7449 42.7755 52.3291 42.627 52.5381 42.4042C52.7471 42.1814 52.8436 41.4706 52.7042 41.3698C51.3858 40.4468 50.0031 39.6034 48.5668 38.6963H48.5615Z" fill="#CCDFEB"/>
<path d="M43.2481 45.1362C42.4174 45.168 41.9726 45.9902 42.4818 46.6798C43.2589 47.7407 44.1324 48.7379 45.0596 49.6768C45.2793 49.8996 45.9225 49.9156 46.2494 49.767C46.4852 49.6556 46.7425 48.9607 46.6192 48.8016C45.6599 47.5603 44.6201 46.3827 43.5858 45.1998C43.5215 45.1256 43.3339 45.1468 43.2535 45.1309L43.2481 45.1362Z" fill="#CCDFEB"/>
<path d="M13.8329 10.4238C13.7579 10.1162 13.7632 9.90929 13.6614 9.78729C12.7717 8.69986 11.8982 7.59121 10.9281 6.58335C10.7352 6.38177 9.942 6.4083 9.7705 6.61517C9.52933 6.90692 9.38999 7.61243 9.58293 7.87235C10.3493 8.93856 11.2283 9.93051 12.1393 10.8853C12.3537 11.1081 12.8843 11.1718 13.2166 11.0869C13.4792 11.0232 13.656 10.6254 13.8329 10.4238V10.4238Z" fill="#CCDFEB"/>
<path d="M21.0623 6.22792C20.4674 4.72674 19.9529 3.33164 19.3312 1.98429C19.2348 1.77211 18.5809 1.61828 18.3022 1.72967C18.0235 1.83576 17.6537 2.37682 17.7234 2.60492C18.1575 4.02123 18.672 5.42163 19.2562 6.7902C19.3419 6.99708 19.9851 7.12439 20.2905 7.03421C20.5907 6.94403 20.7943 6.53028 21.0677 6.22792H21.0623Z" fill="#CCDFEB"/>
<path d="M10.4568 49.9638C10.5372 49.9426 10.7677 49.9479 10.8641 49.8365C11.8342 48.7066 12.8096 47.5821 13.6992 46.3939C13.8386 46.2082 13.6456 45.5292 13.4098 45.3913C13.1151 45.2162 12.4451 45.1844 12.2468 45.386C11.2982 46.3567 10.3925 47.3911 9.58324 48.4838C9.06874 49.1787 9.54036 49.9585 10.4568 49.9638V49.9638Z" fill="#CCDFEB"/>
<path d="M43.3581 11.1821C43.4277 11.1609 43.6528 11.1609 43.7547 11.0495C44.714 9.96205 45.6894 8.88523 46.5576 7.72884C46.7184 7.51135 46.5469 6.79524 46.295 6.59897C46.0431 6.3974 45.3196 6.38679 45.1213 6.58836C44.1673 7.55909 43.2616 8.59348 42.4631 9.69152C41.9646 10.3758 42.4631 11.1874 43.3634 11.1821H43.3581Z" fill="#CCDFEB"/>
<path d="M55.2538 33.9277C55.4574 33.7102 55.9666 33.4131 55.9934 33.0736C56.0255 32.7235 55.6557 32.0764 55.3503 32.0021C54.0694 31.6785 52.7563 31.4611 51.4379 31.3444C51.111 31.3125 50.4947 31.7687 50.4464 32.0711C50.3928 32.3947 50.7787 33.0471 51.0896 33.132C52.3651 33.4715 53.6888 33.6465 55.2484 33.9277H55.2538Z" fill="#CCDFEB"/>
<path d="M4.85558 31.228C3.31745 31.4932 2.07943 31.6258 0.889655 31.9494C0.519858 32.0502 0.294765 32.6496 0 33.0209C0.42339 33.2914 0.862858 33.8113 1.27017 33.7847C2.45459 33.7105 3.64437 33.4877 4.78591 33.1641C5.15571 33.058 5.61125 32.4798 5.62197 32.1085C5.62733 31.7849 5.0646 31.4454 4.85558 31.2227V31.228Z" fill="#CCDFEB"/>
<path d="M27.0826 2.80652C27.0826 3.46959 26.9754 4.15387 27.1255 4.77981C27.2113 5.14052 27.715 5.63915 28.0259 5.63915C28.3528 5.63915 28.9262 5.12991 28.953 4.80103C29.0656 3.53324 29.0763 2.23894 28.953 0.971152C28.9209 0.621053 28.3206 0.318694 27.9776 -0.00488281C27.6775 0.313389 27.2113 0.589225 27.1148 0.960543C26.9701 1.54404 27.0773 2.18589 27.0773 2.80122L27.0826 2.80652Z" fill="#CCDFEB"/>
<path d="M28.0795 14.0885C32.8118 14.0885 37.5495 14.062 42.2818 14.1256C42.9035 14.1362 43.6967 14.4545 44.104 14.9054C46.5211 17.5683 48.8149 20.3372 51.2159 23.016C52.0466 23.9443 51.5964 24.5649 51.0337 25.3182C43.9272 34.7921 36.8314 44.2713 29.7409 53.7558C29.3979 54.2173 29.0764 54.6947 28.7655 55.1827C28.0742 56.2702 27.3131 56.2914 26.4985 55.1827C24.9497 53.0715 23.433 50.9391 21.9109 48.8173C16.2728 40.9666 10.6455 33.1053 4.96994 25.2758C4.26251 24.2997 4.28394 23.6367 5.08785 22.7508C7.3763 20.2152 9.54684 17.5683 11.8514 15.0486C12.3176 14.5447 13.1858 14.1521 13.8772 14.1415C18.6095 14.062 23.3418 14.0991 28.0795 14.0991V14.0885ZM27.774 52.504C31.9383 43.1839 35.9631 34.1768 40.0309 25.0689H16.0156C19.9279 34.1927 23.7813 43.1892 27.774 52.504ZM22.8488 46.7114C22.9345 46.5416 22.9774 46.4886 22.9667 46.4621C20.003 39.5078 17.0392 32.5536 14.0487 25.6099C13.9362 25.35 13.561 25.0371 13.2984 25.0317C11.4012 24.984 9.49861 25.0052 7.25839 25.0052C12.5642 32.3944 17.6877 39.5237 22.8488 46.7167V46.7114ZM33.053 45.5762C33.1227 45.6187 33.1977 45.6611 33.2674 45.7035C38.3695 38.8819 43.4716 32.0656 48.7613 24.9999C46.5533 24.9999 44.6936 24.9734 42.8392 25.0264C42.5391 25.0371 42.1103 25.3553 41.9817 25.6418C38.9858 32.2777 36.0221 38.9296 33.053 45.5762ZM37.8657 22.9842C37.5549 22.7031 37.4209 22.5386 37.2548 22.4325C34.4464 20.6343 31.6221 18.8626 28.8298 17.0325C28.1974 16.6188 27.758 16.693 27.1631 17.0856C24.5209 18.8148 21.8466 20.4911 19.1883 22.1938C18.8882 22.3848 18.631 22.6341 18.1969 22.9842H37.8604H37.8657ZM24.9657 16.152H14.2631C14.5954 18.2419 14.9116 20.2046 15.2546 22.3423C18.5506 20.2471 21.6108 18.295 24.9711 16.152H24.9657ZM40.8348 22.3477C41.1778 20.1569 41.4833 18.1836 41.8049 16.1254H31.0593C34.4679 18.295 37.5495 20.2577 40.8295 22.3477H40.8348ZM43.6378 17.3455C43.3216 19.4514 43.0643 21.1647 42.7856 22.9842H48.4933C46.8534 21.0852 45.3796 19.3718 43.6324 17.3455H43.6378ZM12.4355 17.3508C10.7098 19.3347 9.21456 21.0587 7.5478 22.9789H13.2823C13.009 21.1541 12.7517 19.4408 12.4355 17.3508Z" fill="#006099"/>
<path d="M38.508 2.63097C37.9506 4.08441 37.495 5.41585 36.9055 6.68894C36.793 6.93825 36.0909 7.13452 35.7908 7.01782C35.496 6.90642 35.1262 6.30171 35.2012 6.02587C35.571 4.72095 36.0319 3.43195 36.5893 2.19599C36.7179 1.90424 37.3986 1.68145 37.7737 1.7398C38.0578 1.78224 38.2668 2.3233 38.5026 2.63097H38.508Z" fill="#006099"/>
<path d="M18.3834 54.9178C18.1315 54.3821 17.6545 53.8569 17.751 53.475C18.0779 52.2072 18.5656 50.9713 19.1015 49.7724C19.2302 49.4913 19.8465 49.2101 20.152 49.2791C20.4628 49.3534 20.9505 49.9422 20.8808 50.1703C20.4521 51.5919 19.9108 52.9764 19.3534 54.3555C19.2784 54.5359 18.93 54.6102 18.3834 54.9178Z" fill="#006099"/>
<path d="M36.3306 49.1357C36.561 49.3851 36.9469 49.645 37.097 50.0004C37.5472 51.0507 37.992 52.1169 38.2546 53.2202C38.3511 53.634 37.9491 54.1644 37.7723 54.6472C37.3274 54.4031 36.6736 54.2652 36.486 53.8939C35.9715 52.8807 35.6392 51.7774 35.2587 50.7006C34.9639 49.8625 35.2694 49.3426 36.3306 49.141V49.1357Z" fill="#006099"/>
<path d="M48.5355 17.6587C48.1282 17.2821 47.7102 17.0646 47.6244 16.7623C47.544 16.4599 47.6834 15.8923 47.9192 15.7385C49.0715 14.9906 50.2666 14.3116 51.4939 13.6963C51.7512 13.5689 52.3353 13.7175 52.539 13.9456C52.7426 14.1684 52.8284 14.8792 52.6837 14.98C51.3599 15.9082 49.9718 16.7517 48.5302 17.664L48.5355 17.6587Z" fill="#006099"/>
<path d="M3.74549 43.2795C3.57399 42.8339 3.33282 42.4679 3.31138 42.086C3.28994 41.7359 3.39177 41.2054 3.63294 41.0516C4.77985 40.309 5.97498 39.6247 7.20764 39.0306C7.48097 38.898 8.05442 39.142 8.33846 39.386C8.50996 39.5345 8.5314 40.2135 8.38134 40.3143C7.04686 41.2267 5.66414 42.0701 3.74549 43.2742V43.2795Z" fill="#006099"/>
<path d="M8.56478 16.4177C8.39328 17.2505 7.91094 17.6855 7.13919 17.3142C5.94405 16.736 4.79179 16.0676 3.68776 15.3356C3.42515 15.1606 3.24293 14.5134 3.36084 14.2163C3.47874 13.9246 4.15938 13.5427 4.3684 13.6435C5.7136 14.3065 6.99984 15.0863 8.28609 15.8554C8.44151 15.9456 8.47367 16.2321 8.55942 16.4177H8.56478Z" fill="#006099"/>
<path d="M48.5629 38.6963C49.9992 39.6087 51.3819 40.4468 52.7003 41.3698C52.8397 41.4653 52.7432 42.1814 52.5342 42.4042C52.3252 42.627 51.741 42.7755 51.4838 42.6429C50.2618 42.0275 49.072 41.3379 47.9251 40.59C47.6893 40.4362 47.5446 39.8739 47.6304 39.5715C47.7108 39.2745 48.1342 39.0729 48.5575 38.6963H48.5629Z" fill="#006099"/>
<path d="M43.2486 45.1367C43.329 45.1526 43.5166 45.1261 43.5809 45.2057C44.6099 46.3886 45.655 47.5662 46.6143 48.8075C46.7376 48.9666 46.4803 49.6615 46.2445 49.7729C45.9176 49.9214 45.2745 49.9055 45.0547 49.6827C44.1329 48.7438 43.2594 47.7412 42.4769 46.6856C41.9677 45.9961 42.4179 45.1685 43.2433 45.142L43.2486 45.1367Z" fill="#006099"/>
<path d="M13.8329 10.4238C13.6614 10.6254 13.4792 11.0232 13.2166 11.0869C12.8843 11.1665 12.3537 11.1028 12.1393 10.8853C11.2283 9.93581 10.3493 8.93856 9.58293 7.87235C9.38999 7.60712 9.52933 6.90162 9.7705 6.61517C9.942 6.4083 10.7352 6.38177 10.9281 6.58335C11.8982 7.59651 12.7717 8.69986 13.6614 9.78729C13.7632 9.90929 13.7525 10.1162 13.8329 10.4238V10.4238Z" fill="#006099"/>
<path d="M21.0637 6.2277C20.7958 6.52476 20.5921 6.94382 20.2866 7.03399C19.9812 7.12417 19.338 6.99156 19.2523 6.78999C18.6681 5.42672 18.1536 4.02632 17.7195 2.60471C17.6498 2.37661 18.0196 1.83555 18.2983 1.72946C18.5824 1.62337 19.2308 1.77189 19.3273 1.98408C19.949 3.33143 20.4635 4.73182 21.0584 6.2277H21.0637Z" fill="#006099"/>
<path d="M10.4545 49.9638C9.53803 49.9638 9.07176 49.1787 9.5809 48.4838C10.3848 47.3911 11.2905 46.362 12.2445 45.386C12.4428 45.1844 13.1127 45.2162 13.4075 45.3913C13.6379 45.5292 13.8309 46.2082 13.6969 46.3939C12.8072 47.5821 11.8318 48.7066 10.8618 49.8365C10.7653 49.9479 10.5349 49.9373 10.4545 49.9638V49.9638Z" fill="#006099"/>
<path d="M43.3556 11.1822C42.4552 11.1875 41.9568 10.3759 42.4552 9.69161C43.2538 8.59357 44.1595 7.55919 45.1135 6.58846C45.3171 6.38158 46.0353 6.39749 46.2872 6.59906C46.5391 6.80064 46.7106 7.51144 46.5498 7.72893C45.6816 8.88532 44.7062 9.96214 43.7468 11.0496C43.6504 11.161 43.4253 11.161 43.3503 11.1822H43.3556Z" fill="#006099"/>
<path d="M55.2533 33.9282C53.6937 33.647 52.3699 33.472 51.0944 33.1325C50.7835 33.0476 50.3923 32.3952 50.4513 32.0716C50.4995 31.7692 51.1158 31.3183 51.4427 31.3449C52.7611 31.4616 54.0742 31.6791 55.3551 32.0026C55.6606 32.0822 56.025 32.724 55.9982 33.0741C55.9714 33.4136 55.4623 33.7107 55.2586 33.9282H55.2533Z" fill="#006099"/>
<path d="M4.85558 31.2275C5.0646 31.4503 5.62733 31.7898 5.62197 32.1134C5.61125 32.4847 5.15571 33.0629 4.78591 33.169C3.64437 33.4873 2.45459 33.7101 1.27017 33.7896C0.868217 33.8162 0.42339 33.2963 0 33.0258C0.294765 32.6545 0.519858 32.0497 0.889655 31.9543C2.07943 31.6307 3.31745 31.4928 4.85558 31.2328V31.2275Z" fill="#006099"/>
<path d="M27.0812 2.8061C27.0812 2.19077 26.974 1.54362 27.1187 0.965426C27.2098 0.594108 27.6814 0.318272 27.9815 0C28.3245 0.323577 28.9248 0.625935 28.957 0.976035C29.0749 2.24382 29.0641 3.53282 28.957 4.80591C28.9302 5.12949 28.3567 5.63872 28.0298 5.64403C27.7189 5.64403 27.2098 5.1454 27.1294 4.78469C26.9793 4.15876 27.0865 3.46917 27.0865 2.8114L27.0812 2.8061Z" fill="#006099"/>
<path d="M27.7741 52.5044C23.7813 43.1843 19.9226 34.1931 16.0156 25.0693H40.0309C35.9632 34.1772 31.9383 43.1896 27.7741 52.5044V52.5044Z" fill="#CCDFEB"/>
<path d="M22.8521 46.7113C17.691 39.5236 12.5675 32.389 7.26172 24.9998C9.50729 24.9998 11.4045 24.9786 13.3017 25.0263C13.5643 25.0316 13.9395 25.3446 14.052 25.6045C17.0426 32.5482 20.0063 39.5024 22.97 46.4567C22.9807 46.4832 22.9325 46.5362 22.8521 46.706V46.7113Z" fill="#CCDFEB"/>
<path d="M33.0547 45.5713C36.0238 38.9247 38.9875 32.2728 41.9834 25.6368C42.112 25.3504 42.5408 25.0321 42.8409 25.0215C44.6952 24.9632 46.5549 24.995 48.763 24.995C43.4787 32.0606 38.3765 38.877 33.2691 45.6986C33.1994 45.6562 33.1244 45.6137 33.0547 45.5713V45.5713Z" fill="#CCDFEB"/>
<path d="M37.8681 22.9843H18.1992C18.6333 22.6342 18.8906 22.3849 19.1907 22.1939C21.8489 20.4912 24.5233 18.8149 27.1654 17.0856C27.7603 16.6931 28.1998 16.6188 28.8322 17.0326C31.6191 18.8574 34.4488 20.6344 37.2571 22.4326C37.4233 22.5387 37.5572 22.6978 37.8681 22.9843V22.9843Z" fill="#CCDFEB"/>
<path d="M24.9697 16.1523C21.604 18.2954 18.5438 20.2474 15.2532 22.3427C14.9102 20.205 14.5994 18.2423 14.2617 16.1523H24.9697V16.1523Z" fill="#CCDFEB"/>
<path d="M40.8326 22.3482C37.5473 20.2582 34.4657 18.2955 31.0625 16.126H41.808C41.4865 18.1841 41.181 20.1574 40.838 22.3482H40.8326Z" fill="#CCDFEB"/>
<path d="M43.6358 17.3457C45.383 19.372 46.8568 21.0801 48.4968 22.9844H42.7891C43.0624 21.165 43.3196 19.4569 43.6412 17.3457H43.6358Z" fill="#CCDFEB"/>
<path d="M12.4385 17.3516C12.7547 19.4416 13.012 21.1549 13.2853 22.9797H7.55078C9.21754 21.0594 10.7128 19.3408 12.4385 17.3516Z" fill="#CCDFEB"/>
</g>
<defs>
<clipPath id="clip0_1186_2810">
<rect width="56" height="56" fill="white"/>
</clipPath>
</defs>
</svg>
