<svg width="19" height="31" viewBox="0 0 19 31" fill="none" xmlns="http://www.w3.org/2000/svg">
<path d="M3.92867 10.0008C7.74154 4.64649 13.3852 1.7693 15.7304 1L18 6.07739C16.8652 6.8467 14.1417 8.80072 12.3261 10.4624C10.5104 12.1241 11.2669 14.6936 11.8722 15.7706L14.1417 18.7709C16.033 21.7712 16.1843 27.7717 11.8722 29.3872C5.79109 31.6655 2.41562 27.0024 1.6591 25.0022C0.826921 22.2327 0.11579 15.3552 3.92867 10.0008Z" fill="#607D8B"/>
<path d="M3.92867 10.0008C7.74154 4.64649 13.3852 1.7693 15.7304 1L18 6.07739C16.8652 6.8467 14.1417 8.80072 12.3261 10.4624C10.5104 12.1241 11.2669 14.6936 11.8722 15.7706L14.1417 18.7709C16.033 21.7712 16.1843 27.7717 11.8722 29.3872C5.79109 31.6655 2.41562 27.0024 1.6591 25.0022C0.826921 22.2327 0.11579 15.3552 3.92867 10.0008Z" fill="#607D8B"/>
<path d="M3.92867 10.0008C7.74154 4.64649 13.3852 1.7693 15.7304 1L18 6.07739C16.8652 6.8467 14.1417 8.80072 12.3261 10.4624C10.5104 12.1241 11.2669 14.6936 11.8722 15.7706L14.1417 18.7709C16.033 21.7712 16.1843 27.7717 11.8722 29.3872C5.79109 31.6655 2.41562 27.0024 1.6591 25.0022C0.826921 22.2327 0.11579 15.3552 3.92867 10.0008Z" stroke="#607D8B"/>
</svg>
