<svg width="30" height="47" viewBox="0 0 30 47" fill="none" xmlns="http://www.w3.org/2000/svg">
<g clip-path="url(#clip0_1332_2695)">
<path d="M8.35914 28.7121C8.30565 28.4413 8.22298 28.2739 8.25216 28.1311C8.86003 25.0732 7.47894 22.8771 5.28085 21.0257C5.15927 20.9223 5.01824 20.8041 4.95989 20.6613C4.60002 19.7257 4.04078 18.8 3.96783 17.8349C3.81708 15.7963 3.92406 13.743 3.92406 11.6946C3.92406 10.7344 4.20126 9.91702 5.29057 9.8924C6.40907 9.86286 6.67654 10.6655 6.66681 11.6404C6.65708 13.482 6.67654 15.3285 6.66195 17.1701C6.65222 17.9629 6.87106 18.4356 7.7464 18.6375C8.97188 18.9231 9.77428 19.7208 10.0223 21.0601C10.0855 21.395 10.5426 21.6559 10.8198 21.9465C11.0435 21.5772 11.4666 21.198 11.452 20.8336C11.3839 19.253 10.4843 18.1451 9.10805 17.5296C8.37373 17.2046 8.20353 16.7861 8.22298 16.0475C8.26675 13.9991 8.23757 11.9507 8.23757 9.90225C8.23757 8.06066 8.24243 6.21414 8.24243 4.37255C8.24243 3.71765 8.47099 3.12184 9.18099 3.28434C9.51654 3.3582 9.84723 3.96386 9.96394 4.39225C10.1001 4.88958 9.99798 5.45092 9.99798 5.98271C9.99798 7.74552 9.94935 9.50833 10.032 11.2662C10.0515 11.7241 10.4259 12.4923 10.7372 12.5465C11.5347 12.6942 11.5055 11.9359 11.525 11.3598C11.5396 10.8674 11.525 10.375 11.525 9.88256C11.525 7.54856 11.525 5.20964 11.5347 2.87564C11.5347 2.2109 11.7244 1.50183 12.4927 1.64463C12.8429 1.70864 13.1687 2.41278 13.334 2.88549C13.475 3.28926 13.3681 3.77674 13.3681 4.22975C13.3681 6.68685 13.3389 9.14887 13.4021 11.606C13.4118 11.9556 13.869 12.2904 14.117 12.6351C14.3601 12.2855 14.6957 11.9704 14.827 11.5814C14.9485 11.212 14.8561 10.7689 14.8561 10.3602C14.8561 8.35118 14.8124 6.34217 14.8999 4.33808C14.9145 3.95893 15.4494 3.59948 15.7461 3.23017C16.0622 3.57978 16.4464 3.89492 16.6701 4.29869C16.8111 4.54982 16.709 4.93882 16.709 5.26873C16.709 7.35652 16.6749 9.44924 16.743 11.537C16.7527 11.9063 17.1758 12.2658 17.4044 12.6302C17.6816 12.2609 18.1581 11.9113 18.1922 11.5173C18.2992 10.3799 18.2359 9.22766 18.2311 8.08036C18.2311 7.42546 18.2651 6.75579 19.1113 6.76564C19.9429 6.77548 19.9915 7.45008 19.9964 8.10005C19.9964 9.53295 19.9575 10.9708 20.0401 12.3987C20.0596 12.7188 20.5362 13.0093 20.7988 13.3146C21.0468 13.0339 21.499 12.7582 21.5088 12.4726C21.5477 10.7147 21.5768 8.94699 21.431 7.19895C21.3288 5.95809 20.4194 5.28842 19.1842 5.21949C18.8827 5.19979 18.5764 5.18502 18.2846 5.17025C18.1046 2.30445 17.2244 1.44767 14.8561 1.72834C13.2757 -0.576113 11.5833 -0.576113 10.032 1.72834C7.75126 1.45259 6.73489 2.34877 6.6814 4.72216C6.65222 5.9384 6.6814 7.15956 6.6814 8.38072C3.30646 8.233 2.45057 9.09471 2.45057 12.4825C2.45057 14.2453 2.47975 16.0081 2.44084 17.766C2.4068 19.4204 3.00009 20.7942 4.07482 21.9957C4.75564 22.754 5.46564 23.4828 6.13674 24.2509C6.3653 24.5168 6.6814 24.8861 6.6425 25.1668C6.46256 26.5111 7.32818 28.0375 5.98112 29.1897C5.86927 29.2882 5.89359 29.5787 5.89359 29.7806C5.89359 35.1478 5.87414 40.515 5.92277 45.8822C5.92277 46.2417 6.39448 46.8917 6.66195 46.9015C8.80168 46.9852 10.9511 46.9754 13.0909 46.9212C13.3389 46.9163 13.8106 46.414 13.7717 46.2565C13.689 45.9364 13.3632 45.5425 13.0568 45.4538C12.5657 45.316 12.0161 45.3997 11.4861 45.3997C10.1682 45.3997 8.84545 45.3997 7.49352 45.3997V30.3026C9.15182 30.3026 10.7274 30.3026 12.2982 30.3026C12.945 30.3026 13.7668 30.3764 13.7328 29.4704C13.7231 29.1996 12.8574 28.786 12.3614 28.7515C11.0435 28.6481 9.71593 28.717 8.36401 28.717L8.35914 28.7121Z" fill="white"/>
<path d="M16.9729 17.6626C15.0083 18.0023 14.3128 18.5341 14.3663 19.9867C14.5365 24.374 13.7244 28.8155 15.2271 33.1388C15.587 34.168 15.4508 35.4039 15.3924 36.5364C15.3487 37.2947 14.8915 38.0284 14.8672 38.7818C14.7943 40.9927 14.8964 43.2085 14.8186 45.4194C14.7748 46.6061 15.1687 47.0246 16.3407 47.0049C19.419 46.9508 22.4925 46.9951 25.5708 46.9852C27.0686 46.9852 27.3117 46.8277 27.1853 45.2766C26.9373 42.2483 27.7932 39.1806 26.5871 36.1523C26.1057 34.9361 26.4072 33.4687 27.7202 32.4445C29.4758 31.0757 30.1712 29.1651 29.9523 26.9001C29.8551 25.8857 29.9377 24.8517 29.9329 23.8275C29.9329 21.0405 29.3104 20.3757 26.5093 20.2329C26.5093 19.711 26.5093 19.1841 26.5093 18.6572C26.5093 18.1254 26.5288 17.5887 26.4996 17.0618C26.4364 15.8407 25.7215 15.1365 24.5495 14.9346C24.1021 14.8559 23.6255 14.6047 23.2803 14.2994C22.3271 13.4525 21.1454 13.4427 20.236 14.3438C20.0123 14.5653 19.7692 14.974 19.5503 14.9593C17.6148 14.8509 16.9729 15.9687 16.9632 17.6675L16.9729 17.6626Z" fill="white"/>
<path d="M28.5358 9.39015C28.8762 9.09963 29.2604 8.77464 29.6446 8.44473C29.2215 8.06065 28.8033 7.67658 28.3802 7.29743C28.3948 7.28265 28.4142 7.27281 28.4288 7.25803C28.069 6.86411 27.7042 6.47019 27.3444 6.07626C27.0088 6.5145 26.6733 6.95767 26.3766 7.34667C25.939 7.70612 25.5159 8.04588 25.0977 8.39056C25.5402 8.76479 25.9779 9.13409 26.4204 9.50832L26.362 9.52802C26.6927 9.90717 27.0234 10.2912 27.3492 10.6704C27.7091 10.2814 28.069 9.8924 28.5358 9.39015Z" fill="white"/>
<path d="M3.40902 28.3625C3.6084 28.2 4.04608 27.8307 4.48861 27.4663C4.05094 27.097 3.61327 26.7326 3.28744 26.4569C2.91299 25.9793 2.60662 25.5853 2.30025 25.1914C1.92093 25.605 1.54648 26.0186 1.2158 26.383C0.782987 26.7819 0.393945 27.1364 0.00976562 27.4959C0.423123 27.8356 0.841343 28.1754 1.23038 28.4954C1.55134 28.9189 1.87717 29.3473 2.20785 29.7757C2.55313 29.3768 2.89354 28.978 3.41875 28.3674L3.40902 28.3625Z" fill="white"/>
<path d="M8.36009 28.7121C9.71201 28.7121 11.0396 28.6432 12.3575 28.7466C12.8535 28.786 13.7191 29.1996 13.7289 29.4655C13.7629 30.3715 12.9411 30.2977 12.2943 30.2977C10.7187 30.3026 9.1479 30.2977 7.48961 30.2977V45.3948C8.84153 45.3948 10.1594 45.3948 11.4822 45.3948C12.0074 45.3948 12.5617 45.3111 13.0529 45.4489C13.3544 45.5326 13.6851 45.9315 13.7678 46.2516C13.8115 46.4141 13.335 46.9114 13.0869 46.9163C10.9424 46.9705 8.79776 46.9852 6.65803 46.8966C6.3857 46.8868 5.91885 46.2319 5.91885 45.8773C5.87022 40.5101 5.88481 35.1429 5.88967 29.7757C5.88967 29.5738 5.86536 29.2833 5.97721 29.1848C7.3194 28.0326 6.45865 26.5012 6.63858 25.1619C6.67748 24.8812 6.36139 24.507 6.13282 24.246C5.46659 23.4779 4.75172 22.7491 4.0709 21.9908C3.00104 20.7942 2.40288 19.4155 2.43692 17.761C2.47583 15.9982 2.44665 14.2354 2.44665 12.4775C2.44665 9.0898 3.30741 8.22809 6.67748 8.37581C6.67748 7.15465 6.65317 5.93348 6.67748 4.71725C6.73098 2.34386 7.74735 1.44768 10.0281 1.72343C11.5843 -0.581027 13.2766 -0.581027 14.8522 1.72343C17.2254 1.44768 18.1007 2.29954 18.2807 5.16533C18.5724 5.18011 18.8739 5.1998 19.1803 5.21457C20.4155 5.28351 21.3249 5.95318 21.427 7.19404C21.5729 8.94207 21.5437 10.7098 21.5048 12.4677C21.5 12.7533 21.0429 13.029 20.7948 13.3097C20.5322 13.0044 20.0557 12.7139 20.0362 12.3938C19.9487 10.9659 19.9924 9.52804 19.9924 8.09514C19.9924 7.45009 19.939 6.77057 19.1074 6.76072C18.2661 6.75088 18.2272 7.42547 18.2272 8.07544C18.2369 9.22275 18.3001 10.375 18.1883 11.5124C18.1494 11.9063 17.6728 12.256 17.4005 12.6253C17.167 12.2609 16.7488 11.9064 16.7391 11.5321C16.6759 9.44433 16.705 7.35161 16.705 5.26381C16.705 4.9339 16.8072 4.5449 16.6661 4.29378C16.4424 3.89001 16.0583 3.57487 15.7422 3.22526C15.4455 3.59456 14.9154 3.94909 14.896 4.33317C14.8085 6.33726 14.8522 8.34627 14.8522 10.3553C14.8522 10.764 14.9446 11.2071 14.823 11.5764C14.6966 11.9654 14.3611 12.2806 14.113 12.6302C13.865 12.2855 13.4079 11.9507 13.3982 11.6011C13.335 9.14396 13.3641 6.68686 13.3641 4.22484C13.3641 3.77183 13.4711 3.28435 13.3301 2.88058C13.1648 2.40787 12.8438 1.70373 12.4888 1.63972C11.7156 1.49692 11.5308 2.20598 11.5308 2.87073C11.5211 5.20473 11.5211 7.54365 11.5211 9.87764C11.5211 10.37 11.5308 10.8625 11.5211 11.3549C11.5065 11.926 11.5308 12.6843 10.7332 12.5416C10.422 12.4825 10.0524 11.7192 10.0281 11.2613C9.94544 9.50342 9.99406 7.74061 9.99406 5.9778C9.99406 5.446 10.0962 4.88466 9.96002 4.38733C9.84331 3.96387 9.51263 3.35821 9.17708 3.27942C8.46708 3.11693 8.23851 3.71274 8.23851 4.36764C8.23851 6.20923 8.23365 8.05575 8.23365 9.89734C8.23365 11.9457 8.26283 13.9941 8.21906 16.0425C8.20447 16.7812 8.37468 17.1948 9.10413 17.5247C10.4804 18.1402 11.3849 19.2481 11.4481 20.8287C11.4627 21.1882 11.0396 21.5673 10.8159 21.9416C10.5387 21.6461 10.0816 21.3901 10.0184 21.0552C9.77037 19.7159 8.96797 18.9133 7.74249 18.6326C6.86714 18.4307 6.6483 17.958 6.65803 17.1652C6.67748 15.3236 6.65317 13.4771 6.66289 11.6355C6.66776 10.6606 6.40029 9.85795 5.28666 9.88749C4.19734 9.91704 3.92015 10.7295 3.92015 11.6897C3.92015 13.7381 3.81316 15.7963 3.96391 17.83C4.03686 18.7902 4.59611 19.7208 4.95597 20.6564C5.00946 20.7992 5.15049 20.9173 5.27693 21.0208C7.47502 22.8722 8.85612 25.0683 8.24824 28.1262C8.21906 28.2689 8.30173 28.4314 8.35523 28.7072L8.36009 28.7121Z" fill="#006099"/>
<path d="M16.971 17.6625C16.9856 15.9637 17.6275 14.846 19.5581 14.9543C19.777 14.9642 20.0201 14.5604 20.2438 14.3388C21.1532 13.4328 22.3301 13.4476 23.2881 14.2945C23.6334 14.5998 24.1099 14.8558 24.5573 14.9297C25.7293 15.1316 26.4442 15.8357 26.5074 17.0569C26.5366 17.5887 26.5123 18.1205 26.5171 18.6523C26.5171 19.1791 26.5171 19.706 26.5171 20.228C29.3182 20.3658 29.9407 21.0306 29.9407 23.8225C29.9407 24.8467 29.858 25.8808 29.9601 26.8951C30.179 29.1602 29.4787 31.0707 27.728 32.4396C26.4101 33.4687 26.1086 34.9312 26.5949 36.1474C27.7961 39.1757 26.9451 42.2434 27.1931 45.2717C27.3195 46.8227 27.0764 46.9754 25.5786 46.9803C22.5003 46.9852 19.422 46.9458 16.3485 47C15.1766 47.0197 14.7826 46.6011 14.8264 45.4144C14.9091 43.2036 14.8021 40.9877 14.875 38.7768C14.8994 38.0235 15.3565 37.2898 15.4003 36.5315C15.4635 35.3989 15.5948 34.163 15.2349 33.1339C13.7322 28.8106 14.5444 24.3691 14.3742 19.9818C14.3158 18.5292 15.0161 17.9974 16.9807 17.6576L16.971 17.6625ZM24.9512 36.6398C24.9853 36.2705 25.0631 36.0243 25.0242 35.7929C24.7081 33.838 25.3646 32.2919 26.8916 31.0855C27.1736 30.8639 27.4751 30.5882 27.6162 30.2681C27.942 29.5393 28.3554 28.786 28.4137 28.0178C28.5353 26.4273 28.4429 24.827 28.4526 23.2267C28.4526 22.493 28.2386 21.779 27.4362 21.9071C27.0715 21.9662 26.5901 22.7294 26.556 23.2021C26.4393 24.6694 26.5755 26.1516 26.4734 27.619C26.4442 28.0473 26.0114 28.653 25.6223 28.8155C24.7227 29.1848 24.1342 29.692 23.8327 30.6472C23.7209 30.9968 23.2443 31.2283 22.9331 31.5089C22.7531 31.1052 22.3836 30.6866 22.4225 30.3075C22.5392 29.1257 23.2929 28.3477 24.2558 27.7076C24.5962 27.486 24.995 27.0231 24.9999 26.6637C25.0582 23.6354 25.0534 20.6022 25.0047 17.569C24.9999 17.2292 24.6157 16.8944 24.4066 16.5595C24.2169 16.9092 23.8765 17.2538 23.8668 17.6133C23.8084 19.3318 23.8425 21.0552 23.8376 22.7737C23.8376 23.3498 23.9057 24.0884 23.0692 23.9456C22.7775 23.8964 22.3981 23.2119 22.3836 22.8082C22.3155 20.681 22.3836 18.5489 22.3301 16.4168C22.3203 16.0179 21.9751 15.624 21.7805 15.2251C21.5812 15.6141 21.2164 15.9982 21.2067 16.3921C21.1483 18.5636 21.2164 20.7351 21.1483 22.9017C21.1338 23.2858 20.6766 23.66 20.4286 24.0342C20.1855 23.6452 19.7478 23.2661 19.7332 22.8623C19.6554 21.1438 19.7332 19.4204 19.6749 17.7019C19.6603 17.3129 19.3053 16.9338 19.1107 16.5497C18.9114 16.9338 18.5564 17.3129 18.5418 17.7019C18.4785 19.5041 18.5466 21.3063 18.4785 23.1085C18.4688 23.4237 18.0214 23.7191 17.7783 24.0244C17.5303 23.724 17.1023 23.4434 17.0634 23.1184C16.9613 22.2271 17.078 21.3162 17.0002 20.42C16.9661 20.0458 16.6598 19.6912 16.4798 19.3269C16.2659 19.7011 15.8817 20.0704 15.8671 20.4545C15.799 22.2124 15.8622 23.9752 15.8331 25.738C15.7942 27.8701 15.8963 29.9529 16.5333 32.0358C16.9759 33.4835 17.0002 35.0592 17.219 36.625H24.9658L24.9512 36.6398ZM16.4069 38.2943V45.3209H25.5737V38.2943H16.4069Z" fill="#006099"/>
<path d="M28.5358 9.39015C28.069 9.8924 27.7091 10.2814 27.3492 10.6704C27.0186 10.2912 26.6879 9.90717 26.362 9.52802L26.4204 9.50832C25.9779 9.13409 25.5402 8.76479 25.0977 8.39056C25.5159 8.04588 25.939 7.70612 26.3766 7.34667C26.6733 6.95767 27.0088 6.51943 27.3444 6.07626C27.7042 6.47019 28.069 6.86411 28.4288 7.25803C28.4142 7.27281 28.3948 7.28265 28.3802 7.29743C28.8033 7.6815 29.2215 8.06558 29.6446 8.44473C29.2604 8.76972 28.8762 9.09963 28.5358 9.39015Z" fill="#006099"/>
<path d="M3.40898 28.3625C2.88377 28.9731 2.5385 29.3719 2.19809 29.7708C1.87226 29.3424 1.54158 28.914 1.22062 28.4905C0.831577 28.1705 0.413357 27.8307 0 27.4909C0.389042 27.1364 0.773221 26.777 1.20603 26.3781C1.53672 26.0187 1.91117 25.605 2.29048 25.1865C2.59686 25.5804 2.90809 25.9743 3.27768 26.452C3.6035 26.7228 4.04117 27.0921 4.47885 27.4614C4.04117 27.8307 3.59864 28.1951 3.39925 28.3576L3.40898 28.3625Z" fill="#006099"/>
<path d="M24.953 36.6398H17.2062C16.9873 35.074 16.963 33.4983 16.5205 32.0506C15.8883 29.9677 15.7862 27.8849 15.8202 25.7528C15.8494 23.99 15.791 22.2271 15.8543 20.4693C15.8689 20.0852 16.253 19.7159 16.467 19.3417C16.6469 19.706 16.9533 20.0556 16.9873 20.4348C17.0652 21.331 16.9484 22.2419 17.0506 23.1332C17.0895 23.4582 17.5126 23.7388 17.7654 24.0392C18.0086 23.7339 18.456 23.4335 18.4657 23.1233C18.5338 21.3211 18.4657 19.5189 18.5289 17.7167C18.5435 17.3277 18.8985 16.9486 19.0979 16.5645C19.2973 16.9486 19.6474 17.3228 19.662 17.7167C19.7252 19.4352 19.6426 21.1586 19.7204 22.8771C19.7398 23.276 20.1726 23.66 20.4158 24.049C20.6687 23.6699 21.1258 23.3006 21.1355 22.9165C21.2036 20.7499 21.1355 18.5735 21.1939 16.4069C21.2036 16.013 21.5683 15.6289 21.7677 15.2399C21.9574 15.6388 22.3075 16.0278 22.3172 16.4315C22.3707 18.5587 22.3026 20.6908 22.3707 22.823C22.3853 23.2267 22.7598 23.9112 23.0564 23.9604C23.8977 24.1032 23.8248 23.3646 23.8248 22.7885C23.8248 21.07 23.7956 19.3466 23.8539 17.6281C23.8637 17.2736 24.2089 16.9289 24.3937 16.5743C24.6028 16.9092 24.987 17.244 24.9919 17.5838C25.0405 20.617 25.0454 23.6453 24.987 26.6785C24.9822 27.0379 24.5834 27.4959 24.243 27.7224C23.2801 28.3576 22.5263 29.1405 22.4096 30.3223C22.3707 30.7014 22.7403 31.1249 22.9202 31.5237C23.2315 31.2381 23.708 31.0116 23.8199 30.662C24.1214 29.7068 24.7098 29.1996 25.6095 28.8303C26.0034 28.6678 26.4313 28.0671 26.4605 27.6337C26.5675 26.1664 26.4265 24.6793 26.5432 23.2169C26.5821 22.7442 27.0587 21.976 27.4234 21.9219C28.2258 21.7938 28.4398 22.5078 28.4398 23.2415C28.43 24.8369 28.5224 26.4421 28.4009 28.0326C28.3425 28.8007 27.9292 29.559 27.6033 30.2829C27.4574 30.6029 27.1608 30.8738 26.8787 31.1003C25.3518 32.3067 24.6952 33.8528 25.0113 35.8077C25.0502 36.0391 24.9724 36.2853 24.9384 36.6546L24.953 36.6398Z" fill="white"/>
<path d="M16.4121 38.2894H25.5789V45.316H16.4121V38.2894Z" fill="white"/>
</g>
<defs>
<clipPath id="clip0_1332_2695">
<rect width="30" height="47" fill="white"/>
</clipPath>
</defs>
</svg>
