<?xml version="1.0" encoding="utf-8"?>
<!-- Generator: Adobe Illustrator 23.0.5, SVG Export Plug-In . SVG Version: 6.00 Build 0)  -->
<svg version="1.1" id="Capa_1" xmlns="http://www.w3.org/2000/svg" xmlns:xlink="http://www.w3.org/1999/xlink" x="0px" y="0px"
	 viewBox="0 0 100 100" style="enable-background:new 0 0 100 100;" xml:space="preserve">
<style type="text/css">
	.st0{fill-rule:evenodd;clip-rule:evenodd;}
</style>
<path class="st0" d="M76.4,18.3c0.4,0,0.8,0.2,1.1,0.5l19,19c0.3,0.3,0.5,0.7,0.5,1.1c0,0.4-0.2,0.8-0.5,1.1L84,52.6
	c-0.1,0.1-0.3,0.3-0.5,0.3c-0.2,0.1-0.4,0.1-0.6,0.1c-0.4,0-0.8-0.2-1.1-0.5l-1.2-1.2L78.9,53c-0.7,3.6-2.4,6.9-5,9.5L56.2,80.2
	c-0.4,0.4-1,0.8-1.5,1c-0.6,0.2-1.2,0.4-1.8,0.4h0c-0.9,0-1.8-0.3-2.6-0.8c-0.8-0.5-1.4-1.2-1.7-2.1L47,80.2c-0.4,0.4-1,0.8-1.5,1
	c-0.6,0.2-1.2,0.4-1.8,0.4h0c-1.2,0-2.4-0.5-3.2-1.3c-0.9-0.8-1.4-2-1.5-3.2c-1.2-0.1-2.3-0.6-3.1-1.4c-0.8-0.8-1.3-1.9-1.4-3.1
	c-1.2-0.1-2.3-0.6-3.2-1.5c-0.8-0.9-1.3-2-1.3-3.2c0-0.2,0-0.5,0.1-0.7c-0.2-0.1-0.4-0.2-0.5-0.4l-4.2-4.4c-2.6-2.6-4.3-5.9-5-9.4
	l-1.6-1.6l-1.2,1.2c-0.3,0.3-0.7,0.5-1.1,0.5c-0.4,0-0.8-0.2-1.1-0.5L2.8,40c-0.1-0.1-0.3-0.3-0.3-0.5c-0.1-0.2-0.1-0.4-0.1-0.6
	c0-0.2,0-0.4,0.1-0.6c0.1-0.2,0.2-0.4,0.3-0.5l19-19c0.1-0.1,0.3-0.3,0.5-0.3c0.2-0.1,0.4-0.1,0.6-0.1c0.2,0,0.4,0,0.6,0.1
	c0.2,0.1,0.4,0.2,0.5,0.3l12.6,12.6c0.3,0.3,0.5,0.7,0.5,1.1c0,0.4-0.2,0.8-0.5,1.1l-1,1l2.6,2.6h4.2c2.5,0,4.9,0.5,7.1,1.6
	c2.3-1.1,4.9-1.6,7.5-1.6h4.2l2.6-2.6l-1-1c-0.3-0.3-0.5-0.7-0.5-1.1c0-0.4,0.2-0.8,0.5-1.1l12.5-12.6c0.1-0.1,0.3-0.3,0.5-0.3
	C76,18.4,76.2,18.3,76.4,18.3z M6.1,38.9l10.4,10.4l16.7-16.7L22.9,22.2L6.1,38.9z M23.5,52c0.5,3.1,2,6,4.2,8.3l3.9,4.1l17-17.1
	c0.1-0.1,0.2-0.1,0.3-0.2c0.1-0.1,0.2-0.1,0.2-0.2c0.1,0,0.2-0.1,0.3-0.1c0.1,0,0.2,0,0.3-0.1c0.1,0,0.2,0,0.4,0.1
	c0.1,0,0.2,0,0.3,0c0.1,0.1,0.2,0.1,0.3,0.2c0.1,0,0.2,0.1,0.2,0.1l0,0l5.7,5.4c0.1,0.2,0.3,0.3,0.5,0.4c0.2,0.1,0.4,0.1,0.6,0.1
	c0.4,0,0.8-0.2,1.1-0.5s0.5-0.7,0.5-1.1c0-0.2,0-0.4-0.1-0.6c-0.1-0.2-0.2-0.4-0.3-0.5l-6.6-6c-1.3-1.3-2.8-2.3-4.5-3
	c-1.7-0.7-3.5-1.1-5.3-1.1h-4.9c-0.4,0-0.8-0.2-1.1-0.5l-3-3L21.1,49.2l1.9,1.9C23.3,51.3,23.4,51.6,23.5,52z M75.9,52
	c0.1-0.3,0.2-0.6,0.4-0.9l1.9-1.9L66,36.9l-3,3c-0.3,0.3-0.7,0.5-1.1,0.5H57c-1.4,0-2.8,0.2-4.1,0.5c0.5,0.4,1,0.8,1.4,1.3l6.6,6
	c0.5,0.4,0.8,1,1.1,1.6c0.2,0.6,0.4,1.2,0.4,1.8c0,1.3-0.5,2.5-1.4,3.3c-0.9,0.9-2.1,1.4-3.3,1.4h0c-0.6,0-1.2-0.1-1.8-0.4
	c-0.6-0.2-1.1-0.6-1.5-1l-4.5-4.3L33.7,66.8c-0.1,0.1-0.3,0.3-0.3,0.5c-0.1,0.2-0.1,0.4-0.1,0.6c0,0.4,0.2,0.8,0.5,1.1
	c0.3,0.3,0.7,0.5,1.1,0.5c0.2,0,0.4,0,0.6-0.1c0.2-0.1,0.4-0.2,0.5-0.3l10.1-10.1c0.3-0.3,0.7-0.4,1.1-0.4c0.4,0,0.8,0.2,1.1,0.5
	c0.3,0.3,0.5,0.7,0.5,1.1c0,0.4-0.2,0.8-0.4,1.1l-10,10.1c-0.1,0.1-0.3,0.3-0.3,0.5c-0.1,0.2-0.1,0.4-0.1,0.6c0,0.4,0.2,0.8,0.5,1.1
	c0.3,0.3,0.7,0.5,1.1,0.5c0.4,0,0.8-0.2,1.1-0.5l10.1-10.1c0.3-0.3,0.7-0.4,1.1-0.4c0.4,0,0.8,0.2,1.1,0.5c0.3,0.3,0.5,0.7,0.5,1.1
	c0,0.4-0.2,0.8-0.4,1.1L42.6,75.7c-0.1,0.1-0.3,0.3-0.3,0.5c-0.1,0.2-0.1,0.4-0.1,0.6c0,0.4,0.2,0.8,0.5,1.1
	c0.3,0.3,0.7,0.5,1.1,0.5c0.4,0,0.8-0.2,1.1-0.5l10.1-10.1c0.1-0.2,0.3-0.3,0.5-0.4c0.2-0.1,0.4-0.1,0.6-0.1c0.2,0,0.4,0,0.6,0.1
	c0.2,0.1,0.4,0.2,0.5,0.3c0.1,0.1,0.3,0.3,0.3,0.5c0.1,0.2,0.1,0.4,0.1,0.6c0,0.2,0,0.4-0.1,0.6c-0.1,0.2-0.2,0.4-0.4,0.5l-4,4
	c-0.1,0.2-0.2,0.4-0.4,0.6l-1,1c-0.1,0.1-0.3,0.3-0.3,0.5s-0.1,0.4-0.1,0.6c0,0.4,0.2,0.8,0.5,1.1c0.3,0.3,0.7,0.5,1.1,0.5
	c0.4,0,0.8-0.2,1.1-0.5l17.7-17.7C73.9,58,75.4,55.1,75.9,52z M66.1,32.6l16.7,16.7l10.3-10.4L76.4,22.2L66.1,32.6z M37,49.8
	c0.6-0.2,1.1-0.6,1.5-1c0.3-0.3,0.7-0.4,1.1-0.4c0.4,0,0.8,0.2,1.1,0.5c0.3,0.3,0.5,0.7,0.5,1.1c0,0.4-0.2,0.8-0.4,1.1
	c-1.5,1.5-3.5,2.3-5.6,2.3s-4.1-0.8-5.6-2.3c-0.3-0.3-0.4-0.7-0.4-1.1c0-0.4,0.2-0.8,0.5-1.1c0.3-0.3,0.7-0.5,1.1-0.5
	c0.4,0,0.8,0.2,1.1,0.4c0.4,0.4,1,0.8,1.5,1c0.6,0.2,1.2,0.4,1.8,0.4S36.4,50.1,37,49.8z"/>
</svg>
