<?xml version="1.0" encoding="utf-8"?>
<!-- Generator: Adobe Illustrator 23.0.5, SVG Export Plug-In . SVG Version: 6.00 Build 0)  -->
<svg version="1.1" id="Capa_1" xmlns="http://www.w3.org/2000/svg" xmlns:xlink="http://www.w3.org/1999/xlink" x="0px" y="0px"
	 viewBox="0 0 100 100" style="enable-background:new 0 0 100 100;" xml:space="preserve">
<style type="text/css">
	.st0{fill-rule:evenodd;clip-rule:evenodd;}
</style>
<path class="st0" d="M50,3.4c16.5,0,30,13.5,30,30h0c0,11.3-6.4,21.6-16.4,26.7v8.8h5.5v5.5h-5.5v11.3H36.4V74.4h-5.5v-5.5h5.5v-8.8
	C26.4,55,20,44.7,20,33.4C20,16.9,33.5,3.4,50,3.4z M41.8,74.4v5.8h16.4v-5.8H41.8z M50,36.2c-1.5,0-2.7,1.2-2.7,2.7
	c0,1.5,1.2,2.7,2.7,2.7c1.5,0,2.7-1.2,2.7-2.7C52.7,37.4,51.5,36.2,50,36.2z M52.7,46.6v22.3h5.4V56.6l1.6-0.7
	c9-3.9,14.7-12.8,14.7-22.5c0-13.5-11-24.5-24.5-24.5s-24.5,11-24.5,24.5c0,9.7,5.8,18.5,14.7,22.5l1.6,0.7v12.3h5.5V46.6
	c-3.2-1.1-5.5-4.2-5.5-7.7c0-4.5,3.7-8.2,8.2-8.2c4.5,0,8.2,3.7,8.2,8.2C58.2,42.4,55.9,45.5,52.7,46.6z M18.5,14.6L7.6,9.2
	l-2.4,4.9L16,19.5L18.5,14.6z M84,19.5l10.9-5.5l-2.4-4.9l-10.9,5.5L84,19.5z M81.5,52.3l10.9,5.5l2.4-4.9L84,47.4L81.5,52.3z
	 M85.5,30.7h11.1v5.5H85.5V30.7z M7.6,57.7l-2.4-4.9L16,47.4l2.4,4.9L7.6,57.7z M14.5,30.7H3.4v5.5h11.1V30.7z M41.8,96.6v-5.5h16.4
	v5.5H41.8z"/>
</svg>
