<svg width="38" height="40" viewBox="0 0 38 40" fill="none" xmlns="http://www.w3.org/2000/svg">
<g clip-path="url(#clip0_1332_2670)">
<path d="M18.9883 25.854C26.0816 25.854 31.8343 20.0985 31.8473 12.9861C31.8603 5.88686 26.0642 0 19.0664 0C11.9254 0 6.151 5.81245 6.1857 12.9598C6.22041 20.1466 11.882 25.8497 18.9883 25.8497V25.854Z" fill="white"/>
<path d="M1 28V7.5L4.5 6.5H33.5L36.5 7.5L37.5 28H1Z" fill="white"/>
<path d="M1.32321 27.5347C1.32321 24.2959 1.32321 21.1708 1.32321 18.0457C1.32321 15.0213 1.3102 11.9969 1.32321 8.97254C1.33189 7.5807 1.92625 6.98545 3.28417 6.94168C3.89588 6.9198 4.52495 6.98983 5.11931 6.88479C5.38829 6.83664 5.59653 6.46023 5.83514 6.23264C5.59219 6.02692 5.36659 5.68991 5.09761 5.64614C4.49892 5.55422 3.87419 5.59799 3.25813 5.60675C1.11063 5.64614 0.00433839 6.77099 0 8.93315C0 15.6035 0 22.2694 0 28.9353C0 31.4214 1.10629 32.5506 3.55748 32.555C7.27983 32.5594 11.0022 32.555 14.7245 32.555C15.1063 32.555 15.4924 32.555 16.0174 32.555C15.9046 33.2684 15.9349 33.8856 15.692 34.3626C15.397 34.9404 14.6941 35.3299 14.4685 35.9164C13.6139 38.1617 12.1345 39.1553 9.75271 38.6519C9.64859 38.6301 9.50976 38.6082 9.43167 38.6563C9.11497 38.8664 8.81562 39.1071 8.51193 39.3391C8.82863 39.5579 9.141 39.9606 9.4577 39.965C15.8178 40.0044 22.1779 40.0044 28.5336 39.965C28.8503 39.965 29.1627 39.5667 29.4794 39.3522C29.1497 39.1203 28.8373 38.7263 28.4816 38.6826C27.6616 38.5819 26.82 38.6125 25.9913 38.6607C25.3623 38.7001 25.0022 38.4594 24.7072 37.9079C24.1258 36.8224 23.6659 35.5488 22.7939 34.7697C21.9913 34.0519 22.0998 33.4391 22.1475 32.5506C22.5987 32.5506 22.9892 32.5506 23.3796 32.5506C27.102 32.5506 30.8243 32.5594 34.5466 32.5506C36.859 32.5419 37.987 31.3951 37.987 29.0491C37.9957 24.6023 37.987 20.1598 37.987 15.7129C37.987 13.345 38.0043 10.9771 37.9783 8.60926C37.9566 7.00734 36.9588 5.80808 35.5011 5.65052C34.6421 5.5586 33.7657 5.56298 32.9067 5.63301C32.6464 5.65489 32.4121 6.02255 32.1649 6.23264C32.3948 6.46461 32.59 6.84102 32.859 6.90229C33.3406 7.01609 33.8655 6.94168 34.3688 6.94606C36.1388 6.95919 36.6508 7.45378 36.6508 9.19576C36.6508 14.9513 36.6508 20.7112 36.6508 26.4668C36.6508 26.8169 36.6508 27.1627 36.6508 27.5391H1.32321V27.5347Z" fill="white"/>
<path d="M18.9883 25.854C11.882 25.854 6.21607 20.151 6.1857 12.9642C6.151 5.81245 11.9254 0 19.0664 0C26.0642 0 31.8647 5.88686 31.8516 12.9817C31.8386 20.0941 26.0859 25.854 18.9926 25.8497L18.9883 25.854ZM19.7605 18.8817C21.1488 18.6585 22.4503 18.4659 23.7432 18.2208C23.9384 18.1858 24.2031 17.9276 24.2378 17.735C24.4677 16.4219 24.6499 15.1001 24.8538 13.7083H19.7562V18.8817H19.7605ZM18.2551 13.6864H13.1185C13.3354 15.1001 13.5219 16.4176 13.7519 17.7262C13.7822 17.9013 13.9861 18.1464 14.1467 18.177C15.4959 18.4353 16.8495 18.6497 18.2551 18.8861V13.682V13.6864ZM24.8668 12.1895C24.6586 10.8021 24.4894 9.55028 24.2638 8.31163C24.2204 8.07528 23.9905 7.72513 23.7952 7.69012C22.4807 7.44064 21.1488 7.26119 19.7605 7.0511V12.1895H24.8668ZM18.2291 12.1895V7.04235C16.8538 7.25243 15.5827 7.42313 14.3202 7.6551C14.0989 7.6945 13.7952 7.97899 13.7562 8.19346C13.5133 9.49338 13.3354 10.8021 13.1228 12.1895H18.2291ZM23.3657 2.28471C23.9948 3.6853 24.5762 4.99398 25.1835 6.29391C25.266 6.46898 25.4395 6.64405 25.6174 6.72721C26.9059 7.33559 28.2074 7.92209 29.5957 8.55236C28.3419 5.61112 26.3072 3.54087 23.3701 2.28471H23.3657ZM23.3701 23.5649C26.1944 22.5189 29.2573 19.3369 29.3701 17.4461C28.2117 17.9801 27.0013 18.5228 25.8083 19.1049C25.548 19.2319 25.279 19.4682 25.1532 19.7264C24.5371 20.9826 23.9688 22.265 23.3701 23.5693V23.5649ZM14.6933 2.22781C11.7519 3.53212 9.64774 5.57173 8.41998 8.55674C9.77355 7.93085 11.0447 7.36186 12.2942 6.74472C12.5458 6.62217 12.7584 6.3333 12.8885 6.07069C13.4872 4.84517 14.0556 3.59777 14.6933 2.22781ZM14.6673 23.635C14.0339 22.2694 13.4655 21.022 12.8755 19.7833C12.7757 19.5689 12.6326 19.3106 12.4417 19.2187C11.1401 18.5841 9.82562 17.9932 8.40262 17.3367C9.68679 20.2998 11.7128 22.3613 14.6673 23.635ZM7.59568 13.612C8.49807 15.8661 10.2204 16.7633 12.2031 17.5993C12.0903 16.3563 12.0252 15.2752 11.8733 14.2072C11.843 13.984 11.5089 13.647 11.3007 13.6383C10.1293 13.5814 8.9536 13.612 7.59134 13.612H7.59568ZM30.4156 13.612C29.0751 13.612 27.9297 13.5857 26.7844 13.6339C26.5588 13.6426 26.1857 13.9359 26.151 14.1416C25.9905 15.2358 25.9124 16.3431 25.7909 17.6299C27.7822 16.7371 29.5133 15.8573 30.4113 13.6076L30.4156 13.612ZM25.7779 8.26349C25.9254 9.64657 26.0556 10.894 26.19 12.1764H30.3636C29.5349 10.0361 27.7952 9.15636 25.7779 8.26349ZM7.62605 12.1545H11.8169C11.9514 10.8414 12.0772 9.61593 12.2161 8.26786C10.2421 9.1301 8.51108 10.0098 7.62605 12.1545ZM23.6174 6.11445C22.8191 4.09673 21.895 2.37663 19.7822 1.475V5.69428C21.0577 5.83434 22.2638 5.97002 23.6174 6.11883V6.11445ZM19.8213 20.1991V24.3353C21.5653 23.6744 23.0621 21.7967 23.5002 19.7921C22.2811 19.9278 21.0794 20.0591 19.8213 20.1991ZM14.3896 6.11008C15.6087 5.97877 16.715 5.88686 17.8126 5.72492C18.0035 5.69428 18.2855 5.37477 18.2942 5.17781C18.3375 3.98731 18.3159 2.7968 18.3159 1.42685C16.125 2.3635 15.1879 4.09235 14.3896 6.11008ZM14.3419 19.7833C15.2399 21.7529 16.0425 23.5693 18.3159 24.3878C18.3159 23.0529 18.3506 21.8974 18.2855 20.7463C18.2725 20.523 17.8994 20.1773 17.6521 20.1379C16.6326 19.9759 15.5957 19.9103 14.3419 19.7833Z" fill="#006099"/>
<path d="M1.32321 27.5347H36.6508C36.6508 27.1583 36.6508 26.8126 36.6508 26.4624C36.6508 20.7069 36.6508 14.9469 36.6508 9.19138C36.6508 7.4494 36.1388 6.95481 34.3688 6.94168C33.8612 6.94168 33.3406 7.01171 32.859 6.89791C32.59 6.83664 32.3948 6.46023 32.1649 6.22825C32.4121 6.01817 32.6464 5.64613 32.9067 5.62863C33.7657 5.56297 34.6421 5.55422 35.5011 5.64613C36.9631 5.8037 37.961 7.00296 37.9783 8.60488C38.0087 10.9728 37.987 13.3406 37.987 15.7085C37.987 20.1554 37.9913 24.5979 37.987 29.0448C37.987 31.3907 36.8547 32.5419 34.5466 32.5462C30.8243 32.5594 27.102 32.5462 23.3796 32.5462C22.9892 32.5462 22.5987 32.5462 22.1475 32.5462C22.0954 33.4347 21.9913 34.0475 22.7939 34.7653C23.6659 35.5444 24.1215 36.818 24.7072 37.9035C25.0022 38.455 25.3666 38.6913 25.9913 38.6563C26.82 38.6082 27.6616 38.5775 28.4816 38.6782C28.8373 38.722 29.1453 39.1159 29.4794 39.3479C29.1627 39.5623 28.8503 39.9606 28.5336 39.9606C22.1735 39.9956 15.8134 39.9956 9.4577 39.9606C9.141 39.9606 8.82863 39.5536 8.51193 39.3347C8.81562 39.1028 9.11497 38.8664 9.43167 38.6519C9.50542 38.5994 9.64859 38.6257 9.75271 38.6476C12.1345 39.1509 13.6139 38.153 14.4685 35.912C14.6941 35.3255 15.397 34.936 15.692 34.3582C15.9349 33.8812 15.9002 33.264 16.0174 32.5506C15.4924 32.5506 15.1106 32.5506 14.7245 32.5506C11.0022 32.5506 7.27983 32.555 3.55748 32.5506C1.11063 32.5506 0 31.4258 0 28.9353C0 22.2694 0 15.6035 0 8.93315C0 6.76661 1.10629 5.64613 3.25813 5.61112C3.87419 5.60237 4.49458 5.5586 5.09761 5.65051C5.36659 5.6899 5.59219 6.0313 5.83514 6.23701C5.59653 6.4646 5.38829 6.84101 5.11931 6.88916C4.52061 6.9942 3.89588 6.92855 3.28417 6.94606C1.92191 6.98983 1.32755 7.58508 1.32321 8.97691C1.3102 12.0013 1.32321 15.0257 1.32321 18.0501C1.32321 21.1752 1.32321 24.3003 1.32321 27.5391V27.5347ZM1.4013 29.0448C1.35792 30.616 1.95228 31.1982 3.59653 31.1982C9.73102 31.2025 15.8698 31.1982 22.0043 31.1982C26.1909 31.1982 30.3774 31.2113 34.564 31.1938C36.0868 31.1894 36.7158 30.4804 36.5206 29.0448H1.40564H1.4013ZM23.5141 38.595C23.0889 37.851 22.6985 37.247 22.3991 36.6036C22.1171 35.9996 21.7223 35.7763 21.0499 35.8026C19.6443 35.8551 18.2343 35.8026 16.8243 35.8332C16.5033 35.842 16.0477 35.9383 15.8959 36.1659C15.3926 36.8968 14.9978 37.7109 14.5033 38.5994H23.5141V38.595ZM20.6594 32.6425H17.3753V34.3451H20.6594V32.6425Z" fill="#006099"/>
<path d="M19.7656 18.8773V13.7039H24.8632C24.655 15.0957 24.4771 16.4175 24.2472 17.7306C24.2125 17.9232 23.9478 18.177 23.7526 18.2164C22.4598 18.4615 21.1539 18.6541 19.77 18.8773H19.7656Z" fill="white"/>
<path d="M18.2597 13.682V18.8861C16.8541 18.6497 15.4961 18.4353 14.1512 18.177C13.9907 18.1464 13.7868 17.9013 13.7565 17.7262C13.5309 16.4132 13.34 15.0957 13.123 13.6864H18.2597V13.682Z" fill="white"/>
<path d="M24.8719 12.1895H19.7656V7.0511C21.1539 7.26119 22.4858 7.44064 23.8003 7.69012C23.9912 7.72514 24.2255 8.07528 24.2689 8.31163C24.4945 9.55466 24.6637 10.8021 24.8719 12.1895Z" fill="white"/>
<path d="M18.2391 12.1939H13.1328C13.3454 10.8064 13.5233 9.49776 13.7662 8.19783C13.8053 7.98337 14.1133 7.70325 14.3302 7.65948C15.5883 7.42313 16.8595 7.25243 18.2391 7.04672V12.1939Z" fill="white"/>
<path d="M23.3657 2.28471C26.3028 3.54087 28.3375 5.61112 29.5913 8.55236C28.203 7.91772 26.9015 7.33559 25.613 6.72721C25.4394 6.64405 25.2615 6.46898 25.1791 6.29391C24.5761 4.99398 23.9947 3.6853 23.3613 2.28471H23.3657Z" fill="white"/>
<path d="M23.3711 23.5606C23.9698 22.2606 24.5381 20.9782 25.1542 19.7177C25.28 19.4595 25.549 19.2231 25.8093 19.0962C27.0023 18.5141 28.2127 17.9713 29.3711 17.4373C29.2583 19.3281 26.1997 22.5101 23.3711 23.5562V23.5606Z" fill="white"/>
<path d="M14.6932 2.22781C14.0555 3.59777 13.4915 4.84079 12.8885 6.07068C12.7583 6.3333 12.5457 6.62217 12.2941 6.74472C11.0447 7.36185 9.7735 7.93084 8.41992 8.55673C9.64769 5.57172 11.7518 3.53211 14.6932 2.22781Z" fill="white"/>
<path d="M14.6689 23.6306C11.7145 22.3569 9.6928 20.2954 8.4043 17.3323C9.82295 17.9888 11.1418 18.5841 12.4433 19.2144C12.6342 19.3063 12.7774 19.5645 12.8772 19.779C13.4672 21.0176 14.0355 22.265 14.6689 23.6306Z" fill="white"/>
<path d="M7.5957 13.612C8.95796 13.612 10.1337 13.5857 11.305 13.6382C11.5133 13.647 11.843 13.984 11.8777 14.2072C12.0295 15.2752 12.0946 16.3563 12.2074 17.5993C10.2248 16.7633 8.50243 15.8661 7.60004 13.612H7.5957Z" fill="white"/>
<path d="M30.4173 13.612C29.5192 15.8617 27.7882 16.7414 25.7969 17.6343C25.9184 16.3475 25.9964 15.2402 26.157 14.146C26.1873 13.9403 26.5604 13.647 26.7904 13.6383C27.9314 13.5857 29.0767 13.6164 30.4216 13.6164L30.4173 13.612Z" fill="white"/>
<path d="M25.7793 8.26349C27.7967 9.15637 29.5407 10.0317 30.365 12.1764H26.1914C26.057 10.8984 25.9268 9.65095 25.7793 8.26349Z" fill="white"/>
<path d="M7.62695 12.1545C8.51199 10.0099 10.243 9.12573 12.217 8.26787C12.0781 9.61594 11.9523 10.8415 11.8178 12.1545H7.62695Z" fill="white"/>
<path d="M23.6183 6.11445C22.2648 5.96564 21.0587 5.82995 19.7832 5.68989V1.47499C21.896 2.37662 22.8201 4.09672 23.6183 6.11445Z" fill="white"/>
<path d="M19.8223 20.1991C21.0761 20.0591 22.2821 19.9278 23.5012 19.7921C23.0674 21.7967 21.5706 23.6744 19.8223 24.3353V20.1991Z" fill="white"/>
<path d="M14.3906 6.11007C15.1889 4.08797 16.126 2.36349 18.3169 1.42685C18.3169 2.7968 18.3386 3.9873 18.2952 5.17781C18.2865 5.37476 18.0045 5.69865 17.8136 5.72491C16.7203 5.88686 15.6141 5.98315 14.3906 6.11007Z" fill="white"/>
<path d="M14.3418 19.779C15.5956 19.9015 16.6325 19.9672 17.652 20.1335C17.8993 20.1729 18.2724 20.5186 18.2854 20.7419C18.3505 21.893 18.3158 23.0485 18.3158 24.3834C16.0468 23.5693 15.2442 21.7529 14.3418 19.779Z" fill="white"/>
<path d="M1.40625 29.0491H36.5299C36.7208 30.4847 36.0961 31.1894 34.5733 31.1982C30.3867 31.2157 26.2002 31.1982 22.0136 31.2025C15.8791 31.2025 9.74031 31.2069 3.60582 31.2025C1.96156 31.2025 1.36287 30.6204 1.41059 29.0491H1.40625Z" fill="white"/>
<path d="M23.5187 38.5994H14.5078C15.0024 37.7109 15.3972 36.9012 15.9004 36.1659C16.0566 35.9427 16.5078 35.842 16.8289 35.8332C18.2345 35.7982 19.6445 35.8551 21.0545 35.8026C21.7269 35.7763 22.1174 35.9996 22.4037 36.6036C22.7074 37.247 23.0978 37.851 23.5187 38.595V38.5994Z" fill="white"/>
<path d="M20.6631 32.6425V34.3451H17.3789V32.6425H20.6631Z" fill="white"/>
</g>
<defs>
<clipPath id="clip0_1332_2670">
<rect width="38" height="40" fill="white"/>
</clipPath>
</defs>
</svg>
