<svg width="16" height="24" viewBox="0 0 16 24" fill="none" xmlns="http://www.w3.org/2000/svg">
<path d="M9.03869 22.926L9.03869 3.558C9.03869 3.552 9.04469 3.55201 9.05069 3.55201L13.6767 8.17201C14.0847 8.58001 14.7387 8.58001 15.1467 8.17201C15.5547 7.76401 15.5547 7.11001 15.1467 6.702L8.73869 0.294004C8.33069 -0.113995 7.67669 -0.113995 7.26869 0.294004L0.860687 6.708C0.656687 6.912 0.554687 7.17601 0.554687 7.44001C0.554687 7.70401 0.656687 7.97401 0.860687 8.17201C1.26869 8.58001 1.92269 8.58001 2.33069 8.17201L6.95669 3.55201C6.96269 3.546 6.96869 3.552 6.96869 3.558L6.96869 22.962C6.96869 23.508 7.38869 23.952 7.91669 24C8.52869 24.048 9.03869 23.544 9.03869 22.926Z" fill="#C41A90"/>
</svg>
