<?xml version="1.0" encoding="utf-8"?>
<!-- Generator: Adobe Illustrator 23.0.5, SVG Export Plug-In . SVG Version: 6.00 Build 0)  -->
<svg version="1.1" id="Capa_1" xmlns="http://www.w3.org/2000/svg" xmlns:xlink="http://www.w3.org/1999/xlink" x="0px" y="0px"
	 viewBox="0 0 100 100" style="enable-background:new 0 0 100 100;" xml:space="preserve">
<path d="M88.2,11.8H11.8c-5.2,0-9.5,4.3-9.5,9.5l0,57.2c0,5.2,4.3,9.5,9.5,9.5h76.3c5.2,0,9.5-4.3,9.5-9.5V21.4
	C97.7,16.1,93.4,11.8,88.2,11.8z M83.4,78.6H16.6c-2.6,0-4.8-2.1-4.8-4.8V30.9l33.1,20.7c3.1,2,7,2,10.1,0l33.1-20.7v42.9
	C88.2,76.5,86,78.6,83.4,78.6z M50,45.2L11.8,21.4h76.3L50,45.2z"/>
</svg>
