<?xml version="1.0" encoding="utf-8"?>
<!-- Generator: Adobe Illustrator 23.0.5, SVG Export Plug-In . SVG Version: 6.00 Build 0)  -->
<svg version="1.1" id="Capa_1" xmlns="http://www.w3.org/2000/svg" xmlns:xlink="http://www.w3.org/1999/xlink" x="0px" y="0px"
	 viewBox="0 0 100 100" style="enable-background:new 0 0 100 100;" xml:space="preserve">
<style type="text/css">
	.st0{fill-rule:evenodd;clip-rule:evenodd;}
</style>
<path class="st0" d="M2.9,48.6C2.9,22.4,23.5,2.9,50,2.9c26.5,0,47.1,19.4,47.1,45.7c0,26.2-20.6,45.7-47.1,45.7
	c-4.8,0-9.3-0.6-13.6-1.8c-0.8-0.2-1.7-0.2-2.5,0.2l-9.3,4.1c-2.4,1.1-5.2-0.7-5.3-3.3L19,85c0-1-0.5-2-1.3-2.7
	C8.6,74.2,2.9,62.3,2.9,48.6z M35.6,40L21.7,61.9c-1.3,2.1,1.3,4.5,3.2,3l14.8-11.3c1-0.8,2.4-0.8,3.4,0l11,8.2
	c3.3,2.5,8,1.6,10.2-1.9l13.8-21.9c1.3-2.1-1.3-4.5-3.2-3L60.2,46.4c-1,0.8-2.4,0.8-3.4,0l-11-8.2C42.5,35.7,37.8,36.5,35.6,40z"/>
</svg>
