<?xml version="1.0" encoding="utf-8"?>
<!-- Generator: Adobe Illustrator 23.0.5, SVG Export Plug-In . SVG Version: 6.00 Build 0)  -->
<svg version="1.1" id="Capa_1" xmlns="http://www.w3.org/2000/svg" xmlns:xlink="http://www.w3.org/1999/xlink" x="0px" y="0px"
	 viewBox="0 0 100 100" style="enable-background:new 0 0 100 100;" xml:space="preserve">
<path d="M81.3,73.5c4.3,0,7.8-3.5,7.8-7.8l0-39.1c0-4.3-3.5-7.8-7.8-7.8H18.7c-4.3,0-7.8,3.5-7.8,7.8v39.1c0,4.3,3.5,7.8,7.8,7.8H7
	c-2.2,0-3.9,1.8-3.9,3.9c0,2.2,1.8,3.9,3.9,3.9H93c2.2,0,3.9-1.8,3.9-3.9c0-2.2-1.8-3.9-3.9-3.9H81.3z M22.6,26.5h54.8
	c2.2,0,3.9,1.8,3.9,3.9v31.3c0,2.2-1.8,3.9-3.9,3.9H22.6c-2.2,0-3.9-1.8-3.9-3.9V30.4C18.7,28.3,20.5,26.5,22.6,26.5z"/>
</svg>
