<?xml version="1.0" encoding="utf-8"?>
<!-- Generator: Adobe Illustrator 23.0.5, SVG Export Plug-In . SVG Version: 6.00 Build 0)  -->
<svg version="1.1" id="Capa_1" xmlns="http://www.w3.org/2000/svg" xmlns:xlink="http://www.w3.org/1999/xlink" x="0px" y="0px"
	 viewBox="0 0 100 100" style="enable-background:new 0 0 100 100;" xml:space="preserve">
<path d="M14.1,66.2l12.6-1.4c3-0.3,6,0.7,8.1,2.8l9.1,9.1C58.1,69.6,69.6,58.1,76.8,44l-9.2-9.2c-2.1-2.1-3.2-5.1-2.8-8.1l1.4-12.5
	c0.6-5,4.8-8.8,9.9-8.8h8.6c5.6,0,10.3,4.7,9.9,10.3C92,58.1,58,92,15.7,94.6C10,95,5.4,90.3,5.4,84.7v-8.6
	C5.3,71.1,9.1,66.8,14.1,66.2z"/>
</svg>
