<?xml version="1.0" encoding="utf-8"?>
<!-- Generator: Adobe Illustrator 23.0.5, SVG Export Plug-In . SVG Version: 6.00 Build 0)  -->
<svg version="1.1" id="Capa_1" xmlns="http://www.w3.org/2000/svg" xmlns:xlink="http://www.w3.org/1999/xlink" x="0px" y="0px"
	 viewBox="0 0 100 100" style="enable-background:new 0 0 100 100;" xml:space="preserve">
<g>
	<path d="M70.8,22.8c5.5,0,9.9-4.4,9.9-9.9s-4.4-9.9-9.9-9.9c-5.5,0-9.9,4.4-9.9,9.9S65.3,22.8,70.8,22.8z M70.8,8.4
		c2.5,0,4.6,2.1,4.6,4.6s-2.1,4.6-4.6,4.6s-4.6-2.1-4.6-4.6S68.3,8.4,70.8,8.4z"/>
	<path d="M82.1,23.5H59.4c-5.7,0.1-10.3,5-10.3,10.9L50.8,56c0.3,5.1,4.2,7.8,8.4,8.4l2.1,28.2c0.2,2.1,1.9,3.7,4,3.7h11.1
		c1.9,0,3.5-1.3,3.9-3.1c0.1-0.2,0.1-0.4,0.1-0.6l2.1-28.2c4.2-0.6,8-3.3,8.4-8.4l1.6-21.8C92.4,28.5,87.8,23.7,82.1,23.5z
		 M85.5,55.7c-0.1,1.9-1.4,2.8-2.7,3.2l1.6-21.4c0.1-1.5-1-2.7-2.4-2.8c-1.5-0.1-2.7,1-2.8,2.4l-1.8,24.7v0c0,0,0,0,0,0L75.2,91
		h-8.8l-2.2-29.1c0,0,0-0.1,0-0.1L62.4,37c-0.1-1.5-1.4-2.6-2.8-2.5c-1.5,0.1-2.6,1.4-2.5,2.8l1.6,21.4c-1.3-0.4-2.6-1.3-2.7-3.2
		l-1.6-21.4c0-2.9,2.3-5.4,5-5.4H82c2.8,0.1,5.1,2.5,5.1,5.2L85.5,55.7z"/>
	<path d="M54.1,68.5c-0.6-0.3-1.2-0.6-1.8-0.9c-1.1,0.5-2.2,0.9-3.4,1.3c0.5-0.9,0.9-1.8,1.4-2.8c-1.6-1.4-2.9-3.1-3.8-5.2
		c-1.9,6-4.5,9.4-6.5,9.4c0,0,0,0,0,0c-2.7,0-6.3-6-8.2-16.1h13.5l-0.4-5.3H31c-0.2-2.5-0.4-5.2-0.4-8c0-2.9,0.2-5.5,0.4-8h12.9
		c0.2-1.9,0.7-3.7,1.4-5.3H31.8c1.8-10.1,5.4-16.1,8.1-16.1c0,0,0,0,0,0c2.4,0,5.5,4.7,7.5,12.8c1.2-1.6,2.8-2.9,4.5-3.9
		c-0.8-2.8-1.8-5.4-3-7.5c2.5,0.8,5,2,7.1,3.4c-0.2-1.1-0.4-2.2-0.4-3.3c0-1,0.1-2,0.3-2.9c-4.8-2.5-10.2-3.9-16-3.9c0,0,0,0,0,0
		c0,0,0,0,0,0c0,0,0,0,0,0C20.8,6.1,5.2,21.7,5.2,40.9s15.6,34.7,34.7,34.7c0,0,0,0,0,0c0,0,0,0,0,0c0,0,0,0,0,0
		c5.2,0,10-1.2,14.5-3.2L54.1,68.5z M25.7,48.9H11.6c-0.7-2.6-1.1-5.3-1.1-8c0-2.8,0.4-5.5,1.1-8h14.1c-0.2,2.6-0.4,5.3-0.4,8
		C25.3,43.6,25.5,46.3,25.7,48.9z M30.9,12.9c-2.1,3.8-3.7,9-4.6,14.7H13.7C17.3,20.6,23.4,15.3,30.9,12.9z M13.7,54.2h12.6
		c0.9,5.7,2.5,10.9,4.6,14.7C23.4,66.5,17.3,61.1,13.7,54.2z"/>
</g>
</svg>
