<?xml version="1.0" encoding="utf-8"?>
<!-- Generator: Adobe Illustrator 23.0.5, SVG Export Plug-In . SVG Version: 6.00 Build 0)  -->
<svg version="1.1" id="Capa_1" xmlns="http://www.w3.org/2000/svg" xmlns:xlink="http://www.w3.org/1999/xlink" x="0px" y="0px"
	 viewBox="0 0 100 100" style="enable-background:new 0 0 100 100;" xml:space="preserve">
<path d="M78.9,51.3c1,0.9,2.4,1.4,3.9,1.4h10.9c1.4,0,2.5-1.1,2.5-2.5V15.8c0-6.3-5.1-11.5-11.5-11.5H55.8v5h28.9
	c3.6,0,6.5,2.9,6.5,6.5v31.9h-8.4c-0.1,0-0.3,0-0.4-0.1c-0.4-0.2-0.6-0.5-0.6-0.9V43c0-2.7-1.1-5.2-3-7.1c-2-1.9-4.5-2.8-7.2-2.7
	c-0.3,0-0.6,0.1-1,0.1c-2,0.3-3.8,1.2-5.2,2.6c-1.9,1.8-3,4.4-3,7.1v3.7c0,0.1,0,0.3-0.1,0.4c-0.2,0.4-0.5,0.6-0.9,0.6h-8.4v-8.4
	c0-2-1-3.8-2.5-4.9c-1-0.7-2.2-1.2-3.6-1.2h-3.3c-2.5,0-4.9-2-5.1-4.3c0-0.1,0-0.3,0-0.4c0-0.1,0-0.3,0-0.4c0.2-2.3,2.6-4.3,5.1-4.3
	h3.3c1.9,0,3.6-0.9,4.7-2.2c0,0,0.1-0.1,0.1-0.1c0.1-0.1,0.2-0.2,0.3-0.3c0.7-1,1-2.1,1-3.4V6.8c0-1.4-1.1-2.5-2.5-2.5H15.8
	C9.4,4.3,4.3,9.4,4.3,15.8v28.9h5V15.8c0-3.6,2.9-6.5,6.5-6.5h31.9v8.4c0,0.1,0,0.3-0.1,0.4c-0.2,0.4-0.5,0.6-0.9,0.6H43
	c-2.7,0-5.2,1.1-7.1,3c-1.7,1.8-2.7,4.2-2.7,6.7c0,2.5,0.9,4.9,2.7,6.7c1.8,1.9,4.4,3,7.1,3h3.7c0.1,0,0.3,0,0.4,0.1
	c0.4,0.2,0.6,0.5,0.6,0.9v8.4h-8.4c-1.9,0-3.6,0.9-4.7,2.2c-0.9,1-1.4,2.4-1.4,3.9V57c0,2.5-2,4.9-4.3,5.1c-0.1,0-0.3,0-0.5,0
	c-0.1,0-0.3,0-0.4,0c-2.3-0.2-4.3-2.6-4.3-5.1v-3.3c0-2.1-1.1-3.9-2.7-5c-1-0.7-2.1-1-3.4-1H6.8c-1.4,0-2.5,1.1-2.5,2.5v34.4
	c0,6.3,5.1,11.5,11.5,11.5h28.9v-5H15.8c-3.6,0-6.5-2.9-6.5-6.5V52.7h8.4c0.1,0,0.3,0,0.4,0.1c0.4,0.2,0.6,0.5,0.6,0.9v3.7
	c0,2.7,1.1,5.2,3,7.1c1.7,1.6,3.8,2.5,6.1,2.7c0,0,0,0,0.1,0c0,0,0,0,0,0c0,0,0,0,0,0c0.2,0,0.3,0,0.5,0c0.1,0,0.2,0,0.3,0
	c0.1,0,0.2,0,0.2,0c0.1,0,0.1,0,0.2,0c0.2,0,0.5,0,0.7-0.1c0,0,0.1,0,0.1,0c2-0.3,3.8-1.2,5.2-2.6c1.9-1.8,3-4.4,3-7.1v-3.7
	c0-0.1,0-0.3,0.1-0.4c0.2-0.4,0.5-0.6,0.9-0.6h8.4v8.4c0,1.9,0.9,3.6,2.2,4.7c1,0.9,2.4,1.4,3.9,1.4H57c2.5,0,4.9,2,5.1,4.3
	c0,0.1,0,0.3,0,0.4c0,0.1,0,0.3,0,0.4c-0.2,2.3-2.6,4.3-5.1,4.3h-3.3c-2.1,0-3.9,1.1-5,2.7c-0.7,1-1,2.1-1,3.4v10.9
	c0,1.4,1.1,2.5,2.5,2.5h34.4c6.3,0,11.5-5.1,11.5-11.5V55.8h-5v28.9c0,3.6-2.9,6.5-6.5,6.5H52.7v-8.4c0-0.1,0-0.3,0.1-0.4
	c0.2-0.4,0.5-0.6,0.9-0.6h3.7c2.7,0,5.2-1.1,7.1-3c1.7-1.8,2.7-4.2,2.7-6.7c0-2.5-0.9-4.9-2.7-6.7c-1.8-1.9-4.4-3-7.1-3h-3.7
	c-0.1,0-0.3,0-0.4-0.1c-0.4-0.2-0.6-0.5-0.6-0.9v-8.4h8.4c2,0,3.8-1,4.9-2.6c0.7-1,1.1-2.2,1.1-3.5v-3.3c0-2.5,2-4.9,4.3-5.1
	c0.1,0,0.3,0,0.4,0c0.1,0,0.3,0,0.4,0c2.3,0.2,4.3,2.6,4.3,5.1v3.3C76.6,48.5,77.5,50.2,78.9,51.3z"/>
</svg>
