<?xml version="1.0" encoding="utf-8"?>
<!-- Generator: Adobe Illustrator 23.0.5, SVG Export Plug-In . SVG Version: 6.00 Build 0)  -->
<svg version="1.1" id="Capa_1" xmlns="http://www.w3.org/2000/svg" xmlns:xlink="http://www.w3.org/1999/xlink" x="0px" y="0px"
	 viewBox="0 0 100 100" style="enable-background:new 0 0 100 100;" xml:space="preserve">
<path d="M70.5,62.6h-4.2l-1.5-1.4c6.3-7.4,9.6-17.5,7.8-28.2C70.2,18.3,58,6.5,43.2,4.7C20.8,2,2,20.8,4.7,43.1
	C6.5,57.9,18.3,70.2,33,72.7c10.7,1.8,20.8-1.5,28.2-7.8l1.4,1.5v4.2L85.1,93c2.2,2.2,5.7,2.2,7.9,0c2.2-2.2,2.2-5.7,0-7.9
	L70.5,62.6z M38.8,62.6c-13.2,0-23.8-10.6-23.8-23.8S25.7,15,38.8,15s23.8,10.6,23.8,23.8S52,62.6,38.8,62.6z"/>
</svg>
