<?xml version="1.0" encoding="utf-8"?>
<!-- Generator: Adobe Illustrator 23.0.5, SVG Export Plug-In . SVG Version: 6.00 Build 0)  -->
<svg version="1.1" id="Capa_1" xmlns="http://www.w3.org/2000/svg" xmlns:xlink="http://www.w3.org/1999/xlink" x="0px" y="0px"
	 viewBox="0 0 100 100" style="enable-background:new 0 0 100 100;" xml:space="preserve">
<path d="M96.7,21c-3.4,1.5-7.1,2.6-11,3c4-2.4,7-6.1,8.4-10.6c-3.7,2.2-7.8,3.8-12.2,4.7c-3.5-3.7-8.5-6.1-14-6.1
	c-12.4,0-21.5,11.6-18.7,23.5c-15.9-0.8-30.1-8.4-39.5-20c-5,8.6-2.6,19.9,5.9,25.6c-3.1-0.1-6.1-1-8.7-2.4
	c-0.2,8.9,6.2,17.2,15.4,19c-2.7,0.7-5.7,0.9-8.7,0.3c2.4,7.6,9.5,13.2,17.9,13.3c-8.1,6.3-18.2,9.1-28.4,7.9
	c8.5,5.4,18.6,8.6,29.4,8.6c35.6,0,55.7-30.1,54.5-57C90.9,28.2,94.2,24.9,96.7,21z"/>
</svg>
