<?xml version="1.0" encoding="utf-8"?>
<!-- Generator: Adobe Illustrator 23.0.5, SVG Export Plug-In . SVG Version: 6.00 Build 0)  -->
<svg version="1.1" id="Capa_1" xmlns="http://www.w3.org/2000/svg" xmlns:xlink="http://www.w3.org/1999/xlink" x="0px" y="0px"
	 viewBox="0 0 100 100" style="enable-background:new 0 0 100 100;" xml:space="preserve">
<style type="text/css">
	.st0{fill-rule:evenodd;clip-rule:evenodd;}
</style>
<path class="st0" d="M82.6,16.8C73.9,8,62.2,3.4,50,3.4C24.3,3.4,3.4,24.3,3.4,50c0,8.2,2.3,16.3,6.4,23.3L3.4,96.6l24.5-6.4
	c7,3.5,14.6,5.8,22.2,5.8c25.7,0,46.6-21,46.6-46.6C96.6,37.2,91.4,25.5,82.6,16.8z M50,88.5c-7,0-14-1.7-19.8-5.2L29,82.6
	l-14.6,4.1l4.1-14L17.4,71c-4.1-6.4-5.8-13.4-5.8-20.4c0-21,17.5-38.5,38.5-38.5c10.5,0,19.8,4.1,27.4,11.1
	c7.6,7.6,11.1,16.9,11.1,27.4C88.5,71,71.6,88.5,50,88.5z M71,59.3c-1.2-0.6-7-3.5-8.2-3.5c-1.2-0.6-1.7-0.6-2.3,0.6
	c-0.6,1.2-2.9,3.5-3.5,4.7c-0.6,0.6-1.2,0.6-2.3,0.6c-1.2-0.6-4.7-1.7-9.3-5.8c-3.5-2.9-5.8-7-6.4-8.2c-0.6-1.2,0-1.7,0.6-2.3
	s1.2-1.2,1.7-1.7s0.6-1.2,1.2-1.7c0.6-0.6,0-1.2,0-1.7c0-0.6-2.3-6.4-3.5-8.7c-0.6-1.7-1.7-1.7-2.3-1.7c-0.6,0-1.2,0-2.3,0
	c-0.6,0-1.7,0-2.9,1.2s-4.1,4.1-4.1,9.9s4.1,11.1,4.7,12.2c0.6,0.6,8.2,12.8,19.8,17.5c9.9,4.1,11.7,2.9,14,2.9c2.3,0,7-2.9,7.6-5.2
	c1.2-2.9,1.2-5.2,0.6-5.2C73.3,59.9,72.2,59.9,71,59.3z"/>
</svg>
